<svg width="33" height="32" viewBox="0 0 33 32" fill="none" xmlns="http://www.w3.org/2000/svg">
<circle cx="17.5" cy="14.3057" r="17" fill="#CFF5C7"/>
<path d="M24.7595 11.2117L20.3813 9.54297L19.2751 11.0023C19.2751 11.6148 19.1657 12.2273 18.9501 12.818C18.7157 13.4648 18.3595 14.0492 17.9126 14.543L19.0407 18.4805L21.1438 17.8773L19.9376 13.6711L22.9407 12.8086L24.147 17.0148L26.2501 16.4117L24.7595 11.2117Z" fill="#38A03C"/>
<path d="M15.8186 6.70578C15.8404 6.6839 15.8592 6.66515 15.8811 6.64328C15.9186 6.60578 15.9592 6.57453 15.9998 6.54015C16.0279 6.51515 16.0561 6.49328 16.0873 6.46828C16.1248 6.44015 16.1654 6.41203 16.2029 6.3839C16.2404 6.3589 16.2748 6.3339 16.3123 6.31203C16.3498 6.29015 16.3873 6.26828 16.4248 6.2464C16.4873 6.21203 16.5467 6.17765 16.6123 6.1464C17.2936 5.82765 18.0592 5.7964 18.7686 6.05265C19.4936 6.31515 20.0529 6.8589 20.3623 7.53078L20.1686 7.4589C19.9092 7.3589 19.6154 7.44328 19.4467 7.66515L18.7123 8.63703C18.7342 8.67453 18.7529 8.71515 18.7717 8.75578C18.9686 9.18078 19.1092 9.62765 19.1873 10.0777L20.1623 8.79328L25.2717 10.7402L25.7186 9.5714L21.1342 7.82453C20.8498 6.7464 20.0592 5.85578 18.9811 5.46515C18.1154 5.14953 17.1811 5.19015 16.3467 5.58078C16.2998 5.60265 16.2592 5.62765 16.2123 5.64953C16.2061 5.64953 16.1998 5.64953 16.1936 5.65578C16.1686 5.66828 16.1436 5.68703 16.1186 5.69953C16.0717 5.72453 16.0248 5.75265 15.9811 5.78078C15.9342 5.8089 15.8904 5.84015 15.8467 5.86828C15.7998 5.90265 15.7498 5.9339 15.7029 5.9714C15.6654 5.99953 15.6311 6.02765 15.5967 6.0589C15.5467 6.09953 15.4998 6.14015 15.4529 6.1839C15.4248 6.21203 15.3967 6.24015 15.3654 6.26828C15.3186 6.31515 15.2686 6.36515 15.2248 6.41515C15.2061 6.4339 15.1904 6.45578 15.1748 6.47453C12.8498 5.8464 10.3904 7.09015 9.5498 9.39328C8.85293 11.3089 9.4873 13.3839 10.9748 14.612L10.4123 16.1589L10.7873 16.9589L9.9873 17.3339L10.3623 18.1339L9.5623 18.5089L9.9373 19.3089L9.1373 19.6839L8.75293 20.7433L9.58105 23.0402L11.6904 21.812L13.9217 15.6839C15.8529 15.6995 17.6717 14.5214 18.3686 12.6027C19.2217 10.2589 18.0842 7.68078 15.8248 6.70265L15.8186 6.70578ZM15.6936 8.97453C15.5154 9.46203 14.9779 9.71203 14.4904 9.5339C14.0029 9.35578 13.7529 8.81828 13.9311 8.33078C14.0311 8.0589 14.2436 7.86515 14.4936 7.77453C14.4373 7.97765 14.3904 8.1839 14.3717 8.39328C14.3561 8.56515 14.4842 8.71828 14.6561 8.7339C14.8279 8.74953 14.9811 8.6214 14.9967 8.44953C15.0186 8.2214 15.0686 7.9964 15.1436 7.77765C15.6217 7.9589 15.8686 8.49015 15.6936 8.97453Z" fill="#38A03C"/>
</svg>
