<svg width="33" height="32" viewBox="0 0 33 32" fill="none" xmlns="http://www.w3.org/2000/svg">
<circle cx="17.5" cy="14.3057" r="17" fill="#FFD2CE"/>
<g clip-path="url(#clip0_12004_8873)">
<path d="M27.1663 14.8311C26.0921 11.3748 22.6825 9.01613 18.5957 8.94607V4.90596C18.5957 4.71914 18.4322 4.55566 18.2454 4.55566C18.1754 4.55566 18.1053 4.57902 18.0352 4.62572L7.64304 12.1455C7.47957 12.2622 7.45621 12.4724 7.57298 12.6359C7.59633 12.6592 7.61969 12.6826 7.64304 12.7059L18.0352 20.179C18.1987 20.2958 18.4089 20.249 18.5257 20.1089C18.5724 20.0389 18.5957 19.9688 18.5957 19.8987V15.882C21.1179 15.882 23.243 17.073 23.9903 18.8712C24.6208 20.4125 24.1071 22.0706 22.6125 23.4484C22.4723 23.5886 22.449 23.7987 22.5891 23.9389C22.6592 24.0089 22.7526 24.0556 22.846 24.0556H23.1262C23.1963 24.0556 23.2664 24.0323 23.3131 23.9856C26.746 21.7203 28.2172 18.194 27.1663 14.8311Z" fill="#F15555"/>
</g>
<defs>
<clipPath id="clip0_12004_8873">
<rect width="20" height="20" fill="white" transform="translate(7.5 4.30566)"/>
</clipPath>
</defs>
</svg>
