<svg width="31" height="32" viewBox="0 0 31 32" fill="none" xmlns="http://www.w3.org/2000/svg">
<circle cx="17.5" cy="14.3057" r="17" fill="#FFDFAC"/>
<path d="M17.8231 17.4548L22.9168 8.63191V7.639C22.9168 6.48858 21.9839 5.55566 20.8335 5.55566H11.6668C10.5164 5.55566 9.5835 6.48858 9.5835 7.639V20.9723C9.5835 22.1227 10.5164 23.0557 11.6668 23.0557H20.8335C21.9839 23.0557 22.9168 22.1227 22.9168 20.9723V16.9661L21.4318 19.5386C21.2122 19.9182 20.9035 20.2457 20.5385 20.4861L19.4352 21.2152C19.2156 21.3602 18.9618 21.4369 18.7014 21.4369C18.3347 21.4369 17.9802 21.2832 17.7272 21.0148C17.4743 20.7457 17.3472 20.3932 17.3697 20.0223L17.4485 18.7023C17.4747 18.2644 17.6043 17.8332 17.8231 17.4544V17.4548ZM12.0835 8.05566H15.8335C16.0639 8.05566 16.2502 8.24233 16.2502 8.47233C16.2502 8.70233 16.0639 8.889 15.8335 8.889H12.0835C11.8531 8.889 11.6668 8.70233 11.6668 8.47233C11.6668 8.24233 11.8531 8.05566 12.0835 8.05566ZM12.0835 10.5557H19.7043C19.9347 10.5557 20.121 10.7423 20.121 10.9723C20.121 11.2023 19.9347 11.389 19.7043 11.389H12.0835C11.8531 11.389 11.6668 11.2023 11.6668 10.9723C11.6668 10.7423 11.8531 10.5557 12.0835 10.5557ZM15.9835 20.5557H15.4168C15.2777 20.5557 15.1477 20.4861 15.0706 20.3707L14.5831 19.6415L14.3177 20.0411C14.1802 20.2382 13.9581 20.3419 13.7256 20.3144C13.4981 20.2886 13.3035 20.1407 13.2177 19.9286L12.9168 19.1773L12.4702 20.294C12.4052 20.4569 12.2485 20.5561 12.0831 20.5561C12.0314 20.5561 11.9793 20.5465 11.9285 20.5261C11.7147 20.4407 11.6106 20.1982 11.696 19.9844L12.1418 18.8677C12.2714 18.5486 12.5747 18.3432 12.916 18.3432C13.2572 18.3432 13.561 18.5486 13.6893 18.8661L13.8427 19.2494L13.8897 19.179C14.0402 18.9469 14.3002 18.8057 14.5822 18.8057C14.8643 18.8057 15.1243 18.9465 15.2777 19.1832L15.6381 19.7223H15.9822C16.2127 19.7223 16.3989 19.909 16.3989 20.139C16.3989 20.369 16.2127 20.5557 15.9822 20.5557H15.9835ZM16.8168 16.389H12.0835C11.8531 16.389 11.6668 16.2023 11.6668 15.9723C11.6668 15.7423 11.8531 15.5557 12.0835 15.5557H16.8168C17.0472 15.5557 17.2335 15.7423 17.2335 15.9723C17.2335 16.2023 17.0472 16.389 16.8168 16.389ZM12.0835 13.889C11.8531 13.889 11.6668 13.7023 11.6668 13.4723C11.6668 13.2423 11.8531 13.0557 12.0835 13.0557H18.2585C18.4889 13.0557 18.6752 13.2423 18.6752 13.4723C18.6752 13.7023 18.4889 13.889 18.2585 13.889H12.0835Z" fill="#F39C12"/>
<path d="M25.6021 10.6478L26.1158 9.7578C26.3921 9.27947 26.2279 8.6678 25.75 8.39197L25.3171 8.14197C24.8388 7.86572 24.2271 8.02989 23.9513 8.5078L23.4375 9.3978L25.6021 10.6478Z" fill="#F39C12"/>
<path d="M23.0203 10.1196L18.5445 17.8721C18.3891 18.1408 18.2986 18.4425 18.2803 18.7521L18.2011 20.0725C18.1766 20.4837 18.632 20.7466 18.9757 20.5196L20.0799 19.7908C20.3391 19.6196 20.5549 19.3908 20.7099 19.1216L25.1857 11.3691L23.0207 10.1191L23.0203 10.1196Z" fill="#F39C12"/>
</svg>
