<svg width="33" height="31" viewBox="0 0 33 31" fill="none" xmlns="http://www.w3.org/2000/svg">
<circle cx="17.5" cy="13.3057" r="17" fill="#FFD3CE"/>
<g clip-path="url(#clip0_12004_8921)">
<path d="M21.8866 16.083H21.4775V18.1504H21.8866C22.1382 18.1504 22.2865 17.9987 22.2865 17.6931V16.5289C22.2865 16.2233 22.1382 16.083 21.8866 16.083Z" fill="#B14A41"/>
<path d="M16.1268 16.0791C15.8752 16.0791 15.7246 16.2185 15.7246 16.5285V17.7195C15.7246 18.0298 15.8752 18.169 16.1268 18.169C16.3786 18.169 16.5336 18.0298 16.5336 17.7195V16.5285C16.5336 16.2185 16.3786 16.0791 16.1268 16.0791Z" fill="#B14A41"/>
<path d="M25.4101 12.3077H24.7336L18.9059 6.85516C19.0159 6.63957 19.0732 6.40098 19.073 6.15888C19.0725 5.30249 18.3778 4.60885 17.5214 4.60938C16.665 4.6099 15.9714 5.3046 15.9719 6.16099C15.9717 6.40221 16.0291 6.64009 16.139 6.8548L10.3113 12.3077H9.63483C8.47015 12.3077 7.5 13.2667 7.5 14.4313V19.8695C7.5 21.0344 8.47015 21.9706 9.63483 21.9706H25.4101C25.9666 21.9717 26.5005 21.7503 26.893 21.3556C27.2854 20.9612 27.504 20.426 27.4999 19.8695V14.4313C27.4999 13.2667 26.5747 12.3077 25.4101 12.3077ZM13.1359 18.7988C12.5472 18.7988 12.0528 18.5112 12.0528 18.2145C12.0528 18.0618 12.1877 17.837 12.3585 17.837C12.5697 17.837 12.7045 18.1696 13.1225 18.1696C13.3292 18.1696 13.5584 18.0886 13.5584 17.8729C13.5584 17.3291 12.1338 17.4234 12.1338 16.3718C12.1338 15.6977 12.7224 15.4415 13.2842 15.4415C13.5225 15.4415 14.1787 15.4865 14.1787 15.837C14.1787 15.9584 14.0978 16.2056 13.8999 16.2056C13.7382 16.2056 13.6527 16.0347 13.2842 16.0347C12.9652 16.0347 12.8348 16.165 12.8348 16.3044C12.8348 16.7538 14.2595 16.6685 14.2595 17.8011C14.2595 18.4482 13.7876 18.7988 13.1359 18.7988ZM17.2078 17.7201C17.2078 18.4931 16.7247 18.7809 16.1044 18.7809C15.4842 18.7809 15.0056 18.4931 15.0056 17.7201V16.5291C15.0056 15.7561 15.4842 15.4684 16.1044 15.4684C16.7247 15.4684 17.2078 15.7561 17.2078 16.5291V17.7201ZM19.8506 18.7347H18.4303C18.2775 18.7347 18.1067 18.6818 18.1067 18.5381V15.6797C18.1067 15.5314 18.2911 15.4684 18.4663 15.4684C18.6415 15.4684 18.8258 15.5314 18.8258 15.6797V18.1504H19.8506C19.9854 18.1504 20.0528 18.2898 20.0528 18.4426C20.0528 18.5955 19.9854 18.7347 19.8506 18.7347ZM23.0056 17.6931C23.0056 18.4661 22.5066 18.7347 21.8865 18.7347H21.0909C20.9067 18.7347 20.8033 18.655 20.8033 18.5426V15.6797C20.8033 15.5674 20.9067 15.454 21.0909 15.454H21.8865C22.5066 15.454 23.0056 15.7561 23.0056 16.5291V17.6931ZM11.2316 12.3077L16.5326 7.34866C17.1048 7.8304 17.9408 7.8297 18.5123 7.34725L23.8133 12.3077H11.2316Z" fill="#B14A41"/>
</g>
<defs>
<clipPath id="clip0_12004_8921">
<rect width="20" height="20" fill="white" transform="translate(7.5 3.30566)"/>
</clipPath>
</defs>
</svg>
