<svg width="33" height="32" viewBox="0 0 33 32" fill="none" xmlns="http://www.w3.org/2000/svg">
<circle cx="17.5" cy="14.3057" r="17" fill="#D6D0FF"/>
<path d="M21.875 5.55566H13.125C12.6279 5.55621 12.1513 5.75393 11.7998 6.10544C11.4483 6.45695 11.2505 6.93355 11.25 7.43066V21.7459C11.2499 21.9713 11.3108 22.1925 11.4262 22.3861C11.5416 22.5798 11.7072 22.7386 11.9056 22.8457C12.1039 22.9529 12.3275 23.0044 12.5527 22.9948C12.7779 22.9853 12.9963 22.915 13.1848 22.7914L17.5244 19.9478L21.8103 22.7822C21.9987 22.9068 22.2173 22.978 22.4429 22.9883C22.6686 22.9986 22.8928 22.9476 23.0917 22.8407C23.2906 22.7338 23.4569 22.5749 23.5728 22.3811C23.6887 22.1872 23.75 21.9656 23.75 21.7397V7.43066C23.7495 6.93355 23.5517 6.45695 23.2002 6.10544C22.8487 5.75393 22.3721 5.55621 21.875 5.55566ZM21.0614 12.1761L19.7339 13.4701L20.047 15.2969C20.0667 15.4118 20.0539 15.5299 20.01 15.6379C19.9661 15.7458 19.8928 15.8394 19.7985 15.9079C19.7042 15.9764 19.5926 16.0172 19.4764 16.0256C19.3601 16.034 19.2438 16.0097 19.1406 15.9554L17.5 15.0936L15.8594 15.9554C15.7562 16.0097 15.6399 16.034 15.5236 16.0256C15.4074 16.0172 15.2958 15.9764 15.2015 15.9079C15.1072 15.8394 15.0339 15.7458 14.99 15.6379C14.9461 15.5299 14.9333 15.4118 14.953 15.2969L15.2661 13.4701L13.9386 12.1761C13.8551 12.0948 13.796 11.9916 13.768 11.8784C13.7401 11.7652 13.7444 11.6464 13.7805 11.5355C13.8166 11.4246 13.883 11.326 13.9722 11.2509C14.0614 11.1758 14.1699 11.1271 14.2853 11.1105L16.1194 10.8438L16.9397 9.18237C16.9971 9.08479 17.079 9.0039 17.1773 8.94769C17.2756 8.89148 17.3868 8.86192 17.5 8.86192C17.6132 8.86192 17.7245 8.89148 17.8228 8.94769C17.9211 9.0039 18.0029 9.08479 18.0604 9.18237L18.8807 10.8438L20.7148 11.1105C20.8302 11.1271 20.9387 11.1758 21.0279 11.2509C21.1171 11.326 21.1835 11.4246 21.2196 11.5355C21.2557 11.6464 21.26 11.7652 21.232 11.8784C21.2041 11.9916 21.1449 12.0948 21.0614 12.1761Z" fill="#8576FF"/>
</svg>
