<svg width="26" height="26" viewBox="0 0 26 26" fill="none" xmlns="http://www.w3.org/2000/svg">
<circle cx="14" cy="12" r="14" fill="white" fill-opacity="0.69"/>
<g clip-path="url(#clip0_13944_14514)">
<path d="M19.8766 14.1894C19.0195 14.1894 18.1779 14.0553 17.3804 13.7918C16.9896 13.6585 16.5092 13.7808 16.2707 14.0257L14.6965 15.2141C12.8709 14.2396 11.7464 13.1154 10.7852 11.3035L11.9386 9.77039C12.2382 9.47114 12.3457 9.03401 12.2169 8.62385C11.9522 7.82213 11.8178 6.98093 11.8178 6.12343C11.8178 5.50396 11.3139 5 10.6944 5H8.12339C7.50396 5 7 5.50396 7 6.12339C7 13.2237 12.7764 19 19.8766 19C20.4961 19 21 18.496 21 17.8766V15.3127C21 14.6934 20.496 14.1894 19.8766 14.1894Z" fill="#705DFF"/>
<path d="M15.375 5C15.1677 5 15 5.16772 15 5.375C15 5.58228 15.1677 5.75 15.375 5.75C18.063 5.75 20.25 7.937 20.25 10.625C20.25 10.8323 20.4177 11 20.625 11C20.8323 11 21 10.8323 21 10.625C21 7.5232 18.4768 5 15.375 5ZM15.375 6.5C15.1677 6.5 15 6.66772 15 6.875C15 7.08228 15.1677 7.25 15.375 7.25C17.2361 7.25 18.75 8.76393 18.75 10.625C18.75 10.8323 18.9177 11 19.125 11C19.3323 11 19.5 10.8323 19.5 10.625C19.5 8.35048 17.6495 6.5 15.375 6.5ZM15.375 8C15.1677 8 15 8.16773 15 8.375C15 8.58228 15.1677 8.75 15.375 8.75C16.4088 8.75 17.25 9.59118 17.25 10.625C17.25 10.8323 17.4177 11 17.625 11C17.8323 11 18 10.8323 18 10.625C18 9.17773 16.8223 8 15.375 8ZM15.375 9.5C15.1677 9.5 15 9.66773 15 9.875C15 10.0823 15.1677 10.25 15.375 10.25C15.5819 10.25 15.75 10.4181 15.75 10.625C15.75 10.8323 15.9177 11 16.125 11C16.3323 11 16.5 10.8323 16.5 10.625C16.5 10.0047 15.9954 9.5 15.375 9.5Z" fill="#705DFF"/>
</g>
<defs>
<clipPath id="clip0_13944_14514">
<rect width="14" height="14" fill="white" transform="translate(7 5)"/>
</clipPath>
</defs>
</svg>
