<svg width="26" height="26" viewBox="0 0 26 26" fill="none" xmlns="http://www.w3.org/2000/svg">
<circle cx="14" cy="12" r="14" fill="white" fill-opacity="0.69"/>
<g clip-path="url(#clip0_13944_14550)">
<path d="M13.9999 4.5C10.8121 4.5 8.21875 7.09336 8.21875 10.2812C8.21875 12.0741 9.14629 14.1565 10.9759 16.4704C12.3147 18.1635 13.6343 19.3339 13.6896 19.3828C13.8658 19.538 14.1316 19.5401 14.3102 19.3828C14.3655 19.3339 15.6851 18.1635 17.0239 16.4704C18.8535 14.1565 19.7811 12.0741 19.7811 10.2812C19.7811 7.09336 17.1877 4.5 13.9999 4.5ZM11.5888 13.2656C10.6636 12.5276 10.1327 11.4255 10.1327 10.2422C10.1327 8.10967 11.8674 6.375 13.9999 6.375C16.1324 6.375 17.8671 8.10967 17.8671 10.2422C17.8671 11.4263 17.3364 12.5537 16.3466 13.316C14.9386 14.3923 12.9721 14.3698 11.5888 13.2656Z" fill="#E9A607"/>
<path d="M14 10.3594C14.3883 10.3594 14.7031 10.0446 14.7031 9.65625C14.7031 9.26792 14.3883 8.95312 14 8.95312C13.6117 8.95312 13.2969 9.26792 13.2969 9.65625C13.2969 10.0446 13.6117 10.3594 14 10.3594Z" fill="#E9A607"/>
<path d="M12.6033 10.7804C12.6714 10.7355 12.6874 10.6429 12.6413 10.5755C11.9163 9.51585 12.6657 8.01561 14 8.01561C15.3357 8.01561 16.0831 9.51664 15.3587 10.5755C15.3126 10.643 15.3285 10.7355 15.3967 10.7805C15.7673 11.0249 16.0597 11.3592 16.2552 11.7433C16.3072 11.8455 16.4514 11.8524 16.5107 11.7542C16.7925 11.2872 16.9406 10.7452 16.929 10.1808C16.8957 8.55195 15.5589 7.27508 13.9302 7.31334C12.3469 7.35049 11.0703 8.65007 11.0703 10.2422C11.0703 10.7841 11.2175 11.3036 11.4886 11.7532C11.5481 11.8519 11.6926 11.8458 11.7449 11.7431C11.94 11.3599 12.232 11.0253 12.6033 10.7804Z" fill="#E9A607"/>
<path d="M15.5028 12.7586C15.5572 12.7259 15.5843 12.6617 15.5701 12.5999L15.5545 12.5323C15.3867 11.8049 14.7483 11.2969 14.0018 11.2969C13.2553 11.2969 12.617 11.8049 12.4491 12.5323L12.4334 12.6003C12.4193 12.6619 12.446 12.7258 12.5 12.7586C13.3854 13.295 14.5633 13.3239 15.5028 12.7586Z" fill="#E9A607"/>
</g>
<defs>
<clipPath id="clip0_13944_14550">
<rect width="15" height="15" fill="white" transform="translate(6.5 4.5)"/>
</clipPath>
</defs>
</svg>
