<svg width="80" height="40" viewBox="0 0 80 40" fill="none" xmlns="http://www.w3.org/2000/svg">
<path d="M47.5 4H32.5C30.019 4 28 6.019 28 8.5V21.5C28 23.981 30.019 26 32.5 26H47.5C49.981 26 52 23.981 52 21.5V8.5C52 6.019 49.981 4 47.5 4ZM51 21.5C51 23.43 49.43 25 47.5 25H32.5C30.57 25 29 23.43 29 21.5V8.5C29 6.57 30.57 5 32.5 5H47.5C49.43 5 51 6.57 51 8.5V21.5ZM48 9.5C48 9.776 47.776 10 47.5 10H37.5C37.224 10 37 9.776 37 9.5C37 9.224 37.224 9 37.5 9H47.5C47.776 9 48 9.224 48 9.5ZM34 9.5C34 10.052 33.552 10.5 33 10.5C32.448 10.5 32 10.052 32 9.5C32 8.948 32.448 8.5 33 8.5C33.552 8.5 34 8.948 34 9.5ZM48 15C48 15.276 47.776 15.5 47.5 15.5H37.5C37.224 15.5 37 15.276 37 15C37 14.724 37.224 14.5 37.5 14.5H47.5C47.776 14.5 48 14.724 48 15ZM34 15C34 15.552 33.552 16 33 16C32.448 16 32 15.552 32 15C32 14.448 32.448 14 33 14C33.552 14 34 14.448 34 15ZM48 20.5C48 20.776 47.776 21 47.5 21H37.5C37.224 21 37 20.776 37 20.5C37 20.224 37.224 20 37.5 20H47.5C47.776 20 48 20.224 48 20.5ZM34 20.5C34 21.052 33.552 21.5 33 21.5C32.448 21.5 32 21.052 32 20.5C32 19.948 32.448 19.5 33 19.5C33.552 19.5 34 19.948 34 20.5Z" fill="#C7C7C7"/>
<path d="M26.39 35.45H23.35L22.79 37H21.83L24.35 30.07H25.4L27.91 37H26.95L26.39 35.45ZM26.13 34.71L24.87 31.19L23.61 34.71H26.13ZM28.6683 34.25C28.6683 33.6833 28.7816 33.19 29.0083 32.77C29.2349 32.3433 29.5483 32.0133 29.9483 31.78C30.3549 31.5467 30.8183 31.43 31.3383 31.43C32.0116 31.43 32.5649 31.5933 32.9983 31.92C33.4383 32.2467 33.7283 32.7 33.8683 33.28H32.8883C32.7949 32.9467 32.6116 32.6833 32.3383 32.49C32.0716 32.2967 31.7383 32.2 31.3383 32.2C30.8183 32.2 30.3983 32.38 30.0783 32.74C29.7583 33.0933 29.5983 33.5967 29.5983 34.25C29.5983 34.91 29.7583 35.42 30.0783 35.78C30.3983 36.14 30.8183 36.32 31.3383 36.32C31.7383 36.32 32.0716 36.2267 32.3383 36.04C32.6049 35.8533 32.7883 35.5867 32.8883 35.24H33.8683C33.7216 35.8 33.4283 36.25 32.9883 36.59C32.5483 36.9233 31.9983 37.09 31.3383 37.09C30.8183 37.09 30.3549 36.9733 29.9483 36.74C29.5483 36.5067 29.2349 36.1767 29.0083 35.75C28.7816 35.3233 28.6683 34.8233 28.6683 34.25ZM36.1925 32.27V35.5C36.1925 35.7667 36.2492 35.9567 36.3625 36.07C36.4758 36.1767 36.6725 36.23 36.9525 36.23H37.6225V37H36.8025C36.2958 37 35.9158 36.8833 35.6625 36.65C35.4092 36.4167 35.2825 36.0333 35.2825 35.5V32.27H34.5725V31.52H35.2825V30.14H36.1925V31.52H37.6225V32.27H36.1925ZM39.1951 30.63C39.0217 30.63 38.8751 30.57 38.7551 30.45C38.6351 30.33 38.5751 30.1833 38.5751 30.01C38.5751 29.8367 38.6351 29.69 38.7551 29.57C38.8751 29.45 39.0217 29.39 39.1951 29.39C39.3617 29.39 39.5017 29.45 39.6151 29.57C39.7351 29.69 39.7951 29.8367 39.7951 30.01C39.7951 30.1833 39.7351 30.33 39.6151 30.45C39.5017 30.57 39.3617 30.63 39.1951 30.63ZM39.6351 31.52V37H38.7251V31.52H39.6351ZM43.226 36.16L44.926 31.52H45.896L43.746 37H42.686L40.536 31.52H41.516L43.226 36.16ZM47.2615 30.63C47.0882 30.63 46.9415 30.57 46.8215 30.45C46.7015 30.33 46.6415 30.1833 46.6415 30.01C46.6415 29.8367 46.7015 29.69 46.8215 29.57C46.9415 29.45 47.0882 29.39 47.2615 29.39C47.4282 29.39 47.5682 29.45 47.6815 29.57C47.8015 29.69 47.8615 29.8367 47.8615 30.01C47.8615 30.1833 47.8015 30.33 47.6815 30.45C47.5682 30.57 47.4282 30.63 47.2615 30.63ZM47.7015 31.52V37H46.7915V31.52H47.7015ZM50.3624 32.27V35.5C50.3624 35.7667 50.4191 35.9567 50.5324 36.07C50.6458 36.1767 50.8424 36.23 51.1224 36.23H51.7924V37H50.9724C50.4658 37 50.0858 36.8833 49.8324 36.65C49.5791 36.4167 49.4524 36.0333 49.4524 35.5V32.27H48.7424V31.52H49.4524V30.14H50.3624V31.52H51.7924V32.27H50.3624ZM57.615 31.52L54.315 39.58H53.375L54.455 36.94L52.245 31.52H53.255L54.975 35.96L56.675 31.52H57.615Z" fill="#C7C7C7"/>
</svg>
