<svg width="22" height="22" viewBox="0 0 22 22" fill="none" xmlns="http://www.w3.org/2000/svg">
<g clip-path="url(#clip0_7263_6535)">
<path d="M15.439 6.44486C15.5241 6.44019 15.6043 6.40305 15.6629 6.34105C15.7215 6.27906 15.7542 6.19693 15.7542 6.11155C15.7542 6.02618 15.7215 5.94405 15.6629 5.88206C15.6043 5.82006 15.5241 5.78291 15.439 5.77825H7.89375C7.45268 5.77878 7.02982 5.95447 6.71793 6.2668C6.40604 6.57912 6.23059 7.00258 6.23007 7.44427V16.3343C6.23059 16.776 6.40604 17.1995 6.71793 17.5118C7.02982 17.8241 7.45268 17.9998 7.89375 18.0004H15.439C15.4827 18.0005 15.526 17.992 15.5664 17.9753C15.6067 17.9586 15.6434 17.9341 15.6743 17.9032C15.7052 17.8722 15.7297 17.8355 15.7463 17.7951C15.763 17.7546 15.7715 17.7113 15.7714 17.6676V8.77748C15.7714 8.45364 15.437 8.42276 15.1883 8.44468C15.0185 8.13884 14.9293 7.7947 14.9293 7.44477C14.9293 7.09484 15.0185 6.75069 15.1883 6.44486H15.439ZM7.89375 6.44486H14.4549C14.2012 7.08724 14.2012 7.80229 14.4549 8.44468H7.89375C7.62893 8.44468 7.37495 8.33933 7.1877 8.15181C7.00044 7.96429 6.89524 7.70996 6.89524 7.44477C6.89524 7.17957 7.00044 6.92524 7.1877 6.73772C7.37495 6.5502 7.62893 6.44486 7.89375 6.44486ZM8.44897 17.3377H7.89375C7.62985 17.3377 7.37676 17.2328 7.19016 17.0459C7.00356 16.859 6.89873 16.6056 6.89873 16.3413V8.76851C7.35755 9.06825 7.90992 9.1898 8.45196 9.11029L8.44897 17.3377ZM15.1057 9.11427V17.3377H9.11464V9.11128L15.1057 9.11427ZM1.70669 7.64555C0.908161 9.87141 0.93004 12.3097 1.76838 14.5209C1.79376 14.602 1.78725 14.6898 1.75018 14.7663C1.71311 14.8429 1.64827 14.9023 1.5689 14.9326C1.48954 14.9628 1.40163 14.9616 1.32312 14.9292C1.24462 14.8967 1.18144 14.8355 1.14649 14.758C0.251136 12.399 0.227843 9.79707 1.08081 7.42235C1.11063 7.33924 1.1722 7.27139 1.25198 7.23374C1.33175 7.19608 1.42319 7.19171 1.50619 7.22157C1.58918 7.25143 1.65693 7.31309 1.69453 7.39297C1.73213 7.47286 1.73651 7.56443 1.70669 7.64754V7.64555ZM4.66987 18.3441C5.36042 19.0416 5.05992 20.7893 5.11962 21.6662C5.11962 21.7547 5.0845 21.8396 5.02199 21.9022C4.95948 21.9648 4.87469 22 4.78629 22H0.348476C0.260071 22 0.175286 21.9648 0.112774 21.9022C0.0502619 21.8396 0.015143 21.7547 0.015143 21.6662C0.0738494 20.7963 -0.223663 19.0366 0.464894 18.3441C0.522107 18.2799 0.601899 18.2402 0.687604 18.2335C0.77331 18.2268 0.858301 18.2534 0.924826 18.308C0.991351 18.3625 1.03427 18.4407 1.04461 18.5261C1.05495 18.6116 1.03191 18.6978 0.980317 18.7666C0.785963 19.0024 0.68033 19.2989 0.68181 19.6046V21.3334H4.45395V19.6046C4.55345 19.0765 3.81315 18.6421 4.20121 18.2983C4.26947 18.2422 4.35714 18.2156 4.44501 18.2242C4.53287 18.2328 4.61373 18.2759 4.66987 18.3441ZM1.1246 17C1.1246 17.3831 1.2766 17.7506 1.54718 18.0216C1.81775 18.2925 2.18473 18.4448 2.56738 18.4448C2.95003 18.4448 3.31701 18.2925 3.58759 18.0216C3.85816 17.7506 4.01017 17.3831 4.01017 17C4.01017 16.6168 3.85816 16.2493 3.58759 15.9783C3.31701 15.7074 2.95003 15.5551 2.56738 15.5551C2.18473 15.5551 1.81775 15.7074 1.54718 15.9783C1.2766 16.2493 1.1246 16.6168 1.1246 17ZM2.56738 16.2218C2.77348 16.2218 2.97115 16.3037 3.11688 16.4497C3.26262 16.5956 3.3445 16.7936 3.3445 17C3.3445 17.2064 3.26262 17.4043 3.11688 17.5502C2.97115 17.6962 2.77348 17.7782 2.56738 17.7782C2.36128 17.7782 2.16362 17.6962 2.01788 17.5502C1.87214 17.4043 1.79027 17.2064 1.79027 17C1.79027 16.7936 1.87214 16.5956 2.01788 16.4497C2.16362 16.3037 2.36128 16.2218 2.56738 16.2218ZM4.66987 2.78998C5.36042 3.48748 5.05992 5.2352 5.11962 6.11305C5.11962 6.20158 5.0845 6.28648 5.02199 6.34908C4.95948 6.41168 4.87469 6.44685 4.78629 6.44685H0.348476C0.260071 6.44685 0.175286 6.41168 0.112774 6.34908C0.0502619 6.28648 0.015143 6.20158 0.015143 6.11305C0.0738494 5.24018 -0.223663 3.4815 0.464894 2.78998C0.520972 2.72154 0.601905 2.6782 0.689889 2.66951C0.777872 2.66082 0.865699 2.68749 0.934048 2.74365C1.0024 2.7998 1.04567 2.88085 1.05435 2.96896C1.06302 3.05707 1.0364 3.14502 0.980317 3.21346C0.787428 3.44965 0.681973 3.74534 0.68181 4.05046V5.77925H4.45395V4.04846C4.45378 3.74335 4.34833 3.44766 4.15544 3.21147C4.10746 3.14249 4.08725 3.05792 4.09882 2.97466C4.1104 2.8914 4.15292 2.81558 4.21789 2.76235C4.28286 2.70911 4.3655 2.68239 4.44929 2.68751C4.53307 2.69264 4.61185 2.72923 4.66987 2.78998ZM2.56738 2.88962C2.95003 2.88962 3.31701 2.7374 3.58759 2.46645C3.85816 2.19549 4.01017 1.828 4.01017 1.44481C4.01017 1.06162 3.85816 0.69413 3.58759 0.423176C3.31701 0.152221 2.95003 0 2.56738 0C2.18473 0 1.81775 0.152221 1.54718 0.423176C1.2766 0.69413 1.1246 1.06162 1.1246 1.44481C1.1246 1.828 1.2766 2.19549 1.54718 2.46645C1.81775 2.7374 2.18473 2.88962 2.56738 2.88962ZM2.56738 0.667603C2.76854 0.674814 2.95906 0.759909 3.09882 0.904969C3.23859 1.05003 3.31669 1.24374 3.31669 1.44531C3.31669 1.64688 3.23859 1.84059 3.09882 1.98565C2.95906 2.13071 2.76854 2.21581 2.56738 2.22302C2.36128 2.22302 2.16362 2.14103 2.01788 1.99509C1.87214 1.84914 1.79027 1.6512 1.79027 1.44481C1.79027 1.23842 1.87214 1.04048 2.01788 0.894537C2.16362 0.748596 2.36128 0.667603 2.56738 0.667603ZM16.1515 2.5608C14.5975 1.61892 12.8157 1.12099 10.9992 1.12099C9.18277 1.12099 7.40096 1.61892 5.84698 2.5608C5.80974 2.58364 5.76838 2.5989 5.72524 2.60573C5.68211 2.61255 5.63806 2.6108 5.59561 2.60058C5.55315 2.59035 5.51312 2.57186 5.4778 2.54614C5.44248 2.52042 5.41257 2.48799 5.38977 2.4507C5.36697 2.41341 5.35172 2.37198 5.34491 2.32879C5.3381 2.2856 5.33984 2.24148 5.35005 2.19897C5.36026 2.15645 5.37873 2.11637 5.40441 2.081C5.43009 2.04563 5.46248 2.01568 5.49972 1.99284C7.15844 0.987478 9.06034 0.455986 10.9992 0.455986C12.9381 0.455986 14.84 0.987478 16.4987 1.99284C16.5674 2.04189 16.615 2.11521 16.6318 2.19799C16.6487 2.28078 16.6335 2.36688 16.5895 2.43893C16.5454 2.51098 16.4757 2.56362 16.3944 2.58624C16.3131 2.60886 16.2263 2.59977 16.1515 2.5608ZM16.1196 19.8517C16.1404 19.8902 16.1534 19.9325 16.1578 19.976C16.1622 20.0196 16.1581 20.0636 16.1455 20.1055C16.1329 20.1475 16.1122 20.1865 16.0845 20.2204C16.0569 20.2543 16.0228 20.2824 15.9843 20.3031C14.4852 21.109 12.8135 21.5395 11.1122 21.5579C9.41081 21.5763 7.73028 21.182 6.21415 20.4087C6.17495 20.3891 6.13999 20.3619 6.11128 20.3288C6.08256 20.2956 6.06065 20.2571 6.04679 20.2155C6.03293 20.1738 6.02739 20.1299 6.0305 20.0861C6.03361 20.0423 6.04529 19.9996 6.06489 19.9603C6.08449 19.9211 6.11162 19.8861 6.14473 19.8573C6.17784 19.8286 6.21628 19.8066 6.25786 19.7927C6.29944 19.7789 6.34334 19.7733 6.38706 19.7764C6.43078 19.7795 6.47345 19.7912 6.51266 19.8109C7.93314 20.5357 9.50781 20.9053 11.102 20.8879C12.6962 20.8706 14.2625 20.4668 15.6669 19.7112C15.7058 19.6906 15.7484 19.6778 15.7923 19.6737C15.8361 19.6696 15.8803 19.6742 15.9224 19.6872C15.9645 19.7003 16.0036 19.7215 16.0374 19.7498C16.0712 19.778 16.0992 19.8126 16.1196 19.8517ZM20.1515 14.7191C21.0585 12.4785 21.1152 9.9829 20.3107 7.70334C20.2962 7.66205 20.2899 7.61831 20.2923 7.57461C20.2947 7.53091 20.3056 7.48811 20.3245 7.44865C20.3434 7.40919 20.3699 7.37384 20.4024 7.34462C20.435 7.3154 20.4729 7.29289 20.5141 7.27836C20.5554 7.26384 20.5991 7.25759 20.6427 7.25997C20.6863 7.26235 20.7291 7.27331 20.7685 7.29223C20.8079 7.31116 20.8432 7.33766 20.8724 7.37025C20.9015 7.40283 20.924 7.44085 20.9385 7.48213C21.7969 9.91488 21.7364 12.5781 20.7684 14.9692C20.7353 15.0512 20.671 15.1166 20.5897 15.151C20.5085 15.1855 20.4169 15.1863 20.335 15.1531C20.2532 15.1199 20.1879 15.0556 20.1535 14.9742C20.1191 14.8928 20.1183 14.8011 20.1515 14.7191ZM21.5336 18.3441C22.2241 19.0416 21.9236 20.7893 21.9833 21.6662C21.9834 21.71 21.9749 21.7534 21.9583 21.7939C21.9416 21.8344 21.9172 21.8712 21.8863 21.9022C21.8554 21.9332 21.8188 21.9578 21.7784 21.9746C21.738 21.9914 21.6947 22 21.651 22H17.2141C17.1259 21.9997 17.0414 21.9645 16.9791 21.9019C16.9168 21.8393 16.8818 21.7546 16.8818 21.6662C16.9405 20.7963 16.643 19.0366 17.3316 18.3441C17.3888 18.2799 17.4686 18.2402 17.5543 18.2335C17.64 18.2268 17.725 18.2534 17.7915 18.308C17.858 18.3625 17.9009 18.4407 17.9113 18.5261C17.9216 18.6116 17.8986 18.6978 17.847 18.7666C17.6526 19.0024 17.547 19.2989 17.5485 19.6046V21.3334H21.3206V19.6046C21.4201 19.0765 20.6808 18.6431 21.0679 18.2983C21.136 18.2429 21.2232 18.2166 21.3106 18.2251C21.398 18.2337 21.4775 18.2765 21.5336 18.3441ZM17.9903 17C17.9903 17.3831 18.1423 17.7506 18.4128 18.0216C18.6834 18.2925 19.0504 18.4448 19.4331 18.4448C19.8157 18.4448 20.1827 18.2925 20.4533 18.0216C20.7238 17.7506 20.8758 17.3831 20.8758 17C20.8758 16.6168 20.7238 16.2493 20.4533 15.9783C20.1827 15.7074 19.8157 15.5551 19.4331 15.5551C19.0504 15.5551 18.6834 15.7074 18.4128 15.9783C18.1423 16.2493 17.9903 16.6168 17.9903 17ZM20.2092 17C20.202 17.2014 20.117 17.3922 19.9721 17.5321C19.8273 17.6721 19.6338 17.7503 19.4326 17.7503C19.2313 17.7503 19.0378 17.6721 18.893 17.5321C18.7481 17.3922 18.6631 17.2014 18.6559 17C18.6631 16.7985 18.7481 16.6077 18.893 16.4678C19.0378 16.3278 19.2313 16.2496 19.4326 16.2496C19.6338 16.2496 19.8273 16.3278 19.9721 16.4678C20.117 16.6077 20.202 16.7985 20.2092 17ZM21.9843 6.11106C21.9844 6.15484 21.9759 6.19823 21.9593 6.23872C21.9426 6.27921 21.9182 6.31602 21.8873 6.34703C21.8564 6.37804 21.8198 6.40264 21.7794 6.41943C21.739 6.43622 21.6957 6.44486 21.652 6.44486H17.2141C17.1259 6.44459 17.0414 6.40931 16.9791 6.34674C16.9168 6.28417 16.8818 6.19941 16.8818 6.11106C16.9405 5.24118 16.643 3.4805 17.3316 2.78799C17.3876 2.71954 17.4686 2.67621 17.5566 2.66752C17.6445 2.65883 17.7324 2.6855 17.8007 2.74166C17.8691 2.79781 17.9123 2.87886 17.921 2.96697C17.9297 3.05507 17.9031 3.14302 17.847 3.21147C17.6541 3.44766 17.5486 3.74335 17.5485 4.04846V5.77925H21.3206V4.04846C21.3205 3.74333 21.2151 3.44762 21.0221 3.21147C20.9708 3.14269 20.948 3.05678 20.9583 2.97159C20.9687 2.88639 21.0114 2.80845 21.0776 2.75395C21.1438 2.69946 21.2284 2.67259 21.3139 2.67892C21.3993 2.68526 21.4791 2.72432 21.5365 2.78799C22.2251 3.48748 21.9246 5.23321 21.9843 6.11106ZM19.4331 2.88962C19.8157 2.88962 20.1827 2.7374 20.4533 2.46645C20.7238 2.19549 20.8758 1.828 20.8758 1.44481C20.8758 1.06162 20.7238 0.69413 20.4533 0.423176C20.1827 0.152221 19.8157 0 19.4331 0C19.0504 0 18.6834 0.152221 18.4128 0.423176C18.1423 0.69413 17.9903 1.06162 17.9903 1.44481C17.9903 1.828 18.1423 2.19549 18.4128 2.46645C18.6834 2.7374 19.0504 2.88962 19.4331 2.88962ZM19.4331 0.667603C19.6342 0.674814 19.8247 0.759909 19.9645 0.904969C20.1043 1.05003 20.1824 1.24374 20.1824 1.44531C20.1824 1.64688 20.1043 1.84059 19.9645 1.98565C19.8247 2.13071 19.6342 2.21581 19.4331 2.22302C19.2269 2.22302 19.0293 2.14103 18.8835 1.99509C18.7378 1.84914 18.6559 1.6512 18.6559 1.44481C18.6559 1.23842 18.7378 1.04048 18.8835 0.894537C19.0293 0.748596 19.2269 0.667603 19.4331 0.667603ZM10.5564 11.5585H13.6639C13.7523 11.5585 13.8371 11.5937 13.8996 11.6563C13.9621 11.7189 13.9972 11.8038 13.9972 11.8923C13.9972 11.9808 13.9621 12.0657 13.8996 12.1283C13.8371 12.1909 13.7523 12.2261 13.6639 12.2261H10.5564C10.468 12.2261 10.3832 12.1909 10.3207 12.1283C10.2582 12.0657 10.2231 11.9808 10.2231 11.8923C10.2231 11.8038 10.2582 11.7189 10.3207 11.6563C10.3832 11.5937 10.468 11.5585 10.5564 11.5585ZM10.5564 13.7815H13.6639C13.749 13.7862 13.8291 13.8233 13.8877 13.8853C13.9464 13.9473 13.979 14.0294 13.979 14.1148C13.979 14.2002 13.9464 14.2823 13.8877 14.3443C13.8291 14.4063 13.749 14.4435 13.6639 14.4481H10.5564C10.4678 14.4481 10.3827 14.4128 10.32 14.3501C10.2573 14.2873 10.2221 14.2021 10.2221 14.1133C10.2221 14.0245 10.2573 13.9394 10.32 13.8766C10.3827 13.8138 10.4678 13.7785 10.5564 13.7785V13.7815Z" fill="#0B7AB2"/>
</g>
<defs>
<clipPath id="clip0_7263_6535">
<rect width="22" height="22" fill="white"/>
</clipPath>
</defs>
</svg>
