<svg width="24" height="22" viewBox="0 0 24 22" fill="none" xmlns="http://www.w3.org/2000/svg">
<path d="M8.43741 11.9375L4.6875 15.6875V11.9375H2.8125C1.77698 11.9375 0.9375 11.098 0.9375 10.0625V2.5625C0.9375 1.52698 1.77698 0.6875 2.8125 0.6875H14.0625C15.098 0.6875 15.9375 1.52698 15.9375 2.5625V10.0625C15.9375 11.098 15.098 11.9375 14.0625 11.9375H8.43741Z" stroke="#0B7AB2" stroke-miterlimit="10" stroke-linecap="round" stroke-linejoin="round"/>
<path d="M10.125 15.6875C10.125 16.723 10.9645 17.5625 12 17.5625H15.7501L19.5 21.3125V17.5625H21.1875C22.223 17.5625 23.0625 16.723 23.0625 15.6875V8.1875C23.0625 7.15198 22.223 6.3125 21.1875 6.3125H19.3125" stroke="#0B7AB2" stroke-miterlimit="10" stroke-linecap="round" stroke-linejoin="round"/>
<circle cx="4.6875" cy="6.3125" r="0.9375" fill="#0B7AB2"/>
<circle cx="8.4375" cy="6.3125" r="0.9375" fill="#0B7AB2"/>
<circle cx="12.1875" cy="6.3125" r="0.9375" fill="#0B7AB2"/>
</svg>
