<svg width="80" height="41" viewBox="0 0 80 41" fill="none" xmlns="http://www.w3.org/2000/svg">
<path d="M47 3.5H33C30.243 3.5 28 5.743 28 8.5V20.5C28 23.257 30.243 25.5 33 25.5H47C49.757 25.5 52 23.257 52 20.5V8.5C52 5.743 49.757 3.5 47 3.5ZM34.5 21C33.672 21 33 20.328 33 19.5C33 18.672 33.672 18 34.5 18C35.328 18 36 18.672 36 19.5C36 20.328 35.328 21 34.5 21ZM34.5 16C33.672 16 33 15.328 33 14.5C33 13.672 33.672 13 34.5 13C35.328 13 36 13.672 36 14.5C36 15.328 35.328 16 34.5 16ZM34.5 11C33.672 11 33 10.328 33 9.5C33 8.672 33.672 8 34.5 8C35.328 8 36 8.672 36 9.5C36 10.328 35.328 11 34.5 11ZM46 20.5H39C38.448 20.5 38 20.052 38 19.5C38 18.948 38.448 18.5 39 18.5H46C46.552 18.5 47 18.948 47 19.5C47 20.052 46.552 20.5 46 20.5ZM46 15.5H39C38.448 15.5 38 15.052 38 14.5C38 13.948 38.448 13.5 39 13.5H46C46.552 13.5 47 13.948 47 14.5C47 15.052 46.552 15.5 46 15.5ZM46 10.5H39C38.448 10.5 38 10.052 38 9.5C38 8.948 38.448 8.5 39 8.5H46C46.552 8.5 47 8.948 47 9.5C47 10.052 46.552 10.5 46 10.5Z" fill="#0B7AB2"/>
<path d="M26.39 35.95H23.35L22.79 37.5H21.83L24.35 30.57H25.4L27.91 37.5H26.95L26.39 35.95ZM26.13 35.21L24.87 31.69L23.61 35.21H26.13ZM28.6683 34.75C28.6683 34.1833 28.7816 33.69 29.0083 33.27C29.2349 32.8433 29.5483 32.5133 29.9483 32.28C30.3549 32.0467 30.8183 31.93 31.3383 31.93C32.0116 31.93 32.5649 32.0933 32.9983 32.42C33.4383 32.7467 33.7283 33.2 33.8683 33.78H32.8883C32.7949 33.4467 32.6116 33.1833 32.3383 32.99C32.0716 32.7967 31.7383 32.7 31.3383 32.7C30.8183 32.7 30.3983 32.88 30.0783 33.24C29.7583 33.5933 29.5983 34.0967 29.5983 34.75C29.5983 35.41 29.7583 35.92 30.0783 36.28C30.3983 36.64 30.8183 36.82 31.3383 36.82C31.7383 36.82 32.0716 36.7267 32.3383 36.54C32.6049 36.3533 32.7883 36.0867 32.8883 35.74H33.8683C33.7216 36.3 33.4283 36.75 32.9883 37.09C32.5483 37.4233 31.9983 37.59 31.3383 37.59C30.8183 37.59 30.3549 37.4733 29.9483 37.24C29.5483 37.0067 29.2349 36.6767 29.0083 36.25C28.7816 35.8233 28.6683 35.3233 28.6683 34.75ZM36.1925 32.77V36C36.1925 36.2667 36.2492 36.4567 36.3625 36.57C36.4758 36.6767 36.6725 36.73 36.9525 36.73H37.6225V37.5H36.8025C36.2958 37.5 35.9158 37.3833 35.6625 37.15C35.4092 36.9167 35.2825 36.5333 35.2825 36V32.77H34.5725V32.02H35.2825V30.64H36.1925V32.02H37.6225V32.77H36.1925ZM39.1951 31.13C39.0217 31.13 38.8751 31.07 38.7551 30.95C38.6351 30.83 38.5751 30.6833 38.5751 30.51C38.5751 30.3367 38.6351 30.19 38.7551 30.07C38.8751 29.95 39.0217 29.89 39.1951 29.89C39.3617 29.89 39.5017 29.95 39.6151 30.07C39.7351 30.19 39.7951 30.3367 39.7951 30.51C39.7951 30.6833 39.7351 30.83 39.6151 30.95C39.5017 31.07 39.3617 31.13 39.1951 31.13ZM39.6351 32.02V37.5H38.7251V32.02H39.6351ZM43.226 36.66L44.926 32.02H45.896L43.746 37.5H42.686L40.536 32.02H41.516L43.226 36.66ZM47.2615 31.13C47.0882 31.13 46.9415 31.07 46.8215 30.95C46.7015 30.83 46.6415 30.6833 46.6415 30.51C46.6415 30.3367 46.7015 30.19 46.8215 30.07C46.9415 29.95 47.0882 29.89 47.2615 29.89C47.4282 29.89 47.5682 29.95 47.6815 30.07C47.8015 30.19 47.8615 30.3367 47.8615 30.51C47.8615 30.6833 47.8015 30.83 47.6815 30.95C47.5682 31.07 47.4282 31.13 47.2615 31.13ZM47.7015 32.02V37.5H46.7915V32.02H47.7015ZM50.3624 32.77V36C50.3624 36.2667 50.4191 36.4567 50.5324 36.57C50.6458 36.6767 50.8424 36.73 51.1224 36.73H51.7924V37.5H50.9724C50.4658 37.5 50.0858 37.3833 49.8324 37.15C49.5791 36.9167 49.4524 36.5333 49.4524 36V32.77H48.7424V32.02H49.4524V30.64H50.3624V32.02H51.7924V32.77H50.3624ZM57.615 32.02L54.315 40.08H53.375L54.455 37.44L52.245 32.02H53.255L54.975 36.46L56.675 32.02H57.615Z" fill="#0B7AB2"/>
</svg>
