<svg width="22" height="22" viewBox="0 0 22 22" fill="none" xmlns="http://www.w3.org/2000/svg">
<path d="M15.8599 6.79991C16.7282 6.79991 17.4346 6.09351 17.4346 5.22515C17.4346 4.3568 16.7282 3.65039 15.8599 3.65039C14.9916 3.65039 14.2852 4.3568 14.2852 5.22515C14.2852 6.09351 14.9916 6.79991 15.8599 6.79991ZM15.8599 4.29492C16.3728 4.29492 16.7901 4.71219 16.7901 5.22515C16.7901 5.73811 16.3728 6.15538 15.8599 6.15538C15.347 6.15538 14.9297 5.73811 14.9297 5.22515C14.9297 4.71219 15.347 4.29492 15.8599 4.29492Z" fill="#0B7AB2"/>
<path d="M3.75391 11.1698C3.93193 11.1698 4.07617 11.0255 4.07617 10.8476V10.7168C4.07617 10.5388 3.93193 10.3945 3.75391 10.3945C3.57589 10.3945 3.43164 10.5388 3.43164 10.7168V10.8476C3.43164 11.0255 3.57593 11.1698 3.75391 11.1698Z" fill="#0B7AB2"/>
<path d="M3.43164 12.33C3.43164 12.5079 3.57589 12.6522 3.75391 12.6522C3.93193 12.6522 4.07617 12.5079 4.07617 12.33V12.1992C4.07617 12.0212 3.93193 11.877 3.75391 11.877C3.57589 11.877 3.43164 12.0212 3.43164 12.1992V12.33Z" fill="#0B7AB2"/>
<path d="M21.9967 14.425C21.9781 14.2234 21.8821 14.041 21.7264 13.9116L20.79 13.1333C20.6343 13.0039 20.4375 12.9429 20.2358 12.9615C20.0342 12.9801 19.8518 13.0761 19.7224 13.2318L18.8784 14.2472C18.7647 14.3841 18.7834 14.5872 18.9203 14.701C19.0572 14.8148 19.2604 14.7961 19.3741 14.6592L20.2182 13.6437C20.2443 13.6123 20.2776 13.6049 20.295 13.6032C20.3125 13.6016 20.3465 13.6028 20.3781 13.629L21.3145 14.4073C21.346 14.4334 21.3534 14.4667 21.355 14.4842C21.3566 14.5017 21.3554 14.5358 21.3292 14.5673L16.6461 20.2015C16.5174 20.3563 16.3283 20.451 16.1272 20.4612C15.924 20.4718 15.7294 20.3974 15.5849 20.2556L13.7009 18.4085C13.7005 18.4081 13.7 18.4076 13.6995 18.4072L12.3299 17.0644C12.2852 17.0205 12.2844 16.9485 12.3283 16.9037L13.1807 16.0343C13.2094 16.0051 13.2431 16.0004 13.2607 16.0003C13.2763 16 13.312 16.004 13.3413 16.0327L15.7865 18.4301C15.8508 18.4931 15.9378 18.5264 16.0285 18.5218C16.1184 18.5172 16.2024 18.4752 16.2599 18.406L17.2834 17.1746C17.2841 17.1737 17.2849 17.1729 17.2856 17.172L18.4087 15.8207C18.5225 15.6838 18.5038 15.4806 18.3669 15.3669C18.2299 15.2531 18.0268 15.2718 17.913 15.4087L17.3582 16.0763V14.083C17.3582 13.3961 17.1369 12.7604 16.7629 12.2417C17.4922 11.2036 17.9127 10.0057 17.9928 8.74189C18.2088 8.80841 18.4537 8.75663 18.6242 8.58605L19.2205 7.98977C19.466 7.74429 19.466 7.34481 19.2205 7.09928L18.8694 6.74819C18.9461 6.59681 19.0117 6.438 19.0647 6.27605H19.5615C19.9087 6.27605 20.1912 5.99357 20.1912 5.64634V4.80308C20.1912 4.45585 19.9087 4.17341 19.5615 4.17341H19.0647C19.0117 4.01138 18.946 3.85261 18.8694 3.70127L19.2205 3.35018C19.3395 3.23124 19.4049 3.07311 19.4049 2.90493C19.4049 2.73675 19.3395 2.57859 19.2205 2.45969L18.6242 1.86341C18.5053 1.74448 18.3472 1.67899 18.179 1.67899C18.0108 1.67899 17.8527 1.74448 17.7337 1.86341L17.3827 2.21447C17.2311 2.13777 17.0723 2.07211 16.9105 2.01918V1.52229C16.9105 1.17505 16.628 0.892578 16.2808 0.892578H15.4376C15.0904 0.892578 14.8079 1.17505 14.8079 1.52229V2.01905C14.6459 2.07203 14.4872 2.13773 14.3357 2.21438L13.9846 1.86329C13.7858 1.66455 13.4862 1.62683 13.249 1.74985C12.565 1.52813 11.8521 1.41559 11.1272 1.41559C9.60631 1.41559 8.16496 1.90187 6.95875 2.82192C5.90442 3.62608 5.09554 4.73424 4.64939 5.97488C4.37895 5.84206 4.07516 5.76717 3.75405 5.76717C2.6302 5.76717 1.71587 6.68146 1.71587 7.8053C1.71587 8.34396 1.92629 8.83415 2.26879 9.19891H2.06568C0.966754 9.19891 0.0607148 10.0579 0.00300781 11.1546C-0.00635937 11.3323 0.130152 11.484 0.307871 11.4934C0.485203 11.5026 0.637312 11.3663 0.646637 11.1884C0.68634 10.4343 1.30969 9.84344 2.06568 9.84344H5.44238C6.19154 9.84344 6.80672 10.4262 6.85945 11.1622C5.88633 11.5608 5.15543 12.4317 4.95309 13.4886H0.758141C0.695492 13.4886 0.644531 13.4376 0.644531 13.375V12.6754C0.644531 12.4974 0.500285 12.3532 0.322266 12.3532C0.144246 12.3532 0 12.4974 0 12.6754V13.375C0 13.793 0.340098 14.1331 0.758141 14.1331H4.89616V15.3825C4.89616 15.5604 5.04041 15.7047 5.21843 15.7047C5.39645 15.7047 5.54069 15.5604 5.54069 15.3825V14.0829C5.54069 12.6985 6.66699 11.5722 8.05144 11.5722H9.99247V13.7684C9.99247 14.1865 10.3326 14.5266 10.7506 14.5266H11.5039C11.9219 14.5266 12.262 14.1865 12.262 13.7684V11.5722H14.203C15.5875 11.5722 16.7138 12.6985 16.7138 14.0829V16.8517L15.988 17.7249L13.7926 15.5725C13.648 15.4308 13.4577 15.3548 13.2544 15.3558C13.0519 15.3577 12.8623 15.4385 12.7206 15.5831L11.8681 16.4525C11.5755 16.751 11.5803 17.2319 11.8787 17.5246L12.6835 18.3136H5.65426C5.59161 18.3136 5.54065 18.2627 5.54065 18.2V16.8864C5.54065 16.7084 5.3964 16.5641 5.21838 16.5641C5.04036 16.5641 4.89612 16.7084 4.89612 16.8864V18.2C4.89612 18.6181 5.23621 18.9581 5.65426 18.9581H13.3408L15.1336 20.7159C15.3907 20.9679 15.7306 21.1067 16.0906 21.1067C16.1137 21.1067 16.137 21.1061 16.1601 21.1049C16.5405 21.0855 16.8983 20.9064 17.1418 20.6135L21.8249 14.9792C21.9543 14.8235 22.0153 14.6267 21.9967 14.425ZM14.6214 2.7921C14.7472 2.72807 14.8793 2.67346 15.0141 2.62968C15.2763 2.54464 15.4524 2.30363 15.4524 2.02992V1.53711H16.2659V2.02992C16.2659 2.30363 16.4421 2.54464 16.7041 2.62968C16.8389 2.67342 16.971 2.72807 17.0969 2.79205C17.3424 2.91709 17.6373 2.87116 17.8307 2.67776L18.179 2.3295L18.7543 2.9048L18.4061 3.25302C18.2126 3.44638 18.1667 3.74132 18.2917 3.98697C18.3556 4.11261 18.4103 4.24474 18.4541 4.37966C18.5391 4.64177 18.7802 4.81786 19.0538 4.81786H19.5467V5.63147H19.0538C18.7802 5.63147 18.5391 5.80756 18.4541 6.06962C18.4103 6.20455 18.3557 6.33668 18.2917 6.46236C18.1667 6.70797 18.2126 7.00291 18.406 7.19627L18.7542 7.54453L18.1789 8.11984L17.8307 7.77157C17.6374 7.57821 17.3425 7.53228 17.0969 7.65719C16.9709 7.7213 16.8388 7.77596 16.7041 7.81966C16.442 7.90469 16.2659 8.1457 16.2659 8.41941V8.91222H15.4523V8.41937C15.4523 8.1457 15.2762 7.90469 15.0141 7.81961C14.8793 7.77587 14.7472 7.72121 14.6214 7.65719C14.5273 7.60928 14.426 7.58672 14.3259 7.58767C14.0772 6.46287 13.2491 5.554 12.1716 5.19053V4.81782H12.6644C12.9381 4.81782 13.1791 4.64173 13.2642 4.37966C13.3079 4.24491 13.3625 4.11274 13.4265 3.98693C13.5515 3.74136 13.5056 3.44643 13.3123 3.25307L12.964 2.9048L13.5393 2.3295L13.8876 2.67784C14.081 2.87116 14.3759 2.91714 14.6214 2.7921ZM11.1271 10.9276C9.67583 10.9276 8.49505 9.74689 8.49505 8.29549C8.49505 6.84414 9.67579 5.6634 11.1271 5.6634C12.5785 5.6634 13.7593 6.84414 13.7593 8.29549C13.7593 9.74689 12.5785 10.9276 11.1271 10.9276ZM2.3604 7.8053C2.3604 7.03685 2.9856 6.4117 3.75405 6.4117C4.5225 6.4117 5.14766 7.03685 5.14766 7.8053C5.14766 8.57376 4.5225 9.19891 3.75405 9.19891C2.9856 9.19891 2.3604 8.57376 2.3604 7.8053ZM7.48782 10.9791C7.34826 9.97475 6.48441 9.19895 5.44234 9.19895H5.23922C5.58168 8.83415 5.79214 8.344 5.79214 7.80535C5.79214 7.24443 5.56432 6.73577 5.19647 6.36688C5.58568 5.17218 6.34455 4.1011 7.34963 3.33441C8.44254 2.50081 9.74875 2.06017 11.1271 2.06017C11.6606 2.06017 12.1867 2.12724 12.6974 2.25989L12.4978 2.45956C12.2522 2.70509 12.2522 3.10457 12.4978 3.35009L12.8489 3.70119C12.7722 3.85274 12.7065 4.01151 12.6535 4.17337H12.1568C11.8096 4.17337 11.5271 4.45585 11.5271 4.80304V5.04418C11.3959 5.02815 11.2626 5.01891 11.1271 5.01891C9.3204 5.01891 7.85052 6.48878 7.85052 8.29553C7.85052 9.3728 8.37323 10.3301 9.17813 10.9277H8.05136C7.85898 10.9276 7.67082 10.9459 7.48782 10.9791ZM11.6174 13.7685C11.6174 13.8311 11.5664 13.8821 11.5038 13.8821H10.7505C10.6879 13.8821 10.6369 13.8311 10.6369 13.7685V11.5722H11.6173V13.7685H11.6174ZM14.2029 10.9276H13.0762C13.8811 10.3301 14.4038 9.37276 14.4038 8.29549C14.4038 8.28608 14.4032 8.27684 14.4031 8.26743C14.5341 8.33008 14.6697 8.38508 14.8078 8.43028V8.92705C14.8078 9.27428 15.0903 9.55671 15.4375 9.55671H16.2808C16.628 9.55671 16.9104 9.27423 16.9104 8.92705V8.43028C17.065 8.37971 17.2167 8.31719 17.3623 8.24479C17.3624 8.26206 17.3625 8.27899 17.3625 8.29553C17.3625 9.53828 17.0036 10.7236 16.3212 11.7464C15.7608 11.2379 15.0174 10.9276 14.2029 10.9276Z" fill="#0B7AB2"/>
</svg>
