<svg width="31" height="30" viewBox="0 0 31 30" fill="none" xmlns="http://www.w3.org/2000/svg">
<circle cx="17" cy="13" r="17" fill="#E6F7FF"/>
<path d="M21.7117 4.6665H15.643C15.5747 4.6665 15.5133 4.70818 15.4881 4.77166L12.091 13.3273C12.0476 13.4367 12.1282 13.5554 12.2459 13.5554H15.9094C16.0163 13.5554 16.0955 13.6547 16.0719 13.7589L14.5335 20.5392C14.4934 20.716 14.7246 20.8207 14.831 20.6738L21.8089 11.0421C21.8887 10.9319 21.81 10.7776 21.6739 10.7776H18.7598C18.6315 10.7776 18.5513 10.6387 18.6155 10.5276L21.856 4.91652C21.9202 4.80541 21.84 4.6665 21.7117 4.6665Z" fill="#0F7AB1"/>
</svg>
