<svg width="22" height="22" viewBox="0 0 22 22" fill="none" xmlns="http://www.w3.org/2000/svg">
<path d="M21.6862 5.49899C21.5138 5.45452 21.3382 5.55829 21.2938 5.73067C21.1739 6.19606 20.9492 6.61217 20.6492 6.95708C20.589 6.80321 20.4974 6.66171 20.3788 6.54449C20.2348 6.40223 20.0555 6.29854 19.8604 6.24462L19.3287 6.0978V5.61995C19.6726 5.31646 19.8768 4.87578 19.8768 4.40764V4.07889C19.8768 3.48808 19.5285 2.94977 18.9895 2.70752C18.5965 2.53087 18.1457 2.53087 17.7526 2.70752C17.2136 2.94977 16.8653 3.48808 16.8653 4.07889V4.40764C16.8653 4.87578 17.0696 5.31646 17.4134 5.61995V6.0978L16.8817 6.24462C16.6866 6.2985 16.5074 6.40223 16.3634 6.54449C16.2453 6.6612 16.154 6.80196 16.0938 6.95501C15.9737 6.81691 15.8654 6.66678 15.7706 6.50608C15.9295 6.01487 16.0135 5.49921 16.0135 4.97882C16.0135 4.44502 15.9287 3.93074 15.7724 3.44829C16.315 2.53147 17.3081 1.96288 18.3712 1.96288C19.7974 1.96288 21.0406 2.97607 21.3271 4.37202C21.3583 4.52451 21.4926 4.62957 21.6424 4.62957C21.6639 4.62957 21.6857 4.62742 21.7075 4.62291C21.8819 4.58712 21.9942 4.41679 21.9584 4.24247C21.6107 2.54802 20.102 1.31827 18.3712 1.31827C17.2367 1.31827 16.1679 1.8515 15.4789 2.7363C14.657 1.11442 12.9728 0 11.0331 0C10.2171 0 9.4075 0.202466 8.69178 0.585571C8.53486 0.669574 8.47573 0.864865 8.55974 1.02174C8.64374 1.17862 8.83899 1.23779 8.99591 1.15378C9.61839 0.820651 10.3229 0.644524 11.0331 0.644524C13.4239 0.644524 15.369 2.58884 15.369 4.97873C15.369 5.96829 15.0428 6.90061 14.4256 7.6749C14.3403 7.78198 14.2495 7.8842 14.1548 7.98234C14.0882 7.70803 13.9465 7.45323 13.7441 7.25317C13.5587 7.06999 13.3278 6.93645 13.0765 6.86701L12.2505 6.63885C12.2453 6.63743 12.2416 6.63266 12.2416 6.62729V5.8139C12.7199 5.41383 13.006 4.81734 13.006 4.18206V3.7235C13.006 2.94943 12.5497 2.24419 11.8435 1.92678C11.3284 1.69531 10.7376 1.69531 10.2226 1.92678C9.51638 2.24419 9.06006 2.94943 9.06006 3.7235V4.18206C9.06006 4.81734 9.34623 5.41383 9.82451 5.8139V6.62729C9.82451 6.63266 9.82086 6.63739 9.81566 6.63885L8.98959 6.86701C8.73827 6.93645 8.50744 7.06999 8.32204 7.25317C8.11936 7.45344 7.97773 7.70855 7.91113 7.98311C7.82863 7.89761 7.74936 7.80866 7.67382 7.71624C7.04399 6.94547 6.69715 5.97332 6.69715 4.97877C6.69715 3.86903 7.11828 2.81266 7.88303 2.00425C8.00532 1.87496 7.99965 1.67099 7.87035 1.54866C7.74102 1.42637 7.53705 1.432 7.41476 1.56134C7.07969 1.91557 6.80225 2.31135 6.58698 2.73613C5.89824 1.85077 4.8322 1.31814 3.69504 1.31814C1.67588 1.31814 0.0332031 2.9603 0.0332031 4.97882C0.0332031 6.99734 1.67588 8.6395 3.69504 8.6395C4.83529 8.6395 5.89974 8.10695 6.58805 7.22034C6.74957 7.54037 6.94576 7.84385 7.17474 8.12405C7.84689 8.94663 8.76972 9.5365 9.78957 9.79998V12.8338C9.78957 13.0118 9.93386 13.1561 10.1118 13.1561C10.2898 13.1561 10.4341 13.0118 10.4341 12.8338V9.79208C10.4341 9.44094 10.7196 9.15529 11.0705 9.15529C11.2404 9.15529 11.4 9.22146 11.5205 9.3422C11.6406 9.46208 11.7068 9.62188 11.7068 9.79212V15.5709C11.7068 15.7489 11.8511 15.8932 12.0291 15.8932C12.2071 15.8932 12.3513 15.7489 12.3513 15.5709V13.6688C12.3513 13.6682 12.3514 13.6677 12.3514 13.6671C12.3514 13.316 12.6369 13.0303 12.9878 13.0303C13.3387 13.0303 13.6241 13.316 13.6241 13.6671V15.5709C13.6241 15.7489 13.7684 15.8932 13.9464 15.8932C14.1243 15.8932 14.2686 15.7489 14.2686 15.5709V14.1318C14.2686 13.7807 14.5541 13.4951 14.905 13.4951C15.2559 13.4951 15.5413 13.7807 15.5413 14.1318V15.8326C15.5413 16.0106 15.6856 16.1549 15.8636 16.1549C16.0416 16.1549 16.1859 16.0106 16.1859 15.8326V14.8581C16.1859 14.5067 16.4714 14.2209 16.8222 14.2209C16.9922 14.2209 17.1521 14.2871 17.2724 14.4071C17.3925 14.5271 17.4587 14.6872 17.459 14.856L17.4534 16.3023C17.4527 16.4803 17.5965 16.6251 17.7745 16.6258H17.7757C17.9531 16.6258 18.0972 16.4823 18.098 16.3048L18.1035 14.8567C18.103 14.5144 17.9697 14.1928 17.7279 13.951C17.4857 13.7094 17.164 13.5763 16.8222 13.5763C16.5697 13.5763 16.3342 13.6501 16.1355 13.7769C15.9813 13.2426 15.4882 12.8505 14.905 12.8505C14.618 12.8505 14.3527 12.9454 14.1389 13.1056C13.9304 12.6798 13.4929 12.3857 12.9878 12.3857C12.7563 12.3857 12.5391 12.4478 12.3514 12.5558V9.79203C12.3514 9.78791 12.3511 9.78383 12.3511 9.7797C13.3606 9.50183 14.2721 8.90156 14.9297 8.07661C15.1423 7.80982 15.3255 7.52215 15.478 7.21974C16.1666 8.1063 17.2328 8.63963 18.3712 8.63963C20.0427 8.63963 21.5011 7.50952 21.918 5.89146C21.9624 5.71907 21.8586 5.54338 21.6862 5.49899ZM1.97915 7.45778V7.38873C1.97915 7.24475 2.03789 7.10416 2.14032 7.00292C2.20615 6.93791 2.28809 6.89047 2.37734 6.86585L2.76719 6.75817C2.98516 7.04619 3.32612 7.2194 3.695 7.2194C4.06384 7.2194 4.40484 7.04619 4.62286 6.75817L5.01275 6.86585C5.10195 6.89047 5.18389 6.93787 5.24976 7.00292C5.3522 7.10411 5.41094 7.24475 5.41094 7.38873V7.45791C4.91457 7.80157 4.31851 7.99502 3.69504 7.99502C3.05795 7.99497 2.46671 7.79603 1.97915 7.45778ZM3.38189 6.16066V5.99278C3.48385 6.02307 3.58938 6.03876 3.69504 6.03876C3.8007 6.03876 3.90619 6.02307 4.0082 5.99274V6.16062C4.0082 6.25158 4.03058 6.33859 4.07029 6.41598C3.97412 6.51717 3.84131 6.57483 3.695 6.57483C3.54874 6.57483 3.41592 6.51717 3.31976 6.41598C3.3595 6.33863 3.38189 6.25162 3.38189 6.16066ZM4.55626 4.4076C4.55626 4.75663 4.36763 5.08048 4.06397 5.25283L3.91624 5.33666C3.77982 5.41408 3.61027 5.41408 3.4738 5.33666L3.32612 5.25287C3.0225 5.08052 2.83379 4.75663 2.83379 4.40764V4.07889C2.83379 3.74137 3.03277 3.43385 3.34077 3.29541C3.56584 3.19426 3.82412 3.19426 4.04919 3.29541C4.35718 3.43385 4.55617 3.74137 4.55617 4.07889V4.4076H4.55626ZM5.97236 6.95506C5.91216 6.80196 5.8209 6.66115 5.70278 6.54445C5.55875 6.40218 5.37953 6.29846 5.18441 6.24458L4.65276 6.09775V5.6199C4.99659 5.31642 5.20082 4.87574 5.20082 4.4076V4.07885C5.20082 3.48803 4.85256 2.94973 4.31353 2.70747C3.9205 2.53083 3.46968 2.53083 3.07664 2.70747C2.53765 2.94973 2.18935 3.48803 2.18935 4.07885V4.4076C2.18935 4.87574 2.39358 5.31642 2.73741 5.6199V6.09775L2.20576 6.24458C2.0106 6.2985 1.83134 6.40218 1.68735 6.54445C1.5694 6.66098 1.47823 6.80157 1.41803 6.95441C0.957493 6.42474 0.67777 5.73403 0.67777 4.97882C0.67777 3.31569 2.03131 1.96266 3.69509 1.96266C4.76048 1.96266 5.75039 2.5304 6.29355 3.44794C6.13517 3.93731 6.05267 4.45276 6.05267 4.97877C6.05267 5.50011 6.1365 6.01581 6.29544 6.5069C6.20065 6.66738 6.09229 6.81713 5.97236 6.95506ZM10.4691 6.62729V6.21127C10.6481 6.29004 10.8404 6.33012 11.0331 6.33012C11.2257 6.33012 11.4181 6.29004 11.5971 6.21127V6.62729C11.5971 6.76234 11.6392 6.88992 11.7118 6.99635C11.5521 7.2087 11.3071 7.33227 11.033 7.33227C10.7589 7.33227 10.514 7.2087 10.3543 6.99635C10.427 6.88992 10.4691 6.7623 10.4691 6.62729ZM9.70463 3.7235C9.70463 3.20272 10.0117 2.72823 10.4869 2.51467C10.834 2.35866 11.2321 2.35866 11.5793 2.51467C12.0545 2.72823 12.3616 3.20272 12.3616 3.7235V4.18206C12.3616 4.7146 12.0738 5.20874 11.6105 5.47166L11.4045 5.58854C11.1754 5.71851 10.8908 5.71851 10.6617 5.58854L10.4557 5.47166C9.99247 5.2087 9.70463 4.71452 9.70463 4.18206V3.7235ZM11.9762 8.88639C11.7345 8.64414 11.4129 8.51072 11.0705 8.51072C10.5875 8.51072 10.1663 8.77953 9.94813 9.17535C9.43221 9.04172 8.94512 8.8115 8.51247 8.50161V8.34022C8.51247 8.10566 8.6082 7.87655 8.77509 7.71164C8.88234 7.60568 9.01584 7.52847 9.16121 7.48829L9.79043 7.31448C10.0678 7.73158 10.5216 7.97684 11.0331 7.97684C11.5446 7.97684 11.9984 7.73162 12.2757 7.31448L12.9049 7.48829C13.0503 7.52847 13.1839 7.60568 13.2911 7.71164C13.458 7.87655 13.5537 8.10566 13.5537 8.34022V8.5014C13.1394 8.79818 12.6749 9.02183 12.1835 9.15748C12.1274 9.05947 12.0582 8.9682 11.9762 8.88639ZM18.058 6.16066V5.99278C18.1599 6.02307 18.2654 6.03876 18.3711 6.03876C18.4767 6.03876 18.5823 6.02307 18.6843 5.99278V6.16066C18.6843 6.25162 18.7066 6.33863 18.7463 6.41602C18.6502 6.51721 18.5174 6.57487 18.3711 6.57487C18.2248 6.57487 18.092 6.51721 17.9958 6.41602C18.0356 6.33863 18.058 6.25162 18.058 6.16066ZM17.5099 4.07885C17.5099 3.74133 17.7089 3.43381 18.0169 3.29536C18.2419 3.19422 18.5002 3.19422 18.7253 3.29536C19.0333 3.43381 19.2323 3.74133 19.2323 4.07885V4.4076C19.2323 4.75663 19.0436 5.08048 18.7399 5.25283L18.5923 5.33661C18.4558 5.41408 18.2863 5.41408 18.1498 5.33661L18.0021 5.25283C17.6985 5.08048 17.5098 4.75659 17.5098 4.4076V4.07885H17.5099ZM16.6552 7.45714V7.38869C16.6552 7.2447 16.714 7.10411 16.8164 7.00288C16.8822 6.93782 16.9642 6.89043 17.0534 6.86581L17.4433 6.75809C17.6613 7.04611 18.0022 7.21935 18.3712 7.21935C18.74 7.21935 19.081 7.04615 19.299 6.75813L19.6889 6.86581C19.7781 6.89043 19.86 6.93787 19.9259 7.00288C20.0283 7.10407 20.087 7.2447 20.087 7.38869V7.45963C19.5955 7.79934 19.0019 7.99506 18.3712 7.99506C17.7485 7.9951 17.1521 7.80119 16.6552 7.45714Z" fill="#0B7AB2"/>
<path d="M17.7708 17.4844C17.5945 17.4845 17.448 17.6275 17.4473 17.8055L17.4452 18.3807C17.3966 18.9465 17.2205 19.5039 16.9354 19.9937C16.7891 20.2453 16.6627 20.5097 16.5597 20.7794C16.4558 21.0516 16.3736 21.3315 16.3154 21.6111C16.2792 21.7854 16.391 21.956 16.5653 21.9923C16.7351 22.029 16.911 21.9179 16.9464 21.7424C16.9977 21.4962 17.0702 21.2495 17.1619 21.0093C17.2525 20.772 17.3637 20.5393 17.4925 20.3178C17.8276 19.7422 18.0337 19.0864 18.0886 18.4214C18.0893 18.413 18.0897 18.4045 18.0897 18.3961L18.0919 17.8078C18.0925 17.6298 17.9487 17.485 17.7708 17.4844Z" fill="#0B7AB2"/>
<path d="M10.1118 14.0156C9.93384 14.0156 9.78956 14.1599 9.78956 14.3379V15.9797L9.419 16.2394C8.83502 16.6489 8.48633 17.3193 8.48633 18.0327V19.2592C8.48633 20.1286 8.80953 20.9606 9.39648 21.6018L9.66516 21.8953C9.72871 21.9648 9.81568 22 9.90295 22C9.98068 22 10.0586 21.9721 10.1205 21.9154C10.2518 21.7952 10.2607 21.5914 10.1406 21.4601L9.87188 21.1666C9.39399 20.6445 9.13081 19.9671 9.13081 19.2592V18.0327C9.13081 17.5292 9.37684 17.0561 9.78895 16.7672L9.78947 16.7668V18.2097C9.78947 18.3877 9.93376 18.532 10.1117 18.532C10.2897 18.532 10.434 18.3877 10.434 18.2097V14.3378C10.4341 14.1599 10.2898 14.0156 10.1118 14.0156Z" fill="#0B7AB2"/>
</svg>
