<svg width="15" height="15" viewBox="0 0 15 15" fill="none" xmlns="http://www.w3.org/2000/svg">
<path d="M12.7535 8.52734C12.6374 8.52734 12.5262 8.57344 12.4441 8.65549C12.3621 8.73753 12.316 8.84881 12.316 8.96484V10.4589C12.316 10.8111 12.1761 11.1488 11.9271 11.3978C11.6781 11.6468 11.3403 11.7867 10.9882 11.7867H3.37566C3.02351 11.7867 2.68577 11.6468 2.43676 11.3978C2.18775 11.1488 2.04785 10.8111 2.04785 10.4589V8.96484C2.04785 8.84881 2.00176 8.73753 1.91971 8.65549C1.83766 8.57344 1.72638 8.52734 1.61035 8.52734C1.49432 8.52734 1.38304 8.57344 1.30099 8.65549C1.21895 8.73753 1.17285 8.84881 1.17285 8.96484V10.4589C1.17343 11.043 1.4057 11.6029 1.81868 12.0159C2.23166 12.4289 2.79162 12.6611 3.37566 12.6617H10.9882C11.5722 12.6611 12.1322 12.4289 12.5451 12.0159C12.9581 11.6029 13.1904 11.043 13.191 10.4589V8.96484C13.191 8.84881 13.1449 8.73753 13.0628 8.65549C12.9808 8.57344 12.8695 8.52734 12.7535 8.52734Z" fill="#0B7AB2"/>
<path d="M4.99575 4.74206L6.74575 2.99206V9.48893C6.74575 9.60496 6.79185 9.71624 6.87389 9.79829C6.95594 9.88034 7.06722 9.92643 7.18325 9.92643C7.29929 9.92643 7.41057 9.88034 7.49261 9.79829C7.57466 9.71624 7.62075 9.60496 7.62075 9.48893V2.99862L9.37075 4.74862C9.4114 4.78927 9.45966 4.82151 9.51277 4.84351C9.56588 4.86551 9.6228 4.87683 9.68029 4.87683C9.73777 4.87683 9.79469 4.86551 9.8478 4.84351C9.90091 4.82151 9.94917 4.78927 9.98982 4.74862C10.0305 4.70797 10.0627 4.65971 10.0847 4.6066C10.1067 4.55349 10.118 4.49657 10.118 4.43909C10.118 4.3816 10.1067 4.32468 10.0847 4.27157C10.0627 4.21846 10.0305 4.1702 9.98982 4.12956L7.49388 1.63362C7.43307 1.57463 7.35751 1.53307 7.27513 1.51331C7.20432 1.50027 7.13142 1.50439 7.06253 1.52533C6.99365 1.54626 6.93078 1.58339 6.87919 1.63362L4.38325 4.12299C4.3138 4.20657 4.27793 4.31301 4.28264 4.42158C4.28735 4.53015 4.33229 4.63308 4.40872 4.71033C4.48516 4.78758 4.5876 4.83362 4.69612 4.83948C4.80463 4.84535 4.91144 4.81062 4.99575 4.74206Z" fill="#0B7AB2"/>
</svg>
