<svg width="18" height="18" viewBox="0 0 18 18" fill="none" xmlns="http://www.w3.org/2000/svg">
<g clip-path="url(#clip0_14280_7874)">
<path d="M17.2473 8.25132C17.0484 8.25132 16.8576 8.1723 16.717 8.03165C16.5763 7.891 16.4973 7.70023 16.4973 7.50132C16.4957 5.91051 15.8631 4.38531 14.7382 3.26043C13.6133 2.13556 12.0881 1.50291 10.4973 1.50132C10.2984 1.50132 10.1076 1.4223 9.96696 1.28165C9.82631 1.141 9.74729 0.950232 9.74729 0.75132C9.74729 0.552407 9.82631 0.361642 9.96696 0.22099C10.1076 0.0803374 10.2984 0.00131975 10.4973 0.00131975C12.4857 0.00350345 14.3921 0.794381 15.7982 2.20043C17.2042 3.60648 17.9951 5.51287 17.9973 7.50132C17.9973 7.70023 17.9183 7.891 17.7776 8.03165C17.637 8.1723 17.4462 8.25132 17.2473 8.25132ZM14.9973 7.50132C14.9973 6.30785 14.5232 5.16325 13.6793 4.31934C12.8354 3.47543 11.6908 3.00132 10.4973 3.00132C10.2984 3.00132 10.1076 3.08034 9.96696 3.22099C9.82631 3.36164 9.74729 3.55241 9.74729 3.75132C9.74729 3.95023 9.82631 4.141 9.96696 4.28165C10.1076 4.4223 10.2984 4.50132 10.4973 4.50132C11.2929 4.50132 12.056 4.81739 12.6186 5.38C13.1812 5.94261 13.4973 6.70567 13.4973 7.50132C13.4973 7.70023 13.5763 7.891 13.717 8.03165C13.8576 8.1723 14.0484 8.25132 14.2473 8.25132C14.4462 8.25132 14.637 8.1723 14.7776 8.03165C14.9183 7.891 14.9973 7.70023 14.9973 7.50132ZM16.6345 16.6243L17.317 15.8376C17.7514 15.4018 17.9954 14.8115 17.9954 14.1962C17.9954 13.5809 17.7514 12.9906 17.317 12.5548C17.2938 12.5316 15.4893 11.1433 15.4893 11.1433C15.0562 10.7311 14.4809 10.5015 13.883 10.5024C13.2851 10.5032 12.7105 10.7344 12.2785 11.1478L10.849 12.3523C9.68217 11.8694 8.62221 11.1607 7.73001 10.267C6.83781 9.37321 6.13095 8.31202 5.65004 7.14432L6.85004 5.71932C7.26383 5.28745 7.49527 4.71273 7.49624 4.11462C7.49722 3.51652 7.26766 2.94104 6.85529 2.50782C6.85529 2.50782 5.46554 0.70557 5.44229 0.68232C5.01438 0.251631 4.4342 0.00658626 3.82711 0.000130837C3.22002 -0.00632459 2.63476 0.226328 2.19779 0.64782L1.33529 1.39782C-3.76021 7.30932 7.21229 18.1971 13.3188 18.0013C13.9354 18.0049 14.5465 17.8849 15.116 17.6484C15.6855 17.4119 16.2018 17.0637 16.6345 16.6243Z" fill="#00467E"/>
</g>
<defs>
<clipPath id="clip0_14280_7874">
<rect width="18" height="18" fill="white"/>
</clipPath>
</defs>
</svg>
