<svg width="16" height="17" viewBox="0 0 16 17" fill="none" xmlns="http://www.w3.org/2000/svg">
<g clip-path="url(#clip0_7263_6529)">
<path d="M11.2284 5.18717C11.2903 5.18378 11.3485 5.15676 11.3912 5.11167C11.4338 5.06659 11.4576 5.00686 11.4576 4.94477C11.4576 4.88268 11.4338 4.82295 11.3912 4.77786C11.3485 4.73277 11.2903 4.70576 11.2284 4.70236H5.74091C5.42013 4.70275 5.11259 4.83053 4.88577 5.05767C4.65894 5.28482 4.53134 5.59278 4.53096 5.91401V12.3795C4.53134 12.7008 4.65894 13.0087 4.88577 13.2359C5.11259 13.463 5.42013 13.5908 5.74091 13.5912H11.2284C11.2601 13.5913 11.2916 13.5851 11.321 13.5729C11.3504 13.5608 11.377 13.543 11.3995 13.5205C11.422 13.498 11.4398 13.4713 11.4519 13.4419C11.464 13.4125 11.4702 13.3809 11.4701 13.3491V6.88362C11.4701 6.64811 11.2269 6.62564 11.046 6.64158C10.9225 6.41916 10.8577 6.16887 10.8577 5.91438C10.8577 5.65988 10.9225 5.40959 11.046 5.18717H11.2284ZM5.74091 5.18717H10.5127C10.3281 5.65436 10.3281 6.17439 10.5127 6.64158H5.74091C5.54831 6.64158 5.3636 6.56497 5.22742 6.42859C5.09123 6.29221 5.01472 6.10724 5.01472 5.91438C5.01472 5.72151 5.09123 5.53654 5.22742 5.40016C5.3636 5.26379 5.54831 5.18717 5.74091 5.18717ZM6.14471 13.1093H5.74091C5.54898 13.1093 5.36492 13.0329 5.22921 12.897C5.0935 12.7611 5.01725 12.5768 5.01725 12.3846V6.8771C5.35094 7.09509 5.75267 7.18349 6.14688 7.12566L6.14471 13.1093ZM10.986 7.12856V13.1093H6.62883V7.12639L10.986 7.12856ZM1.24123 6.0604C0.660481 7.67921 0.676393 9.45253 1.28609 11.0606C1.30455 11.1196 1.29982 11.1835 1.27286 11.2392C1.2459 11.2948 1.19874 11.338 1.14102 11.3601C1.0833 11.3821 1.01936 11.3812 0.96227 11.3576C0.905176 11.334 0.859228 11.2895 0.833808 11.2331C0.182644 9.51744 0.165704 7.62514 0.786047 5.89807C0.807734 5.83763 0.852512 5.78828 0.910528 5.7609C0.968545 5.73352 1.03505 5.73033 1.09541 5.75205C1.15577 5.77377 1.20504 5.81861 1.23239 5.87671C1.25973 5.9348 1.26291 6.0014 1.24123 6.06185V6.0604ZM3.39627 13.8412C3.89848 14.3485 3.67994 15.6195 3.72336 16.2572C3.72336 16.3216 3.69782 16.3834 3.65236 16.4289C3.60689 16.4744 3.54523 16.5 3.48094 16.5H0.253437C0.189142 16.5 0.127481 16.4744 0.0820175 16.4289C0.0365541 16.3834 0.0110131 16.3216 0.0110131 16.2572C0.0537087 15.6246 -0.162664 14.3448 0.338105 13.8412C0.379714 13.7945 0.437745 13.7656 0.500076 13.7607C0.562407 13.7558 0.624219 13.7752 0.672601 13.8149C0.720983 13.8545 0.752193 13.9114 0.759713 13.9735C0.767234 14.0357 0.750482 14.0984 0.712958 14.1484C0.571609 14.3199 0.494785 14.5356 0.495862 14.7579V16.0152H3.23924V14.7579C3.3116 14.3738 2.7732 14.0579 3.05543 13.8079C3.10507 13.7671 3.16883 13.7477 3.23273 13.7539C3.29663 13.7602 3.35544 13.7916 3.39627 13.8412ZM0.817888 12.8636C0.817888 13.1423 0.928438 13.4096 1.12522 13.6066C1.322 13.8037 1.5889 13.9144 1.86719 13.9144C2.14548 13.9144 2.41237 13.8037 2.60915 13.6066C2.80593 13.4096 2.91649 13.1423 2.91649 12.8636C2.91649 12.5849 2.80593 12.3177 2.60915 12.1206C2.41237 11.9235 2.14548 11.8128 1.86719 11.8128C1.5889 11.8128 1.322 11.9235 1.12522 12.1206C0.928438 12.3177 0.817888 12.5849 0.817888 12.8636ZM1.86719 12.2976C2.01708 12.2976 2.16083 12.3573 2.26682 12.4634C2.37282 12.5695 2.43236 12.7135 2.43236 12.8636C2.43236 13.0137 2.37282 13.1577 2.26682 13.2638C2.16083 13.3699 2.01708 13.4296 1.86719 13.4296C1.71729 13.4296 1.57354 13.3699 1.46755 13.2638C1.36156 13.1577 1.30201 13.0137 1.30201 12.8636C1.30201 12.7135 1.36156 12.5695 1.46755 12.4634C1.57354 12.3573 1.71729 12.2976 1.86719 12.2976ZM3.39627 2.52908C3.89848 3.03635 3.67994 4.30742 3.72336 4.94585C3.72336 5.01024 3.69782 5.07199 3.65236 5.11751C3.60689 5.16304 3.54523 5.18862 3.48094 5.18862H0.253437C0.189142 5.18862 0.127481 5.16304 0.0820175 5.11751C0.0365541 5.07199 0.0110131 5.01024 0.0110131 4.94585C0.0537087 4.31104 -0.162664 3.032 0.338105 2.52908C0.378889 2.4793 0.437749 2.44778 0.501737 2.44146C0.565725 2.43514 0.629599 2.45454 0.679308 2.49538C0.729016 2.53622 0.760488 2.59516 0.766798 2.65924C0.773109 2.72332 0.753742 2.78728 0.712958 2.83706C0.572675 3.00884 0.495981 3.22388 0.495862 3.44579V4.70309H3.23924V3.44434C3.23912 3.22243 3.16242 3.00739 3.02214 2.83561C2.98725 2.78545 2.97254 2.72394 2.98096 2.66339C2.98938 2.60284 3.02031 2.54769 3.06756 2.50898C3.11481 2.47026 3.17491 2.45083 3.23584 2.45456C3.29678 2.45828 3.35407 2.48489 3.39627 2.52908ZM1.86719 2.60154C2.14548 2.60154 2.41237 2.49084 2.60915 2.29378C2.80593 2.09672 2.91649 1.82945 2.91649 1.55077C2.91649 1.27209 2.80593 1.00482 2.60915 0.807764C2.41237 0.610706 2.14548 0.5 1.86719 0.5C1.5889 0.5 1.322 0.610706 1.12522 0.807764C0.928438 1.00482 0.817888 1.27209 0.817888 1.55077C0.817888 1.82945 0.928438 2.09672 1.12522 2.29378C1.322 2.49084 1.5889 2.60154 1.86719 2.60154ZM1.86719 0.985529C2.01349 0.990774 2.15204 1.05266 2.25369 1.15816C2.35534 1.26366 2.41214 1.40454 2.41214 1.55113C2.41214 1.69773 2.35534 1.83861 2.25369 1.94411C2.15204 2.04961 2.01349 2.1115 1.86719 2.11674C1.71729 2.11674 1.57354 2.05711 1.46755 1.95097C1.36156 1.84483 1.30201 1.70088 1.30201 1.55077C1.30201 1.40067 1.36156 1.25671 1.46755 1.15057C1.57354 1.04443 1.71729 0.985529 1.86719 0.985529ZM11.7465 2.3624C10.6163 1.6774 9.32049 1.31527 7.99943 1.31527C6.67837 1.31527 5.38252 1.6774 4.25235 2.3624C4.22527 2.37901 4.19518 2.39011 4.16381 2.39507C4.13245 2.40004 4.10041 2.39876 4.06953 2.39133C4.03865 2.38389 4.00954 2.37044 3.98386 2.35174C3.95817 2.33304 3.93642 2.30945 3.91983 2.28233C3.90325 2.25521 3.89216 2.22508 3.88721 2.19367C3.88225 2.16225 3.88352 2.13017 3.89095 2.09925C3.89837 2.06833 3.91181 2.03918 3.93048 2.01345C3.94916 1.98773 3.97271 1.96595 3.9998 1.94934C5.20614 1.21817 6.58933 0.831626 7.99943 0.831626C9.40953 0.831626 10.7927 1.21817 11.9991 1.94934C12.049 1.98501 12.0836 2.03833 12.0959 2.09854C12.1081 2.15875 12.0971 2.22136 12.0651 2.27377C12.033 2.32617 11.9823 2.36445 11.9232 2.3809C11.8641 2.39735 11.801 2.39074 11.7465 2.3624ZM11.7234 14.9376C11.7385 14.9656 11.7479 14.9964 11.7511 15.028C11.7544 15.0597 11.7513 15.0917 11.7422 15.1222C11.733 15.1527 11.718 15.1811 11.6979 15.2057C11.6777 15.2304 11.653 15.2508 11.6249 15.2659C10.5347 15.852 9.31894 16.1651 8.08158 16.1785C6.84423 16.1919 5.62202 15.9051 4.51938 15.3427C4.49087 15.3284 4.46545 15.3087 4.44456 15.2846C4.42368 15.2604 4.40774 15.2324 4.39766 15.2022C4.38758 15.1719 4.38356 15.1399 4.38582 15.1081C4.38808 15.0762 4.39658 15.0452 4.41083 15.0166C4.42509 14.9881 4.44482 14.9626 4.4689 14.9417C4.49298 14.9208 4.52093 14.9048 4.55117 14.8947C4.58141 14.8846 4.61334 14.8806 4.64513 14.8829C4.67693 14.8851 4.70797 14.8936 4.73648 14.9079C5.76956 15.4351 6.91477 15.7039 8.07418 15.6912C9.23359 15.6786 10.3727 15.385 11.3941 14.8354C11.4224 14.8204 11.4534 14.8111 11.4853 14.8081C11.5172 14.8052 11.5493 14.8085 11.5799 14.818C11.6105 14.8275 11.639 14.8429 11.6636 14.8635C11.6882 14.884 11.7085 14.9092 11.7234 14.9376ZM14.6556 11.2048C15.3153 9.5753 15.3565 7.76029 14.7714 6.10243C14.7608 6.0724 14.7563 6.04059 14.758 6.00881C14.7598 5.97703 14.7677 5.9459 14.7815 5.9172C14.7952 5.8885 14.8145 5.86279 14.8381 5.84154C14.8618 5.82029 14.8894 5.80392 14.9194 5.79336C14.9494 5.78279 14.9811 5.77825 15.0129 5.77998C15.0446 5.78171 15.0757 5.78968 15.1043 5.80344C15.133 5.8172 15.1587 5.83648 15.1799 5.86018C15.2011 5.88388 15.2175 5.91153 15.228 5.94155C15.8523 7.71082 15.8083 9.64773 15.1043 11.3867C15.0802 11.4463 15.0335 11.4939 14.9743 11.5189C14.9152 11.544 14.8486 11.5445 14.7891 11.5204C14.7296 11.4963 14.6821 11.4495 14.6571 11.3903C14.6321 11.3311 14.6315 11.2644 14.6556 11.2048ZM15.6608 13.8412C16.163 14.3485 15.9444 15.6195 15.9879 16.2572C15.988 16.2891 15.9818 16.3206 15.9697 16.3501C15.9576 16.3795 15.9398 16.4063 15.9173 16.4289C15.8949 16.4514 15.8682 16.4693 15.8388 16.4815C15.8094 16.4937 15.778 16.5 15.7462 16.5H12.5194C12.4552 16.4998 12.3937 16.4741 12.3484 16.4286C12.3031 16.3831 12.2777 16.3215 12.2777 16.2572C12.3204 15.6246 12.104 14.3448 12.6048 13.8412C12.6464 13.7945 12.7044 13.7656 12.7667 13.7607C12.8291 13.7558 12.8909 13.7752 12.9393 13.8149C12.9876 13.8545 13.0189 13.9114 13.0264 13.9735C13.0339 14.0357 13.0171 14.0984 12.9796 14.1484C12.8383 14.3199 12.7615 14.5356 12.7625 14.7579V16.0152H15.5059V14.7579C15.5783 14.3738 15.0406 14.0586 15.3221 13.8079C15.3716 13.7675 15.4351 13.7484 15.4986 13.7547C15.5622 13.7609 15.62 13.792 15.6608 13.8412ZM13.0838 12.8636C13.0838 13.1423 13.1944 13.4096 13.3912 13.6066C13.5879 13.8037 13.8548 13.9144 14.1331 13.9144C14.4114 13.9144 14.6783 13.8037 14.8751 13.6066C15.0719 13.4096 15.1824 13.1423 15.1824 12.8636C15.1824 12.5849 15.0719 12.3177 14.8751 12.1206C14.6783 11.9235 14.4114 11.8128 14.1331 11.8128C13.8548 11.8128 13.5879 11.9235 13.3912 12.1206C13.1944 12.3177 13.0838 12.5849 13.0838 12.8636ZM14.6976 12.8636C14.6923 13.0101 14.6305 13.1489 14.5252 13.2507C14.4198 13.3524 14.2792 13.4093 14.1328 13.4093C13.9864 13.4093 13.8457 13.3524 13.7403 13.2507C13.635 13.1489 13.5732 13.0101 13.568 12.8636C13.5732 12.7171 13.635 12.5783 13.7403 12.4766C13.8457 12.3748 13.9864 12.3179 14.1328 12.3179C14.2792 12.3179 14.4198 12.3748 14.5252 12.4766C14.6305 12.5783 14.6923 12.7171 14.6976 12.8636ZM15.9886 4.9444C15.9887 4.97625 15.9825 5.0078 15.9704 5.03725C15.9583 5.0667 15.9405 5.09347 15.918 5.11602C15.8956 5.13857 15.8689 5.15647 15.8395 5.16868C15.8102 5.18089 15.7787 5.18717 15.7469 5.18717H12.5194C12.4552 5.18698 12.3937 5.16132 12.3484 5.11581C12.3031 5.0703 12.2777 5.00866 12.2777 4.9444C12.3204 4.31177 12.104 3.03127 12.6048 2.52763C12.6456 2.47785 12.7044 2.44633 12.7684 2.44002C12.8324 2.4337 12.8963 2.45309 12.946 2.49393C12.9957 2.53477 13.0272 2.59372 13.0335 2.65779C13.0398 2.72187 13.0204 2.78584 12.9796 2.83561C12.8393 3.00739 12.7626 3.22243 12.7625 3.44434V4.70309H15.5059V3.44434C15.5058 3.22242 15.4291 3.00736 15.2888 2.83561C15.2515 2.78559 15.2349 2.72312 15.2424 2.66116C15.2499 2.5992 15.281 2.54251 15.3291 2.50288C15.3773 2.46324 15.4388 2.4437 15.501 2.44831C15.5631 2.45292 15.6211 2.48132 15.6629 2.52763C16.1637 3.03635 15.9452 4.30597 15.9886 4.9444ZM14.1331 2.60154C14.4114 2.60154 14.6783 2.49084 14.8751 2.29378C15.0719 2.09672 15.1824 1.82945 15.1824 1.55077C15.1824 1.27209 15.0719 1.00482 14.8751 0.807764C14.6783 0.610706 14.4114 0.5 14.1331 0.5C13.8548 0.5 13.5879 0.610706 13.3912 0.807764C13.1944 1.00482 13.0838 1.27209 13.0838 1.55077C13.0838 1.82945 13.1944 2.09672 13.3912 2.29378C13.5879 2.49084 13.8548 2.60154 14.1331 2.60154ZM14.1331 0.985529C14.2794 0.990774 14.418 1.05266 14.5196 1.15816C14.6213 1.26366 14.6781 1.40454 14.6781 1.55113C14.6781 1.69773 14.6213 1.83861 14.5196 1.94411C14.418 2.04961 14.2794 2.1115 14.1331 2.11674C13.9832 2.11674 13.8395 2.05711 13.7335 1.95097C13.6275 1.84483 13.568 1.70088 13.568 1.55077C13.568 1.40067 13.6275 1.25671 13.7335 1.15057C13.8395 1.04443 13.9832 0.985529 14.1331 0.985529ZM7.67741 8.90618H9.93738C10.0017 8.90618 10.0633 8.93176 10.1088 8.97728C10.1543 9.02281 10.1798 9.08456 10.1798 9.14894C10.1798 9.21333 10.1543 9.27508 10.1088 9.3206C10.0633 9.36613 10.0017 9.39171 9.93738 9.39171H7.67741C7.61311 9.39171 7.55145 9.36613 7.50599 9.3206C7.46052 9.27508 7.43498 9.21333 7.43498 9.14894C7.43498 9.08456 7.46052 9.02281 7.50599 8.97728C7.55145 8.93176 7.61311 8.90618 7.67741 8.90618ZM7.67741 10.5229H9.93738C9.99929 10.5263 10.0576 10.5533 10.1002 10.5984C10.1428 10.6435 10.1666 10.7032 10.1666 10.7653C10.1666 10.8274 10.1428 10.8871 10.1002 10.9322C10.0576 10.9773 9.99929 11.0043 9.93738 11.0077H7.67741C7.61292 11.0077 7.55107 10.9821 7.50548 10.9364C7.45988 10.8907 7.43426 10.8288 7.43426 10.7642C7.43426 10.6997 7.45988 10.6377 7.50548 10.5921C7.55107 10.5464 7.61292 10.5207 7.67741 10.5207V10.5229Z" fill="#727272"/>
</g>
<defs>
<clipPath id="clip0_7263_6529">
<rect width="16" height="16" fill="white" transform="translate(0 0.5)"/>
</clipPath>
</defs>
</svg>
