<svg width="30" height="30" viewBox="0 0 30 30" fill="none" xmlns="http://www.w3.org/2000/svg">
<circle cx="17" cy="13" r="17" fill="#E6F7FF"/>
<path d="M17 3.15625C12.7783 3.15625 9.34375 6.59082 9.34375 10.8125C9.34375 12.8633 10.5862 15.4969 13.0366 18.6398C14.1592 20.076 15.375 21.4369 16.676 22.7137C16.7632 22.7972 16.8793 22.8437 17 22.8437C17.1207 22.8437 17.2368 22.7972 17.324 22.7137C18.625 21.4369 19.8408 20.076 20.9634 18.6398C23.4138 15.4969 24.6562 12.8633 24.6562 10.8125C24.6562 6.59082 21.2217 3.15625 17 3.15625ZM17 16.2812C13.9844 16.2812 11.5312 13.8281 11.5312 10.8125C11.5312 7.79688 13.9844 5.34375 17 5.34375C20.0156 5.34375 22.4688 7.79688 22.4688 10.8125C22.4688 13.8281 20.0156 16.2812 17 16.2812Z" fill="#0F7AB1"/>
<path d="M20.7528 10.1532L17.3153 7.02815C17.2291 6.94971 17.1166 6.90625 17 6.90625C16.8834 6.90625 16.771 6.94971 16.6847 7.02815L13.2472 10.1532C13.1671 10.226 13.1147 10.3243 13.0988 10.4313C13.0829 10.5384 13.1046 10.6477 13.1601 10.7406C13.2039 10.8114 13.2653 10.8696 13.3382 10.9095C13.4112 10.9495 13.4933 10.9699 13.5765 10.9687H14.0313V13.9375C14.0313 14.0618 14.0807 14.181 14.1686 14.2689C14.2565 14.3569 14.3757 14.4062 14.5 14.4062H15.5938C15.7181 14.4062 15.8373 14.3569 15.9252 14.2689C16.0131 14.181 16.0625 14.0618 16.0625 13.9375V12.2187C16.0625 12.0944 16.1119 11.9752 16.1998 11.8873C16.2877 11.7994 16.407 11.75 16.5313 11.75H17.4688C17.5931 11.75 17.7123 11.7994 17.8002 11.8873C17.8881 11.9752 17.9375 12.0944 17.9375 12.2187V13.9375C17.9375 14.0618 17.9869 14.181 18.0748 14.2689C18.1627 14.3569 18.282 14.4062 18.4063 14.4062H19.5C19.6243 14.4062 19.7436 14.3569 19.8315 14.2689C19.9194 14.181 19.9688 14.0618 19.9688 13.9375V10.9687H20.4235C20.5067 10.9699 20.5888 10.9495 20.6618 10.9095C20.7348 10.8696 20.7962 10.8114 20.8399 10.7406C20.8955 10.6477 20.9171 10.5384 20.9012 10.4313C20.8853 10.3243 20.8329 10.226 20.7528 10.1532Z" fill="#0F7AB1"/>
</svg>
