<svg width="30" height="31" viewBox="0 0 30 31" fill="none" xmlns="http://www.w3.org/2000/svg">
<circle cx="17" cy="14" r="17" fill="white" fill-opacity="0.69"/>
<path d="M23.6705 6.05859H22.0822V7.64683C22.0822 7.96448 21.8175 8.17624 21.5528 8.17624C21.2881 8.17624 21.0234 7.96448 21.0234 7.64683V6.05859H12.5528V7.64683C12.5528 7.96448 12.2881 8.17624 12.0234 8.17624C11.7587 8.17624 11.494 7.96448 11.494 7.64683V6.05859H9.90577C9.11165 6.05859 8.5293 6.74683 8.5293 7.64683V9.55271H25.4705V7.64683C25.4705 6.74683 24.5175 6.05859 23.6705 6.05859ZM8.5293 10.6645V20.3527C8.5293 21.3057 9.11165 21.9409 9.95871 21.9409H23.7234C24.5705 21.9409 25.5234 21.2527 25.5234 20.3527V10.6645H8.5293ZM13.2411 19.5586H11.9705C11.7587 19.5586 11.5469 19.3998 11.5469 19.1351V17.8115C11.5469 17.5998 11.7058 17.388 11.9705 17.388H13.294C13.5058 17.388 13.7175 17.5468 13.7175 17.8115V19.1351C13.6646 19.3998 13.5058 19.5586 13.2411 19.5586ZM13.2411 14.7939H11.9705C11.7587 14.7939 11.5469 14.6351 11.5469 14.3704V13.0468C11.5469 12.8351 11.7058 12.6233 11.9705 12.6233H13.294C13.5058 12.6233 13.7175 12.7821 13.7175 13.0468V14.3704C13.6646 14.6351 13.5058 14.7939 13.2411 14.7939ZM17.4764 19.5586H16.1528C15.9411 19.5586 15.7293 19.3998 15.7293 19.1351V17.8115C15.7293 17.5998 15.8881 17.388 16.1528 17.388H17.4764C17.6881 17.388 17.8999 17.5468 17.8999 17.8115V19.1351C17.8999 19.3998 17.7411 19.5586 17.4764 19.5586ZM17.4764 14.7939H16.1528C15.9411 14.7939 15.7293 14.6351 15.7293 14.3704V13.0468C15.7293 12.8351 15.8881 12.6233 16.1528 12.6233H17.4764C17.6881 12.6233 17.8999 12.7821 17.8999 13.0468V14.3704C17.8999 14.6351 17.7411 14.7939 17.4764 14.7939ZM21.7116 19.5586H20.3881C20.1764 19.5586 19.9646 19.3998 19.9646 19.1351V17.8115C19.9646 17.5998 20.1234 17.388 20.3881 17.388H21.7116C21.9234 17.388 22.1352 17.5468 22.1352 17.8115V19.1351C22.1352 19.3998 21.9764 19.5586 21.7116 19.5586ZM21.7116 14.7939H20.3881C20.1764 14.7939 19.9646 14.6351 19.9646 14.3704V13.0468C19.9646 12.8351 20.1234 12.6233 20.3881 12.6233H21.7116C21.9234 12.6233 22.1352 12.7821 22.1352 13.0468V14.3704C22.1352 14.6351 21.9764 14.7939 21.7116 14.7939Z" fill="#5A65FF"/>
</svg>
