<svg width="16" height="16" viewBox="0 0 16 16" fill="none" xmlns="http://www.w3.org/2000/svg">
<g clip-path="url(#clip0_6413_6715)">
<path d="M1.92664 14.4217C1.92664 14.5784 2.05463 14.7078 2.21226 14.7101C3.93691 14.7338 5.28986 14.7774 6.9327 14.8072C7.70069 15.0048 10.2478 15.6234 10.4621 15.6234C10.4926 15.6234 10.5224 15.6182 10.5508 15.6088C10.6564 15.6138 10.7622 15.6123 10.8669 15.5974C10.9547 15.585 11.0253 15.5209 11.0543 15.4371C11.1268 15.2278 11.203 15.0079 11.2759 14.7971C12.3839 14.7648 12.3281 14.769 12.4178 14.7086C12.4944 14.6761 12.5387 14.6415 12.6293 14.5865C12.7802 14.4949 12.8783 14.3366 12.8874 14.1604C13.0036 11.9057 13.053 9.67826 13.0575 7.43637C13.3939 6.16927 13.7232 4.88741 14.0606 3.62749C14.1157 3.42186 14.0016 3.2869 13.9695 3.19463C13.9654 3.08076 13.8977 2.97673 13.7899 2.9373C13.5162 2.83024 13.2578 2.73282 13.0043 2.63909C13.0019 2.53506 13.0003 2.43196 12.9978 2.32774C12.993 2.12964 12.8605 2.0389 12.6557 1.8001C12.6138 1.71471 12.5351 1.64931 12.4358 1.63675C12.4357 1.63675 12.4356 1.63675 12.4355 1.63675C11.2257 1.48688 10.0384 1.39079 8.8637 1.3407C8.86259 1.34042 8.8617 1.33968 8.86058 1.33942C7.21249 0.91111 5.57634 0.597691 3.85943 0.381239C3.70881 0.362627 3.57221 0.457296 3.54176 0.597461L3.31862 1.47891C2.93939 1.51476 2.5603 1.55425 2.18112 1.60091C2.03602 1.6186 1.92664 1.74199 1.92664 1.88813V6.9609L0.457891 12.7466C0.418414 12.904 0.518283 13.0571 0.664693 13.0938C1.09593 13.2108 1.51567 13.3252 1.92664 13.438V14.4217ZM8.47298 14.8258C9.02119 14.8292 9.59185 14.8332 10.5658 14.8146C10.5174 14.9637 10.4692 15.1134 10.4206 15.2604C9.78478 15.1289 9.14549 14.9862 8.47298 14.8258ZM13.6047 3.24383C13.3618 4.04386 13.2288 4.67458 13.0512 5.49067C13.0436 4.67099 13.0299 3.84656 13.0123 3.01763C13.2038 3.08919 13.4002 3.16414 13.6047 3.24383ZM3.87 0.738316C4.98884 0.880923 6.07222 1.06957 7.14829 1.30049C5.98844 1.29916 4.83838 1.34916 3.6907 1.44688L3.87 0.738316ZM2.27958 1.94443C5.57646 1.54277 8.86644 1.55449 12.3335 1.97981C12.2462 3.84355 12.6338 8.31568 12.1998 14.4113C8.69819 14.5625 5.84316 14.4082 2.27958 14.358V1.94443ZM0.816347 12.7693L1.92664 8.39556V13.0719C1.56451 12.9728 1.19634 12.8724 0.816347 12.7693Z" fill="black"/>
<path d="M3.78516 6.42188C8.58979 6.46471 8.06043 6.4326 8.83284 6.47656C10.4525 6.56949 10.9594 6.48332 10.9422 4.87937L10.9413 3.69853C10.9413 3.27252 10.6434 2.92578 10.2772 2.92578H3.78906C3.42291 2.92578 3.125 3.27252 3.125 3.69853V5.6489C3.125 6.07261 3.42107 6.41935 3.78516 6.42188ZM3.47794 3.69853C3.47794 3.47105 3.6204 3.27872 3.78906 3.27872H10.2772C10.4459 3.27872 10.5884 3.47105 10.5884 3.69853L10.5893 4.88304C10.6025 6.1478 10.4221 6.21397 8.85306 6.12431C8.07085 6.07937 8.57042 6.11169 3.78757 6.06893C3.61972 6.06779 3.47794 5.87546 3.47794 5.6489V3.69853Z" fill="black"/>
<path d="M3.07491 8.05997H7.97024C8.06767 8.05997 8.14671 7.98093 8.14671 7.8835C8.14671 7.78608 8.06767 7.70703 7.97024 7.70703H3.07491C2.97748 7.70703 2.89844 7.78608 2.89844 7.8835C2.89844 7.98093 2.97748 8.05997 3.07491 8.05997Z" fill="black"/>
<path d="M3.01241 10.1049H9.47725C9.57468 10.1049 9.65372 10.0259 9.65372 9.92842C9.65372 9.831 9.57468 9.75195 9.47725 9.75195H3.01241C2.91498 9.75195 2.83594 9.831 2.83594 9.92842C2.83594 10.0259 2.91498 10.1049 3.01241 10.1049Z" fill="black"/>
<path d="M7.27344 11.8308C7.27344 11.7333 7.19439 11.6543 7.09697 11.6543H2.91085C2.81342 11.6543 2.73438 11.7333 2.73438 11.8308C2.73438 11.9282 2.81342 12.0072 2.91085 12.0072H7.09697C7.19439 12.0072 7.27344 11.9282 7.27344 11.8308Z" fill="black"/>
<path d="M8.88281 11.7982V13.006C8.88281 13.0789 8.94181 13.1361 9.01295 13.1361H11.0397C11.1109 13.1361 11.1699 13.0789 11.1699 13.006V11.8087C11.1699 11.7306 11.0987 11.6716 11.0241 11.6785L9.01469 11.6681C8.93854 11.6646 8.88281 11.7276 8.88281 11.7982Z" fill="black"/>
<path d="M13.7762 2.33167C13.9624 2.33167 13.9416 2.15353 14.3256 1.45507C14.3726 1.36959 14.3415 1.26228 14.256 1.21541C14.1709 1.16807 14.0634 1.19955 14.0163 1.28503C13.7641 1.74352 13.7832 1.76423 13.6202 2.07294C13.5576 2.1918 13.6457 2.33167 13.7762 2.33167Z" fill="black"/>
<path d="M14.2055 2.69766C14.2395 2.74844 14.2955 2.77601 14.3524 2.77601C14.3861 2.77601 14.4202 2.76636 14.4503 2.74637C14.8326 2.49075 14.9457 2.37676 15.2691 2.13906C15.3477 2.08139 15.3645 1.97086 15.3069 1.89228C15.2491 1.8137 15.1387 1.79692 15.0602 1.8546C14.735 2.09324 14.6263 2.20433 14.2543 2.45271C14.1731 2.50694 14.1514 2.61654 14.2055 2.69766Z" fill="black"/>
<path d="M15.3748 3.56223C15.463 3.56223 15.5392 3.49629 15.5497 3.40644C15.5612 3.30971 15.4921 3.22193 15.3953 3.21044C15.0966 3.17529 14.8342 3.19229 14.5566 3.1592C14.4584 3.14909 14.372 3.21688 14.3606 3.31384C14.3491 3.41058 14.4183 3.49836 14.515 3.50984C14.8138 3.54499 15.0761 3.528 15.3537 3.56109C15.3609 3.56177 15.3679 3.56223 15.3748 3.56223Z" fill="black"/>
</g>
<defs>
<clipPath id="clip0_6413_6715">
<rect width="16" height="16" fill="white"/>
</clipPath>
</defs>
</svg>
