<svg width="16" height="20" viewBox="0 0 16 20" fill="none" xmlns="http://www.w3.org/2000/svg">
<path d="M3.12001 0H9.81362L15.4801 5.90882V17.3995C15.4801 18.8344 14.3145 20 12.8758 20H3.12004C1.68513 20 0.519531 18.8344 0.519531 17.3995V2.6005C0.519506 1.1656 1.68511 0 3.12001 0Z" fill="white"/>
<path opacity="0.302" fill-rule="evenodd" clip-rule="evenodd" d="M9.80859 0V5.86268H15.4828L9.80859 0Z" fill="#0B7AB2"/>
<path d="M10.6384 10.4044H5.36428C5.12191 10.4044 4.92188 10.2082 4.92188 9.96588C4.92188 9.72354 5.12191 9.52734 5.36428 9.52734H10.6384C10.8807 9.52734 11.0769 9.72354 11.0769 9.96588C11.0769 10.2082 10.8807 10.4044 10.6384 10.4044ZM8.88034 15.6785H5.36428C5.12191 15.6785 4.92188 15.4823 4.92188 15.24C4.92188 14.9976 5.12191 14.8014 5.36428 14.8014H8.88034C9.1227 14.8014 9.31887 14.9976 9.31887 15.24C9.31887 15.4823 9.1227 15.6785 8.88034 15.6785ZM10.6384 13.9205H5.36428C5.12191 13.9205 4.92188 13.7243 4.92188 13.4819C4.92188 13.2396 5.12191 13.0434 5.36428 13.0434H10.6384C10.8807 13.0434 11.0769 13.2396 11.0769 13.4819C11.0769 13.7243 10.8807 13.9205 10.6384 13.9205ZM10.6384 12.1624H5.36428C5.12191 12.1624 4.92188 11.9662 4.92188 11.7239C4.92188 11.4816 5.12191 11.2854 5.36428 11.2854H10.6384C10.8807 11.2854 11.0769 11.4816 11.0769 11.7239C11.0769 11.9662 10.8807 12.1624 10.6384 12.1624Z" fill="#0B7AB2"/>
</svg>
