<svg width="10" height="12" viewBox="0 0 10 12" fill="none" xmlns="http://www.w3.org/2000/svg">
<path d="M2.07278 0H6.08788L9.48665 3.54597V10.4389C9.48665 11.3012 8.7878 12 7.92559 12H2.07278C1.21055 12 0.511719 11.3012 0.511719 10.4389V1.56106C0.511719 0.698845 1.21055 0 2.07278 0Z" fill="#0B7AB2"/>
<path opacity="0.302" fill-rule="evenodd" clip-rule="evenodd" d="M6.08203 0V3.51685H9.48565L6.08203 0Z" fill="white"/>
<path d="M1.96094 8.5624V6.57587H2.66463C2.80537 6.57587 2.93641 6.5969 3.05774 6.63573C3.17907 6.67617 3.28907 6.73441 3.38775 6.81207C3.48643 6.88971 3.56409 6.99325 3.6207 7.12266C3.67732 7.25207 3.70644 7.4009 3.70644 7.56914C3.70644 7.73737 3.67732 7.8862 3.6207 8.01561C3.56409 8.14502 3.48643 8.24856 3.38775 8.3262C3.28908 8.40385 3.17907 8.46208 3.05774 8.50254C2.93641 8.54137 2.80538 8.5624 2.66463 8.5624H1.96094ZM2.45757 8.13048H2.60478C2.68404 8.13048 2.75846 8.12077 2.82478 8.10297C2.89272 8.08357 2.95418 8.05283 3.01242 8.01238C3.07066 7.97193 3.11595 7.91371 3.1483 7.83767C3.18228 7.76325 3.19844 7.67266 3.19844 7.56914C3.19844 7.46561 3.18226 7.37502 3.1483 7.29898C3.11595 7.22456 3.07066 7.16633 3.01242 7.12589C2.95418 7.08383 2.89272 7.05472 2.82478 7.0353C2.75846 7.0175 2.68404 7.00779 2.60478 7.00779H2.45757V8.13048ZM4.91161 8.58505C4.61234 8.58505 4.36484 8.48798 4.1691 8.29548C3.97335 8.10297 3.87629 7.86032 3.87629 7.56915C3.87629 7.27796 3.97335 7.03531 4.1691 6.84282C4.36484 6.6503 4.61234 6.55325 4.91161 6.55325C5.20602 6.55325 5.4503 6.65032 5.64604 6.84282C5.84016 7.03533 5.93722 7.27798 5.93722 7.56915C5.93722 7.86032 5.84016 8.10299 5.64604 8.29548C5.4503 8.48798 5.20602 8.58505 4.91161 8.58505ZM4.52983 7.98812C4.6285 8.09812 4.75468 8.15313 4.90836 8.15313C5.06205 8.15313 5.1866 8.09812 5.28529 7.98812C5.38396 7.8765 5.4325 7.73737 5.4325 7.56914C5.4325 7.4009 5.38396 7.26177 5.28529 7.15015C5.18662 7.04015 5.06205 6.98514 4.90836 6.98514C4.75468 6.98514 4.6285 7.04015 4.52983 7.15015C4.43116 7.26177 4.381 7.4009 4.381 7.56914C4.381 7.73737 4.43116 7.8765 4.52983 7.98812ZM7.11813 8.58505C6.82857 8.58505 6.58752 8.49445 6.39665 8.31651C6.20413 8.13695 6.10871 7.88782 6.10871 7.56914C6.10871 7.25207 6.20577 7.00294 6.39989 6.82338C6.59563 6.64382 6.83343 6.55322 7.11814 6.55322C7.37535 6.55322 7.58565 6.61631 7.75228 6.74411C7.91729 6.87029 8.01273 7.03853 8.03699 7.24882L7.53551 7.35074C7.51448 7.24074 7.46432 7.15177 7.38668 7.08544C7.30903 7.0191 7.21844 6.98514 7.1149 6.98514C6.97254 6.98514 6.85445 7.0353 6.759 7.1372C6.66356 7.24073 6.61502 7.38308 6.61502 7.56912C6.61502 7.75516 6.66356 7.89751 6.75738 7.99943C6.85282 8.10296 6.97092 8.15311 7.11488 8.15311C7.21841 8.15311 7.3074 8.124 7.38019 8.06576C7.45298 8.00753 7.49828 7.92988 7.51769 7.83282L8.0305 7.94929C7.98359 8.14988 7.88005 8.30519 7.71828 8.4168C7.55814 8.52843 7.35755 8.58505 7.11813 8.58505Z" fill="white"/>
</svg>
