<svg width="20" height="20" viewBox="0 0 20 20" fill="none" xmlns="http://www.w3.org/2000/svg">
<g clip-path="url(#clip0_3672_2729)">
<path fill-rule="evenodd" clip-rule="evenodd" d="M15 20H5C4.34337 20.0001 3.69316 19.8708 3.0865 19.6195C2.47983 19.3683 1.92861 19 1.4643 18.5357C0.999994 18.0714 0.631699 17.5202 0.380452 16.9135C0.129205 16.3068 -7.38517e-05 15.6566 3.16507e-08 15V5C-7.38517e-05 4.34337 0.129205 3.69316 0.380452 3.0865C0.631699 2.47983 0.999994 1.92861 1.4643 1.4643C1.92861 0.999994 2.47983 0.631699 3.0865 0.380452C3.69316 0.129205 4.34337 -7.38517e-05 5 3.16507e-08H15C15.6566 -7.38517e-05 16.3068 0.129205 16.9135 0.380452C17.5202 0.631699 18.0714 0.999994 18.5357 1.4643C19 1.92861 19.3683 2.47983 19.6195 3.0865C19.8708 3.69316 20.0001 4.34337 20 5V15C20.0001 15.6566 19.8708 16.3068 19.6195 16.9135C19.3683 17.5202 19 18.0714 18.5357 18.5357C18.0714 19 17.5202 19.3683 16.9135 19.6195C16.3068 19.8708 15.6566 20.0001 15 20Z" fill="#785AFA"/>
<path fill-rule="evenodd" clip-rule="evenodd" d="M9.375 5.625H15C15.721 5.62496 16.4145 5.34802 16.9372 4.85138C17.4599 4.35474 17.7719 3.67633 17.8088 2.95625C17.8457 2.23617 17.6047 1.52942 17.1355 0.981957C16.6663 0.434491 16.0047 0.0881194 15.2875 0.014375C15.1906 0.00906253 15.0969 3.16507e-08 15 3.16507e-08H5C4.34337 -7.38517e-05 3.69316 0.129205 3.0865 0.380452C2.47983 0.631699 1.92861 0.999994 1.4643 1.4643C0.999994 1.92861 0.631699 2.47983 0.380452 3.0865C0.129205 3.69316 -7.38517e-05 4.34337 3.16507e-08 5V15C3.16507e-08 12.5136 0.98772 10.129 2.74587 8.37087C4.50403 6.61272 6.8886 5.625 9.375 5.625Z" fill="#9678FF"/>
<path fill-rule="evenodd" clip-rule="evenodd" d="M15 10C14.0111 10 13.0444 10.2932 12.2222 10.8427C11.3999 11.3921 10.759 12.173 10.3806 13.0866C10.0022 14.0002 9.90315 15.0055 10.0961 15.9755C10.289 16.9454 10.7652 17.8363 11.4645 18.5355C12.1637 19.2348 13.0546 19.711 14.0246 19.9039C14.9945 20.0969 15.9998 19.9978 16.9134 19.6194C17.8271 19.241 18.6079 18.6001 19.1574 17.7779C19.7068 16.9556 20 15.9889 20 15V5C20.0001 5.65663 19.8708 6.30684 19.6196 6.9135C19.3683 7.52017 19 8.07139 18.5357 8.5357C18.0714 9.00001 17.5202 9.3683 16.9135 9.61955C16.3068 9.8708 15.6566 10.0001 15 10Z" fill="#5F41E1"/>
<path fill-rule="evenodd" clip-rule="evenodd" d="M11.1327 6.98031C11.4462 6.98029 11.7567 7.04202 12.0464 7.162C12.336 7.28198 12.5992 7.45784 12.8209 7.67955C13.0426 7.90125 13.2185 8.16446 13.3384 8.45414C13.4584 8.74381 13.5201 9.05428 13.5201 9.36781C13.521 9.44815 13.5535 9.52489 13.6107 9.58138C13.6678 9.63787 13.7449 9.66956 13.8252 9.66956C13.9056 9.66956 13.9827 9.63787 14.0398 9.58138C14.097 9.52489 14.1295 9.44815 14.1304 9.36781C14.1301 8.57291 13.8141 7.81067 13.252 7.24862C12.6899 6.68657 11.9276 6.3707 11.1327 6.37043C11.0924 6.36997 11.0524 6.37752 11.015 6.39264C10.9776 6.40776 10.9436 6.43015 10.9149 6.4585C10.8862 6.48686 10.8634 6.52063 10.8479 6.55785C10.8323 6.59507 10.8243 6.635 10.8243 6.67533C10.8243 6.71567 10.8323 6.7556 10.8479 6.79282C10.8634 6.83004 10.8862 6.8638 10.9149 6.89216C10.9436 6.92052 10.9776 6.94291 11.015 6.95802C11.0524 6.97314 11.0924 6.98069 11.1327 6.98023V6.98031ZM10.6721 8.93258C10.6317 8.93303 10.5917 8.92549 10.5543 8.91037C10.5169 8.89525 10.4829 8.87286 10.4542 8.8445C10.4255 8.81615 10.4028 8.78238 10.3872 8.74516C10.3717 8.70794 10.3637 8.66801 10.3637 8.62768C10.3637 8.58734 10.3717 8.54741 10.3872 8.51019C10.4028 8.47297 10.4255 8.43921 10.4542 8.41085C10.4829 8.38249 10.5169 8.3601 10.5543 8.34498C10.5917 8.32987 10.6317 8.32232 10.6721 8.32277C10.8778 8.32266 11.0815 8.36309 11.2715 8.44174C11.4616 8.5204 11.6343 8.63574 11.7798 8.78117C11.9253 8.92661 12.0406 9.09929 12.1193 9.28934C12.198 9.47939 12.2385 9.68309 12.2385 9.88879C12.2376 9.96913 12.205 10.0459 12.1479 10.1024C12.0907 10.1588 12.0136 10.1905 11.9333 10.1905C11.8529 10.1905 11.7758 10.1588 11.7187 10.1024C11.6616 10.0459 11.629 9.96913 11.6281 9.88879C11.6282 9.76323 11.6035 9.6389 11.5554 9.52289C11.5074 9.40688 11.437 9.30146 11.3483 9.21267C11.2595 9.12387 11.1541 9.05343 11.0381 9.00537C10.9221 8.95731 10.7978 8.93258 10.6722 8.93258H10.6721ZM12.6574 16.4772C11.6934 16.307 10.7422 15.8647 9.91186 15.3576C8.95139 14.7702 8.05424 14.0381 7.25846 13.2421C6.46268 12.4461 5.73026 11.5495 5.14291 10.5882C4.63619 9.75797 4.1928 8.80645 4.0235 7.84301C3.98282 7.62748 3.99509 7.40529 4.05924 7.19555C4.12741 6.98793 4.24429 6.79965 4.4001 6.64645L5.67151 5.37539C5.73105 5.31624 5.81158 5.28304 5.89551 5.28304C5.97944 5.28304 6.05997 5.31624 6.11951 5.37539L8.40346 7.65887C8.4625 7.71854 8.49561 7.79909 8.49561 7.88303C8.49561 7.96697 8.4625 8.04752 8.40346 8.10719L7.18963 9.32137C7.10317 9.40723 7.05011 9.52109 7.03999 9.64252C7.02986 9.76395 7.06331 9.88502 7.13436 9.98402C7.60393 10.6329 8.12625 11.2419 8.696 11.8049C9.25862 12.3749 9.86763 12.8971 10.5167 13.3663C10.6156 13.4375 10.7366 13.4711 10.858 13.461C10.9794 13.451 11.0932 13.3979 11.1789 13.3113L12.3938 12.0973C12.423 12.0678 12.4579 12.0445 12.4962 12.0287C12.5346 12.0128 12.5757 12.0047 12.6172 12.0049C12.7013 12.0048 12.7821 12.038 12.8418 12.0973L15.1255 14.3809C15.1845 14.4405 15.2176 14.521 15.2176 14.605C15.2176 14.6889 15.1845 14.7694 15.1255 14.8291L13.854 16.1002C13.7018 16.2579 13.5126 16.375 13.3036 16.4409C13.0946 16.5067 12.8724 16.5192 12.6574 16.4772ZM11.1327 4.60965C11.0519 4.60965 10.9743 4.57753 10.9172 4.52037C10.86 4.4632 10.8279 4.38567 10.8279 4.30482C10.8279 4.22398 10.86 4.14645 10.9172 4.08928C10.9743 4.03212 11.0519 4 11.1327 4C11.8376 3.99996 12.5357 4.13878 13.1869 4.40853C13.8382 4.67827 14.4299 5.07366 14.9284 5.57212C15.4269 6.07057 15.8222 6.66233 16.092 7.3136C16.3617 7.96487 16.5005 8.66289 16.5005 9.36781C16.5005 9.44876 16.4683 9.52638 16.4111 9.58362C16.3539 9.64085 16.2762 9.67301 16.1953 9.67301C16.1144 9.67301 16.0367 9.64085 15.9795 9.58362C15.9223 9.52638 15.8901 9.44876 15.8901 9.36781C15.8902 8.10598 15.389 6.89578 14.4968 6.00346C13.6047 5.11113 12.3946 4.60976 11.1327 4.60965Z" fill="white"/>
</g>
<defs>
<clipPath id="clip0_3672_2729">
<rect width="20" height="20" fill="white"/>
</clipPath>
</defs>
</svg>
