<svg width="40" height="40" viewBox="0 0 40 40" fill="none" xmlns="http://www.w3.org/2000/svg">
<path d="M32.0007 25.4618C30.0319 24.1061 27.3137 24.6684 25.9738 26.6836L24.5577 28.9327C24.2497 29.4014 23.5355 29.5927 23.0203 29.3006C17.9614 26.3476 13.7353 22.3315 10.5453 17.3908C10.2153 16.8797 10.3509 16.21 10.8462 15.8335L13.0133 14.2638C14.9795 12.8665 15.3504 10.1422 13.9065 8.1919L9.88924 2.80565C8.66543 1.19612 6.26901 1.02527 4.89431 2.48084C-0.41927 8.08415 -1.932 16.9132 11.075 29.3172C24.0662 41.6746 32.8102 39.7349 38.0931 34.194C39.5144 32.7226 39.2186 30.3293 37.5313 29.1894L32.0007 25.4618Z" fill="white"/>
</svg>
