<svg width="41" height="41" viewBox="0 0 41 41" fill="none" xmlns="http://www.w3.org/2000/svg">
<path d="M12.1094 23.3047L7.33988 18.5312C4.49613 15.6875 4.47269 11.0352 7.31644 8.19141L10.0664 5.44141C10.3985 5.10938 10.9375 5.10938 11.2696 5.44141L16.7539 10.9297C17.086 11.2617 17.086 11.8008 16.7539 12.1328L14.6914 14.1953C13.8477 15.0391 13.8672 16.418 14.711 17.2617L16.4297 18.9844L12.1094 23.3047Z" fill="white"/>
<path d="M12.6657 22.7498C11.9626 22.0467 11.2595 21.3436 10.5564 20.6405C9.69698 19.7811 8.8376 18.9217 7.98214 18.0662C7.82589 17.91 7.67354 17.7537 7.52901 17.5858C7.48604 17.535 7.44307 17.4842 7.4001 17.4334C7.37667 17.4061 7.26339 17.2537 7.32198 17.3358C7.38839 17.4256 7.26729 17.2616 7.24776 17.2342C7.20089 17.1678 7.15011 17.0975 7.10714 17.0272C6.9587 16.8045 6.82198 16.578 6.70089 16.3397C6.63839 16.2186 6.57979 16.0975 6.5212 15.9725C6.50948 15.9491 6.49776 15.9217 6.48995 15.8983C6.43135 15.7694 6.49385 15.9217 6.50557 15.9334C6.46651 15.8787 6.45089 15.7928 6.42745 15.7303C6.3337 15.4764 6.25167 15.2186 6.18526 14.9569C6.11885 14.6952 6.0876 14.4295 6.02901 14.1678C6.07589 14.3905 6.02901 14.1639 6.0251 14.1092C6.01729 14.0467 6.01339 13.9842 6.00948 13.9217C5.99776 13.7889 5.98995 13.6561 5.98995 13.5194C5.98214 13.2498 5.98995 12.9842 6.01339 12.7186C6.01729 12.6561 6.02511 12.5936 6.03292 12.5311C6.03682 12.4959 6.04073 12.4608 6.04464 12.4256C6.05635 12.3358 6.03292 12.4998 6.03292 12.4998C6.06807 12.3631 6.07589 12.2147 6.10714 12.078C6.16182 11.8123 6.22823 11.5545 6.31026 11.2967C6.34932 11.1756 6.39229 11.0584 6.43526 10.9412C6.4587 10.8748 6.49776 10.8084 6.51339 10.7381C6.51339 10.7381 6.45089 10.8787 6.48604 10.8006C6.50557 10.7577 6.5212 10.7186 6.54073 10.6756C6.65401 10.4256 6.78292 10.1834 6.92354 9.94906C6.98995 9.83968 7.06026 9.73031 7.13448 9.62484C7.16964 9.57015 7.2087 9.51937 7.24776 9.46469C7.2712 9.43343 7.29073 9.40609 7.31417 9.37484C7.32589 9.35922 7.3376 9.34359 7.34932 9.33187C7.38448 9.285 7.37276 9.30062 7.31417 9.37875C7.34932 9.36703 7.41573 9.24984 7.43917 9.2264C7.48214 9.17562 7.5251 9.12484 7.56807 9.07797C7.66964 8.96469 7.7751 8.85531 7.88057 8.74594L7.9587 8.66781L10.5485 6.07797C10.5759 6.05062 10.6032 6.02328 10.6306 5.99594C10.7282 5.89047 10.5251 6.05844 10.6462 5.98422C10.7673 5.91 10.5173 6.04281 10.6814 5.9725C10.7751 5.93344 10.5251 5.9725 10.6306 5.9764H10.7087C10.8649 5.9725 10.654 5.98031 10.6579 5.96859C10.6618 5.96078 10.8493 6.0389 10.7165 5.98031C10.6189 5.93734 10.7009 5.9764 10.7204 5.98812C10.8532 6.06234 10.6892 5.9764 10.6931 5.96078C10.6931 5.96078 10.7321 5.99984 10.736 5.99984L10.7556 6.01937L10.8454 6.10922C11.1696 6.43344 11.4939 6.75765 11.822 7.08578C12.8649 8.12875 13.9079 9.17562 14.9548 10.2186L16.0329 11.2967C16.0954 11.3592 16.1579 11.4256 16.2243 11.4881C16.2243 11.4881 16.2243 11.4881 16.2282 11.492C16.3454 11.6053 16.2048 11.4608 16.2126 11.4608C16.2282 11.4608 16.2556 11.5506 16.2673 11.5545C16.2556 11.5506 16.2243 11.41 16.236 11.492C16.2399 11.5037 16.2478 11.5623 16.2556 11.5702C16.197 11.5155 16.2556 11.4139 16.2478 11.5194C16.2439 11.5467 16.2439 11.703 16.2517 11.5702C16.2556 11.4569 16.2595 11.5467 16.2439 11.5702C16.1735 11.6912 16.279 11.5545 16.2673 11.5311C16.2751 11.5428 16.2087 11.617 16.2126 11.6248C16.2087 11.6131 16.3142 11.5194 16.2478 11.5741C16.2321 11.5858 16.2165 11.6053 16.2009 11.6209C15.7751 12.0545 15.3415 12.4803 14.9118 12.91C14.4626 13.3592 13.9079 13.8162 13.6306 14.3983C13.072 15.5584 13.2907 16.9256 14.197 17.8436C14.6306 18.285 15.0759 18.7225 15.5134 19.16L15.904 19.5506C15.904 19.1834 15.904 18.8123 15.904 18.4452C14.6462 19.703 13.3845 20.9647 12.1267 22.2225C11.947 22.4022 11.7673 22.5819 11.5876 22.7616C11.2985 23.0506 11.2751 23.5819 11.5876 23.867C11.9001 24.1522 12.3845 24.1756 12.6931 23.867C13.9509 22.6092 15.2126 21.3475 16.4704 20.0897C16.6501 19.91 16.8298 19.7303 17.0095 19.5506C17.3064 19.2537 17.3103 18.7459 17.0095 18.4452C16.5993 18.035 16.1892 17.6248 15.7751 17.2108C15.6149 17.0506 15.4509 16.8905 15.2907 16.7264C15.2751 16.7108 15.2634 16.6952 15.2478 16.6834C15.2204 16.6561 15.197 16.6287 15.1735 16.6014C15.072 16.492 15.1814 16.6209 15.1931 16.6287C15.1501 16.6014 15.1149 16.5155 15.0876 16.4686C15.0642 16.4295 15.0095 16.2772 14.9743 16.2537C14.986 16.2616 15.0368 16.4295 14.9899 16.2928C14.9821 16.2694 14.9704 16.242 14.9626 16.2186C14.9431 16.16 14.9235 16.1014 14.9118 16.0389C14.904 16.0037 14.8962 15.9686 14.8884 15.9334C14.8728 15.8709 14.9001 15.8202 14.8923 15.9842C14.8962 15.9139 14.8806 15.8436 14.8767 15.7733C14.8767 15.703 14.8806 15.6327 14.8845 15.5623C14.8923 15.4217 14.8493 15.7303 14.8884 15.535C14.9001 15.4725 14.9118 15.4139 14.9314 15.3553C14.9392 15.3202 14.9509 15.2889 14.9626 15.2537C14.9704 15.2303 15.0251 15.0819 14.9821 15.1991C14.9431 15.3045 15.0173 15.1327 15.0368 15.0975C15.0681 15.0428 15.0993 14.9881 15.1345 14.9334C15.2399 14.7733 15.0524 15.0194 15.1814 14.8709C15.2126 14.8358 15.2439 14.8006 15.279 14.7655C15.4118 14.6287 15.5446 14.4959 15.6814 14.3631L17.1696 12.8748C17.4314 12.6131 17.6696 12.3397 17.7634 11.9647C17.9079 11.3905 17.736 10.7967 17.322 10.3787C17.0681 10.1209 16.8103 9.86703 16.5524 9.60922C15.5056 8.56234 14.4626 7.51937 13.4157 6.4725C13.0017 6.05844 12.5876 5.64437 12.1774 5.23422C11.7439 4.80062 11.2985 4.38656 10.6228 4.43734C10.1579 4.4725 9.77901 4.67953 9.45479 5.00375C9.2712 5.18734 9.09151 5.37094 8.90792 5.55062C8.38057 6.07797 7.85323 6.60531 7.32589 7.13265C6.86104 7.5975 6.40792 8.05844 6.00948 8.58578C5.31807 9.50375 4.8337 10.6053 4.61495 11.7342C4.1462 14.1405 4.75948 16.6014 6.29073 18.5116C6.57979 18.8709 6.90792 19.1912 7.23214 19.5155L8.60714 20.8905L11.4157 23.6991L11.5915 23.8748C11.8806 24.1639 12.4118 24.1873 12.697 23.8748C12.9509 23.5428 12.9743 23.0584 12.6657 22.7498Z" fill="white"/>
<path d="M35.5547 30.9375L32.8047 33.6875C29.9609 36.5312 25.3086 36.5039 22.4648 33.6641L14.9023 26.0977L19.2227 21.7773L23.7344 26.2891C24.5781 27.1328 25.957 27.1523 26.8008 26.3086L28.8633 24.2461C29.1953 23.9141 29.7344 23.9141 30.0664 24.2461L35.5508 29.7305C35.8867 30.0625 35.8867 30.6055 35.5547 30.9375Z" fill="white"/>
<path d="M35.0054 30.3828C34.0874 31.2969 33.1772 32.2188 32.2554 33.1289C32.1421 33.2422 32.0249 33.3555 31.8999 33.4609C31.8374 33.5156 31.771 33.5703 31.7046 33.625C31.6772 33.6445 31.646 33.6797 31.6187 33.6953C31.7866 33.5977 31.6382 33.6797 31.5991 33.7109C31.3179 33.918 31.021 34.1055 30.7124 34.2734C30.5679 34.3516 30.4194 34.4219 30.271 34.4883C30.2397 34.5039 30.2007 34.5156 30.1733 34.5313C30.314 34.4453 30.2593 34.4961 30.2085 34.5156C30.1147 34.5508 30.0249 34.5898 29.9312 34.6211C29.6187 34.7344 29.2983 34.8242 28.9741 34.8906C28.8179 34.9219 28.6538 34.9414 28.4976 34.9727C28.7241 34.9219 28.4741 34.9727 28.4116 34.9805C28.314 34.9922 28.2163 35 28.1187 35.0039C27.7905 35.0234 27.4585 35.0234 27.1304 35C27.0483 34.9961 26.9702 34.9883 26.8882 34.9805C26.853 34.9766 26.8179 34.9727 26.7827 34.9688C26.603 34.9492 26.9194 34.9922 26.8062 34.9727C26.6382 34.9453 26.4702 34.918 26.3022 34.8828C25.9702 34.8086 25.6382 34.7148 25.3179 34.5977C25.2515 34.5742 25.1812 34.5469 25.1147 34.5195C24.9468 34.4531 25.2319 34.5742 25.1265 34.5234C25.0835 34.5039 25.0444 34.4883 25.0015 34.4688C24.8452 34.3984 24.689 34.3203 24.5366 34.2383C24.2358 34.0742 23.9507 33.8867 23.6733 33.6875C23.5601 33.6055 23.6812 33.6953 23.6968 33.707C23.6577 33.6797 23.6226 33.6484 23.5874 33.6211C23.521 33.5664 23.4585 33.5117 23.3921 33.457C23.2632 33.3438 23.1382 33.2266 23.0171 33.1055C23.0015 33.0898 22.9858 33.0742 22.9663 33.0547C22.646 32.7344 22.3296 32.418 22.0093 32.0977C20.7437 30.832 19.478 29.5664 18.2085 28.2969C17.3062 27.3945 16.4194 26.4688 15.4937 25.582C15.478 25.5664 15.4624 25.5508 15.4507 25.5391V26.6445C16.7085 25.3867 17.9702 24.125 19.228 22.8672C19.4077 22.6875 19.5874 22.5078 19.7671 22.3281C19.3999 22.3281 19.0288 22.3281 18.6616 22.3281L21.6226 25.2891L23.0718 26.7383C23.3335 27 23.6226 27.2461 23.9624 27.4023C24.7397 27.7656 25.6187 27.8125 26.4155 27.4766C27.2163 27.1367 27.814 26.3906 28.4194 25.7852C28.7046 25.5 28.9858 25.2188 29.271 24.9336C29.2827 24.9219 29.4546 24.7773 29.4507 24.7539C29.4546 24.7695 29.2944 24.8516 29.4233 24.7813C29.5601 24.7031 29.3804 24.7969 29.3804 24.793C29.396 24.7891 29.4155 24.7813 29.4312 24.7773C29.5015 24.7617 29.4976 24.7617 29.4312 24.7695C29.4155 24.7734 29.396 24.7734 29.3804 24.7773C29.4155 24.7734 29.4507 24.7734 29.4858 24.7734C29.5874 24.7656 29.4976 24.8242 29.4351 24.7656C29.4312 24.7617 29.5366 24.7891 29.5366 24.793C29.5327 24.75 29.3804 24.7344 29.5171 24.7969C29.6069 24.8359 29.396 24.668 29.5093 24.793C29.7866 25.0938 30.0874 25.3711 30.3765 25.6602L32.2671 27.5508L34.1499 29.4336L34.7632 30.0469C34.8452 30.1289 34.9233 30.2266 35.0132 30.3008C35.0952 30.3672 34.9194 30.1484 35.0054 30.2969C35.0601 30.3867 34.978 30.3125 34.9937 30.2539C34.9976 30.2422 35.021 30.3555 35.021 30.3555C35.0093 30.3594 35.0132 30.1641 35.0132 30.3281C35.0132 30.4922 35.0132 30.3008 35.021 30.3008C35.021 30.3008 34.9937 30.4102 34.9937 30.4023C34.978 30.3477 35.0601 30.2695 35.0054 30.3594C34.9233 30.5234 35.1343 30.2461 35.0054 30.3828C34.7241 30.6797 34.689 31.1953 35.0054 31.4883C35.3101 31.7656 35.8101 31.8086 36.1108 31.4883C36.7358 30.8242 36.7319 29.832 36.103 29.1719C35.9976 29.0586 35.8843 28.9531 35.7749 28.8438C35.228 28.2969 34.6812 27.75 34.1343 27.2031C33.0054 26.0742 31.8765 24.9453 30.7437 23.8164C30.4819 23.5547 30.1851 23.3281 29.8101 23.2578C29.2593 23.1523 28.728 23.3125 28.3179 23.6953C28.2632 23.7461 28.2124 23.8008 28.1616 23.8516C27.5757 24.4375 26.9897 25.0234 26.4038 25.6094C26.3491 25.6641 26.2944 25.7227 26.2358 25.7773C26.2007 25.8086 26.1655 25.8398 26.1304 25.8711C26.0522 25.9453 26.1069 25.8477 26.1577 25.8516C26.1187 25.8477 25.9858 25.9648 25.9507 25.9844C25.9116 26.0078 25.8687 26.0273 25.8296 26.0469C25.7593 26.0859 25.7632 26.0352 25.8687 26.0313C25.7905 26.0352 25.6929 26.0938 25.6147 26.1133C25.564 26.125 25.5093 26.1367 25.4585 26.1484C25.3804 26.1641 25.3843 26.1211 25.5093 26.1406C25.439 26.1289 25.3452 26.1523 25.271 26.1523C25.1929 26.1523 25.1108 26.1367 25.0327 26.1367C25.2007 26.1328 25.1421 26.1563 25.0835 26.1406C25.0327 26.1289 24.978 26.1172 24.9272 26.1055C24.8647 26.0898 24.7241 26.0664 24.6733 26.0195C24.6812 26.0273 24.8413 26.1016 24.7124 26.0313C24.6812 26.0156 24.6499 26 24.6147 25.9805C24.5718 25.957 24.4312 25.832 24.3843 25.832C24.4429 25.832 24.4858 25.9219 24.4116 25.8516C24.3726 25.8125 24.3296 25.7773 24.2866 25.7383C23.939 25.3984 23.603 25.0547 23.2593 24.7109C22.1226 23.5742 20.9858 22.4375 19.8491 21.3008C19.8218 21.2734 19.7983 21.25 19.771 21.2227C19.4741 20.9258 18.9663 20.9219 18.6655 21.2227C17.4077 22.4805 16.146 23.7422 14.8882 25C14.7085 25.1797 14.5288 25.3594 14.3491 25.5391C14.0522 25.8359 14.0483 26.3438 14.3491 26.6445L16.689 28.9844L20.6343 32.9297C21.6772 33.9727 22.6694 35.0625 24.0171 35.7227C26.6772 37.0273 29.9858 36.8359 32.3882 35.0586C33.0562 34.5625 33.6226 33.9727 34.2085 33.3867C34.8022 32.793 35.3921 32.2031 35.9858 31.6094C36.0249 31.5703 36.0679 31.5273 36.1069 31.4883C36.396 31.1992 36.4194 30.668 36.1069 30.3828C35.7983 30.0977 35.314 30.0742 35.0054 30.3828Z" fill="white"/>
<path d="M34.7433 4.60169C34.4737 4.87122 34.2042 5.14075 33.9347 5.41029C33.2003 6.14466 32.4698 6.87513 31.7355 7.6095C30.6534 8.69154 29.5675 9.77747 28.4855 10.8595C27.169 12.1759 25.8526 13.4923 24.5362 14.8087C23.0948 16.2501 21.6534 17.6915 20.2081 19.1368C18.7472 20.5978 17.2862 22.0587 15.8253 23.5197C14.462 24.8829 13.1026 26.2423 11.7394 27.6056C10.5909 28.754 9.44639 29.8986 8.29795 31.047C7.47373 31.8712 6.64561 32.6993 5.82139 33.5236C5.43077 33.9142 5.03233 34.3048 4.64561 34.6993C4.62998 34.715 4.61045 34.7345 4.59483 34.7501C4.16123 35.1837 4.12998 35.9806 4.59483 36.4064C5.06358 36.8361 5.79014 36.8712 6.25108 36.4064L7.05967 35.5978L9.25889 33.3986C10.3409 32.3165 11.4269 31.2306 12.5089 30.1486C13.8253 28.8322 15.1417 27.5158 16.4581 26.1993C17.8995 24.7579 19.3409 23.3165 20.7862 21.8712C22.2472 20.4103 23.7081 18.9493 25.169 17.4884C26.5323 16.1251 27.8917 14.7658 29.255 13.4025C30.4034 12.254 31.548 11.1095 32.6964 9.96107C33.5206 9.13685 34.3487 8.30872 35.173 7.4845C35.5636 7.09388 35.962 6.70325 36.3487 6.30872C36.3644 6.2931 36.3839 6.27357 36.3995 6.25794C36.8331 5.82435 36.8644 5.02747 36.3995 4.60169C35.9347 4.172 35.2081 4.13685 34.7433 4.60169Z" fill="white"/>
</svg>
