<svg width="24" height="24" viewBox="0 0 24 24" fill="none" xmlns="http://www.w3.org/2000/svg">
<g clip-path="url(#clip0_3576_5329)">
<path d="M13.6641 0C13.4052 0 13.1953 0.209839 13.1953 0.468749C13.1953 0.72766 13.4052 0.937499 13.6641 0.937499C18.848 0.937499 23.0652 5.15496 23.0652 10.3387C23.0652 10.5976 23.2753 10.8074 23.534 10.8074C23.7929 10.8074 24.0027 10.5976 24.0027 10.3387C24.0027 4.63805 19.3649 0 13.6641 0Z" fill="#007EE2"/>
<path d="M20.7142 10.8081C20.9731 10.8081 21.1829 10.5981 21.1829 10.3393C21.1829 6.19329 17.8099 2.82031 13.6641 2.82031C13.4052 2.82031 13.1953 3.03033 13.1953 3.28906C13.1953 3.54797 13.4052 3.75781 13.6641 3.75781C17.293 3.75781 20.2454 6.7102 20.2454 10.3393C20.2454 10.5981 20.4553 10.8081 20.7142 10.8081Z" fill="#007EE2"/>
<path d="M17.425 10.3391C17.425 10.5978 17.6349 10.8079 17.8938 10.8079C18.1527 10.8079 18.3625 10.5978 18.3625 10.3391C18.3625 7.74835 16.2548 5.64062 13.6641 5.64062C13.4052 5.64062 13.1953 5.85046 13.1953 6.10919C13.1953 6.3681 13.4052 6.57794 13.6641 6.57794C15.7379 6.57794 17.425 8.26507 17.425 10.3391Z" fill="#007EE2"/>
<path d="M13.1953 8.92969C13.1953 9.18841 13.4052 9.39825 13.6641 9.39825C14.183 9.39825 14.6052 9.82049 14.6052 10.3396C14.6052 10.5983 14.8151 10.8083 15.074 10.8083C15.3327 10.8083 15.5427 10.5983 15.5427 10.3396C15.5427 9.30359 14.6999 8.46094 13.6641 8.46094C13.4052 8.46094 13.1953 8.67078 13.1953 8.92969Z" fill="#007EE2"/>
<path d="M8.78906 15.2187C8.78906 15.4777 8.57922 15.6875 8.32031 15.6875C8.0614 15.6875 7.85156 15.4777 7.85156 15.2187C7.85156 14.96 8.0614 14.75 8.32031 14.75C8.57922 14.75 8.78906 14.96 8.78906 15.2187Z" fill="#007EE2"/>
<path d="M12.8452 23.4302C14.9797 24.4762 17.5476 24.041 19.2354 22.3531L20.2046 21.384C20.7309 20.8583 20.731 20.0066 20.2048 19.4806L16.4599 15.7361C15.9346 15.21 15.0828 15.2093 14.5569 15.7359L12.9657 17.3273C12.6541 17.6389 12.1731 17.7024 11.8222 17.4785C11.2502 17.1128 10.6938 16.7096 10.1684 16.2801C9.96793 16.1162 9.67277 16.1459 9.50889 16.3462C9.34501 16.5467 9.37467 16.842 9.57499 17.0057C10.1285 17.4584 10.7146 17.8832 11.3176 18.2684C12.0363 18.7275 13.0082 18.6105 13.6286 17.9901L15.2201 16.3986C15.3792 16.2392 15.6371 16.2389 15.7969 16.3987L19.542 20.1434C19.7014 20.3031 19.7018 20.5613 19.542 20.7207L18.5726 21.6903C17.1665 23.0964 15.0308 23.4573 13.2578 22.5884C6.76249 19.4033 3.22856 14.3529 1.40777 10.6769C0.536733 8.91888 0.898366 6.7912 2.30773 5.38221L3.25585 4.43427C3.41478 4.27497 3.67278 4.27442 3.83244 4.43445L7.57786 8.17969C7.73643 8.33807 7.73808 8.59625 7.5775 8.75647L5.98631 10.3478C5.36595 10.9682 5.24895 11.9401 5.70799 12.659C5.97844 13.0821 6.26994 13.4996 6.57463 13.8997C6.73137 14.1057 7.02543 14.1454 7.23143 13.9887C7.43742 13.832 7.47734 13.5379 7.32042 13.3317C7.03148 12.9521 6.75462 12.5559 6.49791 12.1544C6.27397 11.8033 6.33751 11.3223 6.64915 11.0107L8.24015 9.41968C8.76621 8.89435 8.76676 8.04236 8.24052 7.51666L4.49547 3.7718C3.97032 3.24574 3.11833 3.245 2.59264 3.77161L1.64489 4.71937C-0.0492033 6.41291 -0.482064 8.97437 0.567678 11.0931C2.45311 14.8993 6.11339 20.1291 12.8452 23.4302Z" fill="#007EE2"/>
</g>
<defs>
<clipPath id="clip0_3576_5329">
<rect width="24" height="24" fill="white"/>
</clipPath>
</defs>
</svg>
