<svg width="20" height="20" viewBox="0 0 20 20" fill="none" xmlns="http://www.w3.org/2000/svg">
<path d="M12.36 1.80469H7.64C3.7 1.80469 0.5 5.00469 0.5 8.94469C0.5 10.8647 1.28 12.6047 2.54 13.8847C2.88 14.2247 3 14.6847 2.94 15.1447L2.58 17.5447C2.52 17.9847 2.96 18.3247 3.38 18.1447L7.76 16.1047C7.96 16.0247 8.18 15.9647 8.4 15.9647H12.5C16.36 15.9447 19.5 12.7847 19.5 8.92469C19.5 5.00469 16.3 1.80469 12.36 1.80469ZM5.36 10.1047C4.56 10.1047 3.92 9.46469 3.92 8.66469C3.92 7.86469 4.56 7.22469 5.36 7.22469C6.16 7.22469 6.8 7.86469 6.8 8.66469C6.8 9.46469 6.16 10.1047 5.36 10.1047ZM10 10.1047C9.2 10.1047 8.56 9.46469 8.56 8.66469C8.56 7.86469 9.2 7.22469 10 7.22469C10.8 7.22469 11.44 7.86469 11.44 8.66469C11.44 9.46469 10.8 10.1047 10 10.1047ZM14.64 10.1047C13.84 10.1047 13.2 9.46469 13.2 8.66469C13.2 7.86469 13.84 7.22469 14.64 7.22469C15.44 7.22469 16.08 7.86469 16.08 8.66469C16.08 9.46469 15.44 10.1047 14.64 10.1047Z" fill="white"/>
</svg>
