<svg width="24" height="24" viewBox="0 0 24 24" fill="none" xmlns="http://www.w3.org/2000/svg">
<g clip-path="url(#clip0_8042_5945)">
<path d="M15.913 12.7825H0.782609C0.350607 12.7825 0 12.4319 0 11.9999C0 11.5679 0.350607 11.2173 0.782609 11.2173H15.913C16.345 11.2173 16.6956 11.5679 16.6956 11.9999C16.6956 12.4319 16.345 12.7825 15.913 12.7825Z" fill="#0A6000"/>
<path d="M11.7394 16.9566C11.539 16.9566 11.3388 16.8805 11.1863 16.7271C10.8806 16.4214 10.8806 15.9258 11.1863 15.6199L14.8072 11.9992L11.1863 8.37826C10.8806 8.07255 10.8806 7.57673 11.1863 7.27103C11.4922 6.96532 11.9878 6.96532 12.2935 7.27103L16.4674 11.4451C16.7731 11.7508 16.7731 12.2464 16.4674 12.5521L12.2935 16.726C12.1401 16.8805 11.9399 16.9566 11.7394 16.9566Z" fill="#0A6000"/>
<path d="M12.519 23.4786C7.77009 23.4786 3.57751 20.6216 1.83594 16.1992C1.67735 15.7985 1.87549 15.3436 2.2773 15.185C2.67797 15.0285 3.13405 15.2236 3.29263 15.6275C4.79633 19.4456 8.41818 21.9134 12.519 21.9134C17.9847 21.9134 22.4322 17.466 22.4322 12.0003C22.4322 6.53465 17.9847 2.08719 12.519 2.08719C8.41818 2.08719 4.79633 4.55501 3.29263 8.37309C3.1329 8.77701 2.67797 8.97208 2.2773 8.8156C1.87549 8.65702 1.67735 8.20209 1.83594 7.80142C3.57751 3.37899 7.77009 0.521973 12.519 0.521973C18.8477 0.521973 23.9974 5.6716 23.9974 12.0003C23.9974 18.329 18.8477 23.4786 12.519 23.4786Z" fill="#0A6000"/>
</g>
<defs>
<clipPath id="clip0_8042_5945">
<rect width="24" height="24" fill="white"/>
</clipPath>
</defs>
</svg>
