<svg width="38" height="39" viewBox="0 0 38 39" fill="none" xmlns="http://www.w3.org/2000/svg">
<g clip-path="url(#clip0_9020_8030)">
<path d="M19.0452 0.921875C29.5135 0.921875 38.0002 9.40842 38.0002 19.8771C38.0002 30.3457 29.5135 38.8323 19.045 38.8323C8.57639 38.8323 0.0898438 30.3457 0.0898438 19.8771C0.0898438 9.40842 8.57639 0.921875 19.0452 0.921875Z" fill="#DFE5E7"/>
<path d="M31.11 31.5933C31.0023 31.4293 30.8793 31.2515 30.7399 31.0636C30.6006 30.8756 30.445 30.6773 30.2724 30.4723C30.0996 30.2672 29.9096 30.0553 29.7017 29.8401C29.3896 29.5171 29.0367 29.1865 28.6398 28.8596C28.1107 28.4239 27.5036 27.9949 26.8108 27.6002C26.4744 27.4084 26.1166 27.2252 25.7389 27.0526C25.7278 27.0476 25.7178 27.0421 25.7067 27.037C23.9515 26.2412 21.7443 25.6875 19 25.6875C16.2558 25.6875 14.0486 26.2412 12.2934 27.037C12.2328 27.0645 12.1763 27.094 12.1168 27.122C11.8603 27.2428 11.6139 27.3686 11.3769 27.4986C11.2486 27.569 11.1229 27.6406 11.0003 27.7132C10.3871 28.0765 9.8397 28.4644 9.36022 28.8594C8.96355 29.1862 8.61062 29.5169 8.29837 29.8399C8.09027 30.0552 7.90045 30.2672 7.72765 30.4721C7.55486 30.6771 7.39928 30.8754 7.26 31.0634C7.12055 31.2515 6.99759 31.4291 6.88986 31.5931C6.79002 31.7451 6.7047 31.8838 6.63049 32.0097C6.62458 32.0197 6.61741 32.031 6.61185 32.0408C6.53388 32.1742 6.47025 32.2904 6.42006 32.3861C6.31986 32.5775 6.27344 32.6868 6.27344 32.6868V32.7582C9.55094 35.9715 14.0387 37.9536 18.99 37.9536C23.9511 37.9536 28.4472 35.9635 31.7263 32.7385V32.6867C31.7263 32.6867 31.6153 32.4268 31.3692 32.0095C31.2952 31.8842 31.2097 31.7453 31.11 31.5933Z" fill="white"/>
<path d="M19.0006 23.3267C19.4747 23.3267 19.9348 23.2814 20.3772 23.1946C20.5983 23.1513 20.8151 23.0975 21.0267 23.034C21.3444 22.9387 21.6509 22.8211 21.9445 22.6831C22.336 22.499 22.7048 22.2783 23.0468 22.0252C23.56 21.6454 24.013 21.1925 24.3928 20.6793C24.5193 20.5083 24.6378 20.3307 24.7477 20.1468C24.9124 19.8709 25.0576 19.5812 25.1818 19.2792C25.2646 19.0779 25.3381 18.8711 25.4016 18.6594C25.4333 18.5534 25.4627 18.4464 25.4894 18.3382C25.543 18.1216 25.5866 17.9003 25.6194 17.6748C25.6687 17.3365 25.6941 16.9888 25.6941 16.6332C25.6941 16.2776 25.6687 15.9297 25.6194 15.5916C25.5864 15.3661 25.543 15.1447 25.4894 14.9282C25.4625 14.8199 25.4333 14.7128 25.4016 14.6068C25.3381 14.3951 25.2646 14.1883 25.1818 13.987C25.0576 13.685 24.9122 13.3953 24.7477 13.1194C24.6378 12.9355 24.5193 12.7579 24.3928 12.5869C24.013 12.0737 23.56 11.6208 23.0468 11.241C22.7047 10.9879 22.336 10.7672 21.9445 10.5831C21.6509 10.4451 21.3444 10.3275 21.0267 10.2322C20.8151 10.1685 20.5983 10.1148 20.3772 10.0716C19.9348 9.9848 19.4747 9.93945 19.0006 9.93945C15.2074 9.93945 12.3066 12.8402 12.3066 16.6334C12.3066 20.426 15.2074 23.3267 19.0006 23.3267Z" fill="white"/>
</g>
<defs>
<clipPath id="clip0_9020_8030">
<rect width="38" height="38" fill="white" transform="translate(0 0.832031)"/>
</clipPath>
</defs>
</svg>
