<svg width="21" height="21" viewBox="0 0 21 21" fill="none" xmlns="http://www.w3.org/2000/svg">
<path fill-rule="evenodd" clip-rule="evenodd" d="M8.33825 9.15354C8.68171 9.1192 8.98797 9.36979 9.02231 9.71329L9.43897 13.88C9.47339 14.2234 9.22272 14.5297 8.87931 14.564C8.53583 14.5984 8.22955 14.3478 8.19521 14.0043L7.77854 9.83762C7.74419 9.4942 7.99478 9.18787 8.33825 9.15354Z" fill="#0B7AB2"/>
<path fill-rule="evenodd" clip-rule="evenodd" d="M12.6293 9.15354C12.9727 9.18787 13.2233 9.4942 13.189 9.83762L12.7723 14.0043C12.738 14.3478 12.4317 14.5984 12.0882 14.564C11.7448 14.5297 11.4942 14.2234 11.5285 13.88L11.9452 9.71329C11.9795 9.36979 12.2858 9.1192 12.6293 9.15354Z" fill="#0B7AB2"/>
<path fill-rule="evenodd" clip-rule="evenodd" d="M8.92055 1.65041H11.7385C11.9188 1.65029 12.0759 1.65019 12.2242 1.67388C12.8103 1.76747 13.3175 2.13301 13.5916 2.65942C13.661 2.79266 13.7106 2.94173 13.7675 3.11284L13.8605 3.39192C13.8762 3.43916 13.8807 3.45254 13.8846 3.46307C14.0305 3.8665 14.4088 4.13921 14.8377 4.15009C14.849 4.15037 14.8628 4.15042 14.9128 4.15042H17.4128C17.7581 4.15042 18.0378 4.43024 18.0378 4.77542C18.0378 5.1206 17.7581 5.40042 17.4128 5.40042H3.24609C2.90092 5.40042 2.62109 5.1206 2.62109 4.77542C2.62109 4.43024 2.90092 4.15042 3.24609 4.15042H5.74617C5.7962 4.15042 5.81001 4.15037 5.82129 4.15009C6.25017 4.13921 6.62852 3.86652 6.77445 3.46309C6.77829 3.45248 6.7827 3.4394 6.79853 3.39192L6.89153 3.11286C6.94844 2.94176 6.99804 2.79266 7.06742 2.65942C7.34154 2.13301 7.8487 1.76747 8.43479 1.67388C8.58314 1.65019 8.74024 1.65029 8.92055 1.65041ZM7.83622 4.15042C7.87914 4.06624 7.91719 3.97876 7.94991 3.88829C7.95984 3.86082 7.96959 3.83157 7.98211 3.79401L8.06529 3.54449C8.14126 3.31656 8.15875 3.27008 8.1761 3.23676C8.26748 3.06128 8.43654 2.93944 8.63189 2.90824C8.669 2.90231 8.71862 2.90042 8.95889 2.90042H11.7001C11.9404 2.90042 11.99 2.90231 12.0271 2.90824C12.2225 2.93944 12.3916 3.06128 12.4829 3.23676C12.5002 3.27008 12.5177 3.31656 12.5937 3.54449L12.6768 3.79386L12.7091 3.88831C12.7418 3.97876 12.7799 4.06624 12.8228 4.15042H7.83622Z" fill="#0B7AB2"/>
<path fill-rule="evenodd" clip-rule="evenodd" d="M4.74849 7.06781C5.0929 7.04486 5.39071 7.30544 5.41368 7.64986L5.79696 13.3991C5.87184 14.5223 5.9252 15.3038 6.04234 15.8918C6.15596 16.4623 6.31457 16.7642 6.54242 16.9773C6.77026 17.1904 7.08206 17.3287 7.65873 17.4041C8.25323 17.4818 9.03659 17.4831 10.1623 17.4831H10.8068C11.9324 17.4831 12.7158 17.4818 13.3103 17.4041C13.8869 17.3287 14.1988 17.1904 14.4266 16.9773C14.6544 16.7642 14.8131 16.4623 14.9267 15.8918C15.0438 15.3038 15.0972 14.5223 15.1721 13.3991L15.5553 7.64986C15.5783 7.30544 15.8761 7.04486 16.2205 7.06781C16.5649 7.09077 16.8255 7.38859 16.8026 7.73301L16.4163 13.5261C16.3451 14.5951 16.2876 15.4585 16.1526 16.1361C16.0123 16.8405 15.7736 17.4289 15.2806 17.8901C14.7876 18.3513 14.1846 18.5503 13.4724 18.6435C12.7873 18.7331 11.922 18.7331 10.8507 18.7331H10.1183C9.04701 18.7331 8.18163 18.7331 7.4966 18.6435C6.78439 18.5503 6.18143 18.3513 5.68844 17.8901C5.19544 17.4289 4.95676 16.8405 4.81643 16.1361C4.68145 15.4585 4.6239 14.5951 4.55266 13.5261L4.16645 7.73301C4.14348 7.38859 4.40407 7.09077 4.74849 7.06781Z" fill="#0B7AB2"/>
</svg>
