<svg width="18" height="18" viewBox="0 0 18 18" fill="none" xmlns="http://www.w3.org/2000/svg">
<path d="M9.00004 14.625C8.85618 14.625 8.71218 14.5701 8.60235 14.4602L2.97735 8.83522C2.75755 8.61543 2.75755 8.2595 2.97735 8.03985C3.19714 7.82019 3.55307 7.82005 3.77272 8.03985L9.00004 13.2672L14.2273 8.03985C14.4471 7.82005 14.8031 7.82005 15.0227 8.03985C15.2424 8.25964 15.2425 8.61557 15.0227 8.83522L9.39772 14.4602C9.2879 14.5701 9.1439 14.625 9.00004 14.625ZM9.39772 9.96022L15.0227 4.33522C15.2425 4.11543 15.2425 3.7595 15.0227 3.53985C14.8029 3.32019 14.447 3.32005 14.2273 3.53985L9.00004 8.76716L3.77272 3.53985C3.55293 3.32005 3.197 3.32005 2.97735 3.53985C2.75769 3.75964 2.75755 4.11557 2.97735 4.33522L8.60235 9.96022C8.71218 10.0701 8.85618 10.125 9.00004 10.125C9.1439 10.125 9.2879 10.0701 9.39772 9.96022Z" fill="#2983FF"/>
</svg>
