<svg width="19" height="18" viewBox="0 0 19 18" fill="none" xmlns="http://www.w3.org/2000/svg">
<path d="M9.49996 3.37496C9.64382 3.37496 9.78782 3.42995 9.89765 3.53978L15.5227 9.16478C15.7424 9.38457 15.7424 9.7405 15.5227 9.96015C15.3029 10.1798 14.9469 10.1799 14.7273 9.96015L9.49996 4.73284L4.27265 9.96015C4.05285 10.1799 3.69693 10.1799 3.47728 9.96015C3.25762 9.74036 3.25748 9.38443 3.47728 9.16478L9.10228 3.53978C9.2121 3.42995 9.3561 3.37496 9.49996 3.37496ZM9.10228 8.03978L3.47728 13.6648C3.25748 13.8846 3.25748 14.2405 3.47728 14.4602C3.69707 14.6798 4.05299 14.68 4.27265 14.4602L9.49996 9.23284L14.7273 14.4602C14.9471 14.6799 15.303 14.6799 15.5227 14.4602C15.7423 14.2404 15.7424 13.8844 15.5227 13.6648L9.89765 8.03978C9.78782 7.92995 9.64382 7.87496 9.49996 7.87496C9.3561 7.87496 9.2121 7.92995 9.10228 8.03978Z" fill="#8A53FF"/>
</svg>
