<svg width="18" height="12" viewBox="0 0 18 12" fill="none" xmlns="http://www.w3.org/2000/svg">
<path d="M4.14314 11.2209C3.92714 11.2209 3.72014 11.1279 3.57914 10.9629L0.435139 7.36289C0.162139 7.05089 0.195139 6.57689 0.507139 6.30389C0.819139 6.03089 1.29314 6.06389 1.56614 6.37589L4.14314 9.32789L11.4361 0.975889C11.7091 0.663889 12.1831 0.630889 12.4951 0.903889C12.8071 1.17689 12.8401 1.65089 12.5671 1.96289L4.71014 10.9629C4.56614 11.1249 4.35914 11.2209 4.14314 11.2209Z" fill="#2196F3"/>
<path d="M8.42562 11.2804C8.41062 11.2804 8.39862 11.2804 8.38362 11.2804C8.16462 11.2684 7.96062 11.1604 7.82862 10.9864L7.39962 10.4224C7.14762 10.0924 7.21362 9.62137 7.54062 9.37237C7.82262 9.15637 8.20962 9.17437 8.47362 9.39037L16.4506 1.01437C16.7356 0.714369 17.2096 0.702369 17.5096 0.987369C17.8096 1.27237 17.8216 1.74637 17.5366 2.04637L8.96862 11.0494C8.82762 11.1994 8.63262 11.2804 8.42562 11.2804Z" fill="#2196F3"/>
</svg>
