<svg width="21" height="20" viewBox="0 0 21 20" fill="none" xmlns="http://www.w3.org/2000/svg">
<path d="M10.5 0C4.97734 0 0.5 4.47734 0.5 10C0.5 15.5227 4.97734 20 10.5 20C16.0227 20 20.5 15.5227 20.5 10C20.5 4.47734 16.0227 0 10.5 0ZM7.57031 9.1918L7.57969 9.18281C7.64368 9.11881 7.71965 9.06804 7.80326 9.0334C7.88687 8.99876 7.97649 8.98093 8.06699 8.98093C8.1575 8.98093 8.24711 8.99876 8.33073 9.0334C8.41434 9.06804 8.49031 9.11881 8.5543 9.18281L9.80977 10.4383V5.39922C9.80977 5.30863 9.82763 5.21893 9.86233 5.13525C9.89703 5.05158 9.94789 4.97556 10.012 4.91156C10.0761 4.84756 10.1522 4.79683 10.2359 4.76227C10.3197 4.72771 10.4094 4.71 10.5 4.71016C10.6828 4.71016 10.858 4.78275 10.9872 4.91198C11.1165 5.0412 11.1891 5.21647 11.1891 5.39922V10.4383L12.4445 9.18281C12.5086 9.11852 12.5846 9.0675 12.6684 9.03268C12.7522 8.99787 12.8421 8.97995 12.9328 8.97995C13.0235 8.97995 13.1134 8.99787 13.1972 9.03268C13.281 9.0675 13.3571 9.11852 13.4211 9.18281L13.4305 9.1918C13.4945 9.25578 13.5452 9.33175 13.5799 9.41537C13.6145 9.49898 13.6324 9.5886 13.6324 9.6791C13.6324 9.76961 13.6145 9.85922 13.5799 9.94284C13.5452 10.0264 13.4945 10.1024 13.4305 10.1664L10.9891 12.6074C10.9251 12.6714 10.8492 12.7222 10.7656 12.7568C10.682 12.7914 10.5924 12.8093 10.502 12.8093C10.4115 12.8093 10.3219 12.7914 10.2383 12.7568C10.1547 12.7222 10.0788 12.6714 10.0148 12.6074L7.57031 10.1664C7.44124 10.0371 7.36875 9.86182 7.36875 9.6791C7.36875 9.49638 7.44124 9.32113 7.57031 9.1918ZM15.8906 14.1137C15.8843 14.4234 15.7585 14.7188 15.5394 14.9378C15.3203 15.1569 15.025 15.2828 14.7152 15.2891H6.28477C5.97514 15.2828 5.67992 15.157 5.46087 14.9381C5.24181 14.7192 5.11586 14.4241 5.10938 14.1145V12.2824C5.10938 12.1919 5.1272 12.1023 5.16183 12.0187C5.19646 11.9351 5.24721 11.8592 5.3112 11.7952C5.37518 11.7312 5.45114 11.6804 5.53474 11.6458C5.61835 11.6112 5.70795 11.5934 5.79844 11.5934C5.98119 11.5934 6.15645 11.666 6.28568 11.7952C6.4149 11.9244 6.4875 12.0997 6.4875 12.2824V13.9117H14.5125V12.2824C14.5125 12.0997 14.5851 11.9244 14.7143 11.7952C14.8435 11.666 15.0188 11.5934 15.2016 11.5934C15.3843 11.5934 15.5596 11.666 15.6888 11.7952C15.818 11.9244 15.8906 12.0997 15.8906 12.2824V14.1137Z" fill="white"/>
</svg>
