<svg width="28" height="28" viewBox="0 0 28 28" fill="none" xmlns="http://www.w3.org/2000/svg">
<path d="M0 0H28V28H4C1.79086 28 0 26.2091 0 24V0Z" fill="#0B7AB2"/>
<path d="M8.77533 16.8994C8.64733 16.8994 8.51958 16.8506 8.42183 16.7529C8.22658 16.5576 8.22658 16.2411 8.42183 16.0459L16.2353 8.23237C16.4303 8.03712 16.7471 8.03712 16.9423 8.23237C17.1376 8.42763 17.1376 8.74413 16.9423 8.93938L9.12883 16.7529C9.03133 16.8504 8.90333 16.8994 8.77533 16.8994Z" fill="white"/>
<path d="M8.00441 20.4993C7.96966 20.4993 7.93441 20.4955 7.89916 20.488C7.62916 20.43 7.45716 20.1643 7.51516 19.8943L8.28766 16.2935C8.34566 16.0235 8.61266 15.852 8.88141 15.9095C9.15141 15.9675 9.32341 16.2333 9.26541 16.5033L8.49291 20.104C8.44266 20.3388 8.23516 20.4993 8.00441 20.4993Z" fill="white"/>
<path d="M11.6054 19.7273C11.4774 19.7273 11.3497 19.6785 11.2519 19.5808C11.0567 19.3855 11.0567 19.069 11.2519 18.8737L19.0654 11.0605C19.2604 10.8652 19.5772 10.8652 19.7724 11.0605C19.9677 11.2558 19.9677 11.5722 19.7724 11.7675L11.9592 19.5808C11.8614 19.6785 11.7334 19.7273 11.6054 19.7273Z" fill="white"/>
<path d="M8.00358 20.4991C7.77283 20.4991 7.56558 20.3386 7.51508 20.1038C7.45733 19.8338 7.62908 19.5681 7.89908 19.5101L11.4998 18.7376C11.7701 18.6803 12.0358 18.8518 12.0936 19.1216C12.1513 19.3916 11.9796 19.6573 11.7096 19.7153L8.10883 20.4878C8.07358 20.4956 8.03833 20.4991 8.00358 20.4991Z" fill="white"/>
<path d="M18.004 13.3282C17.876 13.3282 17.748 13.2794 17.6505 13.1817L14.8222 10.3534C14.627 10.1582 14.627 9.84169 14.8222 9.64644C15.0172 9.45119 15.3342 9.45119 15.5292 9.64644L18.3575 12.4747C18.5527 12.6699 18.5527 12.9864 18.3575 13.1817C18.26 13.2794 18.132 13.3282 18.004 13.3282Z" fill="white"/>
<path d="M19.4185 11.9143C19.2905 11.9143 19.1625 11.8656 19.0648 11.7678C18.8695 11.5726 18.8695 11.2561 19.0648 11.0606C19.343 10.7823 19.4963 10.4056 19.4963 10.0001C19.4963 9.59456 19.343 9.21781 19.0648 8.93956C18.7863 8.66106 18.4095 8.50781 18.004 8.50781C17.5985 8.50781 17.2218 8.66106 16.9435 8.93956C16.7485 9.13481 16.432 9.13506 16.2363 8.93956C16.041 8.74431 16.041 8.42781 16.2363 8.23231C16.7033 7.76506 17.331 7.50781 18.004 7.50781C18.6768 7.50781 19.3048 7.76506 19.7718 8.23231C20.239 8.69931 20.4963 9.32706 20.4963 10.0001C20.4963 10.6731 20.239 11.3008 19.7718 11.7678C19.6745 11.8653 19.5465 11.9143 19.4185 11.9143Z" fill="white"/>
</svg>
