<svg width="35" height="35" viewBox="0 0 35 35" fill="none" xmlns="http://www.w3.org/2000/svg">
<circle cx="17.5" cy="17.5" r="17.25" fill="#F4F4F4" stroke="#D0D0D0" stroke-width="0.5"/>
<g clip-path="url(#clip0_3065_22524)">
<rect width="17.5" height="17.5" transform="translate(8.74609 8.75)" fill="#F4F4F4"/>
<path d="M23.8407 15.1008L13.8899 25.0443H13.8824L9.95703 21.1189V21.1114L19.9078 11.168L23.8407 15.1008Z" fill="#90A4AE"/>
<path d="M25.6497 13.2823L23.8391 15.1003L19.9062 11.1674L21.7169 9.34944C22.5109 8.5554 23.802 8.5554 24.6035 9.34944L25.6497 10.3958C26.4438 11.1972 26.4438 12.4884 25.6497 13.2823Z" fill="#607D8B"/>
<path d="M13.8817 25.0445C13.8075 25.1187 13.7259 25.1707 13.6294 25.193L9.4369 26.2392C9.39233 26.2467 9.3479 26.2541 9.30334 26.2541C9.15496 26.2541 9.01393 26.1947 8.90998 26.0909C8.76908 25.9498 8.71704 25.7496 8.76161 25.564L9.80797 21.3715C9.83011 21.275 9.88215 21.1933 9.95634 21.1191L13.8817 25.0445Z" fill="#607D8B"/>
</g>
<defs>
<clipPath id="clip0_3065_22524">
<rect width="17.5" height="17.5" fill="white" transform="translate(8.74609 8.75)"/>
</clipPath>
</defs>
</svg>
