<svg width="23" height="24" viewBox="0 0 23 24" fill="none" xmlns="http://www.w3.org/2000/svg">
<path d="M8.0817 9.7856C6.60543 6.98424 12.9053 1.27295 8.0817 0C9.44348 2.57003 3.24204 8.50564 8.0817 9.7856Z" fill="white"/>
<path d="M11.5998 9.93634C10.709 8.01573 15.1096 4.41571 11.9317 3.40234C12.754 5.16452 8.41173 8.91757 11.5998 9.93634Z" fill="white"/>
<path d="M21.4916 14.0688C20.8245 13.0877 19.6556 12.5315 18.2799 12.5432C18.2834 12.3963 18.2855 12.2491 18.2855 12.1015C18.2855 11.8685 18.0967 11.6797 17.8637 11.6797H0.421815C0.188889 11.6797 0 11.8685 0 12.1015C0 14.6287 0.515542 17.0761 1.49112 19.179C2.50693 21.3688 3.95207 23.0182 5.67012 23.9488C5.73187 23.9823 5.80097 23.9998 5.87107 23.9998H12.4144C12.4845 23.9998 12.5535 23.9823 12.6154 23.9488C13.7241 23.3483 14.7181 22.4469 15.5575 21.2957C18.7849 21.2545 21.0254 19.2929 21.7467 17.4678C22.2271 16.2523 22.1341 15.0135 21.4916 14.0688ZM4.20128 18.953C4.12653 18.9877 4.04807 19.0041 3.9708 19.0041C3.76394 19.0041 3.56585 18.8865 3.47305 18.6865C2.91871 17.4922 2.62571 16.1054 2.62571 14.6759C2.62571 14.3731 2.87121 14.1276 3.17407 14.1276C3.47694 14.1276 3.72243 14.3731 3.72243 14.6759C3.72243 15.9469 3.98024 17.1741 4.46786 18.2247C4.59525 18.4994 4.47596 18.8255 4.20128 18.953ZM6.68408 21.2643C6.58478 21.4476 6.39615 21.5517 6.20144 21.5517C6.11328 21.5517 6.02377 21.5303 5.94076 21.4854C5.41981 21.2033 4.94063 20.8126 4.51646 20.3243C4.31787 20.0956 4.34225 19.7493 4.57087 19.5507C4.79949 19.3521 5.1458 19.3765 5.34448 19.6051C5.68201 19.9937 6.05836 20.3018 6.46313 20.5211C6.72938 20.6653 6.82834 20.9981 6.68408 21.2643ZM19.8811 16.7302C19.4865 17.7289 18.3657 18.7371 16.8184 19.125C17.4606 17.7256 17.8996 16.1756 18.1201 14.5521C18.1773 14.5506 18.2334 14.5494 18.2872 14.5487L18.3271 14.5485C19.0039 14.5485 19.5526 14.7848 19.8328 15.1968C20.0997 15.5892 20.1169 16.1339 19.8811 16.7302Z" fill="white"/>
</svg>
