<svg width="100" height="100" viewBox="0 0 100 100" fill="none" xmlns="http://www.w3.org/2000/svg">
<path d="M72.2499 43.9301L72.3699 43.7801C72.4224 43.6967 72.4692 43.6098 72.5099 43.5201L72.5899 43.3601C72.5899 43.2601 72.6599 43.1601 72.6899 43.0601C72.7199 42.9601 72.6899 42.9501 72.6899 42.8901C72.7046 42.7304 72.7046 42.5697 72.6899 42.4101V42.3501C72.6997 42.2102 72.6997 42.0699 72.6899 41.9301C72.6746 41.8489 72.6546 41.7688 72.6299 41.6901C72.6299 41.6201 72.6299 41.5501 72.5599 41.4801C72.4899 41.4101 72.4799 41.3101 72.4299 41.2201L72.3399 41.0501C72.2799 40.9601 72.2099 40.8801 72.1399 40.7901L72.0599 40.6901L61.7699 29.8001C61.544 29.5617 61.2734 29.3702 60.9735 29.2364C60.6736 29.1026 60.3503 29.0293 60.022 29.0204C59.6938 29.0116 59.367 29.0675 59.0604 29.185C58.7537 29.3025 58.4732 29.4792 58.2349 29.7051C57.7535 30.1612 57.4731 30.7899 57.4552 31.4529C57.4464 31.7811 57.5023 32.1079 57.6198 32.4146C57.7373 32.7212 57.914 33.0017 58.1399 33.2401L64.4599 39.9101H26.7699C23.4589 39.9127 20.2841 41.2278 17.941 43.5671C15.5979 45.9064 14.2778 49.0791 14.2699 52.3901V72.4701C14.2591 73.1288 14.5099 73.7649 14.9672 74.2391C15.4246 74.7133 16.0512 74.9869 16.7099 75.0001C17.3712 75.0001 18.0055 74.738 18.4741 74.2714C18.9427 73.8047 19.2072 73.1714 19.2099 72.5101L19.2599 52.4201C19.2651 50.4335 20.0573 48.5299 21.463 47.1261C22.8687 45.7223 24.7733 44.9327 26.7599 44.9301H64.4599L58.1399 51.5901C57.8027 51.9467 57.5785 52.3951 57.4953 52.8788C57.4122 53.3625 57.4739 53.8601 57.6726 54.3088C57.8714 54.7576 58.1983 55.1376 58.6124 55.4012C59.0264 55.6647 59.5091 55.8 59.9999 55.7901C60.6708 55.77 61.3068 55.4861 61.7699 55.0001L72.0999 44.1301L72.2499 43.9301Z" fill="#8696A0"/>
<path d="M85.0908 40.6901L74.7608 29.8001C74.535 29.5617 74.2643 29.3702 73.9645 29.2364C73.6646 29.1026 73.3413 29.0293 73.013 29.0204C72.6848 29.0116 72.358 29.0675 72.0513 29.185C71.7447 29.3025 71.4642 29.4792 71.2258 29.7051C70.7445 30.1612 70.464 30.7899 70.4462 31.4529C70.4374 31.7811 70.4933 32.1079 70.6108 32.4146C70.7282 32.7212 70.905 33.0017 71.1308 33.2401L79.8308 42.4101L71.1308 51.5701C70.7128 52.0575 70.4984 52.6872 70.5321 53.3285C70.5658 53.9697 70.8449 54.5735 71.3117 55.0145C71.7784 55.4555 72.397 55.7 73.0391 55.6974C73.6813 55.6947 74.2978 55.445 74.7608 55.0001L85.0908 44.1301C85.5289 43.6645 85.7728 43.0493 85.7728 42.4101C85.7728 41.7708 85.5289 41.1556 85.0908 40.6901Z" fill="#8696A0"/>
</svg>
