<svg width="22" height="22" viewBox="0 0 22 22" fill="none" xmlns="http://www.w3.org/2000/svg">
<path d="M17.5771 10.0835L14.025 6.53148C13.8417 6.34814 13.75 6.13044 13.75 5.87835C13.75 5.62627 13.8417 5.40856 14.025 5.22523C14.2083 5.05718 14.4261 4.97314 14.6781 4.97314C14.9302 4.97314 15.1403 5.05718 15.3083 5.22523L19.525 9.44185C19.6167 9.53352 19.6816 9.63288 19.7198 9.73977C19.758 9.84674 19.7771 9.96132 19.7771 10.0835C19.7771 10.2058 19.758 10.3204 19.7198 10.4273C19.6816 10.5342 19.6167 10.6335 19.525 10.7252L15.3083 14.9418C15.125 15.1252 14.9112 15.2131 14.6667 15.2054C14.4222 15.1978 14.2083 15.11 14.025 14.9418C13.8417 14.7585 13.7462 14.5447 13.7386 14.3002C13.7309 14.0558 13.8188 13.8418 14.0021 13.6585L17.5771 10.0835ZM12.0771 11.0002H6.41668C5.65279 11.0002 5.00348 11.2676 4.46876 11.8023C3.93404 12.337 3.66668 12.9863 3.66668 13.7502V16.5002C3.66668 16.76 3.57883 16.9777 3.40314 17.1533C3.22744 17.329 3.00973 17.4168 2.75001 17.4168C2.49029 17.4168 2.27258 17.329 2.09689 17.1533C1.92119 16.9777 1.83334 16.76 1.83334 16.5002V13.7502C1.83334 12.4822 2.28022 11.4012 3.17397 10.5075C4.06772 9.61372 5.14862 9.16685 6.41668 9.16685H12.0771L9.44168 6.53148C9.25834 6.34814 9.16668 6.13044 9.16668 5.87835C9.16668 5.62627 9.25834 5.40856 9.44168 5.22523C9.62501 5.05718 9.84272 4.97314 10.0948 4.97314C10.3469 4.97314 10.557 5.05718 10.725 5.22523L14.9417 9.44185C15.0333 9.53352 15.0982 9.63288 15.1365 9.73977C15.1747 9.84674 15.1938 9.96132 15.1938 10.0835C15.1938 10.2058 15.1747 10.3204 15.1365 10.4273C15.0982 10.5342 15.0333 10.6335 14.9417 10.7252L10.725 14.9418C10.5417 15.1252 10.3278 15.2131 10.0833 15.2054C9.83887 15.1978 9.62501 15.11 9.44168 14.9418C9.25834 14.7585 9.16285 14.5447 9.15522 14.3002C9.14758 14.0558 9.23543 13.8418 9.41876 13.6585L12.0771 11.0002Z" fill="white"/>
</svg>
