<svg width="46" height="46" viewBox="0 0 46 46" fill="none" xmlns="http://www.w3.org/2000/svg">
<circle cx="23" cy="23" r="23" fill="#0B7AB2" fill-opacity="0.27"/>
<path d="M25.8968 15.2611C27.1914 16.0729 28.0993 17.4465 28.2645 19.0409C28.7925 19.2876 29.3785 19.4295 29.9998 19.4295C32.268 19.4295 34.1064 17.5911 34.1064 15.3233C34.1064 13.0552 32.268 11.2168 29.9998 11.2168C27.7533 11.2175 25.931 13.023 25.8968 15.2611ZM23.2065 23.6692C25.4747 23.6692 27.313 21.8305 27.313 19.5626C27.313 17.2948 25.4743 15.4565 23.2065 15.4565C20.9387 15.4565 19.0993 17.2952 19.0993 19.563C19.0993 21.8308 20.9387 23.6692 23.2065 23.6692ZM24.9484 23.9491H21.4639C18.5647 23.9491 16.206 26.3081 16.206 29.2073V33.4686L16.2168 33.5354L16.5103 33.6273C19.2771 34.4918 21.6809 34.7801 23.6594 34.7801C27.5237 34.7801 29.7636 33.6783 29.9016 33.6081L30.1759 33.4693H30.2053V29.2073C30.2063 26.3081 27.8477 23.9491 24.9484 23.9491ZM31.7424 19.7097H28.2848C28.2474 21.0931 27.6569 22.3389 26.7229 23.2348C29.2999 24.0011 31.1854 26.3909 31.1854 29.2136V30.5268C34.5994 30.4017 36.5667 29.4341 36.6963 29.3691L36.9706 29.23H37V24.9673C37 22.0684 34.6413 19.7097 31.7424 19.7097ZM16.0009 19.4302C16.8042 19.4302 17.5517 19.1957 18.1848 18.7963C18.3861 17.4835 19.0899 16.3363 20.0952 15.555C20.0994 15.4781 20.1067 15.4019 20.1067 15.3244C20.1067 13.0562 18.268 11.2178 16.0009 11.2178C13.7324 11.2178 11.8943 13.0562 11.8943 15.3244C11.8943 17.5915 13.7324 19.4302 16.0009 19.4302ZM19.6888 23.2348C18.7593 22.3434 18.1708 21.1043 18.1279 19.7293C17.9996 19.7199 17.8728 19.7097 17.7421 19.7097H14.2579C11.3587 19.7097 9 22.0684 9 24.9673V29.2293L9.01083 29.295L9.30436 29.3876C11.5239 30.0805 13.5049 30.3999 15.2255 30.5006V29.2136C15.2262 26.3909 17.111 24.0018 19.6888 23.2348Z" fill="#0B7AB2"/>
</svg>
