<svg width="77" height="65" viewBox="0 0 77 65" fill="none" xmlns="http://www.w3.org/2000/svg">
<path d="M46.7612 11.1259C50.2752 13.3292 52.7393 17.0576 53.1879 21.3854C54.621 22.055 56.2116 22.4401 57.898 22.4401C64.0544 22.4401 69.0443 17.4502 69.0443 11.2947C69.0443 5.13828 64.0544 0.148438 57.898 0.148438C51.8003 0.150334 46.8541 5.05102 46.7612 11.1259ZM39.459 33.9477C45.6154 33.9477 50.6053 28.9569 50.6053 22.8014C50.6053 16.6459 45.6145 11.6561 39.459 11.6561C33.3035 11.6561 28.3108 16.6469 28.3108 22.8024C28.3108 28.9579 33.3035 33.9477 39.459 33.9477ZM44.187 34.7074H34.729C26.8596 34.7074 20.4576 41.1105 20.4576 48.9798V60.5463L20.487 60.7274L21.2837 60.9769C28.7936 63.3234 35.318 64.1059 40.6882 64.1059C51.1772 64.1059 57.2568 61.1154 57.6315 60.9247L58.376 60.5482H58.4557V48.9798C58.4585 41.1105 52.0564 34.7074 44.187 34.7074ZM62.6279 23.2007H53.2429C53.1414 26.9557 51.5386 30.3369 49.0033 32.7688C55.9982 34.8488 61.1161 41.3353 61.1161 48.9969V52.5612C70.3825 52.2217 75.7224 49.5954 76.0742 49.419L76.8188 49.0415H76.8984V37.4712C76.8984 29.6028 70.4963 23.2007 62.6279 23.2007ZM19.9008 22.442C22.0813 22.442 24.1101 21.8055 25.8287 20.7215C26.375 17.1581 28.2852 14.0443 31.0139 11.9236C31.0253 11.7149 31.0452 11.5081 31.0452 11.2976C31.0452 5.14113 26.0544 0.151283 19.9008 0.151283C13.7434 0.151283 8.75452 5.14113 8.75452 11.2976C8.75452 17.4512 13.7434 22.442 19.9008 22.442ZM29.9108 32.7688C27.3879 30.3493 25.7907 26.986 25.6741 23.2538C25.326 23.2282 24.9817 23.2007 24.627 23.2007H15.1699C7.30053 23.2007 0.898438 29.6028 0.898438 37.4712V49.0396L0.92784 49.2179L1.72455 49.4692C7.74916 51.35 13.126 52.2169 17.7962 52.4901V48.9969C17.7981 41.3353 22.9141 34.8506 29.9108 32.7688Z" fill="#0B7AB2" fill-opacity="0.4"/>
</svg>
