<svg width="80" height="40" viewBox="0 0 80 40" fill="none" xmlns="http://www.w3.org/2000/svg">
<g clip-path="url(#clip0_14274_7254)">
<path d="M47 26.5006H33C30.243 26.5006 28 24.2576 28 21.5006V12.2246C28 10.5596 28.824 9.00959 30.204 8.07959L37.203 3.35559C38.902 2.20959 41.098 2.20959 42.797 3.35559L49.797 8.07959C51.176 9.00959 52 10.5586 52 12.2246V21.5006C52 24.2576 49.757 26.5006 47 26.5006Z" fill="#0B7AB2"/>
</g>
<path d="M31.14 30.53V37.5H30.23V34.34H26.68V37.5H25.77V30.53H26.68V33.59H30.23V30.53H31.14ZM35.0838 37.59C34.5705 37.59 34.1038 37.4733 33.6838 37.24C33.2705 37.0067 32.9438 36.6767 32.7038 36.25C32.4705 35.8167 32.3538 35.3167 32.3538 34.75C32.3538 34.19 32.4738 33.6967 32.7138 33.27C32.9605 32.8367 33.2938 32.5067 33.7138 32.28C34.1338 32.0467 34.6038 31.93 35.1238 31.93C35.6438 31.93 36.1138 32.0467 36.5338 32.28C36.9538 32.5067 37.2838 32.8333 37.5238 33.26C37.7705 33.6867 37.8938 34.1833 37.8938 34.75C37.8938 35.3167 37.7672 35.8167 37.5138 36.25C37.2672 36.6767 36.9305 37.0067 36.5038 37.24C36.0772 37.4733 35.6038 37.59 35.0838 37.59ZM35.0838 36.79C35.4105 36.79 35.7172 36.7133 36.0038 36.56C36.2905 36.4067 36.5205 36.1767 36.6938 35.87C36.8738 35.5633 36.9638 35.19 36.9638 34.75C36.9638 34.31 36.8772 33.9367 36.7038 33.63C36.5305 33.3233 36.3038 33.0967 36.0238 32.95C35.7438 32.7967 35.4405 32.72 35.1138 32.72C34.7805 32.72 34.4738 32.7967 34.1938 32.95C33.9205 33.0967 33.7005 33.3233 33.5338 33.63C33.3672 33.9367 33.2838 34.31 33.2838 34.75C33.2838 35.1967 33.3638 35.5733 33.5238 35.88C33.6905 36.1867 33.9105 36.4167 34.1838 36.57C34.4572 36.7167 34.7572 36.79 35.0838 36.79ZM45.6803 31.92C46.107 31.92 46.487 32.01 46.8203 32.19C47.1536 32.3633 47.417 32.6267 47.6103 32.98C47.8036 33.3333 47.9003 33.7633 47.9003 34.27V37.5H47.0003V34.4C47.0003 33.8533 46.8636 33.4367 46.5903 33.15C46.3236 32.8567 45.9603 32.71 45.5003 32.71C45.027 32.71 44.6503 32.8633 44.3703 33.17C44.0903 33.47 43.9503 33.9067 43.9503 34.48V37.5H43.0503V34.4C43.0503 33.8533 42.9136 33.4367 42.6403 33.15C42.3736 32.8567 42.0103 32.71 41.5503 32.71C41.077 32.71 40.7003 32.8633 40.4203 33.17C40.1403 33.47 40.0003 33.9067 40.0003 34.48V37.5H39.0903V32.02H40.0003V32.81C40.1803 32.5233 40.4203 32.3033 40.7203 32.15C41.027 31.9967 41.3636 31.92 41.7303 31.92C42.1903 31.92 42.597 32.0233 42.9503 32.23C43.3036 32.4367 43.567 32.74 43.7403 33.14C43.8936 32.7533 44.147 32.4533 44.5003 32.24C44.8536 32.0267 45.247 31.92 45.6803 31.92ZM54.393 34.55C54.393 34.7233 54.383 34.9067 54.363 35.1H49.983C50.0164 35.64 50.1997 36.0633 50.533 36.37C50.873 36.67 51.283 36.82 51.763 36.82C52.1564 36.82 52.483 36.73 52.743 36.55C53.0097 36.3633 53.1964 36.1167 53.303 35.81H54.283C54.1364 36.3367 53.843 36.7667 53.403 37.1C52.963 37.4267 52.4164 37.59 51.763 37.59C51.243 37.59 50.7764 37.4733 50.363 37.24C49.9564 37.0067 49.6364 36.6767 49.403 36.25C49.1697 35.8167 49.053 35.3167 49.053 34.75C49.053 34.1833 49.1664 33.6867 49.393 33.26C49.6197 32.8333 49.9364 32.5067 50.343 32.28C50.7564 32.0467 51.2297 31.93 51.763 31.93C52.283 31.93 52.743 32.0433 53.143 32.27C53.543 32.4967 53.8497 32.81 54.063 33.21C54.283 33.6033 54.393 34.05 54.393 34.55ZM53.453 34.36C53.453 34.0133 53.3764 33.7167 53.223 33.47C53.0697 33.2167 52.8597 33.0267 52.593 32.9C52.333 32.7667 52.043 32.7 51.723 32.7C51.263 32.7 50.8697 32.8467 50.543 33.14C50.223 33.4333 50.0397 33.84 49.993 34.36H53.453Z" fill="#0B7AB2"/>
<defs>
<clipPath id="clip0_14274_7254">
<rect width="24" height="24" fill="white" transform="translate(28 2.5)"/>
</clipPath>
</defs>
</svg>
