<svg width="10" height="14" viewBox="0 0 10 14" fill="none" xmlns="http://www.w3.org/2000/svg">
<path d="M4.02622 8.51522L4.01372 8.52522C4.01372 8.95522 3.97122 9.38772 3.84872 9.80272C3.72897 10.225 3.52372 10.6227 3.41647 11.0502C3.21147 11.8852 3.44647 12.775 3.85397 13.5102C2.96897 13.2102 2.12397 12.7775 1.48897 12.0777C0.933723 11.4652 0.541473 10.7327 0.363973 9.92547C0.131223 8.86547 0.291473 7.81772 0.743973 6.84297C0.958973 6.38272 1.20147 5.93272 1.35897 5.44797C1.51397 4.96797 1.60897 4.46797 1.69672 3.97297C2.01922 4.46047 2.25647 4.99822 2.39672 5.56547C3.49422 4.09547 4.09422 2.31297 4.10922 0.480469C5.79672 1.44522 6.96922 3.10797 7.31922 5.02047C7.76947 4.42047 7.83447 3.65797 7.77672 2.93047C7.93922 3.12322 8.10197 3.31797 8.24672 3.52297C9.38697 5.14047 10.012 7.18297 9.63697 9.15797C9.44947 10.1455 9.00672 11.078 8.35447 11.8402C7.72197 12.5802 6.88447 13.1155 6.00947 13.5205C6.21947 13.1102 6.39697 12.6827 6.53672 12.2452C7.10922 10.4527 6.45922 8.38547 5.05922 7.15772C5.25197 7.68022 5.33197 8.24522 5.26197 8.80022C5.18697 9.38522 4.92197 9.93247 4.68422 10.465C4.55622 9.76747 4.46872 9.09272 4.02622 8.51522Z" fill="#F2591F"/>
</svg>
