<svg width="16" height="16" viewBox="0 0 16 16" fill="none" xmlns="http://www.w3.org/2000/svg">
<path d="M7.02622 9.51522L7.01372 9.52522C7.01372 9.95522 6.97122 10.3877 6.84872 10.8027C6.72897 11.225 6.52372 11.6227 6.41647 12.0502C6.21147 12.8852 6.44647 13.775 6.85397 14.5102C5.96897 14.2102 5.12397 13.7775 4.48897 13.0777C3.93372 12.4652 3.54147 11.7327 3.36397 10.9255C3.13122 9.86547 3.29147 8.81772 3.74397 7.84297C3.95897 7.38272 4.20147 6.93272 4.35897 6.44797C4.51397 5.96797 4.60897 5.46797 4.69672 4.97297C5.01922 5.46047 5.25647 5.99822 5.39672 6.56547C6.49422 5.09547 7.09422 3.31297 7.10922 1.48047C8.79672 2.44522 9.96922 4.10797 10.3192 6.02047C10.7695 5.42047 10.8345 4.65797 10.7767 3.93047C10.9392 4.12322 11.102 4.31797 11.2467 4.52297C12.387 6.14047 13.012 8.18297 12.637 10.158C12.4495 11.1455 12.0067 12.078 11.3545 12.8402C10.722 13.5802 9.88447 14.1155 9.00947 14.5205C9.21947 14.1102 9.39697 13.6827 9.53672 13.2452C10.1092 11.4527 9.45922 9.38547 8.05922 8.15772C8.25197 8.68022 8.33197 9.24522 8.26197 9.80022C8.18697 10.3852 7.92197 10.9325 7.68422 11.465C7.55622 10.7675 7.46872 10.0927 7.02622 9.51522Z" fill="#6B6D81"/>
</svg>
