<svg width="46" height="47" viewBox="0 0 46 47" fill="none" xmlns="http://www.w3.org/2000/svg">
<circle cx="23" cy="23.5" r="23" fill="#0B7AB2" fill-opacity="0.27"/>
<g clip-path="url(#clip0_7705_13870)">
<path d="M22.7988 22.9877C24.6517 22.9877 26.2563 22.3231 27.5673 21.0119C28.8783 19.7009 29.5428 18.0968 29.5428 16.2436C29.5428 14.3911 28.8783 12.7868 27.567 11.4754C26.2558 10.1646 24.6515 9.5 22.7988 9.5C20.9456 9.5 19.3415 10.1646 18.0305 11.4756C16.7195 12.7866 16.0547 14.3909 16.0547 16.2436C16.0547 18.0968 16.7195 19.7011 18.0307 21.0121C19.3419 22.3229 20.9462 22.9877 22.7988 22.9877Z" fill="#0B7AB2"/>
<path d="M34.6008 31.0309C34.563 30.4853 34.4865 29.8901 34.3739 29.2617C34.2603 28.6285 34.114 28.0299 33.9388 27.4828C33.7578 26.9174 33.5117 26.359 33.2076 25.8238C32.8918 25.2684 32.521 24.7848 32.1048 24.3868C31.6697 23.9705 31.1369 23.6357 30.5208 23.3915C29.9069 23.1487 29.2265 23.0256 28.4987 23.0256C28.2128 23.0256 27.9364 23.1429 27.4026 23.4904C27.074 23.7047 26.6897 23.9525 26.2607 24.2266C25.894 24.4603 25.3971 24.6793 24.7833 24.8775C24.1845 25.0713 23.5766 25.1695 22.9765 25.1695C22.3764 25.1695 21.7687 25.0713 21.1693 24.8775C20.5562 24.6795 20.0593 24.4605 19.6929 24.2268C19.268 23.9553 18.8835 23.7075 18.55 23.4902C18.0168 23.1427 17.7402 23.0254 17.4543 23.0254C16.7263 23.0254 16.0461 23.1487 15.4324 23.3918C14.8167 23.6355 14.2838 23.9702 13.8482 24.387C13.4323 24.7852 13.0612 25.2686 12.7459 25.8238C12.4419 26.359 12.1958 26.9172 12.0146 27.483C11.8397 28.0301 11.6934 28.6285 11.5797 29.2617C11.4671 29.8893 11.3907 30.4847 11.3528 31.0315C11.3157 31.5673 11.2969 32.1233 11.2969 32.685C11.2969 34.1466 11.7615 35.3298 12.6777 36.2025C13.5826 37.0636 14.78 37.5004 16.2361 37.5004H29.7182C31.1743 37.5004 32.3712 37.0638 33.2763 36.2025C34.1928 35.3305 34.6574 34.147 34.6574 32.6847C34.6572 32.1206 34.6382 31.5641 34.6008 31.0309Z" fill="#0B7AB2"/>
</g>
<defs>
<clipPath id="clip0_7705_13870">
<rect width="28" height="28" fill="white" transform="translate(9 9.5)"/>
</clipPath>
</defs>
</svg>
