<svg width="6" height="12" viewBox="0 0 6 12" fill="none" xmlns="http://www.w3.org/2000/svg">
<path d="M5.49293 10.705L5.32526 11.3904C4.82225 11.5889 4.42045 11.7401 4.12125 11.8439C3.82172 11.9482 3.47369 12 3.07716 12C2.46822 12 1.99457 11.8508 1.65676 11.5545C1.31895 11.2571 1.14999 10.8801 1.14999 10.4228C1.14999 10.2458 1.16225 10.0637 1.18774 9.87816C1.21344 9.69243 1.25431 9.48324 1.31024 9.24943L1.93886 7.02446C1.99479 6.8114 2.04232 6.60953 2.0804 6.41863C2.11901 6.22892 2.13761 6.05437 2.13761 5.89724C2.13761 5.61309 2.07878 5.41434 1.96166 5.3026C1.84454 5.19118 1.62105 5.13461 1.28927 5.13461C1.12676 5.13461 0.959735 5.16063 0.789485 5.21097C0.618482 5.26151 0.472323 5.31034 0.349609 5.35573L0.517708 4.66978C0.929514 4.50211 1.32314 4.35853 1.69967 4.23937C2.0762 4.11988 2.43197 4.06008 2.7685 4.06008C3.37324 4.06008 3.8399 4.20624 4.1676 4.49856C4.4953 4.79109 4.6591 5.17031 4.6591 5.63761C4.6591 5.7343 4.64834 5.90466 4.62522 6.14815C4.60264 6.39218 4.56058 6.61577 4.49928 6.81915L3.87335 9.0352C3.82205 9.21319 3.77591 9.41667 3.73579 9.64564C3.69438 9.87311 3.6746 10.0469 3.6746 10.1635C3.6746 10.4577 3.7402 10.6586 3.87173 10.7654C4.00423 10.8722 4.23245 10.9254 4.5566 10.9254C4.70879 10.9254 4.88194 10.8984 5.07435 10.8454C5.26621 10.7923 5.40614 10.7458 5.49293 10.705ZM5.65167 1.40136C5.65167 1.78746 5.50616 2.11721 5.21373 2.38834C4.92206 2.66044 4.57059 2.7966 4.15943 2.7966C3.74698 2.7966 3.39465 2.66044 3.09964 2.38834C2.80517 2.1171 2.65761 1.78746 2.65761 1.40136C2.65761 1.01602 2.80517 0.685733 3.09964 0.41116C3.39411 0.137017 3.74708 0 4.15943 0C4.57048 0 4.92206 0.13734 5.21373 0.41116C5.50637 0.685733 5.65167 1.01612 5.65167 1.40136Z" fill="#0B7AB2"/>
</svg>
