<svg width="20" height="20" viewBox="0 0 20 20" fill="none" xmlns="http://www.w3.org/2000/svg">
<g clip-path="url(#clip0_18278_15122)">
<path fill-rule="evenodd" clip-rule="evenodd" d="M15 20H5C3.67394 19.9999 2.4022 19.4731 1.46453 18.5355C0.526861 17.5978 5.80115e-05 16.3261 0 15L0 5C5.80115e-05 3.67394 0.526861 2.4022 1.46453 1.46453C2.4022 0.526861 3.67394 5.80115e-05 5 0L15 0C16.3261 0 17.5979 0.526784 18.5355 1.46447C19.4732 2.40215 20 3.67392 20 5V15C20 16.3261 19.4732 17.5979 18.5355 18.5355C17.5979 19.4732 16.3261 20 15 20Z" fill="#546670"/>
<path fill-rule="evenodd" clip-rule="evenodd" d="M9.375 5.625H15C15.721 5.62496 16.4145 5.34802 16.9372 4.85138C17.4599 4.35474 17.7719 3.67633 17.8088 2.95625C17.8457 2.23617 17.6047 1.52942 17.1355 0.981957C16.6663 0.434491 16.0047 0.0881194 15.2875 0.014375C15.1919 0.0090625 15.0972 0 15 0H5C3.67394 5.80115e-05 2.4022 0.526861 1.46453 1.46453C0.526861 2.4022 5.80115e-05 3.67394 0 5L0 15C5.80137e-05 12.5136 0.987797 10.1291 2.74594 8.37094C4.50408 6.6128 6.88861 5.62506 9.375 5.625Z" fill="#586D78"/>
<path fill-rule="evenodd" clip-rule="evenodd" d="M15 10C14.0111 10 13.0444 10.2932 12.2222 10.8427C11.3999 11.3921 10.759 12.173 10.3806 13.0866C10.0022 14.0002 9.90315 15.0055 10.0961 15.9755C10.289 16.9454 10.7652 17.8363 11.4645 18.5355C12.1637 19.2348 13.0546 19.711 14.0246 19.9039C14.9945 20.0969 15.9998 19.9978 16.9134 19.6194C17.8271 19.241 18.6079 18.6001 19.1574 17.7779C19.7068 16.9556 20 15.9889 20 15V5C20 6.32608 19.4732 7.59785 18.5355 8.53553C17.5979 9.47322 16.3261 10 15 10Z" fill="#505D63"/>
<path d="M6.78477 8.63205C7.80499 8.63205 8.63205 7.80499 8.63205 6.78477C8.63205 5.76455 7.80499 4.9375 6.78477 4.9375C5.76455 4.9375 4.9375 5.76455 4.9375 6.78477C4.9375 7.80499 5.76455 8.63205 6.78477 8.63205Z" fill="white"/>
<path d="M6.78477 15.0617C7.80499 15.0617 8.63205 14.2347 8.63205 13.2145C8.63205 12.1942 7.80499 11.3672 6.78477 11.3672C5.76455 11.3672 4.9375 12.1942 4.9375 13.2145C4.9375 14.2347 5.76455 15.0617 6.78477 15.0617Z" fill="white"/>
<path d="M13.2145 8.63205C14.2347 8.63205 15.0617 7.80499 15.0617 6.78477C15.0617 5.76455 14.2347 4.9375 13.2145 4.9375C12.1942 4.9375 11.3672 5.76455 11.3672 6.78477C11.3672 7.80499 12.1942 8.63205 13.2145 8.63205Z" fill="white"/>
<path d="M13.2145 15.0617C14.2347 15.0617 15.0617 14.2347 15.0617 13.2145C15.0617 12.1942 14.2347 11.3672 13.2145 11.3672C12.1942 11.3672 11.3672 12.1942 11.3672 13.2145C11.3672 14.2347 12.1942 15.0617 13.2145 15.0617Z" fill="white"/>
</g>
<defs>
<clipPath id="clip0_18278_15122">
<rect width="20" height="20" fill="white"/>
</clipPath>
</defs>
</svg>
