<svg width="10" height="10" viewBox="0 0 10 10" fill="none" xmlns="http://www.w3.org/2000/svg">
<g clip-path="url(#clip0_2494_21058)">
<path d="M5 10C7.76142 10 10 7.76142 10 5C10 2.23858 7.76142 0 5 0C2.23858 0 0 2.23858 0 5C0 7.76142 2.23858 10 5 10Z" fill="#0C7500"/>
<path d="M3.72186 7.28553C3.72117 7.37011 3.68713 7.45099 3.62714 7.51062C3.56715 7.57024 3.48605 7.60378 3.40147 7.60395H2.52384C2.43932 7.60378 2.35829 7.57022 2.2984 7.51058C2.23852 7.45093 2.20462 7.37005 2.2041 7.28553V4.78553C2.20462 4.70095 2.23849 4.61999 2.29836 4.56025C2.35823 4.5005 2.43926 4.46679 2.52384 4.46645H3.40147C3.48616 4.46662 3.56736 4.50025 3.62737 4.56002C3.68738 4.61978 3.72134 4.70084 3.72186 4.78553V7.28553ZM7.45805 5.32434C7.52191 5.37562 7.57004 5.44383 7.59694 5.52118C7.62384 5.59853 7.62843 5.68188 7.61017 5.76172C7.59191 5.84155 7.55155 5.91463 7.4937 5.97259C7.43584 6.03055 7.36284 6.07106 7.28305 6.08948C7.34715 6.14052 7.39555 6.20862 7.42268 6.28594C7.44982 6.36326 7.45459 6.44667 7.43645 6.52658C7.41831 6.60649 7.378 6.67966 7.32014 6.73769C7.26228 6.79571 7.18922 6.83624 7.10937 6.85461C7.17958 6.9112 7.23057 6.98813 7.25532 7.07485C7.28007 7.16157 7.27738 7.25382 7.24761 7.33895C7.21784 7.42408 7.16245 7.4979 7.08905 7.5503C7.01565 7.60269 6.92784 7.63109 6.83766 7.63158L4.36265 7.60395C4.27831 7.6036 4.19752 7.56994 4.13788 7.5103C4.07824 7.45066 4.04458 7.36987 4.04423 7.28553V4.78553C4.04423 4.39079 5.30673 3.66184 5.3745 3.27237C5.4166 3.01448 5.36068 2.36842 5.53437 2.36842C5.8291 2.36842 6.20739 2.48158 6.20739 3.13619C6.20739 3.71382 5.8291 4.46316 5.8291 4.46316H7.36002C7.46714 4.46319 7.57051 4.50263 7.65042 4.57398C7.73032 4.64532 7.78118 4.74358 7.79329 4.85001C7.80541 4.95645 7.77793 5.06362 7.71611 5.1511C7.65428 5.23857 7.56242 5.30024 7.45805 5.32434Z" fill="white"/>
</g>
<defs>
<clipPath id="clip0_2494_21058">
<rect width="10" height="10" fill="white"/>
</clipPath>
</defs>
</svg>
