<svg width="360" height="680" viewBox="0 0 360 680" fill="none" xmlns="http://www.w3.org/2000/svg">
<g opacity="0.3" clip-path="url(#clip0_3579_5387)">
<g opacity="0.5">
<path d="M51.9587 680.001V669.199L115.706 632.308L179.454 669.199V680.001H180.663V668.499L116.008 631.085L115.706 630.91L51.0525 668.325L50.75 668.499V680.001H51.9587Z" fill="#2196F3"/>
<path d="M-83.5495 679.999V668.664L-18.8797 631.24L45.7905 668.664V679.999H46.9988V667.965L-18.578 630.017L-18.8797 629.842L-84.4557 667.79L-84.7578 667.965V679.999H-83.5495Z" fill="#2196F3"/>
<path d="M311.402 680L303.387 675.361V619.99L351.234 592.3L399.081 619.99V675.361L391.066 680H393.482L399.987 676.235L400.289 676.061V619.29L351.234 590.902L302.481 619.116L302.18 619.29V676.061L308.986 680H311.402Z" fill="#2196F3"/>
<path d="M281.761 680L254.919 664.467V630.885L283.937 614.091L312.956 630.885V664.467L286.112 680H288.528L313.861 665.341L314.163 665.167V630.185L283.937 612.693L254.013 630.011L253.711 630.185V665.167L279.346 680H281.761Z" fill="#2196F3"/>
<path d="M149.355 678.357L122.844 663.017V632.334L123.146 632.16L149.355 616.992L175.867 632.334V663.017L175.565 663.191L149.355 678.357ZM124.052 662.317L149.355 676.959L174.659 662.317V633.033L149.355 618.39L124.052 633.033V662.317Z" fill="#2196F3"/>
<path d="M57.3312 679.999L41.7626 670.99V624.36L82.0562 601.043L122.349 624.36V670.99L106.78 679.999H109.196L123.255 671.864L123.557 671.69V623.66L82.0562 599.645L40.8572 623.486L40.5547 623.66V671.69L54.9153 679.999H57.3312Z" fill="#2196F3"/>
<path d="M-2.63362 679.999L-21.8624 668.871V626.478L14.7706 605.279L51.4024 626.478V668.871L32.1733 679.999H34.5892L52.3083 669.745L52.6108 669.571V625.778L14.7706 603.881L-22.7682 625.604L-23.0703 625.778V669.571L-5.04909 679.999H-2.63362Z" fill="#2196F3"/>
<path d="M317.588 637.405L275.992 613.337V565.198L276.294 565.024L317.588 541.127L359.183 565.198V613.337L358.881 613.511L317.588 637.405ZM277.2 612.637L317.586 636.008L357.975 612.637V565.898L317.588 542.525L277.2 565.898V612.637Z" fill="#2196F3"/>
<path d="M82.0624 565.837L51.8359 548.347V513.363L52.1384 513.189L82.0628 495.875L112.289 513.363V548.347L111.987 548.521L82.0624 565.837ZM53.0443 547.647L82.0612 564.439L111.081 547.647V514.063L82.0624 497.273L53.0443 514.063V547.647Z" fill="#2196F3"/>
<path d="M283.935 464.422L240.398 439.23V388.84L240.701 388.666L283.935 363.65L327.472 388.84V439.23L327.17 439.404L283.935 464.422ZM241.606 438.53L283.937 463.022L326.265 438.53V389.54L283.935 365.049L241.606 389.54V438.53Z" fill="#2196F3"/>
<path d="M82.0626 432.897L65.7656 423.469V404.607L82.0626 395.178L98.3596 404.607V423.469L82.0626 432.897ZM66.974 422.769L82.0626 431.499L97.1509 422.769V405.306L82.0626 396.575L66.974 405.306V422.769Z" fill="#2196F3"/>
<path d="M-53.1276 477.28V476.579L-106.867 445.486V382.588L-106.565 382.414L-52.523 351.145L1.82108 382.588V445.486L1.51859 445.66L-53.1276 477.28ZM-105.659 444.786L-52.5214 475.531L0.611946 444.786V383.287L-52.5234 352.543L-105.659 383.287V444.786Z" fill="#2196F3"/>
<path d="M250.291 399.245L212.602 377.437V333.817L250.291 312.01L287.979 333.817V377.437L287.677 377.611L250.291 399.245ZM213.81 376.737L250.291 397.846L286.771 376.737V334.515L250.291 313.407L213.81 334.515V376.737Z" fill="#2196F3"/>
<path d="M48.4107 386.166L22.0234 370.897V340.357L22.3259 340.183L48.4107 325.09L74.7984 340.357V370.897L74.4959 371.071L48.4107 386.166ZM23.2322 370.197L48.4119 384.767L73.5905 370.197V341.056L48.4111 326.487L23.2322 341.056V370.197Z" fill="#2196F3"/>
<path d="M351.233 342.027L312.516 319.623V274.811L351.233 252.408L389.952 274.811V319.623L351.233 342.027ZM313.723 318.924L351.234 340.628L388.745 318.924V275.51L351.233 253.806L313.723 275.51V318.924Z" fill="#2196F3"/>
<path d="M216.645 359.245L163.047 328.233V266.201L216.645 235.189L270.241 266.201V328.233L216.645 359.245ZM164.255 327.534L216.646 357.847L269.034 327.534V266.9L216.645 236.587L164.255 266.9V327.534Z" fill="#2196F3"/>
<path d="M14.7655 346.918L-28.1797 322.069V272.366L14.7655 247.518L57.71 272.366V322.069L14.7655 346.918ZM-26.9709 321.37L14.7663 345.519L56.5016 321.37V273.065L14.7655 248.916L-26.9709 273.065V321.37Z" fill="#2196F3"/>
<path d="M384.876 271.502L356.625 255.155V222.458L384.876 206.109L413.127 222.458V255.155L384.876 271.502ZM357.833 254.456L384.876 270.103L411.919 254.456V223.157L384.876 207.507L357.833 223.157V254.456Z" fill="#2196F3"/>
<path d="M317.587 272.153L288.773 255.481V222.133L317.587 205.459L346.399 222.133V255.481L317.587 272.153ZM289.981 254.782L317.587 270.755L345.191 254.782V222.832L317.587 206.857L289.981 222.832V254.782Z" fill="#2196F3"/>
<path d="M82.0575 223.672L44.6641 202.033V158.758L82.0575 137.119L119.45 158.758V202.033L82.0575 223.672ZM45.8728 201.334L82.0583 222.274L118.242 201.334V159.457L82.0575 138.517L45.8728 159.457V201.334Z" fill="#2196F3"/>
<path d="M14.7667 238.065L-35.0625 209.229V151.562L14.7667 122.727L64.5952 151.562V209.229L14.7667 238.065ZM-33.8538 208.53L14.7679 236.666L63.3873 208.53V152.261L14.7672 124.125L-33.8538 152.261V208.53Z" fill="#2196F3"/>
<path d="M182.998 205.629L110.727 163.806V80.1677L182.997 38.3457L255.268 80.1677V163.806L254.967 163.981L182.998 205.629ZM111.935 163.107L182.998 204.231L254.061 163.107V80.8669L182.998 39.7437L111.935 80.8669V163.107Z" fill="#2196F3"/>
<path d="M-18.8785 147.5L-40.9219 134.743V109.233L-18.8785 96.4766L3.16536 109.233V134.743L-18.8785 147.5ZM-39.7135 134.044L-18.8781 146.101L1.95702 134.044V109.931L-18.8785 97.8742L-39.7135 109.931V134.044Z" fill="#2196F3"/>
<path d="M351.234 95.0237L324.062 79.3001V47.8549L351.234 32.1309L378.405 47.8549V79.3001L351.234 95.0237ZM325.27 78.6013L351.234 93.6257L377.197 78.6013V48.5541L351.234 33.5293L325.27 48.5541V78.6013Z" fill="#2196F3"/>
<path d="M82.0598 106.106L45.3125 84.8416V42.3144L82.0598 21.0488L118.807 42.3144V84.8416L82.0598 106.106ZM46.5209 84.1428L82.0598 104.708L117.598 84.1428V43.0136L82.0598 22.4472L46.5209 43.0136V84.1428Z" fill="#2196F3"/>
<path d="M15.4947 0L70.0654 31.58V95.574L14.7699 127.573L-40.526 95.574V31.58L14.0454 0H11.6296L-41.7344 30.8812V96.2732L14.7699 128.971L71.2738 96.2732V30.8812L17.9106 0H15.4947Z" fill="#2196F3"/>
<path d="M349.534 0V23.6564L317.583 42.1468L285.629 23.6564V0H284.422V24.3552L317.583 43.5448L350.742 24.3552V0H349.534Z" fill="#2196F3"/>
<path d="M148.326 0V24.0436L115.704 42.9216L83.0829 24.0436V0H81.875V24.7428L115.705 44.3196L149.534 24.7428V0H148.326Z" fill="#2196F3"/>
<path d="M36.9789 0V37.4892L-18.8796 69.8136L-74.737 37.4892V0H-75.9453V38.1884L-18.8792 71.2116L38.1873 38.1884V0H36.9789Z" fill="#2196F3"/>
</g>
<g opacity="0.5">
<path d="M-14.8443 680L-17.7261 678.332V662.355L-3.92087 654.367L9.88392 662.355V678.332L7.00253 680H8.61364L10.6891 678.799V661.889L-3.92087 653.436L-18.5312 661.889V678.799L-16.4554 680H-14.8443Z" fill="#A4D7FF"/>
<path d="M142.536 0V12.8548L121.817 24.8452L101.097 12.8548V0H100.336V13.2956L121.817 25.7252L143.297 13.2956V0H142.536Z" fill="#A4D7FF"/>
<path d="M15.8798 71.467L-13.3438 54.5562V20.7362L15.8798 3.82617L45.1033 20.7362V54.5562L15.8798 71.467ZM-12.5826 54.1158L15.8798 70.587L44.3421 54.1158V21.177L15.8806 4.70657L-12.5826 21.177V54.1158Z" fill="#A4D7FF"/>
<path d="M143.004 64.2318L120.031 50.9378V24.3518L143.004 11.0586L165.976 24.3518V50.9378L143.004 64.2318ZM120.792 50.4974L143.004 63.3518L165.215 50.4974V24.7926L143.004 11.939L120.792 24.7926V50.4974Z" fill="#A4D7FF"/>
<path d="M15.8813 139.276L-8.375 125.242V97.1684L15.8813 83.1328L40.1376 97.1684V125.242L15.8813 139.276ZM-7.61378 124.802L15.8813 138.396L39.3764 124.802V97.6092L15.8825 84.0128L-7.61378 97.6092V124.802Z" fill="#A4D7FF"/>
<path d="M270.123 170.399L218.977 140.807V81.6094L269.743 52.2334V51.791L321.271 81.6094V140.807L270.123 170.399ZM219.737 140.366L270.123 169.519L320.51 140.366V82.0498L270.125 52.8922L219.737 82.0498V140.366Z" fill="#A4D7FF"/>
<path d="M121.816 169.525L103.203 158.755V137.213L121.816 126.443L140.428 137.213V158.755L121.816 169.525ZM103.964 158.315L121.816 168.644L139.667 158.315V137.654L121.815 127.324L103.964 137.654V158.315Z" fill="#A4D7FF"/>
<path d="M333.681 163.077L320.641 155.531V140.438L333.681 132.893L346.722 140.438V155.531L333.681 163.077ZM321.402 155.091L333.681 162.197L345.961 155.091V140.879L333.681 133.773L321.402 140.879V155.091Z" fill="#A4D7FF"/>
<path d="M143.001 260.975L142.811 260.865L77.1484 222.873V146.656L77.3386 146.546L143.382 108.332V108.775L208.853 146.656V222.873L208.663 222.983L143.001 260.975ZM77.9093 222.432L143.001 260.095L208.091 222.432V147.096L142.999 109.434L77.9093 147.096V222.432Z" fill="#A4D7FF"/>
<path d="M185.377 204.839L168.031 194.803V174.726L185.377 164.689L202.723 174.726V194.803L185.377 204.839ZM168.792 194.362L185.377 203.958L201.962 194.362V175.167L185.376 165.57L168.792 175.167V194.362Z" fill="#A4D7FF"/>
<path d="M312.497 221.18L281.031 202.974V166.556L312.497 148.35L343.962 166.556V202.974L312.497 221.18ZM281.792 202.534L312.497 220.3L343.202 202.534V166.997L312.496 149.23L281.792 166.997V202.534Z" fill="#A4D7FF"/>
<path d="M37.0681 241.713L19.6406 231.629V211.459L37.0681 201.375L54.4955 211.459V231.629L37.0681 241.713ZM20.4018 231.189L37.0681 240.832L53.7343 231.189V211.899L37.0676 202.256L20.4018 211.899V231.189Z" fill="#A4D7FF"/>
<path d="M291.307 280.902L240.016 251.226V191.864L291.307 162.186L342.597 191.864V251.226L291.307 280.902ZM240.777 250.786L291.307 280.022L341.835 250.786V192.304L291.305 163.066L240.777 192.304V250.786Z" fill="#A4D7FF"/>
<path d="M312.493 283.388L290.836 270.857V245.793L312.493 233.262L334.148 245.793V270.857L312.493 283.388ZM291.597 270.417L312.493 282.507L333.388 270.417V246.233L312.493 234.142L291.597 246.233V270.417Z" fill="#A4D7FF"/>
<path d="M291.306 308.181L280.008 301.643V288.567L291.306 282.029L302.604 288.567V301.643L291.306 308.181ZM280.769 301.202L291.306 307.3L301.843 301.202V289.006L291.306 282.909L280.769 289.006V301.202Z" fill="#A4D7FF"/>
<path d="M333.685 355.718L333.495 355.608L281.312 325.411V264.794L333.685 234.49L386.058 264.794V325.411L385.868 325.521L333.685 355.718ZM282.073 324.97L333.685 354.837L385.298 324.97V265.235L333.684 235.371L282.073 265.235V324.97Z" fill="#A4D7FF"/>
<path d="M15.8824 370.665L-17.625 351.274V312.496L15.8824 293.105L49.3899 312.496V351.274L15.8824 370.665ZM-16.8638 350.834L15.8824 369.783L48.6287 350.834V312.937L15.8817 293.986L-16.8638 312.937V350.834Z" fill="#A4D7FF"/>
<path d="M58.2562 385.059L58.066 384.949L12.3125 358.471V305.299L58.2566 278.711L104.202 305.299V358.471L104.012 358.581L58.2562 385.059ZM13.0733 358.031L58.2562 384.178L103.44 358.031V305.74L58.255 279.592L13.0733 305.74V358.031Z" fill="#A4D7FF"/>
<path d="M143.006 380.41L142.816 380.299L101.078 356.146V307.623L143.007 283.359L184.935 307.623V356.146L184.744 356.256L143.006 380.41ZM101.839 355.706L143.006 379.529L184.173 355.706V308.063L143.006 284.24L101.839 308.063V355.706Z" fill="#A4D7FF"/>
<path d="M312.493 369.283L280.18 350.583V313.188L312.493 294.488L344.805 313.188V350.583L312.493 369.283ZM280.941 350.143L312.493 368.402L344.044 350.143V313.628L312.492 295.369L280.941 313.628V350.143Z" fill="#A4D7FF"/>
<path d="M-47.6806 443.79L-47.8708 443.679L-112.594 406.225V331.102L-112.404 330.992L-47.6806 293.537L-47.4904 293.647L17.2321 331.102V406.225L17.0419 406.335L-47.6806 443.79ZM-111.833 405.785L-47.6806 442.908L16.4713 405.785V331.542L-47.681 294.418L-111.833 331.542V405.785Z" fill="#A4D7FF"/>
<path d="M15.8796 439.863L-13.8594 422.652V388.236L15.8796 371.025L45.619 388.236V422.652L15.8796 439.863ZM-13.0986 422.213L15.8796 438.982L44.8582 422.213V388.675L15.8796 371.907L-13.0986 388.675V422.213Z" fill="#A4D7FF"/>
<path d="M58.2559 450.695L19.1562 428.068V382.819L58.2559 360.191L97.3559 382.819V428.069L58.2559 450.695ZM19.9175 427.629L58.2559 449.815L96.5947 427.629V383.258L58.2559 361.072L19.9175 383.258V427.629Z" fill="#A4D7FF"/>
<path d="M79.4424 487.103L40.6641 464.661V419.784L79.4424 397.344L118.22 419.784V464.661L79.4424 487.103ZM41.4249 464.221L79.442 486.221L117.459 464.221V420.224L79.442 398.225L41.4249 420.224V464.221Z" fill="#A4D7FF"/>
<path d="M164.188 461.411L147.609 451.816V432.63L164.188 423.035L180.768 432.63V451.816L164.188 461.411ZM148.371 451.376L164.188 460.53L180.006 451.376V433.07L164.188 423.916L148.371 433.07V451.376Z" fill="#A4D7FF"/>
<path d="M291.31 475.431L262.617 458.827V425.622L291.31 409.018L320.002 425.622V458.827L291.31 475.431ZM263.378 458.388L291.31 474.55L319.242 458.388V426.062L291.311 409.898L263.378 426.062V458.388Z" fill="#A4D7FF"/>
<path d="M185.375 504.32L163.5 491.661V466.345L185.375 453.686L207.251 466.345V491.661L185.375 504.32ZM164.261 491.221L185.375 503.439L206.49 491.221V466.784L185.375 454.566L164.261 466.784V491.221Z" fill="#A4D7FF"/>
<path d="M15.8787 577.033L-5.26562 564.797V540.328L15.8787 528.092L37.0231 540.328V564.797L15.8787 577.033ZM-4.50482 564.357L15.8787 576.153L36.2623 564.357V540.767L15.8795 528.972L-4.50482 540.767V564.357Z" fill="#A4D7FF"/>
<path d="M100.626 605.945L100.435 605.834L54.5 579.252V525.873L54.6902 525.762L100.626 499.182L100.816 499.292L146.751 525.873V579.252L146.56 579.362L100.626 605.945ZM55.2612 578.812L100.626 605.064L145.989 578.812V526.313L100.627 500.062L55.2612 526.313V578.812Z" fill="#A4D7FF"/>
<path d="M354.87 569.013L340.656 560.787V544.339L354.87 536.113L369.083 544.339V560.787L354.87 569.013ZM341.417 560.347L354.87 568.132L368.322 560.347V544.778L354.87 536.994L341.417 544.778V560.347Z" fill="#A4D7FF"/>
<path d="M121.813 602.896L110.102 596.118V582.565L121.813 575.787L133.525 582.565V596.118L121.813 602.896ZM110.863 595.678L121.813 602.015L132.764 595.678V583.005L121.813 576.668L110.863 583.005V595.678Z" fill="#A4D7FF"/>
<path d="M228.011 680L223.698 677.506V648.3L248.932 633.7L274.165 648.3V677.506L269.853 680H271.375L274.926 677.945V647.861L248.932 632.818L222.938 647.861V677.945L226.489 680H228.011Z" fill="#A4D7FF"/>
<path d="M294.347 680.001V640.139L333.683 617.377L373.023 640.139V680.001H373.784V639.699L334.066 616.718V616.275L293.586 639.699V680.001H294.347Z" fill="#A4D7FF"/>
<path d="M13.9101 662.123C13.9101 664.129 12.2882 665.755 10.2871 665.755C8.28595 665.755 6.66406 664.129 6.66406 662.123C6.66406 660.118 8.28595 658.492 10.2871 658.492C12.2882 658.492 13.9101 660.118 13.9101 662.123Z" fill="#A4D7FF"/>
<path d="M13.614 680.001C13.8034 679.56 13.9101 679.076 13.9101 678.567C13.9101 676.561 12.2878 674.936 10.2871 674.936C8.28598 674.936 6.66406 676.562 6.66406 678.567C6.66406 679.076 6.77075 679.561 6.95975 680.001H13.614Z" fill="#A4D7FF"/>
<path d="M146.535 13.0746C146.535 15.0802 144.913 16.7058 142.912 16.7058C140.911 16.7058 139.289 15.0802 139.289 13.0746C139.289 11.069 140.911 9.44336 142.912 9.44336C144.913 9.44296 146.535 11.069 146.535 13.0746Z" fill="#A4D7FF"/>
<path d="M125.441 25.2855C125.441 27.2911 123.819 28.9167 121.818 28.9167C119.817 28.9167 118.195 27.2911 118.195 25.2855C118.195 23.2799 119.818 21.6543 121.818 21.6543C123.819 21.6539 125.441 23.2799 125.441 25.2855Z" fill="#A4D7FF"/>
<path d="M104.34 13.0746C104.34 15.0802 102.717 16.7058 100.717 16.7058C98.7157 16.7058 97.0938 15.0802 97.0938 13.0746C97.0938 11.069 98.7161 9.44336 100.717 9.44336C102.718 9.44296 104.34 11.069 104.34 13.0746Z" fill="#A4D7FF"/>
<path d="M15.8808 7.89521C17.8818 7.89521 19.5039 6.26947 19.5039 4.26401C19.5039 2.25856 17.8818 0.632812 15.8808 0.632812C13.8799 0.632812 12.2578 2.25856 12.2578 4.26401C12.2578 6.26947 13.8799 7.89521 15.8808 7.89521Z" fill="#A4D7FF"/>
<path d="M44.7246 24.5866C46.7255 24.5866 48.3476 22.9609 48.3476 20.9554C48.3476 18.95 46.7255 17.3242 44.7246 17.3242C42.7236 17.3242 41.1016 18.95 41.1016 20.9554C41.1016 22.9609 42.7236 24.5866 44.7246 24.5866Z" fill="#A4D7FF"/>
<path d="M48.3476 54.3343C48.3476 56.3399 46.7253 57.9655 44.7246 57.9655C42.7235 57.9655 41.1016 56.3399 41.1016 54.3343C41.1016 52.3287 42.7235 50.7031 44.7246 50.7031C46.7253 50.7031 48.3476 52.3287 48.3476 54.3343Z" fill="#A4D7FF"/>
<path d="M19.5038 71.0257C19.5038 73.0313 17.8815 74.6569 15.8808 74.6569C13.8797 74.6569 12.2578 73.0313 12.2578 71.0257C12.2578 69.0201 13.8801 67.3945 15.8808 67.3945C17.8815 67.3945 19.5038 69.0201 19.5038 71.0257Z" fill="#A4D7FF"/>
<path d="M15.8808 7.89717C17.8818 7.89717 19.5039 6.27142 19.5039 4.26597C19.5039 2.26051 17.8818 0.634766 15.8808 0.634766C13.8799 0.634766 12.2578 2.26051 12.2578 4.26597C12.2578 6.27142 13.8799 7.89717 15.8808 7.89717Z" fill="#A4D7FF"/>
<path d="M146.629 11.4984C146.629 13.504 145.007 15.1296 143.006 15.1296C141.005 15.1296 139.383 13.504 139.383 11.4984C139.383 9.49279 141.005 7.86719 143.006 7.86719C145.007 7.86679 146.629 9.49279 146.629 11.4984Z" fill="#A4D7FF"/>
<path d="M169.215 24.5726C169.215 26.5782 167.592 28.2038 165.592 28.2038C163.591 28.2038 161.969 26.5778 161.969 24.5726C161.969 22.5674 163.591 20.9414 165.592 20.9414C167.592 20.9414 169.215 22.5674 169.215 24.5726Z" fill="#A4D7FF"/>
<path d="M169.215 50.7171C169.215 52.7227 167.592 54.3483 165.592 54.3483C163.591 54.3483 161.969 52.7223 161.969 50.7171C161.969 48.7115 163.591 47.0859 165.592 47.0859C167.592 47.0859 169.215 48.7115 169.215 50.7171Z" fill="#A4D7FF"/>
<path d="M143.006 67.4226C145.007 67.4226 146.629 65.7968 146.629 63.7914C146.629 61.7859 145.007 60.1602 143.006 60.1602C141.005 60.1602 139.383 61.7859 139.383 63.7914C139.383 65.7968 141.005 67.4226 143.006 67.4226Z" fill="#A4D7FF"/>
<path d="M124.035 50.7171C124.035 52.7227 122.413 54.3483 120.412 54.3483C118.411 54.3483 116.789 52.7223 116.789 50.7171C116.789 48.7115 118.411 47.0859 120.412 47.0859C122.413 47.0859 124.035 48.7115 124.035 50.7171Z" fill="#A4D7FF"/>
<path d="M124.035 24.5726C124.035 26.5782 122.413 28.2038 120.412 28.2038C118.411 28.2038 116.789 26.5778 116.789 24.5726C116.789 22.5674 118.411 20.9414 120.412 20.9414C122.413 20.9414 124.035 22.5674 124.035 24.5726Z" fill="#A4D7FF"/>
<path d="M146.629 11.4984C146.629 13.504 145.007 15.1296 143.006 15.1296C141.005 15.1296 139.383 13.504 139.383 11.4984C139.383 9.49279 141.005 7.86719 143.006 7.86719C145.007 7.86719 146.629 9.49279 146.629 11.4984Z" fill="#A4D7FF"/>
<path d="M15.8808 87.2038C17.8818 87.2038 19.5039 85.5781 19.5039 83.5726C19.5039 81.5672 17.8818 79.9414 15.8808 79.9414C13.8799 79.9414 12.2578 81.5672 12.2578 83.5726C12.2578 85.5781 13.8799 87.2038 15.8808 87.2038Z" fill="#A4D7FF"/>
<path d="M39.7558 101.02C41.7568 101.02 43.3789 99.3945 43.3789 97.389C43.3789 95.3836 41.7568 93.7578 39.7558 93.7578C37.7549 93.7578 36.1328 95.3836 36.1328 97.389C36.1328 99.3945 37.7549 101.02 39.7558 101.02Z" fill="#A4D7FF"/>
<path d="M43.3789 125.022C43.3789 127.027 41.757 128.653 39.7558 128.653C37.7547 128.653 36.1328 127.027 36.1328 125.022C36.1328 123.016 37.7551 121.391 39.7558 121.391C41.757 121.391 43.3789 123.016 43.3789 125.022Z" fill="#A4D7FF"/>
<path d="M19.5038 138.836C19.5038 140.842 17.8819 142.467 15.8808 142.467C13.8797 142.467 12.2578 140.842 12.2578 138.836C12.2578 136.831 13.8801 135.205 15.8808 135.205C17.8815 135.205 19.5038 136.831 19.5038 138.836Z" fill="#A4D7FF"/>
<path d="M19.5038 83.5746C19.5038 85.5802 17.8819 87.2058 15.8808 87.2058C13.8797 87.2058 12.2578 85.5798 12.2578 83.5746C12.2578 81.5694 13.8801 79.9434 15.8808 79.9434C17.8815 79.9434 19.5038 81.569 19.5038 83.5746Z" fill="#A4D7FF"/>
<path d="M273.746 52.4496C273.746 54.4552 272.124 56.0808 270.123 56.0808C268.122 56.0808 266.5 54.4552 266.5 52.4496C266.5 50.444 268.122 48.8184 270.123 48.8184C272.124 48.8184 273.746 50.444 273.746 52.4496Z" fill="#A4D7FF"/>
<path d="M324.512 81.8285C324.512 83.8341 322.89 85.4597 320.889 85.4597C318.888 85.4597 317.266 83.8337 317.266 81.8285C317.266 79.8233 318.888 78.1973 320.889 78.1973C322.89 78.1973 324.512 79.8229 324.512 81.8285Z" fill="#A4D7FF"/>
<path d="M324.512 140.586C324.512 142.592 322.89 144.217 320.889 144.217C318.888 144.217 317.266 142.592 317.266 140.586C317.266 138.581 318.888 136.955 320.889 136.955C322.89 136.955 324.512 138.581 324.512 140.586Z" fill="#A4D7FF"/>
<path d="M273.746 169.959C273.746 171.965 272.124 173.591 270.123 173.591C268.122 173.591 266.5 171.965 266.5 169.959C266.5 167.954 268.122 166.328 270.123 166.328C272.124 166.328 273.746 167.954 273.746 169.959Z" fill="#A4D7FF"/>
<path d="M222.98 140.586C222.98 142.592 221.359 144.217 219.357 144.217C217.356 144.217 215.734 142.592 215.734 140.586C215.734 138.581 217.356 136.955 219.357 136.955C221.359 136.955 222.98 138.581 222.98 140.586Z" fill="#A4D7FF"/>
<path d="M222.98 81.8285C222.98 83.8341 221.359 85.4597 219.357 85.4597C217.356 85.4597 215.734 83.8337 215.734 81.8285C215.734 79.8233 217.356 78.1973 219.357 78.1973C221.359 78.1973 222.98 79.8229 222.98 81.8285Z" fill="#A4D7FF"/>
<path d="M270.123 56.0847C272.124 56.0847 273.746 54.4589 273.746 52.4535C273.746 50.448 272.124 48.8223 270.123 48.8223C268.122 48.8223 266.5 50.448 266.5 52.4535C266.5 54.4589 268.122 56.0847 270.123 56.0847Z" fill="#A4D7FF"/>
<path d="M125.441 126.885C125.441 128.891 123.819 130.516 121.818 130.516C119.817 130.516 118.195 128.891 118.195 126.885C118.195 124.88 119.818 123.254 121.818 123.254C123.819 123.254 125.441 124.88 125.441 126.885Z" fill="#A4D7FF"/>
<path d="M143.668 137.434C143.668 139.44 142.046 141.065 140.045 141.065C138.044 141.065 136.422 139.439 136.422 137.434C136.422 135.428 138.044 133.803 140.045 133.803C142.046 133.803 143.668 135.428 143.668 137.434Z" fill="#A4D7FF"/>
<path d="M140.045 162.167C142.046 162.167 143.668 160.541 143.668 158.535C143.668 156.53 142.046 154.904 140.045 154.904C138.044 154.904 136.422 156.53 136.422 158.535C136.422 160.541 138.044 162.167 140.045 162.167Z" fill="#A4D7FF"/>
<path d="M125.441 169.084C125.441 171.09 123.819 172.716 121.818 172.716C119.817 172.716 118.195 171.09 118.195 169.084C118.195 167.079 119.818 165.453 121.818 165.453C123.819 165.453 125.441 167.079 125.441 169.084Z" fill="#A4D7FF"/>
<path d="M107.207 158.535C107.207 160.541 105.585 162.167 103.584 162.167C101.583 162.167 99.9609 160.541 99.9609 158.535C99.9609 156.53 101.583 154.904 103.584 154.904C105.585 154.904 107.207 156.53 107.207 158.535Z" fill="#A4D7FF"/>
<path d="M107.207 137.434C107.207 139.44 105.585 141.065 103.584 141.065C101.583 141.065 99.9609 139.439 99.9609 137.434C99.9609 135.428 101.583 133.803 103.584 133.803C105.585 133.803 107.207 135.428 107.207 137.434Z" fill="#A4D7FF"/>
<path d="M125.441 126.885C125.441 128.891 123.819 130.516 121.818 130.516C119.817 130.516 118.195 128.89 118.195 126.885C118.195 124.88 119.818 123.254 121.818 123.254C123.819 123.254 125.441 124.88 125.441 126.885Z" fill="#A4D7FF"/>
<path d="M337.309 133.334C337.309 135.34 335.687 136.966 333.686 136.966C331.684 136.966 330.062 135.34 330.062 133.334C330.062 131.329 331.685 129.703 333.686 129.703C335.687 129.703 337.309 131.329 337.309 133.334Z" fill="#A4D7FF"/>
<path d="M349.965 140.659C349.965 142.664 348.342 144.29 346.342 144.29C344.341 144.29 342.719 142.664 342.719 140.659C342.719 138.653 344.341 137.027 346.342 137.027C348.342 137.027 349.965 138.653 349.965 140.659Z" fill="#A4D7FF"/>
<path d="M346.342 158.942C348.343 158.942 349.965 157.316 349.965 155.311C349.965 153.305 348.343 151.68 346.342 151.68C344.341 151.68 342.719 153.305 342.719 155.311C342.719 157.316 344.341 158.942 346.342 158.942Z" fill="#A4D7FF"/>
<path d="M337.309 162.637C337.309 164.643 335.687 166.268 333.686 166.268C331.684 166.268 330.062 164.642 330.062 162.637C330.062 160.632 331.685 159.006 333.686 159.006C335.687 159.006 337.309 160.632 337.309 162.637Z" fill="#A4D7FF"/>
<path d="M321.021 158.942C323.022 158.942 324.644 157.316 324.644 155.311C324.644 153.305 323.022 151.68 321.021 151.68C319.021 151.68 317.398 153.305 317.398 155.311C317.398 157.316 319.021 158.942 321.021 158.942Z" fill="#A4D7FF"/>
<path d="M324.644 140.659C324.644 142.664 323.022 144.29 321.021 144.29C319.021 144.29 317.398 142.664 317.398 140.659C317.398 138.653 319.021 137.027 321.021 137.027C323.022 137.027 324.644 138.653 324.644 140.659Z" fill="#A4D7FF"/>
<path d="M333.686 136.964C335.686 136.964 337.309 135.338 337.309 133.332C337.309 131.327 335.686 129.701 333.686 129.701C331.685 129.701 330.062 131.327 330.062 133.332C330.062 135.338 331.685 136.964 333.686 136.964Z" fill="#A4D7FF"/>
<path d="M146.629 108.996C146.629 111.002 145.007 112.628 143.006 112.628C141.005 112.628 139.383 111.002 139.383 108.996C139.383 106.991 141.005 105.365 143.006 105.365C145.007 105.365 146.629 106.991 146.629 108.996Z" fill="#A4D7FF"/>
<path d="M212.098 146.877C212.098 148.883 210.476 150.508 208.475 150.508C206.473 150.508 204.852 148.883 204.852 146.877C204.852 144.872 206.473 143.246 208.475 143.246C210.476 143.246 212.098 144.872 212.098 146.877Z" fill="#A4D7FF"/>
<path d="M212.098 222.655C212.098 224.66 210.476 226.286 208.475 226.286C206.473 226.286 204.852 224.66 204.852 222.655C204.852 220.649 206.473 219.023 208.475 219.023C210.476 219.023 212.098 220.649 212.098 222.655Z" fill="#A4D7FF"/>
<path d="M146.629 260.535C146.629 262.541 145.007 264.167 143.006 264.167C141.005 264.167 139.383 262.541 139.383 260.535C139.383 258.53 141.005 256.904 143.006 256.904C145.007 256.904 146.629 258.53 146.629 260.535Z" fill="#A4D7FF"/>
<path d="M81.1523 222.655C81.1523 224.66 79.5304 226.286 77.5293 226.286C75.5281 226.286 73.9062 224.66 73.9062 222.655C73.9062 220.649 75.5281 219.023 77.5293 219.023C79.53 219.023 81.1523 220.649 81.1523 222.655Z" fill="#A4D7FF"/>
<path d="M81.1523 146.877C81.1523 148.883 79.5304 150.508 77.5293 150.508C75.5281 150.508 73.9062 148.883 73.9062 146.877C73.9062 144.872 75.5281 143.246 77.5293 143.246C79.53 143.246 81.1523 144.872 81.1523 146.877Z" fill="#A4D7FF"/>
<path d="M146.629 108.994C146.629 111 145.007 112.626 143.006 112.626C141.005 112.626 139.383 111 139.383 108.994C139.383 106.989 141.005 105.363 143.006 105.363C145.007 105.363 146.629 106.989 146.629 108.994Z" fill="#A4D7FF"/>
<path d="M188.996 165.131C188.996 167.137 187.374 168.762 185.373 168.762C183.372 168.762 181.75 167.137 181.75 165.131C181.75 163.126 183.372 161.5 185.373 161.5C187.374 161.5 188.996 163.126 188.996 165.131Z" fill="#A4D7FF"/>
<path d="M205.965 174.948C205.965 176.953 204.343 178.579 202.342 178.579C200.341 178.579 198.719 176.953 198.719 174.948C198.719 172.942 200.341 171.316 202.342 171.316C204.343 171.316 205.965 172.942 205.965 174.948Z" fill="#A4D7FF"/>
<path d="M205.965 194.582C205.965 196.588 204.343 198.214 202.342 198.214C200.341 198.214 198.719 196.588 198.719 194.582C198.719 192.577 200.341 190.951 202.342 190.951C204.343 190.951 205.965 192.577 205.965 194.582Z" fill="#A4D7FF"/>
<path d="M188.996 204.399C188.996 206.404 187.374 208.03 185.373 208.03C183.372 208.03 181.75 206.404 181.75 204.399C181.75 202.393 183.372 200.768 185.373 200.768C187.374 200.768 188.996 202.393 188.996 204.399Z" fill="#A4D7FF"/>
<path d="M172.035 194.582C172.035 196.588 170.413 198.214 168.412 198.214C166.411 198.214 164.789 196.588 164.789 194.582C164.789 192.577 166.411 190.951 168.412 190.951C170.413 190.951 172.035 192.577 172.035 194.582Z" fill="#A4D7FF"/>
<path d="M168.412 178.579C170.413 178.579 172.035 176.953 172.035 174.948C172.035 172.942 170.413 171.316 168.412 171.316C166.411 171.316 164.789 172.942 164.789 174.948C164.789 176.953 166.411 178.579 168.412 178.579Z" fill="#A4D7FF"/>
<path d="M188.996 165.129C188.996 167.135 187.374 168.76 185.373 168.76C183.372 168.76 181.75 167.135 181.75 165.129C181.75 163.124 183.372 161.498 185.373 161.498C187.374 161.498 188.996 163.124 188.996 165.129Z" fill="#A4D7FF"/>
<path d="M316.121 148.791C316.121 150.797 314.499 152.423 312.498 152.423C310.497 152.423 308.875 150.797 308.875 148.791C308.875 146.786 310.497 145.16 312.498 145.16C314.499 145.16 316.121 146.786 316.121 148.791Z" fill="#A4D7FF"/>
<path d="M347.207 166.776C347.207 168.781 345.585 170.407 343.584 170.407C341.583 170.407 339.961 168.781 339.961 166.776C339.961 164.77 341.583 163.145 343.584 163.145C345.585 163.144 347.207 164.77 347.207 166.776Z" fill="#A4D7FF"/>
<path d="M347.207 202.754C347.207 204.76 345.585 206.385 343.584 206.385C341.583 206.385 339.961 204.759 339.961 202.754C339.961 200.749 341.583 199.123 343.584 199.123C345.585 199.123 347.207 200.749 347.207 202.754Z" fill="#A4D7FF"/>
<path d="M316.121 220.739C316.121 222.744 314.499 224.37 312.498 224.37C310.497 224.37 308.875 222.744 308.875 220.739C308.875 218.733 310.497 217.107 312.498 217.107C314.499 217.107 316.121 218.733 316.121 220.739Z" fill="#A4D7FF"/>
<path d="M285.035 202.754C285.035 204.76 283.413 206.385 281.412 206.385C279.411 206.385 277.789 204.759 277.789 202.754C277.789 200.749 279.411 199.123 281.412 199.123C283.413 199.123 285.035 200.749 285.035 202.754Z" fill="#A4D7FF"/>
<path d="M285.035 166.776C285.035 168.781 283.413 170.407 281.412 170.407C279.411 170.407 277.789 168.781 277.789 166.776C277.789 164.77 279.411 163.145 281.412 163.145C283.413 163.145 285.035 164.77 285.035 166.776Z" fill="#A4D7FF"/>
<path d="M316.121 148.789C316.121 150.795 314.499 152.421 312.498 152.421C310.497 152.421 308.875 150.795 308.875 148.789C308.875 146.784 310.497 145.158 312.498 145.158C314.499 145.158 316.121 146.784 316.121 148.789Z" fill="#A4D7FF"/>
<path d="M37.0683 205.448C39.0693 205.448 40.6914 203.822 40.6914 201.817C40.6914 199.811 39.0693 198.186 37.0683 198.186C35.0674 198.186 33.4453 199.811 33.4453 201.817C33.4453 203.822 35.0674 205.448 37.0683 205.448Z" fill="#A4D7FF"/>
<path d="M54.1152 215.311C56.1162 215.311 57.7382 213.685 57.7382 211.68C57.7382 209.675 56.1162 208.049 54.1152 208.049C52.1143 208.049 50.4922 209.675 50.4922 211.68C50.4922 213.685 52.1143 215.311 54.1152 215.311Z" fill="#A4D7FF"/>
<path d="M54.1152 235.042C56.1162 235.042 57.7382 233.416 57.7382 231.41C57.7382 229.405 56.1162 227.779 54.1152 227.779C52.1143 227.779 50.4922 229.405 50.4922 231.41C50.4922 233.416 52.1143 235.042 54.1152 235.042Z" fill="#A4D7FF"/>
<path d="M40.6914 241.274C40.6914 243.279 39.0691 244.905 37.0683 244.905C35.0672 244.905 33.4453 243.279 33.4453 241.274C33.4453 239.268 35.0676 237.643 37.0683 237.643C39.0691 237.642 40.6914 239.268 40.6914 241.274Z" fill="#A4D7FF"/>
<path d="M23.6445 231.41C23.6445 233.416 22.0226 235.042 20.0214 235.042C18.0203 235.042 16.3984 233.416 16.3984 231.41C16.3984 229.405 18.0203 227.779 20.0214 227.779C22.0226 227.779 23.6445 229.405 23.6445 231.41Z" fill="#A4D7FF"/>
<path d="M23.6445 211.68C23.6445 213.686 22.0226 215.311 20.0214 215.311C18.0203 215.311 16.3984 213.685 16.3984 211.68C16.3984 209.674 18.0203 208.049 20.0214 208.049C22.0226 208.049 23.6445 209.674 23.6445 211.68Z" fill="#A4D7FF"/>
<path d="M40.6914 201.815C40.6914 203.82 39.0691 205.446 37.0683 205.446C35.0672 205.446 33.4453 203.82 33.4453 201.815C33.4453 199.809 35.0676 198.184 37.0683 198.184C39.0691 198.184 40.6914 199.809 40.6914 201.815Z" fill="#A4D7FF"/>
<path d="M294.934 162.627C294.934 164.633 293.312 166.258 291.311 166.258C289.309 166.258 287.688 164.632 287.688 162.627C287.688 160.622 289.309 158.996 291.311 158.996C293.311 158.996 294.934 160.622 294.934 162.627Z" fill="#A4D7FF"/>
<path d="M345.84 192.084C345.84 194.09 344.218 195.716 342.217 195.716C340.216 195.716 338.594 194.09 338.594 192.084C338.594 190.079 340.216 188.453 342.217 188.453C344.218 188.453 345.84 190.079 345.84 192.084Z" fill="#A4D7FF"/>
<path d="M345.84 251.006C345.84 253.012 344.218 254.637 342.217 254.637C340.216 254.637 338.594 253.011 338.594 251.006C338.594 249.001 340.216 247.375 342.217 247.375C344.218 247.375 345.84 249.001 345.84 251.006Z" fill="#A4D7FF"/>
<path d="M294.934 280.463C294.934 282.469 293.312 284.094 291.311 284.094C289.309 284.094 287.688 282.469 287.688 280.463C287.688 278.458 289.309 276.832 291.311 276.832C293.311 276.832 294.934 278.458 294.934 280.463Z" fill="#A4D7FF"/>
<path d="M244.019 251.006C244.019 253.012 242.398 254.637 240.396 254.637C238.395 254.637 236.773 253.011 236.773 251.006C236.773 249.001 238.395 247.375 240.396 247.375C242.398 247.375 244.019 249.001 244.019 251.006Z" fill="#A4D7FF"/>
<path d="M244.019 192.084C244.019 194.09 242.398 195.716 240.396 195.716C238.395 195.716 236.773 194.09 236.773 192.084C236.773 190.079 238.395 188.453 240.396 188.453C242.398 188.453 244.019 190.079 244.019 192.084Z" fill="#A4D7FF"/>
<path d="M294.934 162.625C294.934 164.631 293.312 166.257 291.311 166.257C289.309 166.257 287.688 164.631 287.688 162.625C287.688 160.62 289.309 158.994 291.311 158.994C293.311 158.994 294.934 160.62 294.934 162.625Z" fill="#A4D7FF"/>
<path d="M316.121 233.702C316.121 235.707 314.499 237.333 312.498 237.333C310.497 237.333 308.875 235.707 308.875 233.702C308.875 231.696 310.497 230.07 312.498 230.07C314.499 230.07 316.121 231.696 316.121 233.702Z" fill="#A4D7FF"/>
<path d="M337.394 246.012C337.394 248.018 335.772 249.643 333.771 249.643C331.77 249.643 330.148 248.018 330.148 246.012C330.148 244.006 331.77 242.381 333.771 242.381C335.772 242.381 337.394 244.006 337.394 246.012Z" fill="#A4D7FF"/>
<path d="M333.771 274.268C335.772 274.268 337.394 272.643 337.394 270.637C337.394 268.632 335.772 267.006 333.771 267.006C331.771 267.006 330.148 268.632 330.148 270.637C330.148 272.643 331.771 274.268 333.771 274.268Z" fill="#A4D7FF"/>
<path d="M316.121 282.948C316.121 284.953 314.499 286.579 312.498 286.579C310.497 286.579 308.875 284.953 308.875 282.948C308.875 280.942 310.497 279.316 312.498 279.316C314.499 279.316 316.121 280.942 316.121 282.948Z" fill="#A4D7FF"/>
<path d="M294.84 270.637C294.84 272.643 293.218 274.268 291.217 274.268C289.216 274.268 287.594 272.642 287.594 270.637C287.594 268.632 289.216 267.006 291.217 267.006C293.217 267.006 294.84 268.631 294.84 270.637Z" fill="#A4D7FF"/>
<path d="M294.84 246.012C294.84 248.018 293.218 249.643 291.217 249.643C289.216 249.643 287.594 248.018 287.594 246.012C287.594 244.006 289.216 242.381 291.217 242.381C293.217 242.381 294.84 244.006 294.84 246.012Z" fill="#A4D7FF"/>
<path d="M316.121 233.702C316.121 235.707 314.499 237.333 312.498 237.333C310.497 237.333 308.875 235.707 308.875 233.702C308.875 231.696 310.497 230.07 312.498 230.07C314.499 230.07 316.121 231.696 316.121 233.702Z" fill="#A4D7FF"/>
<path d="M294.934 282.469C294.934 284.475 293.311 286.1 291.311 286.1C289.31 286.1 287.688 284.474 287.688 282.469C287.688 280.464 289.31 278.838 291.311 278.838C293.311 278.838 294.934 280.463 294.934 282.469Z" fill="#A4D7FF"/>
<path d="M305.848 288.785C305.848 290.791 304.226 292.417 302.225 292.417C300.223 292.417 298.602 290.791 298.602 288.785C298.602 286.78 300.223 285.154 302.225 285.154C304.226 285.154 305.848 286.78 305.848 288.785Z" fill="#A4D7FF"/>
<path d="M305.848 301.422C305.848 303.428 304.226 305.053 302.225 305.053C300.223 305.053 298.602 303.428 298.602 301.422C298.602 299.417 300.223 297.791 302.225 297.791C304.226 297.791 305.848 299.417 305.848 301.422Z" fill="#A4D7FF"/>
<path d="M291.311 311.372C293.311 311.372 294.934 309.746 294.934 307.741C294.934 305.735 293.311 304.109 291.311 304.109C289.31 304.109 287.688 305.735 287.688 307.741C287.688 309.746 289.31 311.372 291.311 311.372Z" fill="#A4D7FF"/>
<path d="M284.012 301.422C284.012 303.428 282.389 305.053 280.389 305.053C278.388 305.053 276.766 303.428 276.766 301.422C276.766 299.417 278.388 297.791 280.389 297.791C282.389 297.791 284.012 299.417 284.012 301.422Z" fill="#A4D7FF"/>
<path d="M284.012 288.785C284.012 290.791 282.389 292.417 280.389 292.417C278.388 292.417 276.766 290.791 276.766 288.785C276.766 286.78 278.388 285.154 280.389 285.154C282.389 285.154 284.012 286.78 284.012 288.785Z" fill="#A4D7FF"/>
<path d="M294.934 282.469C294.934 284.475 293.311 286.1 291.311 286.1C289.31 286.1 287.688 284.475 287.688 282.469C287.688 280.463 289.31 278.838 291.311 278.838C293.311 278.838 294.934 280.463 294.934 282.469Z" fill="#A4D7FF"/>
<path d="M333.686 238.563C335.686 238.563 337.309 236.937 337.309 234.932C337.309 232.927 335.686 231.301 333.686 231.301C331.685 231.301 330.062 232.927 330.062 234.932C330.062 236.937 331.685 238.563 333.686 238.563Z" fill="#A4D7FF"/>
<path d="M337.309 355.278C337.309 357.283 335.686 358.909 333.686 358.909C331.685 358.909 330.062 357.283 330.062 355.278C330.062 353.272 331.685 351.646 333.686 351.646C335.686 351.646 337.309 353.272 337.309 355.278Z" fill="#A4D7FF"/>
<path d="M285.309 325.192C285.309 327.197 283.687 328.823 281.686 328.823C279.684 328.823 278.062 327.197 278.062 325.192C278.062 323.186 279.684 321.561 281.686 321.561C283.686 321.561 285.309 323.186 285.309 325.192Z" fill="#A4D7FF"/>
<path d="M285.309 265.016C285.309 267.022 283.687 268.647 281.686 268.647C279.684 268.647 278.062 267.022 278.062 265.016C278.062 263.01 279.684 261.385 281.686 261.385C283.686 261.384 285.309 263.01 285.309 265.016Z" fill="#A4D7FF"/>
<path d="M337.309 234.932C337.309 236.938 335.686 238.563 333.686 238.563C331.685 238.563 330.062 236.938 330.062 234.932C330.062 232.926 331.685 231.301 333.686 231.301C335.686 231.301 337.309 232.926 337.309 234.932Z" fill="#A4D7FF"/>
<path d="M15.8808 297.176C17.8818 297.176 19.5039 295.551 19.5039 293.545C19.5039 291.54 17.8818 289.914 15.8808 289.914C13.8799 289.914 12.2578 291.54 12.2578 293.545C12.2578 295.551 13.8799 297.176 15.8808 297.176Z" fill="#A4D7FF"/>
<path d="M52.6289 312.715C52.6289 314.721 51.007 316.346 49.0058 316.346C47.0047 316.346 45.3828 314.721 45.3828 312.715C45.3828 310.71 47.0047 309.084 49.0058 309.084C51.007 309.084 52.6289 310.71 52.6289 312.715Z" fill="#A4D7FF"/>
<path d="M52.6289 351.053C52.6289 353.059 51.007 354.684 49.0058 354.684C47.0047 354.684 45.3828 353.058 45.3828 351.053C45.3828 349.048 47.0047 347.422 49.0058 347.422C51.007 347.422 52.6289 349.048 52.6289 351.053Z" fill="#A4D7FF"/>
<path d="M19.5038 370.223C19.5038 372.229 17.8815 373.854 15.8808 373.854C13.8797 373.854 12.2578 372.228 12.2578 370.223C12.2578 368.217 13.8797 366.592 15.8808 366.592C17.8815 366.592 19.5038 368.217 19.5038 370.223Z" fill="#A4D7FF"/>
<path d="M19.5038 293.545C19.5038 295.551 17.8815 297.176 15.8808 297.176C13.8797 297.176 12.2578 295.55 12.2578 293.545C12.2578 291.54 13.8797 289.914 15.8808 289.914C17.8815 289.914 19.5038 291.54 19.5038 293.545Z" fill="#A4D7FF"/>
<path d="M61.8788 279.153C61.8788 281.158 60.257 282.784 58.2558 282.784C56.2547 282.784 54.6328 281.158 54.6328 279.153C54.6328 277.147 56.2547 275.521 58.2558 275.521C60.257 275.521 61.8788 277.147 61.8788 279.153Z" fill="#A4D7FF"/>
<path d="M107.441 305.52C107.441 307.525 105.819 309.151 103.818 309.151C101.817 309.151 100.195 307.525 100.195 305.52C100.195 303.514 101.817 301.889 103.818 301.889C105.819 301.889 107.441 303.514 107.441 305.52Z" fill="#A4D7FF"/>
<path d="M107.441 358.25C107.441 360.256 105.819 361.882 103.818 361.882C101.817 361.882 100.195 360.256 100.195 358.25C100.195 356.245 101.817 354.619 103.818 354.619C105.819 354.619 107.441 356.245 107.441 358.25Z" fill="#A4D7FF"/>
<path d="M61.8788 384.618C61.8788 386.623 60.257 388.249 58.2558 388.249C56.2547 388.249 54.6328 386.623 54.6328 384.618C54.6328 382.612 56.2547 380.986 58.2558 380.986C60.257 380.986 61.8788 382.612 61.8788 384.618Z" fill="#A4D7FF"/>
<path d="M12.6933 361.882C14.6943 361.882 16.3164 360.256 16.3164 358.25C16.3164 356.245 14.6943 354.619 12.6933 354.619C10.6924 354.619 9.07031 356.245 9.07031 358.25C9.07031 360.256 10.6924 361.882 12.6933 361.882Z" fill="#A4D7FF"/>
<path d="M16.3164 305.52C16.3164 307.525 14.6941 309.151 12.6933 309.151C10.6922 309.151 9.07031 307.525 9.07031 305.52C9.07031 303.514 10.6926 301.889 12.6933 301.889C14.6941 301.889 16.3164 303.514 16.3164 305.52Z" fill="#A4D7FF"/>
<path d="M61.8788 279.151C61.8788 281.156 60.257 282.782 58.2558 282.782C56.2547 282.782 54.6328 281.156 54.6328 279.151C54.6328 277.146 56.2547 275.52 58.2558 275.52C60.257 275.52 61.8788 277.146 61.8788 279.151Z" fill="#A4D7FF"/>
<path d="M146.629 283.801C146.629 285.807 145.007 287.432 143.006 287.432C141.005 287.432 139.383 285.807 139.383 283.801C139.383 281.796 141.005 280.17 143.006 280.17C145.007 280.17 146.629 281.796 146.629 283.801Z" fill="#A4D7FF"/>
<path d="M188.176 307.844C188.176 309.85 186.553 311.475 184.553 311.475C182.552 311.475 180.93 309.85 180.93 307.844C180.93 305.838 182.552 304.213 184.553 304.213C186.553 304.212 188.176 305.838 188.176 307.844Z" fill="#A4D7FF"/>
<path d="M184.553 359.557C186.554 359.557 188.176 357.932 188.176 355.926C188.176 353.921 186.554 352.295 184.553 352.295C182.552 352.295 180.93 353.921 180.93 355.926C180.93 357.932 182.552 359.557 184.553 359.557Z" fill="#A4D7FF"/>
<path d="M146.629 379.969C146.629 381.975 145.007 383.6 143.006 383.6C141.005 383.6 139.383 381.975 139.383 379.969C139.383 377.963 141.005 376.338 143.006 376.338C145.007 376.338 146.629 377.963 146.629 379.969Z" fill="#A4D7FF"/>
<path d="M101.451 359.557C103.452 359.557 105.074 357.932 105.074 355.926C105.074 353.921 103.452 352.295 101.451 352.295C99.4502 352.295 97.8281 353.921 97.8281 355.926C97.8281 357.932 99.4502 359.557 101.451 359.557Z" fill="#A4D7FF"/>
<path d="M105.074 307.844C105.074 309.85 103.452 311.475 101.451 311.475C99.45 311.475 97.8281 309.85 97.8281 307.844C97.8281 305.838 99.4504 304.213 101.451 304.213C103.452 304.212 105.074 305.838 105.074 307.844Z" fill="#A4D7FF"/>
<path d="M146.629 283.799C146.629 285.805 145.007 287.43 143.006 287.43C141.005 287.43 139.383 285.805 139.383 283.799C139.383 281.794 141.005 280.168 143.006 280.168C145.007 280.168 146.629 281.794 146.629 283.799Z" fill="#A4D7FF"/>
<path d="M316.121 294.928C316.121 296.934 314.499 298.559 312.498 298.559C310.497 298.559 308.875 296.934 308.875 294.928C308.875 292.922 310.497 291.297 312.498 291.297C314.499 291.296 316.121 292.922 316.121 294.928Z" fill="#A4D7FF"/>
<path d="M348.051 313.407C348.051 315.412 346.429 317.038 344.428 317.038C342.427 317.038 340.805 315.412 340.805 313.407C340.805 311.401 342.427 309.775 344.428 309.775C346.429 309.775 348.051 311.401 348.051 313.407Z" fill="#A4D7FF"/>
<path d="M344.428 353.993C346.429 353.993 348.051 352.367 348.051 350.362C348.051 348.356 346.429 346.73 344.428 346.73C342.427 346.73 340.805 348.356 340.805 350.362C340.805 352.367 342.427 353.993 344.428 353.993Z" fill="#A4D7FF"/>
<path d="M316.121 368.842C316.121 370.848 314.499 372.473 312.498 372.473C310.497 372.473 308.875 370.847 308.875 368.842C308.875 366.837 310.497 365.211 312.498 365.211C314.499 365.211 316.121 366.837 316.121 368.842Z" fill="#A4D7FF"/>
<path d="M280.561 353.993C282.561 353.993 284.184 352.367 284.184 350.362C284.184 348.356 282.561 346.73 280.561 346.73C278.56 346.73 276.938 348.356 276.938 350.362C276.938 352.367 278.56 353.993 280.561 353.993Z" fill="#A4D7FF"/>
<path d="M284.184 313.407C284.184 315.412 282.561 317.038 280.561 317.038C278.56 317.038 276.938 315.412 276.938 313.407C276.938 311.401 278.56 309.775 280.561 309.775C282.561 309.775 284.184 311.401 284.184 313.407Z" fill="#A4D7FF"/>
<path d="M316.121 294.928C316.121 296.934 314.499 298.559 312.498 298.559C310.497 298.559 308.875 296.933 308.875 294.928C308.875 292.923 310.497 291.297 312.498 291.297C314.499 291.297 316.121 292.922 316.121 294.928Z" fill="#A4D7FF"/>
<path d="M20.4804 331.323C20.4804 333.328 18.8581 334.954 16.8574 334.954C14.8563 334.954 13.2344 333.328 13.2344 331.323C13.2344 329.317 14.8563 327.691 16.8574 327.691C18.8581 327.691 20.4804 329.317 20.4804 331.323Z" fill="#A4D7FF"/>
<path d="M20.4804 406.006C20.4804 408.012 18.8581 409.637 16.8574 409.637C14.8563 409.637 13.2344 408.011 13.2344 406.006C13.2344 404.001 14.8563 402.375 16.8574 402.375C18.8581 402.375 20.4804 404.001 20.4804 406.006Z" fill="#A4D7FF"/>
<path d="M19.5038 371.465C19.5038 373.471 17.8815 375.096 15.8808 375.096C13.8797 375.096 12.2578 373.471 12.2578 371.465C12.2578 369.46 13.8801 367.834 15.8808 367.834C17.8815 367.834 19.5038 369.46 19.5038 371.465Z" fill="#A4D7FF"/>
<path d="M48.8632 388.455C48.8632 390.461 47.2413 392.087 45.2402 392.087C43.2391 392.087 41.6172 390.461 41.6172 388.455C41.6172 386.45 43.2395 384.824 45.2402 384.824C47.2413 384.824 48.8632 386.45 48.8632 388.455Z" fill="#A4D7FF"/>
<path d="M45.2402 426.063C47.2412 426.063 48.8632 424.437 48.8632 422.432C48.8632 420.427 47.2412 418.801 45.2402 418.801C43.2393 418.801 41.6172 420.427 41.6172 422.432C41.6172 424.437 43.2393 426.063 45.2402 426.063Z" fill="#A4D7FF"/>
<path d="M19.5038 439.422C19.5038 441.428 17.8815 443.053 15.8808 443.053C13.8797 443.053 12.2578 441.427 12.2578 439.422C12.2578 437.417 13.8801 435.791 15.8808 435.791C17.8815 435.791 19.5038 437.417 19.5038 439.422Z" fill="#A4D7FF"/>
<path d="M19.5038 371.465C19.5038 373.471 17.8815 375.096 15.8808 375.096C13.8797 375.096 12.2578 373.471 12.2578 371.465C12.2578 369.46 13.8801 367.834 15.8808 367.834C17.8815 367.834 19.5038 369.46 19.5038 371.465Z" fill="#A4D7FF"/>
<path d="M61.8789 360.633C61.8789 362.639 60.257 364.264 58.2558 364.264C56.2547 364.264 54.6328 362.639 54.6328 360.633C54.6328 358.628 56.2547 357.002 58.2558 357.002C60.2566 357.002 61.8789 358.628 61.8789 360.633Z" fill="#A4D7FF"/>
<path d="M96.9746 386.671C98.9755 386.671 100.598 385.045 100.598 383.039C100.598 381.034 98.9755 379.408 96.9746 379.408C94.9737 379.408 93.3516 381.034 93.3516 383.039C93.3516 385.045 94.9737 386.671 96.9746 386.671Z" fill="#A4D7FF"/>
<path d="M100.598 427.848C100.598 429.854 98.9753 431.479 96.9746 431.479C94.9735 431.479 93.3516 429.854 93.3516 427.848C93.3516 425.842 94.9735 424.217 96.9746 424.217C98.9753 424.216 100.598 425.842 100.598 427.848Z" fill="#A4D7FF"/>
<path d="M61.8789 450.256C61.8789 452.262 60.257 453.887 58.2558 453.887C56.2547 453.887 54.6328 452.262 54.6328 450.256C54.6328 448.251 56.2547 446.625 58.2558 446.625C60.2566 446.625 61.8789 448.251 61.8789 450.256Z" fill="#A4D7FF"/>
<path d="M23.1601 427.848C23.1601 429.854 21.5378 431.479 19.5371 431.479C17.536 431.479 15.9141 429.854 15.9141 427.848C15.9141 425.842 17.536 424.217 19.5371 424.217C21.5382 424.216 23.1601 425.842 23.1601 427.848Z" fill="#A4D7FF"/>
<path d="M19.5371 386.671C21.538 386.671 23.1601 385.045 23.1601 383.039C23.1601 381.034 21.538 379.408 19.5371 379.408C17.5362 379.408 15.9141 381.034 15.9141 383.039C15.9141 385.045 17.5362 386.671 19.5371 386.671Z" fill="#A4D7FF"/>
<path d="M61.8789 360.633C61.8789 362.639 60.257 364.264 58.2558 364.264C56.2547 364.264 54.6328 362.639 54.6328 360.633C54.6328 358.628 56.2547 357.002 58.2558 357.002C60.2566 357.002 61.8789 358.628 61.8789 360.633Z" fill="#A4D7FF"/>
<path d="M83.0664 397.784C83.0664 399.789 81.4441 401.415 79.4433 401.415C77.4422 401.415 75.8203 399.789 75.8203 397.784C75.8203 395.778 77.4426 394.152 79.4433 394.152C81.4441 394.152 83.0664 395.778 83.0664 397.784Z" fill="#A4D7FF"/>
<path d="M117.842 423.637C119.843 423.637 121.465 422.012 121.465 420.006C121.465 418.001 119.843 416.375 117.842 416.375C115.841 416.375 114.219 418.001 114.219 420.006C114.219 422.012 115.841 423.637 117.842 423.637Z" fill="#A4D7FF"/>
<path d="M121.465 464.442C121.465 466.447 119.842 468.073 117.842 468.073C115.841 468.073 114.219 466.447 114.219 464.442C114.219 462.436 115.841 460.811 117.842 460.811C119.843 460.811 121.465 462.436 121.465 464.442Z" fill="#A4D7FF"/>
<path d="M79.4433 490.294C81.4443 490.294 83.0663 488.668 83.0663 486.662C83.0663 484.657 81.4443 483.031 79.4433 483.031C77.4424 483.031 75.8203 484.657 75.8203 486.662C75.8203 488.668 77.4424 490.294 79.4433 490.294Z" fill="#A4D7FF"/>
<path d="M44.6679 464.442C44.6679 466.447 43.0456 468.073 41.0449 468.073C39.0438 468.073 37.4219 466.447 37.4219 464.442C37.4219 462.436 39.0442 460.811 41.0449 460.811C43.0456 460.811 44.6679 462.436 44.6679 464.442Z" fill="#A4D7FF"/>
<path d="M41.0449 423.637C43.0458 423.637 44.6679 422.012 44.6679 420.006C44.6679 418.001 43.0458 416.375 41.0449 416.375C39.0439 416.375 37.4219 418.001 37.4219 420.006C37.4219 422.012 39.0439 423.637 41.0449 423.637Z" fill="#A4D7FF"/>
<path d="M83.0664 397.785C83.0664 399.791 81.4441 401.417 79.4433 401.417C77.4422 401.417 75.8203 399.791 75.8203 397.785C75.8203 395.78 77.4426 394.154 79.4433 394.154C81.4441 394.154 83.0664 395.78 83.0664 397.785Z" fill="#A4D7FF"/>
<path d="M167.809 423.477C167.809 425.483 166.187 427.108 164.185 427.108C162.184 427.108 160.562 425.483 160.562 423.477C160.562 421.471 162.184 419.846 164.185 419.846C166.187 419.845 167.809 421.471 167.809 423.477Z" fill="#A4D7FF"/>
<path d="M184.012 432.85C184.012 434.856 182.389 436.481 180.389 436.481C178.388 436.481 176.766 434.856 176.766 432.85C176.766 430.844 178.388 429.219 180.389 429.219C182.39 429.219 184.012 430.844 184.012 432.85Z" fill="#A4D7FF"/>
<path d="M184.012 451.596C184.012 453.602 182.389 455.227 180.389 455.227C178.388 455.227 176.766 453.602 176.766 451.596C176.766 449.59 178.388 447.965 180.389 447.965C182.39 447.965 184.012 449.59 184.012 451.596Z" fill="#A4D7FF"/>
<path d="M167.809 460.971C167.809 462.977 166.187 464.602 164.185 464.602C162.184 464.602 160.562 462.977 160.562 460.971C160.562 458.965 162.184 457.34 164.185 457.34C166.187 457.34 167.809 458.965 167.809 460.971Z" fill="#A4D7FF"/>
<path d="M151.613 451.596C151.613 453.602 149.991 455.227 147.99 455.227C145.989 455.227 144.367 453.602 144.367 451.596C144.367 449.59 145.99 447.965 147.99 447.965C149.991 447.965 151.613 449.59 151.613 451.596Z" fill="#A4D7FF"/>
<path d="M151.613 432.85C151.613 434.856 149.991 436.481 147.99 436.481C145.989 436.481 144.367 434.856 144.367 432.85C144.367 430.844 145.99 429.219 147.99 429.219C149.991 429.219 151.613 430.844 151.613 432.85Z" fill="#A4D7FF"/>
<path d="M167.809 423.477C167.809 425.483 166.187 427.108 164.185 427.108C162.184 427.108 160.562 425.483 160.562 423.477C160.562 421.471 162.184 419.846 164.185 419.846C166.187 419.846 167.809 421.471 167.809 423.477Z" fill="#A4D7FF"/>
<path d="M294.934 409.457C294.934 411.463 293.311 413.089 291.311 413.089C289.309 413.089 287.688 411.463 287.688 409.457C287.688 407.452 289.31 405.826 291.311 405.826C293.311 405.826 294.934 407.452 294.934 409.457Z" fill="#A4D7FF"/>
<path d="M323.246 425.84C323.246 427.846 321.624 429.471 319.623 429.471C317.622 429.471 316 427.845 316 425.84C316 423.835 317.622 422.209 319.623 422.209C321.624 422.209 323.246 423.835 323.246 425.84Z" fill="#A4D7FF"/>
<path d="M323.246 458.606C323.246 460.611 321.624 462.237 319.623 462.237C317.622 462.237 316 460.611 316 458.606C316 456.601 317.622 454.975 319.623 454.975C321.624 454.975 323.246 456.601 323.246 458.606Z" fill="#A4D7FF"/>
<path d="M294.934 474.991C294.934 476.996 293.311 478.622 291.311 478.622C289.309 478.622 287.688 476.996 287.688 474.991C287.688 472.985 289.31 471.359 291.311 471.359C293.311 471.359 294.934 472.985 294.934 474.991Z" fill="#A4D7FF"/>
<path d="M266.621 458.606C266.621 460.611 264.999 462.237 262.998 462.237C260.997 462.237 259.375 460.611 259.375 458.606C259.375 456.601 260.997 454.975 262.998 454.975C264.999 454.975 266.621 456.601 266.621 458.606Z" fill="#A4D7FF"/>
<path d="M266.621 425.84C266.621 427.846 264.999 429.471 262.998 429.471C260.997 429.471 259.375 427.845 259.375 425.84C259.375 423.835 260.997 422.209 262.998 422.209C264.999 422.209 266.621 423.835 266.621 425.84Z" fill="#A4D7FF"/>
<path d="M294.934 409.457C294.934 411.463 293.311 413.089 291.311 413.089C289.309 413.089 287.688 411.463 287.688 409.457C287.688 407.452 289.31 405.826 291.311 405.826C293.311 405.826 294.934 407.452 294.934 409.457Z" fill="#A4D7FF"/>
<path d="M185.373 457.758C187.374 457.758 188.996 456.133 188.996 454.127C188.996 452.122 187.374 450.496 185.373 450.496C183.372 450.496 181.75 452.122 181.75 454.127C181.75 456.133 183.372 457.758 185.373 457.758Z" fill="#A4D7FF"/>
<path d="M210.496 466.565C210.496 468.57 208.874 470.196 206.873 470.196C204.872 470.196 203.25 468.57 203.25 466.565C203.25 464.56 204.872 462.934 206.873 462.934C208.874 462.934 210.496 464.559 210.496 466.565Z" fill="#A4D7FF"/>
<path d="M210.496 491.442C210.496 493.447 208.874 495.073 206.873 495.073C204.872 495.073 203.25 493.447 203.25 491.442C203.25 489.436 204.872 487.811 206.873 487.811C208.874 487.81 210.496 489.436 210.496 491.442Z" fill="#A4D7FF"/>
<path d="M188.996 503.879C188.996 505.885 187.374 507.51 185.373 507.51C183.372 507.51 181.75 505.885 181.75 503.879C181.75 501.874 183.372 500.248 185.373 500.248C187.374 500.248 188.996 501.874 188.996 503.879Z" fill="#A4D7FF"/>
<path d="M167.504 491.442C167.504 493.447 165.882 495.073 163.881 495.073C161.88 495.073 160.258 493.447 160.258 491.442C160.258 489.436 161.88 487.811 163.881 487.811C165.882 487.81 167.504 489.436 167.504 491.442Z" fill="#A4D7FF"/>
<path d="M163.881 470.196C165.882 470.196 167.504 468.57 167.504 466.565C167.504 464.559 165.882 462.934 163.881 462.934C161.88 462.934 160.258 464.559 160.258 466.565C160.258 468.57 161.88 470.196 163.881 470.196Z" fill="#A4D7FF"/>
<path d="M188.996 454.127C188.996 456.133 187.374 457.758 185.373 457.758C183.372 457.758 181.75 456.132 181.75 454.127C181.75 452.122 183.372 450.496 185.373 450.496C187.374 450.496 188.996 452.122 188.996 454.127Z" fill="#A4D7FF"/>
<path d="M19.5038 528.532C19.5038 530.537 17.8819 532.163 15.8808 532.163C13.8797 532.163 12.2578 530.537 12.2578 528.532C12.2578 526.526 13.8797 524.9 15.8808 524.9C17.8815 524.9 19.5038 526.526 19.5038 528.532Z" fill="#A4D7FF"/>
<path d="M40.2695 540.547C40.2695 542.553 38.6476 544.178 36.6465 544.178C34.6454 544.178 33.0234 542.553 33.0234 540.547C33.0234 538.542 34.6454 536.916 36.6465 536.916C38.6472 536.916 40.2695 538.542 40.2695 540.547Z" fill="#A4D7FF"/>
<path d="M40.2695 564.577C40.2695 566.582 38.6476 568.208 36.6465 568.208C34.6454 568.208 33.0234 566.582 33.0234 564.577C33.0234 562.571 34.6454 560.945 36.6465 560.945C38.6472 560.945 40.2695 562.571 40.2695 564.577Z" fill="#A4D7FF"/>
<path d="M19.5038 576.594C19.5038 578.6 17.8819 580.225 15.8808 580.225C13.8797 580.225 12.2578 578.599 12.2578 576.594C12.2578 574.589 13.8797 572.963 15.8808 572.963C17.8815 572.963 19.5038 574.588 19.5038 576.594Z" fill="#A4D7FF"/>
<path d="M19.5038 528.532C19.5038 530.537 17.8819 532.163 15.8808 532.163C13.8797 532.163 12.2578 530.537 12.2578 528.532C12.2578 526.526 13.8797 524.9 15.8808 524.9C17.8815 524.9 19.5038 526.526 19.5038 528.532Z" fill="#A4D7FF"/>
<path d="M104.254 499.619C104.254 501.625 102.632 503.251 100.631 503.251C98.6297 503.251 97.0078 501.625 97.0078 499.619C97.0078 497.614 98.6297 495.988 100.631 495.988C102.632 495.988 104.254 497.614 104.254 499.619Z" fill="#A4D7FF"/>
<path d="M149.996 526.092C149.996 528.098 148.374 529.723 146.373 529.723C144.372 529.723 142.75 528.097 142.75 526.092C142.75 524.087 144.372 522.461 146.373 522.461C148.374 522.461 149.996 524.087 149.996 526.092Z" fill="#A4D7FF"/>
<path d="M149.996 579.032C149.996 581.037 148.374 582.663 146.373 582.663C144.372 582.663 142.75 581.037 142.75 579.032C142.75 577.026 144.372 575.4 146.373 575.4C148.374 575.4 149.996 577.026 149.996 579.032Z" fill="#A4D7FF"/>
<path d="M104.254 605.504C104.254 607.51 102.632 609.135 100.631 609.135C98.6297 609.135 97.0078 607.51 97.0078 605.504C97.0078 603.499 98.6297 601.873 100.631 601.873C102.632 601.873 104.254 603.499 104.254 605.504Z" fill="#A4D7FF"/>
<path d="M58.5039 579.032C58.5039 581.037 56.8816 582.663 54.8808 582.663C52.8797 582.663 51.2578 581.037 51.2578 579.032C51.2578 577.026 52.8801 575.4 54.8808 575.4C56.8816 575.4 58.5039 577.026 58.5039 579.032Z" fill="#A4D7FF"/>
<path d="M58.5039 526.092C58.5039 528.098 56.8816 529.723 54.8808 529.723C52.8797 529.723 51.2578 528.097 51.2578 526.092C51.2578 524.087 52.8801 522.461 54.8808 522.461C56.8816 522.461 58.5039 524.087 58.5039 526.092Z" fill="#A4D7FF"/>
<path d="M104.254 499.621C104.254 501.627 102.632 503.253 100.631 503.253C98.6297 503.253 97.0078 501.627 97.0078 499.621C97.0078 497.616 98.6297 495.99 100.631 495.99C102.632 495.99 104.254 497.616 104.254 499.621Z" fill="#A4D7FF"/>
<path d="M358.488 536.553C358.488 538.559 356.866 540.184 354.865 540.184C352.864 540.184 351.242 538.559 351.242 536.553C351.242 534.547 352.865 532.922 354.865 532.922C356.866 532.922 358.488 534.547 358.488 536.553Z" fill="#A4D7FF"/>
<path d="M358.488 568.573C358.488 570.578 356.866 572.204 354.865 572.204C352.864 572.204 351.242 570.578 351.242 568.573C351.242 566.567 352.865 564.941 354.865 564.941C356.866 564.941 358.488 566.567 358.488 568.573Z" fill="#A4D7FF"/>
<path d="M344.66 560.567C344.66 562.572 343.038 564.198 341.037 564.198C339.036 564.198 337.414 562.572 337.414 560.567C337.414 558.561 339.036 556.936 341.037 556.936C343.038 556.936 344.66 558.561 344.66 560.567Z" fill="#A4D7FF"/>
<path d="M344.66 544.559C344.66 546.565 343.038 548.19 341.037 548.19C339.036 548.19 337.414 546.565 337.414 544.559C337.414 542.553 339.036 540.928 341.037 540.928C343.038 540.928 344.66 542.553 344.66 544.559Z" fill="#A4D7FF"/>
<path d="M358.488 536.553C358.488 538.559 356.866 540.184 354.865 540.184C352.864 540.184 351.242 538.558 351.242 536.553C351.242 534.547 352.865 532.922 354.865 532.922C356.866 532.921 358.488 534.547 358.488 536.553Z" fill="#A4D7FF"/>
<path d="M125.441 576.229C125.441 578.234 123.819 579.86 121.818 579.86C119.817 579.86 118.195 578.234 118.195 576.229C118.195 574.224 119.817 572.598 121.818 572.598C123.819 572.597 125.441 574.223 125.441 576.229Z" fill="#A4D7FF"/>
<path d="M136.769 582.785C136.769 584.791 135.148 586.417 133.146 586.417C131.145 586.417 129.523 584.791 129.523 582.785C129.523 580.78 131.146 579.154 133.146 579.154C135.148 579.154 136.769 580.78 136.769 582.785Z" fill="#A4D7FF"/>
<path d="M136.769 595.899C136.769 597.904 135.148 599.53 133.146 599.53C131.145 599.53 129.523 597.904 129.523 595.899C129.523 593.894 131.146 592.268 133.146 592.268C135.148 592.268 136.769 593.893 136.769 595.899Z" fill="#A4D7FF"/>
<path d="M125.441 602.455C125.441 604.461 123.819 606.087 121.818 606.087C119.817 606.087 118.195 604.461 118.195 602.455C118.195 600.45 119.817 598.824 121.818 598.824C123.819 598.824 125.441 600.45 125.441 602.455Z" fill="#A4D7FF"/>
<path d="M114.105 595.899C114.105 597.904 112.483 599.53 110.482 599.53C108.481 599.53 106.859 597.904 106.859 595.899C106.859 593.894 108.482 592.268 110.482 592.268C112.483 592.268 114.105 593.893 114.105 595.899Z" fill="#A4D7FF"/>
<path d="M114.105 582.785C114.105 584.791 112.483 586.417 110.482 586.417C108.481 586.417 106.859 584.791 106.859 582.785C106.859 580.78 108.482 579.154 110.482 579.154C112.483 579.154 114.105 580.78 114.105 582.785Z" fill="#A4D7FF"/>
<path d="M125.441 576.229C125.441 578.234 123.819 579.86 121.818 579.86C119.817 579.86 118.195 578.234 118.195 576.229C118.195 574.223 119.817 572.598 121.818 572.598C123.819 572.597 125.441 574.223 125.441 576.229Z" fill="#A4D7FF"/>
<path d="M248.936 636.891C250.936 636.891 252.559 635.266 252.559 633.26C252.559 631.255 250.936 629.629 248.936 629.629C246.935 629.629 245.312 631.255 245.312 633.26C245.312 635.266 246.935 636.891 248.936 636.891Z" fill="#A4D7FF"/>
<path d="M274.553 651.712C276.554 651.712 278.176 650.086 278.176 648.08C278.176 646.075 276.554 644.449 274.553 644.449C272.552 644.449 270.93 646.075 270.93 648.08C270.93 650.086 272.552 651.712 274.553 651.712Z" fill="#A4D7FF"/>
<path d="M277.356 680C277.861 679.376 278.176 678.591 278.176 677.725C278.176 675.719 276.554 674.094 274.553 674.094C272.552 674.094 270.93 675.72 270.93 677.725C270.93 678.591 271.245 679.376 271.75 680H277.356Z" fill="#A4D7FF"/>
<path d="M226.121 680C226.626 679.376 226.941 678.591 226.941 677.725C226.941 675.719 225.319 674.094 223.318 674.094C221.317 674.094 219.695 675.72 219.695 677.725C219.695 678.591 220.01 679.376 220.515 680H226.121Z" fill="#A4D7FF"/>
<path d="M226.941 648.08C226.941 650.086 225.319 651.712 223.318 651.712C221.317 651.712 219.695 650.086 219.695 648.08C219.695 646.075 221.317 644.449 223.318 644.449C225.319 644.449 226.941 646.075 226.941 648.08Z" fill="#A4D7FF"/>
<path d="M252.559 633.258C252.559 635.264 250.936 636.889 248.936 636.889C246.935 636.889 245.312 635.263 245.312 633.258C245.312 631.253 246.935 629.627 248.936 629.627C250.936 629.627 252.559 631.253 252.559 633.258Z" fill="#A4D7FF"/>
<path d="M337.309 616.938C337.309 618.943 335.687 620.569 333.686 620.569C331.684 620.569 330.062 618.943 330.062 616.938C330.062 614.933 331.684 613.307 333.686 613.307C335.686 613.307 337.309 614.932 337.309 616.938Z" fill="#A4D7FF"/>
<path d="M293.967 643.55C295.968 643.55 297.59 641.924 297.59 639.918C297.59 637.913 295.968 636.287 293.967 636.287C291.966 636.287 290.344 637.913 290.344 639.918C290.344 641.924 291.966 643.55 293.967 643.55Z" fill="#A4D7FF"/>
<path d="M337.309 616.936C337.309 618.941 335.687 620.567 333.686 620.567C331.684 620.567 330.062 618.941 330.062 616.936C330.062 614.93 331.684 613.305 333.686 613.305C335.686 613.305 337.309 614.93 337.309 616.936Z" fill="#A4D7FF"/>
</g>
</g>
<defs>
<clipPath id="clip0_3579_5387">
<rect width="959" height="680" fill="white" transform="translate(-249)"/>
</clipPath>
</defs>
</svg>
