<svg width="14" height="14" viewBox="0 0 14 14" fill="none" xmlns="http://www.w3.org/2000/svg">
<g clip-path="url(#clip0_6691_9222)">
<path d="M12.7695 10.777V10.7188C12.7695 9.03807 11.2113 8.21376 9.86027 7.48636C8.60057 6.80786 7.41016 6.16697 7.41016 4.97656C7.41016 4.84312 7.41016 1.34116 7.41016 1.57013L8.64062 2.8006L9.22061 2.22061L7 0L4.77939 2.22061L5.35938 2.8006L6.58984 1.57013C6.58984 1.69436 6.58984 5.05917 6.58984 4.97656C6.58984 6.16697 5.39943 6.80786 4.13973 7.48636C2.78868 8.21376 1.23047 9.03807 1.23047 10.7188V10.777C0.524809 10.9604 0 11.597 0 12.3594C0 13.2642 0.735793 14 1.64062 14C2.54546 14 3.28125 13.2642 3.28125 12.3594C3.28125 11.597 2.75644 10.9604 2.05078 10.777V10.7188C2.05078 9.52834 3.26854 8.88746 4.52823 8.20895C5.25528 7.81741 6.02511 7.39148 6.58984 6.82547V10.777C5.88418 10.9604 5.35938 11.597 5.35938 12.3594C5.35938 13.2642 6.09517 14 7 14C7.90483 14 8.64062 13.2642 8.64062 12.3594C8.64062 11.597 8.11582 10.9604 7.41016 10.777V6.82547C7.97486 7.39148 8.74472 7.81741 9.47177 8.20895C10.7315 8.88746 11.9492 9.52834 11.9492 10.7188V10.777C11.2436 10.9604 10.7188 11.597 10.7188 12.3594C10.7188 13.2642 11.4545 14 12.3594 14C13.2642 14 14 13.2642 14 12.3594C14 11.597 13.4752 10.9604 12.7695 10.777Z" fill="#0B7AB2"/>
</g>
<defs>
<clipPath id="clip0_6691_9222">
<rect width="14" height="14" fill="white"/>
</clipPath>
</defs>
</svg>
