<svg width="21" height="20" viewBox="0 0 21 20" fill="none" xmlns="http://www.w3.org/2000/svg">
<path d="M18.7422 15.3957V15.3125C18.7422 12.9115 16.5162 11.7339 14.5861 10.6948C12.7865 9.72551 11.0859 8.80996 11.0859 7.10938C11.0859 6.91875 11.0859 1.91594 11.0859 2.24305L12.8438 4.00086L13.6723 3.1723L10.5 0L7.3277 3.1723L8.15625 4.00086L9.91406 2.24305C9.91406 2.42051 9.91406 7.22738 9.91406 7.10938C9.91406 8.80996 8.21348 9.72551 6.41391 10.6948C4.48383 11.7339 2.25781 12.9115 2.25781 15.3125V15.3957C1.24973 15.6577 0.5 16.5671 0.5 17.6562C0.5 18.9489 1.55113 20 2.84375 20C4.13637 20 5.1875 18.9489 5.1875 17.6562C5.1875 16.5671 4.43777 15.6577 3.42969 15.3957V15.3125C3.42969 13.6119 5.16934 12.6964 6.96891 11.7271C8.00754 11.1677 9.1073 10.5593 9.91406 9.75066V15.3957C8.90598 15.6577 8.15625 16.5671 8.15625 17.6562C8.15625 18.9489 9.20738 20 10.5 20C11.7926 20 12.8438 18.9489 12.8438 17.6562C12.8438 16.5671 12.094 15.6577 11.0859 15.3957V9.75066C11.8927 10.5593 12.9925 11.1677 14.0311 11.7271C15.8307 12.6964 17.5703 13.6119 17.5703 15.3125V15.3957C16.5622 15.6577 15.8125 16.5671 15.8125 17.6562C15.8125 18.9489 16.8636 20 18.1562 20C19.4489 20 20.5 18.9489 20.5 17.6562C20.5 16.5671 19.7503 15.6577 18.7422 15.3957Z" fill="white"/>
</svg>
