<svg width="29" height="28" viewBox="0 0 29 28" fill="none" xmlns="http://www.w3.org/2000/svg">
<rect x="0.5" width="28" height="28" rx="4" fill="url(#paint0_linear_13232_10650)"/>
<path d="M12.3207 13.4726C12.0166 12.899 11.1195 12.0015 11.8559 11.406L12.1385 11.205C12.9917 10.593 13.2057 9.41468 12.6222 8.54179L10.9514 6.01679C10.5945 5.46874 9.98492 5.138 9.33089 5.13742C8.68382 5.06679 7.64554 5.82843 7.08218 6.08589C5.94734 6.68999 5.42417 8.03265 5.85109 9.24531C6.73378 11.7391 8.00577 14.0775 9.6198 16.1735C9.6198 16.1735 11.872 13.9229 12.3207 13.4726Z" fill="white"/>
<path d="M23.2502 18.8618C23.1408 18.3506 22.8278 17.9061 22.3834 17.6307L20.0971 16.186C19.1437 15.6078 17.9022 15.912 17.324 16.8653C17.3229 16.8671 17.3219 16.8689 17.3208 16.8707C17.1212 17.122 16.7735 17.2004 16.4854 17.0591C15.5757 16.6114 14.7306 16.0431 13.9729 15.3694L17.7102 11.6321C17.9509 11.3837 17.9446 10.9872 17.6962 10.7465C17.4533 10.5112 17.0674 10.5112 16.8246 10.7466C15.579 11.9869 8.17155 19.4002 7.5221 20.049C7.27233 20.2901 7.2653 20.688 7.50643 20.9378C7.74753 21.1876 8.14546 21.1946 8.39526 20.9535L11.2908 18.0578C13.5148 20.3113 16.3123 21.9142 19.381 22.6934C20.4592 22.9566 21.5854 22.5046 22.1824 21.5691C22.6266 20.8192 23.5583 19.8161 23.2502 18.8618Z" fill="white"/>
<defs>
<linearGradient id="paint0_linear_13232_10650" x1="-5.38528" y1="-4.99957e-07" x2="30.9561" y2="40.2807" gradientUnits="userSpaceOnUse">
<stop stop-color="#F5216C"/>
<stop offset="1" stop-color="#971B47"/>
</linearGradient>
</defs>
</svg>
