<svg width="23" height="19" viewBox="0 0 23 19" fill="none" xmlns="http://www.w3.org/2000/svg">
<path d="M8.3125 2.625C8.19647 2.625 8.08519 2.57891 8.00314 2.49686C7.92109 2.41481 7.875 2.30353 7.875 2.1875V0.4375C7.875 0.321468 7.92109 0.210188 8.00314 0.128141C8.08519 0.0460937 8.19647 0 8.3125 0C8.42853 0 8.53981 0.0460937 8.62186 0.128141C8.70391 0.210188 8.75 0.321468 8.75 0.4375V2.1875C8.75 2.30353 8.70391 2.41481 8.62186 2.49686C8.53981 2.57891 8.42853 2.625 8.3125 2.625Z" fill="white"/>
<path d="M12.5316 4.54496C12.474 4.54529 12.4169 4.53425 12.3636 4.51248C12.3103 4.49071 12.2619 4.45863 12.221 4.41808C12.1395 4.33611 12.0938 4.22523 12.0938 4.10964C12.0938 3.99406 12.1395 3.88318 12.221 3.80121L13.4591 2.56308C13.4983 2.51728 13.5466 2.48009 13.6009 2.45383C13.6551 2.42757 13.7143 2.41281 13.7745 2.41048C13.8348 2.40815 13.8948 2.41831 13.951 2.4403C14.0071 2.4623 14.0581 2.49566 14.1008 2.5383C14.1434 2.58093 14.1768 2.63192 14.1988 2.68807C14.2207 2.74421 14.2309 2.80429 14.2286 2.86454C14.2262 2.92479 14.2115 2.98392 14.1852 3.03819C14.159 3.09247 14.1218 3.14074 14.076 3.17996L12.8422 4.41808C12.8013 4.45863 12.7529 4.49071 12.6996 4.51248C12.6463 4.53425 12.5892 4.54529 12.5316 4.54496Z" fill="white"/>
<path d="M2.89097 14.1886C2.83339 14.189 2.77632 14.1779 2.72301 14.1562C2.66971 14.1344 2.62123 14.1023 2.58035 14.0618C2.49886 13.9798 2.45312 13.8689 2.45312 13.7533C2.45312 13.6377 2.49886 13.5269 2.58035 13.4449L3.81847 12.2068C3.90217 12.1351 4.00982 12.0976 4.11993 12.1019C4.23004 12.1061 4.33449 12.1518 4.41241 12.2297C4.49032 12.3076 4.53597 12.4121 4.54022 12.5222C4.54447 12.6323 4.50702 12.7399 4.43535 12.8236L3.19722 14.0618C3.11573 14.1426 3.00575 14.1882 2.89097 14.1886Z" fill="white"/>
<path d="M2.1875 8.75H0.4375C0.321468 8.75 0.210188 8.70391 0.128141 8.62186C0.0460937 8.53981 0 8.42853 0 8.3125C0 8.19647 0.0460937 8.08519 0.128141 8.00314C0.210188 7.92109 0.321468 7.875 0.4375 7.875H2.1875C2.30353 7.875 2.41481 7.92109 2.49686 8.00314C2.57891 8.08519 2.625 8.19647 2.625 8.3125C2.625 8.42853 2.57891 8.53981 2.49686 8.62186C2.41481 8.70391 2.30353 8.75 2.1875 8.75Z" fill="white"/>
<path d="M4.13136 4.54496C4.07378 4.54529 4.01671 4.53425 3.9634 4.51248C3.9101 4.49071 3.86162 4.45863 3.82074 4.41808L2.58261 3.17996C2.53681 3.14074 2.49962 3.09247 2.47336 3.03819C2.4471 2.98392 2.43234 2.92479 2.43001 2.86454C2.42769 2.80429 2.43784 2.74421 2.45983 2.68807C2.48183 2.63192 2.51519 2.58093 2.55783 2.5383C2.60046 2.49566 2.65145 2.4623 2.7076 2.4403C2.76374 2.41831 2.82382 2.40815 2.88407 2.41048C2.94433 2.41281 3.00345 2.42757 3.05772 2.45383C3.112 2.48009 3.16027 2.51728 3.19949 2.56308L4.43761 3.80121C4.5191 3.88318 4.56483 3.99406 4.56483 4.10964C4.56483 4.22523 4.5191 4.33611 4.43761 4.41808C4.35612 4.49891 4.24614 4.54447 4.13136 4.54496Z" fill="white"/>
<path d="M22.1082 11.418C21.7627 10.8224 21.2838 10.3149 20.7092 9.93539C20.1346 9.55586 19.4798 9.31461 18.7964 9.23054C18.5268 8.18909 17.8905 7.27989 17.0043 6.67001C16.1181 6.06014 15.0416 5.79056 13.9726 5.91082C12.9036 6.03108 11.9139 6.53309 11.1853 7.32461C10.4568 8.11614 10.0384 9.14399 10.007 10.2193C9.7605 10.1715 9.50993 10.1481 9.25886 10.1493C8.73049 10.1479 8.20716 10.2521 7.71958 10.4557C7.232 10.6593 6.78999 10.9582 6.41949 11.3349C5.82285 11.9404 5.43104 12.7176 5.29919 13.5573C5.16735 14.3971 5.3021 15.257 5.68449 16.0162C5.98647 16.6574 6.465 17.1992 7.06399 17.5782C7.66298 17.9571 8.35759 18.1574 9.06636 18.1555H18.4901C19.257 18.1578 20.0095 17.9471 20.6637 17.547C21.318 17.1468 21.8483 16.573 22.1957 15.8893C22.5609 15.1975 22.7444 14.4244 22.729 13.6424C22.7137 12.8603 22.5001 12.095 22.1082 11.418Z" fill="white"/>
<path d="M5.50922 11.0707C5.60255 10.9569 5.6988 10.8475 5.79797 10.7425C6.24877 10.2861 6.78553 9.92352 7.37726 9.67571C7.96899 9.42791 8.60395 9.2998 9.24547 9.29879C9.4682 8.24136 10.0032 7.2751 10.7811 6.52504C11.0001 6.31365 11.2373 6.12187 11.4898 5.95192C11.1588 5.54302 10.7491 5.20463 10.2851 4.95672C9.82101 4.70881 9.31198 4.55641 8.78804 4.50853C8.2641 4.46065 7.73588 4.51825 7.23458 4.67794C6.73328 4.83762 6.26907 5.09616 5.86936 5.43826C5.46965 5.78037 5.14256 6.19911 4.9074 6.66975C4.67224 7.14039 4.53378 7.65338 4.50021 8.17843C4.46664 8.70348 4.53863 9.22993 4.71193 9.72669C4.88524 10.2234 5.15634 10.6804 5.50922 11.0707Z" fill="white"/>
</svg>
