<svg width="310" height="304" viewBox="0 0 310 304" fill="none" xmlns="http://www.w3.org/2000/svg">
<path fill-rule="evenodd" clip-rule="evenodd" d="M251.838 224.918C249.94 226.809 247.302 228.009 244.386 228.009H90.9032C87.9872 228.009 85.3489 226.809 83.4512 224.918C81.5535 223.026 80.3501 220.396 80.3501 217.49V117.652C80.3501 114.745 81.5535 112.116 83.4512 110.224C85.3489 108.333 87.9872 107.133 90.9032 107.133H244.386C247.302 107.133 249.94 108.333 251.838 110.224C253.736 112.116 254.939 114.745 254.939 117.652V217.49C254.939 220.396 253.736 223.026 251.838 224.918Z" fill="#CCCCCC"/>
<path fill-rule="evenodd" clip-rule="evenodd" d="M80.3501 152.3V117.652C80.3501 114.745 81.5535 112.116 83.4512 110.224C85.3489 108.333 87.9872 107.133 90.9032 107.133H132.838C133.116 109.117 133.254 111.101 133.254 113.085C133.254 123.973 128.95 134.307 121.22 142.012C113.491 149.716 103.123 154.007 92.1992 154.007C88.1261 154.007 84.1455 153.453 80.3501 152.3Z" fill="#B7B7B7"/>
<path fill-rule="evenodd" clip-rule="evenodd" d="M244.386 223.672C246.098 223.672 247.626 222.98 248.783 221.873C249.94 220.765 250.588 219.197 250.588 217.49V117.652C250.588 115.945 249.894 114.422 248.783 113.269C247.672 112.162 246.098 111.47 244.386 111.47H90.903C89.1904 111.47 87.663 112.162 86.5058 113.269C85.395 114.376 84.7007 115.945 84.7007 117.652V217.49C84.7007 219.197 85.395 220.719 86.5058 221.873C87.6167 223.026 89.1904 223.672 90.903 223.672H244.386Z" fill="white"/>
<path fill-rule="evenodd" clip-rule="evenodd" d="M133.254 111.47H90.9029C89.1904 111.47 87.663 112.162 86.5058 113.269C85.395 114.376 84.7007 115.945 84.7007 117.652V153.315C87.1538 153.776 89.6995 154.007 92.2452 154.007C103.169 154.007 113.537 149.716 121.266 142.012C128.996 134.307 133.301 123.973 133.301 113.084C133.254 112.577 133.254 112.023 133.254 111.47Z" fill="#E6E6E6"/>
<path fill-rule="evenodd" clip-rule="evenodd" d="M174.495 223.672H240.776L206.895 175.552L219.3 193.176C215.736 195.668 211.385 197.144 206.664 197.144C199.767 197.144 193.611 193.96 189.584 189.024L203.609 175.229L175.375 203.049C174.541 203.88 174.495 205.264 175.328 206.094C175.375 206.14 175.467 206.233 175.513 206.279L174.495 223.672Z" fill="#969696"/>
<path fill-rule="evenodd" clip-rule="evenodd" d="M219.253 193.176L206.848 175.552C206.802 175.46 206.71 175.368 206.617 175.276C205.784 174.445 204.395 174.399 203.562 175.229L189.584 189.024C193.611 193.961 199.767 197.144 206.663 197.144C211.338 197.144 215.689 195.668 219.253 193.176Z" fill="#EAEAEA"/>
<path fill-rule="evenodd" clip-rule="evenodd" d="M174.495 223.672H195.648C195.648 222.98 195.416 222.242 195 221.596L179.957 198.436L175.282 203.003C174.449 203.834 174.403 205.218 175.236 206.048C175.282 206.094 175.375 206.186 175.421 206.233L174.495 223.672Z" fill="#939393"/>
<path fill-rule="evenodd" clip-rule="evenodd" d="M200.554 127.756C205.183 127.756 209.395 129.647 212.449 132.646C215.504 135.691 217.356 139.889 217.356 144.503C217.356 149.117 215.458 153.315 212.449 156.36C209.395 159.405 205.183 161.25 200.554 161.25C195.926 161.25 191.714 159.359 188.659 156.36C185.604 153.315 183.752 149.117 183.752 144.503C183.752 139.889 185.65 135.691 188.659 132.646C191.714 129.647 195.926 127.756 200.554 127.756Z" fill="#BFBFBF"/>
<path fill-rule="evenodd" clip-rule="evenodd" d="M118.536 86.8794C125.803 94.1227 129.459 103.627 129.459 113.131C129.459 122.635 125.803 132.139 118.536 139.382C111.269 146.625 101.734 150.27 92.1993 150.27C82.6645 150.27 73.1297 146.625 65.8628 139.382C58.596 132.139 54.9395 122.635 54.9395 113.131C54.9395 103.627 58.596 94.1227 65.8628 86.8794C73.1297 79.5899 82.6645 75.9913 92.1993 75.9913C101.734 75.9913 111.269 79.6361 118.536 86.8794Z" fill="#AAAAAA"/>
<path fill-rule="evenodd" clip-rule="evenodd" d="M89.7925 223.58C90.1628 223.626 90.5331 223.672 90.9033 223.672H191.852L156.444 169.186C151.908 172.461 146.353 174.399 140.336 174.399C134.597 174.399 129.274 172.646 124.877 169.647L138.994 147.917L89.7925 223.58Z" fill="#969696"/>
<path fill-rule="evenodd" clip-rule="evenodd" d="M156.444 169.186L142.604 147.917C142.419 147.64 142.234 147.41 141.956 147.271C140.938 146.625 139.596 146.902 138.948 147.917L124.831 169.647C129.228 172.646 134.597 174.399 140.29 174.399C146.353 174.399 151.908 172.461 156.444 169.186Z" fill="#EAEAEA"/>
<path fill-rule="evenodd" clip-rule="evenodd" d="M148.946 136.06H163.387C165.192 136.06 166.673 137.536 166.673 139.336C166.673 141.135 165.192 142.611 163.387 142.611H148.946C147.14 142.611 145.659 141.135 145.659 139.336C145.613 137.536 147.094 136.06 148.946 136.06Z" fill="#CFCFCF"/>
<path fill-rule="evenodd" clip-rule="evenodd" d="M158.017 139.936H172.458C174.264 139.936 175.745 141.412 175.745 143.211C175.745 145.01 174.264 146.487 172.458 146.487H158.017C156.212 146.487 154.731 145.01 154.731 143.211C154.685 141.412 156.166 139.936 158.017 139.936Z" fill="#CFCFCF"/>
<path fill-rule="evenodd" clip-rule="evenodd" d="M217.772 160.42H232.213C234.018 160.42 235.499 161.896 235.499 163.695C235.499 165.495 234.018 166.971 232.213 166.971H217.772C215.967 166.971 214.486 165.495 214.486 163.695C214.486 161.896 215.967 160.42 217.772 160.42Z" fill="#CFCFCF"/>
<path fill-rule="evenodd" clip-rule="evenodd" d="M226.844 164.295H241.285C243.09 164.295 244.571 165.772 244.571 167.571C244.571 169.37 243.09 170.847 241.285 170.847H226.844C225.039 170.847 223.558 169.37 223.558 167.571C223.558 165.772 225.039 164.295 226.844 164.295Z" fill="#CFCFCF"/>
<path fill-rule="evenodd" clip-rule="evenodd" d="M204.256 132.415H218.698C220.503 132.415 221.984 133.892 221.984 135.691C221.984 137.49 220.503 138.967 218.698 138.967H204.256C202.451 138.967 200.97 137.49 200.97 135.691C200.97 133.892 202.451 132.415 204.256 132.415Z" fill="#CFCFCF"/>
<path fill-rule="evenodd" clip-rule="evenodd" d="M213.375 136.291H227.816C229.621 136.291 231.102 137.767 231.102 139.566C231.102 141.366 229.621 142.842 227.816 142.842H213.375C211.57 142.842 210.088 141.366 210.088 139.566C210.042 137.767 211.523 136.291 213.375 136.291Z" fill="#CFCFCF"/>
<path fill-rule="evenodd" clip-rule="evenodd" d="M96.6431 154.653H111.084C112.889 154.653 114.37 156.129 114.37 157.975C114.37 159.774 112.889 161.25 111.084 161.25H96.6431C94.838 161.25 93.3105 159.774 93.3105 157.975C93.3105 156.129 94.7917 154.653 96.6431 154.653Z" fill="#CFCFCF"/>
<path fill-rule="evenodd" clip-rule="evenodd" d="M105.715 158.574H120.156C121.961 158.574 123.442 160.051 123.442 161.85C123.442 163.649 121.961 165.126 120.156 165.126H105.715C103.91 165.126 102.429 163.649 102.429 161.85C102.383 160.051 103.864 158.574 105.715 158.574Z" fill="#CFCFCF"/>
<path d="M121.776 113.131C121.776 105.61 118.906 98.0442 113.12 92.3234C107.335 86.5564 99.7901 83.696 92.2455 83.696C84.701 83.696 77.1101 86.5564 71.3707 92.3234C65.585 98.0903 62.7153 105.61 62.7153 113.131C62.7153 120.651 65.585 128.217 71.3707 133.938C77.1564 139.705 84.701 142.565 92.2455 142.565C99.7901 142.565 107.381 139.705 113.12 133.938C118.86 128.171 121.776 120.651 121.776 113.131Z" fill="white"/>
<path fill-rule="evenodd" clip-rule="evenodd" d="M115.481 86.8794C116.315 86.049 117.703 86.049 118.536 86.8794C119.369 87.7099 119.369 89.0939 118.536 89.9244L68.9644 139.382C68.1312 140.212 66.7427 140.212 65.9095 139.382C65.0764 138.551 65.0764 137.167 65.9095 136.337L115.481 86.8794Z" fill="#AAAAAA"/>
</svg>
