<svg width="29" height="29" viewBox="0 0 29 29" fill="none" xmlns="http://www.w3.org/2000/svg">
<rect x="0.259766" y="0.25" width="28" height="28" rx="4" fill="url(#paint0_linear_10598_17861)"/>
<g clip-path="url(#clip0_10598_17861)">
<path d="M22.655 17.3777C21.4305 17.3777 20.2282 17.1862 19.0889 16.8097C18.5306 16.6193 17.8443 16.794 17.5036 17.1439L15.2548 18.8415C12.6468 17.4494 11.0403 15.8434 9.66721 13.2551L11.3149 11.0648C11.7429 10.6373 11.8965 10.0129 11.7125 9.42693C11.3344 8.28161 11.1423 7.0799 11.1423 5.8549C11.1424 4.96995 10.4224 4.25 9.53753 4.25H5.86461C4.97971 4.25 4.25977 4.96995 4.25977 5.85484C4.25977 15.9981 12.5117 24.25 22.655 24.25C23.5399 24.25 24.2598 23.5301 24.2598 22.6452V18.9825C24.2598 18.0977 23.5398 17.3777 22.655 17.3777Z" fill="white"/>
<path d="M14.8223 4.25C14.4768 4.25 14.1973 4.52954 14.1973 4.875C14.1973 5.22046 14.4768 5.5 14.8223 5.5C19.3023 5.5 22.9473 9.145 22.9473 13.625C22.9473 13.9705 23.2268 14.25 23.5723 14.25C23.9177 14.25 24.1973 13.9705 24.1973 13.625C24.1973 8.45533 19.9919 4.25 14.8223 4.25ZM14.8223 6.75C14.4768 6.75 14.1973 7.02954 14.1973 7.375C14.1973 7.72046 14.4768 8 14.8223 8C17.9241 8 20.4473 10.5232 20.4473 13.625C20.4473 13.9705 20.7268 14.25 21.0723 14.25C21.4177 14.25 21.6973 13.9705 21.6973 13.625C21.6973 9.83413 18.6131 6.75 14.8223 6.75ZM14.8223 9.25C14.4768 9.25 14.1973 9.52954 14.1973 9.875C14.1973 10.2205 14.4768 10.5 14.8223 10.5C16.5453 10.5 17.9473 11.902 17.9473 13.625C17.9473 13.9705 18.2268 14.25 18.5723 14.25C18.9177 14.25 19.1973 13.9705 19.1973 13.625C19.1973 11.2129 17.2344 9.25 14.8223 9.25ZM14.8223 11.75C14.4768 11.75 14.1973 12.0295 14.1973 12.375C14.1973 12.7205 14.4768 13 14.8223 13C15.1671 13 15.4473 13.2802 15.4473 13.625C15.4473 13.9705 15.7268 14.25 16.0723 14.25C16.4177 14.25 16.6973 13.9705 16.6973 13.625C16.6973 12.5911 15.8562 11.75 14.8223 11.75Z" fill="white"/>
</g>
<defs>
<linearGradient id="paint0_linear_10598_17861" x1="0.259766" y1="0.25" x2="56.5054" y2="58.7061" gradientUnits="userSpaceOnUse">
<stop stop-color="#8F82F5"/>
<stop offset="1" stop-color="#AFA5FC"/>
</linearGradient>
<clipPath id="clip0_10598_17861">
<rect width="20" height="20" fill="white" transform="translate(4.25977 4.25)"/>
</clipPath>
</defs>
</svg>
