<svg width="10" height="10" viewBox="0 0 10 10" fill="none" xmlns="http://www.w3.org/2000/svg">
<g clip-path="url(#clip0_2504_21175)">
<path d="M5 10C7.76142 10 10 7.76142 10 5C10 2.23858 7.76142 0 5 0C2.23858 0 0 2.23858 0 5C0 7.76142 2.23858 10 5 10Z" fill="#CF0606"/>
<path d="M3.72186 3.08289C3.72117 2.99832 3.68713 2.91743 3.62714 2.85781C3.56715 2.79818 3.48605 2.76464 3.40147 2.76447H2.52384C2.43932 2.76465 2.35829 2.79821 2.2984 2.85785C2.23852 2.91749 2.20462 2.99838 2.2041 3.08289V5.58289C2.20462 5.66747 2.23849 5.74843 2.29836 5.80818C2.35823 5.86792 2.43926 5.90163 2.52384 5.90197H3.40147C3.48616 5.9018 3.56736 5.86817 3.62737 5.80841C3.68738 5.74864 3.72134 5.66759 3.72186 5.58289V3.08289ZM7.45805 5.04408C7.52191 4.99281 7.57004 4.92459 7.59694 4.84725C7.62384 4.7699 7.62843 4.68654 7.61017 4.60671C7.59191 4.52688 7.55155 4.4538 7.4937 4.39583C7.43584 4.33787 7.36284 4.29736 7.28305 4.27895C7.34715 4.2279 7.39555 4.1598 7.42268 4.08248C7.44982 4.00516 7.45459 3.92176 7.43645 3.84185C7.41831 3.76194 7.378 3.68876 7.32014 3.63074C7.26228 3.57271 7.18922 3.53219 7.10937 3.51382C7.17958 3.45723 7.23057 3.38029 7.25532 3.29358C7.28007 3.20686 7.27738 3.1146 7.24761 3.02948C7.21784 2.94435 7.16245 2.87052 7.08905 2.81813C7.01565 2.76573 6.92784 2.73734 6.83766 2.73684L4.36265 2.76447C4.27831 2.76482 4.19752 2.79848 4.13788 2.85812C4.07824 2.91776 4.04458 2.99855 4.04423 3.08289V5.58289C4.04423 5.97763 5.30673 6.70658 5.3745 7.09605C5.4166 7.35395 5.36068 8 5.53437 8C5.8291 8 6.20739 7.88684 6.20739 7.23224C6.20739 6.65461 5.8291 5.90526 5.8291 5.90526H7.36002C7.46714 5.90524 7.57051 5.86579 7.65042 5.79444C7.73032 5.7231 7.78118 5.62484 7.79329 5.51841C7.80541 5.41198 7.77793 5.3048 7.71611 5.21733C7.65428 5.12985 7.56242 5.06818 7.45805 5.04408Z" fill="white"/>
</g>
<defs>
<clipPath id="clip0_2504_21175">
<rect width="10" height="10" fill="white"/>
</clipPath>
</defs>
</svg>
