<svg width="28" height="28" viewBox="0 0 28 28" fill="none" xmlns="http://www.w3.org/2000/svg">
<g clip-path="url(#clip0_7249_6090)">
<path d="M25.7349 7.22614L22.3027 5.69935L20.7746 2.26582L17.0394 2.6559L14.0006 0.452148L10.96 2.6559L7.22663 2.26582L5.69962 5.6978L2.26609 7.22614L2.65639 10.9613L0.452637 14.0001L2.65639 17.0407L2.26609 20.7741L5.69829 22.3009L7.22663 25.7344L10.9618 25.3444L14.0006 27.5481L17.0412 25.3444L20.7746 25.7344L22.3014 22.3022L25.7349 20.7741L25.3446 17.039L27.5486 14.0001L25.3446 10.9596L25.7349 7.22614ZM11.291 19.4193L7.45684 15.5851L8.7349 14.3117L11.291 16.8632L18.9545 9.19969L20.2326 10.4775L11.291 19.4193Z" fill="#E24C4B"/>
<circle cx="14" cy="14.0005" r="7.28564" fill="#E24C4B"/>
<path d="M19.6516 19.6516C19.1871 20.1161 18.4129 20.1161 17.9484 19.6516L14 15.7032L10.0516 19.6516C9.58711 20.1161 8.81287 20.1161 8.34837 19.6516C7.88387 19.1871 7.88387 18.4129 8.34837 17.9484L12.2968 14L8.34837 10.0516C7.88387 9.58711 7.88387 8.81287 8.34837 8.34837C8.81287 7.88387 9.58711 7.88387 10.0516 8.34837L14 12.2968L17.9484 8.34837C18.4129 7.88387 19.1871 7.88387 19.6516 8.34837C20.1161 8.81287 20.1161 9.58711 19.6516 10.0516L15.7032 14L19.6516 17.9484C20.1161 18.4129 20.1161 19.1871 19.6516 19.6516Z" fill="white"/>
</g>
<defs>
<clipPath id="clip0_7249_6090">
<rect width="28" height="28" fill="white"/>
</clipPath>
</defs>
</svg>
