<svg width="19" height="18" viewBox="0 0 19 18" fill="none" xmlns="http://www.w3.org/2000/svg">
<path d="M17.0336 13.14C16.5419 12.7277 13.6586 10.9018 13.1793 10.9856C12.9543 11.0256 12.7822 11.2174 12.3215 11.7669C12.1085 12.0374 11.8745 12.2908 11.6217 12.5246C11.1587 12.4128 10.7105 12.2466 10.2864 12.0296C8.62322 11.2199 7.27961 9.87589 6.47038 8.2125C6.25338 7.78841 6.08723 7.34018 5.97538 6.87712C6.20922 6.62439 6.46256 6.39042 6.73306 6.17738C7.28206 5.71669 7.47444 5.54569 7.51438 5.31956C7.59819 4.83919 5.77063 1.95694 5.36 1.46531C5.18788 1.26169 5.0315 1.125 4.83125 1.125C4.25075 1.125 1.625 4.37175 1.625 4.7925C1.625 4.82681 1.68125 8.20688 5.95006 12.5499C10.2931 16.8188 13.6732 16.875 13.7075 16.875C14.1283 16.875 17.375 14.2492 17.375 13.6687C17.375 13.4685 17.2383 13.3121 17.0336 13.14Z" fill="white"/>
<path d="M13.4375 8.4375H14.5625C14.5612 7.24444 14.0866 6.10062 13.243 5.257C12.3994 4.41338 11.2556 3.93884 10.0625 3.9375V5.0625C10.9573 5.06339 11.8153 5.41926 12.448 6.052C13.0807 6.68474 13.4366 7.54267 13.4375 8.4375Z" fill="white"/>
<path d="M16.25 8.4375H17.375C17.3728 6.49879 16.6016 4.64012 15.2308 3.26925C13.8599 1.89837 12.0012 1.12723 10.0625 1.125V2.25C11.7029 2.25194 13.2756 2.90445 14.4356 4.06441C15.5955 5.22438 16.2481 6.79707 16.25 8.4375Z" fill="white"/>
</svg>
