<svg width="20" height="20" viewBox="0 0 20 20" fill="none" xmlns="http://www.w3.org/2000/svg">
<g clip-path="url(#clip0_18278_15020)">
<path fill-rule="evenodd" clip-rule="evenodd" d="M15 20H5C3.67394 19.9999 2.4022 19.4731 1.46453 18.5355C0.526861 17.5978 5.80115e-05 16.3261 0 15L0 5C5.80115e-05 3.67394 0.526861 2.4022 1.46453 1.46453C2.4022 0.526861 3.67394 5.80115e-05 5 0L15 0C16.3261 0 17.5979 0.526784 18.5355 1.46447C19.4732 2.40215 20 3.67392 20 5V15C20 16.3261 19.4732 17.5979 18.5355 18.5355C17.5979 19.4732 16.3261 20 15 20Z" fill="#DD93FF"/>
<path fill-rule="evenodd" clip-rule="evenodd" d="M9.375 5.625H15C15.721 5.62496 16.4145 5.34802 16.9372 4.85138C17.4599 4.35474 17.7719 3.67633 17.8088 2.95625C17.8457 2.23617 17.6047 1.52942 17.1355 0.981957C16.6663 0.434491 16.0047 0.0881194 15.2875 0.014375C15.1919 0.0090625 15.0972 0 15 0H5C3.67394 5.80115e-05 2.4022 0.526861 1.46453 1.46453C0.526861 2.4022 5.80115e-05 3.67394 0 5L0 15C5.80137e-05 12.5136 0.987797 10.1291 2.74594 8.37094C4.50408 6.6128 6.88861 5.62506 9.375 5.625Z" fill="#E2A9FD"/>
<path fill-rule="evenodd" clip-rule="evenodd" d="M15 10C14.0111 10 13.0444 10.2932 12.2222 10.8427C11.3999 11.3921 10.759 12.173 10.3806 13.0866C10.0022 14.0002 9.90315 15.0055 10.0961 15.9755C10.289 16.9454 10.7652 17.8363 11.4645 18.5355C12.1637 19.2348 13.0546 19.711 14.0246 19.9039C14.9945 20.0969 15.9998 19.9978 16.9134 19.6194C17.8271 19.241 18.6079 18.6001 19.1574 17.7779C19.7068 16.9556 20 15.9889 20 15V5C20 6.32608 19.4732 7.59785 18.5355 8.53553C17.5979 9.47322 16.3261 10 15 10Z" fill="#DA7CFF"/>
<path d="M5 9.85943V6.05162C5 4.47467 6.70703 3.48912 8.07266 4.2774L11.3703 6.18131L14.668 8.08522C16.0352 8.87389 16.0352 10.845 14.668 11.6337L11.3703 13.5376L8.07266 15.4415C6.70547 16.2297 5 15.2462 5 13.6672V9.85943Z" fill="white"/>
</g>
<defs>
<clipPath id="clip0_18278_15020">
<rect width="20" height="20" fill="white"/>
</clipPath>
</defs>
</svg>
