<svg width="12" height="16" viewBox="0 0 12 16" fill="none" xmlns="http://www.w3.org/2000/svg">
<path d="M7.17988 5.32652C7.21488 5.88075 7.7023 6.39823 8.32446 6.39823C9.29107 6.39823 9.79492 5.21738 9.1802 4.4618C8.51647 3.64597 7.11557 4.30801 7.17988 5.32652ZM8.21808 6.06261C7.84993 6.01573 7.53133 5.67626 7.508 5.30597C7.46433 4.61655 8.45742 4.09494 8.92527 4.66942C9.38842 5.23844 8.97419 6.16041 8.21808 6.06261Z" fill="black"/>
<path d="M4.52755 7.30825C4.47533 7.23398 4.3728 7.216 4.29864 7.26801C4.22426 7.32003 4.20617 7.42255 4.25829 7.49704C5.35281 9.05954 6.68821 8.79415 7.01899 9.57281C7.04564 9.63531 7.10643 9.67277 7.17042 9.67277C7.2878 9.67277 7.36766 9.55267 7.32164 9.44396C6.90132 8.45595 5.5933 8.83048 4.52755 7.30825Z" fill="black"/>
<path d="M4.66305 10.6813C3.87195 10.398 3.23197 9.75754 2.66733 9.19269C2.60311 9.12848 2.49909 9.12848 2.43488 9.19269C2.37067 9.2569 2.37067 9.36093 2.43488 9.42514C3.02392 10.0146 3.69162 10.6826 4.55217 10.9908C5.05533 11.1711 5.80222 11.257 5.99813 11.7905C6.02263 11.8571 6.08546 11.8982 6.15245 11.8982C6.26675 11.8982 6.34611 11.7843 6.30677 11.6771C6.04466 10.9642 5.14717 10.855 4.66305 10.6813Z" fill="black"/>
<path d="M3.12155 2.36311C3.06515 2.43417 3.07703 2.53755 3.14809 2.59406C4.06454 3.30518 4.02992 3.33015 4.13257 3.33015C4.28799 3.33015 4.35656 3.13351 4.23488 3.03712L3.3525 2.33635C3.28154 2.27985 3.17805 2.29205 3.12155 2.36311Z" fill="black"/>
<path d="M4.72345 2.8861C4.81056 2.86041 4.86043 2.76902 4.83485 2.6819L4.51165 1.5828C4.48597 1.4959 4.39425 1.44603 4.30756 1.4715C4.22045 1.49718 4.17058 1.58858 4.19616 1.6757L4.51936 2.7748C4.54506 2.86195 4.63644 2.91147 4.72345 2.8861Z" fill="black"/>
<path d="M5.72436 1.01328L5.24148 2.40797C5.21184 2.49381 5.25732 2.58734 5.34315 2.61709C5.42615 2.64609 5.52183 2.60343 5.55227 2.51542L6.03493 1.12073C6.06468 1.0349 6.0192 0.941365 5.93348 0.911613C5.84722 0.881434 5.7539 0.927452 5.72436 1.01328Z" fill="black"/>
<path d="M11.6971 5.99832C11.5587 5.30404 11.1803 3.73012 10.8023 3.13049C10.6763 2.67701 10.2332 2.43591 9.80561 2.52679C8.41983 2.82243 7.12183 2.91776 5.53613 3.1839C5.34135 3.21643 5.09328 3.36476 4.97138 3.52122C3.39554 5.54714 1.98346 7.56698 0.44484 9.58073C0.261354 9.82056 0.182078 10.1144 0.210693 10.4132C0.0617647 11.0262 0.60283 11.5131 1.08357 11.9095C2.32155 12.9302 3.56779 13.9566 4.96614 14.7435C6.06931 15.3641 6.5481 15.141 7.22325 14.2454C8.56506 12.4657 9.9084 10.6838 11.109 8.8059C11.8378 7.66608 11.9342 7.18749 11.6971 5.99832ZM11.0683 7.51052C9.74985 9.61733 8.15781 11.8057 6.50573 14.0495C6.23069 14.4228 5.7125 14.5135 5.32637 14.2562C3.69564 13.1692 2.34249 12.0633 0.885979 11.0007C0.49512 10.7153 0.411573 10.1656 0.705971 9.78021C1.40588 8.86433 2.08707 7.93711 2.74589 7.04049C3.54341 5.95487 4.36811 4.83223 5.2308 3.72328C5.30336 3.62996 5.47481 3.52743 5.5905 3.50795C7.18004 3.24155 8.47372 3.14728 9.87421 2.84828C9.91156 2.84036 9.94901 2.83651 9.98615 2.83651C10.2296 2.83651 10.4531 3.00796 10.5001 3.26331L10.6105 3.86155C10.8611 5.21643 11.0422 6.19545 11.1522 7.14045C11.1643 7.24447 11.1244 7.42084 11.0683 7.51052Z" fill="black"/>
</svg>
