<svg width="21" height="21" viewBox="0 0 21 21" fill="none" xmlns="http://www.w3.org/2000/svg">
<path d="M10.5767 18.0611L13.068 15.5471L10.6063 13.0332L10.1017 13.5378L11.7064 15.1721C10.7715 15.1569 9.9384 15.0395 9.20726 14.8198C8.47611 14.6001 7.89612 14.2758 7.46729 13.8469C7.02783 13.4075 6.69218 12.904 6.46034 12.3365C6.22848 11.769 6.11255 11.1769 6.11255 10.5602C6.11255 10.245 6.13452 9.93962 6.17847 9.64413C6.22242 9.34864 6.29592 9.07057 6.39897 8.80993L5.86481 8.36669C5.73448 8.72432 5.62802 9.08218 5.54544 9.4403C5.46286 9.7984 5.42157 10.1793 5.42157 10.5829C5.42157 11.2852 5.55302 11.9635 5.81593 12.6178C6.07884 13.272 6.4573 13.85 6.9513 14.3515C7.4847 14.8925 8.18062 15.2846 9.03906 15.5278C9.89751 15.771 10.8041 15.885 11.7587 15.8699L10.0721 17.5565L10.5767 18.0611ZM15.6206 12.7991C15.7509 12.4414 15.8573 12.0836 15.9399 11.7255C16.0225 11.3674 16.0638 10.9865 16.0638 10.5829C16.0638 9.88296 15.9236 9.20735 15.6433 8.55604C15.363 7.90474 14.972 7.33171 14.4704 6.83696C13.9643 6.31568 13.2696 5.92964 12.3862 5.67884C11.5029 5.42807 10.5967 5.31253 9.66755 5.33223L11.4132 3.60928L10.9086 3.10467L8.41738 5.61862L10.9086 8.13257L11.4132 7.62796L9.77212 5.98686C10.7616 5.98686 11.6007 6.09293 12.2895 6.30508C12.9782 6.51722 13.5566 6.85796 14.0248 7.3273C14.4536 7.75726 14.7854 8.25662 15.0204 8.82538C15.2553 9.39417 15.3728 9.98757 15.3728 10.6056C15.3728 10.9208 15.3508 11.2261 15.3069 11.5216C15.2629 11.8171 15.1894 12.0952 15.0864 12.3558L15.6206 12.7991ZM10.7353 20.7478C9.34306 20.7478 8.02901 20.4834 6.79312 19.9547C5.55724 19.426 4.4751 18.6979 3.5467 17.7704C2.61833 16.8429 1.88952 15.7618 1.36027 14.5272C0.831029 13.2925 0.566406 11.979 0.566406 10.5868C0.566406 9.17492 0.830763 7.85594 1.35948 6.62991C1.88821 5.40388 2.61632 4.32666 3.54381 3.39827C4.4713 2.46989 5.55237 1.74108 6.78704 1.21184C8.02172 0.682592 9.33516 0.417969 10.7274 0.417969C12.1393 0.417969 13.4582 0.682325 14.6843 1.21104C15.9103 1.73977 16.9875 2.46788 17.9159 3.39537C18.8443 4.32286 19.5731 5.39901 20.1024 6.62382C20.6316 7.84866 20.8962 9.16702 20.8962 10.5789C20.8962 11.9711 20.6319 13.2852 20.1032 14.5211C19.5744 15.757 18.8463 16.8391 17.9188 17.7675C16.9913 18.6959 15.9152 19.4247 14.6904 19.9539C13.4655 20.4832 12.1472 20.7478 10.7353 20.7478ZM10.7313 19.8022C13.2922 19.8022 15.469 18.9059 17.2617 17.1132C19.0543 15.3206 19.9507 13.1438 19.9507 10.5829C19.9507 8.02195 19.0543 5.84516 17.2617 4.05251C15.469 2.25987 13.2922 1.36354 10.7313 1.36354C8.17039 1.36354 5.9936 2.25987 4.20095 4.05251C2.4083 5.84516 1.51198 8.02195 1.51198 10.5829C1.51198 13.1438 2.4083 15.3206 4.20095 17.1132C5.9936 18.9059 8.17039 19.8022 10.7313 19.8022Z" fill="#0B7AB2"/>
</svg>
