<svg width="28" height="28" viewBox="0 0 28 28" fill="none" xmlns="http://www.w3.org/2000/svg">
<path d="M11.0499 26.9532H19.5494C20.9555 26.9532 22.0992 25.8093 22.0992 24.4032V12.5031C22.0992 11.097 20.9555 9.95312 19.5494 9.95312H11.0499C9.64378 9.95312 8.5 11.097 8.5 12.5031V24.4032C8.5 25.8093 9.64378 26.9532 11.0499 26.9532ZM10.1999 12.5031C10.1999 12.0345 10.5809 11.6531 11.0499 11.6531H19.5494C20.0184 11.6531 20.3993 12.0345 20.3993 12.5031V24.4032C20.3993 24.8717 20.0184 25.2532 19.5494 25.2532H11.0499C10.5809 25.2532 10.1999 24.8717 10.1999 24.4032V12.5031Z" fill="#727272"/>
<path d="M25.5009 17.6047V9.10469C25.5009 7.69853 24.3571 6.55469 22.951 6.55469H14.4515C13.9821 6.55469 13.6016 6.93528 13.6016 7.40469C13.6016 7.8741 13.9821 8.25469 14.4515 8.25469H22.951C23.42 8.25469 23.801 8.63611 23.801 9.10469V17.6047C23.801 18.0741 24.1816 18.4547 24.651 18.4547C25.1203 18.4547 25.5009 18.0741 25.5009 17.6047Z" fill="#727272"/>
<path fill-rule="evenodd" clip-rule="evenodd" d="M5.99945 5.14494V6.18551C5.99945 6.31901 5.92255 6.44116 5.80056 6.50147C5.67853 6.56181 5.53213 6.55008 5.42184 6.47109L1.64826 3.76912C1.55835 3.70474 1.50377 3.60362 1.50019 3.49483C1.4966 3.38609 1.54447 3.28173 1.62998 3.21191L5.40361 0.129474C5.51167 0.0411878 5.66238 0.0219279 5.79013 0.0801505C5.91784 0.138373 5.99945 0.263496 5.99945 0.401105V1.39665C8.03472 1.46359 9.53449 2.09355 10.5225 2.98739C12.14 4.45079 12.4154 6.6308 11.4177 8.38363C11.3455 8.51039 11.2015 8.58141 11.0541 8.56295C10.9067 8.54444 10.7858 8.44017 10.7489 8.29973C10.0138 5.50597 7.70804 5.17673 5.99945 5.14494ZM5.63652 4.43343C7.42423 4.43343 9.98648 4.64029 11.1332 7.20833C11.4995 5.92247 11.1412 4.51313 10.029 3.50692C9.09063 2.65793 7.62924 2.09913 5.63652 2.09913C5.43609 2.09913 5.27359 1.94057 5.27359 1.74492V1.15946L2.45084 3.46517L5.27359 5.48635V4.78764C5.27359 4.59203 5.43609 4.43343 5.63652 4.43343Z" fill="#727272"/>
</svg>
