<svg width="22" height="22" viewBox="0 0 22 22" fill="none" xmlns="http://www.w3.org/2000/svg">
<path d="M6.25616 11.0002L8.91449 13.6585C9.09783 13.8418 9.18564 14.0558 9.17803 14.3002C9.17043 14.5447 9.07491 14.7585 8.89158 14.9418C8.70824 15.11 8.49436 15.1978 8.24991 15.2054C8.00547 15.2131 7.79158 15.1252 7.60824 14.9418L3.39158 10.7252C3.20824 10.5418 3.11658 10.328 3.11658 10.0835C3.11658 9.83913 3.20824 9.62518 3.39158 9.44185L7.60824 5.22523C7.77631 5.05718 7.98637 4.97314 8.23845 4.97314C8.49054 4.97314 8.70824 5.05718 8.89158 5.22523C9.07491 5.40856 9.16658 5.62627 9.16658 5.87835C9.16658 6.13044 9.07491 6.34814 8.89158 6.53148L6.25616 9.16685H14.6666C15.9346 9.16685 17.0155 9.61372 17.9093 10.5075C18.803 11.4012 19.2499 12.4822 19.2499 13.7502V16.5002C19.2499 16.76 19.1621 16.9777 18.9864 17.1533C18.8106 17.329 18.5929 17.4168 18.3332 17.4168C18.0736 17.4168 17.8558 17.329 17.6801 17.1533C17.5044 16.9777 17.4166 16.76 17.4166 16.5002V13.7502C17.4166 12.9863 17.1492 12.337 16.6145 11.8023C16.0798 11.2676 15.4304 11.0002 14.6666 11.0002H6.25616Z" fill="white"/>
</svg>
