<svg width="30" height="30" viewBox="0 0 30 30" fill="none" xmlns="http://www.w3.org/2000/svg">
<g clip-path="url(#clip0_11884_11752)">
<path d="M30 15C30 23.2844 23.2844 30 15 30C6.71562 30 0 23.2844 0 15C0 6.71562 6.71562 0 15 0C23.2844 0 30 6.71562 30 15Z" fill="#0B7AB2"/>
<path d="M21.1448 14.2198L12.7073 8.59478C12.4196 8.4032 12.0499 8.38535 11.7451 8.54831C11.4404 8.71151 11.25 9.02919 11.25 9.37481V20.6248C11.25 20.9704 11.4404 21.2881 11.7451 21.4513C12.0499 21.6143 12.4196 21.5964 12.7073 21.4048L21.1448 15.7798C21.4057 15.6059 21.5623 15.3131 21.5623 14.9998C21.5623 14.6865 21.4057 14.3937 21.1448 14.2198Z" fill="white"/>
</g>
<defs>
<clipPath id="clip0_11884_11752">
<rect width="30" height="30" fill="white"/>
</clipPath>
</defs>
</svg>
