<svg width="80" height="40" viewBox="0 0 80 40" fill="none" xmlns="http://www.w3.org/2000/svg">
<g clip-path="url(#clip0_14242_16561)">
<path d="M51.854 26.146L45.405 19.697C47.012 17.922 48.001 15.577 48.001 13C48 7.486 43.514 3 38 3C32.486 3 28 7.486 28 13C28 18.514 32.486 23 38 23C40.577 23 42.922 22.012 44.697 20.404L51.146 26.853C51.244 26.951 51.372 26.999 51.5 26.999C51.628 26.999 51.756 26.95 51.854 26.853C52.049 26.658 52.049 26.341 51.854 26.146ZM29 13C29 8.038 33.038 4 38 4C42.962 4 47 8.038 47 13C47 17.962 42.963 22 38 22C33.037 22 29 17.962 29 13Z" fill="#C7C7C7"/>
</g>
<path d="M24.98 37.07C24.52 37.07 24.1067 36.99 23.74 36.83C23.38 36.6633 23.0967 36.4367 22.89 36.15C22.6833 35.8567 22.5767 35.52 22.57 35.14H23.54C23.5733 35.4667 23.7067 35.7433 23.94 35.97C24.18 36.19 24.5267 36.3 24.98 36.3C25.4133 36.3 25.7533 36.1933 26 35.98C26.2533 35.76 26.38 35.48 26.38 35.14C26.38 34.8733 26.3067 34.6567 26.16 34.49C26.0133 34.3233 25.83 34.1967 25.61 34.11C25.39 34.0233 25.0933 33.93 24.72 33.83C24.26 33.71 23.89 33.59 23.61 33.47C23.3367 33.35 23.1 33.1633 22.9 32.91C22.7067 32.65 22.61 32.3033 22.61 31.87C22.61 31.49 22.7067 31.1533 22.9 30.86C23.0933 30.5667 23.3633 30.34 23.71 30.18C24.0633 30.02 24.4667 29.94 24.92 29.94C25.5733 29.94 26.1067 30.1033 26.52 30.43C26.94 30.7567 27.1767 31.19 27.23 31.73H26.23C26.1967 31.4633 26.0567 31.23 25.81 31.03C25.5633 30.8233 25.2367 30.72 24.83 30.72C24.45 30.72 24.14 30.82 23.9 31.02C23.66 31.2133 23.54 31.4867 23.54 31.84C23.54 32.0933 23.61 32.3 23.75 32.46C23.8967 32.62 24.0733 32.7433 24.28 32.83C24.4933 32.91 24.79 33.0033 25.17 33.11C25.63 33.2367 26 33.3633 26.28 33.49C26.56 33.61 26.8 33.8 27 34.06C27.2 34.3133 27.3 34.66 27.3 35.1C27.3 35.44 27.21 35.76 27.03 36.06C26.85 36.36 26.5833 36.6033 26.23 36.79C25.8767 36.9767 25.46 37.07 24.98 37.07ZM33.6391 34.05C33.6391 34.2233 33.6291 34.4067 33.6091 34.6H29.2291C29.2625 35.14 29.4458 35.5633 29.7791 35.87C30.1191 36.17 30.5291 36.32 31.0091 36.32C31.4025 36.32 31.7291 36.23 31.9891 36.05C32.2558 35.8633 32.4425 35.6167 32.5491 35.31H33.5291C33.3825 35.8367 33.0891 36.2667 32.6491 36.6C32.2091 36.9267 31.6625 37.09 31.0091 37.09C30.4891 37.09 30.0225 36.9733 29.6091 36.74C29.2025 36.5067 28.8825 36.1767 28.6491 35.75C28.4158 35.3167 28.2991 34.8167 28.2991 34.25C28.2991 33.6833 28.4125 33.1867 28.6391 32.76C28.8658 32.3333 29.1825 32.0067 29.5891 31.78C30.0025 31.5467 30.4758 31.43 31.0091 31.43C31.5291 31.43 31.9891 31.5433 32.3891 31.77C32.7891 31.9967 33.0958 32.31 33.3091 32.71C33.5291 33.1033 33.6391 33.55 33.6391 34.05ZM32.6991 33.86C32.6991 33.5133 32.6225 33.2167 32.4691 32.97C32.3158 32.7167 32.1058 32.5267 31.8391 32.4C31.5791 32.2667 31.2891 32.2 30.9691 32.2C30.5091 32.2 30.1158 32.3467 29.7891 32.64C29.4691 32.9333 29.2858 33.34 29.2391 33.86H32.6991ZM34.5003 34.24C34.5003 33.68 34.6136 33.19 34.8403 32.77C35.067 32.3433 35.377 32.0133 35.7703 31.78C36.1703 31.5467 36.6136 31.43 37.1003 31.43C37.5803 31.43 37.997 31.5333 38.3503 31.74C38.7036 31.9467 38.967 32.2067 39.1403 32.52V31.52H40.0603V37H39.1403V35.98C38.9603 36.3 38.6903 36.5667 38.3303 36.78C37.977 36.9867 37.5636 37.09 37.0903 37.09C36.6036 37.09 36.1636 36.97 35.7703 36.73C35.377 36.49 35.067 36.1533 34.8403 35.72C34.6136 35.2867 34.5003 34.7933 34.5003 34.24ZM39.1403 34.25C39.1403 33.8367 39.057 33.4767 38.8903 33.17C38.7236 32.8633 38.497 32.63 38.2103 32.47C37.9303 32.3033 37.6203 32.22 37.2803 32.22C36.9403 32.22 36.6303 32.3 36.3503 32.46C36.0703 32.62 35.847 32.8533 35.6803 33.16C35.5136 33.4667 35.4303 33.8267 35.4303 34.24C35.4303 34.66 35.5136 35.0267 35.6803 35.34C35.847 35.6467 36.0703 35.8833 36.3503 36.05C36.6303 36.21 36.9403 36.29 37.2803 36.29C37.6203 36.29 37.9303 36.21 38.2103 36.05C38.497 35.8833 38.7236 35.6467 38.8903 35.34C39.057 35.0267 39.1403 34.6633 39.1403 34.25ZM42.5081 32.41C42.6681 32.0967 42.8948 31.8533 43.1881 31.68C43.4881 31.5067 43.8515 31.42 44.2781 31.42V32.36H44.0381C43.0181 32.36 42.5081 32.9133 42.5081 34.02V37H41.5981V31.52H42.5081V32.41ZM44.9886 34.25C44.9886 33.6833 45.1019 33.19 45.3286 32.77C45.5553 32.3433 45.8686 32.0133 46.2686 31.78C46.6753 31.5467 47.1386 31.43 47.6586 31.43C48.3319 31.43 48.8853 31.5933 49.3186 31.92C49.7586 32.2467 50.0486 32.7 50.1886 33.28H49.2086C49.1153 32.9467 48.9319 32.6833 48.6586 32.49C48.3919 32.2967 48.0586 32.2 47.6586 32.2C47.1386 32.2 46.7186 32.38 46.3986 32.74C46.0786 33.0933 45.9186 33.5967 45.9186 34.25C45.9186 34.91 46.0786 35.42 46.3986 35.78C46.7186 36.14 47.1386 36.32 47.6586 36.32C48.0586 36.32 48.3919 36.2267 48.6586 36.04C48.9253 35.8533 49.1086 35.5867 49.2086 35.24H50.1886C50.0419 35.8 49.7486 36.25 49.3086 36.59C48.8686 36.9233 48.3186 37.09 47.6586 37.09C47.1386 37.09 46.6753 36.9733 46.2686 36.74C45.8686 36.5067 45.5553 36.1767 45.3286 35.75C45.1019 35.3233 44.9886 34.8233 44.9886 34.25ZM54.1228 31.42C54.5361 31.42 54.9095 31.51 55.2428 31.69C55.5761 31.8633 55.8361 32.1267 56.0228 32.48C56.2161 32.8333 56.3128 33.2633 56.3128 33.77V37H55.4128V33.9C55.4128 33.3533 55.2761 32.9367 55.0028 32.65C54.7295 32.3567 54.3561 32.21 53.8828 32.21C53.4028 32.21 53.0195 32.36 52.7328 32.66C52.4528 32.96 52.3128 33.3967 52.3128 33.97V37H51.4028V29.6H52.3128V32.3C52.4928 32.02 52.7395 31.8033 53.0528 31.65C53.3728 31.4967 53.7295 31.42 54.1228 31.42Z" fill="#C7C7C7"/>
<defs>
<clipPath id="clip0_14242_16561">
<rect width="24" height="24" fill="white" transform="translate(28 3)"/>
</clipPath>
</defs>
</svg>
