<svg width="16" height="17" viewBox="0 0 16 17" fill="none" xmlns="http://www.w3.org/2000/svg">
<g clip-path="url(#clip0_7263_6541)">
<path d="M15.7731 4.49927C15.6476 4.46692 15.5199 4.54239 15.4876 4.66776C15.4004 5.00623 15.237 5.30885 15.0188 5.55969C14.975 5.44779 14.9085 5.34488 14.8222 5.25963C14.7175 5.15616 14.5871 5.08076 14.4452 5.04154L14.0585 4.93476V4.58723C14.3086 4.36652 14.4571 4.04602 14.4571 3.70556V3.46647C14.4571 3.03678 14.2038 2.64529 13.8118 2.4691C13.526 2.34063 13.1981 2.34063 12.9122 2.4691C12.5202 2.64529 12.2669 3.03678 12.2669 3.46647V3.70556C12.2669 4.04602 12.4155 4.36652 12.6655 4.58723V4.93476L12.2789 5.04154C12.1369 5.08073 12.0066 5.15616 11.9019 5.25963C11.816 5.34451 11.7496 5.44688 11.7058 5.55819C11.6184 5.45775 11.5397 5.34857 11.4708 5.23169C11.5863 4.87445 11.6474 4.49942 11.6474 4.12096C11.6474 3.73274 11.5857 3.35872 11.4721 3.00785C11.8667 2.34107 12.589 1.92755 13.3621 1.92755C14.3993 1.92755 15.3035 2.66441 15.5118 3.67965C15.5346 3.79056 15.6322 3.86696 15.7412 3.86696C15.7568 3.86696 15.7726 3.8654 15.7886 3.86212C15.9154 3.83609 15.997 3.71221 15.971 3.58543C15.7181 2.3531 14.6209 1.45874 13.3621 1.45874C12.537 1.45874 11.7597 1.84655 11.2586 2.49004C10.6609 1.31049 9.43603 0.5 8.0253 0.5C7.43187 0.5 6.84306 0.647248 6.32254 0.92587C6.20841 0.986963 6.16541 1.12899 6.22651 1.24309C6.2876 1.35718 6.4296 1.40021 6.54372 1.33912C6.99643 1.09684 7.50877 0.968744 8.0253 0.968744C9.76409 0.968744 11.1787 2.38279 11.1787 4.1209C11.1787 4.84057 10.9415 5.51863 10.4926 6.08175C10.4305 6.15962 10.3645 6.23396 10.2956 6.30534C10.2472 6.10584 10.1442 5.92053 9.99693 5.77503C9.86212 5.64181 9.69422 5.54469 9.51144 5.49419L8.91066 5.32826C8.90688 5.32722 8.90422 5.32376 8.90422 5.31985V4.72829C9.25206 4.43733 9.46019 4.00352 9.46019 3.5415V3.208C9.46019 2.64504 9.12832 2.13214 8.6147 1.9013C8.24011 1.73295 7.81042 1.73295 7.43587 1.9013C6.92225 2.13214 6.59038 2.64504 6.59038 3.208V3.5415C6.59038 4.00352 6.7985 4.43733 7.14634 4.72829V5.31985C7.14634 5.32376 7.14368 5.32719 7.1399 5.32826L6.53913 5.49419C6.35635 5.54469 6.18847 5.64181 6.05363 5.77503C5.90623 5.92069 5.80323 6.10622 5.75479 6.3059C5.69479 6.24371 5.63714 6.17903 5.5822 6.11181C5.12414 5.55125 4.8719 4.84423 4.8719 4.12093C4.8719 3.31384 5.17817 2.54557 5.73435 1.95764C5.82329 1.86361 5.81917 1.71527 5.72514 1.6263C5.63107 1.53736 5.48273 1.54146 5.3938 1.63552C5.15011 1.89314 4.94833 2.18098 4.79177 2.48991C4.29087 1.84602 3.51557 1.45864 2.68855 1.45864C1.22006 1.45864 0.0253906 2.65294 0.0253906 4.12096C0.0253906 5.58897 1.22006 6.78327 2.68855 6.78327C3.51782 6.78327 4.29197 6.39596 4.79255 5.75116C4.91002 5.9839 5.05271 6.20462 5.21924 6.4084C5.70807 7.00664 6.37922 7.43564 7.12093 7.62726V9.83367C7.12093 9.96311 7.22587 10.068 7.3553 10.068C7.48474 10.068 7.58968 9.96311 7.58968 9.83367V7.62151C7.58968 7.36614 7.7973 7.15839 8.05248 7.15839C8.17611 7.15839 8.29217 7.20652 8.37976 7.29433C8.46717 7.38151 8.51529 7.49773 8.51529 7.62154V11.8243C8.51529 11.9537 8.62023 12.0587 8.74966 12.0587C8.8791 12.0587 8.98404 11.9537 8.98404 11.8243V10.4409C8.98404 10.4405 8.9841 10.4401 8.9841 10.4397C8.9841 10.1844 9.19172 9.97661 9.44691 9.97661C9.70209 9.97661 9.90968 10.1844 9.90968 10.4397V11.8243C9.90968 11.9537 10.0146 12.0587 10.1441 12.0587C10.2735 12.0587 10.3784 11.9537 10.3784 11.8243V10.7777C10.3784 10.5224 10.586 10.3146 10.8413 10.3146C11.0964 10.3146 11.304 10.5224 11.304 10.7777V12.0146C11.304 12.1441 11.409 12.249 11.5384 12.249C11.6678 12.249 11.7728 12.1441 11.7728 12.0146V11.3059C11.7728 11.0503 11.9804 10.8424 12.2356 10.8424C12.3592 10.8424 12.4755 10.8906 12.563 10.9779C12.6503 11.0652 12.6985 11.1816 12.6987 11.3043L12.6946 12.3562C12.6941 12.4856 12.7987 12.591 12.9281 12.5915H12.929C13.058 12.5915 13.1629 12.4871 13.1634 12.358L13.1675 11.3049C13.167 11.0559 13.0701 10.822 12.8942 10.6462C12.7181 10.4704 12.4842 10.3737 12.2356 10.3737C12.0519 10.3737 11.8806 10.4274 11.7362 10.5196C11.624 10.1309 11.2654 9.8458 10.8412 9.8458C10.6325 9.8458 10.4396 9.91486 10.2841 10.0313C10.1325 9.72164 9.81425 9.5078 9.44694 9.5078C9.27853 9.5078 9.12057 9.55296 8.98407 9.63149V7.62148C8.98407 7.61848 8.98388 7.61551 8.98385 7.61251C9.71806 7.41042 10.381 6.97386 10.8592 6.3739C11.0139 6.17987 11.147 5.97065 11.258 5.75072C11.7588 6.39549 12.5342 6.78336 13.3621 6.78336C14.5777 6.78336 15.6384 5.96147 15.9416 4.7847C15.9739 4.65933 15.8984 4.53155 15.7731 4.49927ZM1.44062 5.92384V5.87362C1.44062 5.76891 1.48334 5.66666 1.55784 5.59303C1.60572 5.54575 1.66531 5.51125 1.73021 5.49335L2.01374 5.41504C2.17227 5.6245 2.42024 5.75047 2.68852 5.75047C2.95676 5.75047 3.20476 5.6245 3.36332 5.41504L3.64688 5.49335C3.71175 5.51125 3.77135 5.54572 3.81925 5.59303C3.89375 5.66663 3.93647 5.76891 3.93647 5.87362V5.92394C3.57547 6.17387 3.14198 6.31456 2.68855 6.31456C2.22521 6.31453 1.79521 6.16984 1.44062 5.92384ZM2.4608 4.98048V4.85839C2.53496 4.88042 2.6117 4.89182 2.68855 4.89182C2.76539 4.89182 2.84211 4.88042 2.91629 4.85836V4.98045C2.91629 5.0466 2.93258 5.10988 2.96145 5.16616C2.89151 5.23976 2.79492 5.28169 2.68852 5.28169C2.58214 5.28169 2.48555 5.23976 2.41561 5.16616C2.44452 5.10991 2.4608 5.04663 2.4608 4.98048ZM3.31488 3.70552C3.31488 3.95937 3.1777 4.19489 2.95686 4.32024L2.84942 4.3812C2.7502 4.43752 2.62689 4.43752 2.52764 4.3812L2.42024 4.32027C2.19943 4.19493 2.06218 3.95937 2.06218 3.70556V3.46647C2.06218 3.221 2.2069 2.99735 2.43089 2.89666C2.59458 2.8231 2.78242 2.8231 2.94611 2.89666C3.1701 2.99735 3.31482 3.221 3.31482 3.46647V3.70552H3.31488ZM4.34478 5.55822C4.301 5.44688 4.23462 5.34447 4.14872 5.2596C4.04397 5.15613 3.91363 5.0807 3.77172 5.04151L3.38507 4.93473V4.5872C3.63513 4.36649 3.78366 4.04599 3.78366 3.70552V3.46643C3.78366 3.03675 3.53038 2.64526 3.13835 2.46907C2.85251 2.3406 2.52464 2.3406 2.2388 2.46907C1.84681 2.64526 1.5935 3.03675 1.5935 3.46643V3.70552C1.5935 4.04599 1.74203 4.36649 1.99209 4.5872V4.93473L1.60543 5.04151C1.4635 5.08073 1.33313 5.15613 1.22841 5.2596C1.14263 5.34435 1.07632 5.4466 1.03254 5.55775C0.697601 5.17254 0.494166 4.6702 0.494166 4.12096C0.494166 2.91141 1.47856 1.92739 2.68858 1.92739C3.46341 1.92739 4.18334 2.34029 4.57837 3.0076C4.46318 3.3635 4.40318 3.73837 4.40318 4.12093C4.40318 4.50008 4.46415 4.87514 4.57974 5.23229C4.51081 5.34901 4.432 5.45791 4.34478 5.55822ZM7.61511 5.31985V5.01729C7.74533 5.07457 7.8852 5.10373 8.0253 5.10373C8.16536 5.10373 8.30529 5.07457 8.43548 5.01729V5.31985C8.43548 5.41807 8.4661 5.51085 8.51889 5.58825C8.40279 5.74269 8.22461 5.83256 8.02527 5.83256C7.82592 5.83256 7.64777 5.74269 7.53165 5.58825C7.58449 5.51085 7.61511 5.41804 7.61511 5.31985ZM7.05915 3.208C7.05915 2.82925 7.28246 2.48416 7.62805 2.32885C7.88052 2.21539 8.17008 2.21539 8.42257 2.32885C8.76816 2.48416 8.99147 2.82925 8.99147 3.208V3.5415C8.99147 3.9288 8.78216 4.28817 8.44523 4.47939L8.29542 4.56439C8.12883 4.65892 7.92183 4.65892 7.75521 4.56439L7.6054 4.47939C7.26849 4.28814 7.05915 3.92874 7.05915 3.5415V3.208ZM8.71123 6.96283C8.53545 6.78664 8.30154 6.68962 8.05248 6.68962C7.70127 6.68962 7.39493 6.88511 7.23624 7.17298C6.86103 7.0758 6.50678 6.90836 6.19213 6.68299V6.56562C6.19213 6.39502 6.26175 6.2284 6.38313 6.10847C6.46113 6.0314 6.55822 5.97525 6.66394 5.94603L7.12156 5.81962C7.32327 6.12296 7.6533 6.30134 8.0253 6.30134C8.39729 6.30134 8.72732 6.123 8.92904 5.81962L9.38666 5.94603C9.4924 5.97525 9.5895 6.0314 9.6675 6.10847C9.78887 6.2284 9.85849 6.39502 9.85849 6.56562V6.68283C9.55719 6.89867 9.21938 7.06133 8.86198 7.15998C8.82119 7.0887 8.77085 7.02233 8.71123 6.96283ZM13.1343 4.98048V4.85839C13.2085 4.88042 13.2852 4.89182 13.362 4.89182C13.4389 4.89182 13.5156 4.88042 13.5898 4.85839V4.98048C13.5898 5.04663 13.6061 5.10991 13.635 5.1662C13.565 5.23979 13.4685 5.28172 13.362 5.28172C13.2556 5.28172 13.159 5.23979 13.0891 5.1662C13.118 5.10991 13.1343 5.04663 13.1343 4.98048ZM12.7357 3.46643C12.7357 3.22097 12.8804 2.99731 13.1044 2.89663C13.2681 2.82307 13.456 2.82307 13.6196 2.89663C13.8436 2.99731 13.9884 3.22097 13.9884 3.46643V3.70552C13.9884 3.95937 13.8512 4.19489 13.6303 4.32024L13.5229 4.38117C13.4236 4.43752 13.3004 4.43752 13.2011 4.38117L13.0937 4.32024C12.8729 4.19489 12.7356 3.95933 12.7356 3.70552V3.46643H12.7357ZM12.1141 5.92337V5.87359C12.1141 5.76888 12.1568 5.66663 12.2313 5.593C12.2792 5.54569 12.3388 5.51122 12.4037 5.49332L12.6873 5.41497C12.8458 5.62444 13.0938 5.75044 13.3621 5.75044C13.6304 5.75044 13.8783 5.62447 14.0369 5.415L14.3204 5.49332C14.3853 5.51122 14.4449 5.54572 14.4928 5.593C14.5673 5.6666 14.61 5.76888 14.61 5.87359V5.92519C14.2525 6.17225 13.8208 6.31459 13.3621 6.31459C12.9092 6.31462 12.4755 6.17359 12.1141 5.92337Z" fill="#727272"/>
<path d="M12.9267 13.2168C12.7985 13.2169 12.6919 13.3209 12.6915 13.4503L12.6899 13.8687C12.6546 14.2802 12.5265 14.6856 12.3191 15.0418C12.2127 15.2247 12.1208 15.417 12.0459 15.6132C11.9704 15.8111 11.9106 16.0147 11.8682 16.2181C11.8419 16.3448 11.9232 16.4689 12.05 16.4953C12.1735 16.522 12.3014 16.4412 12.3272 16.3136C12.3644 16.1345 12.4171 15.9551 12.4839 15.7804C12.5497 15.6078 12.6306 15.4386 12.7243 15.2775C12.968 14.8588 13.1179 14.3819 13.1579 13.8983C13.1584 13.8922 13.1586 13.886 13.1586 13.8799L13.1602 13.452C13.1606 13.3226 13.0561 13.2173 12.9267 13.2168Z" fill="#727272"/>
<path d="M7.356 10.6934C7.22657 10.6934 7.12163 10.7983 7.12163 10.9277V12.1217L6.85213 12.3107C6.42742 12.6085 6.17383 13.096 6.17383 13.6149V14.5069C6.17383 15.1392 6.40889 15.7442 6.83576 16.2105L7.03116 16.424C7.07738 16.4745 7.14063 16.5002 7.2041 16.5002C7.26063 16.5002 7.31731 16.4799 7.36228 16.4387C7.45778 16.3513 7.46431 16.203 7.37691 16.1075L7.1815 15.894C6.83395 15.5144 6.64254 15.0217 6.64254 14.5069V13.6149C6.64254 13.2487 6.82148 12.9046 7.12119 12.6945L7.12157 12.6942V13.7436C7.12157 13.873 7.2265 13.978 7.35594 13.978C7.48538 13.978 7.59031 13.873 7.59031 13.7436V10.9277C7.59037 10.7983 7.48544 10.6934 7.356 10.6934Z" fill="#727272"/>
</g>
<defs>
<clipPath id="clip0_7263_6541">
<rect width="16" height="16" fill="white" transform="translate(0 0.5)"/>
</clipPath>
</defs>
</svg>
