<svg width="31" height="30" viewBox="0 0 31 30" fill="none" xmlns="http://www.w3.org/2000/svg">
<circle cx="17" cy="13" r="17" fill="#E6F7FF"/>
<path fill-rule="evenodd" clip-rule="evenodd" d="M22.6712 20.1626C22.6712 23.2948 11.3284 23.2948 11.3284 20.1626C11.3284 17.0305 13.8679 14.4914 17 14.4914C20.1321 14.4914 22.6712 17.0305 22.6712 20.1626ZM8.24477 6.39152C9.15719 6.61906 9.87543 7.33734 10.103 8.24977C10.1118 8.28504 10.1425 8.30902 10.1788 8.30902C10.2151 8.30898 10.2457 8.28504 10.2545 8.24981C10.4821 7.33734 11.2003 6.61906 12.1128 6.39156C12.148 6.38277 12.172 6.35211 12.172 6.31574C12.172 6.27941 12.148 6.24879 12.1128 6.24C11.2003 6.01246 10.482 5.29418 10.2545 4.38168C10.2457 4.34645 10.215 4.32246 10.1787 4.32246C10.1424 4.32246 10.1118 4.34645 10.103 4.38168C9.87551 5.29414 9.15723 6.01242 8.24477 6.23996C8.20953 6.24875 8.18555 6.27941 8.18555 6.31574C8.18555 6.35207 8.20953 6.38273 8.24477 6.39152ZM10.1788 16.2659C9.62289 16.2659 9.17215 15.8152 9.17215 15.2593C9.17215 14.7034 9.62289 14.2526 10.1788 14.2526C10.7347 14.2526 11.1854 14.7034 11.1854 15.2593C11.1854 15.8152 10.7347 16.2659 10.1788 16.2659ZM23.8208 3.48828C24.3767 3.48828 24.8274 3.93902 24.8274 4.49492C24.8274 5.05082 24.3767 5.50156 23.8208 5.50156C23.2649 5.50156 22.8141 5.05082 22.8141 4.49492C22.8141 3.93902 23.2649 3.48828 23.8208 3.48828ZM21.8868 13.5142C22.7993 13.7418 23.5175 14.46 23.745 15.3725C23.7538 15.4077 23.7845 15.4317 23.8209 15.4317C23.8572 15.4317 23.8878 15.4077 23.8966 15.3725C24.1241 14.46 24.8424 13.7417 25.7548 13.5142C25.7901 13.5054 25.8141 13.4747 25.8141 13.4384C25.8141 13.4021 25.7901 13.3714 25.7549 13.3627C24.8424 13.1351 24.1241 12.4168 23.8966 11.5043C23.8878 11.4691 23.8571 11.4451 23.8209 11.4451C23.7845 11.4451 23.7539 11.4691 23.7451 11.5043C23.5176 12.4168 22.7993 13.1351 21.8869 13.3626C21.8517 13.3714 21.8277 13.4021 21.8277 13.4384C21.8276 13.4748 21.8516 13.5054 21.8868 13.5142ZM14.3787 10.3595C14.3787 11.8073 15.5522 12.9808 17 12.9808C18.4477 12.9808 19.6212 11.8073 19.6212 10.3595C19.6212 8.91223 18.4477 7.73867 17 7.73867C15.5523 7.73867 14.3787 8.91223 14.3787 10.3595Z" fill="#0F7AB1"/>
</svg>
