<svg width="29" height="29" viewBox="0 0 29 29" fill="none" xmlns="http://www.w3.org/2000/svg">
<rect x="0.90625" y="0.146484" width="28" height="28" rx="4" fill="url(#paint0_linear_12641_12558)"/>
<g clip-path="url(#clip0_12641_12558)">
<path d="M23.3015 17.2742C22.077 17.2742 20.8747 17.0827 19.7354 16.7062C19.1771 16.5158 18.4908 16.6904 18.1501 17.0404L15.9013 18.738C13.2933 17.3459 11.6868 15.7399 10.3137 13.1515L11.9614 10.9613C12.3894 10.5338 12.543 9.90935 12.359 9.32341C11.9809 8.1781 11.7888 6.97638 11.7888 5.75138C11.7889 4.86643 11.0689 4.14648 10.184 4.14648H6.51109C5.6262 4.14648 4.90625 4.86643 4.90625 5.75133C4.90625 15.8946 13.1582 24.1465 23.3015 24.1465C24.1864 24.1465 24.9063 23.4265 24.9063 22.5416V18.879C24.9063 17.9941 24.1863 17.2742 23.3015 17.2742Z" fill="white"/>
</g>
<defs>
<linearGradient id="paint0_linear_12641_12558" x1="-6.70779" y1="-5.01141" x2="40.4501" y2="44.8482" gradientUnits="userSpaceOnUse">
<stop stop-color="#97CCFC"/>
<stop offset="1" stop-color="#79ADDC"/>
</linearGradient>
<clipPath id="clip0_12641_12558">
<rect width="20" height="20" fill="white" transform="translate(4.90625 4.14648)"/>
</clipPath>
</defs>
</svg>
