<svg width="30" height="30" viewBox="0 0 30 30" fill="none" xmlns="http://www.w3.org/2000/svg">
<circle cx="17" cy="13" r="17" fill="#E6F7FF"/>
<g clip-path="url(#clip0_13706_16676)">
<path d="M24.0766 20.4635L21.6078 21.8894C20.7782 22.3686 19.8871 22.6083 18.9965 22.6084C18.1056 22.6084 17.215 22.3688 16.3851 21.8894L10.7693 18.6478C10.5202 18.5039 10.3418 18.2707 10.267 17.9912C10.1922 17.7116 10.2302 17.4206 10.3741 17.1715C10.7026 16.6021 11.2187 16.1908 11.8273 16.0136C12.4477 15.833 13.1035 15.9151 13.6739 16.2448L15.2625 17.1618L10.3572 8.6652C10.1402 8.28899 10.0831 7.8495 10.1961 7.42754C10.3093 7.00512 10.5789 6.65317 10.9554 6.43641C11.3308 6.21926 11.7705 6.1618 12.1929 6.27493C12.615 6.38797 12.9673 6.65727 13.1847 7.03321L15.4534 10.9639C15.579 10.5813 15.8365 10.2633 16.1861 10.0621C16.7777 9.72051 17.4971 9.79293 18.0062 10.1889C18.1017 9.75668 18.3709 9.3643 18.7831 9.12629C19.4441 8.74582 20.2631 8.88043 20.7713 9.40411C20.8867 9.03856 21.1302 8.73442 21.4629 8.54274C21.8138 8.33946 22.2247 8.28536 22.6195 8.39086C23.0149 8.49649 23.3447 8.74883 23.5483 9.10137L25.9891 13.3285C27.4288 15.8236 26.5708 19.0243 24.0766 20.4635V20.4635ZM10.1277 5.00368C11.6986 4.09704 13.7143 4.637 14.6213 6.20754C14.804 6.52356 14.932 6.86508 15.0018 7.22262C15.0637 7.54024 15.3713 7.74754 15.6891 7.68555C16.0067 7.6236 16.214 7.3159 16.152 6.99825C16.0574 6.51297 15.8837 6.04957 15.636 5.62122C14.4061 3.49145 11.6723 2.75911 9.54176 3.98875C7.41203 5.21868 6.67965 7.9525 7.90883 10.0821C8.15625 10.5123 8.47078 10.8944 8.84363 11.2181C8.95453 11.3143 9.09129 11.3615 9.22746 11.3615C9.39133 11.3615 9.55438 11.2931 9.67023 11.1596C9.88234 10.9152 9.85617 10.5451 9.61176 10.333C9.33793 10.0954 9.10672 9.81434 8.92422 9.49711C8.01758 7.92625 8.55754 5.91051 10.1277 5.00372V5.00368Z" fill="#0F7AB1"/>
</g>
<defs>
<clipPath id="clip0_13706_16676">
<rect width="20" height="20" fill="white" transform="translate(7 3)"/>
</clipPath>
</defs>
</svg>
