<svg width="17" height="16" viewBox="0 0 17 16" fill="none" xmlns="http://www.w3.org/2000/svg">
<path d="M16.155 11.8925L10.4475 1.91228C10.0515 1.21853 9.33828 0.803031 8.54028 0.800781H8.53203C7.73703 0.800781 7.02453 1.21103 6.62478 1.89953L0.852025 11.8423C0.450025 12.533 0.447775 13.3595 0.845275 14.0533C1.24203 14.7455 1.95453 15.1603 2.75178 15.1625L14.2335 15.2H14.241C15.0353 15.2 15.747 14.7905 16.1475 14.1035C16.5495 13.4128 16.5525 12.5863 16.1558 11.8918L16.155 11.8925ZM15.369 13.6513C15.132 14.0585 14.7105 14.3008 14.2403 14.3008H14.2358L2.75403 14.2633C2.28228 14.2618 1.86078 14.0158 1.62528 13.6063C1.38978 13.1953 1.39128 12.7048 1.62903 12.2945L7.40178 2.35178C7.63878 1.94453 8.06103 1.70078 8.53128 1.70078H8.53653C9.00828 1.70228 9.43053 1.94828 9.66603 2.35928L15.3735 12.3395C15.6083 12.7513 15.6075 13.2418 15.369 13.6513ZM8.04978 9.57578V6.01328C8.04978 5.76428 8.25153 5.56328 8.49978 5.56328C8.74803 5.56328 8.94978 5.76503 8.94978 6.01328V9.57578C8.94978 9.82478 8.74803 10.0258 8.49978 10.0258C8.25153 10.0258 8.04978 9.82403 8.04978 9.57578ZM9.09978 11.642C9.09978 11.9743 8.83128 12.2428 8.49978 12.2428C8.16828 12.2428 7.89978 11.9735 7.89978 11.642C7.89978 11.3105 8.16828 11.0413 8.49978 11.0413C8.83128 11.0413 9.09978 11.3105 9.09978 11.642Z" fill="#F2591F"/>
</svg>
