<svg width="16" height="16" viewBox="0 0 16 16" fill="none" xmlns="http://www.w3.org/2000/svg">
<path d="M11.4281 3.47529C6.94469 3.24863 5.62865 3.53529 4.04448 3.47893C2.94163 3.43965 3.14707 3.49468 2.55957 3.56583C2.38647 3.58673 2.23346 3.63236 2.0889 3.70173C1.09382 3.94107 0.940179 4.80193 0.916507 5.82481C0.873338 7.69135 0.952466 9.55834 1.03157 11.4237C1.05308 11.9309 1.08819 12.4761 1.40576 12.8722C1.78974 13.3511 2.46223 13.464 3.07285 13.5265C6.50919 13.8782 9.97522 13.7043 13.4248 13.5237C13.5658 13.5163 13.7158 13.5058 13.8298 13.4223C13.9437 13.3387 13.9941 13.1538 13.8924 13.0557C13.8111 12.9772 13.7151 13.0027 13.4093 13.0147C13.7409 12.793 13.8976 12.4643 13.8967 12.1624C14.1753 9.22981 13.9807 7.11675 13.9966 6.03929C14.0069 5.33616 14.0186 4.53929 13.4935 4.03608C12.9161 3.48287 12.1695 3.51251 11.4281 3.47529ZM13.5687 12.1467C13.5687 12.5394 13.2016 12.9156 12.633 12.9143C9.76532 13.1204 6.9028 13.116 4.04587 12.9203C3.91841 12.9115 3.7872 12.9062 3.65417 12.9008C2.98465 12.8736 2.29234 12.8458 1.85184 12.3593C1.64017 12.1255 1.65746 11.9375 1.64433 11.5712C1.52092 8.98166 1.56289 8.10978 1.62517 6.44319C1.65136 5.73518 1.42513 4.6274 1.96068 4.17392C2.16113 4.0044 2.34606 3.92285 2.59906 3.89203C3.18098 3.82192 2.96381 3.76891 4.03292 3.8077C4.30978 3.81754 4.59595 3.82782 4.92001 3.81326C7.96003 3.72161 6.98782 3.63575 11.6461 3.81369C12.2576 3.83788 12.8351 3.86057 13.266 4.27366C13.6878 4.67756 13.6772 5.39845 13.6679 6.03458C13.6544 6.94136 13.8369 9.30954 13.5687 12.1467Z" fill="black"/>
<path d="M2.47298 5.31314H4.16519C4.25594 5.31314 4.32957 5.23951 4.32957 5.14876C4.32957 5.05801 4.25594 4.98438 4.16519 4.98438H2.47298C2.38222 4.98438 2.30859 5.05801 2.30859 5.14876C2.30859 5.23951 2.38222 5.31314 2.47298 5.31314Z" fill="black"/>
<path d="M6.67415 5.37174H8.71685C8.8076 5.37174 8.88123 5.29811 8.88123 5.20735C8.88123 5.1166 8.8076 5.04297 8.71685 5.04297H6.67415C6.5834 5.04297 6.50977 5.1166 6.50977 5.20735C6.50977 5.29811 6.5834 5.37174 6.67415 5.37174Z" fill="black"/>
<path d="M11.2523 5.37174H12.682C12.7727 5.37174 12.8463 5.29811 12.8463 5.20735C12.8463 5.1166 12.7727 5.04297 12.682 5.04297H11.2523C11.1615 5.04297 11.0879 5.1166 11.0879 5.20735C11.0879 5.29811 11.1615 5.37174 11.2523 5.37174Z" fill="black"/>
<path d="M4.19438 11.2559H2.50227C2.41152 11.2559 2.33789 11.3295 2.33789 11.4202C2.33789 11.511 2.41152 11.5846 2.50227 11.5846H4.19438C4.28513 11.5846 4.35876 11.511 4.35876 11.4202C4.35876 11.3295 4.28513 11.2559 4.19438 11.2559Z" fill="black"/>
<path d="M8.74625 11.3125H6.70345C6.61269 11.3125 6.53906 11.3861 6.53906 11.4769C6.53906 11.5676 6.61269 11.6413 6.70345 11.6413H8.74625C8.83701 11.6413 8.91064 11.5676 8.91064 11.4769C8.91064 11.3861 8.83701 11.3125 8.74625 11.3125Z" fill="black"/>
<path d="M12.7132 11.3125H11.2835C11.1928 11.3125 11.1191 11.3861 11.1191 11.4769C11.1191 11.5676 11.1928 11.6413 11.2835 11.6413H12.7132C12.804 11.6413 12.8776 11.5676 12.8776 11.4769C12.8776 11.3861 12.804 11.3125 12.7132 11.3125Z" fill="black"/>
<path d="M13.042 2.39096C12.9537 2.37084 12.865 2.42413 12.8438 2.51253L12.6686 3.24177C12.6475 3.32996 12.7019 3.41878 12.7902 3.43997C12.8806 3.46108 12.9676 3.40501 12.9884 3.3184L13.1634 2.58916C13.1847 2.50098 13.1303 2.41215 13.042 2.39096Z" fill="black"/>
<path d="M13.6743 3.65041C13.7345 3.65041 13.7926 3.61702 13.8214 3.55944L14.3462 2.50914C14.3868 2.42802 14.3538 2.32935 14.2727 2.28868C14.1914 2.24844 14.0927 2.28119 14.0521 2.36231L13.5273 3.41261C13.4724 3.52246 13.5533 3.65041 13.6743 3.65041Z" fill="black"/>
<path d="M14.8553 3.66628L14.2164 3.99269C14.0632 4.07096 14.119 4.30348 14.2913 4.30348C14.3626 4.30348 14.3492 4.28709 15.0051 3.95909C15.0859 3.91778 15.1179 3.81868 15.0765 3.73777C15.0352 3.65708 14.9361 3.6254 14.8553 3.66628Z" fill="black"/>
<path d="M6.19712 6.38886C6.09081 6.34252 5.97102 6.41783 5.96713 6.53398C5.86342 10.2861 5.78431 10.2014 5.90345 10.299C5.94145 10.3302 5.99259 10.344 6.04504 10.3321C7.12188 10.0815 7.98736 9.5663 8.90356 9.02092C9.05157 8.93274 9.20118 8.84369 9.35326 8.75487C9.44995 8.69858 9.46307 8.56311 9.37873 8.48946C8.40688 7.63736 7.49388 6.95414 6.19712 6.38886Z" fill="black"/>
</svg>
