<svg width="18" height="18" viewBox="0 0 18 18" fill="none" xmlns="http://www.w3.org/2000/svg">
<path d="M14.625 8.99996C14.625 9.14382 14.5701 9.28782 14.4602 9.39765L8.83522 15.0227C8.61543 15.2424 8.25951 15.2424 8.03985 15.0227C7.82019 14.8029 7.82005 14.4469 8.03985 14.2273L13.2672 8.99996L8.03985 3.77265C7.82005 3.55286 7.82005 3.19693 8.03985 2.97728C8.25965 2.75762 8.61557 2.75748 8.83522 2.97728L14.4602 8.60228C14.5701 8.71211 14.625 8.85611 14.625 8.99996ZM9.96022 8.60228L4.33522 2.97728C4.11543 2.75748 3.7595 2.75748 3.53985 2.97728C3.32019 3.19707 3.32005 3.553 3.53985 3.77265L8.76716 8.99996L3.53985 14.2273C3.32005 14.4471 3.32005 14.803 3.53985 15.0227C3.75965 15.2423 4.11557 15.2424 4.33522 15.0227L9.96022 9.39765C10.0701 9.28782 10.125 9.14382 10.125 8.99996C10.125 8.85611 10.0701 8.71211 9.96022 8.60228Z" fill="#005D8C"/>
</svg>
