<svg width="10" height="10" viewBox="0 0 10 10" fill="none" xmlns="http://www.w3.org/2000/svg">
<path d="M5 9C7.20914 9 9 7.20914 9 5C9 2.79086 7.20914 1 5 1C2.79086 1 1 2.79086 1 5C1 7.20914 2.79086 9 5 9Z" fill="#FF1F1F"/>
<path fill-rule="evenodd" clip-rule="evenodd" d="M4.46619 5.97788L4.30632 2.52015C4.27044 1.74381 5.72836 1.74856 5.69271 2.52015L5.53284 5.97788V6.2588C5.53284 6.55215 5.29287 6.79212 4.99951 6.79212C4.70616 6.79212 4.46619 6.55215 4.46619 6.2588V5.97788Z" fill="white"/>
<path d="M5.00006 8.06771C5.29403 8.06771 5.53234 7.8294 5.53234 7.53543C5.53234 7.24145 5.29403 7.00314 5.00006 7.00314C4.70608 7.00314 4.46777 7.24145 4.46777 7.53543C4.46777 7.8294 4.70608 8.06771 5.00006 8.06771Z" fill="white"/>
</svg>
