<svg width="64" height="64" viewBox="0 0 64 64" fill="none" xmlns="http://www.w3.org/2000/svg">
<rect width="64" height="64" rx="32" fill="#0B7AB2"/>
<path d="M33.4062 43.25C33.4062 44.9188 33.9011 46.5501 34.8282 47.9376C35.7554 49.3252 37.0731 50.4066 38.6149 51.0452C40.1566 51.6838 41.8531 51.8509 43.4898 51.5254C45.1265 51.1998 46.63 50.3962 47.81 49.2162C48.99 48.0362 49.7936 46.5328 50.1191 44.8961C50.4447 43.2594 50.2776 41.5629 49.639 40.0211C49.0004 38.4794 47.9189 37.1616 46.5314 36.2345C45.1438 35.3074 43.5125 34.8125 41.8438 34.8125C39.6068 34.815 37.4621 35.7048 35.8803 37.2866C34.2985 38.8684 33.4088 41.013 33.4062 43.25ZM37.8309 46.2684L43.6619 40.4375H39.7344C39.5479 40.4375 39.3691 40.3634 39.2372 40.2316C39.1053 40.0997 39.0312 39.9209 39.0312 39.7344C39.0312 39.5479 39.1053 39.3691 39.2372 39.2372C39.3691 39.1053 39.5479 39.0312 39.7344 39.0312H45.3594C45.5459 39.0312 45.7247 39.1053 45.8566 39.2372C45.9884 39.3691 46.0625 39.5479 46.0625 39.7344V45.3594C46.0625 45.5459 45.9884 45.7247 45.8566 45.8566C45.7247 45.9884 45.5459 46.0625 45.3594 46.0625C45.1729 46.0625 44.9941 45.9884 44.8622 45.8566C44.7303 45.7247 44.6562 45.5459 44.6562 45.3594V41.4319L38.8253 47.2628C38.6935 47.3947 38.5146 47.4688 38.3281 47.4688C38.1416 47.4688 37.9628 47.3947 37.8309 47.2628C37.6991 47.131 37.625 46.9521 37.625 46.7656C37.625 46.5791 37.6991 46.4003 37.8309 46.2684Z" fill="white"/>
<path d="M28.4844 26.375C32.3676 26.375 35.5156 23.227 35.5156 19.3438C35.5156 15.4605 32.3676 12.3125 28.4844 12.3125C24.6011 12.3125 21.4531 15.4605 21.4531 19.3438C21.4531 23.227 24.6011 26.375 28.4844 26.375Z" fill="white"/>
<path d="M33.4592 48.4015C32.6368 47.0648 32.1461 45.5507 32.0281 43.9857C31.9101 42.4207 32.1681 40.8502 32.7807 39.4052C33.3934 37.9603 34.3428 36.6829 35.5497 35.6796C36.7566 34.6763 38.1859 33.9763 39.7185 33.638C36.9836 29.9029 32.9415 27.7812 28.4846 27.7812C24.4836 27.7812 20.7873 29.4938 18.0766 32.6034C15.3464 35.7352 13.808 40.1004 13.7227 44.9336C15.3368 45.7476 21.9642 48.875 28.4846 48.875C30.1537 48.8688 31.8188 48.7103 33.4592 48.4015Z" fill="white"/>
</svg>
