<svg width="28" height="24" viewBox="0 0 28 24" fill="none" xmlns="http://www.w3.org/2000/svg">
<path d="M11.9492 16.5117V14.5973C11.9492 12.4762 13.2039 10.5587 15.1455 9.71215C16.1937 9.25518 16.871 8.22131 16.8711 7.07812C16.8711 6.31239 16.5721 5.59172 16.0292 5.04884C15.4864 4.50595 14.7657 4.20703 14 4.20703C12.4169 4.20703 11.1289 5.49503 11.1289 7.07812V8.30859H7.02734V7.07812C7.02734 3.23348 10.1552 0.105523 13.9998 0.105469C15.8612 0.105469 17.6119 0.831063 18.9295 2.14859C20.2471 3.46613 20.9727 5.21684 20.9727 7.07818C20.9726 9.85313 19.3287 12.3629 16.7847 13.4719C16.3389 13.6663 16.0508 14.108 16.0508 14.5972V16.5117H11.9492Z" fill="#AD6A00"/>
<path d="M14 23.8945C15.1326 23.8945 16.0508 22.9764 16.0508 21.8438C16.0508 20.7111 15.1326 19.793 14 19.793C12.8674 19.793 11.9492 20.7111 11.9492 21.8438C11.9492 22.9764 12.8674 23.8945 14 23.8945Z" fill="#AD6A00"/>
<path d="M2.46094 21.4336H4.10156V23.0742H2.46094V21.4336Z" fill="#AD6A00"/>
<path d="M4.10156 19.793H2.46094V18.057C2.46094 16.9883 3.06398 16.0119 4.03468 15.5087C4.58194 15.2251 4.92188 14.6665 4.92188 14.0508C4.92188 13.6074 4.74769 13.1919 4.43155 12.8809C4.11551 12.5701 3.69715 12.4027 3.25292 12.4104C2.36387 12.4252 1.64062 13.1793 1.64062 14.0913V14.8711H0V14.0913C0 12.2896 1.44692 10.7997 3.22547 10.77C4.11195 10.7549 4.94966 11.0895 5.58184 11.7112C6.21425 12.3331 6.5625 13.164 6.5625 14.0508C6.5625 15.2817 5.88323 16.3985 4.7897 16.9653C4.36527 17.1853 4.10156 17.6036 4.10156 18.057V19.793Z" fill="#AD6A00"/>
<path d="M23.8984 21.4336H25.5391V23.0742H23.8984V21.4336Z" fill="#AD6A00"/>
<path d="M25.5391 19.793H23.8984V18.057C23.8984 16.9883 24.5015 16.0119 25.4722 15.5087C26.0194 15.2251 26.3594 14.6665 26.3594 14.0508C26.3594 13.6074 26.1852 13.1919 25.869 12.8809C25.553 12.5701 25.1354 12.4027 24.6904 12.4104C23.8014 12.4252 23.0781 13.1793 23.0781 14.0913V14.8711H21.4375V14.0913C21.4375 12.2896 22.8844 10.7997 24.663 10.77C25.5503 10.7549 26.3872 11.0895 27.0193 11.7112C27.6517 12.3331 28 13.164 28 14.0508C28 15.2817 27.3207 16.3985 26.2272 16.9653C25.8028 17.1853 25.5391 17.6036 25.5391 18.057V19.793Z" fill="#AD6A00"/>
</svg>
