<svg width="29" height="29" viewBox="0 0 29 29" fill="none" xmlns="http://www.w3.org/2000/svg">
<rect x="0.664062" y="0.896484" width="28" height="28" rx="4" fill="url(#paint0_linear_12641_12594)"/>
<g clip-path="url(#clip0_12641_12594)">
<path d="M14.6652 4.89648C10.4148 4.89648 6.95703 8.3543 6.95703 12.6047C6.95703 14.9953 8.19375 17.7719 10.6332 20.857C12.4184 23.1145 14.1777 24.675 14.2516 24.7402C14.4864 24.9471 14.8409 24.95 15.0789 24.7402C15.1527 24.675 16.9121 23.1145 18.6973 20.857C21.1367 17.7719 22.3734 14.9953 22.3734 12.6047C22.3734 8.3543 18.9156 4.89648 14.6652 4.89648ZM11.4504 16.584C10.2168 15.6 9.50898 14.1305 9.50898 12.5527C9.50898 9.70937 11.8219 7.39648 14.6652 7.39648C17.5086 7.39648 19.8215 9.70937 19.8215 12.5527C19.8215 14.1316 19.1139 15.6348 17.7941 16.6512C15.9169 18.0862 13.2949 18.0562 11.4504 16.584Z" fill="white"/>
<path d="M14.6641 12.709C15.1818 12.709 15.6016 12.2893 15.6016 11.7715C15.6016 11.2537 15.1818 10.834 14.6641 10.834C14.1463 10.834 13.7266 11.2537 13.7266 11.7715C13.7266 12.2893 14.1463 12.709 14.6641 12.709Z" fill="white"/>
<path d="M12.8018 13.2704C12.8927 13.2105 12.914 13.0871 12.8525 12.9972C11.8857 11.5843 12.885 9.58397 14.6641 9.58397C16.445 9.58397 17.4415 11.5853 16.4756 12.9972C16.4141 13.0871 16.4354 13.2105 16.5264 13.2705C17.0205 13.5963 17.4104 14.0421 17.6709 14.5542C17.7403 14.6905 17.9327 14.6997 18.0117 14.5687C18.3875 13.9461 18.5849 13.2235 18.5695 12.4708C18.525 10.2991 16.7427 8.59659 14.5711 8.6476C12.4599 8.69713 10.7578 10.4299 10.7578 12.5527C10.7578 13.2753 10.954 13.968 11.3156 14.5674C11.3949 14.699 11.5876 14.6909 11.6572 14.554C11.9173 14.043 12.3068 13.5969 12.8018 13.2704Z" fill="white"/>
<path d="M16.6678 15.9079C16.7403 15.8643 16.7765 15.7788 16.7575 15.6963L16.7368 15.6063C16.513 14.6363 15.6618 13.959 14.6665 13.959C13.6712 13.959 12.82 14.6363 12.5962 15.6063L12.5753 15.6969C12.5564 15.779 12.5921 15.8643 12.6641 15.9079C13.8446 16.6232 15.4151 16.6617 16.6678 15.9079Z" fill="white"/>
</g>
<defs>
<linearGradient id="paint0_linear_12641_12594" x1="2.13775" y1="2.12455" x2="46.5939" y2="50.7561" gradientUnits="userSpaceOnUse">
<stop stop-color="#F8C44A"/>
<stop offset="1" stop-color="#F7DC9F"/>
</linearGradient>
<clipPath id="clip0_12641_12594">
<rect width="20" height="20" fill="white" transform="translate(4.66406 4.89648)"/>
</clipPath>
</defs>
</svg>
