<svg width="30" height="30" viewBox="0 0 30 30" fill="none" xmlns="http://www.w3.org/2000/svg">
<rect width="30" height="30" rx="15" fill="#D8D3FF"/>
<path d="M15 6.5625C13.2104 6.56455 11.4947 7.27636 10.2293 8.54179C8.96386 9.80722 8.25205 11.5229 8.25 13.3125C8.25 18.4577 14.564 23.1837 14.8329 23.3824C14.8813 23.4182 14.9398 23.4375 15 23.4375C15.0602 23.4375 15.1187 23.4182 15.1671 23.3824C15.436 23.1837 21.75 18.4577 21.75 13.3125C21.748 11.5229 21.0361 9.80722 19.7707 8.54179C18.5053 7.27636 16.7896 6.56455 15 6.5625ZM15 18.375C13.9987 18.375 13.0199 18.0781 12.1874 17.5218C11.3549 16.9655 10.706 16.1749 10.3229 15.2498C9.93969 14.3248 9.83944 13.3069 10.0348 12.3249C10.2301 11.3428 10.7123 10.4408 11.4203 9.73277C12.1283 9.02477 13.0303 8.54261 14.0124 8.34727C14.9944 8.15194 16.0123 8.25219 16.9373 8.63536C17.8624 9.01853 18.653 9.6674 19.2093 10.4999C19.7656 11.3324 20.0625 12.3112 20.0625 13.3125C20.061 14.6547 19.5271 15.9415 18.578 16.8905C17.629 17.8396 16.3422 18.3735 15 18.375ZM11.9062 11.9062V16.125C11.9065 16.1995 11.9362 16.2709 11.9889 16.3236C12.0416 16.3763 12.113 16.406 12.1875 16.4062H13.5938V11.625H12.1875C12.113 11.6252 12.0416 11.6549 11.9889 11.7076C11.9362 11.7603 11.9065 11.8317 11.9062 11.9062ZM12.4688 13.0312C12.4688 12.9567 12.4984 12.8851 12.5511 12.8324C12.6039 12.7796 12.6754 12.75 12.75 12.75C12.8246 12.75 12.8961 12.7796 12.9489 12.8324C13.0016 12.8851 13.0312 12.9567 13.0312 13.0312V13.3125C13.0312 13.3871 13.0016 13.4586 12.9489 13.5114C12.8961 13.5641 12.8246 13.5938 12.75 13.5938C12.6754 13.5938 12.6039 13.5641 12.5511 13.5114C12.4984 13.4586 12.4688 13.3871 12.4688 13.3125V13.0312ZM12.4688 14.4375C12.4688 14.3629 12.4984 14.2914 12.5511 14.2386C12.6039 14.1859 12.6754 14.1562 12.75 14.1562C12.8246 14.1562 12.8961 14.1859 12.9489 14.2386C13.0016 14.2914 13.0312 14.3629 13.0312 14.4375V14.7188C13.0312 14.7933 13.0016 14.8649 12.9489 14.9176C12.8961 14.9704 12.8246 15 12.75 15C12.6754 15 12.6039 14.9704 12.5511 14.9176C12.4984 14.8649 12.4688 14.7933 12.4688 14.7188V14.4375ZM17.8125 10.2188H14.4375C14.363 10.219 14.2916 10.2487 14.2389 10.3014C14.1862 10.3541 14.1565 10.4255 14.1562 10.5V16.4062H15.2812V14.7188C15.2815 14.6442 15.3112 14.5728 15.3639 14.5201C15.4166 14.4674 15.488 14.4377 15.5625 14.4375H16.6875C16.762 14.4377 16.8334 14.4674 16.8861 14.5201C16.9388 14.5728 16.9685 14.6442 16.9688 14.7188V16.4062H17.8125C17.887 16.406 17.9584 16.3763 18.0111 16.3236C18.0638 16.2709 18.0935 16.1995 18.0938 16.125V10.5C18.0935 10.4255 18.0638 10.3541 18.0111 10.3014C17.9584 10.2487 17.887 10.219 17.8125 10.2188ZM15.8438 13.3125C15.8438 13.3871 15.8141 13.4586 15.7614 13.5114C15.7086 13.5641 15.6371 13.5938 15.5625 13.5938C15.4879 13.5938 15.4164 13.5641 15.3636 13.5114C15.3109 13.4586 15.2812 13.3871 15.2812 13.3125V13.0312C15.2812 12.9567 15.3109 12.8851 15.3636 12.8324C15.4164 12.7796 15.4879 12.75 15.5625 12.75C15.6371 12.75 15.7086 12.7796 15.7614 12.8324C15.8141 12.8851 15.8438 12.9567 15.8438 13.0312V13.3125ZM15.8438 11.9062C15.8438 11.9808 15.8141 12.0524 15.7614 12.1051C15.7086 12.1579 15.6371 12.1875 15.5625 12.1875C15.4879 12.1875 15.4164 12.1579 15.3636 12.1051C15.3109 12.0524 15.2812 11.9808 15.2812 11.9062V11.625C15.2812 11.5504 15.3109 11.4789 15.3636 11.4261C15.4164 11.3734 15.4879 11.3438 15.5625 11.3438C15.6371 11.3438 15.7086 11.3734 15.7614 11.4261C15.8141 11.4789 15.8438 11.5504 15.8438 11.625V11.9062ZM16.9688 13.3125C16.9688 13.3871 16.9391 13.4586 16.8864 13.5114C16.8336 13.5641 16.7621 13.5938 16.6875 13.5938C16.6129 13.5938 16.5414 13.5641 16.4886 13.5114C16.4359 13.4586 16.4062 13.3871 16.4062 13.3125V13.0312C16.4062 12.9567 16.4359 12.8851 16.4886 12.8324C16.5414 12.7796 16.6129 12.75 16.6875 12.75C16.7621 12.75 16.8336 12.7796 16.8864 12.8324C16.9391 12.8851 16.9688 12.9567 16.9688 13.0312V13.3125ZM16.9688 11.9062C16.9688 11.9808 16.9391 12.0524 16.8864 12.1051C16.8336 12.1579 16.7621 12.1875 16.6875 12.1875C16.6129 12.1875 16.5414 12.1579 16.4886 12.1051C16.4359 12.0524 16.4062 11.9808 16.4062 11.9062V11.625C16.4062 11.5504 16.4359 11.4789 16.4886 11.4261C16.5414 11.3734 16.6129 11.3438 16.6875 11.3438C16.7621 11.3438 16.8336 11.3734 16.8864 11.4261C16.9391 11.4789 16.9688 11.5504 16.9688 11.625V11.9062Z" fill="#8576FF"/>
</svg>
