<svg width="16" height="16" viewBox="0 0 16 16" fill="none" xmlns="http://www.w3.org/2000/svg">
<path d="M4.96991 2.46458C5.02691 2.33158 4.99158 2.17725 4.88291 2.08225C4.77358 1.98691 4.61625 1.97325 4.49225 2.04758C2.64358 3.15658 1.96125 6.00758 3.03225 8.14891C4.02858 10.1412 4.62991 11.3436 3.69091 13.5352C3.63391 13.6682 3.66925 13.8226 3.77791 13.9176C3.88725 14.0129 4.04458 14.0266 4.16858 13.9522C6.01658 12.8432 6.69891 9.99225 5.62825 7.84991C4.63225 5.85791 4.03091 4.65558 4.96991 2.46458ZM8.63658 2.46458C8.69358 2.33158 8.65825 2.17725 8.54958 2.08225C8.44025 1.98691 8.28291 1.97325 8.15891 2.04758C6.31058 3.15658 5.62825 6.00791 6.69891 8.14925C7.69525 10.1416 8.29658 11.3439 7.35758 13.5356C7.30058 13.6686 7.33591 13.8229 7.44458 13.9179C7.55391 14.0132 7.71125 14.0269 7.83525 13.9526C9.68325 12.8436 10.3656 9.99258 9.29491 7.85025C8.29891 5.85791 7.69758 4.65558 8.63658 2.46458ZM12.9616 7.85025C11.9656 5.85791 11.3642 4.65558 12.3032 2.46458C12.3602 2.33158 12.3249 2.17725 12.2162 2.08225C12.1069 1.98691 11.9496 1.97325 11.8256 2.04758C9.97725 3.15658 9.29491 6.00791 10.3656 8.14925C11.3619 10.1416 11.9632 11.3439 11.0242 13.5356C10.9672 13.6686 11.0026 13.8229 11.1112 13.9179C11.2206 14.0132 11.3779 14.0269 11.5019 13.9526C13.3499 12.8436 14.0322 9.99225 12.9616 7.85025Z" fill="#6B6D81"/>
</svg>
