<svg width="26" height="26" viewBox="0 0 26 26" fill="none" xmlns="http://www.w3.org/2000/svg">
<circle cx="14" cy="12" r="14" fill="white" fill-opacity="0.69"/>
<g clip-path="url(#clip0_13944_14535)">
<path d="M21.4053 13.5723C20.8867 14.2461 20.2188 14.791 19.457 15.166C19.1465 13.2354 17.4707 11.7529 15.4521 11.7529C15.083 11.7529 14.7139 11.8027 14.3594 11.9023C14.2568 11.791 14.1514 11.6885 14.043 11.5889C13.8643 11.4248 13.6709 11.2725 13.4688 11.1348C14.1162 10.209 15.0156 9.54102 16.0439 9.27734C16.3486 9.40039 16.6826 9.46777 17.0312 9.46777C17.3799 9.46777 17.7139 9.40039 18.0186 9.27734C19.6914 9.71094 21.0303 11.2168 21.4902 13.1621C21.5254 13.3057 21.4932 13.4551 21.4053 13.5723Z" fill="#1A8F00"/>
<path d="M17.0264 9.14648C18.3095 9.14648 19.3496 8.10633 19.3496 6.82324C19.3496 5.54015 18.3095 4.5 17.0264 4.5C15.7433 4.5 14.7031 5.54015 14.7031 6.82324C14.7031 8.10633 15.7433 9.14648 17.0264 9.14648Z" fill="#1A8F00"/>
<path d="M13.9758 12.0332C13.425 11.4766 12.7629 11.0693 12.0334 10.8672C11.3596 11.1543 10.595 11.1543 9.92114 10.8672C8.27759 11.3213 6.97095 12.8154 6.51392 14.7314C6.47876 14.875 6.51099 15.0244 6.60181 15.1416C7.64478 16.501 9.26196 17.2979 10.9729 17.2979C11.2014 17.2979 11.4299 17.2832 11.6584 17.2568C10.8674 15.1738 11.8987 12.8418 13.9758 12.0332Z" fill="#1A8F00"/>
<path d="M10.9795 10.7168C12.2626 10.7168 13.3027 9.67665 13.3027 8.39355C13.3027 7.11046 12.2626 6.07031 10.9795 6.07031C9.6964 6.07031 8.65625 7.11046 8.65625 8.39355C8.65625 9.67665 9.6964 10.7168 10.9795 10.7168Z" fill="#1A8F00"/>
<path d="M15.4492 12.1172C13.4102 12.1172 11.7578 13.7695 11.7578 15.8086C11.7578 17.8477 13.4102 19.5 15.4492 19.5C17.4883 19.5 19.1406 17.8477 19.1406 15.8086C19.1406 13.7695 17.4883 12.1172 15.4492 12.1172ZM17.5117 14.543L14.6494 17.4053C14.5586 17.4961 14.4092 17.4961 14.3184 17.4053L13.1523 16.2393C13.0615 16.1484 13.0615 15.999 13.1523 15.9082C13.2432 15.8174 13.3926 15.8174 13.4834 15.9082L14.4824 16.9072L17.1777 14.2119C17.2686 14.1211 17.418 14.1211 17.5088 14.2119C17.5996 14.3027 17.6025 14.4521 17.5117 14.543Z" fill="#1A8F00"/>
</g>
<defs>
<clipPath id="clip0_13944_14535">
<rect width="15" height="15" fill="white" transform="translate(6.5 4.5)"/>
</clipPath>
</defs>
</svg>
