<svg width="26" height="26" viewBox="0 0 26 26" fill="none" xmlns="http://www.w3.org/2000/svg">
<circle cx="14" cy="12" r="14" fill="white" fill-opacity="0.69"/>
<g clip-path="url(#clip0_13944_14562)">
<path d="M13.9974 11.669C13.6057 11.669 13.238 11.5163 12.961 11.2396L9.85938 8.13798L10.802 7.19531L13.904 10.297C13.9684 10.361 14.0267 10.361 14.0907 10.297L17.193 7.19531L18.1357 8.13798L15.0337 11.2396C14.7567 11.5166 14.389 11.669 13.9974 11.669Z" fill="#BD3739"/>
<path d="M16.4677 14.3954L16.2771 15.73C16.2337 16.034 16.4191 16.324 16.7131 16.412L19.4084 17.2207C19.6824 17.303 19.9771 17.187 20.1221 16.9404L21.2021 15.099C21.4771 14.6304 21.2964 14.026 20.8067 13.7907C19.6081 13.2157 17.2394 12.332 13.9974 12.332C10.7557 12.332 8.38674 13.2154 7.18808 13.7907C6.69841 14.0257 6.51808 14.6304 6.79274 15.099L7.87274 16.9404C8.01741 17.187 8.31241 17.303 8.58641 17.2207L11.2817 16.412C11.5757 16.3237 11.7611 16.0337 11.7177 15.73L11.5267 14.3944C11.4777 14.0507 11.7184 13.7317 12.0631 13.6897C12.6627 13.6167 13.3084 13.573 13.9971 13.5734C14.6851 13.5734 15.3314 13.6174 15.9317 13.691C16.2764 13.733 16.5171 14.0517 16.4677 14.3954Z" fill="#BD3739"/>
<path d="M18.3333 7V10.3333L15 7H18.3333Z" fill="#BD3739"/>
</g>
<defs>
<clipPath id="clip0_13944_14562">
<rect width="16" height="16" fill="white" transform="translate(6 4)"/>
</clipPath>
</defs>
</svg>
