<svg width="26" height="26" viewBox="0 0 26 26" fill="none" xmlns="http://www.w3.org/2000/svg">
<circle cx="14" cy="12" r="14" fill="white" fill-opacity="0.69"/>
<path d="M12.3616 11.6064C12.1335 11.1762 11.4607 10.5031 12.013 10.0565L12.225 9.90573C12.8648 9.44673 13.0254 8.56296 12.5877 7.9083L11.3347 6.01455C11.067 5.60351 10.6098 5.35545 10.1193 5.35501C9.63396 5.30205 8.85525 5.87328 8.43273 6.06637C7.5816 6.51945 7.18922 7.52644 7.50941 8.43593C8.17143 10.3063 9.12543 12.0601 10.3359 13.6321C10.3359 13.6321 12.0251 11.9441 12.3616 11.6064Z" fill="#AE1D50"/>
<path d="M20.5573 15.6485C20.4752 15.2651 20.2405 14.9317 19.9072 14.7252L18.1924 13.6417C17.4774 13.2081 16.5463 13.4362 16.1126 14.1512C16.1118 14.1525 16.111 14.1539 16.1102 14.1552C15.9605 14.3437 15.6998 14.4025 15.4837 14.2965C14.8014 13.9607 14.1676 13.5345 13.5993 13.0293L16.4023 10.2263C16.5828 10.0399 16.5781 9.74259 16.3918 9.56206C16.2096 9.38554 15.9202 9.38557 15.738 9.56209C14.8039 10.4924 9.24829 16.0523 8.7612 16.5389C8.57388 16.7197 8.5686 17.0182 8.74945 17.2055C8.93027 17.3928 9.22872 17.3981 9.41607 17.2173L11.5878 15.0456C13.2558 16.7357 15.3538 17.9378 17.6554 18.5222C18.464 18.7196 19.3087 18.3806 19.7565 17.679C20.0896 17.1166 20.7883 16.3642 20.5573 15.6485Z" fill="#AE1D50"/>
</svg>
