<svg width="26" height="26" viewBox="0 0 26 26" fill="none" xmlns="http://www.w3.org/2000/svg">
<circle cx="14" cy="12" r="14" fill="white" fill-opacity="0.69"/>
<g clip-path="url(#clip0_13944_14504)">
<path d="M19.8766 14.1894C19.0195 14.1894 18.1779 14.0553 17.3804 13.7918C16.9896 13.6585 16.5092 13.7808 16.2707 14.0257L14.6965 15.2141C12.8709 14.2396 11.7464 13.1154 10.7852 11.3035L11.9386 9.77039C12.2382 9.47114 12.3457 9.03401 12.2169 8.62385C11.9522 7.82213 11.8178 6.98093 11.8178 6.12343C11.8178 5.50396 11.3139 5 10.6944 5H8.12339C7.50396 5 7 5.50396 7 6.12339C7 13.2237 12.7764 19 19.8766 19C20.4961 19 21 18.496 21 17.8766V15.3127C21 14.6934 20.496 14.1894 19.8766 14.1894Z" fill="#00498D"/>
</g>
<defs>
<clipPath id="clip0_13944_14504">
<rect width="14" height="14" fill="white" transform="translate(7 5)"/>
</clipPath>
</defs>
</svg>
