<svg width="10" height="10" viewBox="0 0 10 10" fill="none" xmlns="http://www.w3.org/2000/svg">
<rect x="0.2" y="0.2" width="9.6" height="9.6" rx="4.8" fill="#FFF3F3"/>
<rect x="0.2" y="0.2" width="9.6" height="9.6" rx="4.8" stroke="#B20B0B" stroke-width="0.4"/>
<g clip-path="url(#clip0_18284_15234)">
<path d="M3.35718 3.6097C3.39151 3.64402 3.4365 3.66118 3.48147 3.66118C3.52645 3.66118 3.57145 3.64402 3.60577 3.60969C3.67441 3.54104 3.67441 3.42974 3.60577 3.3611L3.44069 3.19601C3.37204 3.12738 3.26075 3.12736 3.1921 3.19601C3.12347 3.26466 3.12347 3.37595 3.1921 3.4446L3.35718 3.6097Z" fill="#B20B0B"/>
<path d="M3.99 2.99949C4.00544 3.08436 4.07942 3.14382 4.16273 3.14382C4.17317 3.14382 4.18377 3.14288 4.19442 3.14095C4.28993 3.12357 4.35327 3.03204 4.33588 2.93652L4.29406 2.70684C4.27669 2.61133 4.18517 2.54797 4.08964 2.56538C3.99414 2.58276 3.9308 2.67428 3.94819 2.7698L3.99 2.99949Z" fill="#B20B0B"/>
<path d="M2.70683 4.30188L2.93652 4.3437C2.94716 4.34564 2.95775 4.34657 2.96821 4.34657C3.0515 4.34657 3.1255 4.28711 3.14094 4.20224C3.15833 4.10673 3.095 4.01521 2.99948 3.99782L2.7698 3.95601C2.67429 3.93859 2.58276 4.00194 2.56537 4.09746C2.54798 4.19297 2.61131 4.28451 2.70683 4.30188Z" fill="#B20B0B"/>
<path d="M6.63601 6.39523C6.56738 6.32658 6.45607 6.3266 6.38742 6.39523C6.31878 6.46388 6.31878 6.57517 6.38742 6.64382L6.55251 6.8089C6.58683 6.84323 6.63182 6.8604 6.67681 6.8604C6.72178 6.8604 6.76678 6.84323 6.8011 6.80892C6.86974 6.74027 6.86974 6.62897 6.8011 6.56033L6.63601 6.39523Z" fill="#B20B0B"/>
<path d="M6.00499 7.0037C5.9876 6.90819 5.89614 6.84484 5.80057 6.86226C5.70506 6.87965 5.64173 6.97117 5.65912 7.06668L5.70094 7.29636C5.71638 7.38123 5.79036 7.44068 5.87367 7.44068C5.88411 7.44068 5.89472 7.43974 5.90536 7.43781C6.00087 7.42042 6.06419 7.3289 6.0468 7.23339L6.00499 7.0037Z" fill="#B20B0B"/>
<path d="M7.28855 5.70484L7.05886 5.66303C6.96336 5.64564 6.87183 5.70897 6.85444 5.80449C6.83705 5.9 6.90037 5.99152 6.99589 6.00891L7.22558 6.05072C7.23622 6.05267 7.24682 6.05359 7.25727 6.05359C7.34057 6.05359 7.41456 5.99413 7.43 5.90926C7.44738 5.81376 7.38405 5.72223 7.28855 5.70484Z" fill="#B20B0B"/>
<path d="M7.87779 2.12578L7.87759 2.12558C7.71014 1.95815 7.43868 1.95813 7.27123 2.12558L6.79104 2.60497C6.35821 2.36769 5.80773 2.43612 5.44109 2.80276L4.95842 3.28543C4.90106 3.34279 4.85145 3.40502 4.80933 3.47081C4.7918 3.4982 4.78551 3.53132 4.79098 3.56337L4.8999 4.20215C4.91792 4.3078 5.04767 4.34912 5.12346 4.27332L6.48666 2.91014C6.33836 3.07864 6.34522 3.33628 6.50617 3.49722C6.67368 3.66472 6.94525 3.66472 7.11276 3.49722L5.7129 4.89706C5.63836 4.9716 5.67692 5.09915 5.78028 5.11991L6.38786 5.24197C6.41886 5.24821 6.4512 5.24333 6.47867 5.22765C6.56431 5.17879 6.64493 5.11799 6.71795 5.04497L7.20062 4.5623C7.56571 4.19721 7.63049 3.64522 7.39677 3.21321L7.87779 2.73219C8.04525 2.56473 8.04525 2.29323 7.87779 2.12578Z" fill="#B20B0B"/>
<path d="M5.25231 5.91572L4.85242 5.83537C4.8091 5.82667 4.76429 5.84021 4.73303 5.87147L3.46597 7.13852C3.63345 6.97101 3.63344 6.69945 3.46594 6.53196C3.3 6.36602 3.03199 6.36457 2.86414 6.52741L2.86402 6.52729L4.13902 5.25229C4.1693 5.22201 4.18302 5.17893 4.17582 5.13671L4.10933 4.74675C4.09777 4.67899 4.03609 4.63068 3.96768 4.63733C3.71395 4.662 3.4669 4.77146 3.27251 4.96585L2.78984 5.44854C2.42456 5.81382 2.35934 6.36567 2.59353 6.79779L2.12559 7.26573C1.95814 7.43318 1.95814 7.70468 2.12559 7.87213L2.12579 7.87233C2.29322 8.03976 2.5647 8.03976 2.73215 7.87233L3.20057 7.4039C3.6324 7.63683 4.18464 7.57277 4.54938 7.20805L5.03205 6.72538C5.21893 6.5385 5.32745 6.30302 5.35756 6.05973C5.36597 5.99181 5.31943 5.92919 5.25231 5.91572Z" fill="#B20B0B"/>
</g>
<defs>
<clipPath id="clip0_18284_15234">
<rect width="6" height="6" fill="white" transform="translate(2 2)"/>
</clipPath>
</defs>
</svg>
