<svg width="30" height="30" viewBox="0 0 30 30" fill="none" xmlns="http://www.w3.org/2000/svg">
<rect width="30" height="30" rx="15" fill="#FFEEA8"/>
<path fill-rule="evenodd" clip-rule="evenodd" d="M17.3925 20.2905V20.9414H12.6128V20.2905H17.3925ZM14.1667 13.3639H13.5083C13.378 13.3638 13.2508 13.3252 13.1425 13.2529C13.0342 13.1805 12.9499 13.0777 12.9001 12.9574C12.8503 12.8371 12.8372 12.7047 12.8627 12.577C12.8881 12.4493 12.9508 12.332 13.0429 12.2399C13.135 12.1479 13.2523 12.0852 13.3801 12.0598C13.5078 12.0344 13.6401 12.0475 13.7604 12.0974C13.8807 12.1472 13.9835 12.2316 14.0558 12.3399C14.1281 12.4482 14.1667 12.5755 14.1667 12.7057V13.3639ZM15.2384 19.6905H14.7669V13.9638H15.2384V19.6905ZM16.986 22.1152H13.0193C12.9116 22.1152 12.8083 22.0724 12.7321 21.9962C12.6559 21.9201 12.613 21.8168 12.6128 21.7091V21.5415H17.3925V21.7091C17.3923 21.8168 17.3494 21.9201 17.2732 21.9962C17.197 22.0724 17.0937 22.1152 16.986 22.1152ZM15.0026 24C14.5971 23.9979 14.2015 23.8743 13.8668 23.6454C13.5321 23.4164 13.2736 23.0924 13.1246 22.7153H16.8807C16.7317 23.0924 16.4732 23.4164 16.1385 23.6453C15.8038 23.8743 15.4082 23.9978 15.0026 24ZM18.3259 18.5306C19.352 17.9428 20.205 17.0948 20.7989 16.0721C21.3927 15.0495 21.7064 13.8883 21.7084 12.7057C21.7084 9.00821 18.7002 6 15.0026 6C11.3051 6 8.29688 9.00821 8.29688 12.7057C8.29885 13.8883 8.61259 15.0495 9.20644 16.0721C9.8003 17.0948 10.6533 17.9428 11.6794 18.5306C11.8987 18.6522 12.0903 18.8181 12.242 19.0178C12.3937 19.2175 12.5021 19.4466 12.5603 19.6905H14.1667V13.9638H13.5083C13.2594 13.9637 13.0161 13.8899 12.8092 13.7516C12.6023 13.6133 12.4411 13.4167 12.3459 13.1868C12.2507 12.9568 12.2259 12.7038 12.2745 12.4597C12.3231 12.2157 12.443 11.9915 12.619 11.8155C12.795 11.6396 13.0192 11.5198 13.2633 11.4713C13.5074 11.4228 13.7604 11.4478 13.9903 11.5431C14.2202 11.6383 14.4167 11.7997 14.5549 12.0066C14.6932 12.2136 14.7669 12.4569 14.7669 12.7057V13.3639H15.2384V12.7057C15.2384 12.4569 15.3121 12.2136 15.4504 12.0066C15.5886 11.7997 15.7851 11.6383 16.015 11.5431C16.2449 11.4478 16.4979 11.4228 16.742 11.4713C16.9861 11.5198 17.2103 11.6396 17.3863 11.8155C17.5623 11.9915 17.6822 12.2157 17.7308 12.4597C17.7794 12.7038 17.7546 12.9568 17.6594 13.1868C17.5642 13.4167 17.403 13.6133 17.1961 13.7516C16.9892 13.8899 16.7459 13.9637 16.497 13.9638H15.8385V19.6905H17.4451C17.5033 19.4466 17.6117 19.2175 17.7634 19.0178C17.9151 18.8181 18.1067 18.6522 18.326 18.5306H18.3259ZM15.8385 13.3639V12.7057C15.8384 12.5755 15.877 12.4483 15.9493 12.34C16.0216 12.2317 16.1244 12.1473 16.2446 12.0974C16.3649 12.0476 16.4973 12.0345 16.625 12.0599C16.7527 12.0852 16.87 12.1479 16.9621 12.2399C17.0542 12.3319 17.1169 12.4492 17.1424 12.5769C17.1678 12.7046 17.1548 12.8369 17.105 12.9572C17.0553 13.0776 16.9709 13.1804 16.8627 13.2528C16.7545 13.3251 16.6272 13.3638 16.497 13.3639H15.8385Z" fill="#DE9C00"/>
</svg>
