<svg width="16" height="16" viewBox="0 0 16 16" fill="none" xmlns="http://www.w3.org/2000/svg">
<g clip-path="url(#clip0_3049_22015)">
<path d="M15.0896 9.06284C15.2083 9.35519 15.0676 9.68845 14.7753 9.80723L13.1876 10.4529L14.657 11.3359C14.9311 11.4924 15.0264 11.8415 14.8699 12.1155C14.7134 12.3895 14.3643 12.4848 14.0903 12.3283C14.0829 12.3242 14.0756 12.3197 14.0685 12.3152L12.5991 11.4324L12.7744 13.1381C12.8015 13.4525 12.5687 13.7294 12.2543 13.7566C11.947 13.7831 11.6741 13.561 11.6376 13.2547L11.3748 10.6967L8.56671 9.00984V12.2857L10.6239 13.8285C10.8763 14.0179 10.9275 14.3761 10.7382 14.6285C10.5488 14.881 10.1906 14.9322 9.93816 14.7428L8.56675 13.7143V15.4286C8.56675 15.7442 8.31091 16 7.99531 16C7.6797 16 7.42386 15.7442 7.42386 15.4286V13.7143L6.05245 14.7428C5.79997 14.9322 5.44179 14.881 5.25245 14.6285C5.0631 14.3761 5.11427 14.0179 5.36674 13.8285L7.4239 12.2857V9.00984L4.61596 10.6971L4.3531 13.2551C4.3232 13.5463 4.07803 13.7679 3.78526 13.7682C3.76562 13.7683 3.74597 13.7673 3.72641 13.7652C3.41268 13.7331 3.18429 13.4529 3.21631 13.1391C3.21635 13.1389 3.21635 13.1387 3.21639 13.1385L3.3917 11.4328L1.92232 12.3156C1.65551 12.4842 1.30257 12.4046 1.13403 12.1378C0.965446 11.8709 1.04511 11.518 1.31191 11.3495C1.3191 11.3449 1.32637 11.3405 1.33376 11.3363L2.80322 10.4534L1.21547 9.80765C0.925035 9.68417 0.78968 9.34867 0.913115 9.05823C1.03381 8.77431 1.35805 8.63746 1.64567 8.74902L4.02773 9.71769L6.88601 7.99998L4.02748 6.28244L1.64542 7.25139C1.3512 7.36553 1.02014 7.21958 0.906013 6.92532C0.794415 6.63771 0.931307 6.31342 1.21522 6.19277L2.80298 5.54706L1.33347 4.66378C1.05939 4.50729 0.964117 4.15825 1.12061 3.88422C1.27711 3.61014 1.62615 3.51487 1.90018 3.67136C1.90757 3.67556 1.91484 3.67996 1.92203 3.68449L3.39141 4.56735L3.2161 2.8616C3.18391 2.54765 3.4123 2.26702 3.72625 2.23483C4.04019 2.20264 4.32083 2.43103 4.35302 2.74498L4.61588 5.30297L7.42386 6.99011V3.71427L5.3667 2.17141C5.11414 1.98215 5.06281 1.62401 5.25207 1.37145C5.44134 1.11889 5.79947 1.06756 6.05203 1.25682C6.05216 1.2569 6.05228 1.25703 6.05245 1.25711L7.42386 2.28567V0.571448C7.42386 0.255841 7.6797 0 7.99531 0C8.31091 0 8.56675 0.255841 8.56675 0.571448V2.28575L9.93816 1.25719C10.1906 1.06785 10.5488 1.11901 10.7382 1.37149C10.9275 1.62397 10.8763 1.98215 10.6239 2.17149L8.56671 3.71427V6.99015L11.3747 5.30285L11.6375 2.74485C11.6748 2.43145 11.959 2.20763 12.2724 2.24484C12.5787 2.28122 12.8008 2.55418 12.7743 2.86148L12.599 4.56718L14.0683 3.68432C14.3351 3.51578 14.6881 3.5954 14.8566 3.8622C15.0252 4.12901 14.9455 4.48196 14.6787 4.65049C14.6716 4.65502 14.6643 4.65942 14.6569 4.66362L13.1874 5.5466L14.7752 6.19231C15.0656 6.31579 15.201 6.65129 15.0775 6.94173C14.9568 7.22564 14.6326 7.36249 14.3449 7.25094L11.9629 6.28227L9.1046 7.99998L11.9631 9.71752L14.3452 8.74885C14.637 8.62982 14.9701 8.76991 15.0891 9.06176C15.0892 9.06213 15.0894 9.06247 15.0896 9.06284Z" fill="#17C7FF"/>
</g>
<defs>
<clipPath id="clip0_3049_22015">
<rect width="16" height="16" fill="white"/>
</clipPath>
</defs>
</svg>
