<svg width="80" height="40" viewBox="0 0 80 40" fill="none" xmlns="http://www.w3.org/2000/svg">
<g clip-path="url(#clip0_14214_11092)">
<path d="M32.0695 21H47.7255C48.2073 21 48.6821 20.884 49.1096 20.6617C49.5371 20.4394 49.9048 20.1174 50.1815 19.723C50.4582 19.3285 50.6359 18.8732 50.6994 18.3956C50.7629 17.918 50.7105 17.4321 50.5465 16.979L47.6945 9.094C47.2074 7.34171 46.1598 5.79719 44.7118 4.69667C43.2638 3.59615 41.4952 3.00021 39.6765 3C37.7832 2.99997 35.9466 3.64559 34.4697 4.83026C32.9929 6.01493 31.9642 7.66781 31.5535 9.516L29.2035 17.116C29.0652 17.5647 29.034 18.0396 29.1127 18.5025C29.1914 18.9654 29.3776 19.4034 29.6564 19.7812C29.9352 20.1591 30.2987 20.4662 30.7179 20.6779C31.137 20.8895 31.6 20.9999 32.0695 21Z" fill="#0B7AB2"/>
<path d="M35.1016 23C35.3311 24.1303 35.9443 25.1465 36.8373 25.8764C37.7303 26.6063 38.8482 27.005 40.0016 27.005C41.1549 27.005 42.2728 26.6063 43.1658 25.8764C44.0588 25.1465 44.672 24.1303 44.9016 23H35.1016Z" fill="#0B7AB2"/>
</g>
<path d="M17.25 37H16.34L12.68 31.45V37H11.77V30.02H12.68L16.34 35.56V30.02H17.25V37ZM21.1913 37.09C20.6779 37.09 20.2113 36.9733 19.7913 36.74C19.3779 36.5067 19.0513 36.1767 18.8113 35.75C18.5779 35.3167 18.4613 34.8167 18.4613 34.25C18.4613 33.69 18.5813 33.1967 18.8213 32.77C19.0679 32.3367 19.4013 32.0067 19.8213 31.78C20.2413 31.5467 20.7113 31.43 21.2313 31.43C21.7513 31.43 22.2213 31.5467 22.6413 31.78C23.0613 32.0067 23.3913 32.3333 23.6313 32.76C23.8779 33.1867 24.0013 33.6833 24.0013 34.25C24.0013 34.8167 23.8746 35.3167 23.6213 35.75C23.3746 36.1767 23.0379 36.5067 22.6113 36.74C22.1846 36.9733 21.7113 37.09 21.1913 37.09ZM21.1913 36.29C21.5179 36.29 21.8246 36.2133 22.1113 36.06C22.3979 35.9067 22.6279 35.6767 22.8013 35.37C22.9813 35.0633 23.0713 34.69 23.0713 34.25C23.0713 33.81 22.9846 33.4367 22.8113 33.13C22.6379 32.8233 22.4113 32.5967 22.1313 32.45C21.8513 32.2967 21.5479 32.22 21.2213 32.22C20.8879 32.22 20.5813 32.2967 20.3013 32.45C20.0279 32.5967 19.8079 32.8233 19.6413 33.13C19.4746 33.4367 19.3913 33.81 19.3913 34.25C19.3913 34.6967 19.4713 35.0733 19.6313 35.38C19.7979 35.6867 20.0179 35.9167 20.2913 36.07C20.5646 36.2167 20.8646 36.29 21.1913 36.29ZM26.3077 32.27V35.5C26.3077 35.7667 26.3644 35.9567 26.4777 36.07C26.5911 36.1767 26.7877 36.23 27.0677 36.23H27.7377V37H26.9177C26.4111 37 26.0311 36.8833 25.7777 36.65C25.5244 36.4167 25.3977 36.0333 25.3977 35.5V32.27H24.6877V31.52H25.3977V30.14H26.3077V31.52H27.7377V32.27H26.3077ZM29.3103 30.63C29.137 30.63 28.9903 30.57 28.8703 30.45C28.7503 30.33 28.6903 30.1833 28.6903 30.01C28.6903 29.8367 28.7503 29.69 28.8703 29.57C28.9903 29.45 29.137 29.39 29.3103 29.39C29.477 29.39 29.617 29.45 29.7303 29.57C29.8503 29.69 29.9103 29.8367 29.9103 30.01C29.9103 30.1833 29.8503 30.33 29.7303 30.45C29.617 30.57 29.477 30.63 29.3103 30.63ZM29.7503 31.52V37H28.8403V31.52H29.7503ZM33.5313 32.27H32.3813V37H31.4713V32.27H30.7613V31.52H31.4713V31.13C31.4713 30.5167 31.6279 30.07 31.9413 29.79C32.2613 29.5033 32.7713 29.36 33.4712 29.36V30.12C33.0713 30.12 32.7879 30.2 32.6213 30.36C32.4613 30.5133 32.3813 30.77 32.3813 31.13V31.52H33.5313V32.27ZM35.0623 30.63C34.8889 30.63 34.7423 30.57 34.6223 30.45C34.5023 30.33 34.4423 30.1833 34.4423 30.01C34.4423 29.8367 34.5023 29.69 34.6223 29.57C34.7423 29.45 34.8889 29.39 35.0623 29.39C35.2289 29.39 35.3689 29.45 35.4823 29.57C35.6023 29.69 35.6623 29.8367 35.6623 30.01C35.6623 30.1833 35.6023 30.33 35.4823 30.45C35.3689 30.57 35.2289 30.63 35.0623 30.63ZM35.5023 31.52V37H34.5923V31.52H35.5023ZM36.7132 34.25C36.7132 33.6833 36.8265 33.19 37.0532 32.77C37.2799 32.3433 37.5932 32.0133 37.9932 31.78C38.3999 31.5467 38.8632 31.43 39.3832 31.43C40.0565 31.43 40.6099 31.5933 41.0432 31.92C41.4832 32.2467 41.7732 32.7 41.9132 33.28H40.9332C40.8399 32.9467 40.6565 32.6833 40.3832 32.49C40.1165 32.2967 39.7832 32.2 39.3832 32.2C38.8632 32.2 38.4432 32.38 38.1232 32.74C37.8032 33.0933 37.6432 33.5967 37.6432 34.25C37.6432 34.91 37.8032 35.42 38.1232 35.78C38.4432 36.14 38.8632 36.32 39.3832 36.32C39.7832 36.32 40.1165 36.2267 40.3832 36.04C40.6499 35.8533 40.8332 35.5867 40.9332 35.24H41.9132C41.7665 35.8 41.4732 36.25 41.0332 36.59C40.5932 36.9233 40.0432 37.09 39.3832 37.09C38.8632 37.09 38.3999 36.9733 37.9932 36.74C37.5932 36.5067 37.2799 36.1767 37.0532 35.75C36.8265 35.3233 36.7132 34.8233 36.7132 34.25ZM42.7874 34.24C42.7874 33.68 42.9008 33.19 43.1274 32.77C43.3541 32.3433 43.6641 32.0133 44.0574 31.78C44.4574 31.5467 44.9008 31.43 45.3874 31.43C45.8674 31.43 46.2841 31.5333 46.6374 31.74C46.9908 31.9467 47.2541 32.2067 47.4274 32.52V31.52H48.3474V37H47.4274V35.98C47.2474 36.3 46.9774 36.5667 46.6174 36.78C46.2641 36.9867 45.8508 37.09 45.3774 37.09C44.8908 37.09 44.4508 36.97 44.0574 36.73C43.6641 36.49 43.3541 36.1533 43.1274 35.72C42.9008 35.2867 42.7874 34.7933 42.7874 34.24ZM47.4274 34.25C47.4274 33.8367 47.3441 33.4767 47.1774 33.17C47.0108 32.8633 46.7841 32.63 46.4974 32.47C46.2174 32.3033 45.9074 32.22 45.5674 32.22C45.2274 32.22 44.9174 32.3 44.6374 32.46C44.3574 32.62 44.1341 32.8533 43.9674 33.16C43.8008 33.4667 43.7174 33.8267 43.7174 34.24C43.7174 34.66 43.8008 35.0267 43.9674 35.34C44.1341 35.6467 44.3574 35.8833 44.6374 36.05C44.9174 36.21 45.2274 36.29 45.5674 36.29C45.9074 36.29 46.2174 36.21 46.4974 36.05C46.7841 35.8833 47.0108 35.6467 47.1774 35.34C47.3441 35.0267 47.4274 34.6633 47.4274 34.25ZM50.9952 32.27V35.5C50.9952 35.7667 51.0519 35.9567 51.1652 36.07C51.2786 36.1767 51.4752 36.23 51.7552 36.23H52.4252V37H51.6052C51.0986 37 50.7186 36.8833 50.4652 36.65C50.2119 36.4167 50.0852 36.0333 50.0852 35.5V32.27H49.3752V31.52H50.0852V30.14H50.9952V31.52H52.4252V32.27H50.9952ZM53.9978 30.63C53.8245 30.63 53.6778 30.57 53.5578 30.45C53.4378 30.33 53.3778 30.1833 53.3778 30.01C53.3778 29.8367 53.4378 29.69 53.5578 29.57C53.6778 29.45 53.8245 29.39 53.9978 29.39C54.1645 29.39 54.3045 29.45 54.4178 29.57C54.5378 29.69 54.5978 29.8367 54.5978 30.01C54.5978 30.1833 54.5378 30.33 54.4178 30.45C54.3045 30.57 54.1645 30.63 53.9978 30.63ZM54.4378 31.52V37H53.5278V31.52H54.4378ZM58.3788 37.09C57.8654 37.09 57.3988 36.9733 56.9788 36.74C56.5654 36.5067 56.2388 36.1767 55.9988 35.75C55.7654 35.3167 55.6488 34.8167 55.6488 34.25C55.6488 33.69 55.7688 33.1967 56.0088 32.77C56.2554 32.3367 56.5888 32.0067 57.0088 31.78C57.4288 31.5467 57.8988 31.43 58.4188 31.43C58.9388 31.43 59.4088 31.5467 59.8288 31.78C60.2488 32.0067 60.5788 32.3333 60.8188 32.76C61.0654 33.1867 61.1888 33.6833 61.1888 34.25C61.1888 34.8167 61.0621 35.3167 60.8088 35.75C60.5621 36.1767 60.2254 36.5067 59.7988 36.74C59.3721 36.9733 58.8988 37.09 58.3788 37.09ZM58.3788 36.29C58.7054 36.29 59.0121 36.2133 59.2988 36.06C59.5854 35.9067 59.8154 35.6767 59.9888 35.37C60.1688 35.0633 60.2588 34.69 60.2588 34.25C60.2588 33.81 60.1721 33.4367 59.9988 33.13C59.8254 32.8233 59.5988 32.5967 59.3188 32.45C59.0388 32.2967 58.7354 32.22 58.4088 32.22C58.0754 32.22 57.7688 32.2967 57.4888 32.45C57.2154 32.5967 56.9954 32.8233 56.8288 33.13C56.6621 33.4367 56.5788 33.81 56.5788 34.25C56.5788 34.6967 56.6588 35.0733 56.8188 35.38C56.9854 35.6867 57.2054 35.9167 57.4788 36.07C57.7521 36.2167 58.0521 36.29 58.3788 36.29ZM65.0552 31.42C65.7219 31.42 66.2619 31.6233 66.6752 32.03C67.0886 32.43 67.2952 33.01 67.2952 33.77V37H66.3952V33.9C66.3952 33.3533 66.2586 32.9367 65.9852 32.65C65.7119 32.3567 65.3386 32.21 64.8652 32.21C64.3852 32.21 64.0019 32.36 63.7152 32.66C63.4352 32.96 63.2952 33.3967 63.2952 33.97V37H62.3852V31.52H63.2952V32.3C63.4752 32.02 63.7186 31.8033 64.0252 31.65C64.3386 31.4967 64.6819 31.42 65.0552 31.42Z" fill="#0B7AB2"/>
<defs>
<clipPath id="clip0_14214_11092">
<rect width="24" height="24" fill="white" transform="translate(28 3)"/>
</clipPath>
</defs>
</svg>
