<svg width="26" height="28" viewBox="0 0 26 28" fill="none" xmlns="http://www.w3.org/2000/svg">
<path d="M19.7578 9.31565C19.4558 9.31565 19.2109 9.07076 19.2109 8.76877V5.0293C19.2109 4.72731 19.4558 4.48242 19.7578 4.48242C20.0598 4.48242 20.3047 4.72731 20.3047 5.0293V8.76877C20.3047 9.07076 20.0599 9.31565 19.7578 9.31565Z" fill="#2196F3"/>
<path d="M19.7578 3.81641C20.0598 3.81641 20.3047 3.57156 20.3047 3.26953C20.3047 2.9675 20.0598 2.72266 19.7578 2.72266C19.4558 2.72266 19.2109 2.9675 19.2109 3.26953C19.2109 3.57156 19.4558 3.81641 19.7578 3.81641Z" fill="#2196F3"/>
<path d="M25.5006 5.7453C25.5006 2.57731 22.9237 0 19.7564 0C18.4453 0 17.2355 0.441547 16.2677 1.18377H2.48243C1.38502 1.18377 0.492188 2.07654 0.492188 3.17401V23.0678C0.492188 24.1653 1.38502 25.0581 2.48243 25.0581H4.21772V26.0097C4.21772 27.1071 5.11055 28 6.20796 28H20.5066C21.604 28 22.4969 27.1072 22.4969 26.0097V18.4244C22.4969 18.1225 22.252 17.8776 21.95 17.8776C21.648 17.8776 21.4031 18.1225 21.4031 18.4244V26.0097C21.4031 26.504 21.0009 26.9062 20.5066 26.9062H6.20796C5.71364 26.9062 5.31147 26.5041 5.31147 26.0097V25.0581H16.7811C17.8785 25.0581 18.7714 24.1653 18.7714 23.0678V11.4061C19.0916 11.4616 19.4206 11.4906 19.7564 11.4906C20.3285 11.4906 20.8813 11.4065 21.4032 11.25V13.4801C21.4032 13.7821 21.648 14.027 21.95 14.027C22.252 14.027 22.4969 13.7821 22.4969 13.4801V10.7936C24.2848 9.8187 25.5006 7.92137 25.5006 5.7453ZM17.6777 23.0679C17.6777 23.5622 17.2755 23.9644 16.7811 23.9644H2.48243C1.98811 23.9644 1.58594 23.5623 1.58594 23.0679V3.17401C1.58594 2.67969 1.98811 2.27752 2.48243 2.27752H15.1793C14.4928 3.18166 14.0677 4.29455 14.0173 5.50266H4.70449C4.40251 5.50266 4.15762 5.74755 4.15762 6.04953V8.3592C4.15762 8.66119 4.40251 8.90608 4.70449 8.90608H14.5591C14.6834 8.90608 14.798 8.86457 14.8899 8.79468C15.5432 9.83396 16.5199 10.6503 17.6777 11.1013V23.0679ZM14.0122 6.59641V7.81233H5.25137V6.59641H14.0122ZM19.7564 10.3968C17.1921 10.3968 15.1059 8.31015 15.1059 5.74525C15.1059 3.18041 17.1921 1.0937 19.7564 1.0937C22.3207 1.0937 24.4068 3.18035 24.4068 5.74525C24.4068 8.31015 22.3207 10.3968 19.7564 10.3968Z" fill="#2196F3"/>
<path d="M21.9519 16.4891C21.7266 16.4891 21.5201 16.3449 21.4407 16.1346C21.3591 15.9188 21.4259 15.6651 21.6052 15.5191C21.7849 15.3729 22.0435 15.3554 22.2405 15.4776C22.4372 15.5997 22.5378 15.8405 22.4846 16.0663C22.4271 16.3105 22.2032 16.4891 21.9519 16.4891Z" fill="#2196F3"/>
<path d="M14.5577 11.9023H4.70312C4.40114 11.9023 4.15625 11.6575 4.15625 11.3555C4.15625 11.0535 4.40114 10.8086 4.70312 10.8086H14.5577C14.8597 10.8086 15.1046 11.0535 15.1046 11.3555C15.1046 11.6575 14.8597 11.9023 14.5577 11.9023Z" fill="#2196F3"/>
<path d="M14.5577 14.4961H4.70312C4.40114 14.4961 4.15625 14.2512 4.15625 13.9492C4.15625 13.6472 4.40114 13.4023 4.70312 13.4023H14.5577C14.8597 13.4023 15.1046 13.6472 15.1046 13.9492C15.1046 14.2512 14.8597 14.4961 14.5577 14.4961Z" fill="#2196F3"/>
<path d="M14.5577 17.0898H4.70312C4.40114 17.0898 4.15625 16.845 4.15625 16.543C4.15625 16.241 4.40114 15.9961 4.70312 15.9961H14.5577C14.8597 15.9961 15.1046 16.241 15.1046 16.543C15.1046 16.845 14.8597 17.0898 14.5577 17.0898Z" fill="#2196F3"/>
<path d="M14.5577 19.6836H4.70312C4.40114 19.6836 4.15625 19.4387 4.15625 19.1367C4.15625 18.8347 4.40114 18.5898 4.70312 18.5898H14.5577C14.8597 18.5898 15.1046 18.8347 15.1046 19.1367C15.1046 19.4387 14.8597 19.6836 14.5577 19.6836Z" fill="#2196F3"/>
</svg>
