<svg width="29" height="28" viewBox="0 0 29 28" fill="none" xmlns="http://www.w3.org/2000/svg">
<rect x="0.441406" width="28" height="28" rx="4" fill="url(#paint0_linear_13771_5744)"/>
<g clip-path="url(#clip0_13771_5744)">
<path d="M24.3086 16.0977C23.6172 16.9961 22.7266 17.7227 21.7109 18.2227C21.2969 15.6484 19.0625 13.6719 16.3711 13.6719C15.8789 13.6719 15.3867 13.7383 14.9141 13.8711C14.7773 13.7227 14.6367 13.5859 14.4922 13.4531C14.2539 13.2344 13.9961 13.0312 13.7266 12.8477C14.5898 11.6133 15.7891 10.7227 17.1602 10.3711C17.5664 10.5352 18.0117 10.625 18.4766 10.625C18.9414 10.625 19.3867 10.5352 19.793 10.3711C22.0234 10.9492 23.8086 12.957 24.4219 15.5508C24.4688 15.7422 24.4258 15.9414 24.3086 16.0977Z" fill="white"/>
<path d="M18.4766 10.1953C20.1874 10.1953 21.5742 8.80844 21.5742 7.09766C21.5742 5.38687 20.1874 4 18.4766 4C16.7658 4 15.3789 5.38687 15.3789 7.09766C15.3789 8.80844 16.7658 10.1953 18.4766 10.1953Z" fill="white"/>
<path d="M14.4053 14.043C13.6709 13.3008 12.7881 12.7578 11.8154 12.4883C10.917 12.8711 9.89746 12.8711 8.99902 12.4883C6.80762 13.0938 5.06543 15.0859 4.45606 17.6406C4.40918 17.832 4.45215 18.0313 4.57324 18.1875C5.96387 20 8.12012 21.0625 10.4014 21.0625C10.7061 21.0625 11.0107 21.043 11.3154 21.0078C10.2607 18.2305 11.6357 15.1211 14.4053 14.043Z" fill="white"/>
<path d="M10.4062 12.2891C12.117 12.2891 13.5039 10.9022 13.5039 9.19141C13.5039 7.48062 12.117 6.09375 10.4062 6.09375C8.69546 6.09375 7.30859 7.48062 7.30859 9.19141C7.30859 10.9022 8.69546 12.2891 10.4062 12.2891Z" fill="white"/>
<path d="M16.3711 14.1562C13.6523 14.1562 11.4492 16.3594 11.4492 19.0781C11.4492 21.7969 13.6523 24 16.3711 24C19.0898 24 21.293 21.7969 21.293 19.0781C21.293 16.3594 19.0898 14.1562 16.3711 14.1562ZM19.1211 17.3906L15.3047 21.207C15.1836 21.3281 14.9844 21.3281 14.8633 21.207L13.3086 19.6523C13.1875 19.5313 13.1875 19.332 13.3086 19.2109C13.4297 19.0898 13.6289 19.0898 13.75 19.2109L15.082 20.543L18.6758 16.9492C18.7969 16.8281 18.9961 16.8281 19.1172 16.9492C19.2383 17.0703 19.2422 17.2695 19.1211 17.3906Z" fill="white"/>
</g>
<defs>
<linearGradient id="paint0_linear_13771_5744" x1="-17.2428" y1="-16.9474" x2="30.8975" y2="40.2807" gradientUnits="userSpaceOnUse">
<stop stop-color="#5FB24C"/>
<stop offset="1" stop-color="#8ECF80"/>
</linearGradient>
<clipPath id="clip0_13771_5744">
<rect width="20" height="20" fill="white" transform="translate(4.44141 4)"/>
</clipPath>
</defs>
</svg>
