<svg width="16" height="16" viewBox="0 0 16 16" fill="none" xmlns="http://www.w3.org/2000/svg">
<path d="M4.97382 2.46458C5.03082 2.33158 4.99549 2.17725 4.88682 2.08225C4.77749 1.98691 4.62015 1.97325 4.49615 2.04758C2.64749 3.15658 1.96515 6.00758 3.03615 8.14891C4.03249 10.1412 4.63382 11.3436 3.69482 13.5352C3.63782 13.6682 3.67315 13.8226 3.78182 13.9176C3.89115 14.0129 4.04849 14.0266 4.17249 13.9522C6.02049 12.8432 6.70282 9.99225 5.63215 7.84991C4.63615 5.85791 4.03482 4.65558 4.97382 2.46458ZM8.64049 2.46458C8.69749 2.33158 8.66215 2.17725 8.55349 2.08225C8.44415 1.98691 8.28682 1.97325 8.16282 2.04758C6.31449 3.15658 5.63215 6.00791 6.70282 8.14925C7.69915 10.1416 8.30049 11.3439 7.36149 13.5356C7.30449 13.6686 7.33982 13.8229 7.44849 13.9179C7.55782 14.0132 7.71515 14.0269 7.83915 13.9526C9.68715 12.8436 10.3695 9.99258 9.29882 7.85025C8.30282 5.85791 7.70149 4.65558 8.64049 2.46458ZM12.9655 7.85025C11.9695 5.85791 11.3682 4.65558 12.3072 2.46458C12.3642 2.33158 12.3288 2.17725 12.2202 2.08225C12.1108 1.98691 11.9535 1.97325 11.8295 2.04758C9.98115 3.15658 9.29882 6.00791 10.3695 8.14925C11.3658 10.1416 11.9672 11.3439 11.0282 13.5356C10.9712 13.6686 11.0065 13.8229 11.1152 13.9179C11.2245 14.0132 11.3818 14.0269 11.5058 13.9526C13.3538 12.8436 14.0362 9.99225 12.9655 7.85025Z" fill="#F2841F"/>
</svg>
