<svg width="18" height="18" viewBox="0 0 18 18" fill="none" xmlns="http://www.w3.org/2000/svg">
<g clip-path="url(#clip0_14280_7871)">
<path d="M15.492 11.1425C14.5972 10.286 13.1745 10.289 12.282 11.147L10.8525 12.3515C8.454 11.3337 6.747 9.62372 5.6535 7.14272L6.8535 5.71997C7.27125 5.28572 7.50075 4.71572 7.50075 4.11122C7.50075 3.50672 7.27275 2.94197 6.858 2.50772C6.858 2.50772 5.469 0.702469 5.44575 0.679219C4.5405 -0.226031 3.06825 -0.225281 2.2005 0.643969L1.338 1.39697C0.4755 2.25947 0 3.42422 0 4.67897C0 10.406 7.5945 18.0005 13.3215 18.0005C14.5763 18.0005 15.7418 17.525 16.6373 16.6257L17.3213 15.8382C18.225 14.933 18.225 13.46 17.3213 12.5547C17.298 12.5322 15.492 11.1425 15.492 11.1425Z" fill="#00467E"/>
<path d="M14.25 0C12.1792 0 10.5 1.67925 10.5 3.75C10.5 5.82075 12.1792 7.5 14.25 7.5C16.3207 7.5 18 5.82075 18 3.75C18 1.67925 16.3207 0 14.25 0ZM14.6895 5.25L13.7197 4.28025C13.5787 4.13925 13.5 3.94875 13.5 3.75V2.25C13.5 1.836 13.836 1.5 14.25 1.5C14.664 1.5 15 1.836 15 2.25V3.4395L15.75 4.1895C16.0425 4.482 16.0425 4.9575 15.75 5.25C15.4575 5.5425 14.982 5.5425 14.6895 5.25Z" fill="#00467E"/>
</g>
<defs>
<clipPath id="clip0_14280_7871">
<rect width="18" height="18" fill="white"/>
</clipPath>
</defs>
</svg>
