<svg width="24" height="24" viewBox="0 0 24 24" fill="none" xmlns="http://www.w3.org/2000/svg">
<g clip-path="url(#clip0_3576_5276)">
<path d="M23.9998 2.24781C23.9998 2.2453 23.9991 2.24295 23.999 2.24045C23.9979 2.20754 23.9925 2.17493 23.9828 2.14347C23.9807 2.13659 23.9789 2.1299 23.9765 2.12315C23.9651 2.09105 23.9494 2.06066 23.9298 2.03284C23.9266 2.02839 23.9227 2.02457 23.9194 2.02024C23.899 1.99398 23.8752 1.97055 23.8486 1.95056C23.8462 1.94876 23.8448 1.94614 23.8423 1.9444L21.9875 0.62485C21.4166 0.217317 20.7324 -0.00119137 20.031 4.89079e-06H11.844C11.1426 -0.00119199 10.4584 0.217317 9.88751 0.624852L8.03265 1.9444C8.03021 1.94614 8.02879 1.94876 8.02639 1.95056C7.99982 1.97055 7.97603 1.99398 7.95563 2.02024C7.95226 2.02457 7.94841 2.02839 7.94524 2.03284C7.92562 2.06067 7.9099 2.09105 7.89854 2.12315C7.8961 2.1299 7.89428 2.1366 7.89223 2.14347C7.88254 2.17493 7.87707 2.20755 7.87596 2.24045C7.87589 2.24296 7.87523 2.2453 7.87521 2.24781L7.875 2.25V7.06134C8.1305 7.141 8.38096 7.23603 8.625 7.3459V2.625H23.25L23.2505 21.375H20.0625V22.125H23.2505L23.2505 23.25H19.3125V18.375C19.3125 17.4799 18.9569 16.6215 18.324 15.9885C17.691 15.3556 16.8326 15 15.9375 15C15.0424 15 14.1839 15.3556 13.551 15.9885C12.9181 16.6215 12.5625 17.4799 12.5625 18.375V23.25H8.625V22.125H11.8125V21.375H8.77582L8.625 21.666L8.41164 22.0776L8.38957 22.1202L7.875 23.1129V23.25C7.87521 23.4488 7.9543 23.6395 8.0949 23.7801C8.23551 23.9207 8.42615 23.9998 8.625 24H23.25C23.4488 23.9998 23.6395 23.9207 23.7801 23.7801C23.9207 23.6395 23.9998 23.4488 24 23.25V2.25L23.9998 2.24781ZM9.42407 1.875L10.3222 1.23606C10.7662 0.919052 11.2984 0.749078 11.844 0.750005H20.031C20.5766 0.749081 21.1088 0.919054 21.5528 1.23606L22.4509 1.875H9.42407ZM18.5625 23.25H13.3125V18.375C13.3125 17.6788 13.5891 17.0111 14.0813 16.5188C14.5736 16.0266 15.2413 15.75 15.9375 15.75C16.6337 15.75 17.3014 16.0266 17.7937 16.5188C18.2859 17.0111 18.5625 17.6788 18.5625 18.375V23.25Z" fill="#007EE2"/>
<path d="M20.0625 6.375H21.9375C22.037 6.37499 22.1323 6.33548 22.2027 6.26516C22.273 6.19483 22.3125 6.09945 22.3125 6V4.125C22.3125 4.02555 22.273 3.93017 22.2027 3.85984C22.1323 3.78952 22.037 3.75 21.9375 3.75H20.0625C19.963 3.75 19.8677 3.78952 19.7973 3.85984C19.727 3.93017 19.6875 4.02555 19.6875 4.125V6C19.6875 6.09945 19.727 6.19483 19.7973 6.26516C19.8677 6.33548 19.963 6.37499 20.0625 6.375ZM20.4375 4.5H21.5625V5.625H20.4375V4.5Z" fill="#007EE2"/>
<path d="M19.6875 9.75C19.6875 9.84945 19.727 9.94483 19.7973 10.0152C19.8677 10.0855 19.963 10.125 20.0625 10.125H21.9375C22.037 10.125 22.1323 10.0855 22.2027 10.0152C22.273 9.94483 22.3125 9.84945 22.3125 9.75V7.875C22.3125 7.77555 22.273 7.68017 22.2027 7.60984C22.1323 7.53952 22.037 7.5 21.9375 7.5H20.0625C19.963 7.5 19.8677 7.53952 19.7973 7.60984C19.727 7.68017 19.6875 7.77555 19.6875 7.875V9.75ZM20.4375 8.25H21.5625V9.375H20.4375V8.25Z" fill="#007EE2"/>
<path d="M19.6875 13.5C19.6875 13.5995 19.727 13.6948 19.7973 13.7652C19.8677 13.8355 19.963 13.875 20.0625 13.875H21.9375C22.037 13.875 22.1323 13.8355 22.2027 13.7652C22.273 13.6948 22.3125 13.5995 22.3125 13.5V11.625C22.3125 11.5255 22.273 11.4302 22.2027 11.3598C22.1323 11.2895 22.037 11.25 21.9375 11.25H20.0625C19.963 11.25 19.8677 11.2895 19.7973 11.3598C19.727 11.4302 19.6875 11.5255 19.6875 11.625V13.5ZM20.4375 12H21.5625V13.125H20.4375V12Z" fill="#007EE2"/>
<path d="M16.6875 6.375H18.5625C18.662 6.37499 18.7573 6.33548 18.8277 6.26516C18.898 6.19483 18.9375 6.09945 18.9375 6V4.125C18.9375 4.02555 18.898 3.93017 18.8277 3.85984C18.7573 3.78952 18.662 3.75 18.5625 3.75H16.6875C16.588 3.75 16.4927 3.78952 16.4223 3.85984C16.352 3.93017 16.3125 4.02555 16.3125 4.125V6C16.3125 6.09945 16.352 6.19483 16.4223 6.26516C16.4927 6.33548 16.588 6.37499 16.6875 6.375ZM17.0625 4.5H18.1875V5.625H17.0625V4.5Z" fill="#007EE2"/>
<path d="M16.3125 9.75C16.3125 9.84945 16.352 9.94483 16.4223 10.0152C16.4927 10.0855 16.588 10.125 16.6875 10.125H18.5625C18.662 10.125 18.7573 10.0855 18.8277 10.0152C18.898 9.94483 18.9375 9.84945 18.9375 9.75V7.875C18.9375 7.77555 18.898 7.68017 18.8277 7.60984C18.7573 7.53952 18.662 7.5 18.5625 7.5H16.6875C16.588 7.5 16.4927 7.53952 16.4223 7.60984C16.352 7.68017 16.3125 7.77555 16.3125 7.875V9.75ZM17.0625 8.25H18.1875V9.375H17.0625V8.25Z" fill="#007EE2"/>
<path d="M16.3125 13.5C16.3125 13.5995 16.352 13.6948 16.4223 13.7652C16.4927 13.8355 16.588 13.875 16.6875 13.875H18.5625C18.662 13.875 18.7573 13.8355 18.8277 13.7652C18.898 13.6948 18.9375 13.5995 18.9375 13.5V11.625C18.9375 11.5255 18.898 11.4302 18.8277 11.3598C18.7573 11.2895 18.662 11.25 18.5625 11.25H16.6875C16.588 11.25 16.4927 11.2895 16.4223 11.3598C16.352 11.4302 16.3125 11.5255 16.3125 11.625V13.5ZM17.0625 12H18.1875V13.125H17.0625V12Z" fill="#007EE2"/>
<path d="M13.3125 6.375H15.1875C15.287 6.37499 15.3823 6.33548 15.4527 6.26516C15.523 6.19483 15.5625 6.09945 15.5625 6V4.125C15.5625 4.02555 15.523 3.93017 15.4527 3.85984C15.3823 3.78952 15.287 3.75 15.1875 3.75H13.3125C13.213 3.75 13.1177 3.78952 13.0473 3.85984C12.977 3.93017 12.9375 4.02555 12.9375 4.125V6C12.9375 6.09945 12.977 6.19483 13.0473 6.26516C13.1177 6.33548 13.213 6.37499 13.3125 6.375ZM13.6875 4.5H14.8125V5.625H13.6875V4.5Z" fill="#007EE2"/>
<path d="M12.9375 9.75C12.9375 9.84945 12.977 9.94483 13.0473 10.0152C13.1177 10.0855 13.213 10.125 13.3125 10.125H15.1875C15.287 10.125 15.3823 10.0855 15.4527 10.0152C15.523 9.94483 15.5625 9.84945 15.5625 9.75V7.875C15.5625 7.77555 15.523 7.68017 15.4527 7.60984C15.3823 7.53952 15.287 7.5 15.1875 7.5H13.3125C13.213 7.5 13.1177 7.53952 13.0473 7.60984C12.977 7.68017 12.9375 7.77555 12.9375 7.875V9.75ZM13.6875 8.25H14.8125V9.375H13.6875V8.25Z" fill="#007EE2"/>
<path d="M12.9375 13.5C12.9375 13.5995 12.977 13.6948 13.0473 13.7652C13.1177 13.8355 13.213 13.875 13.3125 13.875H15.1875C15.287 13.875 15.3823 13.8355 15.4527 13.7652C15.523 13.6948 15.5625 13.5995 15.5625 13.5V11.625C15.5625 11.5255 15.523 11.4302 15.4527 11.3598C15.3823 11.2895 15.287 11.25 15.1875 11.25H13.3125C13.213 11.25 13.1177 11.2895 13.0473 11.3598C12.977 11.4302 12.9375 11.5255 12.9375 11.625V13.5ZM13.6875 12H14.8125V13.125H13.6875V12Z" fill="#007EE2"/>
<path d="M12.1875 4.125C12.1875 4.02555 12.148 3.93017 12.0777 3.85984C12.0073 3.78952 11.912 3.75 11.8125 3.75H9.9375C9.83805 3.75 9.74267 3.78952 9.67234 3.85984C9.60202 3.93017 9.5625 4.02555 9.5625 4.125V6C9.5625 6.09945 9.60202 6.19483 9.67234 6.26516C9.74267 6.33548 9.83805 6.37499 9.9375 6.375H11.8125C11.912 6.37499 12.0073 6.33548 12.0777 6.26516C12.148 6.19483 12.1875 6.09945 12.1875 6V4.125ZM11.4375 5.625H10.3125V4.5H11.4375V5.625Z" fill="#007EE2"/>
<path d="M11.1527 9.375C11.2703 9.53344 11.3837 9.69582 11.4875 9.86655C11.5392 9.95159 11.5865 10.0383 11.6336 10.125H11.8115C11.9109 10.125 12.0063 10.0855 12.0766 10.0152C12.1469 9.94483 12.1865 9.84945 12.1865 9.75V7.875C12.1865 7.77555 12.1469 7.68017 12.0766 7.60984C12.0063 7.53952 11.9109 7.5 11.8115 7.5H9.93646C9.83891 7.5001 9.74525 7.53826 9.6754 7.60636C9.60556 7.67447 9.56505 7.76714 9.5625 7.86465C9.82623 8.04026 10.0766 8.23519 10.3115 8.44785V8.25H11.4365V9.375H11.1527Z" fill="#007EE2"/>
<path d="M10.8446 10.2569C10.3155 9.4011 9.57342 8.69725 8.69085 8.21415C7.80827 7.73104 6.81545 7.48521 5.80943 7.50069C4.8034 7.48521 3.81058 7.73104 2.92801 8.21415C2.04543 8.69725 1.30332 9.4011 0.774209 10.2569C0.295161 11.0238 0.0265056 11.9034 -0.00473725 12.8071C-0.0359801 13.7109 0.171291 14.6069 0.59623 15.4051L4.71427 23.35C4.82147 23.5469 4.97977 23.7112 5.1725 23.8257C5.36523 23.9403 5.58527 24.0007 5.80945 24.0007C6.03363 24.0007 6.25367 23.9402 6.44639 23.8257C6.63911 23.7112 6.7974 23.5468 6.90458 23.3499L11.0226 15.4051C11.4476 14.6069 11.6548 13.7109 11.6236 12.8071C11.5923 11.9034 11.3237 11.0238 10.8446 10.2569ZM10.3568 15.0599L6.2388 23.0047C6.1949 23.0796 6.13217 23.1417 6.05686 23.1848C5.98154 23.228 5.89625 23.2507 5.80944 23.2507C5.72264 23.2507 5.63734 23.228 5.56202 23.1849C5.48669 23.1417 5.42396 23.0797 5.38004 23.0048L1.262 15.0599C0.897781 14.3756 0.720175 13.6075 0.747047 12.8327C0.773919 12.058 1.00432 11.304 1.41508 10.6465C1.87773 9.90118 2.52584 9.2886 3.29606 8.86867C4.06629 8.44873 4.93229 8.2358 5.80943 8.25069C6.68656 8.2358 7.55256 8.44873 8.32279 8.86867C9.09302 9.2886 9.74112 9.90118 10.2038 10.6465C10.6145 11.304 10.8449 12.058 10.8718 12.8327C10.8987 13.6075 10.7211 14.3756 10.3568 15.0599Z" fill="#007EE2"/>
<path d="M5.8125 9.75C5.14499 9.75 4.49247 9.94794 3.93745 10.3188C3.38244 10.6896 2.94985 11.2167 2.69441 11.8334C2.43896 12.4501 2.37213 13.1287 2.50235 13.7834C2.63258 14.4381 2.95401 15.0395 3.42602 15.5115C3.89802 15.9835 4.49939 16.3049 5.15407 16.4351C5.80876 16.5654 6.48736 16.4985 7.10406 16.2431C7.72076 15.9876 8.24786 15.5551 8.61871 15C8.98956 14.445 9.1875 13.7925 9.1875 13.125C9.18648 12.2302 8.83057 11.3724 8.19786 10.7396C7.56514 10.1069 6.70729 9.75102 5.8125 9.75ZM5.8125 15.75C5.29332 15.75 4.78581 15.596 4.35413 15.3076C3.92245 15.0192 3.586 14.6092 3.38732 14.1295C3.18864 13.6499 3.13665 13.1221 3.23794 12.6129C3.33923 12.1037 3.58923 11.636 3.95635 11.2688C4.32346 10.9017 4.79119 10.6517 5.30039 10.5504C5.80959 10.4492 6.33739 10.5011 6.81704 10.6998C7.2967 10.8985 7.70667 11.2349 7.99511 11.6666C8.28355 12.0983 8.4375 12.6058 8.4375 13.125C8.43672 13.821 8.15991 14.4882 7.66779 14.9803C7.17568 15.4724 6.50845 15.7492 5.8125 15.75Z" fill="#007EE2"/>
</g>
<defs>
<clipPath id="clip0_3576_5276">
<rect width="24" height="24" fill="white"/>
</clipPath>
</defs>
</svg>
