<svg width="22" height="22" viewBox="0 0 22 22" fill="none" xmlns="http://www.w3.org/2000/svg">
<g clip-path="url(#clip0_5469_11698)">
<path d="M10.9186 7.78266L10.7916 0.906512C10.7874 0.678792 10.5766 0.511389 10.3539 0.558873L3.60336 1.99785C3.52091 2.01543 3.44717 2.06121 3.39484 2.1273L1.0326 5.11118C0.824341 5.37425 1.05471 5.75464 1.38432 5.69197L3.68197 5.25509C0.749724 9.74509 1.5286 15.8387 5.90406 19.2062C10.5315 22.7569 17.3352 22.0239 21.0464 17.511C17.6101 20.4432 12.5016 20.9243 8.83631 18.0837C5.78952 15.7241 4.85028 11.1196 7.71381 8.27897L7.82959 10.7932C7.84501 11.1279 8.26755 11.2641 8.47554 11.0014L10.8404 8.01421C10.8925 7.94841 10.9201 7.86657 10.9186 7.78266Z" fill="white"/>
</g>
<defs>
<clipPath id="clip0_5469_11698">
<rect width="22" height="22" fill="white"/>
</clipPath>
</defs>
</svg>
