<svg width="16" height="17" viewBox="0 0 16 17" fill="none" xmlns="http://www.w3.org/2000/svg">
<path d="M11.534 5.44486C12.1655 5.44486 12.6792 4.93111 12.6792 4.29958C12.6792 3.66805 12.1655 3.1543 11.534 3.1543C10.9024 3.1543 10.3887 3.66805 10.3887 4.29958C10.3887 4.93111 10.9024 5.44486 11.534 5.44486ZM11.534 3.62305C11.907 3.62305 12.2105 3.92652 12.2105 4.29958C12.2105 4.67264 11.907 4.97611 11.534 4.97611C11.1609 4.97611 10.8574 4.67264 10.8574 4.29958C10.8574 3.92652 11.1609 3.62305 11.534 3.62305Z" fill="#727272"/>
<path d="M2.73047 8.62244C2.85994 8.62244 2.96484 8.5175 2.96484 8.38806V8.29297C2.96484 8.16353 2.85994 8.05859 2.73047 8.05859C2.601 8.05859 2.49609 8.16353 2.49609 8.29297V8.38806C2.49609 8.5175 2.60103 8.62244 2.73047 8.62244Z" fill="#727272"/>
<path d="M2.49609 9.46619C2.49609 9.59562 2.601 9.70056 2.73047 9.70056C2.85994 9.70056 2.96484 9.59562 2.96484 9.46619V9.37109C2.96484 9.24166 2.85994 9.13672 2.73047 9.13672C2.601 9.13672 2.49609 9.24166 2.49609 9.37109V9.46619Z" fill="#727272"/>
<path d="M15.9976 10.9902C15.9841 10.8436 15.9142 10.7109 15.801 10.6168L15.12 10.0508C15.0068 9.95666 14.8637 9.91228 14.717 9.92581C14.5703 9.93934 14.4377 10.0092 14.3436 10.1224L13.7298 10.8609C13.6471 10.9604 13.6607 11.1082 13.7602 11.1909C13.8598 11.2737 14.0075 11.2601 14.0903 11.1605L14.7041 10.422C14.7231 10.3991 14.7473 10.3937 14.76 10.3926C14.7727 10.3913 14.7975 10.3922 14.8204 10.4113L15.5014 10.9773C15.5243 10.9963 15.5297 11.0205 15.5309 11.0332C15.5321 11.046 15.5312 11.0708 15.5122 11.0937L12.1062 15.1913C12.0127 15.3039 11.8751 15.3727 11.7289 15.3802C11.5811 15.3878 11.4396 15.3337 11.3344 15.2307L9.96428 13.8873C9.96397 13.887 9.96362 13.8867 9.96328 13.8863L8.96719 12.9097C8.93466 12.8778 8.93412 12.8254 8.96603 12.7929L9.58597 12.1606C9.60681 12.1394 9.63134 12.136 9.64412 12.1358C9.65547 12.1357 9.68147 12.1386 9.70275 12.1595L11.4811 13.903C11.5278 13.9488 11.5911 13.973 11.6571 13.9697C11.7225 13.9664 11.7835 13.9358 11.8254 13.8854L12.5697 12.9899C12.5703 12.9893 12.5708 12.9887 12.5713 12.988L13.3882 12.0052C13.4709 11.9057 13.4573 11.7579 13.3577 11.6752C13.2581 11.5924 13.1104 11.6061 13.0277 11.7056L12.6241 12.1911V10.7414C12.6241 10.2419 12.4632 9.77956 12.1912 9.40238C12.7216 8.64734 13.0274 7.77619 13.0857 6.85703C13.2428 6.90541 13.4208 6.86775 13.5449 6.74369L13.9786 6.31003C14.1571 6.1315 14.1571 5.84097 13.9786 5.66241L13.7232 5.40706C13.779 5.29697 13.8267 5.18147 13.8652 5.06369H14.2266C14.4791 5.06369 14.6845 4.85825 14.6845 4.60572V3.99244C14.6845 3.73991 14.4791 3.5345 14.2266 3.5345H13.8652C13.8267 3.41666 13.7789 3.30119 13.7232 3.19113L13.9786 2.93578C14.0651 2.84928 14.1127 2.73428 14.1127 2.61197C14.1127 2.48966 14.0651 2.37462 13.9786 2.28816L13.5449 1.8545C13.4584 1.768 13.3434 1.72038 13.2211 1.72038C13.0988 1.72038 12.9838 1.768 12.8973 1.8545L12.6419 2.10981C12.5317 2.05403 12.4162 2.00628 12.2985 1.96778V1.60641C12.2985 1.35388 12.0931 1.14844 11.8406 1.14844H11.2273C10.9748 1.14844 10.7694 1.35388 10.7694 1.60641V1.96769C10.6516 2.00622 10.5361 2.054 10.4259 2.10975L10.1706 1.85441C10.0261 1.70988 9.80816 1.68244 9.63566 1.77191C9.13816 1.61066 8.61969 1.52881 8.0925 1.52881C6.98641 1.52881 5.93816 1.88247 5.06091 2.55159C4.29413 3.13644 3.70584 3.94237 3.38138 4.84466C3.18469 4.74806 2.96375 4.69359 2.73022 4.69359C1.91287 4.69359 1.24791 5.35853 1.24791 6.17587C1.24791 6.56762 1.40094 6.92412 1.65003 7.18941H1.50231C0.703094 7.18941 0.0441563 7.81416 0.0021875 8.61172C-0.004625 8.74097 0.0946562 8.85128 0.223906 8.85809C0.352875 8.86481 0.4635 8.76566 0.470281 8.63634C0.499156 8.08784 0.9525 7.65816 1.50231 7.65816H3.95809C4.50294 7.65816 4.95034 8.082 4.98869 8.61722C4.28097 8.90713 3.74941 9.54053 3.60225 10.3092H0.551375C0.505812 10.3092 0.46875 10.2721 0.46875 10.2266V9.71778C0.46875 9.58834 0.363844 9.48341 0.234375 9.48341C0.104906 9.48341 0 9.58834 0 9.71778V10.2266C0 10.5306 0.247344 10.7779 0.551375 10.7779H3.56084V11.6865C3.56084 11.816 3.66575 11.9209 3.79522 11.9209C3.92469 11.9209 4.02959 11.816 4.02959 11.6865V10.7414C4.02959 9.73453 4.84872 8.91541 5.85559 8.91541H7.26725V10.5127C7.26725 10.8167 7.51459 11.0641 7.81862 11.0641H8.36644C8.67047 11.0641 8.91781 10.8167 8.91781 10.5127V8.91541H10.3295C11.3363 8.91541 12.1555 9.73453 12.1555 10.7414V12.7551L11.6276 13.3901L10.031 11.8247C9.92584 11.7217 9.78744 11.6664 9.63956 11.6671C9.49228 11.6686 9.35441 11.7273 9.25131 11.8325L8.63138 12.4648C8.41853 12.6818 8.422 13.0316 8.63906 13.2445L9.22434 13.8183H4.11219C4.06663 13.8183 4.02956 13.7812 4.02956 13.7357V12.7803C4.02956 12.6508 3.92466 12.5459 3.79519 12.5459C3.66572 12.5459 3.56081 12.6508 3.56081 12.7803V13.7357C3.56081 14.0397 3.80816 14.287 4.11219 14.287H9.70241L11.0063 15.5654C11.1932 15.7487 11.4404 15.8496 11.7022 15.8496C11.719 15.8496 11.736 15.8492 11.7528 15.8483C12.0295 15.8342 12.2897 15.704 12.4668 15.4909L15.8726 11.3932C15.9668 11.28 16.0111 11.1369 15.9976 10.9902ZM10.6338 2.52991C10.7252 2.48334 10.8213 2.44363 10.9194 2.41178C11.11 2.34994 11.2381 2.17466 11.2381 1.97559V1.61719H11.8298V1.97559C11.8298 2.17466 11.9579 2.34994 12.1484 2.41178C12.2465 2.44359 12.3426 2.48334 12.4341 2.52988C12.6127 2.62081 12.8272 2.58741 12.9678 2.44675L13.2211 2.19347L13.6395 2.61188L13.3862 2.86512C13.2456 3.00575 13.2121 3.22025 13.3031 3.39891C13.3496 3.49028 13.3893 3.58637 13.4212 3.6845C13.483 3.87512 13.6583 4.00319 13.8573 4.00319H14.2157V4.59491H13.8573C13.6583 4.59491 13.483 4.72297 13.4212 4.91356C13.3893 5.01169 13.3496 5.10778 13.3031 5.19919C13.2121 5.37781 13.2455 5.59231 13.3862 5.73294L13.6394 5.98622L13.221 6.40462L12.9678 6.15134C12.8272 6.01072 12.6127 5.97731 12.4341 6.06816C12.3425 6.11478 12.2464 6.15453 12.1484 6.18631C11.9578 6.24816 11.8298 6.42344 11.8298 6.6225V6.98091H11.2381V6.62247C11.2381 6.42344 11.11 6.24816 10.9194 6.18628C10.8213 6.15447 10.7252 6.11472 10.6337 6.06816C10.5653 6.03331 10.4916 6.01691 10.4188 6.01759C10.2379 5.19956 9.63569 4.53856 8.85206 4.27422V4.00316H9.2105C9.40953 4.00316 9.58481 3.87509 9.64666 3.6845C9.67847 3.5865 9.71819 3.49038 9.76475 3.39887C9.85566 3.22028 9.82228 3.00578 9.68166 2.86516L9.42838 2.61188L9.84675 2.19347L10.1001 2.44681C10.2408 2.58741 10.4552 2.62084 10.6338 2.52991ZM8.09247 8.44666C7.03697 8.44666 6.17822 7.58794 6.17822 6.53237C6.17822 5.47684 7.03694 4.61813 8.09247 4.61813C9.148 4.61813 10.0068 5.47684 10.0068 6.53237C10.0068 7.58794 9.148 8.44666 8.09247 8.44666ZM1.71666 6.17587C1.71666 5.617 2.17134 5.16234 2.73022 5.16234C3.28909 5.16234 3.74375 5.617 3.74375 6.17587C3.74375 6.73475 3.28909 7.18941 2.73022 7.18941C2.17134 7.18941 1.71666 6.73475 1.71666 6.17587ZM5.44569 8.48406C5.34419 7.75366 4.71594 7.18944 3.95806 7.18944H3.81034C4.05941 6.92412 4.21247 6.56766 4.21247 6.17591C4.21247 5.76797 4.04678 5.39803 3.77925 5.12975C4.06231 4.26087 4.61422 3.48191 5.34519 2.92431C6.14003 2.31806 7.09 1.99759 8.09247 1.99759C8.48041 1.99759 8.86306 2.04638 9.2345 2.14284L9.08928 2.28806C8.91072 2.46663 8.91072 2.75716 9.08928 2.93572L9.34463 3.19106C9.28888 3.30128 9.24109 3.41675 9.20256 3.53447H8.84128C8.58878 3.53447 8.38334 3.73991 8.38334 3.99241V4.16778C8.28794 4.15613 8.191 4.14941 8.09247 4.14941C6.77847 4.14941 5.70947 5.21841 5.70947 6.53241C5.70947 7.31587 6.08963 8.01206 6.675 8.44669H5.85553C5.71562 8.44666 5.57878 8.45994 5.44569 8.48406ZM8.449 10.5127C8.449 10.5583 8.41194 10.5953 8.36637 10.5953H7.81856C7.773 10.5953 7.73594 10.5583 7.73594 10.5127V8.91544H8.44897V10.5127H8.449ZM10.3294 8.44666H9.50994C10.0953 8.01206 10.4755 7.31584 10.4755 6.53237C10.4755 6.52553 10.475 6.51881 10.475 6.51197C10.5703 6.55753 10.6689 6.59753 10.7693 6.63041V6.99169C10.7693 7.24422 10.9748 7.44963 11.2273 7.44963H11.8406C12.0931 7.44963 12.2985 7.24419 12.2985 6.99169V6.63041C12.4109 6.59362 12.5212 6.54816 12.6271 6.4955C12.6272 6.50806 12.6273 6.52037 12.6273 6.53241C12.6273 7.43622 12.3663 8.29828 11.8699 9.04216C11.4624 8.67231 10.9218 8.44666 10.3294 8.44666Z" fill="#727272"/>
</svg>
