<svg width="79" height="79" viewBox="0 0 79 79" fill="none" xmlns="http://www.w3.org/2000/svg">
<g filter="url(#filter0_d_4461_4781)">
<rect x="12" y="8" width="55" height="55" rx="27.5" fill="#3498DB"/>
<path d="M48.3025 27.743L40.0525 18.743C39.7695 18.432 39.2305 18.432 38.9475 18.743L30.6975 27.743C30.4965 27.963 30.4435 28.279 30.5635 28.552C30.6835 28.825 30.9515 29 31.2495 29H35.4995V37.75C35.4995 38.164 35.8355 38.5 36.2495 38.5H42.7495C43.1635 38.5 43.4995 38.164 43.4995 37.75V29H47.7495C48.0475 29 48.3155 28.824 48.4365 28.552C48.5575 28.28 48.5035 27.963 48.3025 27.743Z" fill="white"/>
<path d="M27.89 49.95H24.85L24.29 51.5H23.33L25.85 44.57H26.9L29.41 51.5H28.45L27.89 49.95ZM27.63 49.21L26.37 45.69L25.11 49.21H27.63ZM32.4483 51.59C32.0283 51.59 31.6516 51.52 31.3183 51.38C30.9849 51.2333 30.7216 51.0333 30.5283 50.78C30.3349 50.52 30.2283 50.2233 30.2083 49.89H31.1483C31.1749 50.1633 31.3016 50.3867 31.5283 50.56C31.7616 50.7333 32.0649 50.82 32.4383 50.82C32.7849 50.82 33.0583 50.7433 33.2583 50.59C33.4583 50.4367 33.5583 50.2433 33.5583 50.01C33.5583 49.77 33.4516 49.5933 33.2383 49.48C33.0249 49.36 32.6949 49.2433 32.2483 49.13C31.8416 49.0233 31.5083 48.9167 31.2483 48.81C30.9949 48.6967 30.7749 48.5333 30.5883 48.32C30.4083 48.1 30.3183 47.8133 30.3183 47.46C30.3183 47.18 30.4016 46.9233 30.5683 46.69C30.7349 46.4567 30.9716 46.2733 31.2783 46.14C31.5849 46 31.9349 45.93 32.3283 45.93C32.9349 45.93 33.4249 46.0833 33.7983 46.39C34.1716 46.6967 34.3716 47.1167 34.3983 47.65H33.4883C33.4683 47.3633 33.3516 47.1333 33.1383 46.96C32.9316 46.7867 32.6516 46.7 32.2983 46.7C31.9716 46.7 31.7116 46.77 31.5183 46.91C31.3249 47.05 31.2283 47.2333 31.2283 47.46C31.2283 47.64 31.2849 47.79 31.3983 47.91C31.5183 48.0233 31.6649 48.1167 31.8383 48.19C32.0183 48.2567 32.2649 48.3333 32.5783 48.42C32.9716 48.5267 33.2916 48.6333 33.5383 48.74C33.7849 48.84 33.9949 48.9933 34.1683 49.2C34.3483 49.4067 34.4416 49.6767 34.4483 50.01C34.4483 50.31 34.3649 50.58 34.1983 50.82C34.0316 51.06 33.7949 51.25 33.4883 51.39C33.1883 51.5233 32.8416 51.59 32.4483 51.59ZM37.6729 51.59C37.2529 51.59 36.8762 51.52 36.5429 51.38C36.2096 51.2333 35.9462 51.0333 35.7529 50.78C35.5596 50.52 35.4529 50.2233 35.4329 49.89H36.3729C36.3996 50.1633 36.5262 50.3867 36.7529 50.56C36.9862 50.7333 37.2896 50.82 37.6629 50.82C38.0096 50.82 38.2829 50.7433 38.4829 50.59C38.6829 50.4367 38.7829 50.2433 38.7829 50.01C38.7829 49.77 38.6762 49.5933 38.4629 49.48C38.2496 49.36 37.9196 49.2433 37.4729 49.13C37.0662 49.0233 36.7329 48.9167 36.4729 48.81C36.2196 48.6967 35.9996 48.5333 35.8129 48.32C35.6329 48.1 35.5429 47.8133 35.5429 47.46C35.5429 47.18 35.6262 46.9233 35.7929 46.69C35.9596 46.4567 36.1962 46.2733 36.5029 46.14C36.8096 46 37.1596 45.93 37.5529 45.93C38.1596 45.93 38.6496 46.0833 39.0229 46.39C39.3962 46.6967 39.5962 47.1167 39.6229 47.65H38.7129C38.6929 47.3633 38.5762 47.1333 38.3629 46.96C38.1562 46.7867 37.8762 46.7 37.5229 46.7C37.1962 46.7 36.9362 46.77 36.7429 46.91C36.5496 47.05 36.4529 47.2333 36.4529 47.46C36.4529 47.64 36.5096 47.79 36.6229 47.91C36.7429 48.0233 36.8896 48.1167 37.0629 48.19C37.2429 48.2567 37.4896 48.3333 37.8029 48.42C38.1962 48.5267 38.5162 48.6333 38.7629 48.74C39.0096 48.84 39.2196 48.9933 39.3929 49.2C39.5729 49.4067 39.6662 49.6767 39.6729 50.01C39.6729 50.31 39.5896 50.58 39.4229 50.82C39.2562 51.06 39.0196 51.25 38.7129 51.39C38.4129 51.5233 38.0662 51.59 37.6729 51.59ZM41.4275 45.13C41.2542 45.13 41.1075 45.07 40.9875 44.95C40.8675 44.83 40.8075 44.6833 40.8075 44.51C40.8075 44.3367 40.8675 44.19 40.9875 44.07C41.1075 43.95 41.2542 43.89 41.4275 43.89C41.5942 43.89 41.7342 43.95 41.8475 44.07C41.9675 44.19 42.0275 44.3367 42.0275 44.51C42.0275 44.6833 41.9675 44.83 41.8475 44.95C41.7342 45.07 41.5942 45.13 41.4275 45.13ZM41.8675 46.02V51.5H40.9575V46.02H41.8675ZM45.6784 45.93C46.1518 45.93 46.5651 46.0333 46.9184 46.24C47.2784 46.4467 47.5451 46.7067 47.7184 47.02V46.02H48.6384V51.62C48.6384 52.12 48.5318 52.5633 48.3184 52.95C48.1051 53.3433 47.7984 53.65 47.3984 53.87C47.0051 54.09 46.5451 54.2 46.0184 54.2C45.2984 54.2 44.6984 54.03 44.2184 53.69C43.7384 53.35 43.4551 52.8867 43.3684 52.3H44.2684C44.3684 52.6333 44.5751 52.9 44.8884 53.1C45.2018 53.3067 45.5784 53.41 46.0184 53.41C46.5184 53.41 46.9251 53.2533 47.2384 52.94C47.5584 52.6267 47.7184 52.1867 47.7184 51.62V50.47C47.5384 50.79 47.2718 51.0567 46.9184 51.27C46.5651 51.4833 46.1518 51.59 45.6784 51.59C45.1918 51.59 44.7484 51.47 44.3484 51.23C43.9551 50.99 43.6451 50.6533 43.4184 50.22C43.1918 49.7867 43.0784 49.2933 43.0784 48.74C43.0784 48.18 43.1918 47.69 43.4184 47.27C43.6451 46.8433 43.9551 46.5133 44.3484 46.28C44.7484 46.0467 45.1918 45.93 45.6784 45.93ZM47.7184 48.75C47.7184 48.3367 47.6351 47.9767 47.4684 47.67C47.3018 47.3633 47.0751 47.13 46.7884 46.97C46.5084 46.8033 46.1984 46.72 45.8584 46.72C45.5184 46.72 45.2084 46.8 44.9284 46.96C44.6484 47.12 44.4251 47.3533 44.2584 47.66C44.0918 47.9667 44.0084 48.3267 44.0084 48.74C44.0084 49.16 44.0918 49.5267 44.2584 49.84C44.4251 50.1467 44.6484 50.3833 44.9284 50.55C45.2084 50.71 45.5184 50.79 45.8584 50.79C46.1984 50.79 46.5084 50.71 46.7884 50.55C47.0751 50.3833 47.3018 50.1467 47.4684 49.84C47.6351 49.5267 47.7184 49.1633 47.7184 48.75ZM52.8463 45.92C53.5129 45.92 54.0529 46.1233 54.4663 46.53C54.8796 46.93 55.0863 47.51 55.0863 48.27V51.5H54.1863V48.4C54.1863 47.8533 54.0496 47.4367 53.7763 47.15C53.5029 46.8567 53.1296 46.71 52.6563 46.71C52.1763 46.71 51.7929 46.86 51.5063 47.16C51.2263 47.46 51.0863 47.8967 51.0863 48.47V51.5H50.1763V46.02H51.0863V46.8C51.2663 46.52 51.5096 46.3033 51.8163 46.15C52.1296 45.9967 52.4729 45.92 52.8463 45.92Z" fill="white"/>
</g>
<defs>
<filter id="filter0_d_4461_4781" x="0" y="0" width="79" height="79" filterUnits="userSpaceOnUse" color-interpolation-filters="sRGB">
<feFlood flood-opacity="0" result="BackgroundImageFix"/>
<feColorMatrix in="SourceAlpha" type="matrix" values="0 0 0 0 0 0 0 0 0 0 0 0 0 0 0 0 0 0 127 0" result="hardAlpha"/>
<feOffset dy="4"/>
<feGaussianBlur stdDeviation="6"/>
<feColorMatrix type="matrix" values="0 0 0 0 0.129412 0 0 0 0 0.588235 0 0 0 0 0.952941 0 0 0 0.49 0"/>
<feBlend mode="normal" in2="BackgroundImageFix" result="effect1_dropShadow_4461_4781"/>
<feBlend mode="normal" in="SourceGraphic" in2="effect1_dropShadow_4461_4781" result="shape"/>
</filter>
</defs>
</svg>
