<svg width="24" height="24" viewBox="0 0 24 24" fill="none" xmlns="http://www.w3.org/2000/svg">
<rect x="0.5" y="0.5" width="23" height="23" rx="3.5" fill="white" stroke="#ECECEC"/>
<path d="M14.31 7.49502C14.2519 7.43681 14.183 7.39064 14.107 7.35913C14.0311 7.32762 13.9497 7.3114 13.8675 7.3114C13.7853 7.3114 13.7039 7.32762 13.628 7.35913C13.552 7.39064 13.4831 7.43681 13.425 7.49502L9.27 11.65C9.22365 11.6963 9.18688 11.7512 9.16179 11.8117C9.13669 11.8722 9.12378 11.937 9.12378 12.0025C9.12378 12.068 9.13669 12.1328 9.16179 12.1933C9.18688 12.2538 9.22365 12.3088 9.27 12.355L13.425 16.51C13.67 16.755 14.065 16.755 14.31 16.51C14.555 16.265 14.555 15.87 14.31 15.625L10.69 12L14.315 8.37502C14.555 8.13502 14.555 7.73502 14.31 7.49502Z" fill="#1E232C" stroke="#1E232C" stroke-width="0.2"/>
</svg>
