<svg width="30" height="30" viewBox="0 0 30 30" fill="none" xmlns="http://www.w3.org/2000/svg">
<rect width="30" height="30" rx="15" fill="#FF9C53" fill-opacity="0.23"/>
<path d="M14.3805 9.06228H14.004C13.9973 8.43924 14.5071 7.93948 15.1368 7.94948C15.7865 7.94948 16.3995 8.43591 16.5794 9.06228H16.183C15.8864 8.21935 14.4405 7.96947 14.3805 9.06228ZM19.3781 9.06228H19.7779C19.5946 8.43591 18.9783 7.94948 18.3319 7.94948C17.7022 7.93615 17.1891 8.43591 17.2025 9.06228H17.5789C17.6356 7.96947 19.0849 8.21935 19.3781 9.06228ZM12.9845 9.06228H13.3843C13.2044 8.43591 12.588 7.94948 11.9417 7.94948C11.312 7.93615 10.7989 8.43924 10.8089 9.06228H11.1854C11.242 7.96947 12.6913 8.21602 12.9845 9.06228ZM10.4924 20.5634L8.91979 10.9847C8.82983 10.4283 8.97976 9.9052 9.34958 9.53205C8.72322 9.74861 8.20347 10.315 8.09352 10.9847L6.52095 20.5634C6.45431 20.9665 6.5476 21.343 6.78748 21.6262C7.0207 21.8994 7.36387 22.0494 7.75702 22.0494H11.4752C10.9721 21.7062 10.5923 21.1664 10.4924 20.5634ZM16.4295 14.0432C16.4528 14.0432 16.4662 14.0299 16.4595 14.0032L16.3162 13.1237C16.3062 13.0703 16.2496 13.0204 16.1996 13.0204H15.32C15.2967 13.0204 15.2834 13.0337 15.2901 13.0604L15.4333 13.9399C15.4433 13.9932 15.5 14.0432 15.5499 14.0432H16.4295ZM18.7451 14.0432H19.6246C19.6313 14.0432 19.6446 14.0432 19.6513 14.0332C19.6579 14.0266 19.6579 14.0166 19.6546 13.9999L19.5114 13.1203C19.5014 13.067 19.4447 13.017 19.3947 13.017H18.5152C18.4918 13.017 18.4785 13.0304 18.4852 13.057L18.6284 13.9366C18.6384 13.9932 18.6951 14.0432 18.7451 14.0432ZM17.1358 18.7176H16.2563C16.2496 18.7176 16.2363 18.7176 16.2296 18.7276C16.2229 18.7343 16.2229 18.7443 16.2263 18.7609L16.3695 19.6405C16.3795 19.6938 16.4362 19.7438 16.4861 19.7438H17.3657C17.389 19.7438 17.4024 19.7305 17.3957 19.7038L17.2524 18.8242C17.2424 18.7676 17.1858 18.7176 17.1358 18.7176ZM16.8959 16.8918C16.9193 16.8918 16.9326 16.8785 16.9259 16.8519L16.7827 15.9723C16.7727 15.919 16.716 15.869 16.6661 15.869H15.7865C15.7632 15.869 15.7498 15.8823 15.7565 15.909L15.8998 16.7886C15.9098 16.8419 15.9664 16.8918 16.0164 16.8918H16.8959ZM13.9407 18.7176H13.0611C13.0545 18.7176 13.0411 18.7176 13.0345 18.7276C13.0278 18.7343 13.0278 18.7443 13.0311 18.7609L13.1744 19.6405C13.1844 19.6938 13.241 19.7438 13.291 19.7438H14.1673C14.1906 19.7438 14.2039 19.7305 14.1972 19.7038L14.054 18.8242C14.0473 18.7676 13.9907 18.7176 13.9407 18.7176ZM13.2344 14.0432C13.2577 14.0432 13.271 14.0299 13.2644 14.0032L13.1211 13.1237C13.1111 13.0703 13.0545 13.0204 13.0045 13.0204H12.1249C12.1016 13.0204 12.0883 13.0337 12.0949 13.0604L12.2382 13.9399C12.2482 13.9932 12.3048 14.0432 12.3548 14.0432H13.2344ZM13.7008 16.8918C13.7241 16.8918 13.7375 16.8785 13.7308 16.8519L13.5875 15.9723C13.5775 15.919 13.5209 15.869 13.4709 15.869H12.5914C12.568 15.869 12.5547 15.8823 12.5614 15.909L12.7046 16.7886C12.7146 16.8419 12.7713 16.8918 12.8212 16.8918H13.7008ZM20.331 18.7176H19.4514C19.4447 18.7176 19.4314 18.7176 19.4247 18.7276C19.4181 18.7343 19.4181 18.7443 19.4214 18.7609L19.5647 19.6405C19.5747 19.6938 19.6313 19.7438 19.6813 19.7438H20.5608C20.5842 19.7438 20.5975 19.7305 20.5908 19.7038L20.4476 18.8242C20.4376 18.7676 20.3809 18.7176 20.331 18.7176ZM19.508 17.0018C19.598 16.9485 19.7113 16.9485 19.8112 16.9951L20.291 17.225L20.1311 16.7452C20.0944 16.6386 20.1144 16.5253 20.1844 16.4421L20.5109 16.0622L19.9245 15.9789C19.8245 15.9656 19.7346 15.909 19.6779 15.8224L19.3514 15.3259L19.2015 15.779C19.1649 15.8857 19.0716 15.9656 18.9583 15.9823L18.4852 16.0522L18.9283 16.4221C19.0083 16.4887 19.0549 16.5887 19.0549 16.6886L19.0516 17.265L19.508 17.0018ZM22.4 20.5601C22.42 20.6767 22.3933 20.78 22.3267 20.8599C22.2634 20.9332 22.1667 20.9765 22.0535 20.9765H12.4914C12.2349 20.9765 11.9816 20.76 11.9383 20.5001L10.5757 12.2041C10.5357 11.9775 10.6889 11.7876 10.9188 11.791H20.4875C20.7441 11.791 20.9973 12.0075 21.0406 12.2674L22.4 20.5601ZM18.112 13.1203L18.2553 13.9999C18.2953 14.2331 18.5085 14.4164 18.7451 14.4164H19.6246C19.8778 14.423 20.0744 14.1865 20.0278 13.9366L19.8845 13.057C19.8445 12.8238 19.6313 12.6406 19.3947 12.6406H18.5152C18.3919 12.6406 18.2786 12.6905 18.202 12.7805C18.1254 12.8738 18.092 12.997 18.112 13.1203ZM12.3548 14.4197H13.2344C13.4876 14.4264 13.6842 14.1898 13.6375 13.9399L13.4943 13.0604C13.4543 12.8271 13.241 12.6439 13.0045 12.6439H12.1249C12.0016 12.6439 11.8884 12.6939 11.8117 12.7838C11.7351 12.8738 11.7018 12.997 11.7218 13.1203L11.865 13.9999C11.905 14.2365 12.1182 14.4197 12.3548 14.4197ZM12.8212 17.2683H13.7008C13.954 17.275 14.1506 17.0384 14.104 16.7886L13.9607 15.909C13.924 15.6758 13.7075 15.4925 13.4709 15.4925H12.5914C12.4681 15.4925 12.3548 15.5425 12.2782 15.6324C12.2015 15.7224 12.1682 15.8457 12.1882 15.9689L12.3315 16.8485C12.3715 17.0851 12.5847 17.2683 12.8212 17.2683ZM14.5704 19.6372L14.4271 18.7576C14.3872 18.5244 14.1739 18.3411 13.9374 18.3411H13.0578C12.8046 18.3345 12.608 18.571 12.6547 18.8209L12.7979 19.7005C12.8379 19.9337 13.0511 20.117 13.2877 20.117H14.1673C14.2905 20.117 14.4038 20.067 14.4804 19.977C14.5604 19.8871 14.5937 19.7638 14.5704 19.6372ZM15.5499 14.4197H16.4295C16.6827 14.4264 16.8793 14.1898 16.8326 13.9399L16.6894 13.0604C16.6494 12.8271 16.4362 12.6439 16.1996 12.6439H15.32C15.1968 12.6439 15.0835 12.6939 15.0069 12.7838C14.9302 12.8738 14.8969 12.997 14.9169 13.1203L15.0602 13.9999C15.1001 14.2365 15.3134 14.4197 15.5499 14.4197ZM16.0164 17.2683H16.8959C17.1492 17.275 17.3457 17.0384 17.2991 16.7886L17.1558 15.909C17.1192 15.6758 16.9026 15.4925 16.6661 15.4925H15.7865C15.6632 15.4925 15.5499 15.5425 15.4733 15.6324C15.3967 15.7224 15.3634 15.8457 15.3833 15.9689L15.5266 16.8485C15.5666 17.0851 15.7831 17.2683 16.0164 17.2683ZM17.7689 19.6372L17.6256 18.7576C17.5856 18.5244 17.3724 18.3411 17.1358 18.3411H16.2563C16.003 18.3345 15.8065 18.571 15.8531 18.8209L15.9964 19.7005C16.0364 19.9337 16.2496 20.117 16.4861 20.117H17.3657C17.489 20.117 17.6023 20.067 17.6789 19.977C17.7555 19.8871 17.7888 19.7638 17.7689 19.6372ZM19.1782 17.6281L19.6679 17.345L20.2643 17.6315C20.3843 17.6881 20.5209 17.6748 20.6142 17.5915C20.7074 17.5082 20.7408 17.3816 20.6974 17.2583L20.4942 16.6586L20.8507 16.2422C20.924 16.1555 20.944 16.0389 20.9007 15.9256C20.854 15.8024 20.7474 15.7157 20.6208 15.6991L19.9878 15.6158L19.6113 15.0427C19.478 14.8195 19.1082 14.8295 19.0283 15.086L18.855 15.6158L18.2819 15.7024C18.162 15.7191 18.0687 15.8024 18.0354 15.9156C17.9987 16.0389 18.0454 16.1755 18.1487 16.2655L18.6718 16.7053L18.6684 17.3183C18.6684 17.4416 18.7351 17.5549 18.845 17.6215C18.955 17.6815 19.0782 17.6848 19.1782 17.6281ZM20.964 19.6372L20.8207 18.7576C20.7807 18.5244 20.5675 18.3411 20.331 18.3411H19.4514C19.1982 18.3345 19.0016 18.571 19.0482 18.8209L19.1915 19.7005C19.2315 19.9337 19.4447 20.117 19.6813 20.117H20.5608C20.6841 20.117 20.7974 20.067 20.874 19.977C20.9507 19.8871 20.984 19.7638 20.964 19.6372ZM22.2434 22.0494H12.658C11.8084 22.0494 11.0021 21.3564 10.8622 20.5068L9.29294 10.9214C9.22631 10.5182 9.3196 10.1418 9.55948 9.86189C9.7927 9.59202 10.1359 9.43876 10.529 9.43876H13.0611C13.0645 9.85856 12.7346 10.1817 12.3082 10.1751C12.2015 10.1751 12.1182 10.2584 12.1182 10.365C12.1182 10.4716 12.2015 10.5549 12.3082 10.5549C12.9379 10.5682 13.4476 10.0651 13.4376 9.44209H16.2563C16.2596 9.86189 15.9297 10.1851 15.5033 10.1784C15.4 10.1784 15.3134 10.2617 15.3134 10.3683C15.3134 10.4749 15.3967 10.5582 15.5033 10.5582C16.133 10.5715 16.6427 10.0685 16.6361 9.44543H19.4547C19.458 9.86855 19.1282 10.1884 18.6984 10.1817C18.5951 10.1817 18.5085 10.265 18.5085 10.3716C18.5085 10.4783 18.5918 10.5616 18.6984 10.5616C19.3314 10.5749 19.8379 10.0718 19.8312 9.44876C20.7874 9.34881 21.7436 10.0185 21.9035 10.9913L23.4761 20.5634C23.626 21.3597 23.053 22.0627 22.2434 22.0494ZM22.7731 20.4968L21.4104 12.2008C21.3371 11.7576 20.9307 11.4078 20.4875 11.4078H10.9188C10.4624 11.3978 10.1192 11.811 10.2025 12.2607L11.5652 20.5567C11.6385 20.9999 12.045 21.3497 12.4881 21.3497H22.0568C22.28 21.3497 22.4799 21.2597 22.6165 21.0998C22.7565 20.9399 22.8098 20.7233 22.7731 20.4968Z" fill="#F3883D"/>
</svg>
