<svg width="30" height="30" viewBox="0 0 30 30" fill="none" xmlns="http://www.w3.org/2000/svg">
<circle cx="17" cy="13" r="17" fill="#E6F7FF"/>
<path d="M13.8828 6.47266C13.9141 6.50391 13.9297 6.54297 13.9336 6.58594C13.9648 6.97266 14.2539 7.50781 14.7305 7.98437C15.207 8.46094 15.7383 8.75 16.125 8.78125C16.168 8.78516 16.2109 8.80078 16.2422 8.83203L16.2578 8.84766C16.3281 8.91797 16.3281 9.03125 16.2578 9.10156L16.2422 9.11719C16.2109 9.14844 16.168 9.16406 16.125 9.16797C15.7383 9.19922 15.2031 9.49219 14.7305 9.96484C14.2539 10.4414 13.9648 10.9727 13.9336 11.3594C13.9297 11.4023 13.9141 11.4453 13.8828 11.4766L13.8672 11.4922C13.7969 11.5625 13.6836 11.5625 13.6133 11.4922L13.5977 11.4766C13.5664 11.4453 13.5508 11.4062 13.5469 11.3633C13.5156 10.9766 13.2266 10.4414 12.75 9.96484C12.2734 9.48828 11.7422 9.19922 11.3555 9.16797C11.3125 9.16406 11.2695 9.14844 11.2383 9.11719L11.2227 9.10156C11.1523 9.03125 11.1523 8.91797 11.2227 8.84766L11.2383 8.83203C11.2695 8.80078 11.3086 8.78516 11.3516 8.78125C11.7383 8.75 12.2734 8.46094 12.75 7.98437C13.2266 7.50781 13.5156 6.97266 13.5469 6.58594C13.5508 6.54297 13.5664 6.5 13.5977 6.47266L13.6133 6.45703C13.6836 6.38672 13.7969 6.38672 13.8672 6.45703L13.8828 6.47266Z" fill="#0F7AB1"/>
<path d="M17.8828 5.19922C17.9102 5.22656 17.9219 5.25781 17.9258 5.29297C17.9492 5.61328 18.1914 6.05859 18.5859 6.45313C18.9805 6.84766 19.4219 7.08984 19.7461 7.11328C19.7812 7.11719 19.8164 7.13281 19.8437 7.15625L19.8555 7.16797C19.9141 7.22656 19.9141 7.32031 19.8555 7.37891L19.8437 7.39062C19.8164 7.41797 19.7852 7.42969 19.7461 7.43359C19.4258 7.46094 18.9805 7.69922 18.5859 8.09375C18.1914 8.48828 17.9492 8.92969 17.9258 9.25391C17.9219 9.28906 17.9063 9.32422 17.8828 9.35156L17.8711 9.36328C17.8125 9.42188 17.7188 9.42188 17.6602 9.36328L17.6484 9.35156C17.6211 9.32422 17.6094 9.29297 17.6055 9.25781C17.582 8.9375 17.3398 8.49219 16.9453 8.09766C16.5508 7.70312 16.1094 7.46094 15.7891 7.4375C15.7539 7.43359 15.7188 7.41797 15.6914 7.39453L15.6797 7.38281C15.6211 7.32422 15.6211 7.23047 15.6797 7.17188L15.6914 7.16016C15.7188 7.13281 15.75 7.12109 15.7852 7.11719C16.1055 7.09375 16.5508 6.85156 16.9453 6.45703C17.3398 6.0625 17.582 5.61719 17.6055 5.29688C17.6094 5.26172 17.625 5.22656 17.6484 5.20313L17.6602 5.19141C17.7188 5.13281 17.8125 5.13281 17.8711 5.19141L17.8828 5.19922Z" fill="#0F7AB1"/>
<path d="M14.1445 20.6133L8.39453 14.8633C8.06641 14.5352 8.06641 14.0039 8.39453 13.6758L10.3477 11.7227C10.6758 11.3945 11.207 11.3945 11.5352 11.7227L14.1289 14.3164C14.457 14.6445 14.9883 14.6445 15.3164 14.3164L22.4688 7.16016C22.7969 6.83203 23.3281 6.83203 23.6562 7.16016L25.6094 9.11328C25.9375 9.44141 25.9375 9.97266 25.6094 10.3008L15.3516 20.6133C15.0195 20.9414 14.4727 20.9414 14.1445 20.6133Z" fill="#0F7AB1"/>
</svg>
