<svg width="29" height="28" viewBox="0 0 29 28" fill="none" xmlns="http://www.w3.org/2000/svg">
<rect x="0.257812" width="28" height="28" rx="4" fill="url(#paint0_linear_10598_17915)"/>
<g clip-path="url(#clip0_10598_17915)">
<path fill-rule="evenodd" clip-rule="evenodd" d="M12.5324 15.7254C11.6721 14.8666 10.9095 13.916 10.2613 12.8911C10.0246 12.5167 10.0271 12.067 10.2678 11.6954L11.1928 10.2672C11.3901 9.96239 11.4278 9.61458 11.3002 9.27465L9.70913 5.03407C9.45995 4.36997 8.6714 4.10719 8.07363 4.48911C7.33378 4.96184 6.59378 5.43458 5.8539 5.90735C4.84089 6.55462 4.37058 7.71813 4.64964 8.88747C5.50851 12.4865 7.38179 15.7254 9.97089 18.2869C12.5324 20.8761 15.7713 22.7493 19.3704 23.6082C20.5397 23.8872 21.7032 23.4169 22.3505 22.4039C22.8232 21.6641 23.296 20.924 23.7687 20.1842C24.1507 19.5864 23.8878 18.7978 23.2237 18.5487L18.9832 16.9576C18.6432 16.83 18.2955 16.8677 17.9906 17.065L16.5625 17.99C16.1909 18.2307 15.7411 18.2332 15.3668 17.9965C14.3418 17.3483 13.3912 16.5857 12.5324 15.7254ZM19.0625 4.31251C21.7591 4.31251 23.9453 6.49868 23.9453 9.19532C23.9453 11.892 21.7591 14.0781 19.0625 14.0781C16.3659 14.0781 14.1797 11.892 14.1797 9.19532C14.1797 6.49868 16.3659 4.31251 19.0625 4.31251ZM19.0625 5.40278C21.157 5.40278 22.855 7.10079 22.855 9.19532C22.855 11.2898 21.157 12.9879 19.0625 12.9879C16.968 12.9879 15.27 11.2898 15.27 9.19532C15.27 7.10083 16.968 5.40278 19.0625 5.40278ZM18.645 6.94192C18.645 6.7113 18.8319 6.52438 19.0625 6.52438C19.2931 6.52438 19.48 6.7113 19.48 6.94192V9.11524L20.8324 9.89606C21.0307 10.0105 21.1 10.2643 20.9857 10.4631C20.8717 10.6616 20.6175 10.7309 20.4191 10.6163L18.8939 9.73583L18.8891 9.73364C18.7406 9.66571 18.645 9.51755 18.645 9.35368V6.94192H18.645Z" fill="white"/>
</g>
<defs>
<linearGradient id="paint0_linear_10598_17915" x1="1.7315" y1="1.22807" x2="46.1876" y2="49.8596" gradientUnits="userSpaceOnUse">
<stop stop-color="#F8C44A"/>
<stop offset="1" stop-color="#F7DC9F"/>
</linearGradient>
<clipPath id="clip0_10598_17915">
<rect width="20" height="20" fill="white" transform="translate(4.25781 4)"/>
</clipPath>
</defs>
</svg>
