<svg width="101" height="101" viewBox="0 0 101 101" fill="none" xmlns="http://www.w3.org/2000/svg">
<circle opacity="0.4" cx="50.5" cy="50.5" r="50" fill="#C52525"/>
<circle cx="50.5" cy="50.5" r="40" fill="#C52525" fill-opacity="0.6"/>
<circle cx="50.5" cy="50.5" r="30" fill="#BB1313"/>
<path d="M42.9493 53.0242L38.6567 48.7281C36.0973 46.1688 36.0762 41.9816 38.6356 39.4223L41.1106 36.9473C41.4094 36.6484 41.8946 36.6484 42.1934 36.9473L47.1293 41.8867C47.4282 42.1855 47.4282 42.6707 47.1293 42.9695L45.2731 44.8258C44.5137 45.5852 44.5313 46.8262 45.2907 47.5855L46.8375 49.1359L42.9493 53.0242Z" fill="white"/>
<path d="M43.4468 52.5251C42.814 51.8923 42.1812 51.2595 41.5484 50.6267C40.7749 49.8532 40.0015 49.0798 39.2316 48.3099C39.091 48.1692 38.9538 48.0286 38.8238 47.8774C38.7851 47.8317 38.7464 47.786 38.7078 47.7403C38.6867 47.7157 38.5847 47.5786 38.6374 47.6524C38.6972 47.7333 38.5882 47.5856 38.5706 47.561C38.5285 47.5013 38.4828 47.438 38.4441 47.3747C38.3105 47.1743 38.1874 46.9704 38.0785 46.756C38.0222 46.647 37.9695 46.538 37.9167 46.4255C37.9062 46.4044 37.8956 46.3798 37.8886 46.3587C37.8359 46.2427 37.8921 46.3798 37.9027 46.3903C37.8675 46.3411 37.8535 46.2638 37.8324 46.2075C37.748 45.979 37.6742 45.747 37.6144 45.5114C37.5546 45.2759 37.5265 45.0368 37.4738 44.8013C37.516 45.0017 37.4738 44.7978 37.4703 44.7485C37.4632 44.6923 37.4597 44.636 37.4562 44.5798C37.4456 44.4603 37.4386 44.3407 37.4386 44.2177C37.4316 43.9751 37.4386 43.736 37.4597 43.497C37.4632 43.4407 37.4703 43.3845 37.4773 43.3282C37.4808 43.2966 37.4843 43.2649 37.4878 43.2333C37.4984 43.1524 37.4773 43.3001 37.4773 43.3001C37.5089 43.1771 37.516 43.0435 37.5441 42.9204C37.5933 42.6814 37.6531 42.4493 37.7269 42.2173C37.762 42.1083 37.8007 42.0028 37.8394 41.8974C37.8605 41.8376 37.8956 41.7778 37.9097 41.7146C37.9097 41.7146 37.8535 41.8411 37.8851 41.7708C37.9027 41.7321 37.9167 41.697 37.9343 41.6583C38.0363 41.4333 38.1523 41.2153 38.2788 41.0044C38.3386 40.906 38.4019 40.8075 38.4687 40.7126C38.5003 40.6634 38.5355 40.6177 38.5706 40.5685C38.5917 40.5403 38.6093 40.5157 38.6304 40.4876C38.641 40.4735 38.6515 40.4595 38.662 40.4489C38.6937 40.4067 38.6831 40.4208 38.6304 40.4911C38.662 40.4806 38.7218 40.3751 38.7429 40.354C38.7816 40.3083 38.8203 40.2626 38.8589 40.2204C38.9503 40.1185 39.0453 40.02 39.1402 39.9216L39.2105 39.8513L41.5413 37.5204C41.566 37.4958 41.5906 37.4712 41.6152 37.4466C41.7031 37.3517 41.5203 37.5028 41.6292 37.436C41.7382 37.3692 41.5132 37.4888 41.6609 37.4255C41.7453 37.3903 41.5203 37.4255 41.6152 37.429H41.6855C41.8261 37.4255 41.6363 37.4325 41.6398 37.422C41.6433 37.4149 41.812 37.4853 41.6925 37.4325C41.6046 37.3939 41.6785 37.429 41.696 37.4396C41.8156 37.5064 41.6679 37.429 41.6714 37.4149C41.6714 37.4149 41.7066 37.4501 41.7101 37.4501L41.7277 37.4677L41.8085 37.5485C42.1003 37.8403 42.3921 38.1321 42.6874 38.4274C43.6261 39.3661 44.5648 40.3083 45.507 41.247L46.4773 42.2173C46.5335 42.2735 46.5898 42.3333 46.6495 42.3896C46.6495 42.3896 46.6495 42.3896 46.6531 42.3931C46.7585 42.495 46.632 42.3649 46.639 42.3649C46.6531 42.3649 46.6777 42.4458 46.6882 42.4493C46.6777 42.4458 46.6495 42.3192 46.6601 42.3931C46.6636 42.4036 46.6706 42.4564 46.6777 42.4634C46.6249 42.4142 46.6777 42.3228 46.6706 42.4177C46.6671 42.4423 46.6671 42.5829 46.6742 42.4634C46.6777 42.3614 46.6812 42.4423 46.6671 42.4634C46.6038 42.5724 46.6988 42.4493 46.6882 42.4282C46.6953 42.4388 46.6355 42.5056 46.639 42.5126C46.6355 42.5021 46.7304 42.4177 46.6706 42.4669C46.6566 42.4774 46.6425 42.495 46.6285 42.5091C46.2453 42.8993 45.855 43.2825 45.4683 43.6692C45.064 44.0735 44.5648 44.4849 44.3152 45.0087C43.8124 46.0528 44.0093 47.2833 44.8249 48.1095C45.2152 48.5067 45.616 48.9005 46.0097 49.2942L46.3613 49.6458C46.3613 49.3153 46.3613 48.9814 46.3613 48.6509C45.2292 49.7829 44.0937 50.9185 42.9617 52.0505C42.7999 52.2122 42.6382 52.3739 42.4765 52.5356C42.2163 52.7958 42.1953 53.2739 42.4765 53.5306C42.7578 53.7872 43.1937 53.8083 43.4714 53.5306C44.6035 52.3985 45.739 51.263 46.871 50.131C47.0328 49.9692 47.1945 49.8075 47.3562 49.6458C47.6234 49.3786 47.6269 48.9216 47.3562 48.6509C46.987 48.2817 46.6179 47.9126 46.2453 47.5399C46.1011 47.3958 45.9535 47.2517 45.8093 47.104C45.7953 47.0899 45.7847 47.0759 45.7706 47.0653C45.746 47.0407 45.7249 47.0161 45.7038 46.9915C45.6124 46.8931 45.7109 47.0091 45.7214 47.0161C45.6828 46.9915 45.6511 46.9142 45.6265 46.872C45.6054 46.8368 45.5562 46.6997 45.5245 46.6786C45.5351 46.6856 45.5808 46.8368 45.5386 46.7138C45.5316 46.6927 45.521 46.6681 45.514 46.647C45.4964 46.5942 45.4788 46.5415 45.4683 46.4853C45.4613 46.4536 45.4542 46.422 45.4472 46.3903C45.4331 46.3341 45.4578 46.2884 45.4507 46.436C45.4542 46.3728 45.4402 46.3095 45.4367 46.2462C45.4367 46.1829 45.4402 46.1196 45.4437 46.0564C45.4507 45.9298 45.412 46.2075 45.4472 46.0317C45.4578 45.9755 45.4683 45.9228 45.4859 45.87C45.4929 45.8384 45.5035 45.8103 45.514 45.7786C45.521 45.7575 45.5703 45.6239 45.5316 45.7294C45.4964 45.8243 45.5632 45.6696 45.5808 45.638C45.6089 45.5888 45.637 45.5396 45.6687 45.4903C45.7636 45.3462 45.5949 45.5677 45.7109 45.4341C45.739 45.4024 45.7671 45.3708 45.7988 45.3392C45.9183 45.2161 46.0378 45.0966 46.1609 44.9771L47.5003 43.6376C47.7359 43.4021 47.9503 43.156 48.0347 42.8185C48.1648 42.3017 48.0101 41.7673 47.6374 41.3911C47.4089 41.1591 47.1769 40.9306 46.9449 40.6985C46.0027 39.7564 45.064 38.8177 44.1218 37.8755C43.7492 37.5028 43.3765 37.1302 43.0074 36.761C42.6171 36.3708 42.2163 35.9981 41.6081 36.0439C41.1898 36.0755 40.8488 36.2618 40.557 36.5536C40.3917 36.7189 40.23 36.8841 40.0648 37.0458C39.5902 37.5204 39.1156 37.995 38.641 38.4696C38.2226 38.888 37.8148 39.3028 37.4562 39.7774C36.8339 40.6036 36.398 41.595 36.2011 42.611C35.7792 44.7767 36.3312 46.9915 37.7093 48.7106C37.9695 49.0341 38.2648 49.3224 38.5566 49.6142L39.7941 50.8517L42.3218 53.3794L42.48 53.5376C42.7402 53.7978 43.2183 53.8189 43.4749 53.5376C43.7035 53.2388 43.7245 52.8028 43.4468 52.5251Z" fill="white"/>
<path d="M64.048 59.8938L61.573 62.3688C59.0137 64.9282 54.8266 64.9036 52.2672 62.3477L45.4609 55.5379L49.3492 51.6497L53.4098 55.7102C54.1691 56.4696 55.4102 56.4872 56.1695 55.7278L58.0258 53.8715C58.3246 53.5727 58.8098 53.5727 59.1086 53.8715L64.0445 58.8075C64.3469 59.1063 64.3469 59.595 64.048 59.8938Z" fill="white"/>
<path d="M63.5541 59.3946C62.7279 60.2172 61.9087 61.0469 61.0791 61.8661C60.9771 61.968 60.8716 62.07 60.7591 62.1649C60.7029 62.2141 60.6431 62.2633 60.5834 62.3126C60.5587 62.3301 60.5306 62.3618 60.506 62.3758C60.6572 62.2879 60.5236 62.3618 60.4884 62.3899C60.2353 62.5762 59.9681 62.745 59.6904 62.8961C59.5603 62.9665 59.4267 63.0297 59.2931 63.0895C59.265 63.1036 59.2298 63.1141 59.2052 63.1282C59.3318 63.0508 59.2826 63.0965 59.2369 63.1141C59.1525 63.1458 59.0716 63.1809 58.9873 63.209C58.706 63.311 58.4177 63.3918 58.1259 63.4516C57.9853 63.4797 57.8376 63.4973 57.697 63.5254C57.9009 63.4797 57.6759 63.5254 57.6197 63.5325C57.5318 63.543 57.4439 63.5501 57.356 63.5536C57.0607 63.5711 56.7619 63.5711 56.4666 63.5501C56.3927 63.5465 56.3224 63.5395 56.2486 63.5325C56.2169 63.529 56.1853 63.5254 56.1537 63.5219C55.9919 63.5043 56.2767 63.543 56.1748 63.5254C56.0236 63.5008 55.8724 63.4762 55.7212 63.4446C55.4224 63.3778 55.1236 63.2934 54.8353 63.1879C54.7755 63.1668 54.7123 63.1422 54.6525 63.1176C54.5013 63.0579 54.758 63.1668 54.663 63.1211C54.6244 63.1036 54.5892 63.0895 54.5505 63.0719C54.4099 63.0086 54.2693 62.9383 54.1322 62.8645C53.8615 62.7168 53.6048 62.5481 53.3552 62.3688C53.2533 62.295 53.3623 62.3758 53.3763 62.3864C53.3412 62.3618 53.3095 62.3336 53.2779 62.309C53.2181 62.2598 53.1619 62.2106 53.1021 62.1614C52.9861 62.0594 52.8736 61.954 52.7646 61.845C52.7505 61.8309 52.7365 61.8168 52.7189 61.7993C52.4306 61.511 52.1459 61.2262 51.8576 60.9379C50.7185 59.7989 49.5794 58.6598 48.4369 57.5172C47.6248 56.7051 46.8267 55.8719 45.9935 55.0739C45.9794 55.0598 45.9654 55.0458 45.9548 55.0352V56.0301C47.0869 54.8981 48.2224 53.7626 49.3544 52.6305C49.5162 52.4688 49.6779 52.3071 49.8396 52.1454C49.5091 52.1454 49.1751 52.1454 48.8447 52.1454L51.5095 54.8102L52.8138 56.1145C53.0494 56.3501 53.3095 56.5715 53.6154 56.7122C54.315 57.0391 55.106 57.0813 55.8232 56.779C56.5439 56.4731 57.0818 55.8016 57.6267 55.2567C57.8834 55.0001 58.1365 54.7469 58.3931 54.4903C58.4037 54.4797 58.5584 54.3497 58.5548 54.3286C58.5584 54.3426 58.4142 54.4165 58.5302 54.3532C58.6533 54.2829 58.4916 54.3672 58.4916 54.3637C58.5056 54.3602 58.5232 54.3532 58.5373 54.3497C58.6005 54.3356 58.597 54.3356 58.5373 54.3426C58.5232 54.3461 58.5056 54.3461 58.4916 54.3497C58.5232 54.3461 58.5548 54.3461 58.5865 54.3461C58.6779 54.3391 58.597 54.3918 58.5408 54.3391C58.5373 54.3356 58.6322 54.3602 58.6322 54.3637C58.6287 54.3251 58.4916 54.311 58.6146 54.3672C58.6955 54.4024 58.5056 54.2512 58.6076 54.3637C58.8572 54.6344 59.1279 54.884 59.388 55.1442L61.0896 56.8458L62.7841 58.5403L63.3361 59.0922C63.4099 59.1661 63.4802 59.254 63.5611 59.3208C63.6349 59.3805 63.4767 59.1836 63.5541 59.3172C63.6033 59.3981 63.5294 59.3313 63.5435 59.2786C63.547 59.268 63.5681 59.37 63.5681 59.37C63.5576 59.3735 63.5611 59.1977 63.5611 59.3454C63.5611 59.493 63.5611 59.3208 63.5681 59.3208C63.5681 59.3208 63.5435 59.4192 63.5435 59.4122C63.5294 59.3629 63.6033 59.2926 63.5541 59.3735C63.4802 59.5211 63.6701 59.2715 63.5541 59.3946C63.3009 59.6618 63.2693 60.1258 63.5541 60.3895C63.8283 60.6391 64.2783 60.6778 64.549 60.3895C65.1115 59.7918 65.108 58.8989 64.5419 58.3047C64.447 58.2028 64.3451 58.1079 64.2466 58.0094C63.7544 57.5172 63.2623 57.0251 62.7701 56.5329C61.7541 55.5168 60.738 54.5008 59.7185 53.4848C59.483 53.2493 59.2158 53.0454 58.8783 52.9821C58.3826 52.8872 57.9044 53.0313 57.5353 53.3758C57.4861 53.4215 57.4404 53.4708 57.3947 53.5165C56.8673 54.0438 56.34 54.5711 55.8126 55.0985C55.7634 55.1477 55.7142 55.2004 55.6615 55.2497C55.6298 55.2778 55.5982 55.3059 55.5666 55.334C55.4962 55.4008 55.5455 55.3129 55.5912 55.3165C55.556 55.3129 55.4365 55.4184 55.4048 55.436C55.3697 55.4571 55.331 55.4747 55.2959 55.4922C55.2326 55.5274 55.2361 55.4817 55.331 55.4782C55.2607 55.4817 55.1728 55.5344 55.1025 55.552C55.0568 55.5626 55.0076 55.5731 54.9619 55.5836C54.8916 55.5977 54.8951 55.559 55.0076 55.5766C54.9443 55.5661 54.8599 55.5872 54.7931 55.5872C54.7228 55.5872 54.649 55.5731 54.5787 55.5731C54.7298 55.5696 54.6771 55.5907 54.6244 55.5766C54.5787 55.5661 54.5294 55.5555 54.4837 55.545C54.4275 55.5309 54.3009 55.5098 54.2552 55.4676C54.2623 55.4747 54.4064 55.5415 54.2904 55.4782C54.2623 55.4641 54.2341 55.4501 54.2025 55.4325C54.1638 55.4114 54.0373 55.2989 53.9951 55.2989C54.0478 55.2989 54.0865 55.3797 54.0197 55.3165C53.9845 55.2813 53.9459 55.2497 53.9072 55.2145C53.5943 54.9086 53.2919 54.5993 52.9826 54.2899C51.9595 53.2668 50.9365 52.2438 49.9134 51.2208C49.8888 51.1961 49.8677 51.1751 49.8431 51.1504C49.5759 50.8833 49.1189 50.8797 48.8482 51.1504C47.7162 52.2825 46.5806 53.418 45.4486 54.5501C45.2869 54.7118 45.1251 54.8735 44.9634 55.0352C44.6962 55.3024 44.6927 55.7594 44.9634 56.0301L47.0693 58.136L50.6201 61.6868C51.5587 62.6254 52.4517 63.6063 53.6646 64.2004C56.0587 65.3747 59.0365 65.2024 61.1986 63.6028C61.7998 63.1563 62.3095 62.6254 62.8369 62.0981C63.3712 61.5637 63.9021 61.0329 64.4365 60.4985C64.4716 60.4633 64.5103 60.4247 64.5455 60.3895C64.8056 60.1293 64.8267 59.6512 64.5455 59.3946C64.2677 59.1379 63.8318 59.1168 63.5541 59.3946Z" fill="white"/>
<path d="M63.3197 36.1914C63.0771 36.434 62.8346 36.6766 62.592 36.9192C61.931 37.5801 61.2736 38.2375 60.6127 38.8985C59.6389 39.8723 58.6615 40.8496 57.6877 41.8235C56.5029 43.0082 55.3182 44.193 54.1334 45.3778C52.8361 46.675 51.5389 47.9723 50.2381 49.2731C48.9232 50.5879 47.6084 51.9028 46.2935 53.2176C45.0666 54.4445 43.8432 55.668 42.6162 56.8949C41.5826 57.9285 40.5525 58.9586 39.5189 59.9922C38.7771 60.734 38.0318 61.4793 37.29 62.2211C36.9385 62.5727 36.5799 62.9242 36.2318 63.2793C36.2178 63.2934 36.2002 63.311 36.1861 63.325C35.7959 63.7153 35.7678 64.4324 36.1861 64.8156C36.608 65.2024 37.2619 65.234 37.6768 64.8156L38.4045 64.0879L40.3838 62.1086C41.3576 61.1348 42.335 60.1574 43.3088 59.1836C44.4935 57.9988 45.6783 56.8141 46.8631 55.6293C48.1603 54.3321 49.4576 53.0348 50.7584 51.734C52.0732 50.4192 53.3881 49.1043 54.7029 47.7895C55.9299 46.5625 57.1533 45.3391 58.3803 44.1121C59.4139 43.0785 60.4439 42.0485 61.4775 41.0149C62.2193 40.2731 62.9646 39.5278 63.7064 38.786C64.058 38.4344 64.4166 38.0828 64.7646 37.7278C64.7787 37.7137 64.7963 37.6961 64.8103 37.682C65.2006 37.2918 65.2287 36.5746 64.8103 36.1914C64.392 35.8047 63.7381 35.7731 63.3197 36.1914Z" fill="white"/>
</svg>
