<svg width="21" height="21" viewBox="0 0 21 21" fill="none" xmlns="http://www.w3.org/2000/svg">
<g clip-path="url(#clip0_10598_17721)">
<path d="M18.8972 13.3777C17.6727 13.3777 16.4704 13.1862 15.3311 12.8097C14.7728 12.6193 14.0865 12.794 13.7458 13.1439L11.497 14.8415C8.88898 13.4494 7.28253 11.8434 5.9094 9.25505L7.55706 7.06484C7.98513 6.63734 8.13867 6.01286 7.95471 5.42693C7.57659 4.28161 7.38451 3.0799 7.38451 1.8549C7.38456 0.969948 6.66461 0.25 5.77971 0.25H2.1068C1.2219 0.25 0.501953 0.969948 0.501953 1.85484C0.501953 11.9981 8.75393 20.25 18.8972 20.25C19.7821 20.25 20.502 19.5301 20.502 18.6452V14.9825C20.502 14.0977 19.782 13.3777 18.8972 13.3777Z" fill="white"/>
</g>
<defs>
<clipPath id="clip0_10598_17721">
<rect width="20" height="20" fill="white" transform="translate(0.501953 0.25)"/>
</clipPath>
</defs>
</svg>
