<svg width="17" height="16" viewBox="0 0 17 16" fill="none" xmlns="http://www.w3.org/2000/svg">
<g clip-path="url(#clip0_8033_11347)">
<path d="M5.89135 7.47825L15.9783 7.47825C16.2663 7.47825 16.5 7.71199 16.5 7.99999C16.5 8.28799 16.2663 8.52173 15.9783 8.52173L5.89135 8.52173C5.60335 8.52173 5.36961 8.28799 5.36961 7.99999C5.36961 7.71199 5.60335 7.47825 5.89135 7.47825Z" fill="#D96570"/>
<path d="M8.6737 4.69566C8.80732 4.69566 8.94081 4.74635 9.04246 4.84864C9.24626 5.05244 9.24626 5.38286 9.04246 5.58679L6.62852 8.0006L9.04246 10.4145C9.24626 10.6183 9.24626 10.9489 9.04246 11.1527C8.83853 11.3565 8.50811 11.3565 8.30431 11.1527L5.52174 8.37C5.31793 8.16619 5.31793 7.83577 5.52174 7.63197L8.3043 4.8494C8.40659 4.74635 8.54008 4.69566 8.6737 4.69566Z" fill="#D96570"/>
<path d="M8.15397 0.347665C11.3199 0.347664 14.115 2.25234 15.276 5.20063C15.3818 5.46774 15.2497 5.77103 14.9818 5.87675C14.7147 5.98107 14.4106 5.85102 14.3049 5.58174C13.3024 3.03635 10.8879 1.39114 8.15397 1.39114C4.5102 1.39114 1.54523 4.35611 1.54523 7.99988C1.54523 11.6437 4.5102 14.6086 8.15397 14.6086C10.8879 14.6086 13.3024 12.9634 14.3049 10.418C14.4114 10.1487 14.7147 10.0187 14.9818 10.123C15.2497 10.2287 15.3818 10.532 15.276 10.7991C14.115 13.7474 11.3199 15.6521 8.15397 15.6521C3.93484 15.6521 0.501754 12.219 0.501753 7.99988C0.501753 3.78075 3.93484 0.347665 8.15397 0.347665Z" fill="#D96570"/>
</g>
<defs>
<clipPath id="clip0_8033_11347">
<rect width="16" height="16" fill="white" transform="translate(16.5 16) rotate(180)"/>
</clipPath>
</defs>
</svg>
