<svg width="256" height="256" viewBox="0 0 256 256" fill="none" xmlns="http://www.w3.org/2000/svg">
<path d="M49.3477 207.612V211.463H78.1738V207.612H49.3477Z" fill="#E0E0E0"/>
<path d="M53.275 207.771C53.3748 207.771 53.4562 208.579 53.4562 209.575C53.4562 210.572 53.3748 211.38 53.275 211.38C53.1746 211.38 53.0938 210.572 53.0938 209.575C53.0938 208.579 53.1752 207.771 53.275 207.771Z" fill="#FAFAFA"/>
<path d="M52.6461 207.693C52.7464 207.693 52.8273 208.501 52.8273 209.498C52.8273 210.494 52.7464 211.302 52.6461 211.302C52.5463 211.302 52.4648 210.494 52.4648 209.498C52.4648 208.501 52.5463 207.693 52.6461 207.693Z" fill="#FAFAFA"/>
<path d="M75.943 207.771C76.0433 207.771 76.1242 208.579 76.1242 209.575C76.1242 210.572 76.0433 211.38 75.943 211.38C75.8431 211.38 75.7617 210.572 75.7617 209.575C75.7622 208.579 75.8431 207.771 75.943 207.771Z" fill="#FAFAFA"/>
<path d="M75.318 207.693C75.4178 207.693 75.4992 208.501 75.4992 209.498C75.4992 210.494 75.4178 211.302 75.318 211.302C75.2181 211.302 75.1367 210.494 75.1367 209.498C75.1367 208.501 75.2176 207.693 75.318 207.693Z" fill="#FAFAFA"/>
<path d="M71.5518 209.654C71.5518 209.754 68.2499 209.835 64.1785 209.835C60.1056 209.835 56.8047 209.754 56.8047 209.654C56.8047 209.554 60.1056 209.473 64.1785 209.473C68.2499 209.473 71.5518 209.554 71.5518 209.654Z" fill="#FAFAFA"/>
<path d="M49.2227 224.95V232.652H78.0488V224.95H49.2227Z" fill="#E0E0E0"/>
<path d="M78.4165 230.487C78.4191 230.492 78.3664 230.522 78.2599 230.576C78.1544 230.631 77.9936 230.705 77.7796 230.796C77.3511 230.971 76.7044 231.219 75.8253 231.355C74.9611 231.478 73.8014 231.513 72.654 230.905C72.0908 230.604 71.5552 230.147 71.1477 229.54C70.7493 228.935 70.4933 228.144 70.6234 227.321C70.6925 226.912 70.8635 226.508 71.1533 226.175C71.4349 225.84 71.887 225.594 72.3688 225.623C72.8516 225.644 73.2878 225.921 73.5904 226.282C73.8956 226.643 74.105 227.106 74.148 227.595C74.2622 228.572 73.851 229.584 73.1542 230.325C72.4686 231.092 71.4436 231.559 70.3843 231.679C69.3178 231.806 68.2149 231.637 67.1684 231.28C66.1224 230.919 65.0887 230.332 64.3591 229.391C64.0012 228.924 63.7426 228.344 63.7042 227.728C63.651 227.115 63.8466 226.456 64.3181 225.998C64.5526 225.771 64.8803 225.618 65.2197 225.603C65.5597 225.587 65.8879 225.697 66.1623 225.868C66.7184 226.213 67.0737 226.804 67.2232 227.422C67.494 228.682 66.9959 229.994 66.0866 230.815C65.1747 231.644 63.9807 232.012 62.841 232.136C61.6936 232.251 60.5395 232.165 59.4766 231.805C58.4178 231.452 57.4655 230.755 56.9171 229.815C56.3596 228.896 56.1768 227.732 56.5966 226.755C56.7938 226.271 57.2392 225.842 57.7727 225.76C58.2924 225.663 58.8238 225.807 59.2247 226.111C60.0383 226.756 60.174 227.863 59.9113 228.705C59.6446 229.572 59.0619 230.236 58.4583 230.752C57.2259 231.792 55.7672 232.242 54.5051 232.287C53.2297 232.332 52.1576 231.981 51.3732 231.576C50.5832 231.165 50.063 230.698 49.7399 230.365C49.5812 230.195 49.465 230.061 49.3948 229.965C49.3227 229.87 49.2883 229.82 49.2935 229.816C49.3303 229.766 49.8705 230.657 51.4367 231.45C52.2139 231.827 53.264 232.148 54.4964 232.085C55.717 232.022 57.1204 231.567 58.2919 230.557C58.8679 230.056 59.4096 229.415 59.6436 228.625C59.8791 227.862 59.726 226.874 59.044 226.35C58.7107 226.098 58.2524 225.981 57.8321 226.064C57.4046 226.135 57.0656 226.46 56.8895 226.882C56.526 227.738 56.6852 228.798 57.2044 229.642C57.7138 230.506 58.5873 231.144 59.5898 231.476C60.5913 231.814 61.7054 231.895 62.8036 231.782C63.8947 231.662 65.0139 231.307 65.8444 230.548C66.6641 229.812 67.1116 228.606 66.8704 227.503C66.7399 226.964 66.4306 226.459 65.9714 226.175C65.5213 225.877 64.933 225.886 64.5659 226.261C64.1937 226.62 64.0135 227.178 64.0626 227.704C64.0954 228.239 64.3181 228.75 64.6432 229.177C65.3042 230.036 66.2852 230.607 67.2811 230.952C68.2882 231.299 69.3429 231.461 70.3459 231.347C71.3468 231.236 72.2833 230.813 72.9228 230.107C73.5725 229.425 73.9478 228.5 73.851 227.627C73.7809 226.78 73.1347 225.954 72.356 225.902C71.972 225.876 71.6044 226.065 71.3556 226.352C71.1021 226.638 70.9419 227 70.8779 227.364C70.7524 228.107 70.9751 228.84 71.3428 229.414C71.7181 229.989 72.2219 230.433 72.7533 230.727C73.829 231.321 74.9595 231.317 75.8079 231.215C76.6727 231.104 77.3214 230.88 77.755 230.728C78.1872 230.57 78.4104 230.473 78.4165 230.487Z" fill="#FAFAFA"/>
<path d="M51.7969 211.575V224.938H78.0486V211.575H51.7969Z" fill="#EBEBEB"/>
<path d="M56.1578 212.033C56.2582 212.033 56.3391 214.929 56.3391 218.5C56.3391 222.073 56.2582 224.968 56.1578 224.968C56.0575 224.968 55.9766 222.073 55.9766 218.5C55.9766 214.929 56.0575 212.033 56.1578 212.033Z" fill="#E0E0E0"/>
<path d="M58.15 211.867C58.2503 211.867 58.3312 214.726 58.3312 218.251C58.3312 221.778 58.2498 224.636 58.15 224.636C58.0502 224.636 57.9688 221.778 57.9688 218.251C57.9688 214.726 58.0502 211.867 58.15 211.867Z" fill="#E0E0E0"/>
<path d="M75.0797 211.438C75.18 211.438 75.2609 214.448 75.2609 218.161C75.2609 221.875 75.18 224.885 75.0797 224.885C74.9798 224.885 74.8984 221.875 74.8984 218.161C74.8984 214.448 74.9798 211.438 75.0797 211.438Z" fill="#E0E0E0"/>
<path d="M72.7437 211.617C72.8436 211.617 72.925 214.55 72.925 218.167C72.925 221.786 72.8436 224.718 72.7437 224.718C72.6439 224.718 72.5625 221.786 72.5625 218.167C72.5625 214.55 72.6434 211.617 72.7437 211.617Z" fill="#E0E0E0"/>
<path d="M214.053 182.404C216.774 181 219.978 180.817 223 181.317C224.623 181.585 226.315 182.071 227.419 183.29C228.524 184.509 228.733 186.655 227.465 187.702C226.71 188.326 225.657 188.421 224.678 188.409C222.313 188.382 219.689 187.965 217.799 189.388C216.721 190.2 216.004 191.55 214.715 191.949C213.454 192.34 212.031 191.596 211.362 190.458C210.693 189.32 210.671 187.897 210.983 186.614C210.983 186.614 211.311 183.818 214.053 182.404Z" fill="#EBEBEB"/>
<path d="M207.817 170.367C209.481 172.744 212.715 171.957 214.215 170.506C215.715 169.055 216.349 166.953 216.926 164.948C218.244 160.367 219.573 155.561 218.593 150.896C218.3 149.501 217.778 148.11 216.798 147.075C215.818 146.04 214.311 145.425 212.933 145.789C211.302 146.22 210.289 147.817 209.556 149.337C207.403 153.803 206.263 158.754 206.246 163.712C206.238 166.027 206.511 168.455 207.817 170.367Z" fill="#EBEBEB"/>
<path d="M203.247 173.778C205.054 171.633 205.397 168.506 204.593 165.82C203.789 163.133 201.972 160.848 199.879 158.982C197.425 156.795 194.54 155.093 191.439 154.002C190.218 153.573 188.931 153.235 187.643 153.358C186.354 153.48 185.057 154.139 184.457 155.285C183.569 156.979 184.42 159.034 185.342 160.71C186.965 163.664 188.82 166.489 190.886 169.152C192.548 171.294 194.451 173.407 196.983 174.376C199.515 175.344 202.146 175.23 203.488 173.474" fill="#EBEBEB"/>
<path d="M207.702 206.218C207.734 206.22 207.784 205.835 207.853 205.139C207.929 204.353 208.025 203.365 208.14 202.191C208.277 200.951 208.458 199.475 208.803 197.868C209.146 196.265 209.684 194.528 210.374 192.766C211.089 191.014 211.961 189.422 212.98 188.149C213.991 186.87 215.167 185.944 216.273 185.411C217.376 184.866 218.364 184.645 219.047 184.547C219.736 184.476 220.122 184.422 220.122 184.391C220.123 184.361 219.736 184.355 219.028 184.374C218.327 184.421 217.298 184.599 216.135 185.127C214.97 185.644 213.722 186.584 212.661 187.889C211.591 189.189 210.688 190.816 209.96 192.599C209.258 194.392 208.728 196.147 208.4 197.785C208.073 199.421 207.924 200.912 207.826 202.163C207.732 203.414 207.697 204.428 207.68 205.128C207.664 205.829 207.672 206.217 207.702 206.218Z" fill="#E0E0E0"/>
<path d="M207.909 203.95C207.925 203.95 207.934 203.777 207.938 203.449C207.937 203.073 207.936 202.598 207.935 202.016C207.931 200.772 207.932 198.973 207.999 196.751C208.109 192.306 208.491 187.522 209.231 180.779C209.931 174.437 210.87 167.057 211.862 162.259C212.074 161.168 212.288 160.186 212.49 159.326C212.682 158.464 212.846 157.721 213.005 157.12C213.141 156.554 213.251 156.093 213.339 155.727C213.411 155.407 213.442 155.237 213.427 155.233C213.412 155.228 213.353 155.39 213.253 155.703C213.144 156.063 213.006 156.518 212.837 157.076C212.652 157.672 212.463 158.409 212.247 159.268C212.022 160.124 211.786 161.104 211.553 162.194C210.572 166.542 209.533 172.618 208.787 179.378C208.046 186.136 207.713 192.289 207.683 196.745C207.657 198.973 207.704 200.776 207.761 202.021C207.797 202.603 207.826 203.077 207.849 203.453C207.873 203.78 207.894 203.951 207.909 203.95Z" fill="#E0E0E0"/>
<path d="M207.938 192.082C207.969 192.081 207.963 191.549 207.927 190.585C207.872 189.623 207.74 188.233 207.469 186.53C207.182 184.831 206.78 182.813 206.15 180.621C205.877 179.619 205.235 177.217 203.679 173.629C201.63 168.767 198.845 164.792 196.423 162.33C195.855 161.677 195.222 161.205 194.716 160.743C194.453 160.522 194.222 160.301 193.987 160.127C193.749 159.963 193.529 159.811 193.325 159.67C192.527 159.125 192.081 158.837 192.065 158.863C191.993 158.96 193.85 160.053 196.195 162.548C198.531 165.038 201.237 168.986 203.271 173.807C204.404 176.421 205.195 178.754 205.756 180.734C206.404 182.905 206.834 184.902 207.159 186.584C207.469 188.27 207.647 189.646 207.755 190.6C207.843 191.555 207.907 192.084 207.938 192.082Z" fill="#E0E0E0"/>
<path d="M195.672 211.215L196.861 227.507H217.791L218.981 211.215H195.672Z" fill="#EBEBEB"/>
<path d="M221.476 204.793H193.648V211.214H221.476V204.793Z" fill="#EBEBEB"/>
<path d="M193.648 226.885V228.665H194.956H221.016V226.885H193.648Z" fill="#E0E0E0"/>
<path d="M196.239 231.6L194.957 228.467H220.02L218.525 231.6H196.239Z" fill="#E0E0E0"/>
<path d="M218.591 216.54C218.596 216.544 218.562 216.594 218.493 216.689C218.41 216.799 218.307 216.936 218.18 217.104C217.883 217.484 217.475 218.007 216.961 218.664L216.907 218.734L216.854 218.661C216.088 217.602 215.064 216.185 213.859 214.518H214.031C213.14 215.78 212.147 217.185 211.082 218.694L210.989 218.825L210.886 218.702C209.797 217.407 208.615 216.001 207.388 214.54L207.59 214.538C207.529 214.614 207.464 214.696 207.398 214.779C206.313 216.139 205.263 217.456 204.27 218.7L204.166 218.831L204.07 218.695C203.008 217.192 202.016 215.789 201.119 214.52L201.291 214.528C199.836 216.185 198.603 217.59 197.656 218.668L197.592 218.742L197.543 218.659C197.064 217.854 196.682 217.212 196.405 216.747C196.286 216.54 196.19 216.372 196.113 216.238C196.049 216.122 196.018 216.06 196.024 216.056C196.03 216.053 196.071 216.108 196.146 216.218C196.231 216.346 196.337 216.508 196.469 216.708C196.76 217.164 197.161 217.794 197.664 218.585L197.55 218.575C198.481 217.484 199.695 216.061 201.126 214.385L201.216 214.279L201.297 214.393C202.202 215.656 203.203 217.053 204.274 218.549L204.074 218.543C205.065 217.296 206.112 215.979 207.194 214.617C207.26 214.534 207.326 214.451 207.387 214.375L207.486 214.25L207.589 214.372C208.812 215.835 209.991 217.244 211.076 218.542L210.881 218.55C211.957 217.049 212.96 215.65 213.859 214.395L213.947 214.273L214.032 214.395C215.212 216.08 216.214 217.511 216.964 218.583L216.857 218.58C217.392 217.939 217.816 217.43 218.126 217.059C218.263 216.9 218.375 216.771 218.465 216.666C218.543 216.579 218.586 216.536 218.591 216.54Z" fill="#F5F5F5"/>
<path d="M219.273 211.109C219.273 211.181 214.029 211.239 207.561 211.239C201.091 211.239 195.848 211.18 195.848 211.109C195.848 211.037 201.091 210.979 207.561 210.979C214.028 210.979 219.273 211.037 219.273 211.109Z" fill="#F5F5F5"/>
<path d="M99.9437 41.3912C99.9416 41.3958 99.9012 41.383 99.8244 41.3543C99.7322 41.318 99.6211 41.2744 99.4854 41.2212C99.1675 41.0891 98.7364 40.9094 98.1931 40.6836C97.0519 40.1946 95.4412 39.5055 93.4613 38.6576C89.4559 36.9127 83.9621 34.5191 77.8929 31.8751C77.708 31.7943 77.5237 31.7134 77.3532 31.6386L77.4653 31.6391C71.4985 34.1909 66.123 36.4893 62.2108 38.162C60.278 38.974 58.7077 39.634 57.5951 40.1015C57.0662 40.3175 56.6464 40.4885 56.3366 40.615C56.0479 40.7297 55.8943 40.7855 55.8907 40.7763C55.8871 40.7676 56.033 40.6943 56.3146 40.5633C56.6198 40.425 57.0319 40.2376 57.5526 40.0016C58.657 39.5147 60.215 38.8271 62.1335 37.9807C66.037 36.2881 71.4007 33.9621 77.3548 31.38L77.4111 31.3555L77.4674 31.38C77.6379 31.4548 77.8222 31.5357 78.007 31.6166C84.0635 34.2897 89.546 36.71 93.5427 38.4743C95.5077 39.3565 97.1057 40.0738 98.2387 40.5827C98.7732 40.8295 99.1972 41.0246 99.51 41.169C99.6411 41.2325 99.7486 41.2847 99.8377 41.3282C99.9094 41.3656 99.9457 41.3871 99.9437 41.3912Z" fill="#E0E0E0"/>
<path d="M124.229 39.1562H24.2383V114.024H124.229V39.1562Z" fill="#E0E0E0"/>
<path d="M121.11 42.6367H27.7344V110.947H121.11V42.6367Z" fill="#FAFAFA"/>
<path d="M48.3594 72.4824C48.3594 72.4824 48.4567 83.9497 49.0398 87.4482L63.4224 86.7677C63.4224 86.7677 62.1593 75.495 62.6452 72.4824H48.3594Z" fill="#E0E0E0"/>
<path d="M55.4437 74.1033C55.4437 74.1018 55.4617 74.0997 55.4965 74.0977C55.5369 74.0961 55.5881 74.0941 55.6516 74.0915C55.7883 74.0818 55.9906 74.0915 56.2501 74.1212C56.5077 74.1622 56.8246 74.2318 57.1646 74.3931C57.5035 74.5539 57.8542 74.816 58.1599 75.1806C58.4543 75.5512 58.7241 76.0115 58.8496 76.5655C58.9678 77.12 58.9079 77.7426 58.6985 78.3427C58.5966 78.6442 58.4579 78.9407 58.2946 79.231C58.1323 79.5208 57.9694 79.8121 57.8338 80.128C57.5624 80.7557 57.3468 81.4464 57.2521 82.1688L57.246 82.2165L57.1994 82.2175C56.7452 82.2246 56.2655 82.2323 55.7791 82.2405C55.2686 82.2487 54.7659 82.2564 54.2897 82.2636L54.237 82.2646L54.2349 82.2108C54.2103 81.4874 53.8852 80.8284 53.5442 80.2453C53.3717 79.9503 53.1827 79.6744 53.0056 79.3948C52.8325 79.1204 52.638 78.8577 52.5003 78.571C52.2166 77.9986 52.168 77.3653 52.275 76.8195C52.3779 76.2726 52.5591 75.7765 52.83 75.3864C53.0993 74.9957 53.4423 74.7238 53.7659 74.5436C54.0915 74.3624 54.3977 74.2641 54.6491 74.2021C54.9015 74.1412 55.1012 74.1171 55.2364 74.1064C55.304 74.1028 55.3557 74.0997 55.3905 74.1007C55.4258 74.0997 55.4437 74.1018 55.4437 74.1033C55.4437 74.1054 55.4258 74.1064 55.3915 74.11C55.3516 74.1141 55.3014 74.1192 55.2389 74.1258C55.1053 74.1427 54.9077 74.1729 54.6594 74.2395C54.4121 74.3066 54.1115 74.409 53.7946 74.5923C53.4792 74.774 53.1479 75.0439 52.8899 75.4268C52.6313 75.8072 52.4567 76.2972 52.36 76.8333C52.2596 77.3683 52.3108 77.9766 52.5873 78.5285C52.7219 78.8065 52.9124 79.0615 53.0911 79.3416C53.2667 79.6165 53.4587 79.8956 53.6338 80.192C53.9794 80.7813 54.3158 81.4495 54.3435 82.2088L54.2887 82.156C54.7653 82.1484 55.2681 82.1402 55.7781 82.132C56.2645 82.1243 56.7442 82.1171 57.1984 82.11L57.1456 82.1586C57.2439 81.4162 57.4626 80.7235 57.7395 80.0865C57.8768 79.7681 58.0457 79.4686 58.2075 79.1818C58.3693 78.8967 58.507 78.6058 58.6079 78.3114C58.8158 77.7247 58.8767 77.1205 58.7661 76.5834C58.6499 76.0489 58.3877 75.5902 58.1041 75.2266C57.8092 74.8672 57.4697 74.6071 57.14 74.4448C56.8092 74.2815 56.4985 74.2072 56.2445 74.1606C55.9885 74.1253 55.7878 74.1095 55.6516 74.1125C55.5881 74.111 55.5374 74.1094 55.497 74.1084C55.4617 74.1064 55.4437 74.1048 55.4437 74.1033Z" fill="white"/>
<path d="M56.1826 82.093C56.1826 82.093 56.1791 82.0776 56.1739 82.0479C56.1688 82.0162 56.1617 81.9717 56.1519 81.9148C56.1335 81.7955 56.1074 81.623 56.0736 81.4013C56.0091 80.9548 55.9133 80.3087 55.8488 79.5043C55.8335 79.3031 55.8196 79.0922 55.8114 78.872C55.8043 78.6518 55.7945 78.4225 55.8073 78.1844C55.8207 77.9473 55.8596 77.6975 55.9691 77.465C56.0792 77.2362 56.2625 77.0206 56.5175 76.9157C56.7704 76.8066 57.0925 76.8634 57.3003 77.0646C57.4027 77.1655 57.4713 77.3094 57.4683 77.4584C57.4678 77.6069 57.4104 77.7518 57.3213 77.8705C57.2328 77.9914 57.1094 78.084 56.9752 78.1501C56.8406 78.2177 56.6952 78.2597 56.5477 78.2919C56.2528 78.3539 55.9487 78.3882 55.6399 78.3974C55.3312 78.4046 55.0255 78.3989 54.7265 78.3534C54.5775 78.3288 54.4306 78.2904 54.2939 78.2284C54.1567 78.167 54.0322 78.0794 53.9314 77.9709C53.831 77.8623 53.7542 77.7302 53.7225 77.5864C53.6892 77.4425 53.7112 77.2899 53.7737 77.1604C53.8356 77.0314 53.9406 76.9203 54.0742 76.8675C54.2079 76.8133 54.3594 76.8286 54.4833 76.8865C54.6088 76.9443 54.7122 77.0375 54.7885 77.1461C54.8653 77.2561 54.9108 77.3806 54.941 77.5045C54.9999 77.7543 54.9984 78.0021 55.0137 78.2382C55.0383 78.7118 55.0614 79.1526 55.0824 79.5555C55.1228 80.3594 55.1556 81.0106 55.1786 81.4627C55.1889 81.6865 55.197 81.8611 55.2027 81.9814C55.2047 82.0392 55.2063 82.0843 55.2078 82.1166C55.2088 82.1468 55.2083 82.1626 55.2083 82.1626C55.2083 82.1626 55.2057 82.1473 55.2037 82.1171C55.2011 82.0848 55.1981 82.0403 55.194 81.9824C55.1863 81.8621 55.1755 81.6875 55.1617 81.4643C55.1356 81.0122 55.0977 80.3614 55.0511 79.5576C55.0286 79.1546 55.0035 78.7138 54.9769 78.2407C54.961 78.0047 54.961 77.7574 54.9032 77.5142C54.8735 77.3939 54.8284 77.2735 54.7557 77.1701C54.683 77.0667 54.5837 76.9786 54.4664 76.9249C54.3502 76.8711 54.2109 76.8578 54.0896 76.9075C53.9677 76.9556 53.8699 77.0585 53.8121 77.1799C53.7537 77.3012 53.7332 77.4435 53.7645 77.5777C53.7942 77.7128 53.8669 77.8383 53.9631 77.9422C54.1567 78.1542 54.4418 78.2653 54.7337 78.3109C55.0276 78.3554 55.3327 78.361 55.6384 78.3544C55.9446 78.3452 56.2466 78.3114 56.538 78.2499C56.6829 78.2182 56.8252 78.1767 56.9553 78.1122C57.0853 78.0482 57.202 77.9601 57.286 77.846C57.3705 77.7333 57.4242 77.5971 57.4248 77.4599C57.4278 77.3222 57.3654 77.1911 57.2701 77.0969C57.0756 76.9085 56.7714 76.8527 56.5329 76.9556C56.2902 77.0544 56.1115 77.2613 56.0045 77.4835C55.8969 77.7087 55.858 77.9535 55.8442 78.188C55.8309 78.4235 55.8396 78.6524 55.8457 78.872C55.8529 79.0917 55.8657 79.3026 55.8801 79.5033C55.9405 80.3066 56.0316 80.9533 56.0905 81.4003C56.1207 81.6225 56.1442 81.795 56.1606 81.9148C56.1683 81.9722 56.1739 82.0167 56.178 82.049C56.1816 82.0771 56.1826 82.093 56.1826 82.093Z" fill="white"/>
<path d="M54.2871 82.1669C54.2942 82.1736 54.306 82.3456 54.3244 82.6451C54.3424 82.9923 54.3639 83.407 54.3884 83.8914L54.3767 83.8611C54.666 84.1945 54.9921 84.5708 55.3449 84.9768L55.2952 84.9553C55.6475 84.9353 56.0238 84.9143 56.4144 84.8923L56.3673 84.9159C56.547 84.6962 56.7339 84.4684 56.9249 84.2354C57.0191 84.1207 57.1128 84.0071 57.2044 83.8949L57.1896 83.9385C57.1748 83.2821 57.1604 82.661 57.1471 82.0947L57.208 82.1526C56.3924 82.1618 55.6853 82.1695 55.117 82.1756C54.8902 82.1756 54.691 82.1751 54.5129 82.1751C54.37 82.1736 54.2917 82.1715 54.2871 82.1669C54.2825 82.1623 54.3521 82.1562 54.4862 82.148C54.6603 82.1388 54.8549 82.1285 55.0761 82.1173C55.6546 82.0947 56.3745 82.0661 57.2044 82.0338L57.2638 82.0312L57.2659 82.0917C57.2828 82.6579 57.3017 83.279 57.3212 83.9349L57.3222 83.9594L57.3063 83.9789C57.2147 84.091 57.1215 84.2047 57.0273 84.3194C56.8358 84.5518 56.6484 84.7797 56.4682 84.9988L56.4498 85.0213L56.4211 85.0229C56.0304 85.0418 55.6541 85.0602 55.3013 85.0777L55.2706 85.0792L55.2512 85.0561C54.9051 84.644 54.5851 84.2626 54.3014 83.9246L54.2896 83.9108V83.8939C54.285 83.3978 54.2809 82.9718 54.2773 82.616C54.2779 82.319 54.2799 82.1603 54.2871 82.1669Z" fill="white"/>
<path d="M57.1763 83.7879C57.1748 83.791 57.1374 83.7736 57.0704 83.7428C57.0033 83.7121 56.9045 83.6707 56.78 83.6276C56.5317 83.5416 56.1713 83.4612 55.7694 83.4735C55.3674 83.4853 55.0121 83.5877 54.7694 83.6891C54.6476 83.7393 54.5518 83.7869 54.4863 83.8217C54.4207 83.856 54.3849 83.876 54.3829 83.8729C54.3813 83.8703 54.4146 83.8458 54.4776 83.8063C54.5406 83.7669 54.6353 83.7147 54.7566 83.6599C54.9988 83.5503 55.3587 83.4413 55.7673 83.429C56.1759 83.4162 56.542 83.5032 56.7903 83.598C56.9147 83.6451 57.0125 83.6916 57.078 83.727C57.1436 83.7628 57.1779 83.7853 57.1763 83.7879Z" fill="white"/>
<path d="M57.1763 83.3406C57.1748 83.3437 57.1374 83.3263 57.0704 83.2956C57.0033 83.2649 56.9045 83.2234 56.78 83.1804C56.5317 83.0944 56.1713 83.014 55.7688 83.0263C55.3669 83.0386 55.0116 83.1404 54.7689 83.2418C54.6471 83.292 54.5513 83.3396 54.4863 83.3744C54.4207 83.4087 54.3849 83.4287 54.3829 83.4256C54.3813 83.4231 54.4141 83.3985 54.4776 83.3591C54.5406 83.3196 54.6353 83.2674 54.7566 83.2126C54.9988 83.1031 55.3587 82.994 55.7673 82.9817C56.1759 82.9689 56.542 83.056 56.7903 83.1507C56.9152 83.1978 57.0125 83.2444 57.078 83.2797C57.1431 83.3155 57.1774 83.3381 57.1763 83.3406Z" fill="white"/>
<path d="M57.149 82.9134C57.1475 82.9165 57.1101 82.8991 57.043 82.8684C56.9754 82.8376 56.8771 82.7962 56.7527 82.7532C56.5044 82.6671 56.1439 82.5868 55.742 82.599C55.3401 82.6113 54.9848 82.7132 54.7421 82.8141C54.6202 82.8643 54.5245 82.9119 54.4589 82.9467C54.3934 82.981 54.3576 83.001 54.3555 82.9979C54.354 82.9953 54.3873 82.9708 54.4502 82.9313C54.5132 82.8919 54.6079 82.8397 54.7293 82.7849C54.9715 82.6753 55.3314 82.5663 55.74 82.554C56.1491 82.5412 56.5146 82.6282 56.7629 82.723C56.8879 82.7701 56.9852 82.8166 57.0507 82.852C57.1157 82.8883 57.15 82.9114 57.149 82.9134Z" fill="white"/>
<path d="M32.3398 53.7363C32.3398 53.7363 32.4371 65.2036 33.0203 68.7021L47.4029 68.0216C47.4029 68.0216 46.1393 56.7489 46.6252 53.7363H32.3398Z" fill="#EBEBEB"/>
<path d="M44.4598 58.5539C44.4644 58.6317 42.3074 58.8248 39.6429 58.985C36.9774 59.1453 34.8132 59.2123 34.8086 59.1345C34.804 59.0567 36.9605 58.8637 39.626 58.7034C42.2905 58.5432 44.4547 58.4761 44.4598 58.5539Z" fill="white"/>
<path d="M44.4598 60.9816C44.4644 61.0595 42.3074 61.2525 39.6429 61.4128C36.9769 61.573 34.8132 61.6401 34.8086 61.5623C34.804 61.4844 36.9605 61.2914 39.626 61.1312C42.2905 60.9709 44.4552 60.9038 44.4598 60.9816Z" fill="white"/>
<path d="M42.0184 63.3664C42.023 63.4442 40.7958 63.5814 39.2777 63.6726C37.7591 63.7637 36.5242 63.775 36.5195 63.6972C36.5149 63.6193 37.7417 63.4826 39.2608 63.391C40.7789 63.2993 42.0138 63.2886 42.0184 63.3664Z" fill="white"/>
<path d="M31.6602 87.4732C31.6602 87.4732 31.7574 98.9404 32.3406 102.439L46.7232 101.758C46.7232 101.758 45.4596 90.4853 45.946 87.4727H31.6602V87.4732Z" fill="#EBEBEB"/>
<path d="M43.7801 92.29C43.7847 92.3678 41.6277 92.5609 38.9632 92.7211C36.2977 92.8814 34.1335 92.9485 34.1289 92.8706C34.1243 92.7928 36.2809 92.5998 38.9463 92.4395C41.6108 92.2793 43.7755 92.2127 43.7801 92.29Z" fill="white"/>
<path d="M43.7801 94.7178C43.7847 94.7956 41.6277 94.9886 38.9632 95.1489C36.2977 95.3091 34.1335 95.3762 34.1289 95.2984C34.1243 95.2205 36.2808 95.0275 38.9463 94.8673C41.6113 94.707 43.7755 94.6404 43.7801 94.7178Z" fill="white"/>
<path d="M41.3387 97.1026C41.3433 97.1804 40.1161 97.3176 38.598 97.4087C37.0794 97.4999 35.8445 97.5111 35.8399 97.4333C35.8352 97.3555 37.062 97.2188 38.5811 97.1271C40.0997 97.036 41.3341 97.0247 41.3387 97.1026Z" fill="white"/>
<path d="M70.9648 56.7754L72.3897 89.8501L113.679 90.3483L111.826 57.2121L70.9648 56.7754Z" fill="#EBEBEB"/>
<path d="M111.503 56.5371H70.4883V87.5075H111.503V56.5371Z" fill="#F5F5F5"/>
<path d="M111.503 87.5077C111.503 87.5077 111.495 87.308 111.49 86.9332C111.487 86.5502 111.483 85.9983 111.477 85.2804C111.469 83.8284 111.46 81.7128 111.447 79.0136C111.433 73.6135 111.412 65.8859 111.387 56.5373L111.502 56.653C99.9075 56.6602 85.7542 56.6689 70.491 56.6781H70.4874L70.6282 56.5373C70.6231 67.6758 70.6185 78.222 70.6144 87.5071L70.4874 87.3802C82.6229 87.4063 92.8598 87.4283 100.072 87.4437C103.679 87.458 106.528 87.4698 108.487 87.4774C109.458 87.4841 110.206 87.4892 110.723 87.4928C110.972 87.4959 111.163 87.4984 111.302 87.5C111.433 87.5025 111.503 87.5077 111.503 87.5077C111.503 87.5077 111.442 87.5128 111.316 87.5148C111.181 87.5164 110.994 87.5189 110.752 87.522C110.241 87.5256 109.501 87.5307 108.541 87.5373C106.589 87.5455 103.75 87.5568 100.156 87.5711C92.9233 87.5865 82.6577 87.6085 70.4885 87.6346L70.3615 87.6351V87.5077C70.3574 78.222 70.3528 67.6758 70.3477 56.5378V56.3965H70.489H70.4926C85.7558 56.4057 99.909 56.4144 111.504 56.4216H111.62L111.619 56.5373C111.594 65.9161 111.574 73.6688 111.559 79.0863C111.546 81.7743 111.536 83.8812 111.529 85.327C111.524 86.0351 111.519 86.5799 111.516 86.9578C111.511 87.3249 111.503 87.5077 111.503 87.5077Z" fill="#E0E0E0"/>
<path d="M92.0637 63.0977H75.4375V84.0226H92.0637V63.0977Z" fill="#F5F5F5"/>
<path d="M92.0627 84.0231C92.0602 84.0205 92.0576 83.9852 92.0555 83.9176C92.0535 83.8383 92.0515 83.7415 92.0484 83.6202C92.0448 83.3447 92.0397 82.9633 92.0335 82.4758C92.0253 81.4646 92.0141 80.0141 91.9997 78.1827C91.9844 74.4994 91.9624 69.2872 91.9368 63.0987L92.0632 63.2251C87.1086 63.2292 81.4382 63.2344 75.4386 63.24C75.4053 63.2697 75.7038 62.9753 75.5778 63.1028V63.1084V63.1197V63.1422V63.1878V63.2784V63.4596V63.8216V64.543C75.5778 65.0228 75.5778 65.5005 75.5773 65.9756C75.5768 66.9259 75.5763 67.8664 75.5763 68.7952C75.5748 70.6532 75.5732 72.4667 75.5717 74.225C75.5656 77.7393 75.5594 81.033 75.5538 84.0231L75.4365 83.9058C80.425 83.9309 84.564 83.9519 87.4747 83.9663C88.9185 83.9791 90.0567 83.9893 90.8523 83.9965C91.2323 84.0021 91.5292 84.0067 91.7478 84.0098C91.9511 84.0144 92.0627 84.0231 92.0627 84.0231C92.0668 84.0272 91.9685 84.0318 91.7724 84.0359C91.5594 84.039 91.2696 84.0436 90.8994 84.0492C90.1099 84.0564 88.981 84.0666 87.5484 84.0794C84.6198 84.0943 80.4557 84.1153 75.4371 84.1398L75.3203 84.1403V84.0226C75.3147 81.0325 75.309 77.7388 75.3029 74.2244C75.3014 72.4662 75.2998 70.6532 75.2983 68.7947C75.2978 67.8654 75.2973 66.9254 75.2973 65.9751C75.2973 65.5 75.2973 65.0223 75.2968 64.5425V63.8211V63.4591V63.2779V63.1873V63.1417V63.1192V63.1079V63.1023C75.1713 63.2267 75.4673 62.9261 75.4396 62.9574C81.4392 62.9625 87.1096 62.9676 92.0642 62.9722H92.1912L92.1907 63.0987C92.1646 69.3215 92.1431 74.5613 92.1277 78.2646C92.1134 80.0838 92.1021 81.5245 92.0945 82.5291C92.0883 83.0063 92.0832 83.379 92.0796 83.6483C92.0765 83.764 92.0745 83.8567 92.0724 83.932C92.0678 83.9949 92.0653 84.0257 92.0627 84.0231Z" fill="#E0E0E0"/>
<path d="M107.934 58.3105H76.0703V61.3257H107.934V58.3105Z" fill="#F5F5F5"/>
<path d="M107.936 61.3244C107.932 61.3209 107.928 61.2507 107.924 61.1181C107.921 60.9712 107.917 60.7781 107.911 60.5334C107.903 60.0096 107.893 59.2652 107.879 58.3098L107.936 58.3666C102.562 58.4163 90.3135 58.4506 76.0738 58.4506H76.0723C76.3539 58.169 76.1501 58.3728 76.2131 58.3103V58.3113V58.3144V58.3205V58.3328V58.3569V58.405V58.5018V58.6953V59.0809C76.2131 59.3369 76.2131 59.5918 76.2131 59.8443C76.2131 60.3491 76.2126 60.8447 76.2126 61.325L76.0723 61.1847C84.9831 61.2082 92.9237 61.2292 98.6581 61.2446C101.517 61.262 103.824 61.2763 105.437 61.2866C106.225 61.2948 106.842 61.3014 107.282 61.306C107.482 61.3101 107.642 61.3132 107.765 61.3157C107.875 61.3183 107.932 61.3214 107.936 61.3244C107.939 61.3275 107.887 61.3311 107.784 61.3342C107.665 61.3367 107.511 61.3398 107.318 61.3439C106.886 61.3485 106.28 61.3552 105.506 61.3634C103.9 61.3731 101.604 61.3874 98.7595 61.4048C92.9995 61.4202 85.023 61.4412 76.0718 61.4647L75.9315 61.4653V61.3244C75.9315 60.8442 75.9315 60.3486 75.931 59.8437C75.931 59.5913 75.931 59.3364 75.931 59.0804V58.6948V58.5013V58.4045V58.3564V58.3323V58.32V58.3139V58.3108V58.3098C75.9939 58.2468 75.7902 58.4501 76.0723 58.168H76.0738C90.3135 58.168 102.562 58.2023 107.936 58.2519L107.993 58.2524L107.992 58.3093C107.979 59.279 107.967 60.0342 107.96 60.5662C107.955 60.8058 107.95 60.9947 107.947 61.1381C107.943 61.2656 107.939 61.328 107.936 61.3244Z" fill="#E0E0E0"/>
<path d="M107.936 63.0977H94.0977V75.7087H107.936V63.0977Z" fill="#F5F5F5"/>
<path d="M107.937 75.7087C107.933 75.7041 107.928 75.6211 107.924 75.465C107.92 75.2904 107.916 75.0641 107.91 74.7804C107.902 74.164 107.892 73.2997 107.879 72.2097C107.864 69.9907 107.842 66.8582 107.817 63.0976L107.937 63.2174C103.941 63.2235 99.1881 63.2307 94.0999 63.2384C94.0676 63.2686 94.3656 62.9722 94.2397 63.0996V63.1032V63.1099V63.1232V63.1498V63.2036V63.3111V63.5256V63.9537C94.2397 64.2383 94.2397 64.5225 94.2397 64.8046C94.2391 65.3693 94.2391 65.9295 94.2386 66.484C94.2376 67.5924 94.2361 68.6789 94.235 69.7372C94.2304 71.8528 94.2263 73.8568 94.2222 75.7076L94.0983 75.5837C98.2025 75.6093 101.641 75.6308 104.08 75.6462C105.281 75.66 106.234 75.6713 106.912 75.679C107.227 75.6851 107.476 75.6897 107.668 75.6933C107.841 75.6989 107.933 75.7035 107.937 75.7087C107.942 75.7133 107.859 75.7179 107.696 75.7225C107.51 75.7261 107.269 75.7307 106.964 75.7368C106.293 75.7445 105.349 75.7558 104.16 75.7696C101.702 75.785 98.2348 75.8065 94.0983 75.8321L93.9749 75.8331L93.9744 75.7087C93.9703 73.8578 93.9662 71.8538 93.9616 69.7382C93.9606 68.6799 93.9596 67.5935 93.958 66.485C93.958 65.9305 93.9575 65.3704 93.957 64.8056C93.957 64.523 93.957 64.2394 93.957 63.9547V63.5267V63.3121V63.2046V63.1508V63.1242V63.1109V63.1042V63.1007C93.8311 63.2256 94.1285 62.9266 94.0994 62.9573C99.1871 62.965 103.939 62.9722 107.937 62.9783H108.058L108.056 63.0981C108.031 66.89 108.01 70.049 107.995 72.2865C107.982 73.3647 107.971 74.2203 107.964 74.8301C107.958 75.104 107.954 75.3226 107.95 75.4916C107.946 75.639 107.942 75.7128 107.937 75.7087Z" fill="#E0E0E0"/>
<path d="M107.936 77.6875H94.0977V84.024H107.936V77.6875Z" fill="#F5F5F5"/>
<path d="M107.935 84.0232C107.928 84.016 107.921 83.8578 107.913 83.5639C107.907 83.2454 107.898 82.822 107.887 82.2916C107.874 81.1734 107.855 79.6082 107.832 77.6866L107.934 77.7891C104.325 77.7993 99.4563 77.8126 94.0972 77.8274C93.9707 77.9534 94.2677 77.6559 94.237 77.6872V77.6887V77.6918V77.6984V77.7112V77.7373V77.7896V77.894V78.1019V78.5166C94.237 78.7921 94.2364 79.0665 94.2364 79.3389C94.2359 79.8836 94.2354 80.4223 94.2349 80.9522C94.2329 82.012 94.2313 83.0391 94.2293 84.0221L94.0957 83.8885C98.0867 83.9141 101.521 83.9366 103.992 83.9525C105.201 83.9679 106.174 83.9807 106.875 83.9894C107.195 83.996 107.452 84.0017 107.654 84.0063C107.834 84.0124 107.93 84.0175 107.935 84.0232C107.941 84.0288 107.856 84.0339 107.687 84.0395C107.492 84.0436 107.244 84.0493 106.936 84.0564C106.241 84.0657 105.279 84.0779 104.082 84.0933C101.589 84.1092 98.1241 84.1312 94.0962 84.1573L93.9625 84.1583V84.0237C93.961 83.0406 93.9589 82.0136 93.9574 80.9537C93.9569 80.4238 93.9564 79.8852 93.9559 79.3404C93.9559 79.068 93.9554 78.7936 93.9554 78.5181V78.1034V77.8955V77.7911V77.7389V77.7128V77.7V77.6933V77.6902V77.6887C93.9246 77.7184 94.2226 77.4209 94.0972 77.5469C99.4563 77.5617 104.326 77.5755 107.934 77.5853L108.038 77.5858L108.037 77.6882C108.014 79.6353 107.995 81.222 107.982 82.3551C107.971 82.8758 107.963 83.2915 107.957 83.6043C107.949 83.8859 107.942 84.0303 107.935 84.0232Z" fill="#E0E0E0"/>
<path d="M91.6486 63.1348C86.502 70.2444 80.5802 76.9137 75.4336 84.0233Z" fill="white"/>
<path d="M75.4344 84.0237C75.4267 84.0181 75.4733 83.9377 75.5701 83.7903C75.6879 83.6177 75.8312 83.4073 76.0043 83.1528C76.3847 82.6014 76.9535 81.8175 77.6688 80.8575C79.0973 78.936 81.1417 76.3355 83.4313 73.4914C85.7215 70.6462 87.7885 68.0683 89.2558 66.18C89.968 65.2605 90.5543 64.5037 90.9905 63.9405C91.181 63.6989 91.3382 63.4992 91.4672 63.3348C91.5788 63.1981 91.6413 63.129 91.6489 63.1351C91.6566 63.1408 91.6095 63.2212 91.5133 63.3686C91.3955 63.5412 91.2521 63.7516 91.0791 64.0055C90.6987 64.5565 90.1298 65.3408 89.4146 66.3008C87.9861 68.2224 85.9412 70.8233 83.651 73.668C81.3618 76.5117 79.2949 79.0896 77.8275 80.9783C77.1153 81.8979 76.5291 82.6546 76.0928 83.2178C75.9024 83.4595 75.7452 83.6592 75.6162 83.8235C75.5046 83.9602 75.4421 84.0294 75.4344 84.0237Z" fill="#E0E0E0"/>
<path d="M92.061 84.023C92.0001 84.0716 88.2282 79.4262 83.6376 73.6488C79.0455 67.8694 75.3734 63.1467 75.4343 63.098C75.4953 63.0494 79.2661 67.6938 83.8583 73.4732C88.4494 79.2506 92.122 83.9743 92.061 84.023Z" fill="#E0E0E0"/>
<path d="M72.3894 63.142C72.3894 64.5786 71.2246 65.7429 69.7885 65.7429C68.3518 65.7429 67.1875 64.5786 67.1875 63.142C67.1875 61.7053 68.3518 60.541 69.7885 60.541C71.2251 60.541 72.3894 61.7058 72.3894 63.142Z" fill="#E0E0E0"/>
<path d="M114.928 56.8295C114.928 58.2661 113.764 59.4304 112.328 59.4304C110.891 59.4304 109.727 58.2661 109.727 56.8295C109.727 55.3928 110.891 54.2285 112.328 54.2285C113.764 54.2285 114.928 55.3928 114.928 56.8295Z" fill="#E0E0E0"/>
<path d="M216.677 74.9473H186.703V118.394H216.677V74.9473Z" fill="#E0E0E0"/>
<path d="M215.173 74.9473H185.199V118.394H215.173V74.9473Z" fill="#F5F5F5"/>
<path d="M211.452 79.6543H188.926V113.689H211.452V79.6543Z" fill="white"/>
<path d="M211.451 113.689C211.451 113.689 211.448 113.631 211.447 113.522C211.445 113.41 211.444 113.25 211.442 113.04C211.44 112.612 211.437 111.986 211.433 111.173C211.429 109.542 211.422 107.164 211.413 104.162C211.404 98.1604 211.392 89.6617 211.376 79.6537L211.451 79.7284C204.569 79.7305 196.943 79.7325 188.928 79.7351H188.925L189.007 79.6537C189 92.4931 188.995 104.332 188.99 113.689L188.925 113.624C195.785 113.638 201.408 113.65 205.321 113.658C207.278 113.665 208.807 113.671 209.851 113.675C210.369 113.678 210.767 113.68 211.039 113.682C211.309 113.684 211.451 113.689 211.451 113.689C211.451 113.689 211.319 113.693 211.054 113.696C210.784 113.698 210.39 113.7 209.877 113.703C208.836 113.707 207.312 113.712 205.361 113.72C201.439 113.728 195.802 113.74 188.925 113.754H188.86V113.689C188.856 104.331 188.85 92.4931 188.844 79.6537V79.5723H188.925H188.928C196.943 79.5748 204.569 79.5769 211.451 79.5789H211.526V79.6537C211.511 89.6817 211.498 98.1973 211.489 104.211C211.48 107.207 211.474 109.578 211.469 111.206C211.465 112.012 211.462 112.633 211.46 113.058C211.458 113.264 211.456 113.421 211.455 113.532C211.454 113.637 211.451 113.689 211.451 113.689Z" fill="#E0E0E0"/>
<path d="M215.258 74.9478C215.276 74.9616 215.073 75.2586 214.724 75.724C214.376 76.1894 213.882 76.8227 213.318 77.5078C212.754 78.1929 212.226 78.7991 211.836 79.2302C211.446 79.6613 211.194 79.9178 211.177 79.9029C211.159 79.8881 211.381 79.6044 211.749 79.1549C212.151 78.6675 212.645 78.0674 213.192 77.4039C213.738 76.7403 214.232 76.1402 214.634 75.6523C215.005 75.2053 215.24 74.9335 215.258 74.9478Z" fill="#E0E0E0"/>
<path d="M211.562 113.578C212.681 115.357 214.002 117.009 215.492 118.492Z" fill="white"/>
<path d="M215.493 118.493C215.478 118.508 215.211 118.276 214.808 117.87C214.405 117.464 213.871 116.88 213.326 116.198C212.78 115.515 212.328 114.866 212.021 114.384C211.713 113.902 211.546 113.59 211.564 113.579C211.584 113.566 211.786 113.856 212.116 114.319C212.446 114.783 212.911 115.418 213.453 116.096C213.995 116.773 214.511 117.366 214.891 117.79C215.272 118.215 215.51 118.476 215.493 118.493Z" fill="#E0E0E0"/>
<path d="M185.195 118.362C186.504 116.747 187.813 115.132 189.121 113.518Z" fill="white"/>
<path d="M189.122 113.516C189.157 113.544 188.307 114.652 187.223 115.99C186.138 117.327 185.231 118.389 185.196 118.361C185.162 118.333 186.012 117.225 187.096 115.887C188.18 114.549 189.088 113.488 189.122 113.516Z" fill="#E0E0E0"/>
<path d="M185.2 74.9478C185.236 74.9197 186.089 75.9401 187.106 77.2257C188.123 78.5124 188.919 79.5773 188.884 79.605C188.848 79.6331 187.995 78.6132 186.978 77.3266C185.961 76.041 185.165 74.9755 185.2 74.9478Z" fill="#E0E0E0"/>
<path d="M204.433 86.5645H196.891V107.98H204.433V86.5645Z" fill="#E0E0E0"/>
<path d="M209.771 28.7835L205.48 28.8066L205.596 50.157L209.886 50.1339L209.771 28.7835Z" fill="#E0E0E0"/>
<path d="M179.424 28.8404L168.312 28.9004L168.376 40.6871L179.488 40.6271L179.424 28.8404Z" fill="#EBEBEB"/>
<path d="M190.483 28.7818L179.371 28.8418L179.435 40.6285L190.546 40.5685L190.483 28.7818Z" fill="#F5F5F5"/>
<path d="M168.325 32.1623C175.709 32.2233 183.111 32.1802 190.494 32.0604C190.646 32.0584 190.645 31.8254 190.493 31.8244C183.109 31.7834 175.706 31.8198 168.323 31.9601C168.194 31.9626 168.195 32.1613 168.325 32.1623Z" fill="#E0E0E0"/>
<path d="M181.57 40.432L161.383 40.541L161.435 50.1461L181.622 50.0371L181.57 40.432Z" fill="#EBEBEB"/>
<path d="M201.664 40.3226L181.477 40.4316L181.528 50.0368L201.716 49.9277L201.664 40.3226Z" fill="#F5F5F5"/>
<path d="M161.395 43.2177C174.806 43.3698 188.264 43.2336 201.674 43.019C201.826 43.0165 201.825 42.7835 201.673 42.783C188.261 42.7123 174.803 42.72 161.395 43.0155C161.264 43.018 161.264 43.2162 161.395 43.2177Z" fill="#E0E0E0"/>
<path d="M232.055 50.1523H153.844V53.5935H232.055V50.1523Z" fill="#E0E0E0"/>
<path d="M169.823 51.8066H166.648V63.5488H169.823V51.8066Z" fill="#E0E0E0"/>
<path d="M217.218 51.8066H214.043V63.5488H217.218V51.8066Z" fill="#E0E0E0"/>
<path d="M213.959 20.8225L209.668 20.8457L209.827 50.2099L214.117 50.1868L213.959 20.8225Z" fill="#EBEBEB"/>
<path d="M220.667 26.2882L214 26.3242L214.128 50.1204L220.796 50.0844L220.667 26.2882Z" fill="#F5F5F5"/>
<path d="M220.616 30.8813C220.616 30.9453 219.123 30.997 217.283 30.997C215.441 30.997 213.949 30.9453 213.949 30.8813C213.949 30.8173 215.442 30.7656 217.283 30.7656C219.123 30.7656 220.616 30.8173 220.616 30.8813Z" fill="#E0E0E0"/>
<path d="M220.616 29.8813C220.616 29.9453 219.123 29.997 217.283 29.997C215.441 29.997 213.949 29.9453 213.949 29.8813C213.949 29.8173 215.442 29.7656 217.283 29.7656C219.123 29.7661 220.616 29.8178 220.616 29.8813Z" fill="#E0E0E0"/>
<path d="M220.616 46.5141C220.616 46.5781 219.123 46.6299 217.283 46.6299C215.441 46.6299 213.949 46.5781 213.949 46.5141C213.949 46.4501 215.442 46.3984 217.283 46.3984C219.123 46.3984 220.616 46.4501 220.616 46.5141Z" fill="#E0E0E0"/>
<path d="M220.616 45.5141C220.616 45.5781 219.123 45.6299 217.283 45.6299C215.441 45.6299 213.949 45.5781 213.949 45.5141C213.949 45.4501 215.442 45.3984 217.283 45.3984C219.123 45.3989 220.616 45.4507 220.616 45.5141Z" fill="#E0E0E0"/>
<path d="M217.389 43.3332C217.325 43.3332 217.273 40.9324 217.273 37.9716C217.273 35.0096 217.325 32.6094 217.389 32.6094C217.453 32.6094 217.505 35.0096 217.505 37.9716C217.505 40.9324 217.453 43.3332 217.389 43.3332Z" fill="#E0E0E0"/>
<path d="M227.945 32.1406H220.688V50.1021H227.945V32.1406Z" fill="#EBEBEB"/>
<path d="M224.52 45.4445C223.566 45.4445 222.898 44.765 222.898 43.8291C222.898 43.3212 223.095 42.8809 223.486 42.6172L223.651 42.844C223.326 43.0765 223.173 43.4313 223.173 43.8291C223.173 44.5822 223.712 45.1326 224.52 45.1326C225.328 45.1326 225.867 44.5817 225.867 43.8291C225.867 43.4313 225.713 43.0765 225.389 42.844L225.554 42.6172C225.94 42.8804 226.141 43.3212 226.141 43.8291C226.142 44.765 225.469 45.4445 224.52 45.4445Z" fill="#FAFAFA"/>
<path d="M225.732 42.1704L225.487 42.0296C225.695 41.7848 225.873 41.3502 225.873 40.8791C225.873 40.2058 225.634 39.937 225.273 39.937C224.342 39.937 225.028 42.0542 223.773 42.0542C223.29 42.0542 222.898 41.6502 222.898 40.8423C222.898 40.4383 223.021 39.998 223.21 39.7471L223.455 39.8879C223.259 40.1567 223.167 40.5059 223.167 40.8484C223.167 41.4725 223.424 41.7485 223.767 41.7485C224.727 41.7485 224.048 39.6309 225.266 39.6309C225.786 39.6309 226.141 40.0773 226.141 40.8914C226.142 41.4177 225.964 41.9195 225.732 42.1704Z" fill="#FAFAFA"/>
<path d="M225.732 39.2466L225.487 39.1058C225.695 38.861 225.873 38.4263 225.873 37.9548C225.873 37.282 225.634 37.0127 225.273 37.0127C224.342 37.0127 225.028 39.1298 223.773 39.1298C223.29 39.1298 222.898 38.7258 222.898 37.9184C222.898 37.5139 223.021 37.0736 223.21 36.8227L223.455 36.9635C223.259 37.2329 223.167 37.582 223.167 37.9246C223.167 38.5482 223.424 38.8242 223.767 38.8242C224.727 38.8242 224.048 36.707 225.266 36.707C225.786 36.707 226.141 37.1535 226.141 37.9676C226.142 38.4939 225.964 38.9957 225.732 39.2466Z" fill="#FAFAFA"/>
<path d="M211.745 27.0781C212.426 27.0781 212.979 26.5259 212.979 25.8447C212.979 25.1635 212.426 24.6113 211.745 24.6113C211.064 24.6113 210.512 25.1635 210.512 25.8447C210.512 26.5259 211.064 27.0781 211.745 27.0781Z" fill="#E0E0E0"/>
<path d="M212.13 29.2363H211.367V46.7047H212.13V29.2363Z" fill="#E0E0E0"/>
<path d="M241.052 232.457C241.052 232.531 191.599 232.59 130.609 232.59C69.5991 232.59 20.1562 232.531 20.1562 232.457C20.1562 232.384 69.5986 232.324 130.609 232.324C191.599 232.324 241.052 232.384 241.052 232.457Z" fill="#263238"/>
<path d="M79.9639 56.4414C71.7473 69.3653 72.2855 87.2838 81.2624 99.6911C87.2466 107.962 96.224 113.507 103.353 120.815C110.481 128.124 115.895 138.894 112.133 148.385C108.303 158.047 97.0862 161.978 88.6858 168.098C79.5359 174.764 73.1093 185.061 71.1406 196.209C69.172 207.357 71.6828 219.232 77.9958 228.63H165.253C165.253 228.63 180.581 199.417 160.874 177.156C141.167 154.894 130.583 154.529 131.313 139.931C132.043 125.334 142.262 120.589 148.1 115.115C153.939 109.641 182.405 96.8679 165.618 56.4419L79.9639 56.4414Z" fill="#FAFAFA"/>
<path d="M79.9645 56.4424C79.9645 56.4424 80.4709 56.4342 81.4667 56.4301C82.4656 56.4275 83.9473 56.4234 85.8899 56.4183C89.7841 56.4127 95.5237 56.4045 102.917 56.3937C117.718 56.383 139.137 56.3671 165.619 56.3477H165.683L165.706 56.406C166.898 59.434 168.103 62.5505 168.957 65.8545C169.835 69.1436 170.556 72.5704 170.811 76.1216C171.078 79.6657 170.963 83.3254 170.257 86.9601C169.529 90.5846 168.23 94.1747 166.313 97.4956C165.36 99.1596 164.239 100.74 163.027 102.264C161.801 103.78 160.444 105.205 159.008 106.565C157.569 107.923 156.036 109.202 154.445 110.427C152.857 111.655 151.2 112.816 149.582 114.042C148.771 114.653 148.031 115.339 147.259 116.026C146.483 116.7 145.683 117.35 144.877 117.994C143.265 119.284 141.636 120.573 140.098 121.985C136.995 124.761 134.374 128.228 132.932 132.263C132.233 134.277 131.731 136.387 131.567 138.546C131.524 139.085 131.452 139.624 131.432 140.166C131.421 140.708 131.39 141.252 131.416 141.795C131.423 142.883 131.545 143.969 131.743 145.041C132.153 147.185 133.053 149.238 134.362 151.018C135.652 152.815 137.242 154.397 138.888 155.918C142.201 158.947 145.714 161.839 149.08 164.96C152.462 168.065 155.746 171.342 158.91 174.786C160.48 176.514 162.075 178.253 163.448 180.181C164.867 182.074 166.058 184.141 167.105 186.281C169.169 190.58 170.445 195.296 170.863 200.118C171.312 204.94 170.969 209.854 170.013 214.664C169.54 217.071 168.912 219.454 168.141 221.799C167.37 224.145 166.479 226.458 165.371 228.691L165.335 228.763H165.253C164.545 228.763 163.776 228.763 163.006 228.763C133.22 228.761 104.48 228.759 77.9964 228.757H77.9283L77.8909 228.701C73.7335 222.459 71.2651 215.289 70.5841 208.104C69.8607 200.917 70.9666 193.711 73.6029 187.314C76.2049 180.895 80.2497 175.264 85.1372 170.839C87.5738 168.609 90.2905 166.784 93.0118 165.095C95.7361 163.404 98.4835 161.84 101.081 160.129C103.667 158.413 106.159 156.586 108.183 154.351C110.213 152.135 111.765 149.531 112.578 146.733C113.394 143.931 113.402 140.994 112.924 138.228C112.441 135.453 111.464 132.828 110.228 130.41C108.988 127.99 107.485 125.767 105.836 123.739C104.191 121.704 102.362 119.899 100.521 118.194C96.8272 114.794 93.0476 111.82 89.6449 108.764C87.9409 107.239 86.3261 105.7 84.8398 104.118C83.3642 102.528 82.015 100.897 80.8564 99.2082C78.5196 95.8382 76.9171 92.2875 75.8639 88.8602C74.8092 85.4287 74.2849 82.1115 74.1646 79.0595C74.0929 78.2976 74.121 77.5501 74.1221 76.8205C74.1318 76.0909 74.1098 75.3777 74.1855 74.686C74.2388 73.9932 74.291 73.3179 74.3417 72.66C74.4206 72.0056 74.5286 71.3718 74.6166 70.7543C75.3846 65.8115 76.8761 62.1998 78.0389 59.8881C78.3174 59.3009 78.5626 58.7843 78.8284 58.366C79.0777 57.9415 79.2866 57.5852 79.4545 57.2979C79.7914 56.7281 79.9645 56.4424 79.9645 56.4424C79.9286 56.5054 79.7863 56.7567 79.4699 57.3158C79.305 57.6036 79.1002 57.9605 78.856 58.3859C78.5964 58.8022 78.3537 59.3198 78.0788 59.9081C76.9304 62.2234 75.4548 65.834 74.7016 70.7681C74.6156 71.3846 74.5091 72.0169 74.4323 72.6702C74.3837 73.3266 74.333 74.0004 74.2818 74.6916C74.2081 75.3818 74.2316 76.0934 74.2234 76.821C74.2239 77.5485 74.1973 78.2945 74.2705 79.0538C74.397 82.0977 74.9259 85.4047 75.9832 88.8233C77.0384 92.2378 78.641 95.7732 80.9736 99.1263C82.1302 100.807 83.4768 102.431 84.9503 104.014C86.4341 105.59 88.0479 107.124 89.7514 108.644C93.1531 111.692 96.9363 114.661 100.641 118.064C102.486 119.769 104.323 121.58 105.978 123.623C107.637 125.659 109.149 127.89 110.398 130.323C111.643 132.753 112.629 135.394 113.12 138.194C113.603 140.983 113.599 143.953 112.775 146.788C111.955 149.621 110.386 152.256 108.339 154.493C106.298 156.75 103.793 158.588 101.2 160.31C98.5957 162.029 95.8478 163.595 93.129 165.285C90.4124 166.973 87.7121 168.79 85.2898 171.009C80.4309 175.414 76.4087 181.018 73.8236 187.404C71.2042 193.768 70.108 200.933 70.8299 208.08C71.5093 215.226 73.9674 222.356 78.1013 228.559L77.9959 228.503C104.48 228.5 133.219 228.499 163.006 228.497C163.775 228.497 164.544 228.497 165.252 228.497L165.135 228.568C166.229 226.361 167.121 224.049 167.888 221.717C168.656 219.382 169.281 217.008 169.752 214.612C170.704 209.825 171.045 204.936 170.599 200.142C170.184 195.349 168.917 190.665 166.868 186.395C165.828 184.27 164.645 182.217 163.235 180.336C161.873 178.421 160.287 176.692 158.717 174.963C155.559 171.524 152.281 168.251 148.904 165.151C145.543 162.032 142.036 159.144 138.713 156.105C137.063 154.578 135.462 152.987 134.156 151.166C132.83 149.362 131.911 147.267 131.496 145.09C131.296 144.001 131.172 142.9 131.166 141.8C131.14 141.251 131.171 140.703 131.182 140.156C131.202 139.609 131.275 139.066 131.319 138.523C131.485 136.346 131.992 134.215 132.699 132.18C134.158 128.102 136.813 124.597 139.935 121.808C141.481 120.389 143.116 119.097 144.727 117.809C145.533 117.166 146.33 116.518 147.102 115.848C147.861 115.174 148.622 114.47 149.437 113.856C151.064 112.625 152.718 111.468 154.302 110.243C155.889 109.023 157.417 107.75 158.85 106.398C160.28 105.045 161.632 103.629 162.851 102.123C164.056 100.607 165.173 99.0377 166.121 97.3845C168.028 94.0856 169.32 90.5206 170.047 86.9182C170.751 83.306 170.868 79.6652 170.605 76.1365C170.354 72.6006 169.639 69.185 168.765 65.9052C167.917 62.611 166.717 59.5 165.53 56.4772L165.617 56.5356C139.152 56.5161 117.746 56.5002 102.954 56.4895C95.5549 56.4787 89.8108 56.4705 85.9134 56.4649C83.9658 56.4598 82.4799 56.4557 81.479 56.4531C80.4801 56.4506 79.9645 56.4424 79.9645 56.4424Z" fill="#263238"/>
<path d="M162.135 80.1444C174.987 82.2569 154.724 105.018 143.254 114C136.613 119.201 129.48 124.84 126.327 132.664C122.748 141.54 125.4 151.516 123.666 160.445C123.378 161.927 121.187 161.694 121.209 160.184C121.295 154.324 121.138 148.466 120.167 142.696C118.79 134.513 115.644 126.417 109.908 120.419C105.227 115.524 99.0876 112.271 94.0936 107.694C86.8022 101.013 79.3127 92.3945 78.582 82.5319C78.582 82.5319 92.5811 71.2556 100.352 72.6789C109.433 74.3424 118.373 88.3553 132.445 86.7507C142.27 85.63 147.228 77.6945 162.135 80.1444Z" fill="#0B7AB2"/>
<path d="M163.279 201.973C162.954 198.759 162.097 195.122 159.245 193.606C157.517 192.687 155.413 192.79 153.521 193.288C151.628 193.785 149.85 194.646 147.974 195.203C144.283 196.299 140.24 196.171 136.626 194.844C133.139 193.563 130.146 191.247 126.908 189.427C123.67 187.607 119.88 186.25 116.276 187.147C110.06 188.694 106.825 196.177 100.68 197.984C97.9486 198.786 95.0159 198.336 92.2393 197.707C89.4627 197.077 86.6754 196.27 83.8307 196.376C81.6015 196.46 79.2821 197.23 77.7195 198.758L77.7359 198.737C77.72 198.753 77.7067 198.77 77.6908 198.786C77.4338 199.04 77.1978 199.315 76.9863 199.612C75.0801 202.153 74.7755 205.569 75.3617 208.672C76.0181 212.146 77.6412 215.357 79.383 218.434C81.4346 222.058 83.7647 225.666 87.1567 228.083C91.3413 231.063 96.6036 229.006 101.725 229.41C113.672 230.353 126.524 230.996 138.472 230.07C144.783 229.581 150.699 230.265 155.707 226.393C159.23 223.669 161.522 219.563 162.627 215.249C163.731 210.934 163.726 206.404 163.279 201.973Z" fill="#0B7AB2"/>
<g opacity="0.24">
<path d="M140.732 195.818C140.057 196.851 139.77 198.234 140.42 199.283C141.071 200.332 141.95 201.284 142.232 202.486C142.675 204.372 141.539 206.217 140.692 207.959C139.177 211.077 138.488 214.633 138.999 218.062C139.51 221.49 141.269 224.765 144.013 226.883C145.226 227.819 146.802 228.545 148.265 228.087C149.641 227.656 150.532 226.258 150.805 224.842C151.079 223.425 150.853 221.966 150.673 220.534C149.839 213.89 150.01 207.12 151.178 200.527C151.374 199.424 151.561 198.166 150.862 197.291C150.416 196.732 149.704 196.47 149.026 196.243C146.363 195.357 143.489 196.342 140.732 195.818Z" fill="black"/>
</g>
<path d="M71.5915 232.592C71.5915 232.592 71.3514 228.587 76.5743 226.357H168.351C168.351 226.357 173.137 228.78 173.726 232.509L71.5915 232.592Z" fill="#263238"/>
<path d="M166.408 56.9302C166.36 56.9527 166.311 56.9752 166.262 56.9978L79.964 56.4423C79.964 56.4423 79.6578 56.2462 79.1985 55.8872C76.7399 53.9642 78.1197 50.0141 81.2409 50.0392L165 50.7155C168.458 50.7437 169.534 55.4531 166.408 56.9302Z" fill="#263238"/>
<g opacity="0.24">
<path d="M152.596 89.8493C152.77 90.1821 152.123 90.9015 150.885 91.9997C149.644 93.099 147.832 94.6068 145.529 96.4633C143.213 98.3045 140.408 100.525 136.834 102.596C135.045 103.63 133.052 104.569 130.873 105.332C129.777 105.7 128.641 106.041 127.447 106.279C126.26 106.534 125.02 106.703 123.746 106.761C121.204 106.907 118.619 106.535 116.306 105.744C114.005 104.946 112.043 103.821 110.328 102.693C108.607 101.552 107.124 100.426 105.726 99.3485C104.334 98.2681 103.066 97.2267 101.931 96.2473C97.3982 92.3197 95.0143 89.4315 95.4741 88.874C95.9492 88.2944 99.1579 90.1314 104.159 93.2045C105.409 93.9719 106.776 94.8116 108.244 95.7122C109.71 96.6052 111.287 97.5908 112.894 98.5021C114.507 99.4135 116.19 100.242 117.936 100.78C119.669 101.298 121.518 101.544 123.485 101.434C127.415 101.234 131.23 99.8487 134.535 98.2538C137.856 96.6282 140.827 94.7891 143.418 93.3386C146.005 91.8717 148.219 90.7878 149.83 90.2118C151.443 89.6338 152.429 89.5293 152.596 89.8493Z" fill="black"/>
</g>
<path d="M121.274 171.142C122.222 170.809 123.354 171.762 123.187 172.752C123.02 173.742 121.637 174.271 120.852 173.645C120.067 173.02 120.273 171.554 121.201 171.17" fill="#0B7AB2"/>
<path d="M90.4073 104.132C90.4006 104.138 90.2957 104.032 90.1026 103.825C89.8953 103.598 89.6168 103.293 89.2665 102.909C88.9133 102.502 88.4484 102.032 87.9732 101.431C87.4909 100.831 86.9451 100.152 86.3435 99.4035C85.787 98.6165 85.1552 97.7686 84.5203 96.8291C84.2182 96.3483 83.9064 95.8517 83.5849 95.3402C83.4267 95.0827 83.2552 94.8282 83.1021 94.5574C82.9536 94.284 82.8036 94.007 82.6515 93.7264C81.3915 91.5079 80.2697 88.91 79.472 86.072C78.6738 83.2324 78.2995 80.4251 78.2657 77.8698C78.2637 77.2313 78.2985 76.6087 78.3128 76.004C78.3271 75.7019 78.3215 75.4029 78.3517 75.1111C78.383 74.8193 78.4137 74.532 78.4439 74.2499C78.5084 73.6857 78.5535 73.1389 78.6292 72.6177C78.7229 72.1 78.813 71.6024 78.8991 71.1267C79.0455 70.1718 79.2979 69.3337 79.4786 68.5898C79.5769 68.2196 79.6537 67.8714 79.7515 67.5581C79.8529 67.2483 79.9461 66.9642 80.0306 66.7056C80.196 66.213 80.327 65.8209 80.4248 65.529C80.518 65.2612 80.5707 65.122 80.5794 65.125C80.5881 65.1281 80.5523 65.273 80.476 65.5459C80.39 65.8408 80.2748 66.2371 80.1299 66.7353C80.0521 66.9954 79.9671 67.2811 79.8739 67.5924C79.7838 67.9067 79.7142 68.2559 79.623 68.6261C79.4566 69.3711 79.218 70.2082 79.0844 71.1605C79.004 71.6341 78.92 72.1302 78.8325 72.6458C78.7629 73.1645 78.7234 73.7087 78.6635 74.2699C78.6359 74.5505 78.6077 74.8362 78.5791 75.1259C78.5514 75.4162 78.5591 75.7127 78.5468 76.0127C78.5366 76.6133 78.5053 77.2313 78.511 77.8651C78.5586 80.4011 78.9369 83.1823 79.7285 85.9983C80.5195 88.8132 81.6255 91.3947 82.8671 93.6071C83.0166 93.8866 83.1645 94.1631 83.3099 94.4355C83.4605 94.7053 83.6299 94.9598 83.7851 95.2173C84.101 95.7288 84.4077 96.2255 84.7046 96.7062C85.3288 97.6468 85.9493 98.4972 86.4941 99.2888C87.0824 100.044 87.6164 100.73 88.0884 101.335C88.5513 101.943 89.0044 102.422 89.3449 102.838C89.6792 103.236 89.9444 103.552 90.1426 103.787C90.3228 104.008 90.4139 104.126 90.4073 104.132Z" fill="#263238"/>
<path d="M85.5472 180.194C85.5431 180.192 85.5759 180.135 85.643 180.026C85.7187 179.906 85.8196 179.747 85.9476 179.545C86.0864 179.33 86.2543 179.07 86.4509 178.766C86.5512 178.612 86.6593 178.446 86.774 178.27C86.8999 178.101 87.0474 177.93 87.1964 177.745C87.499 177.375 87.8348 176.965 88.2009 176.518C88.5952 176.093 89.0467 175.653 89.5203 175.17C90.4926 174.23 91.6682 173.226 93.0352 172.212C95.7529 170.152 99.2591 168.105 103.06 165.717C104.946 164.503 106.931 163.224 108.808 161.667C110.687 160.122 112.499 158.341 113.966 156.216C116.859 151.915 118.034 146.932 118.137 142.479C118.253 137.991 117.299 133.995 116.174 130.808C115.036 127.611 113.73 125.177 112.783 123.535C112.308 122.713 111.919 122.086 111.651 121.664C111.524 121.461 111.425 121.301 111.349 121.181C111.283 121.072 111.251 121.014 111.254 121.012C111.258 121.009 111.298 121.061 111.372 121.166C111.452 121.283 111.559 121.438 111.696 121.635C111.979 122.048 112.383 122.667 112.872 123.483C113.849 125.112 115.185 127.54 116.352 130.745C117.505 133.939 118.486 137.958 118.382 142.485C118.363 143.614 118.272 144.769 118.1 145.938C117.938 147.108 117.691 148.293 117.35 149.474C116.692 151.842 115.635 154.194 114.187 156.366C112.701 158.52 110.868 160.317 108.973 161.87C107.079 163.435 105.085 164.714 103.191 165.925C99.3758 168.307 95.8681 170.332 93.1473 172.364C91.7783 173.365 90.6001 174.354 89.6232 175.279C89.1476 175.755 88.6924 176.187 88.2951 176.605C87.9239 177.045 87.5845 177.448 87.2778 177.811C87.1262 177.993 86.9762 178.16 86.8477 178.327C86.7299 178.5 86.6193 178.662 86.5159 178.814C86.3116 179.112 86.137 179.365 85.9932 179.576C85.856 179.772 85.7479 179.927 85.6665 180.042C85.5912 180.144 85.5508 180.197 85.5472 180.194Z" fill="#263238"/>
<path d="M80.7858 189.242C80.7935 189.248 80.7546 189.329 80.6737 189.48C80.5754 189.656 80.4551 189.871 80.3092 190.132C80.1443 190.41 79.9487 190.755 79.7511 191.171C79.5494 191.584 79.2944 192.041 79.0783 192.579C78.9631 192.845 78.8428 193.122 78.7179 193.411C78.5945 193.701 78.4936 194.014 78.3733 194.332C78.1229 194.964 77.9289 195.664 77.7077 196.395C77.3134 197.87 76.9842 199.519 76.8137 201.274C76.6622 203.031 76.6857 204.714 76.805 206.236C76.89 206.995 76.953 207.718 77.0841 208.386C77.1445 208.72 77.1865 209.046 77.2551 209.354C77.3252 209.66 77.3933 209.955 77.4578 210.238C77.572 210.806 77.7399 211.302 77.8628 211.745C77.9816 212.189 78.1111 212.564 78.2223 212.868C78.3185 213.151 78.3974 213.384 78.4624 213.575C78.5146 213.738 78.5376 213.825 78.5294 213.829C78.5207 213.832 78.4808 213.752 78.4127 213.595C78.3354 213.409 78.2402 213.18 78.1255 212.904C77.9985 212.604 77.8541 212.233 77.721 211.79C77.5833 211.349 77.402 210.853 77.275 210.285C77.2044 210.001 77.1307 209.705 77.0539 209.398C76.9791 209.089 76.9315 208.761 76.866 208.425C76.7247 207.754 76.6519 207.025 76.5598 206.259C76.4256 204.724 76.3944 203.024 76.5475 201.25C76.7195 199.479 77.0595 197.813 77.4706 196.329C77.7005 195.593 77.9043 194.889 78.1654 194.255C78.2909 193.936 78.3973 193.623 78.5269 193.332C78.6585 193.044 78.7844 192.767 78.9058 192.5C79.1341 191.964 79.4029 191.51 79.6185 191.101C79.8299 190.69 80.0393 190.351 80.219 190.08C80.3824 189.828 80.5175 189.621 80.6276 189.452C80.7239 189.31 80.7776 189.237 80.7858 189.242Z" fill="#263238"/>
<path d="M144.088 201.547C144.091 201.552 144.055 201.577 143.984 201.623C143.899 201.676 143.794 201.742 143.665 201.823C143.362 202.005 142.947 202.254 142.423 202.569C142.15 202.731 141.849 202.909 141.521 203.103C141.186 203.288 140.808 203.464 140.409 203.666C139.603 204.054 138.71 204.549 137.654 204.948C137.133 205.162 136.587 205.385 136.018 205.619C135.448 205.848 134.832 206.024 134.206 206.241C132.96 206.696 131.58 207.02 130.138 207.397C127.231 208.044 123.977 208.518 120.537 208.628C117.094 208.698 113.819 208.393 110.881 207.899C109.422 207.599 108.027 207.347 106.758 206.958C106.122 206.774 105.497 206.63 104.915 206.431C104.335 206.228 103.779 206.033 103.246 205.846C102.172 205.503 101.253 205.056 100.429 204.71C100.02 204.529 99.6337 204.373 99.2891 204.206C98.9517 204.03 98.642 203.867 98.3609 203.72C97.8202 203.432 97.3932 203.205 97.0814 203.039C96.9483 202.966 96.8402 202.905 96.7522 202.857C96.679 202.814 96.6421 202.791 96.6447 202.786C96.6467 202.782 96.6877 202.798 96.7655 202.833C96.8566 202.876 96.9688 202.928 97.107 202.992C97.4234 203.147 97.8576 203.359 98.407 203.627C98.6901 203.767 99.0024 203.923 99.3429 204.091C99.6895 204.251 100.078 204.399 100.488 204.573C101.316 204.905 102.236 205.338 103.31 205.668C103.841 205.849 104.398 206.037 104.977 206.234C105.558 206.426 106.181 206.565 106.816 206.743C108.081 207.122 109.47 207.364 110.923 207.657C113.848 208.135 117.105 208.43 120.529 208.361C123.951 208.251 127.186 207.787 130.082 207.156C131.518 206.788 132.893 206.474 134.136 206.029C134.76 205.819 135.376 205.648 135.946 205.425C136.514 205.198 137.059 204.98 137.581 204.773C138.636 204.387 139.533 203.906 140.342 203.531C140.743 203.336 141.123 203.168 141.461 202.99C141.792 202.804 142.095 202.633 142.371 202.478C142.905 202.181 143.328 201.947 143.636 201.776C143.771 201.704 143.88 201.646 143.969 201.599C144.046 201.561 144.086 201.543 144.088 201.547Z" fill="#263238"/>
<path d="M149.429 93.1878C149.432 93.1914 149.395 93.2257 149.32 93.2892C149.233 93.3609 149.123 93.452 148.984 93.5657C148.67 93.816 148.233 94.1652 147.677 94.6091C146.538 95.5097 144.891 96.8158 142.81 98.3718C140.725 99.9191 138.199 101.721 135.195 103.406C133.678 104.216 132.063 105.044 130.289 105.664C128.52 106.287 126.619 106.766 124.627 106.923C120.627 107.194 116.835 106.18 113.75 104.66C112.207 103.887 110.816 103.021 109.549 102.162C108.299 101.279 107.158 100.426 106.148 99.6078C104.121 97.9812 102.533 96.6044 101.429 95.6608C100.891 95.1959 100.468 94.8298 100.164 94.5671C100.03 94.4484 99.924 94.3531 99.8395 94.2779C99.7673 94.2113 99.7315 94.176 99.7346 94.1724C99.7376 94.1688 99.7791 94.1975 99.8569 94.2569C99.946 94.327 100.058 94.4156 100.199 94.5262C100.51 94.7796 100.944 95.1324 101.496 95.5814C102.62 96.501 104.227 97.8557 106.265 99.4603C107.28 100.268 108.425 101.109 109.675 101.979C110.94 102.826 112.327 103.68 113.859 104.44C116.92 105.932 120.666 106.923 124.609 106.656C126.571 106.501 128.449 106.032 130.201 105.417C131.959 104.808 133.566 103.991 135.077 103.191C138.071 101.527 140.602 99.7455 142.699 98.2198C144.792 96.6858 146.456 95.4022 147.614 94.5267C148.183 94.0997 148.631 93.7638 148.952 93.5232C149.096 93.4182 149.213 93.3337 149.304 93.2677C149.384 93.2114 149.427 93.1842 149.429 93.1878Z" fill="#263238"/>
<g opacity="0.24">
<path d="M103.254 205.848C105.68 203.975 109.089 204.429 112.088 205.06C115.088 205.69 118.11 206.716 121.145 206.291C123.433 205.971 125.532 204.845 127.789 204.356C130.047 203.867 132.786 204.229 134.038 206.17C124.105 209.399 113.117 209.285 103.254 205.848Z" fill="black"/>
</g>
<path d="M34.5415 219.059C34.5369 219.057 34.5671 218.983 34.6311 218.843C34.7028 218.691 34.7985 218.485 34.9214 218.225C35.1677 217.678 35.4882 216.85 35.7739 215.749C36.3381 213.547 36.5347 210.183 35.7012 206.186C35.3141 204.186 34.69 202.039 33.9276 199.764C33.177 197.484 32.3051 195.066 31.5929 192.452C30.8889 189.843 30.3329 187.012 30.4399 184.044C30.5479 181.07 31.428 178.102 32.3967 175.147C33.3629 172.188 34.3623 169.294 34.6618 166.385C35.0003 163.481 34.3787 160.629 33.0557 158.293C31.7741 155.932 30.1619 153.912 28.9551 151.821C27.7293 149.736 26.9629 147.592 26.4903 145.598C25.5743 141.578 25.8954 138.191 26.3341 135.959C26.8098 133.715 27.3402 132.555 27.3402 132.555C27.3453 132.557 27.3249 132.633 27.2808 132.781C27.2307 132.942 27.1631 133.158 27.0771 133.434C26.8994 134.007 26.67 134.864 26.4519 135.982C26.051 138.21 25.7679 141.574 26.7023 145.549C27.1841 147.521 27.9541 149.637 29.1752 151.693C30.3789 153.76 31.9984 155.771 33.3055 158.159C34.6567 160.522 35.3064 163.466 34.9619 166.416C34.6608 169.375 33.6537 172.287 32.6896 175.243C31.7214 178.195 30.8515 181.132 30.7414 184.056C30.6319 186.979 31.1736 189.783 31.8668 192.378C32.5672 194.98 33.4289 197.399 34.1703 199.685C34.9229 201.968 35.5394 204.131 35.9147 206.146C36.7262 210.172 36.4948 213.57 35.8901 215.779C35.5845 216.885 35.2435 217.711 34.9777 218.251C34.8436 218.507 34.7381 218.708 34.6593 218.858C34.5855 218.994 34.5461 219.062 34.5415 219.059Z" fill="#263238"/>
<path d="M30.5951 153.884C30.5951 153.884 28.1447 146.049 32.5402 141.461C32.6943 141.3 32.9662 141.376 33.0061 141.596C33.2406 142.889 33.534 146.831 30.5951 153.884Z" fill="#0B7AB2"/>
<path d="M32.0643 144.072C32.1057 144.081 32.0356 144.632 31.8994 145.518C31.7386 146.514 31.5492 147.682 31.3403 148.974C31.1355 150.266 30.9496 151.434 30.7919 152.43C30.6578 153.314 30.5774 153.863 30.5323 153.86C30.4929 153.857 30.4965 153.299 30.5764 152.403C30.6573 151.508 30.8155 150.276 31.0372 148.924C31.2584 147.572 31.4939 146.355 31.6859 145.478C31.8769 144.601 32.0223 144.064 32.0643 144.072Z" fill="#263238"/>
<path d="M33.4727 172.365C33.4727 172.365 34.9713 164.294 41.0016 162.294C41.2136 162.224 41.4179 162.418 41.3503 162.631C40.953 163.884 39.3688 167.505 33.4727 172.365Z" fill="#0B7AB2"/>
<path d="M39.3597 164.378C39.3924 164.405 39.073 164.86 38.5379 165.579C37.9297 166.384 37.2159 167.328 36.428 168.372C35.6426 169.418 34.9319 170.365 34.3267 171.17C33.7942 171.89 33.4666 172.337 33.4287 172.313C33.3949 172.292 33.6591 171.801 34.1485 171.047C34.639 170.293 35.3543 169.278 36.1827 168.187C37.0101 167.095 37.7883 166.13 38.3679 165.444C38.947 164.758 39.3269 164.351 39.3597 164.378Z" fill="#263238"/>
<path d="M31.8426 192.614C31.8426 192.614 30.9323 184.455 36.1225 180.79C36.3047 180.661 36.5566 180.788 36.5541 181.011C36.5372 182.326 36.0733 186.251 31.8426 192.614Z" fill="#0B7AB2"/>
<path d="M35.1563 183.262C35.1957 183.278 35.0217 183.806 34.7185 184.65C34.3704 185.596 33.9618 186.708 33.5102 187.936C33.0627 189.164 32.6577 190.276 32.3127 191.223C32.0121 192.066 31.8283 192.59 31.7848 192.577C31.7464 192.567 31.857 192.02 32.1058 191.156C32.3562 190.293 32.7458 189.114 33.222 187.829C33.6971 186.545 34.1605 185.394 34.5163 184.57C34.8716 183.745 35.1169 183.246 35.1563 183.262Z" fill="#263238"/>
<path d="M36.3852 212.983C36.3852 212.983 35.7677 204.796 41.0854 201.319C41.2723 201.197 41.5196 201.333 41.5088 201.555C41.4453 202.869 40.8406 206.775 36.3852 212.983Z" fill="#0B7AB2"/>
<path d="M40.0329 203.756C40.0719 203.774 39.8788 204.295 39.546 205.127C39.1641 206.061 38.7161 207.157 38.221 208.368C37.73 209.58 37.285 210.677 36.9062 211.61C36.5754 212.442 36.3737 212.959 36.3307 212.945C36.2928 212.933 36.4223 212.391 36.7024 211.536C36.9835 210.682 37.4156 209.518 37.9373 208.251C38.458 206.984 38.9629 205.851 39.3474 205.04C39.7309 204.229 39.994 203.738 40.0329 203.756Z" fill="#263238"/>
<path d="M27.0723 147C27.0723 147 19.7953 143.2 19.6524 136.847C19.6473 136.624 19.8931 136.486 20.0769 136.613C21.1582 137.36 24.1555 139.937 27.0723 147Z" fill="#0B7AB2"/>
<path d="M21.1632 139.03C21.1985 139.007 21.539 139.445 22.0699 140.168C22.6608 140.986 23.355 141.946 24.1215 143.005C24.891 144.063 25.5874 145.02 26.1803 145.835C26.7117 146.555 27.0435 146.999 27.0092 147.029C26.979 147.055 26.5873 146.658 26.0092 145.969C25.4327 145.279 24.6724 144.297 23.8722 143.185C23.0714 142.074 22.3761 141.047 21.8907 140.292C21.4053 139.536 21.1278 139.054 21.1632 139.03Z" fill="#263238"/>
<path d="M34.8868 163.828C34.8868 163.828 27.3922 160.477 26.8643 154.145C26.8459 153.923 27.0829 153.77 27.2734 153.885C28.3982 154.566 31.546 156.956 34.8868 163.828Z" fill="#0B7AB2"/>
<path d="M28.5064 156.232C28.5402 156.206 28.9068 156.623 29.4808 157.312C30.1203 158.092 30.8714 159.008 31.7008 160.019C32.5328 161.028 33.286 161.941 33.9275 162.719C34.502 163.405 34.8598 163.829 34.8276 163.86C34.7989 163.888 34.3842 163.515 33.7652 162.862C33.1477 162.209 32.3295 161.275 31.4632 160.213C30.5964 159.153 29.8402 158.17 29.3098 157.446C28.7788 156.722 28.4726 156.257 28.5064 156.232Z" fill="#263238"/>
<path d="M30.5755 182.597C30.5755 182.597 25.4299 176.2 27.8434 170.323C27.9279 170.116 28.209 170.088 28.3263 170.278C29.018 171.396 30.7316 174.957 30.5755 182.597Z" fill="#0B7AB2"/>
<path d="M28.3526 172.928C28.3946 172.92 28.5308 173.459 28.7279 174.334C28.9419 175.319 29.1933 176.476 29.4713 177.755C29.7529 179.032 30.0074 180.187 30.2245 181.172C30.4231 182.045 30.5491 182.585 30.5056 182.598C30.4677 182.61 30.2675 182.089 30.0141 181.226C29.7622 180.364 29.4585 179.159 29.1713 177.82C28.8825 176.481 28.6573 175.262 28.5149 174.375C28.3721 173.488 28.3111 172.935 28.3526 172.928Z" fill="#263238"/>
<path d="M35.6718 204.687C35.6718 204.687 28.235 201.21 27.8132 194.871C27.7983 194.648 28.0379 194.499 28.2269 194.618C29.3405 195.317 32.4478 197.759 35.6718 204.687Z" fill="#0B7AB2"/>
<path d="M29.4206 196.983C29.4549 196.958 29.8144 197.382 30.3765 198.08C31.0027 198.871 31.7385 199.799 32.5505 200.824C33.3656 201.846 34.1034 202.772 34.7316 203.56C35.2943 204.256 35.645 204.685 35.6123 204.716C35.5831 204.743 35.1745 204.364 34.5667 203.701C33.9605 203.038 33.1577 202.09 32.3093 201.014C31.4604 199.939 30.7211 198.944 30.203 198.211C29.6848 197.478 29.3863 197.009 29.4206 196.983Z" fill="#263238"/>
<path d="M50.4874 172.408C50.4946 172.409 50.4977 172.47 50.4966 172.589C50.493 172.732 50.489 172.904 50.4838 173.114C50.4618 173.607 50.4326 174.273 50.3958 175.104C50.3 176.854 50.1664 179.295 50.0061 182.214L50.0056 182.22L50.0036 182.23C49.4726 185.201 47.9597 188.494 45.9275 191.691C44.4366 194.045 42.874 196.187 41.5264 198.178C40.1696 200.163 39.0248 202.002 38.2266 203.632C37.4232 205.259 36.9563 206.657 36.6829 207.635C36.5523 208.125 36.454 208.508 36.3972 208.769C36.3362 209.03 36.2989 209.166 36.2881 209.165C36.2779 209.163 36.2943 209.023 36.3362 208.758C36.3731 208.491 36.453 208.103 36.5666 207.605C36.8058 206.613 37.2456 205.191 38.0305 203.538C38.8102 201.882 39.9443 200.018 41.2909 198.02C42.6292 196.014 44.1837 193.87 45.6664 191.527C47.6878 188.346 49.1931 185.104 49.7435 182.181L49.7414 182.198C49.9462 179.282 50.1177 176.844 50.2406 175.096C50.3077 174.266 50.3615 173.602 50.4014 173.11C50.4224 172.901 50.4398 172.73 50.4541 172.587C50.47 172.469 50.4808 172.408 50.4874 172.408Z" fill="#263238"/>
<path d="M46.0591 191.081C46.0591 191.081 49.209 183.499 45.2471 178.533C45.1078 178.358 44.8303 178.41 44.7709 178.624C44.4202 179.891 43.771 183.79 46.0591 191.081Z" fill="#0B7AB2"/>
<path d="M45.4838 181.176C45.5258 181.171 45.6226 181.72 45.7337 182.61C45.8453 183.501 45.9697 184.735 46.0675 186.101C46.1663 187.468 46.2119 188.709 46.2114 189.608C46.2093 190.508 46.1632 191.063 46.1233 191.063C46.0782 191.062 46.048 190.508 45.9943 189.615C45.9272 188.609 45.8483 187.428 45.7608 186.123C45.6697 184.818 45.5872 183.637 45.5171 182.631C45.4613 181.735 45.4413 181.18 45.4838 181.176Z" fill="#263238"/>
<g opacity="0.3">
<path d="M46.0591 191.081C46.0591 191.081 49.209 183.499 45.2471 178.533C45.1078 178.358 44.8303 178.41 44.7709 178.624C44.4202 179.891 43.771 183.79 46.0591 191.081Z" fill="black"/>
</g>
<path d="M36.3019 209.35C36.3019 209.35 38.8266 201.537 34.4745 196.909C34.3215 196.746 34.0496 196.819 34.0076 197.039C33.7608 198.33 33.4301 202.269 36.3019 209.35Z" fill="#0B7AB2"/>
<path d="M34.9266 199.524C34.968 199.516 35.1088 200.054 35.2916 200.933C35.4749 201.812 35.6992 203.031 35.9076 204.385C36.117 205.739 36.2629 206.972 36.3356 207.868C36.4068 208.765 36.4052 209.322 36.3658 209.325C36.3207 209.328 36.246 208.778 36.12 207.892C35.9716 206.895 35.797 205.725 35.6045 204.431C35.4079 203.138 35.2297 201.967 35.0781 200.97C34.9496 200.083 34.8851 199.531 34.9266 199.524Z" fill="#263238"/>
<g opacity="0.3">
<path d="M36.3019 209.35C36.3019 209.35 38.8266 201.537 34.4745 196.909C34.3215 196.746 34.0496 196.819 34.0076 197.039C33.7608 198.33 33.4301 202.269 36.3019 209.35Z" fill="black"/>
</g>
<path d="M50.0703 181.814C50.0703 181.814 56.7959 177.106 56.117 170.789C56.093 170.567 55.8313 170.461 55.666 170.61C54.6901 171.492 52.0507 174.434 50.0703 181.814Z" fill="#0B7AB2"/>
<g opacity="0.3">
<path d="M50.0703 181.814C50.0703 181.814 56.7959 177.106 56.117 170.789C56.093 170.567 55.8313 170.461 55.666 170.61C54.6901 171.492 52.0507 174.434 50.0703 181.814Z" fill="black"/>
</g>
<path d="M54.9005 173.147C54.9384 173.166 54.7259 173.68 54.3419 174.491C53.9579 175.303 53.4013 176.411 52.7506 177.617C52.1009 178.823 51.4737 179.895 50.9909 180.653C50.507 181.411 50.1696 181.855 50.1363 181.833C50.0984 181.809 50.3698 181.325 50.804 180.542C51.2868 179.658 51.8536 178.619 52.4803 177.471C53.1034 176.321 53.6676 175.279 54.1484 174.393C54.5815 173.608 54.8626 173.129 54.9005 173.147Z" fill="#263238"/>
<path d="M39.0156 201.604C39.0156 201.604 47.1272 200.34 49.3002 194.369C49.3765 194.16 49.188 193.95 48.9735 194.011C47.7094 194.372 44.044 195.85 39.0156 201.604Z" fill="#0B7AB2"/>
<g opacity="0.3">
<path d="M39.0156 201.604C39.0156 201.604 47.1272 200.34 49.3002 194.369C49.3765 194.16 49.188 193.95 48.9735 194.011C47.7094 194.372 44.044 195.85 39.0156 201.604Z" fill="black"/>
</g>
<path d="M47.1701 195.95C47.1957 195.984 46.7785 196.351 46.0765 196.911C45.3746 197.47 44.3869 198.22 43.2718 199.016C42.1572 199.812 41.1219 200.498 40.3544 200.967C39.5859 201.434 39.0877 201.684 39.0672 201.65C39.0442 201.611 39.5009 201.297 40.2356 200.785C41.0589 200.203 42.0251 199.52 43.0931 198.766C44.1591 198.008 45.1242 197.321 45.946 196.737C46.6807 196.223 47.144 195.916 47.1701 195.95Z" fill="#263238"/>
<path d="M31.2761 216.533L28.9102 232.459H43.6558L41.7439 216.533H31.2761Z" fill="#455A64"/>
<path d="M42.3336 221.468C42.3336 221.553 39.6712 221.622 36.3878 221.622C33.1033 221.622 30.4414 221.553 30.4414 221.468C30.4414 221.383 33.1033 221.314 36.3878 221.314C39.6712 221.315 42.3336 221.384 42.3336 221.468Z" fill="#263238"/>
<path d="M42.6261 222.736C42.6261 222.821 39.8762 222.889 36.4852 222.889C33.0927 222.889 30.3438 222.821 30.3438 222.736C30.3438 222.651 33.0927 222.582 36.4852 222.582C39.8762 222.583 42.6261 222.651 42.6261 222.736Z" fill="#263238"/>
<path d="M200.089 232.994H152.455C150.825 232.994 149.504 231.673 149.504 230.043V139.654C149.504 138.024 150.825 136.703 152.455 136.703H200.089C201.718 136.703 203.039 138.024 203.039 139.654V230.043C203.039 231.672 201.718 232.994 200.089 232.994Z" fill="#2E353A"/>
<path d="M201.25 139.929V229.596C201.25 230.333 200.657 230.906 199.92 230.906H152.517C151.839 230.906 151.328 230.382 151.328 229.704V139.821C151.328 139.234 151.759 138.721 152.346 138.721H164.197C164.532 138.721 164.835 138.939 164.96 139.254L165.451 140.462C165.576 140.774 165.879 140.99 166.214 140.99H186.39C186.725 140.99 187.028 140.783 187.153 140.471L187.644 139.257C187.768 138.942 188.072 138.721 188.407 138.721H200.087C200.734 138.721 201.25 139.282 201.25 139.929Z" fill="#0B7AB2"/>
<path opacity="0.2" d="M201.25 144.537H151.328V155.741H201.25V144.537Z" fill="white"/>
<path opacity="0.6" d="M156.961 142.334H157.578V141.512H156.961V142.334Z" fill="white"/>
<path opacity="0.6" d="M155.954 142.334H156.57V141.238H155.954V142.334Z" fill="white"/>
<path opacity="0.6" d="M154.95 142.334H155.566V140.963H154.95V142.334Z" fill="white"/>
<path opacity="0.6" d="M153.946 142.334H154.562V140.689H153.946V142.334Z" fill="white"/>
<path opacity="0.6" d="M195.729 141.213H195.363V142.035H195.729V141.213Z" fill="white"/>
<path opacity="0.6" d="M195.979 142.334H198.891V140.912H195.979V142.334Z" fill="white"/>
<path opacity="0.6" d="M175.158 139.523C175.536 139.523 175.843 139.216 175.843 138.838C175.843 138.459 175.536 138.152 175.158 138.152C174.779 138.152 174.473 138.459 174.473 138.838C174.473 139.216 174.779 139.523 175.158 139.523Z" fill="white"/>
<path opacity="0.6" d="M177.23 138.838C177.23 139.08 177.033 139.277 176.791 139.277C176.548 139.277 176.352 139.08 176.352 138.838C176.352 138.595 176.548 138.398 176.791 138.398C177.033 138.399 177.23 138.595 177.23 138.838Z" fill="white"/>
<path opacity="0.2" d="M201.25 213.889V229.597C201.25 230.335 200.657 230.908 199.92 230.908H152.517C151.839 230.908 151.328 230.383 151.328 229.705V213.889H201.25Z" fill="white"/>
<path d="M156.812 183.882L176.272 167.529L195.731 183.882L180.474 204.347L166.771 204.073L156.812 183.882Z" fill="#0B7AB2"/>
<path opacity="0.3" d="M156.812 183.882L176.272 167.529L195.731 183.882L180.474 204.347L166.771 204.073L156.812 183.882Z" fill="black"/>
<path d="M189.475 202.612H163.073C162.72 202.612 162.434 202.326 162.434 201.972V162.78C162.434 162.427 162.72 162.141 163.073 162.141H189.475C189.829 162.141 190.115 162.427 190.115 162.78V201.972C190.115 202.326 189.829 202.612 189.475 202.612Z" fill="white"/>
<path opacity="0.2" d="M186.962 165.795H165.585C165.471 165.795 165.379 165.887 165.379 166.001V166.412C165.379 166.525 165.471 166.617 165.585 166.617H186.962C187.076 166.617 187.168 166.525 187.168 166.412V166.001C187.168 165.887 187.076 165.795 186.962 165.795Z" fill="black"/>
<path opacity="0.2" d="M186.962 168.537H165.585C165.471 168.537 165.379 168.629 165.379 168.743V169.154C165.379 169.267 165.471 169.359 165.585 169.359H186.962C187.076 169.359 187.168 169.268 187.168 169.154V168.743C187.168 168.629 187.076 168.537 186.962 168.537Z" fill="black"/>
<path opacity="0.2" d="M186.962 171.279H165.585C165.471 171.279 165.379 171.371 165.379 171.485V171.896C165.379 172.009 165.471 172.102 165.585 172.102H186.962C187.076 172.102 187.168 172.01 187.168 171.896V171.485C187.168 171.371 187.076 171.279 186.962 171.279Z" fill="black"/>
<path opacity="0.2" d="M186.962 174.021H165.585C165.471 174.021 165.379 174.113 165.379 174.227V174.638C165.379 174.752 165.471 174.844 165.585 174.844H186.962C187.076 174.844 187.168 174.752 187.168 174.638V174.227C187.168 174.113 187.076 174.021 186.962 174.021Z" fill="black"/>
<path opacity="0.2" d="M186.962 176.766H165.585C165.471 176.766 165.379 176.858 165.379 176.971V177.382C165.379 177.496 165.471 177.588 165.585 177.588H186.962C187.076 177.588 187.168 177.496 187.168 177.382V176.971C187.168 176.858 187.076 176.766 186.962 176.766Z" fill="black"/>
<path opacity="0.2" d="M186.962 179.508H165.585C165.471 179.508 165.379 179.6 165.379 179.713V180.124C165.379 180.238 165.471 180.33 165.585 180.33H186.962C187.076 180.33 187.168 180.238 187.168 180.124V179.713C187.168 179.6 187.076 179.508 186.962 179.508Z" fill="black"/>
<path opacity="0.2" d="M186.962 182.25H165.585C165.471 182.25 165.379 182.342 165.379 182.456V182.867C165.379 182.98 165.471 183.072 165.585 183.072H186.962C187.076 183.072 187.168 182.98 187.168 182.867V182.456C187.168 182.342 187.076 182.25 186.962 182.25Z" fill="black"/>
<path opacity="0.2" d="M186.962 184.992H165.585C165.471 184.992 165.379 185.084 165.379 185.198V185.609C165.379 185.722 165.471 185.814 165.585 185.814H186.962C187.076 185.814 187.168 185.723 187.168 185.609V185.198C187.168 185.084 187.076 184.992 186.962 184.992Z" fill="black"/>
<path opacity="0.2" d="M186.962 187.734H165.585C165.471 187.734 165.379 187.826 165.379 187.94V188.351C165.379 188.464 165.471 188.557 165.585 188.557H186.962C187.076 188.557 187.168 188.465 187.168 188.351V187.94C187.168 187.827 187.076 187.734 186.962 187.734Z" fill="black"/>
<path d="M177.314 198.144L177.207 198.085C176.814 197.866 176.336 197.868 175.945 198.09L175.42 198.388L156.719 183.883V207.818C156.719 208.525 157.296 209.067 158 209.067H194.545C195.249 209.067 195.579 208.524 195.579 207.818V183.883L177.314 198.144Z" fill="#0B7AB2"/>
<path opacity="0.6" d="M177.314 198.144L177.207 198.085C176.814 197.866 176.336 197.868 175.945 198.09L175.42 198.388L156.719 183.883V207.818C156.719 208.525 157.296 209.067 158 209.067H194.545C195.249 209.067 195.579 208.524 195.579 207.818V183.883L177.314 198.144Z" fill="white"/>
<path opacity="0.2" d="M174.573 197.732L175.418 198.388L162.203 205.89L174.573 197.732Z" fill="black"/>
<path opacity="0.2" d="M191.748 206.175L177.293 198.159L177.96 197.637L191.748 206.175Z" fill="black"/>
<path d="M184.659 147.798H168.869C168.739 147.798 168.633 147.692 168.633 147.562V146.521C168.633 146.391 168.739 146.285 168.869 146.285H184.659C184.789 146.285 184.895 146.391 184.895 146.521V147.562C184.895 147.692 184.789 147.798 184.659 147.798Z" fill="#0B7AB2"/>
<path d="M197.753 154.229H190.473C189.951 154.229 189.527 153.805 189.527 153.283C189.527 152.761 189.951 152.338 190.473 152.338H197.753C198.275 152.338 198.699 152.761 198.699 153.283C198.699 153.805 198.275 154.229 197.753 154.229Z" fill="#0B7AB2"/>
<path d="M162.202 216.252H154.922V223.154H162.202V216.252Z" fill="#0B7AB2"/>
<path d="M171.062 216.252H163.781V223.154H171.062V216.252Z" fill="#0B7AB2"/>
<path d="M179.917 216.252H172.637V223.154H179.917V216.252Z" fill="#0B7AB2"/>
<path d="M188.773 216.252H181.492V223.154H188.773V216.252Z" fill="#0B7AB2"/>
<path d="M197.632 216.252H190.352V223.154H197.632V216.252Z" fill="#0B7AB2"/>
<path d="M197.753 228.022H190.473C189.951 228.022 189.527 227.598 189.527 227.076C189.527 226.554 189.951 226.131 190.473 226.131H197.753C198.275 226.131 198.699 226.554 198.699 227.076C198.699 227.598 198.275 228.022 197.753 228.022Z" fill="#0B7AB2"/>
<path opacity="0.1" d="M196.254 136.736L149.625 203.087V173.693L175.573 136.736H196.254Z" fill="white"/>
<path opacity="0.1" d="M169.157 136.736L149.625 164.63V139.655C149.625 138.024 150.822 136.736 152.453 136.736H169.157Z" fill="white"/>
</svg>
