<svg width="30" height="30" viewBox="0 0 30 30" fill="none" xmlns="http://www.w3.org/2000/svg">
<rect width="30" height="30" rx="15" fill="#CDF3C5"/>
<path d="M22.1741 14.053L21.1541 12.868C20.9591 12.643 20.8016 12.223 20.8016 11.923V10.648C20.8016 9.85297 20.1491 9.20047 19.3541 9.20047H18.0791C17.7866 9.20047 17.3591 9.04297 17.1341 8.84797L15.9491 7.82797C15.4316 7.38547 14.5841 7.38547 14.0591 7.82797L12.8816 8.85547C12.6566 9.04297 12.2291 9.20047 11.9366 9.20047H10.6391C9.84406 9.20047 9.19156 9.85297 9.19156 10.648V11.9305C9.19156 12.223 9.03406 12.643 8.84656 12.868L7.83406 14.0605C7.39906 14.578 7.39906 15.418 7.83406 15.9355L8.84656 17.128C9.03406 17.353 9.19156 17.773 9.19156 18.0655V19.348C9.19156 20.143 9.84406 20.7955 10.6391 20.7955H11.9366C12.2291 20.7955 12.6566 20.953 12.8816 21.148L14.0666 22.168C14.5841 22.6105 15.4316 22.6105 15.9566 22.168L17.1416 21.148C17.3666 20.953 17.7866 20.7955 18.0866 20.7955H19.3616C20.1566 20.7955 20.8091 20.143 20.8091 19.348V18.073C20.8091 17.7805 20.9666 17.353 21.1616 17.128L22.1816 15.943C22.6166 15.4255 22.6166 14.5705 22.1741 14.053ZM18.1241 13.5805L14.5016 17.203C14.3966 17.308 14.2541 17.368 14.1041 17.368C13.9541 17.368 13.8116 17.308 13.7066 17.203L11.8916 15.388C11.6741 15.1705 11.6741 14.8105 11.8916 14.593C12.1091 14.3755 12.4691 14.3755 12.6866 14.593L14.1041 16.0105L17.3291 12.7855C17.5466 12.568 17.9066 12.568 18.1241 12.7855C18.3416 13.003 18.3416 13.363 18.1241 13.5805Z" fill="#38A03C"/>
</svg>
