<svg width="15" height="16" viewBox="0 0 15 16" fill="none" xmlns="http://www.w3.org/2000/svg">
<path d="M14.2224 9.06284C14.3411 9.35519 14.2004 9.68845 13.9081 9.80723L12.3204 10.4529L13.7898 11.3359C14.0639 11.4924 14.1592 11.8415 14.0027 12.1155C13.8462 12.3895 13.4972 12.4848 13.2231 12.3283C13.2157 12.3242 13.2085 12.3197 13.2013 12.3152L11.7319 11.4324L11.9072 13.1381C11.9344 13.4525 11.7015 13.7294 11.3871 13.7566C11.0798 13.7831 10.8069 13.561 10.7704 13.2547L10.5076 10.6967L7.69952 9.00984V12.2857L9.75668 13.8285C10.0092 14.0179 10.0603 14.3761 9.87098 14.6285C9.68163 14.881 9.32345 14.9322 9.07097 14.7428L7.69957 13.7143V15.4286C7.69957 15.7442 7.44373 16 7.12812 16C6.81251 16 6.55667 15.7442 6.55667 15.4286V13.7143L5.18526 14.7428C4.93278 14.9322 4.57461 14.881 4.38526 14.6285C4.19591 14.3761 4.24708 14.0179 4.49956 13.8285L6.55671 12.2857V9.00984L3.74877 10.6971L3.48591 13.2551C3.45601 13.5463 3.21084 13.7679 2.91808 13.7682C2.89843 13.7683 2.87879 13.7673 2.85923 13.7652C2.54549 13.7331 2.3171 13.4529 2.34912 13.1391C2.34916 13.1389 2.34916 13.1387 2.3492 13.1385L2.52451 11.4328L1.05513 12.3156C0.788324 12.4842 0.435379 12.4046 0.26684 12.1378C0.0982589 11.8709 0.177918 11.518 0.444724 11.3495C0.451909 11.3449 0.459178 11.3405 0.46657 11.3363L1.93604 10.4534L0.348285 9.80765C0.0578475 9.68417 -0.0775074 9.34867 0.0459277 9.05823C0.166622 8.77431 0.490867 8.63746 0.778481 8.74902L3.16054 9.71769L6.01882 7.99998L3.1603 6.28244L0.778232 7.25139C0.484014 7.36553 0.152957 7.21958 0.0388256 6.92532C-0.0727727 6.63771 0.064119 6.31342 0.348036 6.19277L1.93579 5.54706L0.46628 4.66378C0.192206 4.50729 0.0969298 4.15825 0.253425 3.88422C0.40992 3.61014 0.75896 3.51487 1.03299 3.67136C1.04039 3.67556 1.04765 3.67996 1.05484 3.68449L2.52422 4.56735L2.34891 2.8616C2.31673 2.54765 2.54511 2.26702 2.85906 2.23483C3.173 2.20264 3.45364 2.43103 3.48583 2.74498L3.74869 5.30297L6.55667 6.99011V3.71427L4.49952 2.17141C4.24696 1.98215 4.19562 1.62401 4.38489 1.37145C4.57415 1.11889 4.93229 1.06756 5.18485 1.25682C5.18497 1.2569 5.1851 1.25703 5.18526 1.25711L6.55667 2.28567V0.571448C6.55667 0.255841 6.81251 0 7.12812 0C7.44373 0 7.69957 0.255841 7.69957 0.571448V2.28575L9.07097 1.25719C9.32345 1.06785 9.68163 1.11901 9.87098 1.37149C10.0603 1.62397 10.0092 1.98215 9.75668 2.17149L7.69952 3.71427V6.99015L10.5075 5.30285L10.7703 2.74485C10.8076 2.43145 11.0918 2.20763 11.4052 2.24484C11.7115 2.28122 11.9336 2.55418 11.9071 2.86148L11.7318 4.56718L13.2011 3.68432C13.468 3.51578 13.8209 3.5954 13.9894 3.8622C14.158 4.12901 14.0784 4.48196 13.8116 4.65049C13.8044 4.65502 13.7971 4.65942 13.7897 4.66362L12.3202 5.5466L13.908 6.19231C14.1984 6.31579 14.3338 6.65129 14.2103 6.94173C14.0896 7.22564 13.7654 7.36249 13.4778 7.25094L11.0957 6.28227L8.23741 7.99998L11.0959 9.71752L13.478 8.74885C13.7699 8.62982 14.1029 8.76991 14.2219 9.06176C14.2221 9.06213 14.2222 9.06247 14.2224 9.06284Z" fill="#008CD2"/>
</svg>
