<svg width="29" height="29" viewBox="0 0 29 29" fill="none" xmlns="http://www.w3.org/2000/svg">
<rect x="0.664062" y="0.146484" width="28" height="28" rx="4" fill="url(#paint0_linear_12641_12571)"/>
<g clip-path="url(#clip0_12641_12571)">
<path d="M23.0593 17.2742C21.8348 17.2742 20.6325 17.0827 19.4932 16.7062C18.9349 16.5158 18.2486 16.6904 17.9079 17.0404L15.6591 18.738C13.0511 17.3459 11.4446 15.7399 10.0715 13.1515L11.7192 10.9613C12.1472 10.5338 12.3008 9.90935 12.1168 9.32341C11.7387 8.1781 11.5466 6.97638 11.5466 5.75138C11.5467 4.86643 10.8267 4.14648 9.94182 4.14648H6.26891C5.38401 4.14648 4.66406 4.86643 4.66406 5.75133C4.66406 15.8946 12.916 24.1465 23.0593 24.1465C23.9442 24.1465 24.6641 23.4265 24.6641 22.5416V18.879C24.6641 17.9941 23.9441 17.2742 23.0593 17.2742Z" fill="white"/>
<path d="M15.2266 4.14648C14.8811 4.14648 14.6016 4.42603 14.6016 4.77148C14.6016 5.11694 14.8811 5.39648 15.2266 5.39648C19.7066 5.39648 23.3516 9.04148 23.3516 13.5215C23.3516 13.8669 23.6311 14.1465 23.9766 14.1465C24.322 14.1465 24.6016 13.8669 24.6016 13.5215C24.6016 8.35182 20.3962 4.14648 15.2266 4.14648ZM15.2266 6.64648C14.8811 6.64648 14.6016 6.92603 14.6016 7.27148C14.6016 7.61694 14.8811 7.89648 15.2266 7.89648C18.3284 7.89648 20.8516 10.4197 20.8516 13.5215C20.8516 13.8669 21.1311 14.1465 21.4766 14.1465C21.822 14.1465 22.1016 13.8669 22.1016 13.5215C22.1016 9.73061 19.0174 6.64648 15.2266 6.64648ZM15.2266 9.14648C14.8811 9.14648 14.6016 9.42603 14.6016 9.77148C14.6016 10.1169 14.8811 10.3965 15.2266 10.3965C16.9496 10.3965 18.3516 11.7984 18.3516 13.5215C18.3516 13.8669 18.6311 14.1465 18.9766 14.1465C19.322 14.1465 19.6016 13.8669 19.6016 13.5215C19.6016 11.1094 17.6387 9.14648 15.2266 9.14648ZM15.2266 11.6465C14.8811 11.6465 14.6016 11.926 14.6016 12.2715C14.6016 12.6169 14.8811 12.8965 15.2266 12.8965C15.5714 12.8965 15.8516 13.1767 15.8516 13.5215C15.8516 13.8669 16.1311 14.1465 16.4766 14.1465C16.822 14.1465 17.1016 13.8669 17.1016 13.5215C17.1016 12.4876 16.2605 11.6465 15.2266 11.6465Z" fill="white"/>
</g>
<defs>
<linearGradient id="paint0_linear_12641_12571" x1="0.664062" y1="0.146484" x2="56.9097" y2="58.6026" gradientUnits="userSpaceOnUse">
<stop stop-color="#8F82F5"/>
<stop offset="1" stop-color="#AFA5FC"/>
</linearGradient>
<clipPath id="clip0_12641_12571">
<rect width="20" height="20" fill="white" transform="translate(4.66406 4.14648)"/>
</clipPath>
</defs>
</svg>
