<svg width="15" height="14" viewBox="0 0 15 14" fill="none" xmlns="http://www.w3.org/2000/svg">
<g clip-path="url(#clip0_8037_11457)">
<path fill-rule="evenodd" clip-rule="evenodd" d="M2.16667 1C1.24619 1 0.5 1.74619 0.5 2.66667V9.33333C0.5 10.2538 1.24619 11 2.16667 11H6.294L5.62732 12.3333H4.16667C3.98257 12.3333 3.83333 12.4826 3.83333 12.6667C3.83333 12.8507 3.98257 13 4.16667 13H5.82612C5.83076 13.0001 5.8354 13.0001 5.84003 13H9.16C9.1646 13.0001 9.1692 13.0001 9.17387 13H10.8333C11.0174 13 11.1667 12.8507 11.1667 12.6667C11.1667 12.4826 11.0174 12.3333 10.8333 12.3333H9.37267L8.706 11H12.8333C13.7538 11 14.5 10.2538 14.5 9.33333V2.66667C14.5 1.74619 13.7538 1 12.8333 1H2.16667ZM8.62733 12.3333L7.96067 11H7.03933L6.37267 12.3333H8.62733ZM8.1594 10.3333C8.16407 10.3333 8.16873 10.3333 8.1734 10.3333H12.8333C13.3856 10.3333 13.8333 9.8856 13.8333 9.33333V2.66667C13.8333 2.11438 13.3856 1.66667 12.8333 1.66667H2.16667C1.61438 1.66667 1.16667 2.11438 1.16667 2.66667V9.33333C1.16667 9.8856 1.61438 10.3333 2.16667 10.3333H6.8266C6.83127 10.3333 6.83593 10.3333 6.84053 10.3333H8.1594Z" fill="#0B7AB2"/>
</g>
<defs>
<clipPath id="clip0_8037_11457">
<rect width="14" height="14" fill="white" transform="translate(0.5)"/>
</clipPath>
</defs>
</svg>
