<svg width="21" height="13" viewBox="0 0 21 13" fill="none" xmlns="http://www.w3.org/2000/svg">
<path d="M10.9844 0.648438C7.16316 0.648438 3.69789 2.73906 1.14086 6.13478C0.932212 6.41299 0.932212 6.80165 1.14086 7.07986C3.69789 10.4797 7.16316 12.5703 10.9844 12.5703C14.8056 12.5703 18.2709 10.4797 20.8279 7.08395C21.0365 6.80575 21.0365 6.41708 20.8279 6.13887C18.2709 2.73906 14.8056 0.648438 10.9844 0.648438ZM11.2585 10.807C8.72192 10.9665 6.62721 8.87591 6.78677 6.33525C6.91769 4.24054 8.61555 2.54268 10.7103 2.41176C13.2468 2.2522 15.3415 4.34282 15.182 6.88348C15.047 8.9741 13.3491 10.672 11.2585 10.807ZM11.1317 8.86773C9.76519 8.95364 8.63601 7.82855 8.72601 6.46208C8.79556 5.3329 9.712 4.42056 10.8412 4.34691C12.2077 4.261 13.3368 5.38609 13.2468 6.75256C13.1732 7.88583 12.2567 8.79818 11.1317 8.86773Z" fill="#0B7AB2"/>
</svg>
