<svg width="24" height="24" viewBox="0 0 24 24" fill="none" xmlns="http://www.w3.org/2000/svg">
<path d="M10.0824 6.10177C10.2422 5.96998 10.2648 5.73361 10.133 5.57386C10.0012 5.41411 9.76487 5.39145 9.6051 5.52324L2.1051 11.7107C2.01838 11.7823 1.96834 11.889 1.96875 12.0014C1.96918 12.1138 2.02002 12.2202 2.10728 12.2911L9.60728 18.3848C9.76802 18.5154 10.0042 18.491 10.1348 18.3302C10.2654 18.1695 10.241 17.9333 10.0802 17.8027L2.93571 11.9978L10.0824 6.10177Z" fill="white"/>
<path fill-rule="evenodd" clip-rule="evenodd" d="M13.2188 6.375C13.2188 6.2304 13.1356 6.0987 13.0051 6.03649C12.8746 5.97428 12.7199 5.99265 12.6076 6.08372L5.67008 11.7087C5.58184 11.7803 5.53078 11.888 5.53125 12.0015C5.53172 12.1151 5.58366 12.2224 5.67248 12.2932L12.61 17.8245C12.7226 17.9143 12.8767 17.9316 13.0065 17.8691C13.1363 17.8066 13.2188 17.6753 13.2188 17.5313V14.5269C14.3505 14.5448 16.081 14.839 17.7031 15.7705C19.4934 16.7987 21.1631 18.6081 21.7566 21.7264C21.7928 21.9165 21.9677 22.0477 22.1603 22.0296C22.3528 22.0114 22.5 21.8497 22.5 21.6562C22.5 16.7394 20.8815 13.5439 18.8466 11.578C16.9783 9.77329 14.7774 9.02364 13.2188 8.91917V6.375Z" fill="white"/>
</svg>
