<svg width="60" height="47" viewBox="0 0 60 47" fill="none" xmlns="http://www.w3.org/2000/svg">
<rect width="60" height="48" fill="#2196F3"/>
<g clip-path="url(#clip0_5931_17199)">
<path d="M37.6894 6H22.3106C19.9336 6 18 7.93364 18 10.3106V25.6894C18 28.0664 19.9336 30 22.3106 30H37.6894C40.0664 30 42 28.0664 42 25.6894V10.3106C42 7.93364 40.0664 6 37.6894 6ZM38.2823 24.7294H30.5906C29.9145 26.7305 27.0747 26.7336 26.3977 24.7294H21.7177C20.7838 24.7294 20.7836 23.3176 21.7177 23.3176H26.3977C27.0736 21.3165 29.9136 21.3135 30.5906 23.3176H38.2823C39.2162 23.3176 39.2165 24.7294 38.2823 24.7294ZM38.2823 18.7059H36.6141C35.9381 20.707 33.0982 20.71 32.4211 18.7059H21.7177C20.7838 18.7059 20.7836 17.2941 21.7177 17.2941H32.4212C33.0972 15.293 35.9371 15.29 36.6142 17.2941H38.2824C39.2162 17.2941 39.2165 18.7059 38.2823 18.7059ZM38.2823 12.6824H27.5788C26.9028 14.6835 24.0629 14.6865 23.3859 12.6824H21.7177C20.7838 12.6824 20.7836 11.2706 21.7177 11.2706H23.3859C24.0619 9.26948 26.9018 9.26644 27.5788 11.2706H38.2823C39.2162 11.2706 39.2165 12.6824 38.2823 12.6824Z" fill="white"/>
<path d="M28.4929 23.2227C27.4344 23.2227 27.4349 24.8226 28.4929 24.8226C29.5513 24.8227 29.5507 23.2227 28.4929 23.2227Z" fill="white"/>
<path d="M25.4812 11.1758C24.4227 11.1758 24.4232 12.7758 25.4812 12.7758C26.5396 12.7758 26.539 11.1758 25.4812 11.1758Z" fill="white"/>
<path d="M34.5163 17.1992C33.4578 17.1992 33.4584 18.7992 34.5163 18.7992C35.5748 18.7993 35.5742 17.1992 34.5163 17.1992Z" fill="white"/>
</g>
<path d="M17.808 33.66V34.776H14.268V37.236H17.028V38.352H14.268V42H12.9V33.66H17.808ZM19.7718 34.512C19.5238 34.512 19.3158 34.428 19.1478 34.26C18.9798 34.092 18.8958 33.884 18.8958 33.636C18.8958 33.388 18.9798 33.18 19.1478 33.012C19.3158 32.844 19.5238 32.76 19.7718 32.76C20.0118 32.76 20.2158 32.844 20.3838 33.012C20.5518 33.18 20.6358 33.388 20.6358 33.636C20.6358 33.884 20.5518 34.092 20.3838 34.26C20.2158 34.428 20.0118 34.512 19.7718 34.512ZM20.4438 35.388V42H19.0758V35.388H20.4438ZM23.6078 33.12V42H22.2398V33.12H23.6078ZM26.9999 36.504V40.164C26.9999 40.412 27.0559 40.592 27.1679 40.704C27.2879 40.808 27.4879 40.86 27.7679 40.86H28.6079V42H27.5279C26.9119 42 26.4399 41.856 26.1119 41.568C25.7839 41.28 25.6199 40.812 25.6199 40.164V36.504H24.8399V35.388H25.6199V33.744H26.9999V35.388H28.6079V36.504H26.9999ZM35.9288 38.532C35.9288 38.78 35.9128 39.004 35.8808 39.204H30.8288C30.8688 39.732 31.0648 40.156 31.4168 40.476C31.7688 40.796 32.2008 40.956 32.7128 40.956C33.4488 40.956 33.9688 40.648 34.2728 40.032H35.7487C35.5488 40.64 35.1848 41.14 34.6568 41.532C34.1368 41.916 33.4888 42.108 32.7128 42.108C32.0808 42.108 31.5128 41.968 31.0088 41.688C30.5128 41.4 30.1208 41 29.8328 40.488C29.5528 39.968 29.4128 39.368 29.4128 38.688C29.4128 38.008 29.5488 37.412 29.8208 36.9C30.1008 36.38 30.4888 35.98 30.9848 35.7C31.4888 35.42 32.0648 35.28 32.7128 35.28C33.3368 35.28 33.8928 35.416 34.3808 35.688C34.8688 35.96 35.2488 36.344 35.5208 36.84C35.7928 37.328 35.9288 37.892 35.9288 38.532ZM34.5008 38.1C34.4928 37.596 34.3128 37.192 33.9608 36.888C33.6088 36.584 33.1728 36.432 32.6528 36.432C32.1808 36.432 31.7768 36.584 31.4408 36.888C31.1048 37.184 30.9048 37.588 30.8408 38.1H34.5008ZM38.643 36.348C38.843 36.012 39.107 35.752 39.435 35.568C39.771 35.376 40.167 35.28 40.623 35.28V36.696H40.275C39.739 36.696 39.331 36.832 39.051 37.104C38.779 37.376 38.643 37.848 38.643 38.52V42H37.275V35.388H38.643V36.348ZM44.2805 42.108C43.7605 42.108 43.2925 42.016 42.8765 41.832C42.4685 41.64 42.1445 41.384 41.9045 41.064C41.6645 40.736 41.5365 40.372 41.5205 39.972H42.9365C42.9605 40.252 43.0925 40.488 43.3325 40.68C43.5805 40.864 43.8885 40.956 44.2565 40.956C44.6405 40.956 44.9365 40.884 45.1445 40.74C45.3605 40.588 45.4685 40.396 45.4685 40.164C45.4685 39.916 45.3485 39.732 45.1085 39.612C44.8765 39.492 44.5045 39.36 43.9925 39.216C43.4965 39.08 43.0925 38.948 42.7805 38.82C42.4685 38.692 42.1965 38.496 41.9645 38.232C41.7405 37.968 41.6285 37.62 41.6285 37.188C41.6285 36.836 41.7325 36.516 41.9405 36.228C42.1485 35.932 42.4445 35.7 42.8285 35.532C43.2205 35.364 43.6685 35.28 44.1725 35.28C44.9245 35.28 45.5285 35.472 45.9845 35.856C46.4485 36.232 46.6965 36.748 46.7285 37.404H45.3605C45.3365 37.108 45.2165 36.872 45.0005 36.696C44.7845 36.52 44.4925 36.432 44.1245 36.432C43.7645 36.432 43.4885 36.5 43.2965 36.636C43.1045 36.772 43.0085 36.952 43.0085 37.176C43.0085 37.352 43.0725 37.5 43.2005 37.62C43.3285 37.74 43.4845 37.836 43.6685 37.908C43.8525 37.972 44.1245 38.056 44.4845 38.16C44.9645 38.288 45.3565 38.42 45.6605 38.556C45.9725 38.684 46.2405 38.876 46.4645 39.132C46.6885 39.388 46.8045 39.728 46.8125 40.152C46.8125 40.528 46.7085 40.864 46.5005 41.16C46.2925 41.456 45.9965 41.688 45.6125 41.856C45.2365 42.024 44.7925 42.108 44.2805 42.108Z" fill="white"/>
<defs>
<clipPath id="clip0_5931_17199">
<rect width="24" height="24" fill="white" transform="translate(18 6)"/>
</clipPath>
</defs>
</svg>
