<svg width="20" height="20" viewBox="0 0 20 20" fill="none" xmlns="http://www.w3.org/2000/svg">
<path d="M13.6506 15.0004C13.6038 14.9845 13.5543 14.978 13.505 14.9813C13.4558 14.9846 13.4076 14.9976 13.3633 15.0195C13.3191 15.0415 13.2796 15.072 13.2472 15.1092C13.2147 15.1465 13.19 15.1898 13.1743 15.2366C13.1481 15.3191 13.1181 15.4016 13.0843 15.4804C13.0456 15.5719 13.0448 15.675 13.0821 15.7671C13.1193 15.8592 13.1916 15.9328 13.2831 15.9716C13.329 15.9923 13.379 16.0025 13.4293 16.0016C13.5029 16.0016 13.5749 15.9798 13.6362 15.9392C13.6976 15.8985 13.7456 15.8407 13.7743 15.7729C13.8156 15.6716 13.8531 15.5741 13.8868 15.4766C13.9027 15.4299 13.9092 15.3804 13.9059 15.3311C13.9026 15.2818 13.8896 15.2337 13.8677 15.1894C13.8457 15.1452 13.8152 15.1057 13.778 15.0732C13.7407 15.0408 13.6974 15.016 13.6506 15.0004Z" fill="#0B7AB2"/>
<path d="M14.6249 9.00048C14.6264 8.35117 14.4973 7.70818 14.2455 7.10972C13.9936 6.51126 13.624 5.96953 13.1586 5.51673C13.1231 5.48226 13.0812 5.45511 13.0353 5.43683C12.9893 5.41855 12.9402 5.4095 12.8908 5.41019C12.8414 5.41089 12.7925 5.42132 12.7471 5.44088C12.7017 5.46045 12.6606 5.48877 12.6261 5.52423C12.5916 5.55968 12.5645 5.60158 12.5462 5.64753C12.5279 5.69348 12.5189 5.74258 12.5196 5.79203C12.5203 5.84148 12.5307 5.8903 12.5503 5.93572C12.5698 5.98114 12.5981 6.02226 12.6336 6.05673C13.0282 6.4384 13.3416 6.89593 13.5549 7.40181C13.7682 7.90769 13.8771 8.45147 13.8749 9.00048V11.333C13.8768 12.2966 13.7507 13.2563 13.4999 14.1867C13.4868 14.2345 13.4834 14.2844 13.4898 14.3335C13.4961 14.3826 13.5121 14.4299 13.5369 14.4728C13.5616 14.5157 13.5946 14.5533 13.634 14.5833C13.6733 14.6134 13.7182 14.6354 13.7661 14.648H13.8636C13.9483 14.6509 14.0314 14.625 14.0995 14.5746C14.1676 14.5242 14.2166 14.4523 14.2386 14.3705C14.4966 13.375 14.6227 12.35 14.6136 11.3217L14.6249 9.00048Z" fill="#0B7AB2"/>
<path d="M4.28733 13.7241C4.33668 13.7244 4.38561 13.7149 4.4313 13.6963C4.47698 13.6776 4.51854 13.6501 4.55358 13.6153L4.77108 13.3941C5.04236 13.1235 5.25753 12.802 5.40426 12.4481C5.55098 12.0942 5.62636 11.7147 5.62608 11.3316V8.99909C5.62555 8.30167 5.80184 7.61551 6.13849 7.00473C6.47515 6.39395 6.96116 5.8785 7.55111 5.50655C8.14106 5.1346 8.81568 4.9183 9.51192 4.87786C10.2082 4.83743 10.9033 4.97418 11.5323 5.27534C11.5771 5.3008 11.6266 5.31677 11.6778 5.32225C11.729 5.32773 11.7808 5.32261 11.83 5.30719C11.8791 5.29178 11.9246 5.26641 11.9635 5.23266C12.0024 5.19891 12.0339 5.15752 12.0561 5.11104C12.0783 5.06457 12.0907 5.01403 12.0925 4.96256C12.0943 4.91109 12.0855 4.8598 12.0666 4.81188C12.0477 4.76397 12.0192 4.72046 11.9828 4.68406C11.9463 4.64766 11.9028 4.61916 11.8548 4.60034C11.1116 4.24481 10.2905 4.08343 9.46798 4.13127C8.64551 4.17912 7.84858 4.43462 7.15162 4.87392C6.45465 5.31322 5.88039 5.92199 5.48246 6.64338C5.08452 7.36476 4.8759 8.17523 4.87608 8.99909V11.3316C4.8767 11.6167 4.82066 11.8991 4.71123 12.1624C4.60179 12.4257 4.44113 12.6647 4.23858 12.8653L4.02108 13.0828C3.98593 13.1177 3.95803 13.1592 3.939 13.2049C3.91996 13.2506 3.91016 13.2996 3.91016 13.3491C3.91016 13.3986 3.91996 13.4476 3.939 13.4933C3.95803 13.539 3.98593 13.5805 4.02108 13.6153C4.05612 13.6501 4.09768 13.6776 4.14337 13.6963C4.18905 13.7149 4.23798 13.7244 4.28733 13.7241Z" fill="#0B7AB2"/>
<path d="M13.1257 10.125C13.1257 10.0255 13.0862 9.93016 13.0158 9.85983C12.9455 9.78951 12.8501 9.75 12.7507 9.75C12.6512 9.75 12.5558 9.78951 12.4855 9.85983C12.4152 9.93016 12.3757 10.0255 12.3757 10.125V11.3325C12.3798 13.1629 11.8592 14.9562 10.8757 16.5C10.8221 16.5836 10.8039 16.685 10.825 16.782C10.8461 16.879 10.9047 16.9637 10.9882 17.0175C11.0485 17.0565 11.1188 17.0773 11.1907 17.0775C11.2534 17.0774 11.3151 17.0615 11.3702 17.0314C11.4252 17.0013 11.4718 16.9578 11.5057 16.905C12.5678 15.2408 13.13 13.3067 13.1257 11.3325V10.125Z" fill="#0B7AB2"/>
<path d="M6.74884 10.4998C6.84829 10.4998 6.94368 10.4603 7.014 10.3899C7.08433 10.3196 7.12384 10.2242 7.12384 10.1248V8.99977C7.08057 8.30358 7.31564 7.61872 7.77734 7.09584C8.23903 6.57297 8.88952 6.25491 9.58571 6.21165C10.2819 6.16839 10.9668 6.40346 11.4896 6.86515C12.0125 7.32684 12.3306 7.97733 12.3738 8.67352C12.3868 8.77298 12.4387 8.86323 12.5181 8.92441C12.5976 8.98559 12.6981 9.0127 12.7976 8.99977C12.897 8.98685 12.9873 8.93494 13.0485 8.85547C13.1097 8.776 13.1368 8.67548 13.1238 8.57603C13.0676 7.68092 12.6582 6.8448 11.9855 6.2516C11.3128 5.6584 10.4321 5.35671 9.53696 5.4129C8.64186 5.46909 7.80574 5.87856 7.21253 6.55123C6.61933 7.2239 6.31764 8.10467 6.37384 8.99977V10.1248C6.37384 10.2242 6.41335 10.3196 6.48367 10.3899C6.554 10.4603 6.64938 10.4998 6.74884 10.4998Z" fill="#0B7AB2"/>
<path d="M6.74819 11.249C6.69892 11.2455 6.64943 11.2517 6.60256 11.2673C6.55569 11.2829 6.51237 11.3076 6.47509 11.34C6.4378 11.3724 6.40729 11.4119 6.3853 11.4561C6.36331 11.5003 6.35027 11.5485 6.34694 11.5978C6.2836 12.4769 5.90549 13.3036 5.28194 13.9265L4.82819 14.399C4.78919 14.4329 4.75762 14.4745 4.73546 14.5212C4.7133 14.5679 4.70102 14.6186 4.6994 14.6703C4.69778 14.7219 4.70686 14.7734 4.72605 14.8213C4.74524 14.8693 4.77414 14.9128 4.81094 14.9491C4.84774 14.9854 4.89163 15.0136 4.93988 15.0321C4.98812 15.0507 5.03967 15.059 5.09129 15.0566C5.14291 15.0543 5.19348 15.0413 5.23984 15.0185C5.2862 14.9957 5.32735 14.9635 5.36069 14.924L5.82944 14.4553C6.58448 13.7066 7.04388 12.7106 7.12319 11.6503C7.1268 11.5989 7.11977 11.5473 7.10255 11.4987C7.08533 11.4501 7.05828 11.4056 7.02309 11.368C6.9879 11.3303 6.94533 11.3003 6.89803 11.2799C6.85073 11.2594 6.79973 11.2489 6.74819 11.249Z" fill="#0B7AB2"/>
<path d="M11.1428 12.7498C11.0946 12.7399 11.0448 12.7397 10.9965 12.749C10.9481 12.7584 10.9021 12.7772 10.861 12.8044C10.8199 12.8315 10.7846 12.8665 10.757 12.9073C10.7294 12.9482 10.7102 12.994 10.7003 13.0423C10.4222 14.3641 9.81753 15.5953 8.94158 16.6235C8.87694 16.6991 8.84496 16.7973 8.8527 16.8964C8.86044 16.9956 8.90725 17.0876 8.98283 17.1523C9.05842 17.2169 9.15659 17.2489 9.25575 17.2412C9.35491 17.2334 9.44694 17.1866 9.51158 17.111C10.4688 15.9865 11.13 14.6408 11.4353 13.196C11.4457 13.1475 11.4464 13.0974 11.4373 13.0486C11.4282 12.9998 11.4095 12.9533 11.3823 12.9118C11.3551 12.8703 11.3199 12.8346 11.2788 12.8068C11.2377 12.779 11.1915 12.7596 11.1428 12.7498Z" fill="#0B7AB2"/>
<path d="M8.62655 9C8.62655 8.70163 8.74508 8.41548 8.95605 8.2045C9.16703 7.99353 9.45318 7.875 9.75155 7.875C10.0499 7.875 10.3361 7.99353 10.547 8.2045C10.758 8.41548 10.8765 8.70163 10.8765 9V11.3325V11.595C10.8686 11.6945 10.9005 11.793 10.9652 11.869C11.0299 11.9449 11.1221 11.992 11.2215 12C11.321 12.008 11.4195 11.9761 11.4955 11.9114C11.5715 11.8467 11.6186 11.7545 11.6265 11.655C11.6265 11.5463 11.6265 11.4413 11.6265 11.3325V9C11.6265 8.50272 11.429 8.02581 11.0774 7.67417C10.7257 7.32254 10.2488 7.125 9.75155 7.125C9.25427 7.125 8.77736 7.32254 8.42572 7.67417C8.07409 8.02581 7.87655 8.50272 7.87655 9V11.3325C7.8828 12.0128 7.75337 12.6876 7.49581 13.3173C7.23826 13.947 6.85776 14.519 6.37655 15C6.3414 15.0349 6.3135 15.0763 6.29447 15.122C6.27543 15.1677 6.26562 15.2167 6.26562 15.2662C6.26562 15.3158 6.27543 15.3648 6.29447 15.4105C6.3135 15.4562 6.3414 15.4976 6.37655 15.5325C6.41141 15.5676 6.45289 15.5955 6.49858 15.6146C6.54428 15.6336 6.59329 15.6434 6.6428 15.6434C6.6923 15.6434 6.74132 15.6336 6.78702 15.6146C6.83271 15.5955 6.87419 15.5676 6.90905 15.5325C7.45909 14.981 7.89414 14.3257 8.18897 13.6047C8.4838 12.8838 8.63253 12.1114 8.62655 11.3325V9Z" fill="#0B7AB2"/>
<path d="M7.74202 15.7022C7.64077 15.8222 7.53202 15.9347 7.41952 16.0472C7.38437 16.0821 7.35647 16.1235 7.33743 16.1692C7.3184 16.2149 7.30859 16.264 7.30859 16.3135C7.30859 16.363 7.3184 16.412 7.33743 16.4577C7.35647 16.5034 7.38437 16.5448 7.41952 16.5797C7.45438 16.6149 7.49585 16.6428 7.54155 16.6618C7.58725 16.6808 7.63626 16.6906 7.68577 16.6906C7.73527 16.6906 7.78429 16.6808 7.82998 16.6618C7.87568 16.6428 7.91716 16.6149 7.95202 16.5797C8.07952 16.4522 8.19577 16.3247 8.32702 16.2047C8.39166 16.1291 8.42364 16.0309 8.4159 15.9318C8.40817 15.8326 8.36135 15.7406 8.28577 15.676C8.21018 15.6113 8.11201 15.5793 8.01285 15.5871C7.91369 15.5948 7.82166 15.6416 7.75702 15.7172L7.74202 15.7022Z" fill="#0B7AB2"/>
<path d="M8.99908 15.2587C9.73559 14.0817 10.1255 12.721 10.1241 11.3325V9C10.1241 8.90054 10.0846 8.80516 10.0142 8.73483C9.94392 8.66451 9.84853 8.625 9.74908 8.625C9.64962 8.625 9.55424 8.66451 9.48391 8.73483C9.41358 8.80516 9.37408 8.90054 9.37408 9V11.3325C9.37586 12.5807 9.02487 13.8039 8.36158 14.8612C8.30886 14.9458 8.29189 15.0478 8.3144 15.1449C8.3369 15.2419 8.39704 15.326 8.48158 15.3787C8.56611 15.4315 8.66813 15.4484 8.76518 15.4259C8.86223 15.4034 8.94636 15.3433 8.99908 15.2587Z" fill="#0B7AB2"/>
<path d="M4.72031 5.69915C4.75983 5.72928 4.80493 5.75126 4.85301 5.76381C4.90109 5.77636 4.95118 5.77922 5.00038 5.77225C5.04957 5.76527 5.09689 5.74858 5.13958 5.72316C5.18228 5.69773 5.21949 5.66408 5.24906 5.62415C5.95742 4.67968 6.94498 3.98202 8.07187 3.63001C9.19876 3.278 10.4078 3.28947 11.5278 3.6628C12.6479 4.03614 13.622 4.75241 14.3123 5.71015C15.0026 6.6679 15.3741 7.81856 15.3741 8.99915V10.8741C15.3741 10.9736 15.4136 11.069 15.4839 11.1393C15.5542 11.2096 15.6496 11.2491 15.7491 11.2491C15.8485 11.2491 15.9439 11.2096 16.0142 11.1393C16.0846 11.069 16.1241 10.9736 16.1241 10.8741V8.99915C16.1251 7.66019 15.7045 6.35488 14.922 5.26839C14.1395 4.1819 13.0347 3.36938 11.7644 2.94609C10.4941 2.52279 9.12281 2.51022 7.84496 2.91014C6.56712 3.31007 5.44764 4.10219 4.64531 5.17415C4.58564 5.25371 4.56002 5.35372 4.57408 5.45218C4.58815 5.55064 4.64075 5.63948 4.72031 5.69915Z" fill="#0B7AB2"/>
<path d="M4.12501 8.99941C4.1253 8.25563 4.27183 7.51916 4.55626 6.83191C4.58342 6.74273 4.57639 6.64662 4.53653 6.56234C4.49667 6.47806 4.42685 6.41165 4.34069 6.37606C4.25452 6.34047 4.15818 6.33825 4.07047 6.36984C3.98275 6.40143 3.90995 6.46455 3.86626 6.54691C3.54082 7.32354 3.37381 8.15736 3.37501 8.99941V10.8744C3.37501 10.9739 3.41452 11.0693 3.48484 11.1396C3.55517 11.2099 3.65055 11.2494 3.75001 11.2494C3.84946 11.2494 3.94485 11.2099 4.01517 11.1396C4.0855 11.0693 4.12501 10.9739 4.12501 10.8744V8.99941Z" fill="#0B7AB2"/>
<path d="M0.375 4.875C0.474456 4.875 0.569839 4.83549 0.640165 4.76517C0.710491 4.69484 0.75 4.59946 0.75 4.5V0.75H4.5C4.59946 0.75 4.69484 0.710491 4.76517 0.640165C4.83549 0.569839 4.875 0.474456 4.875 0.375C4.875 0.275544 4.83549 0.180161 4.76517 0.109835C4.69484 0.0395089 4.59946 0 4.5 0H0.375C0.275544 0 0.180161 0.0395089 0.109835 0.109835C0.0395089 0.180161 0 0.275544 0 0.375V4.5C0 4.59946 0.0395089 4.69484 0.109835 4.76517C0.180161 4.83549 0.275544 4.875 0.375 4.875Z" fill="#0B7AB2"/>
<path d="M19.125 0H15C14.9005 0 14.8052 0.0395089 14.7348 0.109835C14.6645 0.180161 14.625 0.275544 14.625 0.375C14.625 0.474456 14.6645 0.569839 14.7348 0.640165C14.8052 0.710491 14.9005 0.75 15 0.75H18.75V4.5C18.75 4.59946 18.7895 4.69484 18.8598 4.76517C18.9302 4.83549 19.0255 4.875 19.125 4.875C19.2245 4.875 19.3198 4.83549 19.3902 4.76517C19.4605 4.69484 19.5 4.59946 19.5 4.5V0.375C19.5 0.275544 19.4605 0.180161 19.3902 0.109835C19.3198 0.0395089 19.2245 0 19.125 0Z" fill="#0B7AB2"/>
<path d="M19.125 14.625C19.0255 14.625 18.9302 14.6645 18.8598 14.7348C18.7895 14.8052 18.75 14.9005 18.75 15V18.75H15C14.9005 18.75 14.8052 18.7895 14.7348 18.8598C14.6645 18.9302 14.625 19.0255 14.625 19.125C14.625 19.2245 14.6645 19.3198 14.7348 19.3902C14.8052 19.4605 14.9005 19.5 15 19.5H19.125C19.2245 19.5 19.3198 19.4605 19.3902 19.3902C19.4605 19.3198 19.5 19.2245 19.5 19.125V15C19.5 14.9005 19.4605 14.8052 19.3902 14.7348C19.3198 14.6645 19.2245 14.625 19.125 14.625Z" fill="#0B7AB2"/>
<path d="M4.5 18.75H0.75V15C0.75 14.9005 0.710491 14.8052 0.640165 14.7348C0.569839 14.6645 0.474456 14.625 0.375 14.625C0.275544 14.625 0.180161 14.6645 0.109835 14.7348C0.0395089 14.8052 0 14.9005 0 15V19.125C0 19.2245 0.0395089 19.3198 0.109835 19.3902C0.180161 19.4605 0.275544 19.5 0.375 19.5H4.5C4.59946 19.5 4.69484 19.4605 4.76517 19.3902C4.83549 19.3198 4.875 19.2245 4.875 19.125C4.875 19.0255 4.83549 18.9302 4.76517 18.8598C4.69484 18.7895 4.59946 18.75 4.5 18.75Z" fill="#0B7AB2"/>
</svg>
