<svg width="120" height="120" viewBox="0 0 120 120" fill="none" xmlns="http://www.w3.org/2000/svg">
<path d="M2.73939 73.1177C2.00405 73.1177 1.34612 72.6005 1.19518 71.8521C-0.168421 65.0874 -0.366354 58.2254 0.607279 51.4571C1.54811 44.9153 3.55932 38.6026 6.58453 32.6945C6.98151 31.9194 7.93174 31.6125 8.70688 32.0097C9.48203 32.4067 9.78869 33.3569 9.39172 34.1321C6.52556 39.7296 4.62013 45.7096 3.72887 51.9061C2.80666 58.317 2.99446 64.8181 4.28674 71.2288C4.45887 72.0825 3.90617 72.9142 3.05251 73.0863C2.94746 73.1073 2.8426 73.1177 2.73939 73.1177Z" fill="url(#paint0_linear_13814_3998)"/>
<path d="M12.8218 27.1353C12.4993 27.1353 12.174 27.0367 11.8937 26.8321C11.19 26.3189 11.036 25.3323 11.5492 24.6288C20.4026 12.4953 33.394 4.17675 48.1304 1.20585C61.2054 -1.43037 74.4292 0.27458 86.3729 6.13696C87.1545 6.52067 87.4771 7.46558 87.0934 8.24738C86.7097 9.02917 85.7652 9.35188 84.9831 8.96817C73.6697 3.41504 61.1417 1.80003 48.7537 4.29765C34.7924 7.11228 22.4844 14.9929 14.0969 26.4877C13.7882 26.9108 13.3083 27.1353 12.8218 27.1353Z" fill="url(#paint1_linear_13814_3998)"/>
<path d="M117.22 50.0337C116.485 50.0337 115.827 49.5168 115.676 48.768C112.784 34.4234 104.598 21.8956 92.6242 13.4929C91.9115 12.9925 91.7392 12.0091 92.2392 11.2964C92.7399 10.5832 93.7233 10.411 94.436 10.9114C107.075 19.781 115.716 33.0041 118.767 48.145C118.939 48.9987 118.387 49.8305 117.533 50.0024C117.428 50.0236 117.323 50.0337 117.22 50.0337Z" fill="url(#paint2_linear_13814_3998)"/>
<path d="M118.414 62.7492C118.403 62.7492 118.393 62.7492 118.383 62.7489C117.512 62.7323 116.82 62.013 116.836 61.1421C116.915 57.0048 116.538 52.8389 115.715 48.7604C115.543 47.9067 116.095 47.0749 116.949 46.9026C117.804 46.7301 118.634 47.2828 118.806 48.1365C119.675 52.4395 120.073 56.8354 119.99 61.202C119.973 62.0627 119.271 62.7492 118.414 62.7492Z" fill="url(#paint3_linear_13814_3998)"/>
<path d="M3.33078 75.6023C2.62198 75.6023 1.97786 75.1211 1.80075 74.4021C1.58808 73.5377 1.39493 72.678 1.22686 71.8466C1.05436 70.9929 1.60669 70.161 2.46016 69.9887C3.31493 69.8158 4.14573 70.3683 4.31823 71.222C4.47746 72.0103 4.66065 72.8265 4.86301 73.6479C5.07126 74.4937 4.55468 75.3481 3.70895 75.5562C3.58252 75.5873 3.45554 75.6023 3.33078 75.6023Z" fill="url(#paint4_linear_13814_3998)"/>
<path d="M44.9083 117.997C44.5386 117.997 44.1676 117.867 43.8681 117.604C43.2139 117.03 43.1495 116.033 43.7244 115.379C50.1128 108.108 54.8497 99.349 57.4232 90.05C60.1215 80.3006 60.4678 70.2927 58.4529 60.3052C58.2806 59.4515 58.8331 58.6198 59.6867 58.4476C60.5408 58.2748 61.3723 58.828 61.5443 59.6815C63.6583 70.1593 63.2943 80.6598 60.4626 90.8913C57.7629 100.646 52.7941 109.834 46.0933 117.46C45.7818 117.815 45.3462 117.997 44.9083 117.997Z" fill="url(#paint5_linear_13814_3998)"/>
<path d="M37.3581 115.414C36.9611 115.414 36.5638 115.265 36.2571 114.966C35.6337 114.358 35.6211 113.36 36.2295 112.736C41.6089 107.221 45.7561 100.787 48.5555 93.6132C48.8722 92.8021 49.787 92.4015 50.5977 92.7174C51.409 93.0342 51.8102 93.9485 51.4934 94.7598C48.5395 102.33 44.1634 109.119 38.4869 114.938C38.178 115.255 37.7682 115.414 37.3581 115.414Z" fill="url(#paint6_linear_13814_3998)"/>
<path d="M53.084 119.573C52.7444 119.573 52.4023 119.464 52.1141 119.239C51.4278 118.702 51.3063 117.711 51.8424 117.025C64.7232 100.541 69.7418 79.343 65.611 58.8655L65.5048 58.3393C65.1206 57.0524 64.3065 55.9501 63.174 55.1976C61.8923 54.3459 60.3558 54.0448 58.8483 54.3491C55.9946 54.9241 54.0577 57.5284 54.2359 60.3563L54.3911 61.1261C56.0317 69.2677 55.9887 77.481 54.263 85.5379C54.0803 86.3893 53.242 86.9313 52.3907 86.7494C51.5391 86.5672 50.9967 85.7288 51.179 84.8773C52.7062 77.7472 52.8419 70.4856 51.585 63.2699L51.5525 63.2758L51.247 61.7586C50.2759 56.9394 53.406 52.2283 58.2244 51.2572C60.5576 50.7858 62.9354 51.2523 64.9191 52.5706C66.9027 53.8885 68.2547 55.8997 68.7258 58.2339L69.0035 59.6095L68.9674 59.6213C72.7867 80.5726 67.4871 102.127 54.3273 118.967C54.0166 119.365 53.5525 119.573 53.084 119.573Z" fill="url(#paint7_linear_13814_3998)"/>
<path d="M30.4678 111.952C30.0465 111.952 29.6265 111.784 29.316 111.452C28.7211 110.816 28.7542 109.818 29.3902 109.223C41.1166 98.2526 46.8355 82.2359 44.688 66.3786C44.5712 65.5155 45.1761 64.721 46.0391 64.6043C46.9027 64.4873 47.6965 65.0924 47.8135 65.9554C50.0977 82.8232 44.0157 99.8591 31.5448 111.526C31.2407 111.811 30.8539 111.952 30.4678 111.952Z" fill="url(#paint8_linear_13814_3998)"/>
<path d="M75.9138 74.4181C75.045 74.4181 74.3396 73.7148 74.3372 72.8453C74.3237 67.7054 73.7963 62.5153 72.7699 57.4193L72.647 56.8092C71.8564 53.6487 69.9436 50.9347 67.2119 49.1195C64.3078 47.1895 60.8261 46.5067 57.4083 47.1962C52.2781 48.2308 48.2724 52.2091 47.203 57.3315C47.0249 58.1841 46.1895 58.7315 45.337 58.5529C44.4844 58.375 43.9376 57.5394 44.1156 56.687C45.4431 50.3278 50.4162 45.3887 56.7845 44.1045C61.0281 43.2481 65.3515 44.0963 68.9574 46.4927C72.5633 48.889 75.0202 52.5464 75.8751 56.7908L76.1296 58.0545L76.1066 58.0643C77.0126 62.9538 77.4779 67.917 77.4908 72.8368C77.4932 73.7076 76.789 74.4155 75.9182 74.4179C75.9169 74.4181 75.9155 74.4181 75.9138 74.4181Z" fill="url(#paint9_linear_13814_3998)"/>
<path d="M61.849 119.943C61.5423 119.943 61.2323 119.853 60.9601 119.667C60.2412 119.175 60.0573 118.194 60.5492 117.475C67.7942 106.884 72.3872 94.5895 73.8317 81.9198C73.9303 81.0547 74.713 80.4329 75.5772 80.5318C76.4423 80.6303 77.0639 81.4119 76.9651 82.2771C75.4629 95.4557 70.6865 108.243 63.152 119.256C62.8464 119.702 62.3519 119.943 61.849 119.943Z" fill="url(#paint10_linear_13814_3998)"/>
<path d="M24.234 107.74C23.7922 107.74 23.353 107.555 23.0412 107.195C22.471 106.537 22.5425 105.541 23.2008 104.971C28.7664 100.15 33.0011 93.9307 35.4471 86.9844C37.7963 80.313 38.4188 73.1371 37.2677 66.1363L37.255 66.1385L36.9522 64.6378C35.7108 58.4831 36.9402 52.2138 40.4148 46.9848C43.8887 41.7561 49.1916 38.1932 55.3462 36.9523C57.4866 36.5205 59.6672 36.3867 61.8281 36.5544C62.6965 36.6221 63.3454 37.3806 63.2779 38.2489C63.2103 39.1171 62.4534 39.7658 61.5837 39.6987C59.7134 39.553 57.825 39.6694 55.9697 40.0438C50.6408 41.1182 46.0496 44.203 43.0417 48.7302C40.2747 52.8946 39.1523 57.8213 39.8267 62.7316L40.0839 64.0071C41.7033 72.0372 41.1285 80.3449 38.4218 88.0316C35.7941 95.4939 31.2448 102.176 25.2655 107.354C24.9673 107.613 24.5998 107.74 24.234 107.74Z" fill="url(#paint11_linear_13814_3998)"/>
<path d="M71.157 118.886C70.8859 118.886 70.6113 118.817 70.3609 118.669C69.6095 118.229 69.3579 117.262 69.7984 116.511C80.5143 98.2452 84.1086 76.7468 79.9199 55.9768L79.7821 55.2936C78.4645 49.7453 74.887 45.0051 69.8834 42.2143C69.1226 41.79 68.85 40.8295 69.2743 40.0689C69.6983 39.3084 70.6587 39.0355 71.4195 39.4597C77.4321 42.8134 81.6613 48.6049 83.0227 55.3489L83.2931 56.6884L83.2717 56.696C87.1965 77.8095 83.3972 99.564 72.5188 118.107C72.2252 118.608 71.6983 118.886 71.157 118.886Z" fill="url(#paint12_linear_13814_3998)"/>
<path d="M18.6833 102.858C18.227 102.858 17.7744 102.661 17.4625 102.281C16.9106 101.607 17.0095 100.613 17.6831 100.062C22.353 96.2363 25.9779 91.2378 28.1659 85.6059C28.4812 84.7941 29.3949 84.3916 30.2068 84.7071C31.0186 85.0226 31.4209 85.9364 31.1056 86.7481C28.7212 92.885 24.7708 98.3324 19.6815 102.501C19.3886 102.742 19.0348 102.858 18.6833 102.858Z" fill="url(#paint13_linear_13814_3998)"/>
<path d="M89.2649 89.9671C89.18 89.9671 89.0935 89.9602 89.0071 89.9459C88.1477 89.8045 87.5657 88.9932 87.7071 88.134C89.5395 77.0007 89.3283 65.6961 87.0794 54.5346L86.9939 54.1099C85.4594 47.0513 81.3131 40.9771 75.283 36.9706C69.1334 32.8849 61.7605 31.4385 54.5236 32.8986C47.2841 34.3578 41.0469 38.5484 36.9609 44.6987C33.1388 50.4512 31.6267 57.2744 32.6421 64.0562L32.9234 65.4534C33.6971 69.2971 33.8799 73.1984 33.4661 77.0488C33.3732 77.9146 32.5953 78.541 31.7299 78.4482C30.8639 78.3553 30.2375 77.5777 30.3305 76.7119C30.6542 73.698 30.5793 70.6488 30.1083 67.6257L29.7975 66.0848C28.1706 58.0202 29.7819 49.8053 34.3342 42.9534C38.8866 36.1015 45.8353 31.4326 53.9005 29.8069C61.9632 28.1807 70.1771 29.7918 77.0286 34.3438C83.8804 38.8962 88.5486 45.8443 90.1741 53.9083L90.322 54.6435L90.3171 54.6496C92.5043 65.9469 92.6737 77.3801 90.8195 88.6462C90.6919 89.4188 90.0231 89.9671 89.2649 89.9671Z" fill="url(#paint14_linear_13814_3998)"/>
<path d="M80.9355 116.086C80.7037 116.086 80.4683 116.035 80.2459 115.926C79.4628 115.545 79.1375 114.601 79.5192 113.818C82.1342 108.451 84.2394 102.817 85.7768 97.0716C86.002 96.2305 86.866 95.7321 87.7078 95.9558C88.5491 96.1811 89.0484 97.0456 88.8236 97.8871C87.234 103.827 85.0575 109.652 82.354 115.199C82.0811 115.76 81.5197 116.086 80.9355 116.086Z" fill="url(#paint15_linear_13814_3998)"/>
<path d="M91.089 111.007C90.9017 111.007 90.7114 110.973 90.526 110.903C89.7125 110.592 89.3054 109.68 89.6165 108.866C96.3645 91.2254 97.9857 72.0858 94.3121 53.4888L94.2303 53.0898C93.225 48.1058 91.2093 43.5109 88.2398 39.4332C87.7273 38.7292 87.8821 37.7428 88.5861 37.2301C89.2903 36.7172 90.2764 36.8726 90.7891 37.5764C93.8982 41.8455 96.048 46.6331 97.1847 51.8148L97.1912 51.8191L97.3243 52.4678C101.219 71.7756 99.5719 91.6676 92.5622 109.993C92.3219 110.621 91.7237 111.007 91.089 111.007Z" fill="url(#paint16_linear_13814_3998)"/>
<path d="M83.136 33.3358C82.7845 33.336 82.4312 33.219 82.138 32.979C73.9873 26.3046 63.3959 23.6692 53.0781 25.7486C50.4228 26.2834 47.839 27.122 45.3985 28.2407C44.6068 28.6034 43.6709 28.256 43.3079 27.4643C42.945 26.6727 43.2926 25.7366 44.0843 25.3736C46.7455 24.1537 49.5619 23.2396 52.4552 22.6568C63.7027 20.389 75.2503 23.2624 84.136 30.5389C84.8097 31.0907 84.9087 32.0843 84.3567 32.7581C84.0453 33.1388 83.5923 33.3358 83.136 33.3358Z" fill="url(#paint17_linear_13814_3998)"/>
<path d="M13.8436 97.3821C13.3822 97.3821 12.9249 97.1805 12.6133 96.7929C12.0678 96.1139 12.1761 95.1213 12.8549 94.576C20.6325 88.3275 24.4097 78.5308 22.8912 68.7606L22.6426 67.5276C19.8334 53.5957 24.9474 39.3707 35.9888 30.4036C36.6649 29.8546 37.6581 29.9576 38.2069 30.6336C38.7562 31.3098 38.6531 32.3028 37.977 32.8519C28.2144 40.7801 23.5035 53.1884 25.4832 65.5178L25.7617 66.8981C28.0478 78.233 23.8592 89.7807 14.8302 97.0345C14.5392 97.2684 14.1903 97.3821 13.8436 97.3821Z" fill="url(#paint18_linear_13814_3998)"/>
<path d="M9.71838 91.324C9.2711 91.324 8.82658 91.1346 8.51457 90.7665C7.95155 90.1023 8.03356 89.1073 8.69813 88.5441C14.124 83.946 16.7485 76.8764 15.6792 69.902L15.4903 68.9672C15.0156 66.6169 14.7242 64.2042 14.624 61.7967C14.5878 60.9266 15.2638 60.1918 16.1339 60.1555C17.004 60.1218 17.7387 60.7954 17.775 61.6655C17.849 63.4412 18.0345 65.2193 18.3279 66.9692L18.6038 68.3384C20.2973 76.7382 17.2828 85.4025 10.737 90.9505C10.4408 91.2011 10.0785 91.324 9.71838 91.324Z" fill="url(#paint19_linear_13814_3998)"/>
<path d="M103.925 58.5834C103.157 58.5834 102.484 58.0211 102.367 57.2384C102.126 55.6166 101.848 53.9934 101.539 52.4029L101.381 51.646C99.1515 40.5875 92.7498 31.0596 83.3544 24.8174C73.9595 18.5751 62.6952 16.3656 51.6362 18.5952C43.1297 20.3103 35.4746 24.5179 29.4979 30.7629C23.655 36.8683 19.8054 44.4781 18.3653 52.7695C18.2164 53.6276 17.4009 54.2028 16.5417 54.0532C15.6836 53.9042 15.1088 53.0878 15.2579 52.2297C16.8056 43.3188 20.9418 35.1416 27.2192 28.5821C33.6436 21.8691 41.8713 17.3464 51.0127 15.5032C62.8974 13.1074 75.003 15.482 85.0997 22.1904C94.873 28.6838 101.632 38.4852 104.228 49.8849L104.243 49.8863L104.48 51.0231C104.86 52.9064 105.199 54.8412 105.487 56.774C105.615 57.6354 105.02 58.4376 104.159 58.5659C104.08 58.5777 104.002 58.5834 103.925 58.5834Z" fill="url(#paint20_linear_13814_3998)"/>
<path d="M101.438 102.709C101.303 102.709 101.166 102.691 101.03 102.655C100.189 102.43 99.6887 101.566 99.913 100.725C102.909 89.4922 104.057 77.9114 103.325 66.3035C103.27 65.4343 103.93 64.6851 104.799 64.6304C105.669 64.5731 106.417 65.2356 106.472 66.1048C107.226 78.0537 106.044 89.9749 102.96 101.537C102.772 102.243 102.135 102.709 101.438 102.709Z" fill="url(#paint21_linear_13814_3998)"/>
<path d="M6.27976 84.5301C5.89605 84.5301 5.51161 84.3909 5.20789 84.1095C4.56931 83.5174 4.53153 82.5198 5.12367 81.881C7.85456 78.9357 9.08179 74.8844 8.46108 70.9458L8.34589 70.4069C5.56432 56.613 8.32083 42.562 16.1079 30.8418C23.8945 19.122 35.7794 11.136 49.573 8.3549C55.3663 7.18644 61.2444 6.992 67.0435 7.77657C67.9065 7.89323 68.5117 8.68756 68.3949 9.55063C68.2781 10.4135 67.4826 11.0191 66.6207 10.9017C61.1705 10.1645 55.6448 10.3475 50.1963 11.4465C37.2285 14.0612 26.0552 21.569 18.7348 32.5871C11.5797 43.3559 8.94246 56.2191 11.2681 68.9028L11.4555 69.7801C12.4828 74.8778 10.9804 80.2031 7.4364 84.0255C7.12586 84.3605 6.70345 84.5301 6.27976 84.5301Z" fill="url(#paint22_linear_13814_3998)"/>
<path d="M111.531 89.0249C111.466 89.0249 111.4 89.0211 111.334 89.0128C110.47 88.9052 109.857 88.1173 109.964 87.2531C111.456 75.276 111.045 63.1591 108.746 51.2211L108.532 50.2098C104.989 32.6262 92.1642 18.2967 75.0648 12.8133C74.2352 12.5471 73.7786 11.6594 74.0445 10.83C74.3106 10.0007 75.1991 9.54452 76.0277 9.80991C93.7341 15.488 107.131 30.086 111.305 48.1125L111.326 48.1092L111.638 49.5843C114.18 62.1838 114.67 74.9885 113.094 87.6429C112.995 88.4407 112.315 89.0249 111.531 89.0249Z" fill="url(#paint23_linear_13814_3998)"/>
<defs>
<linearGradient id="paint0_linear_13814_3998" x1="4.78269" y1="31.6447" x2="4.78269" y2="81.0342" gradientUnits="userSpaceOnUse">
<stop stop-color="#00A9FF"/>
<stop offset="1" stop-color="#0B7AB2"/>
</linearGradient>
<linearGradient id="paint1_linear_13814_3998" x1="49.2506" y1="-0.125699" x2="49.2506" y2="32.339" gradientUnits="userSpaceOnUse">
<stop stop-color="#00A9FF"/>
<stop offset="1" stop-color="#0B7AB2"/>
</linearGradient>
<linearGradient id="paint2_linear_13814_3998" x1="105.376" y1="10.4424" x2="105.376" y2="57.5911" gradientUnits="userSpaceOnUse">
<stop stop-color="#00A9FF"/>
<stop offset="1" stop-color="#0B7AB2"/>
</linearGradient>
<linearGradient id="paint3_linear_13814_3998" x1="117.842" y1="46.7975" x2="117.842" y2="65.7942" gradientUnits="userSpaceOnUse">
<stop stop-color="#00A9FF"/>
<stop offset="1" stop-color="#0B7AB2"/>
</linearGradient>
<linearGradient id="paint4_linear_13814_3998" x1="3.05222" y1="69.9309" x2="3.05222" y2="76.6848" gradientUnits="userSpaceOnUse">
<stop stop-color="#00A9FF"/>
<stop offset="1" stop-color="#0B7AB2"/>
</linearGradient>
<linearGradient id="paint5_linear_13814_3998" x1="53.1149" y1="58.14" x2="53.1149" y2="129.422" gradientUnits="userSpaceOnUse">
<stop stop-color="#00A9FF"/>
<stop offset="1" stop-color="#0B7AB2"/>
</linearGradient>
<linearGradient id="paint6_linear_13814_3998" x1="43.6915" y1="92.5037" x2="43.6915" y2="119.787" gradientUnits="userSpaceOnUse">
<stop stop-color="#00A9FF"/>
<stop offset="1" stop-color="#0B7AB2"/>
</linearGradient>
<linearGradient id="paint7_linear_13814_3998" x1="60.6246" y1="50.7608" x2="60.6246" y2="132.708" gradientUnits="userSpaceOnUse">
<stop stop-color="#00A9FF"/>
<stop offset="1" stop-color="#0B7AB2"/>
</linearGradient>
<linearGradient id="paint8_linear_13814_3998" x1="38.5885" y1="64.3704" x2="38.5885" y2="121.034" gradientUnits="userSpaceOnUse">
<stop stop-color="#00A9FF"/>
<stop offset="1" stop-color="#0B7AB2"/>
</linearGradient>
<linearGradient id="paint9_linear_13814_3998" x1="60.7864" y1="43.6374" x2="60.7864" y2="80.2937" gradientUnits="userSpaceOnUse">
<stop stop-color="#00A9FF"/>
<stop offset="1" stop-color="#0B7AB2"/>
</linearGradient>
<linearGradient id="paint10_linear_13814_3998" x1="68.6244" y1="80.3389" x2="68.6244" y2="127.502" gradientUnits="userSpaceOnUse">
<stop stop-color="#00A9FF"/>
<stop offset="1" stop-color="#0B7AB2"/>
</linearGradient>
<linearGradient id="paint11_linear_13814_3998" x1="42.9695" y1="36.1543" x2="42.9695" y2="121.404" gradientUnits="userSpaceOnUse">
<stop stop-color="#00A9FF"/>
<stop offset="1" stop-color="#0B7AB2"/>
</linearGradient>
<linearGradient id="paint12_linear_13814_3998" x1="76.9262" y1="38.8909" x2="76.9262" y2="134.156" gradientUnits="userSpaceOnUse">
<stop stop-color="#00A9FF"/>
<stop offset="1" stop-color="#0B7AB2"/>
</linearGradient>
<linearGradient id="paint13_linear_13814_3998" x1="24.1592" y1="84.515" x2="24.1592" y2="106.36" gradientUnits="userSpaceOnUse">
<stop stop-color="#00A9FF"/>
<stop offset="1" stop-color="#0B7AB2"/>
</linearGradient>
<linearGradient id="paint14_linear_13814_3998" x1="60.637" y1="28.9079" x2="60.637" y2="101.622" gradientUnits="userSpaceOnUse">
<stop stop-color="#00A9FF"/>
<stop offset="1" stop-color="#0B7AB2"/>
</linearGradient>
<linearGradient id="paint15_linear_13814_3998" x1="84.1184" y1="95.8088" x2="84.1184" y2="119.957" gradientUnits="userSpaceOnUse">
<stop stop-color="#00A9FF"/>
<stop offset="1" stop-color="#0B7AB2"/>
</linearGradient>
<linearGradient id="paint16_linear_13814_3998" x1="93.6612" y1="36.5846" x2="93.6612" y2="125.213" gradientUnits="userSpaceOnUse">
<stop stop-color="#00A9FF"/>
<stop offset="1" stop-color="#0B7AB2"/>
</linearGradient>
<linearGradient id="paint17_linear_13814_3998" x1="63.9389" y1="21.8455" x2="63.9389" y2="35.5292" gradientUnits="userSpaceOnUse">
<stop stop-color="#00A9FF"/>
<stop offset="1" stop-color="#0B7AB2"/>
</linearGradient>
<linearGradient id="paint18_linear_13814_3998" x1="25.4128" y1="29.7389" x2="25.4128" y2="110.294" gradientUnits="userSpaceOnUse">
<stop stop-color="#00A9FF"/>
<stop offset="1" stop-color="#0B7AB2"/>
</linearGradient>
<linearGradient id="paint19_linear_13814_3998" x1="13.6042" y1="60.0099" x2="13.6042" y2="97.3014" gradientUnits="userSpaceOnUse">
<stop stop-color="#00A9FF"/>
<stop offset="1" stop-color="#0B7AB2"/>
</linearGradient>
<linearGradient id="paint20_linear_13814_3998" x1="60.3692" y1="14.39" x2="60.3692" y2="67.0192" gradientUnits="userSpaceOnUse">
<stop stop-color="#00A9FF"/>
<stop offset="1" stop-color="#0B7AB2"/>
</linearGradient>
<linearGradient id="paint21_linear_13814_3998" x1="103.276" y1="64.4505" x2="103.276" y2="110.011" gradientUnits="userSpaceOnUse">
<stop stop-color="#00A9FF"/>
<stop offset="1" stop-color="#0B7AB2"/>
</linearGradient>
<linearGradient id="paint22_linear_13814_3998" x1="36.5563" y1="6.94695" x2="36.5563" y2="99.3395" gradientUnits="userSpaceOnUse">
<stop stop-color="#00A9FF"/>
<stop offset="1" stop-color="#0B7AB2"/>
</linearGradient>
<linearGradient id="paint23_linear_13814_3998" x1="93.9824" y1="9.36708" x2="93.9824" y2="104.23" gradientUnits="userSpaceOnUse">
<stop stop-color="#00A9FF"/>
<stop offset="1" stop-color="#0B7AB2"/>
</linearGradient>
</defs>
</svg>
