<svg width="67" height="67" viewBox="0 0 67 67" fill="none" xmlns="http://www.w3.org/2000/svg">
<rect x="0.5" y="0.0820312" width="66" height="66" rx="4" fill="#E8F7FF" fill-opacity="0.56"/>
<path d="M56.625 66.083H58.4973C62.2686 66.083 64.1542 66.083 65.3258 64.9115C66.4973 63.7399 66.4973 61.8543 66.4973 58.083V56.2109" stroke="#0478B2" stroke-miterlimit="10" stroke-linecap="round"/>
<path d="M66.4973 10.3264V8.5C66.4973 4.72876 66.4973 2.84315 65.3258 1.67157C64.1542 0.5 62.2686 0.5 58.4973 0.5H56.625" stroke="#0478B2" stroke-miterlimit="10" stroke-linecap="round"/>
<path d="M0.5 56.2109V58.083C0.5 61.8543 0.5 63.7399 1.67157 64.9115C2.84315 66.083 4.72876 66.083 8.5 66.083H10.3723" stroke="#0478B2" stroke-miterlimit="10" stroke-linecap="round"/>
<path d="M10.8606 0.5H8.98828C5.21704 0.5 3.33143 0.5 2.15985 1.67157C0.988281 2.84315 0.988281 4.72876 0.988281 8.5V10.3264" stroke="#0478B2" stroke-miterlimit="10" stroke-linecap="round"/>
<path d="M39.1182 40.6263C38.9651 41.2612 38.8121 41.8961 38.6533 42.5296C38.2558 44.115 37.5961 45.5527 36.321 46.6405C36.2918 46.6655 36.2583 46.6856 36.2293 46.7109C36.0976 46.8258 35.9574 46.8011 35.8682 46.68C35.7857 46.568 35.8181 46.4477 35.9335 46.3344C36.2403 46.0328 36.5483 45.729 36.8222 45.3984C37.2875 44.8364 37.6293 44.1959 37.8421 43.4998C38.0652 42.7702 38.2438 42.0269 38.4418 41.2897C38.4536 41.2453 38.4645 41.2005 38.4773 41.1567C38.7801 40.1249 39.0066 38.2875 38.9285 37.1478C38.8054 35.3509 38.1578 33.7889 36.7849 32.5786C35.7892 31.701 34.6141 31.2507 33.2928 31.1537C32.3993 31.0881 31.5656 31.3008 30.7504 31.6333C29.6802 32.07 28.73 32.6955 27.885 33.4779C27.1297 34.1773 26.5042 34.9803 26.0149 35.8904C25.6065 36.6499 25.3259 37.4542 25.1282 38.2894C25.0665 38.5505 25.0147 38.8174 24.9947 39.0844C24.9474 39.7177 24.8679 40.3553 24.8988 40.9864C24.9575 42.1853 25.1497 43.3629 25.6359 44.4809C26.1386 45.6365 26.8778 46.6024 27.8415 47.4048C27.9369 47.4843 28.0426 47.5652 27.9786 47.7135C27.8994 47.8971 27.745 47.9387 27.5812 47.8084C26.9912 47.3388 26.4722 46.8 26.0353 46.1846C25.3881 45.2732 24.9498 44.2683 24.7071 43.1783C24.6419 42.8855 24.5732 42.5925 24.5291 42.2828C24.4955 42.0473 24.496 41.9616 24.4681 41.67C24.3793 40.7397 24.3871 39.8102 24.5298 38.8906C24.9147 36.4105 26.0513 34.3479 28.0011 32.7431C28.8096 32.0776 29.691 31.5396 30.6568 31.1435C31.6496 30.7364 32.674 30.5752 33.7528 30.7205C34.7058 30.8488 35.5804 31.157 36.3866 31.6713C37.1789 32.1768 37.8204 32.8348 38.3196 33.6284C39.0671 34.8162 39.4164 36.1243 39.4139 37.5196C39.4133 37.8353 39.4057 38.1538 39.3894 38.4712C39.3827 38.6027 39.1182 40.6263 39.1182 40.6263Z" fill="#0478B2"/>
<path d="M37.436 41.9876C37.2796 42.5606 37.1137 43.1352 36.887 43.6821C36.431 44.7815 35.6856 45.647 34.6349 46.2289C33.4737 46.8718 32.2357 47.0208 30.9645 46.6826C29.8527 46.3868 28.9603 45.7326 28.2836 44.7958C27.8277 44.1646 27.5214 43.464 27.3131 42.7161C26.911 41.2734 26.8383 39.802 27.0198 38.3282C27.1974 36.8877 27.6428 35.5263 28.5003 34.3273C29.1499 33.4191 29.9751 32.7213 31.0183 32.3175C31.9927 31.9403 33.0076 31.8423 34.0322 32.0801C35.5722 32.4376 36.7067 33.3377 37.4483 34.7286C37.7075 35.2149 37.8656 35.7396 37.9824 36.2795C38.1948 37.2626 38.1259 38.249 38.0481 39.2368C38.0394 39.3464 38.0254 39.4689 37.9697 39.5579C37.9206 39.6364 37.8141 39.7154 37.7257 39.7246C37.5958 39.7379 37.5034 39.638 37.5155 39.498C37.5385 39.231 37.6 38.9657 37.6033 38.6993C37.6109 38.0509 37.6644 37.3922 37.5739 36.7556C37.3328 35.0576 36.5234 33.701 34.947 32.9132C34.1044 32.4919 33.1968 32.3556 32.25 32.4996C30.6184 32.748 29.4634 33.6671 28.6211 35.035C28.1541 35.7932 27.8564 36.618 27.6637 37.4867C27.5146 38.1595 27.4102 38.8358 27.42 39.5251C27.4274 40.0412 27.4206 40.5614 27.4823 41.0722C27.6188 42.2015 27.8757 43.3031 28.5166 44.2691C29.5599 45.8412 31.03 46.5673 32.9058 46.3177C34.1131 46.1572 35.0921 45.5288 35.8322 44.5518C36.3037 43.9295 36.6062 43.2261 36.803 42.4743C36.8553 42.2747 36.9118 42.0762 36.9646 41.8676C37.0707 41.4479 37.5073 41.7268 37.436 41.9876Z" fill="#0478B2"/>
<path d="M43.2972 36.8763C43.2972 36.8763 43.0571 36.2969 42.9582 35.9811C42.7087 35.1832 42.4523 34.3871 42.2249 33.5828C42.001 32.7906 41.8341 31.9819 41.5979 31.1937C41.1538 29.711 40.3593 28.4673 39.0202 27.6263C38.3637 27.2138 37.6535 26.9295 36.8812 26.8431C36.3555 26.7843 35.8223 26.7375 35.2953 26.7588C34.2848 26.7997 33.3666 27.1549 32.5325 27.7197C31.1294 28.6698 29.8509 29.7716 28.649 30.9617C27.9416 31.6622 27.2593 32.3882 26.5697 33.1067C26.4486 33.2329 26.3483 33.3789 26.2359 33.5138C26.1071 33.6682 25.9536 33.704 25.8472 33.5915C25.7288 33.4663 25.7561 33.3336 25.8596 33.2041C26.5656 32.3191 27.349 31.506 28.1763 30.7355C28.8769 30.0831 29.5776 29.429 30.3051 28.8073C31.0787 28.1465 31.8751 27.5097 32.7652 27.0058C33.6315 26.5153 34.5697 26.2842 35.5621 26.2569C36.5177 26.2305 37.4442 26.3789 38.3321 26.7337C39.1994 27.0801 39.9467 27.6044 40.5692 28.3031C41.35 29.1795 41.8378 30.2043 42.1293 31.3348C42.3934 32.3592 42.659 33.384 42.9603 34.3978C43.2018 35.2104 43.4726 36.0166 43.7748 36.8085C44.4917 38.6872 45.4308 40.4421 46.829 41.9115C47.2891 42.3949 47.7851 42.85 48.3064 43.2695C48.5452 43.4617 49.0679 43.835 49.5311 44.136C49.7605 44.2852 49.9916 44.4317 50.2245 44.5754C50.3901 44.6776 50.4465 44.8165 50.3671 44.9485C50.2878 45.0803 50.1432 45.0972 49.9723 44.9904C49.1237 44.4596 48.565 44.0586 48.362 43.9012L47.6199 43.3362C46.4879 42.4006 45.5716 41.2815 44.8005 40.0364C44.2595 39.163 43.8319 38.2346 43.4405 37.288C43.3911 37.1687 43.355 37.0439 43.2972 36.8763Z" fill="#0478B2"/>
<path d="M19.9245 33.254C20.1954 32.346 20.4327 31.4258 20.752 30.5349C21.307 28.9857 22.0514 27.5303 23.0339 26.1993C24.0426 24.8326 25.1841 23.5874 26.4125 22.4196C27.5239 21.3629 28.6891 20.3685 29.9355 19.4732C30.9552 18.7407 32.0585 18.1652 33.2518 17.7726C35.0044 17.1962 36.7923 17.0904 38.6128 17.3735C39.5438 17.5183 40.4447 17.765 41.3113 18.1228C42.6881 18.6913 43.9186 19.4979 45.0022 20.5195C45.3673 20.8636 45.6991 21.2434 46.0421 21.6107C46.2427 21.8254 45.9647 22.1915 45.7174 21.9708C45.6459 21.9069 45.5905 21.8254 45.5263 21.7526C44.4616 20.5452 43.2139 19.5737 41.7689 18.8628C40.9388 18.4543 40.0664 18.1687 39.1614 17.9642C38.3744 17.7863 37.579 17.7099 36.7804 17.7043C35.9885 17.6989 35.2011 17.7783 34.4197 17.9543C32.6629 18.3499 31.1151 19.1602 29.7011 20.2473C27.8738 21.652 26.1805 23.2022 24.6626 24.9401C23.8723 25.8448 23.1287 26.7883 22.5399 27.8349C22.1249 28.5727 21.7616 29.3447 21.4401 30.1281C21.1282 30.8879 20.8894 31.6786 20.6375 32.4618C20.5394 32.767 20.4806 33.0843 20.3951 33.394C20.2799 33.8105 19.8083 33.6434 19.9245 33.254Z" fill="#0478B2"/>
<path d="M16.4891 39.9125C16.4694 39.9121 16.454 39.8954 16.4551 39.8757C16.5061 38.9515 16.5254 38.0241 16.6193 37.1042C16.7363 35.9576 16.8914 34.8137 17.1631 33.6896C17.3014 33.1177 17.3999 32.535 17.5613 31.97C17.7821 31.1971 18.0265 30.4297 18.2973 29.6731C18.519 29.0534 18.7816 28.4472 19.0479 27.8447C19.4844 26.8575 20.0353 25.9339 20.6504 25.0476C21.4622 23.8774 22.3845 22.7993 23.3668 21.7708C24.3659 20.7246 25.4148 19.7296 26.5406 18.8215C27.326 18.188 28.1328 17.5784 28.9567 16.9958C29.7349 16.4455 30.5755 15.992 31.454 15.62C32.1149 15.3401 32.7912 15.0963 33.4614 14.8387C33.5214 14.8157 33.5873 14.8039 33.6515 14.7969C33.8012 14.7806 33.8898 14.8655 33.919 14.9986C33.9497 15.1378 33.8599 15.2194 33.7388 15.2623C33.2952 15.4194 32.842 15.5529 32.4084 15.7333C31.8543 15.9638 31.3072 16.2142 30.7719 16.4855C29.1356 17.3146 27.7075 18.4415 26.326 19.6322C24.9754 20.7964 23.709 22.0455 22.5457 23.398C21.4954 24.6194 20.5577 25.9195 19.8198 27.3549C19.3325 28.3026 18.9066 29.2789 18.5901 30.2976C18.3127 31.1908 18.0242 32.0831 17.8084 32.9919C17.5833 33.9397 17.4147 34.9032 17.2653 35.8666C17.0065 37.5356 16.9115 39.2178 16.9713 40.9063C16.9907 41.4561 17.0525 42.0043 17.0849 42.554C17.0906 42.6508 17.0701 42.7668 17.017 42.8428C16.9823 42.8926 16.8348 42.9277 16.7949 42.8964C16.7119 42.8313 16.6242 42.7225 16.6136 42.6234C16.5685 42.2065 16.5388 41.787 16.5267 41.3678C16.5132 40.8947 16.523 40.4209 16.5235 39.9474C16.5235 39.9284 16.5082 39.9128 16.4891 39.9125Z" fill="#0478B2"/>
<path d="M21.7404 38.7579C21.743 38.4929 21.764 38.1068 21.8065 37.8452C21.9143 37.1823 22.0108 36.5167 22.1711 35.8667C22.7121 33.6747 23.723 31.7165 25.2572 30.0504C25.9516 29.2963 26.677 28.5688 27.4187 27.8608C28.4324 26.8932 29.5308 26.0229 30.6855 25.2301C31.5569 24.6316 32.5002 24.1656 33.5352 23.9132C34.7479 23.6174 35.9735 23.5768 37.2076 23.7547C38.1804 23.8948 39.1122 24.1758 39.9866 24.6218C41.2646 25.2739 42.3183 26.1934 43.1509 27.3633C43.7815 28.2493 44.2226 29.2272 44.5486 30.2601C44.5959 30.4097 44.6337 30.5628 44.6665 30.7163C44.699 30.8686 44.6321 30.9778 44.4828 31.0131C44.3421 31.0463 44.243 30.9846 44.2032 30.8378C43.9852 30.0356 43.7043 29.2579 43.3016 28.5274C42.7394 27.508 42.014 26.6264 41.0938 25.91C40.228 25.2361 39.2679 24.7561 38.2069 24.4624C37.0786 24.15 35.9378 24.061 34.7781 24.1823C33.5468 24.3112 32.4102 24.7195 31.3657 25.3803C29.8714 26.3254 28.5287 27.4625 27.248 28.6739C26.2675 29.6014 25.3538 30.5911 24.5689 31.6937C24.0566 32.4133 23.6492 33.1888 23.3057 34.0019C22.9658 34.8062 22.7001 35.6354 22.5301 36.4873C22.3842 37.2182 22.3266 37.9663 22.2191 38.7051C22.2038 38.8107 22.1541 38.9461 22.0745 39.0004C21.9175 39.1073 21.7385 38.9704 21.7404 38.7579Z" fill="#0478B2"/>
<path d="M45.1427 24.7741C45.617 25.5181 45.9972 26.3131 46.3144 27.1346C46.5046 27.6274 46.652 28.1378 46.8004 28.6456C47.0957 29.6558 47.3625 30.6744 47.671 31.6803C47.9659 32.642 48.3028 33.59 48.8075 34.4687C49.3543 35.4208 50.0852 36.1938 51.0174 36.7754C51.0618 36.8031 51.1031 36.8369 51.1502 36.8589C51.3136 36.9358 51.3621 37.0769 51.2811 37.2157C51.1958 37.3617 51.0412 37.3613 50.9035 37.2638C50.5365 37.0041 50.1498 36.7664 49.8109 36.4737C49.0026 35.7753 48.4312 34.8998 47.9883 33.9322C47.5243 32.9184 47.2095 31.8562 46.915 30.7851C46.688 29.9596 46.4518 29.1363 46.2028 28.3171C45.8153 27.0422 45.2725 25.8365 44.5377 24.7215C43.7599 23.5414 42.7873 22.5524 41.6095 21.7696C40.7479 21.197 39.8122 20.7965 38.8035 20.5553C37.5575 20.2573 36.305 20.2158 35.0596 20.4947C34.4901 20.6224 33.9345 20.8443 33.3994 21.0834C32.8355 21.3354 32.2788 21.621 31.7636 21.9599C31.0244 22.4462 30.3149 22.9802 29.6132 23.5205C29.1401 23.8849 28.7033 24.2963 28.2483 24.6844C28.1304 24.7848 27.9967 24.8143 27.88 24.6897C27.7719 24.574 27.7911 24.4459 27.907 24.3448C28.3785 23.934 28.8336 23.5009 29.3315 23.1247C30.1369 22.516 30.955 21.9211 31.7985 21.3672C32.475 20.9229 33.2203 20.6025 33.9834 20.3206C34.9253 19.9725 35.89 19.8058 36.89 19.8281C37.8521 19.8496 38.7895 20.0048 39.706 20.3111C41.3727 20.868 42.7555 21.8391 43.9193 23.1392C44.1318 23.3767 44.3268 23.6299 44.5271 23.8781C44.5281 23.8796 44.9786 24.5169 45.1427 24.7741Z" fill="#0478B2"/>
<path d="M26.7652 50.4532C25.3343 49.488 24.1868 48.257 23.3493 46.7459C22.9654 46.0535 22.6483 45.3288 22.4301 44.5663L22.2375 43.9685C21.9491 42.8617 21.7913 41.7359 21.7303 40.5951C21.7241 40.4776 21.7012 40.3607 21.6993 40.2433C21.696 40.0394 21.7963 39.9092 21.9476 39.9044C22.1048 39.8995 22.1939 40.0172 22.204 40.2315C22.2211 40.5919 22.226 40.9538 22.2659 41.3118C22.321 41.8063 22.4037 42.2976 22.4748 42.7903C22.485 42.8613 22.4957 42.9324 22.5059 43.0015C22.5278 43.1498 22.5255 43.1263 22.5863 43.3475C22.6695 43.6496 22.7386 43.9559 22.8303 44.2552C23.4882 46.4033 24.6352 48.231 26.4329 49.604C26.9421 49.9929 27.5242 50.2886 28.0825 50.6102C28.7753 51.0095 29.5382 51.2352 30.312 51.3941C31.451 51.628 32.6048 51.6646 33.7548 51.4578C34.5798 51.3095 35.3951 51.1012 36.2236 50.9808C37.1828 50.8413 38.1509 50.7588 39.1168 50.67C40.3024 50.561 41.4863 50.6238 42.6658 50.7626C43.6304 50.8761 44.5827 51.0546 45.4952 51.402C45.9346 51.5692 46.3732 51.7389 46.8086 51.9162C47.0319 52.0071 47.1032 52.2383 46.9353 52.3357C46.843 52.3893 46.6807 52.3746 46.5698 52.3349C46.0286 52.141 45.5027 51.9015 44.9556 51.7279C43.7681 51.3511 42.5432 51.1533 41.2994 51.1376C40.2531 51.1244 39.204 51.1481 38.1599 51.2141C37.4358 51.26 36.7149 51.388 35.9979 51.5114C35.1785 51.6524 34.3709 51.88 33.5473 51.9746C32.8155 52.0585 32.0679 52.0387 31.3289 52.0158C30.485 51.9896 29.6702 51.7731 28.8806 51.4842C28.8374 51.4687 27.6181 51.0286 26.7652 50.4532Z" fill="#0478B2"/>
<path d="M44.6084 22.6769C44.5627 22.629 44.5207 22.5845 44.4799 22.5388C43.6048 21.5625 42.5934 20.7585 41.4301 20.1527C40.4666 19.651 39.4484 19.3193 38.3719 19.1427C37.4834 18.9969 36.5944 18.9432 35.7075 19.0624C35.0749 19.1474 34.4423 19.2858 33.8318 19.4725C32.3011 19.9404 31.0156 20.8387 29.7853 21.8368C28.6431 22.7633 27.5818 23.7743 26.5427 24.8104C25.7785 25.5724 25.126 26.4303 24.5213 27.3203C23.939 28.1774 23.3958 29.061 22.8363 29.9336C22.7469 30.073 22.6027 30.1245 22.4889 30.0419C22.3549 29.9445 22.3448 29.8181 22.429 29.6799C22.6931 29.2462 22.9371 28.7984 23.2252 28.3814C23.8693 27.4488 24.5218 26.5213 25.197 25.6109C25.8353 24.7501 26.6318 24.0337 27.4017 23.2948C28.4896 22.2506 29.6328 21.2725 30.872 20.4111C31.6258 19.8869 32.4331 19.4666 33.2961 19.1447C34.2691 18.7818 35.2675 18.5785 36.3042 18.5362C37.4069 18.4913 38.4865 18.6176 39.551 18.9048C41.2962 19.3756 42.8126 20.249 44.1198 21.4902C44.4208 21.776 44.7052 22.0795 44.9915 22.3805C45.2379 22.6401 44.8717 22.9524 44.6084 22.6769Z" fill="#0478B2"/>
<path d="M23.7212 42.4312C23.7619 42.7392 23.3545 42.839 23.2811 42.4991C23.2728 42.4605 22.7969 40.6138 23.1203 37.8881C23.2477 36.8153 23.5095 35.768 23.8891 34.7493C24.352 33.507 25.0022 32.3779 25.8446 31.3601C26.7089 30.3157 27.6609 29.3535 28.6834 28.4641C29.6671 27.6086 30.6706 26.7774 31.7748 26.0763C33.0715 25.2533 34.4922 24.9003 36.0168 24.9644C36.5066 24.9849 36.9948 25.0587 37.4814 25.1247C37.6983 25.1541 37.7836 25.279 37.7434 25.4374C37.7064 25.5835 37.5849 25.6337 37.3728 25.5913C36.0405 25.3247 34.7199 25.3684 33.431 25.8053C32.6481 26.0706 31.9419 26.5001 31.2798 26.9919C30.2544 27.7536 29.2631 28.5582 28.3354 29.4384C27.4037 30.3225 26.5119 31.2424 25.7507 32.2818C25.2359 32.9849 24.828 33.7442 24.4896 34.5471C24.1345 35.3898 23.8882 36.2644 23.7183 37.1563C23.6024 37.7658 23.5466 38.3925 23.5288 39.0134C23.507 39.7721 23.5352 40.5332 23.5698 41.2924C23.5802 41.5192 23.6371 41.7942 23.7212 42.4312Z" fill="#0478B2"/>
<path d="M25.6578 17.8577C25.7798 17.7627 25.9069 17.6782 26.0133 17.5659C26.0435 17.5342 26.075 17.5055 26.1104 17.483C26.4399 17.2725 26.7051 16.9851 27.0169 16.7526C27.9759 16.0374 28.9665 15.3717 30.0521 14.8665C30.6902 14.5695 31.3533 14.324 32.0126 14.0746C32.9549 13.7181 33.9418 13.5313 34.9352 13.4053C35.9189 13.2805 36.914 13.2518 37.901 13.3593C38.7464 13.4514 39.5963 13.5584 40.423 13.7508C41.2153 13.9351 41.9889 14.2139 42.7547 14.4948C43.6208 14.8125 44.4281 15.26 45.2071 15.7525C46.0744 16.3007 46.8866 16.9233 47.6383 17.6233C47.7628 17.7392 47.887 17.8555 48.008 17.9751C48.1673 18.1326 48.1929 18.2934 48.0805 18.4006C47.9759 18.5005 47.818 18.4782 47.667 18.3259C47.0449 17.6986 46.3637 17.1421 45.6437 16.6324C44.7357 15.9896 43.7721 15.4488 42.7471 15.011C41.9804 14.6837 41.1938 14.4178 40.3869 14.2246C39.4688 14.0047 38.5359 13.8657 37.5892 13.8138C36.5633 13.7574 35.5467 13.8032 34.5318 13.9557C33.4921 14.112 32.4865 14.3878 31.5043 14.7604C30.0035 15.3297 28.6335 16.1296 27.3668 17.1076C26.738 17.593 26.131 18.1064 25.5142 18.6074C25.3701 18.7244 25.1893 18.7472 25.1087 18.6575C25.0048 18.5417 25.0426 18.3712 25.2067 18.2315C25.3553 18.1048 25.5039 17.9777 25.6578 17.8577Z" fill="#0478B2"/>
<path d="M36.9196 8.15006C37.417 8.15006 37.9146 8.14516 38.412 8.15238C38.6277 8.15551 38.7104 8.24517 38.6926 8.41526C38.6775 8.56058 38.5618 8.62575 38.3674 8.61759C37.2244 8.56929 36.0922 8.60711 34.9649 8.85748C33.4027 9.20431 31.9624 9.82859 30.5846 10.6231C29.1604 11.4444 27.8563 12.4298 26.6153 13.5031C25.0023 14.8982 23.5545 16.454 22.1299 18.0374C21.1494 19.1273 20.091 20.1473 19.0657 21.1968C18.8736 21.3935 18.6725 21.5814 18.4771 21.7751C18.357 21.8938 18.2286 21.9536 18.0842 21.8219C17.9634 21.7115 17.9867 21.5805 18.1484 21.4209C18.8097 20.7679 19.4881 20.1312 20.1292 19.459C20.979 18.5682 21.8013 17.651 22.6331 16.7429C23.8721 15.3901 25.1643 14.0923 26.565 12.9052C27.7817 11.8741 29.0615 10.931 30.4478 10.1395C31.4419 9.57183 32.476 9.09233 33.5679 8.73638C34.6591 8.38056 35.7723 8.16598 36.9196 8.15006Z" fill="#0478B2"/>
<path d="M23.9242 43.3493C24.0319 43.6986 24.1334 44.045 24.2528 44.3852C24.6415 45.4909 25.2081 46.498 25.9718 47.3886C26.8125 48.369 27.8318 49.1154 29.0157 49.6267C30.197 50.1366 31.4387 50.3579 32.7204 50.2502C33.3963 50.1935 34.0661 50.0538 34.7359 49.9351C36.3912 49.642 38.0523 49.422 39.738 49.4061C40.8029 49.396 41.8638 49.4142 42.9152 49.5941C43.3145 49.6624 43.7081 49.7639 44.1024 49.8578C44.2348 49.8894 44.3255 49.9819 44.2963 50.1264C44.2653 50.2806 44.1273 50.3485 43.9559 50.3037C41.9578 49.7823 39.9292 49.7978 37.8968 49.9878C36.9061 50.0804 35.921 50.2406 34.9358 50.3855C34.2041 50.4931 33.4798 50.6613 32.7456 50.7376C31.886 50.8269 31.0311 50.7186 30.1891 50.5182C29.0417 50.2451 27.999 49.7475 27.0517 49.0516C26.2314 48.4493 25.5406 47.7187 24.9699 46.8752C24.3096 45.8991 23.8302 44.8413 23.5327 43.7009C23.5108 43.6171 23.4831 43.5348 23.4624 43.4507C23.4024 43.2078 23.8639 43.1538 23.9242 43.3493Z" fill="#0478B2"/>
<path d="M47.4812 44.9299L46.385 44.0078C45.502 43.197 44.7261 42.2909 44.0583 41.2937C43.5342 40.5109 43.08 39.6894 42.6939 38.8303C42.6056 38.6338 42.5266 38.4328 42.4426 38.2353C42.0349 37.2767 41.8522 36.901 41.2331 34.8243C40.9533 33.8859 40.6818 32.9436 40.4492 31.9925C40.212 31.0235 39.8348 30.1349 39.1403 29.4071C38.4903 28.7259 37.6933 28.3106 36.7653 28.1346C36.0648 28.0018 35.3651 27.9943 34.677 28.1619C34.3265 28.2474 34.0014 28.4342 33.6604 28.5637C33.5515 28.6051 33.4161 28.6519 33.3146 28.6218C33.1209 28.5645 33.1164 28.3279 33.3171 28.2118C33.5868 28.0558 33.8666 27.9027 34.1611 27.806C35.2681 27.4421 36.39 27.472 37.491 27.8124C38.6038 28.1565 39.4735 28.849 40.0989 29.8357C40.5194 30.499 40.7625 31.2309 40.9469 31.9917C41.1375 32.7783 41.3714 33.5544 41.5957 34.3326C41.7549 34.8847 41.9235 35.4344 42.099 35.9817C42.2226 36.3665 42.3683 36.7442 42.4948 37.1282C42.7885 37.8083 42.8854 38.1219 43.2639 38.9167C44.1272 40.7291 45.2812 42.3248 46.7473 43.6951C46.8525 43.7935 46.9584 43.8921 47.0723 43.9798C47.0723 43.9798 47.4437 44.2788 47.7334 44.5284C48.072 44.8204 47.742 45.1336 47.4812 44.9299Z" fill="#0478B2"/>
<path d="M29.5078 39.7457C29.5323 38.6592 29.7284 37.618 30.1797 36.6319C30.4939 35.9454 30.9236 35.3457 31.5821 34.9456C32.7247 34.2513 34.2869 34.523 35.0143 35.739C35.337 36.2784 35.4928 36.8703 35.5001 37.4938C35.5057 37.9718 35.5118 38.4566 35.4413 38.927C35.3526 39.5198 35.1884 40.1014 35.0526 40.6869C34.9671 41.0555 34.8837 41.4249 34.7826 41.7893C34.5925 42.4741 34.3517 43.1416 33.8066 43.633C32.7583 44.5778 31.117 44.457 30.2876 43.0938C29.9552 42.5472 29.7719 41.9502 29.6829 41.3246C29.6081 40.8007 29.565 40.2721 29.5078 39.7457ZM30.0228 40.1071C30.0496 40.3467 30.0897 40.7303 30.1362 41.113C30.2151 41.7619 30.3923 42.3779 30.7587 42.929C31.4238 43.9292 32.6547 44.0054 33.4622 43.2886C33.8965 42.903 34.1175 42.3915 34.2639 41.8574C34.5004 40.9953 34.7065 40.1237 34.8896 39.2485C35.0594 38.4368 35.1118 37.6158 34.9208 36.7938C34.8102 36.3176 34.6028 35.9 34.2458 35.5611C33.4551 34.8104 32.1255 34.9048 31.3257 35.7634C30.8681 36.2547 30.5739 36.831 30.3676 37.4663C30.1037 38.28 30.0128 39.1123 30.0228 40.1071Z" fill="#0478B2"/>
<path d="M34.6103 33.657C34.7269 33.7163 34.8452 33.779 34.9569 33.8518C35.7656 34.379 36.2919 35.1192 36.5721 36.0388C36.8909 37.0855 36.8807 38.1499 36.7053 39.2137C36.5937 39.8901 36.447 40.5624 36.2784 41.2271C36.1166 41.865 35.9529 42.5094 35.7073 43.1176C35.2939 44.1418 34.5913 44.9087 33.5235 45.3034C32.5264 45.6719 31.5523 45.6273 30.613 45.1458C29.9665 44.8145 29.4739 44.3029 29.1136 43.6706C28.7103 42.9626 28.4862 42.1981 28.3658 41.3934C28.2248 40.4519 28.2339 39.5109 28.3009 38.5667C28.3028 38.5404 28.3037 38.5142 28.3064 38.4882C28.3308 38.2577 28.445 38.1264 28.6033 38.1464C28.7593 38.166 28.7908 38.2656 28.7877 38.5184C28.7775 39.3309 28.731 40.1474 28.7926 40.9552C28.8619 41.8639 29.1022 42.7429 29.5934 43.5322C30.3067 44.6783 31.5576 45.2841 32.8817 44.9955C34.0195 44.7476 34.8 44.0408 35.2327 42.982C35.4657 42.4118 35.6064 41.8021 35.7661 41.2042C35.9245 40.6113 36.0689 40.0138 36.1934 39.4129C36.3595 38.6113 36.3997 37.7981 36.2888 36.9864C36.1161 35.7219 35.5586 34.6983 34.3843 34.0867C34.0602 33.9175 34.2495 33.4733 34.6103 33.657Z" fill="#0478B2"/>
<path d="M25.6998 40.5771C25.6813 40.3294 25.6857 40.0807 25.7129 39.8339C25.781 39.2158 25.859 38.5038 25.9424 37.7925C25.9651 37.5981 26.0172 37.4074 26.0537 37.2147C26.0854 37.0467 26.2092 36.9317 26.3411 36.9514C26.4937 36.9743 26.5586 37.082 26.5298 37.2811C26.4424 37.8836 26.3475 38.485 26.2645 39.0881C26.1321 40.0506 26.1532 41.0168 26.3037 41.9712C26.6041 43.8768 27.448 45.4928 29.0157 46.6639C29.8978 47.3229 30.918 47.6214 32.0218 47.6686C32.8017 47.702 33.5426 47.5085 34.2954 47.3688C35.4305 47.158 36.5712 46.985 37.7263 46.9284C38.4729 46.8918 39.2198 46.8592 39.9668 46.8306C40.1434 46.8238 40.3209 46.8382 40.4979 46.8467C40.6534 46.8541 40.7653 46.9237 40.7751 47.0908C40.7832 47.2291 40.6495 47.3277 40.4731 47.3292C39.857 47.3346 39.2388 47.31 38.6253 47.3528C37.6448 47.4213 36.6634 47.5055 35.6898 47.6373C34.8403 47.7525 34.0038 47.9612 33.1562 48.0943C32.3183 48.2257 31.4811 48.1737 30.6585 47.9574C28.8589 47.4841 27.6188 46.3193 26.7252 44.7425C26.1521 43.7313 25.8622 42.6299 25.7683 41.475C25.7459 41.2002 25.7257 40.9252 25.6998 40.5771Z" fill="#0478B2"/>
<path d="M41.1793 38.5889C41.0752 38.3286 40.6835 37.4682 40.5626 37.1146C40.2732 36.2687 40.0348 35.4039 39.7162 34.5696C39.322 33.5367 38.7213 32.6249 37.922 31.8505C37.1296 31.0828 36.2097 30.5274 35.1617 30.1881C34.1226 29.8516 33.0591 29.762 31.976 29.9026C31.8589 29.9178 31.7408 29.9246 31.6234 29.9361C31.4812 29.95 31.37 29.907 31.3473 29.7529C31.3238 29.5932 31.4192 29.503 31.5645 29.4792C31.8232 29.4368 32.0835 29.4028 32.3442 29.3749C33.1025 29.2938 33.8467 29.3917 34.5892 29.5435C35.5246 29.7347 36.3822 30.1023 37.1754 30.6278C38.206 31.3108 39.0077 32.2042 39.6271 33.271C40.0599 34.0165 40.327 34.8232 40.5812 35.6408C40.8116 36.382 41.0979 37.1056 41.3519 37.8397C41.4517 38.128 41.7999 38.9009 41.8404 38.9952C42.2696 39.9923 42.6887 40.6747 43.1847 41.4697C43.9649 42.7206 44.9412 43.8182 46.0326 44.8108C46.0892 44.8623 46.1442 44.9155 46.202 44.9699C46.2269 44.9933 46.2458 45.0191 46.2593 45.046C46.4375 45.4025 45.7925 45.2489 45.5007 44.9774C43.574 43.1851 42.1605 41.0443 41.1793 38.5889Z" fill="#0478B2"/>
<path d="M38.1888 16.2128C39.4657 16.2431 40.709 16.4484 41.8891 16.9479C43.745 17.7335 45.3414 18.8902 46.6971 20.3791C46.821 20.5153 46.9522 20.6472 47.0687 20.7895C47.4879 21.3016 48.1112 22.1668 48.0473 22.0804C48.7464 23.0859 49.3212 24.1586 49.7848 25.2929C50.2263 26.3731 50.5566 27.4874 50.8478 28.6154C50.9604 29.052 51.0947 29.4832 51.2259 29.9149C51.2731 30.0702 51.276 30.2067 51.1071 30.2773C50.9489 30.3435 50.8233 30.2641 50.7644 30.0569C50.5801 29.4087 50.4191 28.7534 50.2191 28.1102C49.9573 27.2678 49.6957 26.4235 49.382 25.5996C48.8968 24.3249 48.2318 23.1417 47.4272 22.0387C47.3275 21.902 47.2258 21.7667 47.1215 21.6334C45.9073 20.0829 44.4885 18.8301 42.7634 17.8974C41.9897 17.4791 41.1818 17.1105 40.3185 16.9537C39.477 16.8009 38.613 16.7728 37.7586 16.6925C37.6609 16.6832 37.5615 16.694 37.4633 16.6895C37.3154 16.6828 37.2312 16.6046 37.2305 16.454C37.2298 16.3036 37.3154 16.2191 37.4607 16.2146C37.703 16.2075 37.9461 16.2128 38.1888 16.2128Z" fill="#0478B2"/>
<path d="M32.2248 53.3781C31.0357 53.3731 29.8694 53.201 28.7425 52.8272C27.1421 52.2964 25.7195 51.4581 24.482 50.3019C23.4252 49.3149 22.5794 48.1726 21.9449 46.8827C21.6313 46.2451 21.4078 45.563 21.1489 44.8985C21.0543 44.6559 21.5393 44.5335 21.6122 44.7693C22.2678 46.8883 23.496 48.8625 25.2816 50.3614C25.965 50.935 26.7192 51.3921 27.5125 51.7965C28.5999 52.3507 29.7569 52.6729 30.9572 52.8232C32.155 52.9733 33.3497 52.9063 34.5345 52.6416C35.2495 52.482 35.9759 52.3718 36.6985 52.2475C37.0084 52.1942 37.3216 52.1606 37.6336 52.1202C37.7966 52.0991 37.9245 52.1445 37.9519 52.327C37.9745 52.478 37.8604 52.5876 37.6656 52.604C36.5524 52.6979 35.4668 52.9479 34.3744 53.1659C33.8243 53.2757 33.2565 53.2976 32.6961 53.3549C32.5399 53.3708 32.382 53.3708 32.2248 53.3781Z" fill="#0478B2"/>
<path d="M34.5433 7.44665C34.5479 7.603 34.4052 7.6528 34.2743 7.68341C32.8821 8.00916 31.5864 8.5801 30.3407 9.26234C29.1549 9.91179 28.0432 10.6784 26.9799 11.5152C25.6717 12.5448 24.4396 13.6595 23.2898 14.8611C22.3796 15.8122 21.5079 16.8002 20.6167 17.7696C20.3879 18.0184 20.1506 18.2595 19.9161 18.503C19.7457 18.6796 19.6265 18.7004 19.4986 18.5798C19.3858 18.4736 19.4023 18.3447 19.5606 18.1718C20.3613 17.2967 21.1636 16.423 21.965 15.5487C23.2422 14.1552 24.5942 12.8385 26.0527 11.6362C27.3783 10.5434 28.7779 9.55543 30.2965 8.74093C31.2087 8.25163 32.1528 7.83962 33.1288 7.50054C33.4743 7.38052 33.832 7.29426 34.1873 7.20459C34.4026 7.1503 34.543 7.24459 34.5433 7.44665Z" fill="#0478B2"/>
<path d="M15.5893 35.8007C15.3985 35.6726 15.5199 35.3674 15.557 35.1405C15.6077 34.8304 15.6615 34.4971 15.733 34.1676C15.9369 33.2274 16.1183 32.2794 16.3843 31.3563C16.6716 30.3593 17.0269 29.3806 17.3855 28.4061C17.7309 27.468 18.1788 26.5749 18.6815 25.71C19.2658 24.7048 19.9385 23.7615 20.6648 22.8548C21.6384 21.6394 22.7267 20.5321 23.8471 19.4545C24.0628 19.247 24.2118 19.2572 24.3149 19.472C24.3819 19.6114 24.2934 19.6973 24.2133 19.7787C23.593 20.4075 22.9519 21.0169 22.3502 21.6631C21.1524 22.9496 20.0637 24.3212 19.1679 25.8413C18.4685 27.0284 17.9066 28.2783 17.4487 29.5724C17.1524 30.4095 16.9002 31.2655 16.6855 32.1274C16.4324 33.143 16.2395 34.1736 16.0247 35.1986C15.9965 35.3326 15.9987 35.4727 15.9753 35.6081C15.9486 35.763 15.8629 35.8578 15.6901 35.8351C15.6478 35.8296 15.6149 35.818 15.5893 35.8007Z" fill="#0478B2"/>
<path d="M51.1155 40.5413C50.6757 40.1542 50.2191 39.7832 49.8065 39.3686C49.1632 38.7221 48.6375 37.9807 48.232 37.163C47.9483 36.5907 47.686 36.0066 47.4428 35.4159C47.2541 34.9578 47.0911 34.4867 46.9522 34.011C46.8535 33.6734 46.7057 33.3561 46.6283 33.0066C46.4546 32.2227 46.2189 31.4521 45.9988 30.679C45.8361 30.1074 45.6896 29.5284 45.4804 28.9735C45.0684 27.8806 44.5038 26.865 43.742 25.9749C43.0711 25.191 42.8616 24.9904 42.3472 24.5952C42.275 24.5396 42.2014 24.4845 42.129 24.4285C40.9482 23.5114 39.6164 22.918 38.1618 22.597C37.2936 22.4054 36.4121 22.3428 35.5229 22.3502C34.2554 22.3608 33.035 22.6023 31.869 23.092C30.9313 23.4857 30.0728 24.0267 29.2632 24.6364C28.0926 25.5177 26.9633 26.4498 25.9112 27.4737C24.7595 28.5946 23.6748 29.7712 22.793 31.1211C22.591 31.4304 22.4131 31.7556 22.3114 31.927C22.1966 32.12 22.5549 32.4669 22.6963 32.2031C22.9933 31.6486 23.106 31.3657 23.5646 30.8394C24.2192 30.0882 24.8205 29.2872 25.509 28.5693C27.0527 26.96 28.7445 25.5182 30.6216 24.3047C31.4959 23.7394 32.4398 23.3205 33.4528 23.0854C34.6507 22.8075 35.8654 22.7559 37.0895 22.9052C38.0786 23.0258 39.032 23.2776 39.9385 23.6821C41.0514 24.1788 42.0385 24.8665 42.8806 25.7534L43.0786 25.9707C43.4036 26.3853 43.7446 26.7892 44.0424 27.2228C44.518 27.9147 44.8862 28.6694 45.1438 29.4664C45.3867 30.2179 45.5597 30.9917 45.7784 31.7514C46.0333 32.6366 46.2831 33.5243 46.5748 34.3976C46.8188 35.128 47.1025 35.8464 47.3998 36.5573C47.8407 37.6112 48.4349 38.5754 49.1975 39.4301C49.6926 39.9849 50.227 40.4983 50.8351 40.9316C50.9503 41.0136 51.0533 41.0516 51.1672 40.9419C51.2909 40.823 51.2662 40.674 51.1155 40.5413Z" fill="#0478B2"/>
<path d="M37.4045 9.3969C37.4058 9.38585 37.4155 9.37764 37.4266 9.37851C38.5439 9.46543 39.6617 9.54828 40.7785 9.64269C41.0518 9.66582 41.3225 9.72501 41.5934 9.77318C41.7997 9.80992 41.8831 9.90993 41.8552 10.0712C41.83 10.2166 41.7012 10.2607 41.4945 10.2395C40.4187 10.129 39.3433 10.0074 38.265 9.93048C37.6977 9.88993 37.1237 9.91877 36.5539 9.94163C35.8364 9.97034 35.1386 10.1278 34.4517 10.3296C33.0826 10.7319 31.8266 11.3769 30.6202 12.1276C29.5545 12.7908 28.5658 13.5578 27.6045 14.3614C27.4805 14.4649 27.3592 14.4946 27.2378 14.3901C27.1293 14.2969 27.1593 14.1057 27.2942 13.9915C28.387 13.0675 29.5159 12.1899 30.7631 11.4829C31.4659 11.0845 32.1831 10.7035 32.922 10.3784C34.1461 9.83986 35.4267 9.49411 36.7742 9.44458C36.978 9.43703 37.1817 9.42499 37.3854 9.41482C37.3953 9.41432 37.4034 9.40679 37.4045 9.3969Z" fill="#0478B2"/>
<path d="M31.1539 53.9291C31.5103 53.9777 31.8654 54.0418 32.2233 54.0717C32.9913 54.1361 33.7549 54.0849 34.513 53.9441C36.1628 53.6377 37.813 53.3434 39.4982 53.2952C40.6425 53.2624 41.7789 53.3057 42.9092 53.4875C43.6941 53.6136 44.4534 53.8285 45.1862 54.1373C45.3774 54.2179 45.4555 54.3344 45.3995 54.4712C45.3379 54.6216 45.1926 54.6551 44.9975 54.588C44.5286 54.4267 44.0631 54.2497 43.5844 54.1243C42.674 53.8857 41.7424 53.7859 40.8009 53.7744C39.6913 53.761 38.5819 53.7754 37.482 53.9319C36.6781 54.0463 35.8797 54.1992 35.0801 54.3427C33.8541 54.5625 32.6263 54.6906 31.3876 54.45C31.2848 54.4301 31.1817 54.4097 31.0815 54.3801C30.9487 54.3408 30.8622 54.2533 30.8871 54.1069C30.9116 53.9636 31.0116 53.8998 31.1539 53.9291Z" fill="#0478B2"/>
<path d="M45.9134 23.5781C46.2883 24.2269 46.6893 24.8622 47.0341 25.5266C47.502 26.4285 47.8002 27.4001 48.0877 28.3712C48.3495 29.2555 48.5702 30.1521 48.838 31.0345C49.1397 32.0286 49.4613 33.0175 49.9979 33.9191C50.3529 34.5156 50.8061 35.0238 51.3603 35.4395C51.4534 35.5093 51.5391 35.5706 51.4838 35.688C51.4221 35.8189 51.2967 35.8832 51.1569 35.8413C51.0547 35.8107 50.9573 35.7453 50.8731 35.6766C50.1248 35.0667 49.5823 34.2993 49.1904 33.4249C48.7212 32.378 48.4004 31.2806 48.0927 30.1775C47.7976 29.1197 47.506 28.058 47.1401 27.0237C46.7319 25.8702 46.1148 24.8305 45.4769 23.7905C45.2531 23.4256 45.7256 23.2532 45.9134 23.5781Z" fill="#0478B2"/>
<path d="M34.4455 57.063C34.0219 57.0921 32.7313 57.0796 32.3883 57.062C31.5475 57.0187 30.7251 56.847 29.9167 56.6176C29.0781 56.3796 28.2655 56.0634 27.513 55.6251C26.8608 55.2452 26.2429 54.8064 25.61 54.3936C25.5883 54.3794 25.5668 54.3645 25.5469 54.3479C25.4258 54.2464 25.3729 54.1189 25.4789 53.9881C25.5819 53.8612 25.7156 53.8774 25.8469 53.9682C26.3029 54.2838 26.7498 54.6143 27.2207 54.9058C27.9049 55.3291 28.6232 55.6956 29.3959 55.9271C30.0904 56.1353 30.7915 56.3372 31.5033 56.4678C31.902 56.541 33.2043 56.6569 33.8584 56.6168C34.7839 56.5601 35.6904 56.3829 36.6006 56.2189C37.2323 56.1052 37.8737 56.0448 38.5117 55.9686C38.6588 55.951 38.7903 55.9992 38.813 56.1761C38.8323 56.3268 38.7299 56.4331 38.5485 56.4481C37.4483 56.5392 36.3652 56.7349 35.2855 56.9577C35.0166 57.0133 34.7407 57.0427 34.4455 57.063Z" fill="#0478B2"/>
<path d="M32.1397 49.4601C31.9272 49.4753 31.7136 49.4779 31.502 49.4525C30.5254 49.3352 29.6105 49.0395 28.7414 48.5813C28.5746 48.4934 28.5225 48.3599 28.5933 48.2352C28.6732 48.0951 28.8123 48.0683 28.9805 48.1573C29.8902 48.6384 30.8532 48.9174 31.8868 48.9654C32.6413 49.0005 33.3717 48.8918 34.1068 48.7364C34.9008 48.5686 35.7056 48.4495 36.5085 48.327C37.9723 48.1035 39.4476 48.0675 40.9252 48.0864C41.2662 48.0907 41.6069 48.1109 41.9476 48.1269C42.0124 48.1299 42.097 48.1265 42.1365 48.1639C42.2094 48.2332 42.3098 48.3391 42.298 48.4138C42.286 48.4898 42.1589 48.5908 42.0713 48.603C41.8988 48.6271 41.7186 48.599 41.5417 48.5896C40.2293 48.5195 38.9185 48.5262 37.6128 48.693C36.6576 48.815 35.7024 48.9393 34.7501 49.0827C34.3498 49.143 33.9611 49.2847 33.5602 49.3366C33.0892 49.3975 32.6142 49.4262 32.1397 49.4601Z" fill="#0478B2"/>
<path d="M38.7596 25.7198C38.8432 25.6074 39.0181 25.6177 39.1477 25.6709C39.2506 25.7132 39.3487 25.7546 39.4422 25.8044C40.7644 26.5086 41.7963 27.514 42.5287 28.8201C42.9358 29.5461 43.2115 30.3236 43.4209 31.1304C43.6982 32.1986 43.9996 33.2611 44.3119 34.3198C44.4889 34.9199 44.7118 35.5064 44.9057 36.1017C44.9345 36.1905 44.9439 36.3039 44.9132 36.3879C44.8906 36.4494 44.7786 36.5268 44.7219 36.5161C44.6341 36.4995 44.516 36.4305 44.4863 36.3543C44.3091 35.8986 44.1425 35.438 43.9937 34.9722C43.8032 34.3753 43.6262 33.7739 43.4565 33.1707C43.3025 32.6236 43.1536 32.0744 43.0245 31.521C42.6695 30.0006 42.046 28.6221 40.9319 27.4993C40.3575 26.9204 39.7012 26.4556 38.9569 26.1178C38.717 26.0089 38.6467 25.8704 38.7596 25.7198Z" fill="#0478B2"/>
<path d="M18.4972 48.4217C18.9169 49.4846 19.4503 50.4921 20.0742 51.4525C20.8583 52.6596 21.7655 53.762 22.8021 54.7599C22.8729 54.8281 22.9344 54.8927 22.9847 54.9516C23.0816 55.0648 22.7993 55.4359 22.5975 55.2404C22.5436 55.1882 22.4901 55.1357 22.4391 55.0806C22.4229 55.0632 22.0959 54.7481 22.0925 54.7447C21.2313 53.8681 20.4631 52.918 19.7827 51.8951C19.2644 51.1161 18.805 50.3041 18.4194 49.4523C18.196 48.9589 17.9985 48.4538 17.7912 47.9533C17.7748 47.9138 17.4339 46.976 17.3202 46.4768C17.1663 45.8008 17.0109 45.125 16.8587 44.4486C16.8415 44.3722 16.8349 44.2926 16.8323 44.2143C16.8278 44.0789 16.8837 43.9859 17.0297 43.9711C17.1731 43.9565 17.2715 44.0085 17.3046 44.159C17.4642 44.8875 17.6218 45.6166 17.7871 46.3437C17.8316 46.5394 17.8557 46.7393 17.9256 46.9518C18.0821 47.428 18.1033 47.4244 18.4972 48.4217Z" fill="#0478B2"/>
<path d="M35.9263 55.3355C35.9413 55.3613 35.9332 55.3945 35.9092 55.4122C35.8341 55.4677 35.7613 55.5345 35.6782 55.5515C34.6716 55.7566 33.6538 55.8594 32.6273 55.7802C31.1772 55.6682 29.792 55.3106 28.4828 54.6609C27.0941 53.9716 25.8904 53.0403 24.8154 51.9327C24.7614 51.8771 24.7018 51.8257 24.6539 51.7651C24.5611 51.6478 24.5149 51.5151 24.6335 51.3931C24.7543 51.2687 24.8779 51.3089 24.994 51.4191C25.4189 51.8223 25.8342 52.2366 26.2748 52.6218C27.2357 53.4621 28.3156 54.1196 29.5008 54.5899C30.5663 55.0128 31.6788 55.2448 32.8267 55.3054C33.69 55.351 34.5423 55.2815 35.3884 55.1117C35.5103 55.0872 35.6284 55.0586 35.704 55.2193C35.7278 55.2701 35.8274 55.2853 35.9004 55.313C35.9114 55.3172 35.9204 55.3253 35.9263 55.3355Z" fill="#0478B2"/>
<path d="M46.9693 22.8162C47.3203 23.3889 47.7076 23.945 47.9991 24.5472C48.3848 25.3444 48.7194 26.1693 49.0276 27.0001C49.2478 27.5935 49.3834 28.2178 49.5659 28.8254C49.859 29.8016 50.1543 30.7771 50.4591 31.7495C50.6531 32.3682 50.9087 32.9599 51.2827 33.4964C51.3679 33.6186 51.3932 33.7704 51.2428 33.8821C51.1177 33.9752 50.9687 33.942 50.8703 33.7563C50.6112 33.267 50.3279 32.7836 50.135 32.2678C49.8311 31.4549 49.5824 30.6207 49.3309 29.7893C49.1057 29.0448 48.9303 28.2847 48.6921 27.5448C48.4744 26.8684 48.2259 26.1995 47.9475 25.5457C47.5653 24.6478 47.0434 23.83 46.5181 23.0072C46.3247 22.7039 46.8011 22.5418 46.9693 22.8162Z" fill="#0478B2"/>
<path d="M20.8799 43.9279C20.8018 43.602 20.7468 43.2904 20.6873 42.9799C20.5281 42.1475 20.4698 41.3051 20.4227 40.4596C20.3619 39.3671 20.4434 38.2862 20.5891 37.2054C20.7314 36.1507 20.9995 35.1278 21.335 34.1211C21.4382 33.812 21.5639 33.5098 21.6937 33.2107C21.695 33.2079 21.7345 33.1289 21.7777 33.0435C21.8486 32.9033 21.9308 32.7521 21.9965 32.6094C22.1617 32.2513 22.561 32.4516 22.4192 32.7897C22.1618 33.4034 21.8944 34.0147 21.6782 34.6432C21.3326 35.6484 21.1081 36.6874 20.9949 37.7434C20.878 38.8327 20.8208 39.9281 20.9411 41.0226C21.0198 41.7387 21.1136 42.4534 21.2089 43.1676C21.2373 43.3812 21.2809 43.595 21.3417 43.8015C21.405 44.016 20.9373 44.1675 20.8799 43.9279Z" fill="#0478B2"/>
<path d="M43.6965 48.0533C44.3546 48.5745 44.9796 49.1107 45.648 49.586C46.2309 50.0005 46.8592 50.3521 47.4749 50.7189C47.7133 50.861 47.8024 50.9702 47.7237 51.1147C47.6451 51.2592 47.486 51.2688 47.2547 51.1505C45.9204 50.4687 44.7341 49.5769 43.6186 48.5852C43.2428 48.2512 42.3932 47.4288 42.3537 47.3896C41.1948 46.2385 40.1811 44.9691 39.3018 43.5926C39.2667 43.5377 39.2475 43.4721 39.2094 43.4198C39.1068 43.2789 39.1392 43.1589 39.2657 43.0618C39.3714 42.9809 39.5283 43.0335 39.6165 43.167C39.8499 43.5203 40.0771 43.8777 40.318 44.2258C41.0202 45.2407 41.8237 46.171 42.6959 47.0429C42.8478 47.1948 43.4138 47.7569 43.6965 48.0533Z" fill="#0478B2"/>
<path d="M19.6085 44.8687C18.867 41.3954 18.9659 37.9435 19.6535 34.4911C19.6702 34.407 19.6795 34.344 19.6938 34.295C19.8262 33.8364 20.191 34.1955 20.1533 34.4C19.8882 35.8379 19.6837 37.281 19.6022 38.7445C19.5256 40.1195 19.5864 41.483 19.766 42.8434C19.8499 43.4783 19.9753 44.1076 20.085 44.739C20.1458 45.0887 19.6814 45.2105 19.6085 44.8687Z" fill="#0478B2"/>
<path d="M44.6677 12.7054C44.6641 12.8796 44.3739 12.8693 44.2132 12.8019C44.1765 12.7865 44.1406 12.7721 44.1043 12.7587C43.2831 12.4562 42.4758 12.1032 41.6354 11.8695C40.7614 11.6266 39.8598 11.4696 38.9617 11.3296C37.6271 11.1216 36.2821 11.1474 34.9388 11.2606C34.7561 11.276 34.5752 11.3129 34.3927 11.3333C34.2391 11.3504 34.1105 11.3039 34.0888 11.1324C34.0667 10.9583 34.1761 10.8892 34.3365 10.8743C34.9172 10.8209 35.497 10.7291 36.0783 10.7191C36.8502 10.7056 37.6281 10.7081 38.3943 10.7898C39.2909 10.8855 40.1876 11.0307 41.0658 11.2344C41.8781 11.4227 42.6699 11.7045 43.463 11.969C43.8271 12.0904 44.1775 12.258 44.5217 12.4296C44.6009 12.469 44.6698 12.6118 44.6677 12.7054Z" fill="#0478B2"/>
<path d="M48.1776 20.0937C48.1565 20.0653 48.1352 20.0287 48.1095 19.999C47.1882 18.9294 46.2051 17.925 45.053 17.098C44.4295 16.6505 43.7718 16.2637 43.0582 15.9811C42.3072 15.6836 41.5289 15.4732 40.7282 15.3674C40.0661 15.2799 39.4002 15.1943 38.7338 15.1736C38.1332 15.155 37.5285 15.2102 36.9279 15.2603C35.8117 15.3532 34.7287 15.6201 33.6861 16.0155C32.9065 16.3112 32.144 16.6619 31.3997 17.0392C30.338 17.5775 29.3493 18.241 28.412 18.9737C26.8203 20.2183 25.3221 21.5674 23.9486 23.0522C23.0353 24.0395 22.1847 25.0765 21.4414 26.1986C20.5301 27.5743 19.84 29.0615 19.3366 30.6255C18.6553 32.7424 18.17 35.2741 18.1577 35.3297C18.0942 35.6202 18.1577 35.3297 18.0268 36.263C17.9531 36.7886 17.8993 37.3188 17.8754 37.8486C17.8318 38.8114 17.7737 39.7765 17.7992 40.7385C17.8346 42.0749 17.961 43.4072 18.2447 44.7185C18.3138 45.0383 18.382 45.3597 18.4789 45.6715C18.5315 45.9669 18.9714 45.8525 18.8977 45.5438C18.8668 45.4141 18.8022 45.2086 18.6952 44.5133C18.5836 43.7882 18.4365 43.0649 18.3847 42.3353C18.3119 41.31 18.2851 40.2793 18.2899 39.2512C18.2952 38.1164 18.3922 36.9853 18.5768 35.8627C18.7722 34.6746 18.7281 34.9842 18.7915 34.5981C18.7971 34.5641 18.8122 34.5234 18.8218 34.4853C19.092 33.414 19.3239 32.3311 19.6444 31.275C19.9018 30.4272 20.2442 29.6025 20.5886 28.7843C21.1434 27.4664 21.9167 26.2758 22.7963 25.1519C23.646 24.066 24.5801 23.0579 25.5667 22.0952C26.5858 21.1006 27.6585 20.1672 28.7861 19.3006C30.0522 18.3275 31.3991 17.4756 32.8772 16.8588C33.5693 16.57 34.2795 16.3075 35.0038 16.1178C35.7292 15.9277 36.4797 15.8257 37.2237 15.7167C38.2169 15.5712 39.2171 15.6322 40.2048 15.7549C40.8636 15.8367 41.5094 16.0325 42.1571 16.1933C43.0376 16.412 43.8197 16.8437 44.563 17.3503C45.5836 18.0461 46.4734 18.8884 47.2915 19.8097C47.4675 20.0081 47.6458 20.2045 47.8493 20.4313C48.0198 20.6211 47.9948 20.5912 48.1321 20.7644C48.1321 20.7644 48.3274 21.06 48.5591 21.1975C48.583 21.2116 48.6167 21.163 48.641 21.1749C48.8429 21.2726 48.9138 21.0393 48.776 20.8623C48.5388 20.5574 48.2119 20.1398 48.1776 20.0937Z" fill="#0478B2"/>
<path d="M29.5597 7.80045C29.7281 7.8991 29.6239 8.16739 29.4585 8.27099C29.0886 8.5023 28.706 8.71361 28.3381 8.94792C26.8726 9.88107 25.5112 10.9504 24.2335 12.1256C23.6451 12.6668 23.0755 13.2282 22.4995 13.7827C22.385 13.893 22.2697 13.9632 22.1236 13.8442C21.9992 13.7428 21.995 13.6065 22.1447 13.4556C22.5795 13.0172 23.0162 12.58 23.4681 12.1594C24.4702 11.2265 25.503 10.3263 26.6248 9.54022C27.4769 8.94316 28.3639 8.3959 29.2408 7.83475C29.3577 7.75981 29.4752 7.75096 29.5597 7.80045Z" fill="#0478B2"/>
<path d="M24.0396 53.0145C22.9868 51.9523 22.084 50.7752 21.3476 49.4747C20.903 48.6897 20.5286 47.8692 20.2318 47.0156C20.1504 46.7815 20.0772 46.5443 19.9963 46.3099C19.8895 46.0007 20.3551 45.8515 20.4652 46.2047C20.8934 47.5786 21.4969 48.8719 22.2806 50.0769C22.9036 51.0345 23.623 51.9182 24.4398 52.7197C24.5966 52.8736 24.7541 53.0267 24.9129 53.1786C25.0195 53.2805 25.0381 53.4042 24.9514 53.5125C24.9362 53.5314 24.9199 53.5472 24.9028 53.5599C24.7276 53.69 24.5174 53.4661 24.3588 53.3162L24.0396 53.0145Z" fill="#0478B2"/>
<path d="M23.0757 53.8854C22.1406 52.9417 21.316 51.9095 20.6106 50.7833C20.0651 49.9122 19.5984 48.9999 19.2241 48.0434C19.0903 47.7016 18.9919 47.3464 18.8516 47.0067C18.6483 46.5143 19.1066 46.398 19.3124 46.8908C19.6217 47.6316 19.895 48.3893 20.2404 49.1127C20.8698 50.431 21.6937 51.6276 22.6589 52.7243C22.9249 53.0266 23.2143 53.3082 23.4876 53.6045C23.6349 53.764 23.2482 54.0594 23.0757 53.8854Z" fill="#0478B2"/>
<path d="M36.0802 21.0883C36.2762 21.0726 36.4732 21.07 36.6693 21.0839C37.5222 21.1443 38.3416 21.2434 39.1369 21.5037C40.0648 21.8072 40.9544 22.1922 41.7797 22.7173C41.8999 22.7937 42.0108 22.8871 42.1174 22.9821C42.217 23.0709 42.2409 23.1912 42.1561 23.2961C42.0661 23.4075 41.9563 23.4371 41.8118 23.3479C41.3633 23.0716 40.9199 22.7812 40.4491 22.5477C39.2827 21.9693 38.0523 21.6181 36.7397 21.5848C36.089 21.5682 35.4441 21.5948 34.8051 21.7247C34.6623 21.7536 34.5543 21.6987 34.5187 21.5559C34.479 21.3965 34.549 21.2785 34.7118 21.2513C35.0023 21.2027 35.2951 21.1657 35.5881 21.1332C35.7544 21.1148 35.9212 21.1009 36.0802 21.0883Z" fill="#0478B2"/>
<path d="M40.6721 39.5731C40.6975 39.6181 40.7254 39.6791 40.7627 39.7621C41.3983 41.1794 42.2052 42.494 43.1853 43.6954C43.6734 44.2937 44.2276 44.8382 44.7518 45.4072C44.7959 45.4551 44.8508 45.4983 44.8789 45.5545C44.9202 45.6377 44.925 45.6942 44.8156 45.7725C44.5854 45.9372 44.4711 45.8153 44.3176 45.6644C43.3233 44.6873 42.4237 43.6299 41.6866 42.4475C41.2292 41.7137 40.8396 40.9377 40.4216 40.1795C40.3526 40.0544 40.279 39.9285 40.2341 39.7941C40.0305 39.3424 40.4966 39.2627 40.6721 39.5731Z" fill="#0478B2"/>
<path d="M44.1523 47.2944C43.932 47.0882 43.7085 46.8852 43.4919 46.6753C42.3497 45.5677 41.3408 44.3488 40.4883 43.0057C40.1678 42.5009 39.893 41.9672 39.5969 41.447C39.5147 41.3026 39.5418 41.1745 39.6832 41.0988C39.8331 41.0187 39.9484 41.0962 40.0251 41.2323C40.2008 41.5443 40.368 41.8613 40.5495 42.1699C41.2725 43.399 42.1117 44.5432 43.0999 45.5718C43.559 46.0496 44.0506 46.4957 44.521 46.9632C44.7125 47.1533 44.3945 47.5212 44.1523 47.2944Z" fill="#0478B2"/>
<path d="M44.3771 55.3524C44.3819 55.5558 44.2429 55.655 44.0496 55.6052C43.8408 55.5514 43.6351 55.4857 43.4275 55.4269C42.6154 55.1967 41.7836 55.1159 40.9433 55.0782C39.8457 55.0291 38.7549 55.1065 37.6653 55.2189C37.4437 55.2418 37.2245 55.2857 37.0041 55.3178C36.7835 55.3499 36.659 55.2822 36.6427 55.1243C36.6251 54.9548 36.7192 54.8776 36.9393 54.8404C37.9765 54.6644 39.0237 54.5811 40.0722 54.5953C40.9553 54.6073 41.8407 54.6715 42.7187 54.7703C43.1881 54.8231 43.6452 54.9932 44.1052 55.12C44.2339 55.1556 44.3774 55.2012 44.3771 55.3524Z" fill="#0478B2"/>
<path d="M39.4901 51.9866C39.4906 51.9735 39.5016 51.9633 39.5146 51.9638C40.3639 51.996 41.2156 51.9983 42.0611 52.072C42.731 52.1304 43.4049 52.2324 44.0552 52.3999C44.7292 52.5736 45.3782 52.8456 46.0349 53.0835C46.1713 53.1329 46.2462 53.2519 46.1751 53.3992C46.1051 53.5441 45.9859 53.5787 45.8293 53.5171C45.4407 53.364 45.052 53.2097 44.6571 53.0742C43.8231 52.7879 42.9614 52.6133 42.0841 52.56C41.1564 52.5036 40.225 52.5068 39.2956 52.4738C39.1982 52.4703 39.0631 52.4244 39.0156 52.352C38.9131 52.196 39.024 52.0251 39.214 52.0104C39.2978 52.0039 39.3824 52.0083 39.4667 52.009C39.4793 52.0092 39.4897 51.9992 39.4901 51.9866Z" fill="#0478B2"/>
<path d="M23.8393 54.6077C23.7347 54.5119 23.6314 54.4232 23.5363 54.3302C23.2854 54.085 23.7245 53.8461 23.9313 54.0393C24.764 54.8168 25.6632 55.5067 26.6466 56.0828C27.4486 56.5526 28.2849 56.9499 29.171 57.2373C29.2331 57.2575 29.2951 57.279 29.3553 57.3043C29.489 57.3602 29.5883 57.4553 29.5314 57.6048C29.477 57.7481 29.3553 57.8118 29.1948 57.7538C28.8815 57.6409 28.5646 57.5372 28.2552 57.4147C27.336 57.051 26.4651 56.5913 25.6553 56.0258C25.122 55.6534 24.6148 55.2434 24.1029 54.8412C23.9171 54.6952 24.0991 54.8455 23.8393 54.6077Z" fill="#0478B2"/>
<path d="M29.1205 35.795C29.4966 35.0919 29.9704 34.4714 30.6263 33.9996C31.2737 33.534 31.9974 33.3069 32.7871 33.273C32.9503 33.2661 33.0686 33.2696 33.2768 33.2822C33.4288 33.2914 33.5683 33.3129 33.689 33.323C34.1617 33.3624 34.1749 33.8829 33.6437 33.826C33.2061 33.7792 32.7742 33.7287 32.3326 33.8023C31.5768 33.9283 30.9493 34.2862 30.4144 34.8204C30.0049 35.2296 29.6944 35.7078 29.4509 36.2314C29.3368 36.4773 29.2158 36.5275 29.0918 36.4689C28.8489 36.3543 28.9817 36.0547 29.1205 35.795Z" fill="#0478B2"/>
<path d="M40.1228 57.6976C39.1749 57.6686 38.2359 57.76 37.3027 57.9183C36.9027 57.9862 36.504 58.0633 36.1055 58.1395C35.9166 58.1756 35.7715 58.1112 35.7473 57.962C35.7183 57.7836 35.8144 57.7007 35.9812 57.6651C37.1185 57.4227 38.2654 57.2517 39.429 57.2204C40.0191 57.2045 40.6102 57.229 41.2005 57.2185C41.3907 57.2151 41.5179 57.362 41.513 57.4735C41.5066 57.6195 41.386 57.7003 41.1861 57.6987C40.8317 57.6953 40.4773 57.6976 40.1228 57.6976Z" fill="#0478B2"/>
<path d="M44.9639 37.2125C45.0751 37.0747 45.3151 37.1707 45.3997 37.3262C45.7575 37.9837 46.0873 38.6573 46.4638 39.3037C46.862 39.9869 47.366 40.5957 47.912 41.1681C47.9618 41.2202 48.0075 41.2761 48.0558 41.3298C48.1584 41.4434 48.1763 41.5714 48.0684 41.6796C47.96 41.7882 47.8278 41.7829 47.7245 41.6611C47.2658 41.1195 46.7696 40.6038 46.3649 40.0243C45.9339 39.4073 45.5867 38.7313 45.2117 38.076C45.1085 37.8958 45.0318 37.6999 44.9522 37.5072C44.9029 37.3878 44.907 37.283 44.9639 37.2125Z" fill="#0478B2"/>
<path d="M33.3589 58.4002C32.443 58.429 31.543 58.286 30.6432 58.146C30.5146 58.126 30.3883 58.0868 30.2635 58.048C30.1324 58.0074 30.0404 57.9211 30.073 57.7743C30.1056 57.6277 30.213 57.5552 30.365 57.5815C30.6034 57.6227 30.8398 57.6758 31.078 57.7186C32.1926 57.9192 33.313 57.9938 34.4424 57.8731C34.5138 57.8654 34.5875 57.8578 34.6581 57.8664C34.7769 57.8807 34.8667 57.9331 34.8778 58.0717C34.8883 58.2023 34.8422 58.3018 34.7094 58.3156C34.3648 58.3513 34.0191 58.3749 33.6735 58.3991C33.5692 58.4064 33.4638 58.4002 33.3589 58.4002Z" fill="#0478B2"/>
<path d="M35.8079 28.7238C36.803 28.8184 37.6709 29.2165 38.4257 29.8558C38.701 30.089 38.9325 30.3747 39.1781 30.6419C39.2833 30.7561 39.285 30.8826 39.1553 30.9834C39.022 31.0869 38.8918 31.0566 38.795 30.93C38.3169 30.3039 37.7105 29.8437 36.9944 29.5238C36.5969 29.3462 36.1851 29.2254 35.7468 29.2006C35.6601 29.1957 35.555 29.1749 35.496 29.1205C35.4402 29.069 35.3923 28.9471 35.4167 28.8869C35.4456 28.8154 35.5507 28.7659 35.6325 28.7281C35.6812 28.7055 35.7488 28.7238 35.8079 28.7238Z" fill="#0478B2"/>
<path d="M45.1546 47.5205C45.8573 48.0161 46.5508 48.5247 47.2611 49.0089C47.5614 49.2135 47.8951 49.3694 48.2147 49.5454C48.3504 49.6199 48.4336 49.7183 48.3693 49.8795C48.3128 50.0211 48.1659 50.0649 48.0026 49.9823C46.8624 49.4053 45.7996 48.7087 44.8316 47.8808C44.655 47.7298 44.9487 47.3754 45.1546 47.5205Z" fill="#0478B2"/>
<path d="M45.6114 46.2147C45.7518 46.2926 45.8758 46.4026 46.0007 46.506C46.8673 47.2238 47.7974 47.8452 48.7967 48.3632C48.854 48.393 48.9329 48.4259 48.9512 48.4758C48.9819 48.5594 49.0103 48.6863 48.9687 48.7428C48.9216 48.8068 48.782 48.8589 48.7081 48.8355C48.5304 48.7794 48.3646 48.6814 48.1992 48.5911C47.3204 48.1119 46.5021 47.543 45.7254 46.9131C44.9787 46.4101 45.3641 46.0774 45.6114 46.2147Z" fill="#0478B2"/>
<path d="M40.2695 55.873C41.1474 55.9026 42.0226 55.9395 42.8823 56.141C43.0413 56.1782 43.155 56.2418 43.1392 56.4209C43.1256 56.5749 42.9836 56.6583 42.795 56.6131C41.8179 56.3789 40.8239 56.3712 39.828 56.3764C39.7494 56.3768 39.6488 56.3603 39.5981 56.3109C39.543 56.257 39.4976 56.1459 39.5158 56.0778C39.5339 56.0103 39.6302 55.9307 39.7033 55.9177C39.8889 55.8845 40.0804 55.8856 40.2695 55.873Z" fill="#0478B2"/>
<path d="M28.7181 58.8958C28.6529 58.9582 28.5445 58.9725 28.462 58.9356C27.8907 58.6812 27.3158 58.4342 26.7505 58.1668C26.4088 58.0052 26.0794 57.8166 25.7499 57.6306C25.5644 57.5259 25.5136 57.3908 25.5868 57.2658C25.6628 57.1362 25.7979 57.1172 25.9853 57.211C26.5806 57.5087 27.1723 57.8137 27.7725 58.1012C28.0248 58.2221 28.2929 58.3116 28.5577 58.4044C28.8202 58.4965 28.89 58.6593 28.7367 58.8745C28.7313 58.8821 28.725 58.8892 28.7181 58.8958Z" fill="#0478B2"/>
<path d="M51.0643 38.4736C51.1775 38.5843 51.2366 38.8584 51.0816 38.8912C50.9845 38.9117 50.8454 38.909 50.7749 38.8525C50.3538 38.5154 49.935 38.1733 49.5402 37.8063C49.2748 37.5595 49.0471 37.2714 48.8086 36.9966C48.6691 36.8357 48.671 36.71 48.7963 36.6069C48.9263 36.5001 49.03 36.5278 49.1811 36.685C49.6091 37.1305 50.0355 37.5777 50.4761 38.0104C50.6419 38.1732 50.8484 38.2937 51.0293 38.442C51.0414 38.452 51.053 38.4625 51.0643 38.4736Z" fill="#0478B2"/>
<path d="M48.3542 44.9757C48.9091 45.3034 49.4591 45.6396 50.0153 45.9649C50.1587 46.0488 50.2205 46.1533 50.1503 46.3013C50.0742 46.4619 49.9255 46.4585 49.7967 46.3872C49.324 46.1258 48.8559 45.8562 48.3901 45.5826C48.287 45.5219 48.1883 45.4536 48.0837 45.38C47.7272 45.1293 48.1038 44.7836 48.3542 44.9757Z" fill="#0478B2"/>
<path d="M47.8601 46.2385C48.3737 46.5379 48.8839 46.8432 49.3992 47.1395C49.5472 47.2247 49.6269 47.3366 49.5431 47.4907C49.4598 47.6441 49.3138 47.6488 49.1688 47.5645C48.65 47.263 48.1276 46.967 47.6181 46.6502C47.3091 46.4581 47.507 46.0326 47.8601 46.2385Z" fill="#0478B2"/>
<path d="M23.4155 55.3428C23.5309 55.4393 23.6478 55.5378 23.7677 55.6325C24.0948 55.8909 24.4216 56.1497 24.7543 56.4009C24.9562 56.5534 25.0037 56.6608 24.9011 56.7971C24.8003 56.9311 24.658 56.9356 24.4751 56.7922C24.0089 56.4265 23.5474 56.0546 23.0831 55.6864C22.8777 55.5234 23.2558 55.2092 23.4155 55.3428Z" fill="#0478B2"/>
<path d="M40.0305 46.0178C40.1172 46.1364 40.119 46.3533 39.9866 46.4167C39.9822 46.4188 39.9777 46.4206 39.9731 46.4219C39.8962 46.4452 39.764 46.4279 39.7144 46.3742C39.5215 46.1646 39.3472 45.9371 39.1749 45.7095C39.018 45.5021 38.8708 45.2873 38.7237 45.0727C38.6876 45.02 38.6555 44.958 38.6448 44.8962C38.6249 44.7826 38.634 44.6751 38.7627 44.6148C38.8909 44.5548 38.9805 44.6101 39.0515 44.7044C39.2352 44.9486 39.411 45.1986 39.5933 45.4438C39.7369 45.6367 39.8879 45.8242 40.0305 46.0178Z" fill="#0478B2"/>
<path d="M48.1328 20.7538C48.1356 20.7507 48.1405 20.7505 48.1435 20.7535C48.2367 20.8457 48.3301 20.9375 48.4227 21.0301C48.5341 21.1417 48.6597 21.1997 48.8101 21.1135C48.9101 21.0562 48.9698 21.1014 49.021 21.1784C49.219 21.4764 49.4208 21.772 49.6096 22.0757C49.6875 22.201 49.6605 22.3271 49.5332 22.4188C49.4085 22.5086 49.2976 22.4594 49.2259 22.3568C48.8567 21.8288 48.4959 21.2949 48.1322 20.763C48.1303 20.7601 48.1305 20.7564 48.1328 20.7538Z" fill="#0478B2"/>
<path d="M50.6048 43.4642C50.6251 43.6514 50.4414 43.7593 50.2621 43.6639C50.0268 43.5389 49.801 43.3938 49.5802 43.2441C49.3814 43.1094 49.1855 42.9672 49.0083 42.8064C48.9518 42.7551 48.9294 42.6265 48.9476 42.5461C48.9611 42.4865 49.062 42.3894 49.1308 42.4062C49.5333 42.5052 50.587 43.2997 50.6048 43.4642Z" fill="#0478B2"/>
<path d="M37.9031 45.6517C37.9984 45.5936 38.1388 45.6125 38.2105 45.6981C38.3226 45.8317 38.4425 45.9667 38.5153 46.1218C38.5497 46.1951 38.5147 46.353 38.4538 46.4043C38.395 46.4537 38.2233 46.4568 38.1697 46.4069C38.0355 46.2818 37.9193 46.1259 37.8349 45.9622C37.7691 45.8345 37.802 45.7134 37.9031 45.6517Z" fill="#0478B2"/>
<path d="M30.8333 39.9512C30.8154 39.9492 30.8026 39.933 30.8048 39.9151C30.8739 39.3485 30.9042 38.7732 31.0273 38.2185C31.1948 37.4635 31.4769 36.7455 32.0581 36.1907C32.364 35.8987 32.7314 35.8561 32.9367 36.1234C33.0453 36.2646 33.1242 36.4641 33.1305 36.6403C33.1408 36.9309 33.0926 37.2257 33.0485 37.5155C32.9983 37.8452 32.9168 38.17 32.8647 38.4995C32.7727 39.0809 32.693 39.6644 32.607 40.2468C32.5994 40.2985 32.5803 40.3484 32.5709 40.4C32.5425 40.5575 32.4396 40.5994 32.297 40.5775C32.1443 40.5541 32.1065 40.4374 32.1245 40.3149C32.2404 39.5253 32.3626 38.7365 32.4868 37.9482C32.5379 37.6246 32.6011 37.3031 32.6543 36.9798C32.667 36.9028 32.6757 36.8202 32.6614 36.7447C32.6328 36.5929 32.4173 36.501 32.3135 36.6153C31.965 36.9983 31.7559 37.459 31.5969 37.9465C31.3047 38.8432 31.2734 39.7639 31.3807 40.6879C31.4391 41.1904 31.5256 41.6944 31.7998 42.1438C32.1041 42.6425 32.5591 42.4794 32.7511 42.1072C32.8901 41.8377 33.0015 41.547 33.0789 41.2537C33.2638 40.5524 33.4471 39.8488 33.5819 39.1367C33.6849 38.5926 33.7134 38.0342 33.7734 37.482C33.7856 37.3689 33.7662 37.2446 33.8081 37.1451C33.835 37.0811 33.95 37.0152 34.0209 37.0199C34.0896 37.0245 34.1992 37.1109 34.2092 37.1744C34.2449 37.3979 34.2762 37.6302 34.2532 37.8533C34.2038 38.3346 34.1408 38.8167 34.0443 39.2905C33.9297 39.8531 33.7769 40.4081 33.6349 40.9649C33.5478 41.306 33.4661 41.65 33.3521 41.9824C33.2389 42.3124 33.0692 42.6187 32.7478 42.7978C32.2167 43.0936 31.6433 42.8956 31.3474 42.3339C30.9965 41.6677 30.9118 40.9436 30.8631 40.21C30.8582 40.1348 30.8613 40.059 30.8621 39.9834C30.8623 39.9668 30.8498 39.953 30.8333 39.9512Z" fill="#0478B2"/>
<path d="M16.748 27.2871C16.7153 27.2871 16.682 27.2803 16.6503 27.2659C16.5315 27.2118 16.4789 27.0717 16.533 26.9529C18.9292 21.6833 25.3515 15.4088 30.5571 13.2513C32.9842 12.2455 35.8326 11.8331 38.578 12.0903C41.6123 12.3745 44.3967 13.4502 46.6299 15.201C46.7327 15.2816 46.7506 15.4302 46.6701 15.5329C46.5895 15.6356 46.4409 15.6536 46.3382 15.573C41.525 11.7995 35.0348 11.9072 30.7381 13.6881C25.6258 15.8068 19.3177 21.9711 16.9634 27.1486C16.9236 27.2357 16.8378 27.2871 16.748 27.2871Z" fill="#0478B2"/>
<path d="M50.9531 42.5328C50.9106 42.5328 50.8675 42.5214 50.8287 42.4973C49.0552 41.398 47.8451 40.2043 46.9047 38.6271C45.9594 37.0417 45.2018 34.9273 44.4479 31.7718C44.4176 31.6448 44.496 31.5173 44.6229 31.487C44.7499 31.4567 44.8774 31.535 44.9077 31.662C46.3278 37.607 47.7694 40.0447 51.0777 42.0955C51.1886 42.1644 51.2229 42.3099 51.154 42.421C51.1094 42.4931 51.0321 42.5328 50.9531 42.5328Z" fill="#0478B2"/>
</svg>
