<svg width="16" height="14" viewBox="0 0 16 14" fill="none" xmlns="http://www.w3.org/2000/svg">
<path d="M11.1799 4.61255C11.1839 4.69352 11.1892 4.77392 11.1951 4.85417C11.1941 5.07567 11.2145 5.30273 11.2309 5.52033C11.2402 5.64317 11.327 5.74511 11.457 5.74639C12.4827 5.75655 13.5082 5.72014 14.5339 5.71817C14.6533 5.71795 14.749 5.61867 14.7514 5.50067C14.7578 5.19111 14.7546 4.88173 14.7506 4.5722C14.7491 4.4562 14.6526 4.35399 14.5339 4.35549C13.4822 4.36895 12.4313 4.40242 11.3795 4.41289C11.2756 4.41395 11.1745 4.50361 11.1799 4.61255Z" fill="black"/>
<path d="M15.7171 2.29355C12.2364 2.27948 8.75602 2.25795 5.27517 2.26414C4.78061 2.26501 4.28602 2.27195 3.79149 2.27655C3.3377 2.28076 2.88364 2.27667 2.43077 2.30467C2.44252 1.68448 2.45767 1.06439 2.46964 0.444764C2.47233 0.305639 2.33883 0.148951 2.19011 0.165233C1.73555 0.21492 1.27964 0.268139 0.868705 0.483889C0.509736 0.672295 0.219705 0.982733 0.101392 1.37467C-0.0341704 1.82376 0.0224233 2.33776 0.0205796 2.80033C0.0186421 3.28605 0.0167671 3.7718 0.0148608 4.25751C0.00767333 6.0888 -0.0194204 7.91942 0.0244858 9.75048C0.0361108 10.2351 0.0497671 10.7198 0.0577046 11.2046C0.0654233 11.6758 0.0493296 12.1479 0.0837046 12.618C0.0854546 12.642 0.125673 13.2369 0.599767 13.5702C0.998705 13.8508 1.55208 13.8268 2.01611 13.8271C3.1053 13.8279 4.19445 13.8384 5.28361 13.8355C7.48264 13.8297 9.68164 13.8325 11.8807 13.8299C13.11 13.8285 14.3395 13.8173 15.5689 13.8203C15.5784 13.8203 15.5875 13.8198 15.5965 13.819C15.7364 13.819 15.8925 13.7575 15.8951 13.5749C15.936 10.7033 15.9566 7.8313 15.9848 4.95948C15.9926 4.16514 15.9959 3.37076 16 2.57639C16.0008 2.42305 15.8698 2.29417 15.7171 2.29355ZM0.55658 10.2016C0.55308 9.38242 0.543392 8.5632 0.539517 7.74398C0.530798 5.90633 0.547861 4.06767 0.567048 2.23011C0.571423 1.81008 0.575048 1.38786 0.933705 1.10605C1.20855 0.890076 1.56305 0.810264 1.90939 0.760545C1.90336 2.08576 1.91064 3.41239 1.90642 4.73801C1.90195 6.14105 1.87852 7.54389 1.87655 8.94698C1.87558 9.63214 1.87595 10.3173 1.87742 11.0025C1.39805 10.9485 0.908111 11.059 0.561173 11.3964C0.557392 10.9982 0.558267 10.5999 0.55658 10.2016ZM15.3894 11.1919C15.3867 11.8942 15.3847 12.5965 15.3839 13.2988C11.2665 13.3227 7.14867 13.317 3.0313 13.3355C2.7352 13.3368 2.43911 13.338 2.14305 13.3393C1.87058 13.3405 1.59086 13.3561 1.32005 13.3188C0.737736 13.2385 0.513017 12.7826 0.594923 12.3577C0.63008 12.1753 0.71158 11.9986 0.827798 11.8537C1.12827 11.4791 1.65658 11.4696 2.08174 11.6066C2.25411 11.6621 2.43367 11.5132 2.43286 11.3391C2.4198 8.52264 2.38052 5.70592 2.42089 2.88958C2.42161 2.83976 2.42264 2.78998 2.42342 2.74017C3.25767 2.79704 4.1018 2.77333 4.93717 2.7837C5.8103 2.79455 6.68358 2.79664 7.55674 2.80339C9.27774 2.8167 10.9987 2.82873 12.7197 2.84201C13.6237 2.84898 14.5278 2.85076 15.4318 2.85736C15.4062 5.63545 15.4001 8.4137 15.3894 11.1919Z" fill="black"/>
<path d="M9.04939 8.34216C9.04939 8.34178 9.04939 8.34141 9.04936 8.34103C9.0497 8.07969 9.04892 7.81856 9.05064 7.55822C9.05208 7.3415 9.05417 7.12481 9.05417 6.90809C9.05417 6.59947 8.95101 6.54956 8.7297 6.35784C8.32979 6.01144 7.93167 5.66309 7.53367 5.31453C7.09308 4.92866 6.65167 4.54347 6.19851 4.17234C6.15739 4.13869 6.11286 4.12275 6.0692 4.12009C6.01051 4.1105 5.94704 4.12384 5.89042 4.17234C5.11236 4.83912 4.37001 5.54638 3.60967 6.233C3.45345 6.37406 3.16464 6.54166 3.15839 6.76691C3.15261 6.97519 3.16023 7.18481 3.16161 7.39319C3.16467 7.86494 3.16458 8.33697 3.17323 8.80866C3.18036 9.19644 3.18679 9.58278 3.21567 9.96863C3.22001 10.2343 3.22808 10.5 3.22808 10.7658C3.22808 10.8884 3.30795 10.9338 3.34848 10.9438C3.79426 11.0539 4.2892 11.0186 4.74739 11.0181C5.21736 11.0176 5.68723 11.0203 6.1572 11.0218C6.61808 11.0233 7.07892 11.0267 7.53979 11.0298C7.76383 11.0313 7.98786 11.0329 8.21186 11.0344C8.45114 11.036 8.69939 11.0528 8.93545 11.0096C9.01829 10.9944 9.08895 10.9048 9.08895 10.7658C9.08895 10.2322 9.07139 9.69875 9.06286 9.16522C9.05848 8.89091 9.05714 8.61634 9.04939 8.34216ZM8.24245 10.6088C8.01842 10.6097 7.79439 10.6105 7.57039 10.6113C7.44023 10.6118 7.31007 10.6123 7.17992 10.6128C7.21073 10.2203 7.19145 9.81803 7.19458 9.42697C7.19836 8.95525 7.20658 8.48331 7.20448 8.01159C7.20389 7.87825 7.08936 7.75513 6.95217 7.75928C6.33442 7.77794 5.71673 7.79759 5.09904 7.81788C4.97904 7.82181 4.8692 7.9185 4.87245 8.04447C4.88458 8.51303 4.89117 8.9815 4.89714 9.45019C4.90008 9.67938 4.90439 9.90834 4.91173 10.1374C4.91667 10.2917 4.91011 10.4574 4.93129 10.6151C4.88058 10.615 4.82986 10.6151 4.77914 10.6149C4.39486 10.6134 4.00095 10.6159 3.59786 10.5997C3.58539 10.1161 3.54664 7.28184 3.55514 6.81959C4.39776 6.09603 5.20311 5.33006 6.04798 4.60906C6.93211 5.33012 7.77704 6.09787 8.65898 6.82156C8.66958 7.39091 8.67736 7.96031 8.68529 8.52972C8.68936 8.82116 8.69351 9.11288 8.70548 9.40409C8.70567 9.80631 8.7092 10.2085 8.71417 10.6107C8.55717 10.6018 8.39786 10.6082 8.24245 10.6088Z" fill="black"/>
<path d="M9.96766 4.31718C9.78641 4.31771 9.56735 4.3239 9.42544 4.44853C9.38963 4.47996 9.39579 4.55399 9.44166 4.57428C9.5971 4.64303 9.77785 4.6194 9.94582 4.62524C9.88897 5.09606 9.8946 5.57615 9.87985 6.04921C9.86344 6.57621 9.85025 7.10337 9.84285 7.63059C9.83544 8.15771 9.82763 8.68478 9.82532 9.21196C9.82319 9.69821 9.79969 10.188 9.81291 10.6745C9.70544 10.6794 9.59194 10.6948 9.50816 10.7552C9.47007 10.7827 9.44557 10.8492 9.49141 10.8852C9.60219 10.9721 9.74669 10.9864 9.88419 10.9955C10.0299 11.0051 10.1941 11.0385 10.308 10.9305C10.3583 10.8829 10.3547 10.7996 10.308 10.7513C10.2503 10.6917 10.1748 10.6733 10.0954 10.6691C10.1239 10.185 10.1164 9.69637 10.13 9.21199C10.1444 8.69546 10.1536 8.17887 10.1631 7.66224C10.1725 7.14574 10.1771 6.62909 10.1778 6.11249C10.1783 5.62809 10.2029 5.1349 10.1605 4.65112C10.2819 4.67053 10.403 4.68631 10.515 4.63809C10.593 4.60453 10.5909 4.49196 10.5406 4.43915C10.4094 4.30121 10.1466 4.31662 9.96766 4.31718Z" fill="black"/>
<path d="M8.84694 11.3539C8.80769 11.2867 8.70406 11.2846 8.66531 11.3539C8.60753 11.4573 8.59628 11.5844 8.59456 11.7094C8.18059 11.6746 7.74772 11.7143 7.33394 11.7194C6.89091 11.7248 6.44797 11.718 6.00497 11.7236C5.57253 11.7291 5.14009 11.7339 4.70763 11.7367C4.48609 11.7381 4.26463 11.7427 4.04313 11.7478C3.89134 11.7512 3.72516 11.7478 3.56881 11.7717C3.57844 11.6556 3.59403 11.538 3.57959 11.4255C3.56216 11.2895 3.42081 11.2987 3.37091 11.3696C3.37075 11.3693 3.37063 11.3691 3.37047 11.3688C3.27578 11.5224 3.26278 11.7296 3.25481 11.9067C3.24663 12.0879 3.23869 12.2987 3.32322 12.4629C3.39644 12.6051 3.57588 12.517 3.59269 12.3899C3.607 12.2816 3.58738 12.1676 3.57369 12.0548C3.71872 12.0734 3.871 12.0692 4.01153 12.0697C4.23303 12.0707 4.45456 12.0709 4.67603 12.0679C5.11903 12.0618 5.562 12.0576 6.005 12.0543C6.43756 12.051 6.86978 12.0353 7.30234 12.0318C7.72497 12.0285 8.16813 12.0602 8.59025 12.0166C8.58447 12.1607 8.58422 12.3073 8.67916 12.4206C8.71816 12.4671 8.81216 12.4685 8.85069 12.4206C8.96878 12.2736 8.93369 12.0809 8.92731 11.9018C8.92103 11.7264 8.93778 11.5095 8.84694 11.3539Z" fill="black"/>
<path d="M14.322 6.58677C14.107 6.48818 13.8513 6.48427 13.6182 6.46786C13.3627 6.44986 13.1054 6.44533 12.8493 6.45239C12.6032 6.45921 12.3567 6.47183 12.1119 6.49871C11.8713 6.52511 11.6126 6.54305 11.3944 6.65571C11.3284 6.68977 11.3412 6.80333 11.4156 6.81843C11.6434 6.86461 11.8821 6.82883 12.1119 6.81696C12.3576 6.80427 12.6033 6.7933 12.8493 6.79239C13.0955 6.79152 13.3415 6.79605 13.5875 6.80477C13.8178 6.81293 14.0669 6.85343 14.2936 6.80355C14.3882 6.78274 14.4149 6.62936 14.322 6.58677Z" fill="black"/>
<path d="M13.5469 7.66917C13.3942 7.59151 13.2213 7.58726 13.0531 7.57501C12.8567 7.5607 12.6589 7.55754 12.4622 7.5632C12.2756 7.56857 12.0887 7.57717 11.903 7.59704C11.7292 7.61567 11.5478 7.62907 11.3944 7.71967C11.3263 7.75988 11.3439 7.85901 11.4157 7.88238C11.5722 7.93342 11.7408 7.91745 11.903 7.91326C12.0894 7.90845 12.2757 7.90235 12.4622 7.90317C12.6385 7.90395 12.8147 7.90642 12.9909 7.90992C13.1644 7.91335 13.351 7.9382 13.5186 7.88592C13.6103 7.85729 13.6419 7.71748 13.5469 7.66917Z" fill="black"/>
</svg>
