<svg width="80" height="40" viewBox="0 0 80 40" fill="none" xmlns="http://www.w3.org/2000/svg">
<g clip-path="url(#clip0_14242_16557)">
<path d="M47.5 26.9998H32.5C30.019 26.9998 28 24.9808 28 22.4998V12.5608C28 11.0638 28.741 9.66884 29.983 8.83184L37.483 3.77084C39.01 2.73784 40.988 2.73784 42.517 3.77084L50.016 8.83184C51.258 9.66984 51.999 11.0638 51.999 12.5608V22.4998C51.999 24.9808 49.981 26.9998 47.5 26.9998ZM40 3.99584C39.318 3.99584 38.637 4.19684 38.043 4.59884L30.542 9.65884C29.576 10.3108 29 11.3948 29 12.5598V22.4988C29 24.4288 30.57 25.9988 32.5 25.9988H47.5C49.43 25.9988 51 24.4288 51 22.4988V12.5608C51 11.3958 50.424 10.3118 49.458 9.65984L41.958 4.59884C41.363 4.19784 40.682 3.99584 40 3.99584Z" fill="#C7C7C7"/>
</g>
<path d="M31.14 30.03V37H30.23V33.84H26.68V37H25.77V30.03H26.68V33.09H30.23V30.03H31.14ZM35.0838 37.09C34.5705 37.09 34.1038 36.9733 33.6838 36.74C33.2705 36.5067 32.9438 36.1767 32.7038 35.75C32.4705 35.3167 32.3538 34.8167 32.3538 34.25C32.3538 33.69 32.4738 33.1967 32.7138 32.77C32.9605 32.3367 33.2938 32.0067 33.7138 31.78C34.1338 31.5467 34.6038 31.43 35.1238 31.43C35.6438 31.43 36.1138 31.5467 36.5338 31.78C36.9538 32.0067 37.2838 32.3333 37.5238 32.76C37.7705 33.1867 37.8938 33.6833 37.8938 34.25C37.8938 34.8167 37.7672 35.3167 37.5138 35.75C37.2672 36.1767 36.9305 36.5067 36.5038 36.74C36.0772 36.9733 35.6038 37.09 35.0838 37.09ZM35.0838 36.29C35.4105 36.29 35.7172 36.2133 36.0038 36.06C36.2905 35.9067 36.5205 35.6767 36.6938 35.37C36.8738 35.0633 36.9638 34.69 36.9638 34.25C36.9638 33.81 36.8772 33.4367 36.7038 33.13C36.5305 32.8233 36.3038 32.5967 36.0238 32.45C35.7438 32.2967 35.4405 32.22 35.1138 32.22C34.7805 32.22 34.4738 32.2967 34.1938 32.45C33.9205 32.5967 33.7005 32.8233 33.5338 33.13C33.3672 33.4367 33.2838 33.81 33.2838 34.25C33.2838 34.6967 33.3638 35.0733 33.5238 35.38C33.6905 35.6867 33.9105 35.9167 34.1838 36.07C34.4572 36.2167 34.7572 36.29 35.0838 36.29ZM45.6803 31.42C46.107 31.42 46.487 31.51 46.8203 31.69C47.1536 31.8633 47.417 32.1267 47.6103 32.48C47.8036 32.8333 47.9003 33.2633 47.9003 33.77V37H47.0003V33.9C47.0003 33.3533 46.8636 32.9367 46.5903 32.65C46.3236 32.3567 45.9603 32.21 45.5003 32.21C45.027 32.21 44.6503 32.3633 44.3703 32.67C44.0903 32.97 43.9503 33.4067 43.9503 33.98V37H43.0503V33.9C43.0503 33.3533 42.9136 32.9367 42.6403 32.65C42.3736 32.3567 42.0103 32.21 41.5503 32.21C41.077 32.21 40.7003 32.3633 40.4203 32.67C40.1403 32.97 40.0003 33.4067 40.0003 33.98V37H39.0903V31.52H40.0003V32.31C40.1803 32.0233 40.4203 31.8033 40.7203 31.65C41.027 31.4967 41.3636 31.42 41.7303 31.42C42.1903 31.42 42.597 31.5233 42.9503 31.73C43.3036 31.9367 43.567 32.24 43.7403 32.64C43.8936 32.2533 44.147 31.9533 44.5003 31.74C44.8536 31.5267 45.247 31.42 45.6803 31.42ZM54.393 34.05C54.393 34.2233 54.383 34.4067 54.363 34.6H49.983C50.0164 35.14 50.1997 35.5633 50.533 35.87C50.873 36.17 51.283 36.32 51.763 36.32C52.1564 36.32 52.483 36.23 52.743 36.05C53.0097 35.8633 53.1964 35.6167 53.303 35.31H54.283C54.1364 35.8367 53.843 36.2667 53.403 36.6C52.963 36.9267 52.4164 37.09 51.763 37.09C51.243 37.09 50.7764 36.9733 50.363 36.74C49.9564 36.5067 49.6364 36.1767 49.403 35.75C49.1697 35.3167 49.053 34.8167 49.053 34.25C49.053 33.6833 49.1664 33.1867 49.393 32.76C49.6197 32.3333 49.9364 32.0067 50.343 31.78C50.7564 31.5467 51.2297 31.43 51.763 31.43C52.283 31.43 52.743 31.5433 53.143 31.77C53.543 31.9967 53.8497 32.31 54.063 32.71C54.283 33.1033 54.393 33.55 54.393 34.05ZM53.453 33.86C53.453 33.5133 53.3764 33.2167 53.223 32.97C53.0697 32.7167 52.8597 32.5267 52.593 32.4C52.333 32.2667 52.043 32.2 51.723 32.2C51.263 32.2 50.8697 32.3467 50.543 32.64C50.223 32.9333 50.0397 33.34 49.993 33.86H53.453Z" fill="#C7C7C7"/>
<defs>
<clipPath id="clip0_14242_16557">
<rect width="24" height="24" fill="white" transform="translate(28 3)"/>
</clipPath>
</defs>
</svg>
