<svg width="29" height="29" viewBox="0 0 29 29" fill="none" xmlns="http://www.w3.org/2000/svg">
<rect x="0.90625" y="0.896484" width="28" height="28" rx="4" fill="url(#paint0_linear_12641_12585)"/>
<g clip-path="url(#clip0_12641_12585)">
<path d="M14.9069 14.4827C14.4173 14.4827 13.9577 14.2919 13.6115 13.946L9.73438 10.069L10.9127 8.89062L14.7902 12.7677C14.8706 12.8477 14.9435 12.8477 15.0235 12.7677L18.9015 8.89062L20.0798 10.069L16.2023 13.946C15.856 14.2923 15.3965 14.4827 14.9069 14.4827Z" fill="white"/>
<path d="M17.9968 17.8917L17.7585 19.56C17.7043 19.94 17.936 20.3025 18.3035 20.4125L21.6726 21.4233C22.0151 21.5263 22.3835 21.3813 22.5647 21.0729L23.9147 18.7712C24.2585 18.1854 24.0326 17.43 23.4205 17.1358C21.9222 16.4171 18.9614 15.3125 14.9089 15.3125C10.8568 15.3125 7.89554 16.4167 6.39721 17.1358C5.78512 17.4296 5.55971 18.1854 5.90304 18.7712L7.25304 21.0729C7.43387 21.3813 7.80262 21.5263 8.14512 21.4233L11.5143 20.4125C11.8818 20.3021 12.1135 19.9396 12.0593 19.56L11.8205 17.8904C11.7593 17.4608 12.0601 17.0621 12.491 17.0096C13.2405 16.9183 14.0476 16.8638 14.9085 16.8642C15.7685 16.8642 16.5764 16.9192 17.3268 17.0112C17.7576 17.0637 18.0585 17.4621 17.9968 17.8917Z" fill="white"/>
<path d="M20.3229 8.64648V12.8132L16.1562 8.64648H20.3229Z" fill="white"/>
</g>
<defs>
<linearGradient id="paint0_linear_12641_12585" x1="-16.778" y1="-16.0509" x2="31.3624" y2="41.1772" gradientUnits="userSpaceOnUse">
<stop stop-color="#971B47"/>
<stop offset="1" stop-color="#FF699F"/>
</linearGradient>
<clipPath id="clip0_12641_12585">
<rect width="20" height="20" fill="white" transform="translate(4.90625 4.89648)"/>
</clipPath>
</defs>
</svg>
