<svg width="29" height="28" viewBox="0 0 29 28" fill="none" xmlns="http://www.w3.org/2000/svg">
<rect x="0.980469" width="28" height="28" rx="4" fill="url(#paint0_linear_13232_11365)"/>
<g clip-path="url(#clip0_13232_11365)">
<path d="M14.9811 13.5862C14.4915 13.5862 14.0319 13.3954 13.6857 13.0496L9.80859 9.17247L10.9869 7.99414L14.8644 11.8712C14.9448 11.9512 15.0178 11.9512 15.0978 11.8712L18.9757 7.99414L20.154 9.17247L16.2765 13.0496C15.9303 13.3958 15.4707 13.5862 14.9811 13.5862Z" fill="white"/>
<path d="M18.0691 16.9959L17.8307 18.6642C17.7766 19.0442 18.0082 19.4067 18.3757 19.5167L21.7449 20.5276C22.0874 20.6305 22.4557 20.4855 22.637 20.1772L23.987 17.8755C24.3307 17.2897 24.1049 16.5342 23.4928 16.2401C21.9945 15.5213 19.0336 14.4167 14.9811 14.4167C10.9291 14.4167 7.96781 15.5209 6.46947 16.2401C5.85739 16.5338 5.63197 17.2897 5.97531 17.8755L7.32531 20.1772C7.50614 20.4855 7.87489 20.6305 8.21739 20.5276L11.5866 19.5167C11.9541 19.4063 12.1857 19.0438 12.1316 18.6642L11.8928 16.9947C11.8316 16.5651 12.1324 16.1663 12.5632 16.1138C13.3128 16.0226 14.1199 15.968 14.9807 15.9684C15.8407 15.9684 16.6486 16.0234 17.3991 16.1155C17.8299 16.168 18.1307 16.5663 18.0691 16.9959Z" fill="white"/>
<path d="M20.3971 7.75V11.9167L16.2305 7.75H20.3971Z" fill="white"/>
</g>
<defs>
<linearGradient id="paint0_linear_13232_11365" x1="-16.7037" y1="-16.9474" x2="31.4366" y2="40.2807" gradientUnits="userSpaceOnUse">
<stop stop-color="#971B47"/>
<stop offset="1" stop-color="#FF699F"/>
</linearGradient>
<clipPath id="clip0_13232_11365">
<rect width="20" height="20" fill="white" transform="translate(4.98047 4)"/>
</clipPath>
</defs>
</svg>
