<svg width="20" height="20" viewBox="0 0 20 20" fill="none" xmlns="http://www.w3.org/2000/svg">
<path d="M10 20C15.5228 20 20 15.5228 20 10C20 4.47715 15.5228 0 10 0C4.47715 0 0 4.47715 0 10C0 15.5228 4.47715 20 10 20Z" fill="white"/>
<path d="M10 6.62891C10.6904 6.62891 11.25 6.06926 11.25 5.37891C11.25 4.68855 10.6904 4.12891 10 4.12891C9.30964 4.12891 8.75 4.68855 8.75 5.37891C8.75 6.06926 9.30964 6.62891 10 6.62891Z" fill="#0B7AB2"/>
<path d="M10 15.8789C9.73478 15.8789 9.48043 15.7736 9.29289 15.586C9.10536 15.3985 9 15.1441 9 14.8789V9.87891C8.73478 9.87891 8.48043 9.77355 8.29289 9.58601C8.10536 9.39848 8 9.14412 8 8.87891C8 8.61369 8.10536 8.35934 8.29289 8.1718C8.48043 7.98426 8.73478 7.87891 9 7.87891H10C10.2652 7.87891 10.5196 7.98426 10.7071 8.1718C10.8946 8.35934 11 8.61369 11 8.87891V14.8789C11 15.1441 10.8946 15.3985 10.7071 15.586C10.5196 15.7736 10.2652 15.8789 10 15.8789Z" fill="#0B7AB2"/>
<path d="M11 15.8789H9C8.73478 15.8789 8.48043 15.7735 8.29289 15.586C8.10536 15.3985 8 15.1441 8 14.8789C8 14.6137 8.10536 14.3593 8.29289 14.1718C8.48043 13.9843 8.73478 13.8789 9 13.8789H11C11.2652 13.8789 11.5196 13.9843 11.7071 14.1718C11.8946 14.3593 12 14.6137 12 14.8789C12 15.1441 11.8946 15.3985 11.7071 15.586C11.5196 15.7735 11.2652 15.8789 11 15.8789Z" fill="#0B7AB2"/>
</svg>
