<svg width="26" height="29" viewBox="0 0 26 29" fill="none" xmlns="http://www.w3.org/2000/svg">
<path d="M19.7578 9.81565C19.4558 9.81565 19.2109 9.57076 19.2109 9.26877V5.5293C19.2109 5.22731 19.4558 4.98242 19.7578 4.98242C20.0598 4.98242 20.3047 5.22731 20.3047 5.5293V9.26877C20.3047 9.57076 20.0599 9.81565 19.7578 9.81565Z" fill="#C7C7C7"/>
<path d="M19.7578 4.31641C20.0598 4.31641 20.3047 4.07156 20.3047 3.76953C20.3047 3.4675 20.0598 3.22266 19.7578 3.22266C19.4558 3.22266 19.2109 3.4675 19.2109 3.76953C19.2109 4.07156 19.4558 4.31641 19.7578 4.31641Z" fill="#C7C7C7"/>
<path d="M25.5006 6.2453C25.5006 3.07731 22.9237 0.5 19.7564 0.5C18.4453 0.5 17.2355 0.941547 16.2677 1.68377H2.48243C1.38502 1.68377 0.492188 2.57654 0.492188 3.67401V23.5678C0.492188 24.6653 1.38502 25.5581 2.48243 25.5581H4.21772V26.5097C4.21772 27.6071 5.11055 28.5 6.20796 28.5H20.5066C21.604 28.5 22.4969 27.6072 22.4969 26.5097V18.9244C22.4969 18.6225 22.252 18.3776 21.95 18.3776C21.648 18.3776 21.4031 18.6225 21.4031 18.9244V26.5097C21.4031 27.004 21.0009 27.4062 20.5066 27.4062H6.20796C5.71364 27.4062 5.31147 27.0041 5.31147 26.5097V25.5581H16.7811C17.8785 25.5581 18.7714 24.6653 18.7714 23.5678V11.9061C19.0916 11.9616 19.4206 11.9906 19.7564 11.9906C20.3285 11.9906 20.8813 11.9065 21.4032 11.75V13.9801C21.4032 14.2821 21.648 14.527 21.95 14.527C22.252 14.527 22.4969 14.2821 22.4969 13.9801V11.2936C24.2848 10.3187 25.5006 8.42137 25.5006 6.2453ZM17.6777 23.5679C17.6777 24.0622 17.2755 24.4644 16.7811 24.4644H2.48243C1.98811 24.4644 1.58594 24.0623 1.58594 23.5679V3.67401C1.58594 3.17969 1.98811 2.77752 2.48243 2.77752H15.1793C14.4928 3.68166 14.0677 4.79455 14.0173 6.00266H4.70449C4.40251 6.00266 4.15762 6.24755 4.15762 6.54953V8.8592C4.15762 9.16119 4.40251 9.40608 4.70449 9.40608H14.5591C14.6834 9.40608 14.798 9.36457 14.8899 9.29468C15.5432 10.334 16.5199 11.1503 17.6777 11.6013V23.5679ZM14.0122 7.09641V8.31233H5.25137V7.09641H14.0122ZM19.7564 10.8968C17.1921 10.8968 15.1059 8.81015 15.1059 6.24525C15.1059 3.68041 17.1921 1.5937 19.7564 1.5937C22.3207 1.5937 24.4068 3.68035 24.4068 6.24525C24.4068 8.81015 22.3207 10.8968 19.7564 10.8968Z" fill="#C7C7C7"/>
<path d="M21.9519 16.9891C21.7266 16.9891 21.5201 16.8449 21.4407 16.6346C21.3591 16.4188 21.4259 16.1651 21.6052 16.0191C21.7849 15.8729 22.0435 15.8554 22.2405 15.9776C22.4372 16.0997 22.5378 16.3405 22.4846 16.5663C22.4271 16.8105 22.2032 16.9891 21.9519 16.9891Z" fill="#C7C7C7"/>
<path d="M14.5577 12.4023H4.70312C4.40114 12.4023 4.15625 12.1575 4.15625 11.8555C4.15625 11.5535 4.40114 11.3086 4.70312 11.3086H14.5577C14.8597 11.3086 15.1046 11.5535 15.1046 11.8555C15.1046 12.1575 14.8597 12.4023 14.5577 12.4023Z" fill="#C7C7C7"/>
<path d="M14.5577 14.9961H4.70312C4.40114 14.9961 4.15625 14.7512 4.15625 14.4492C4.15625 14.1472 4.40114 13.9023 4.70312 13.9023H14.5577C14.8597 13.9023 15.1046 14.1472 15.1046 14.4492C15.1046 14.7512 14.8597 14.9961 14.5577 14.9961Z" fill="#C7C7C7"/>
<path d="M14.5577 17.5898H4.70312C4.40114 17.5898 4.15625 17.345 4.15625 17.043C4.15625 16.741 4.40114 16.4961 4.70312 16.4961H14.5577C14.8597 16.4961 15.1046 16.741 15.1046 17.043C15.1046 17.345 14.8597 17.5898 14.5577 17.5898Z" fill="#C7C7C7"/>
<path d="M14.5577 20.1836H4.70312C4.40114 20.1836 4.15625 19.9387 4.15625 19.6367C4.15625 19.3347 4.40114 19.0898 4.70312 19.0898H14.5577C14.8597 19.0898 15.1046 19.3347 15.1046 19.6367C15.1046 19.9387 14.8597 20.1836 14.5577 20.1836Z" fill="#C7C7C7"/>
</svg>
