<svg width="18" height="18" viewBox="0 0 18 18" fill="none" xmlns="http://www.w3.org/2000/svg">
<path d="M8.98844 0.666073C8.87886 0.667151 8.77057 0.689904 8.66976 0.733067C8.56895 0.776231 8.4776 0.838952 8.40095 0.917615C8.32429 0.996277 8.26384 1.08939 8.22304 1.19155C8.18223 1.29371 8.16189 1.40291 8.16317 1.51297V8.21136C8.16323 8.43355 8.25115 8.64665 8.40759 8.80374C8.56403 8.96083 8.77619 9.04904 8.9974 9.04904C9.21861 9.04904 9.43076 8.96083 9.5872 8.80374C9.74365 8.64665 9.83156 8.43355 9.83162 8.21136V1.51297C9.83292 1.40139 9.812 1.29066 9.77008 1.18732C9.72817 1.08398 9.66611 0.990077 9.58755 0.911175C9.509 0.832272 9.41553 0.769976 9.31264 0.727877C9.20976 0.685778 9.09953 0.664769 8.98844 0.666073ZM13.8506 2.34516C13.8234 2.34438 13.7963 2.34492 13.7692 2.3468C13.6044 2.36085 13.4475 2.42383 13.3185 2.52769C13.1894 2.63155 13.0941 2.77159 13.0445 2.93004C12.9949 3.0885 12.9934 3.25823 13.0401 3.41756C13.0869 3.57688 13.1797 3.71864 13.3069 3.82481C14.7506 5.05618 15.6639 6.88894 15.6639 8.94705C15.6639 12.6632 12.693 15.6585 9.00146 15.6585C5.30994 15.6585 2.33251 12.6632 2.33252 8.94705C2.33252 6.90085 3.23425 5.08053 4.66347 3.84932C4.74674 3.77793 4.81519 3.69074 4.86492 3.59278C4.91465 3.49482 4.94468 3.38799 4.9533 3.27838C4.96192 3.16876 4.94896 3.05856 4.91515 2.95398C4.88135 2.84939 4.82737 2.75252 4.75629 2.66889C4.68522 2.58526 4.59843 2.51651 4.5009 2.46656C4.40337 2.41662 4.297 2.3864 4.18787 2.37775C4.07873 2.3691 3.96897 2.38214 3.86484 2.4161C3.76072 2.45006 3.66427 2.50426 3.58101 2.57566C1.79689 4.1126 0.66407 6.40349 0.664063 8.94705C0.664055 13.5665 4.40763 17.3327 9.00146 17.3327C13.5953 17.3327 17.3307 13.5665 17.3307 8.94705C17.3307 6.38866 16.1867 4.08834 14.3845 2.55115C14.2363 2.42138 14.0472 2.34843 13.8506 2.34516Z" fill="white"/>
</svg>
