<svg width="24" height="24" viewBox="0 0 24 24" fill="none" xmlns="http://www.w3.org/2000/svg">
<g clip-path="url(#clip0_17124_7455)">
<path d="M23.9604 14.8856C23.9604 14.5856 23.7354 14.3231 23.4354 14.2481L23.4729 11.9981L23.6604 2.62308C23.6604 2.17308 23.0604 1.98558 22.7979 2.36058C22.4604 2.96058 22.1979 3.59808 22.1229 4.31058L21.1104 11.9981L21.0354 12.5606C20.9979 12.8231 21.2229 13.0856 21.4854 13.0856H22.0854C22.1979 13.0856 22.3104 13.1231 22.4229 13.1981C22.4979 13.2731 22.5729 13.3856 22.5729 13.5356V14.2106H22.3479C22.1604 14.2106 22.0104 14.2856 21.8604 14.3981C21.7479 14.5106 21.6729 14.6981 21.6729 14.8856L21.7104 20.6981C21.7104 21.0731 22.0104 21.3731 22.3854 21.3731H23.3604C23.7354 21.3731 24.0354 21.0731 24.0354 20.6981L23.9604 14.8856Z" fill="white"/>
<path d="M12.45 6.40938C9.375 6.40938 6.9 8.92187 6.9 11.9594C6.9 15.0344 9.375 17.5094 12.45 17.5094C15.525 17.5094 18 15.0344 18 11.9594C18 8.92187 15.525 6.40938 12.45 6.40938ZM12.45 8.28438C10.425 8.28438 8.775 9.93437 8.775 11.9594C8.775 12.1844 8.5875 12.4094 8.325 12.4094C8.0625 12.4094 7.875 12.2219 7.875 11.9594C7.875 9.44687 9.9375 7.38438 12.45 7.38438C12.7125 7.38438 12.9 7.57187 12.9 7.83437C12.9 8.09687 12.7125 8.28438 12.45 8.28438ZM12.45 6.40938C9.375 6.40938 6.9 8.92187 6.9 11.9594C6.9 15.0344 9.375 17.5094 12.45 17.5094C15.525 17.5094 18 15.0344 18 11.9594C18 8.92187 15.525 6.40938 12.45 6.40938ZM12.45 8.28438C10.425 8.28438 8.775 9.93437 8.775 11.9594C8.775 12.1844 8.5875 12.4094 8.325 12.4094C8.0625 12.4094 7.875 12.2219 7.875 11.9594C7.875 9.44687 9.9375 7.38438 12.45 7.38438C12.7125 7.38438 12.9 7.57187 12.9 7.83437C12.9 8.09687 12.7125 8.28438 12.45 8.28438ZM12.45 4.23438C8.175 4.23438 4.6875 7.72188 4.6875 11.9969C4.6875 16.2719 8.175 19.7594 12.45 19.7594C16.725 19.7594 20.2125 16.2719 20.2125 11.9969C20.2125 7.68438 16.725 4.23438 12.45 4.23438ZM12.45 18.4094C8.8875 18.4094 6 15.5219 6 11.9594C6 8.39687 8.8875 5.50937 12.45 5.50937C16.0125 5.50937 18.9 8.39687 18.9 11.9594C18.9 15.5219 16.0125 18.4094 12.45 18.4094ZM12.45 6.40938C9.375 6.40938 6.9 8.92187 6.9 11.9594C6.9 15.0344 9.375 17.5094 12.45 17.5094C15.525 17.5094 18 15.0344 18 11.9594C18 8.92187 15.525 6.40938 12.45 6.40938ZM12.45 8.28438C10.425 8.28438 8.775 9.93437 8.775 11.9594C8.775 12.1844 8.5875 12.4094 8.325 12.4094C8.0625 12.4094 7.875 12.2219 7.875 11.9594C7.875 9.44687 9.9375 7.38438 12.45 7.38438C12.7125 7.38438 12.9 7.57187 12.9 7.83437C12.9 8.09687 12.7125 8.28438 12.45 8.28438Z" fill="white"/>
<path d="M4.6875 2.58437L4.65 7.60937C4.65 8.88437 3.6 9.89687 2.325 9.89687C1.05 9.89687 0 8.88437 0 7.60937V2.58437C0 2.35937 0.1875 2.17188 0.4125 2.17188C0.6375 2.17188 0.825 2.35937 0.825 2.58437V6.82187C0.825 7.08437 1.05 7.30937 1.3125 7.30937H1.425C1.6875 7.30937 1.9125 7.08437 1.9125 6.82187V2.58437C1.9125 2.35937 2.1 2.17188 2.325 2.17188H2.4C2.625 2.17188 2.8125 2.35937 2.8125 2.58437V6.82187C2.8125 7.08437 3.0375 7.30937 3.3 7.30937H3.375C3.6375 7.30937 3.8625 7.08437 3.8625 6.82187V2.58437C3.8625 2.35937 4.05 2.17188 4.275 2.17188C4.5 2.17188 4.6875 2.35937 4.6875 2.58437Z" fill="white"/>
<path d="M2.77812 21.8594H1.91562C1.31562 21.8594 0.828125 21.3719 0.828125 20.7719V16.3844C0.828125 15.7844 1.31562 15.2969 1.91562 15.2969H2.77812C3.37812 15.2969 3.86563 15.7844 3.86563 16.3844V20.7344C3.90313 21.3344 3.37812 21.8594 2.77812 21.8594Z" fill="white"/>
<path d="M3.15156 10.6484V14.5859C2.88906 14.5109 2.62656 14.4359 2.32656 14.4359C2.02656 14.4359 1.76406 14.4734 1.53906 14.5859V10.6484C1.80156 10.7234 2.06406 10.7609 2.36406 10.7609H2.40156C2.62656 10.7609 2.92656 10.7234 3.15156 10.6484Z" fill="white"/>
</g>
<defs>
<clipPath id="clip0_17124_7455">
<rect width="24" height="24" fill="white"/>
</clipPath>
</defs>
</svg>
