<svg width="83" height="83" viewBox="0 0 83 83" fill="none" xmlns="http://www.w3.org/2000/svg">
<g opacity="0.4">
<rect x="0.5" y="0.5" width="82" height="82" rx="41" fill="#FFDDDD"/>
<rect x="0.5" y="0.5" width="82" height="82" rx="41" stroke="#FFBFBF"/>
</g>
<rect x="11.7578" y="11.7539" width="59.4915" height="59.4915" rx="29.7458" fill="#FFDDDD"/>
<rect x="11.7578" y="11.7539" width="59.4915" height="59.4915" rx="29.7458" stroke="#FFBFBF"/>
<g clip-path="url(#clip0_18402_8814)">
<path d="M36.6667 41C32.2547 41 28.6667 37.412 28.6667 33C28.6667 28.588 32.2547 25 36.6667 25C41.0787 25 44.6667 28.588 44.6667 33C44.6667 37.412 41.0787 41 36.6667 41ZM51.7453 38.3453C48.96 38.176 46.5027 39.9 45.2853 42.4107C44.428 44.18 44.5693 45.7533 45.0573 47.164C45.0573 47.164 44.6667 47.6653 44.6667 48.332C44.6667 49.6653 44.6373 50.332 44.6373 50.332H43.304C42.568 50.332 41.9707 50.9293 41.9707 51.6653V52.9987H40.6667C39.9307 52.9987 39.3333 53.596 39.3333 54.332V55.6653C39.3333 56.4013 39.9307 56.9987 40.6667 56.9987H41.7013C42.408 56.9987 43.0867 56.7173 43.5867 56.2173L48.6893 51.1147C49.9533 51.6627 51.4147 51.84 52.9467 51.4707C55.46 50.8653 57.444 48.7573 57.8933 46.2107C58.6107 42.1373 55.6267 38.5813 51.7453 38.3453ZM52.6667 45.6667C51.5627 45.6667 50.6667 44.7707 50.6667 43.6667C50.6667 42.5627 51.5627 41.6667 52.6667 41.6667C53.7707 41.6667 54.6667 42.5627 54.6667 43.6667C54.6667 44.7707 53.7707 45.6667 52.6667 45.6667ZM36.6667 55.6667V54.3333C36.6667 52.5427 37.8493 51.024 39.4733 50.516C39.8453 49.2773 40.804 48.2907 42.0227 47.8773C42.0587 47.532 42.132 47.216 42.2227 46.9347C42.0867 46.3253 42.036 45.724 42.028 45.1267C40.4507 44.204 38.6227 43.6667 36.6667 43.6667C30.7853 43.6667 26 48.452 26 54.3333V55.6667C26 56.404 26.5973 57 27.3333 57H36.912C36.7627 56.5813 36.6667 56.136 36.6667 55.6667Z" fill="#CA1F1F"/>
</g>
<defs>
<clipPath id="clip0_18402_8814">
<rect width="32" height="32" fill="white" transform="translate(26 25)"/>
</clipPath>
</defs>
</svg>
