<svg width="12" height="10" viewBox="0 0 12 10" fill="none" xmlns="http://www.w3.org/2000/svg">
<path fill-rule="evenodd" clip-rule="evenodd" d="M6.10124 5.41901C7.0807 5.42585 8.07965 5.53111 9.03121 5.76052C9.88092 5.96536 10.7668 6.28875 11.4871 6.79268C11.6474 6.90171 11.7783 7.04882 11.8678 7.22083C11.9574 7.39285 12.0028 7.58439 12.0002 7.7783V9.49767H11.9796C11.9658 9.53005 11.9459 9.55944 11.921 9.58423C11.8965 9.60883 11.8675 9.62834 11.8354 9.64163V9.66317H8.72404V9.64163C8.67576 9.62143 8.6345 9.58745 8.60543 9.54392C8.57636 9.5004 8.56077 9.44928 8.56061 9.39694V7.85093C8.56062 7.73637 8.51997 7.62553 8.44589 7.53815C8.37181 7.45076 8.26912 7.39251 8.1561 7.37377C7.45021 7.2547 6.71505 7.20849 5.99957 7.20849C5.28409 7.20849 4.54891 7.2547 3.84306 7.37377C3.73584 7.39155 3.63773 7.44493 3.56455 7.52529C3.49138 7.60566 3.4474 7.70832 3.4397 7.81674V9.49777H3.41915C3.40537 9.53012 3.38548 9.55951 3.36056 9.58432C3.3361 9.60888 3.30705 9.62839 3.27506 9.64172V9.66326H0.16354V9.64172C0.115268 9.62152 0.0740234 9.58754 0.0449635 9.54402C0.0159035 9.5005 0.000318485 9.44938 0.000157525 9.39706V7.7783C-0.0030265 7.58443 0.0421027 7.39282 0.131474 7.22075C0.220845 7.04868 0.351647 6.90157 0.512079 6.79268C1.23269 6.28831 2.11863 5.96494 2.9687 5.75963C3.95296 5.52192 4.98789 5.41758 5.99957 5.41758H6.10124V5.41892V5.41901ZM7.23131 0.607995C7.19134 0.606516 7.15206 0.59717 7.11571 0.580489C7.07937 0.563809 7.04667 0.540124 7.01948 0.510789C6.9923 0.481454 6.97118 0.447045 6.95731 0.409534C6.94345 0.372023 6.93712 0.332145 6.93868 0.292184C6.94025 0.252222 6.94968 0.212963 6.96644 0.176652C6.9832 0.140342 7.00696 0.107694 7.03636 0.0805785C7.06575 0.0534625 7.10021 0.0324107 7.13775 0.0186287C7.17529 0.00484661 7.21518 -0.00139511 7.25514 0.000260815L9.56894 0.0947843C9.60883 0.096333 9.64804 0.105726 9.6843 0.122428C9.72056 0.13913 9.75318 0.162812 9.78029 0.192123C9.8074 0.221434 9.82847 0.255798 9.8423 0.293254C9.85613 0.330709 9.86244 0.370522 9.86088 0.410417L9.76633 2.72417C9.76478 2.76407 9.75538 2.80328 9.73867 2.83955C9.72196 2.87582 9.69828 2.90844 9.66896 2.93556C9.63965 2.96267 9.60528 2.98375 9.56782 2.99759C9.53036 3.01142 9.49054 3.01774 9.45064 3.01619C9.41074 3.01463 9.37153 3.00523 9.33526 2.98853C9.29899 2.97182 9.26636 2.94813 9.23925 2.91882C9.21213 2.88951 9.19105 2.85514 9.17722 2.81768C9.16338 2.78022 9.15706 2.7404 9.15862 2.7005L9.22356 1.11003L6.49539 3.82599C6.35072 3.96893 6.15549 4.04902 5.95211 4.04885C5.74874 4.04869 5.55364 3.96828 5.4092 3.8251L2.99078 1.40677C2.96156 1.37865 2.93824 1.34499 2.92218 1.30776C2.90611 1.27052 2.89764 1.23046 2.89724 1.18991C2.89684 1.14936 2.90453 1.10914 2.91986 1.07159C2.93519 1.03405 2.95785 0.99994 2.98652 0.971257C3.01518 0.942574 3.04928 0.919893 3.08681 0.904542C3.12435 0.88919 3.16457 0.881475 3.20512 0.881848C3.24567 0.88222 3.28573 0.890674 3.32298 0.906713C3.36022 0.922752 3.3939 0.946055 3.42203 0.975261L5.84059 3.39382C5.85531 3.40882 5.87285 3.42075 5.89221 3.42891C5.91157 3.43707 5.93236 3.4413 5.95337 3.44136C5.97438 3.44142 5.99519 3.43731 6.0146 3.42926C6.034 3.42121 6.05162 3.40939 6.06641 3.39448L8.80122 0.672003L7.23131 0.607995ZM3.94572 7.85093V7.85138L3.946 7.85093H3.94572Z" fill="white"/>
</svg>
