<svg width="24" height="24" viewBox="0 0 24 24" fill="none" xmlns="http://www.w3.org/2000/svg">
<path d="M21 1.5H3C2.3372 1.50078 1.70177 1.76442 1.2331 2.2331C0.764424 2.70177 0.500781 3.3372 0.5 4V15C0.500781 15.6628 0.764424 16.2982 1.2331 16.7669C1.70177 17.2356 2.3372 17.4992 3 17.5H4V21.4776C3.99814 21.6814 4.05764 21.881 4.17076 22.0506C4.28388 22.2201 4.44539 22.3517 4.6343 22.4282C4.81717 22.502 5.01803 22.519 5.21068 22.4769C5.40333 22.4349 5.57884 22.3357 5.7143 22.1924L10.2134 17.5H21C21.6628 17.4992 22.2982 17.2356 22.7669 16.7669C23.2356 16.2982 23.4992 15.6628 23.5 15V4C23.4992 3.3372 23.2356 2.70177 22.7669 2.2331C22.2982 1.76442 21.6628 1.50078 21 1.5ZM22.5 15C22.4996 15.3977 22.3414 15.779 22.0602 16.0602C21.779 16.3414 21.3977 16.4996 21 16.5H10C9.9326 16.5 9.86589 16.5136 9.80388 16.5401C9.74187 16.5665 9.68584 16.6052 9.63915 16.6538L5 21.4776V17C5.00004 16.9343 4.98713 16.8693 4.96202 16.8086C4.93691 16.7479 4.90008 16.6928 4.85364 16.6464C4.8072 16.5999 4.75207 16.5631 4.69139 16.538C4.63071 16.5129 4.56567 16.5 4.5 16.5H3C2.60231 16.4996 2.22103 16.3414 1.93982 16.0602C1.65861 15.779 1.50044 15.3977 1.5 15V4C1.50044 3.60231 1.65861 3.22103 1.93982 2.93982C2.22103 2.65861 2.60231 2.50044 3 2.5H21C21.3977 2.50044 21.779 2.65861 22.0602 2.93982C22.3414 3.22103 22.4996 3.60231 22.5 4V15ZM5.5 6.5C5.49996 6.43433 5.51287 6.36929 5.53798 6.30861C5.56309 6.24793 5.59992 6.1928 5.64636 6.14636C5.6928 6.09992 5.74793 6.06309 5.80861 6.03798C5.86929 6.01287 5.93433 5.99996 6 6H11C11.1326 6 11.2598 6.05268 11.3536 6.14645C11.4473 6.24021 11.5 6.36739 11.5 6.5C11.5 6.63261 11.4473 6.75979 11.3536 6.85355C11.2598 6.94732 11.1326 7 11 7H6C5.93433 7.00004 5.86929 6.98713 5.80861 6.96202C5.74793 6.93691 5.6928 6.90008 5.64636 6.85364C5.59992 6.8072 5.56309 6.75207 5.53798 6.69139C5.51287 6.63071 5.49996 6.56567 5.5 6.5ZM16.5 12.5C16.5 12.5657 16.4871 12.6307 16.462 12.6914C16.4369 12.7521 16.4001 12.8072 16.3536 12.8536C16.3072 12.9001 16.2521 12.9369 16.1914 12.962C16.1307 12.9871 16.0657 13 16 13H6C5.86739 13 5.74022 12.9473 5.64645 12.8536C5.55268 12.7598 5.5 12.6326 5.5 12.5C5.5 12.3674 5.55268 12.2402 5.64645 12.1464C5.74022 12.0527 5.86739 12 6 12H16C16.0657 12 16.1307 12.0129 16.1914 12.038C16.2521 12.0631 16.3072 12.0999 16.3536 12.1464C16.4001 12.1928 16.4369 12.2479 16.462 12.3086C16.4871 12.3693 16.5 12.4343 16.5 12.5ZM18.5 9.5C18.5 9.56567 18.4871 9.63071 18.462 9.69139C18.4369 9.75207 18.4001 9.8072 18.3536 9.85364C18.3072 9.90008 18.2521 9.93691 18.1914 9.96202C18.1307 9.98713 18.0657 10 18 10H6C5.86739 10 5.74022 9.94732 5.64645 9.85355C5.55268 9.75979 5.5 9.63261 5.5 9.5C5.5 9.36739 5.55268 9.24021 5.64645 9.14645C5.74022 9.05268 5.86739 9 6 9H18C18.0657 8.99996 18.1307 9.01287 18.1914 9.03798C18.2521 9.06309 18.3072 9.09992 18.3536 9.14636C18.4001 9.1928 18.4369 9.24793 18.462 9.30861C18.4871 9.36929 18.5 9.43433 18.5 9.5Z" fill="#007EE2"/>
</svg>
