<svg width="101" height="101" viewBox="0 0 101 101" fill="none" xmlns="http://www.w3.org/2000/svg">
<circle opacity="0.4" cx="50.5" cy="50.5" r="50" fill="#0C8131" fill-opacity="0.6"/>
<circle cx="50.5" cy="50.5" r="40" fill="#0C8131" fill-opacity="0.6"/>
<circle cx="50.5" cy="50.5" r="30" fill="#0C8131"/>
<path d="M65.9857 58.78C64.9751 57.9554 59.0482 54.3036 58.063 54.4713C57.6005 54.5511 57.2467 54.9348 56.2998 56.0339C55.8618 56.5749 55.3809 57.0816 54.8614 57.5493C53.9095 57.3255 52.9882 56.9932 52.1164 56.5592C48.6977 54.9398 45.9359 52.2518 44.2724 48.925C43.8264 48.0768 43.4849 47.1804 43.2549 46.2542C43.7356 45.7488 44.2564 45.2808 44.8124 44.8548C45.9409 43.9334 46.3363 43.5914 46.4184 43.1391C46.5907 42.1784 42.8341 36.4139 41.99 35.4306C41.6362 35.0234 41.3147 34.75 40.9031 34.75C39.7099 34.75 34.3125 41.2435 34.3125 42.085C34.3125 42.1536 34.4281 48.9138 43.2029 57.5999C52.1303 66.1375 59.0782 66.25 59.1488 66.25C60.0136 66.25 66.6875 60.9985 66.6875 59.8375C66.6875 59.437 66.4065 59.1243 65.9857 58.78Z" fill="white"/>
<path d="M58.5938 49.375H60.9062C60.9035 46.9889 59.9281 44.7012 58.1939 43.014C56.4598 41.3268 54.1087 40.3777 51.6562 40.375V42.625C53.4956 42.6268 55.2591 43.3385 56.5598 44.604C57.8604 45.8695 58.5919 47.5853 58.5938 49.375Z" fill="white"/>
<path d="M64.375 49.375H66.6875C66.6829 45.4976 65.0978 41.7802 62.2799 39.0385C59.462 36.2967 55.6414 34.7545 51.6562 34.75V37C55.0283 37.0039 58.261 38.3089 60.6454 40.6288C63.0297 42.9488 64.371 46.0941 64.375 49.375Z" fill="white"/>
</svg>
