<svg width="30" height="30" viewBox="0 0 30 30" fill="none" xmlns="http://www.w3.org/2000/svg">
<rect width="30" height="30" rx="15" fill="#FFC7C8"/>
<path d="M12.2661 7.46819V7.18713C12.2661 6.87795 12.5192 6.625 12.8285 6.625H14.7972C15.1066 6.625 15.3597 6.87795 15.3597 7.18713V7.46819C15.3597 7.77736 15.1066 8.03032 14.7972 8.03032V8.6599C14.1758 8.57017 13.4473 8.56973 12.8285 8.6599V8.03032C12.5192 8.03032 12.2661 7.77736 12.2661 7.46819ZM13.8129 21.2403C10.7896 21.2403 8.32874 18.781 8.32874 15.7596C8.55954 8.89793 18.1898 8.33624 19.252 15.071C19.6291 15.0388 20.0281 15.0626 20.391 15.1412C20.287 14.0029 19.8932 12.9208 19.2323 11.9821C18.2157 10.5093 16.5615 9.47766 14.7972 9.22766C10.8886 8.57846 7.14402 11.7909 7.20383 15.7596C7.13959 20.575 12.4391 23.8637 16.7153 21.6928C16.4537 21.4174 16.2315 21.0998 16.06 20.7569C15.3737 21.0689 14.6144 21.2403 13.8129 21.2403ZM8.0953 11.4396C8.49857 10.8914 8.95666 10.4521 9.48743 10.0427L9.04028 9.59585C8.93059 9.48623 8.75059 9.48623 8.64091 9.59585L7.64533 10.5908C7.53564 10.7004 7.53564 10.8803 7.64533 10.9899L8.0953 11.4396ZM18.5574 10.3885C18.9143 10.6914 19.2424 11.0526 19.5305 11.4368L19.9917 10.9759C20.1019 10.872 20.1041 10.6828 19.9917 10.5796C19.9917 10.5796 18.9961 9.5846 18.9961 9.5846C18.892 9.47779 18.7064 9.47779 18.5996 9.5846L18.1383 10.0455C18.2817 10.1531 18.4178 10.263 18.5574 10.3885ZM13.8129 15.4785C13.4434 15.4856 13.4435 16.0336 13.8129 16.0407C14.1823 16.0336 14.1823 15.4856 13.8129 15.4785ZM15.8435 20.2369C12.6861 21.7443 8.83068 19.269 8.8912 15.7596C9.09905 9.59251 17.758 9.10006 18.698 15.1581C16.5127 15.6058 15.0755 18.0848 15.8435 20.2369ZM14.0941 14.967C14.0941 14.967 14.0941 11.8247 14.0941 11.8247C14.0871 11.4539 13.5378 11.4575 13.5316 11.8247V14.967C13.2926 15.0541 13.107 15.2396 13.0198 15.4785H11.0005C10.6301 15.486 10.6321 16.0334 11.0005 16.0407H13.0198C13.1379 16.3667 13.4473 16.6028 13.8129 16.6028C14.7579 16.5923 14.9731 15.2843 14.0941 14.967ZM22.9531 18.9918C22.7697 23.4652 16.3875 23.4665 16.2034 18.9918C16.2034 17.1312 17.7165 15.6191 19.5783 15.6191C21.4401 15.6191 22.9531 17.1312 22.9531 18.9918ZM19.5783 19.9756C19.2089 19.9826 19.2088 20.5306 19.5783 20.5377C19.9477 20.5306 19.9477 19.9826 19.5783 19.9756ZM19.8595 17.446C19.8595 17.2914 19.7329 17.1649 19.5783 17.1649C19.4236 17.1649 19.297 17.2914 19.297 17.446C19.297 17.446 19.297 19.1324 19.297 19.1323C19.3041 19.502 19.8526 19.5011 19.8595 19.1324L19.8595 17.446Z" fill="#99070A"/>
</svg>
