<svg width="12" height="12" viewBox="0 0 12 12" fill="none" xmlns="http://www.w3.org/2000/svg">
<path d="M10.7805 5.3693L10.1005 4.5793C9.97045 4.4293 9.86545 4.1493 9.86545 3.9493V3.0993C9.86545 2.5693 9.43045 2.1343 8.90045 2.1343H8.05045C7.85545 2.1343 7.57045 2.0293 7.42045 1.8993L6.63045 1.2193C6.28545 0.924297 5.72045 0.924297 5.37045 1.2193L4.58543 1.9043C4.43543 2.0293 4.15043 2.1343 3.95543 2.1343H3.09043C2.56043 2.1343 2.12543 2.5693 2.12543 3.0993V3.9543C2.12543 4.1493 2.02043 4.4293 1.89543 4.5793L1.22043 5.3743C0.93043 5.7193 0.93043 6.2793 1.22043 6.6243L1.89543 7.4193C2.02043 7.5693 2.12543 7.8493 2.12543 8.0443V8.8993C2.12543 9.4293 2.56043 9.8643 3.09043 9.8643H3.95543C4.15043 9.8643 4.43543 9.9693 4.58543 10.0993L5.37545 10.7793C5.72045 11.0743 6.28545 11.0743 6.63545 10.7793L7.42545 10.0993C7.57545 9.9693 7.85545 9.8643 8.05545 9.8643H8.90545C9.43545 9.8643 9.87045 9.4293 9.87045 8.8993V8.0493C9.87045 7.8543 9.97545 7.5693 10.1055 7.4193L10.7855 6.6293C11.0755 6.2843 11.0755 5.7143 10.7805 5.3693Z" fill="#F4AB00"/>
<path d="M5.25879 3.375L5.56705 6.62059H6.43213L6.74039 3.375H5.25879Z" fill="white"/>
<path d="M6.00032 7.41736C5.66734 7.41736 5.39648 7.68822 5.39648 8.02115C5.39648 8.35413 5.66734 8.62498 6.00032 8.62498C6.3333 8.62498 6.60416 8.35413 6.60416 8.02115C6.60416 7.68822 6.3333 7.41736 6.00032 7.41736Z" fill="white"/>
</svg>
