<svg width="22" height="22" viewBox="0 0 22 22" fill="none" xmlns="http://www.w3.org/2000/svg">
<rect width="22" height="22" rx="11" fill="#B6E6FF"/>
<path d="M16.9062 8.375H16.0312V6.1875C16.0312 5.94627 15.835 5.75 15.5938 5.75H14.7188V4.65625C14.7188 4.29441 14.4243 4 14.0625 4H7.9375C7.57566 4 7.28125 4.29441 7.28125 4.65625V5.75H6.40625C6.16502 5.75 5.96875 5.94627 5.96875 6.1875V8.375H5.09375C4.49066 8.375 4 8.86566 4 9.46875V14.2812C4 14.8843 4.49066 15.375 5.09375 15.375H7.28125V17.3438C7.28125 17.7056 7.57566 18 7.9375 18H14.0625C14.4243 18 14.7188 17.7056 14.7188 17.3438V15.375H16.9062C17.5093 15.375 18 14.8843 18 14.2812V9.46875C18 8.86566 17.5093 8.375 16.9062 8.375ZM15.5938 6.1875V8.375H14.7188V6.1875H15.5938ZM7.71875 4.65625C7.71875 4.53564 7.81689 4.4375 7.9375 4.4375H14.0625C14.1831 4.4375 14.2812 4.53564 14.2812 4.65625V8.375H7.71875C7.71875 8.33029 7.71875 4.81454 7.71875 4.65625ZM6.40625 6.1875H7.28125V8.375H6.40625V6.1875ZM14.2812 17.3438C14.2812 17.4644 14.1831 17.5625 14.0625 17.5625H7.9375C7.81689 17.5625 7.71875 17.4644 7.71875 17.3438V13.625H14.2812V17.3438ZM17.5625 14.2812C17.5625 14.6431 17.2681 14.9375 16.9062 14.9375H14.7188V13.625H15.1562C15.2771 13.625 15.375 13.5271 15.375 13.4062C15.375 13.2854 15.2771 13.1875 15.1562 13.1875C14.3727 13.1875 7.20242 13.1875 6.84375 13.1875C6.72295 13.1875 6.625 13.2854 6.625 13.4062C6.625 13.5271 6.72295 13.625 6.84375 13.625H7.28125V14.9375H5.09375C4.73191 14.9375 4.4375 14.6431 4.4375 14.2812V9.46875C4.4375 9.10691 4.73191 8.8125 5.09375 8.8125H16.9062C17.2681 8.8125 17.5625 9.10691 17.5625 9.46875V14.2812Z" fill="#003D5B"/>
<path d="M16.4688 9.25C16.1069 9.25 15.8125 9.54441 15.8125 9.90625C15.8125 10.2681 16.1069 10.5625 16.4688 10.5625C16.8306 10.5625 17.125 10.2681 17.125 9.90625C17.125 9.54441 16.8306 9.25 16.4688 9.25ZM16.4688 10.125C16.3481 10.125 16.25 10.0269 16.25 9.90625C16.25 9.78564 16.3481 9.6875 16.4688 9.6875C16.5894 9.6875 16.6875 9.78564 16.6875 9.90625C16.6875 10.0269 16.5894 10.125 16.4688 10.125Z" fill="#003D5B"/>
<path d="M14.7188 9.25C14.3569 9.25 14.0625 9.54441 14.0625 9.90625C14.0625 10.2681 14.3569 10.5625 14.7188 10.5625C15.0806 10.5625 15.375 10.2681 15.375 9.90625C15.375 9.54441 15.0806 9.25 14.7188 9.25ZM14.7188 10.125C14.5981 10.125 14.5 10.0269 14.5 9.90625C14.5 9.78564 14.5981 9.6875 14.7188 9.6875C14.8394 9.6875 14.9375 9.78564 14.9375 9.90625C14.9375 10.0269 14.8394 10.125 14.7188 10.125Z" fill="#003D5B"/>
<path d="M13.4062 14.2812H8.8125C8.6917 14.2812 8.59375 14.3792 8.59375 14.5C8.59375 14.6208 8.6917 14.7188 8.8125 14.7188H13.4062C13.5271 14.7188 13.625 14.6208 13.625 14.5C13.625 14.3792 13.5271 14.2812 13.4062 14.2812Z" fill="#003D5B"/>
<path d="M13.4062 15.375H8.8125C8.6917 15.375 8.59375 15.4729 8.59375 15.5938C8.59375 15.7146 8.6917 15.8125 8.8125 15.8125H13.4062C13.5271 15.8125 13.625 15.7146 13.625 15.5938C13.625 15.4729 13.5271 15.375 13.4062 15.375Z" fill="#003D5B"/>
<path d="M13.4062 16.4688H8.8125C8.6917 16.4688 8.59375 16.5667 8.59375 16.6875C8.59375 16.8083 8.6917 16.9062 8.8125 16.9062H13.4062C13.5271 16.9062 13.625 16.8083 13.625 16.6875C13.625 16.5667 13.5271 16.4688 13.4062 16.4688Z" fill="#003D5B"/>
</svg>
