<svg width="16" height="16" viewBox="0 0 16 16" fill="none" xmlns="http://www.w3.org/2000/svg">
<path d="M4.98197 13.924C4.4483 13.842 3.93534 13.8217 3.34945 13.8481C3.08074 13.8603 3.00965 14.2341 3.25146 14.3519C3.49033 14.4683 3.81506 14.5342 4.07598 14.5868C5.55999 14.8865 7.07969 14.9415 8.76064 14.6433C9.19251 14.5667 9.69221 14.4959 10.1115 14.3329C11.677 13.9348 13.19 12.7751 14.0092 11.56C16.0442 8.54174 14.651 1.9917 9.08881 1.54794C7.94568 1.34189 6.7265 1.44227 5.53302 1.88389C2.73679 2.91878 1.0403 5.46127 1.211 8.36099C1.3424 10.614 2.79429 12.86 4.98197 13.924ZM5.6471 2.19222C8.33659 1.19677 11.1232 2.01486 12.7736 4.18516C14.6052 6.5939 14.4615 10.4322 12.0029 12.584C9.85997 14.4638 6.50002 14.9148 3.9672 12.8968C0.109707 9.8152 0.940455 3.93435 5.6471 2.19222Z" fill="black"/>
<path d="M6.44173 12.4112C7.31504 12.4112 8.18006 12.2967 9.03216 12.2346C9.11585 12.2285 9.18156 12.1603 9.18445 12.0764C9.18854 11.9576 9.22859 11.7985 9.23357 11.6534C9.237 11.5557 9.15416 11.4778 9.06213 11.4835L8.17244 11.5225C8.27404 9.60559 8.38155 7.84098 8.47469 6.06342C8.48005 5.96232 8.39421 5.88048 8.29051 5.89165C7.46173 5.99325 7.92073 5.94078 7.10825 6.04008C7.02563 6.05025 6.96356 6.12067 6.96388 6.20393C6.98175 6.69339 6.92557 6.79337 7.02392 6.87677C7.11935 6.95793 7.20091 6.89151 7.5557 6.85034L7.24834 11.563L6.43456 11.5986C6.34659 11.6025 6.27734 11.6749 6.27734 11.7629V12.2468C6.27734 12.3376 6.35097 12.4112 6.44173 12.4112Z" fill="black"/>
<path d="M7.89809 5.47671C8.96872 5.47671 9.44591 4.01979 8.42741 3.60096C8.07639 3.4568 7.61952 3.49833 7.31665 3.70252C6.57096 4.20518 6.95478 5.47671 7.89809 5.47671Z" fill="black"/>
<path d="M1.11903 3.48125C1.07836 3.56248 1.11111 3.66126 1.19223 3.70193C2.0155 4.10803 1.99939 4.1222 2.06905 4.1222C2.24208 4.1222 2.297 3.88833 2.1429 3.81087L1.33971 3.40805C1.25859 3.36749 1.15981 3.40013 1.11903 3.48125Z" fill="black"/>
<path d="M2.58633 2.9393C2.61673 2.99227 2.67216 3.02192 2.7291 3.02192C2.85444 3.02192 2.93456 2.88591 2.87165 2.77577C2.67088 2.42538 2.41275 2.11567 2.10442 1.85528C2.03507 1.79664 1.93115 1.80531 1.87283 1.87476C1.81418 1.94411 1.82296 2.04781 1.89231 2.10636C2.1712 2.34201 2.40472 2.62219 2.58633 2.9393Z" fill="black"/>
<path d="M3.74093 2.3982C3.83051 2.38386 3.89162 2.29953 3.87728 2.20984L3.73109 1.29664C3.71664 1.20695 3.63145 1.14595 3.54273 1.16029C3.45305 1.17474 3.39205 1.25907 3.40639 1.34865L3.55258 2.26185C3.56683 2.35081 3.65036 2.41239 3.74093 2.3982Z" fill="black"/>
</svg>
