<svg width="20" height="20" viewBox="0 0 20 20" fill="none" xmlns="http://www.w3.org/2000/svg">
<path d="M20 12.2238C20 12.3156 19.9596 12.4028 19.8896 12.4621L14.648 16.908C14.5905 16.9569 14.5186 16.9822 14.4459 16.9822C14.4013 16.9822 14.3566 16.9727 14.3146 16.9533C14.2041 16.9021 14.1334 16.7914 14.1334 16.6697V14.7593H5.55414C5.38156 14.7593 5.24164 14.6194 5.24164 14.4468C5.24164 14.2742 5.38156 14.1343 5.55414 14.1343H14.4459C14.6185 14.1343 14.7584 14.2742 14.7584 14.4468V15.9949L19.2044 12.2238L14.7584 8.45277V10.0009C14.7584 10.1735 14.6185 10.3134 14.4459 10.3134H5.86664V12.2238C5.86664 12.3456 5.79594 12.4562 5.68547 12.5074C5.57496 12.5586 5.44484 12.5409 5.35199 12.4621L0.110352 8.01625C0.0403516 7.95687 0 7.86972 0 7.77793C0 7.68613 0.0403516 7.59898 0.110352 7.53961L5.35195 3.09371C5.4448 3.01496 5.57496 2.9973 5.68543 3.04848C5.7959 3.09965 5.8666 3.21031 5.8666 3.33203V5.24246H14.4459C14.6185 5.24246 14.7584 5.38238 14.7584 5.55496C14.7584 5.72754 14.6185 5.86746 14.4459 5.86746H5.5541C5.38152 5.86746 5.2416 5.72754 5.2416 5.55496V4.00683L0.795625 7.77793L5.2416 11.549V10.0009C5.2416 9.82832 5.38152 9.6884 5.5541 9.6884H14.1334V7.77797C14.1334 7.65621 14.2041 7.54555 14.3146 7.49441C14.4251 7.4432 14.5552 7.4609 14.648 7.53965L19.8896 11.9855C19.9596 12.0449 20 12.1321 20 12.2238Z" fill="#2F4261"/>
</svg>
