<svg width="24" height="24" viewBox="0 0 24 24" fill="none" xmlns="http://www.w3.org/2000/svg">
<path d="M20.3468 17.5253C18.209 16.0927 18.1017 13.3131 18.1012 13.2956V10.1081C18.1008 8.81347 17.6881 7.55263 16.9228 6.50841C16.1575 5.46418 15.0795 4.69087 13.8451 4.30061V3.2757C13.8451 2.80528 13.6582 2.35411 13.3256 2.02147C12.9929 1.68883 12.5418 1.50195 12.0714 1.50195C11.6009 1.50195 11.1498 1.68883 10.8171 2.02147C10.4845 2.35411 10.2976 2.80528 10.2976 3.2757V4.25976C9.0287 4.6235 7.91321 5.39151 7.12063 6.44708C6.32805 7.50266 5.9017 8.7881 5.90635 10.1081L5.90654 13.2857C5.90581 13.3135 5.80803 16.0861 3.66093 17.5253C3.42099 17.6931 3.24046 17.9327 3.14534 18.2095C3.05023 18.4864 3.04542 18.7864 3.13163 19.0661C3.21783 19.3459 3.3906 19.5912 3.62505 19.7665C3.8595 19.9419 4.14355 20.0383 4.43629 20.0419L9.2116 20.0419C9.33299 20.7311 9.69335 21.3555 10.2294 21.8053C10.7654 22.2552 11.4428 22.5018 12.1426 22.5018C12.8424 22.5018 13.5198 22.2552 14.0558 21.8053C14.5918 21.3555 14.9522 20.7311 15.0735 20.0419H19.5712C19.8645 20.0394 20.1493 19.9435 20.3845 19.7683C20.6197 19.5931 20.793 19.3476 20.8794 19.0673C20.9658 18.787 20.9607 18.4865 20.865 18.2093C20.7692 17.9321 20.5878 17.6926 20.3468 17.5253ZM12.0714 2.25178C12.3425 2.25309 12.6022 2.36139 12.7939 2.55314C12.9856 2.74489 13.0939 3.00457 13.0951 3.27571V4.11243C12.4187 3.99044 11.7267 3.98218 11.0476 4.08798V3.2757C11.0479 3.00425 11.1558 2.74399 11.3477 2.55203C11.5397 2.36007 11.7999 2.25208 12.0714 2.25178ZM12.1426 21.7518C11.6414 21.7526 11.1547 21.5842 10.7611 21.2739C10.3676 20.9635 10.0903 20.5295 9.97425 20.0419H14.3109C14.1949 20.5295 13.9176 20.9636 13.5241 21.2739C13.1305 21.5842 12.6438 21.7526 12.1426 21.7518ZM20.0216 19.1063C19.9017 19.225 19.7399 19.2917 19.5712 19.2919H4.43623C4.30189 19.2931 4.17074 19.251 4.06216 19.1719C3.95357 19.0928 3.87332 18.9809 3.83325 18.8527C3.79317 18.7245 3.79542 18.5868 3.83964 18.4599C3.88386 18.333 3.96772 18.2238 4.07882 18.1483C6.54414 16.4956 6.6529 13.4351 6.65638 13.2956V10.1081C6.65638 8.68988 7.21977 7.32975 8.2226 6.32693C8.71916 5.83037 9.30865 5.43649 9.95743 5.16776C10.6062 4.89903 11.3016 4.76072 12.0038 4.76072C12.706 4.76072 13.4014 4.89904 14.0501 5.16777C14.6989 5.4365 15.2884 5.83039 15.785 6.32694C16.2815 6.82349 16.6754 7.41299 16.9441 8.06176C17.2129 8.71054 17.3512 9.40589 17.3512 10.1081L17.3512 13.3055C17.3549 13.4351 17.4636 16.4956 19.929 18.1483C20.004 18.2007 20.0667 18.2687 20.1129 18.3477C20.1591 18.4267 20.1875 18.5148 20.1963 18.6059C20.2051 18.697 20.1941 18.7889 20.1639 18.8753C20.1338 18.9617 20.0852 19.0405 20.0216 19.1063Z" fill="#007EE2"/>
<path d="M22.0504 4.33603C21.7512 3.68556 21.3258 3.10091 20.7991 2.61594C20.2723 2.13097 19.6545 1.75531 18.9816 1.51071C18.8888 1.47872 18.7872 1.48439 18.6985 1.5265C18.6098 1.56861 18.5412 1.64381 18.5074 1.73595C18.4735 1.82809 18.4772 1.92982 18.5175 2.01931C18.5578 2.1088 18.6316 2.17891 18.7231 2.21459C19.89 2.64807 20.8384 3.52516 21.3616 4.65478C21.8847 5.78439 21.9403 7.07498 21.5161 8.24536C21.499 8.29162 21.4911 8.3408 21.493 8.39009C21.4949 8.43938 21.5065 8.48781 21.5272 8.53261C21.5478 8.5774 21.5771 8.61768 21.6134 8.65114C21.6496 8.6846 21.6921 8.71057 21.7384 8.72758C21.7847 8.74458 21.8339 8.75228 21.8832 8.75024C21.9325 8.7482 21.9809 8.73645 22.0256 8.71567C22.0704 8.69489 22.1106 8.66549 22.1439 8.62914C22.1773 8.5928 22.2031 8.55024 22.22 8.50388C22.4688 7.83247 22.5819 7.11839 22.5527 6.40297C22.5236 5.68755 22.3529 4.98502 22.0504 4.33603Z" fill="#007EE2"/>
<path d="M17.9625 4.27307C18.5863 4.50311 19.0934 4.97106 19.3728 5.57438C19.6522 6.1777 19.681 6.86717 19.4529 7.49169C19.419 7.58523 19.4237 7.68839 19.4659 7.7785C19.508 7.8686 19.5843 7.93827 19.6778 7.97216C19.7713 8.00606 19.8745 8.00141 19.9646 7.95925C20.0547 7.91708 20.1244 7.84084 20.1583 7.74731C20.4535 6.93664 20.4157 6.04202 20.0531 5.25916C19.6905 4.47629 19.0325 3.86893 18.2232 3.56994C18.13 3.53566 18.0271 3.53972 17.9369 3.58125C17.8467 3.62278 17.7767 3.69837 17.7421 3.79146C17.7076 3.88455 17.7114 3.98753 17.7527 4.07781C17.794 4.1681 17.8695 4.23832 17.9625 4.27307Z" fill="#007EE2"/>
<path d="M5.28536 2.21446C5.37672 2.17873 5.45044 2.10861 5.49071 2.01915C5.53097 1.92969 5.53458 1.82801 5.50075 1.73592C5.46692 1.64383 5.39835 1.56867 5.30974 1.52655C5.22114 1.48443 5.11956 1.47871 5.02679 1.51062C3.67369 2.01339 2.57408 3.03048 1.96749 4.34033C1.36091 5.65018 1.2965 7.14667 1.78829 8.5038C1.82391 8.59536 1.89404 8.6693 1.9836 8.70972C2.07315 8.75013 2.17499 8.7538 2.26722 8.71992C2.35945 8.68605 2.43472 8.61735 2.47683 8.52858C2.51895 8.43981 2.52456 8.33806 2.49245 8.2452C2.06815 7.07485 2.12362 5.78422 2.64677 4.65459C3.16992 3.52495 4.11834 2.64786 5.28536 2.21446Z" fill="#007EE2"/>
<path d="M3.95181 5.25872C3.7714 5.64618 3.66928 6.06546 3.65131 6.49248C3.63334 6.91951 3.69986 7.34588 3.84707 7.74713C3.8639 7.79342 3.88969 7.83594 3.92295 7.87226C3.95622 7.90858 3.99631 7.938 4.04094 7.95883C4.08558 7.97966 4.13388 7.99149 4.18308 7.99365C4.23229 7.99582 4.28144 7.98827 4.32773 7.97143C4.37401 7.9546 4.41653 7.92882 4.45286 7.89555C4.48918 7.86229 4.5186 7.82219 4.53943 7.77756C4.56025 7.73293 4.57209 7.68463 4.57425 7.63542C4.57641 7.58622 4.56886 7.53707 4.55203 7.49078C4.32728 6.86613 4.3577 6.17809 4.63669 5.57571C4.91567 4.97333 5.42076 4.50512 6.04253 4.27253C6.13513 4.23748 6.21011 4.16722 6.2511 4.0771C6.29209 3.98697 6.29578 3.88429 6.26135 3.79146C6.22692 3.69863 6.15717 3.62318 6.06733 3.58158C5.97748 3.53998 5.87483 3.5356 5.78176 3.5694C5.38053 3.71662 5.01233 3.94164 4.69829 4.23154C4.38426 4.52144 4.13057 4.87052 3.95181 5.25872Z" fill="#007EE2"/>
</svg>
