<svg width="30" height="30" viewBox="0 0 30 30" fill="none" xmlns="http://www.w3.org/2000/svg">
<g clip-path="url(#clip0_6877_8783)">
<path d="M15 30C23.2843 30 30 23.2843 30 15C30 6.71573 23.2843 0 15 0C6.71573 0 0 6.71573 0 15C0 23.2843 6.71573 30 15 30Z" fill="#29A71A"/>
<path d="M21.6137 8.38606C20.0531 6.80986 17.9806 5.84323 15.7701 5.66053C13.5595 5.47782 11.3564 6.09107 9.55818 7.38965C7.75996 8.68824 6.48496 10.5867 5.96319 12.7425C5.44141 14.8984 5.70719 17.1697 6.7126 19.1469L5.72567 23.9383C5.71543 23.986 5.71514 24.0353 5.72481 24.0831C5.73449 24.1309 5.75393 24.1762 5.78192 24.2162C5.82291 24.2768 5.88143 24.3235 5.94965 24.35C6.01788 24.3765 6.09256 24.3815 6.16373 24.3645L10.8598 23.2514C12.8313 24.2314 15.0867 24.48 17.2244 23.9532C19.3621 23.4264 21.2436 22.1583 22.5341 20.3744C23.8246 18.5906 24.4404 16.4067 24.2718 14.2115C24.1033 12.0163 23.1614 9.95202 21.6137 8.38606ZM20.1495 20.0724C19.0697 21.1492 17.6793 21.86 16.1741 22.1046C14.669 22.3492 13.125 22.1154 11.7598 21.4361L11.1052 21.1122L8.22623 21.794L8.23476 21.7582L8.83135 18.8605L8.51089 18.2281C7.81333 16.8581 7.56725 15.3025 7.80792 13.7841C8.04858 12.2657 8.76364 10.8624 9.85067 9.77526C11.2165 8.40983 13.0688 7.64277 15.0001 7.64277C16.9314 7.64277 18.7837 8.40983 20.1495 9.77526C20.1612 9.7886 20.1737 9.80113 20.187 9.81276C21.536 11.1817 22.289 13.0284 22.282 14.9503C22.275 16.8722 21.5084 18.7134 20.1495 20.0724Z" fill="white"/>
<path d="M19.8935 17.9466C19.5406 18.5023 18.9832 19.1824 18.2827 19.3512C17.0554 19.6478 15.1719 19.3614 12.8281 17.1762L12.7991 17.1506C10.7383 15.2398 10.2031 13.6495 10.3327 12.3881C10.4042 11.6722 11.0008 11.0245 11.5037 10.6018C11.5832 10.5339 11.6774 10.4856 11.779 10.4607C11.8805 10.4358 11.9864 10.435 12.0883 10.4583C12.1901 10.4817 12.2851 10.5286 12.3656 10.5952C12.4462 10.6618 12.51 10.7464 12.552 10.8421L13.3105 12.5466C13.3598 12.6572 13.3781 12.779 13.3633 12.8991C13.3486 13.0193 13.3015 13.1331 13.227 13.2285L12.8435 13.7262C12.7612 13.829 12.7115 13.954 12.7009 14.0852C12.6902 14.2165 12.7191 14.3479 12.7838 14.4626C12.9986 14.8393 13.5133 15.3932 14.0844 15.9063C14.7253 16.4858 15.4361 17.016 15.8861 17.1966C16.0065 17.2458 16.1389 17.2578 16.2662 17.2311C16.3935 17.2044 16.5098 17.1401 16.6003 17.0466L17.0452 16.5983C17.131 16.5137 17.2378 16.4533 17.3545 16.4234C17.4713 16.3934 17.5939 16.395 17.7099 16.4279L19.5116 16.9393C19.611 16.9697 19.7021 17.0226 19.778 17.0936C19.8538 17.1647 19.9124 17.2522 19.9492 17.3494C19.9861 17.4467 20.0002 17.551 19.9905 17.6545C19.9809 17.758 19.9477 17.8579 19.8935 17.9466Z" fill="white"/>
</g>
<defs>
<clipPath id="clip0_6877_8783">
<rect width="30" height="30" fill="white"/>
</clipPath>
</defs>
</svg>
