<svg width="80" height="40" viewBox="0 0 80 40" fill="none" xmlns="http://www.w3.org/2000/svg">
<g clip-path="url(#clip0_14242_16540)">
<path d="M38.0065 22.5087C40.3143 22.5117 42.5516 21.7132 44.3361 20.2497L50.3046 26.2172C50.702 26.601 51.3354 26.59 51.7192 26.1926C52.0936 25.8049 52.0936 25.1903 51.7192 24.8026L45.7517 18.8341C49.2475 14.5555 48.6128 8.25303 44.3341 4.75727C40.0555 1.26151 33.753 1.89618 30.2573 6.17485C26.7615 10.4535 27.3962 16.7559 31.6748 20.2517C33.4619 21.7118 35.6988 22.5091 38.0065 22.5087Z" fill="#0B7AB2"/>
</g>
<path d="M24.98 37.57C24.52 37.57 24.1067 37.49 23.74 37.33C23.38 37.1633 23.0967 36.9367 22.89 36.65C22.6833 36.3567 22.5767 36.02 22.57 35.64H23.54C23.5733 35.9667 23.7067 36.2433 23.94 36.47C24.18 36.69 24.5267 36.8 24.98 36.8C25.4133 36.8 25.7533 36.6933 26 36.48C26.2533 36.26 26.38 35.98 26.38 35.64C26.38 35.3733 26.3067 35.1567 26.16 34.99C26.0133 34.8233 25.83 34.6967 25.61 34.61C25.39 34.5233 25.0933 34.43 24.72 34.33C24.26 34.21 23.89 34.09 23.61 33.97C23.3367 33.85 23.1 33.6633 22.9 33.41C22.7067 33.15 22.61 32.8033 22.61 32.37C22.61 31.99 22.7067 31.6533 22.9 31.36C23.0933 31.0667 23.3633 30.84 23.71 30.68C24.0633 30.52 24.4667 30.44 24.92 30.44C25.5733 30.44 26.1067 30.6033 26.52 30.93C26.94 31.2567 27.1767 31.69 27.23 32.23H26.23C26.1967 31.9633 26.0567 31.73 25.81 31.53C25.5633 31.3233 25.2367 31.22 24.83 31.22C24.45 31.22 24.14 31.32 23.9 31.52C23.66 31.7133 23.54 31.9867 23.54 32.34C23.54 32.5933 23.61 32.8 23.75 32.96C23.8967 33.12 24.0733 33.2433 24.28 33.33C24.4933 33.41 24.79 33.5033 25.17 33.61C25.63 33.7367 26 33.8633 26.28 33.99C26.56 34.11 26.8 34.3 27 34.56C27.2 34.8133 27.3 35.16 27.3 35.6C27.3 35.94 27.21 36.26 27.03 36.56C26.85 36.86 26.5833 37.1033 26.23 37.29C25.8767 37.4767 25.46 37.57 24.98 37.57ZM33.6391 34.55C33.6391 34.7233 33.6291 34.9067 33.6091 35.1H29.2291C29.2625 35.64 29.4458 36.0633 29.7791 36.37C30.1191 36.67 30.5291 36.82 31.0091 36.82C31.4025 36.82 31.7291 36.73 31.9891 36.55C32.2558 36.3633 32.4425 36.1167 32.5491 35.81H33.5291C33.3825 36.3367 33.0891 36.7667 32.6491 37.1C32.2091 37.4267 31.6625 37.59 31.0091 37.59C30.4891 37.59 30.0225 37.4733 29.6091 37.24C29.2025 37.0067 28.8825 36.6767 28.6491 36.25C28.4158 35.8167 28.2991 35.3167 28.2991 34.75C28.2991 34.1833 28.4125 33.6867 28.6391 33.26C28.8658 32.8333 29.1825 32.5067 29.5891 32.28C30.0025 32.0467 30.4758 31.93 31.0091 31.93C31.5291 31.93 31.9891 32.0433 32.3891 32.27C32.7891 32.4967 33.0958 32.81 33.3091 33.21C33.5291 33.6033 33.6391 34.05 33.6391 34.55ZM32.6991 34.36C32.6991 34.0133 32.6225 33.7167 32.4691 33.47C32.3158 33.2167 32.1058 33.0267 31.8391 32.9C31.5791 32.7667 31.2891 32.7 30.9691 32.7C30.5091 32.7 30.1158 32.8467 29.7891 33.14C29.4691 33.4333 29.2858 33.84 29.2391 34.36H32.6991ZM34.5003 34.74C34.5003 34.18 34.6136 33.69 34.8403 33.27C35.067 32.8433 35.377 32.5133 35.7703 32.28C36.1703 32.0467 36.6136 31.93 37.1003 31.93C37.5803 31.93 37.997 32.0333 38.3503 32.24C38.7036 32.4467 38.967 32.7067 39.1403 33.02V32.02H40.0603V37.5H39.1403V36.48C38.9603 36.8 38.6903 37.0667 38.3303 37.28C37.977 37.4867 37.5636 37.59 37.0903 37.59C36.6036 37.59 36.1636 37.47 35.7703 37.23C35.377 36.99 35.067 36.6533 34.8403 36.22C34.6136 35.7867 34.5003 35.2933 34.5003 34.74ZM39.1403 34.75C39.1403 34.3367 39.057 33.9767 38.8903 33.67C38.7236 33.3633 38.497 33.13 38.2103 32.97C37.9303 32.8033 37.6203 32.72 37.2803 32.72C36.9403 32.72 36.6303 32.8 36.3503 32.96C36.0703 33.12 35.847 33.3533 35.6803 33.66C35.5136 33.9667 35.4303 34.3267 35.4303 34.74C35.4303 35.16 35.5136 35.5267 35.6803 35.84C35.847 36.1467 36.0703 36.3833 36.3503 36.55C36.6303 36.71 36.9403 36.79 37.2803 36.79C37.6203 36.79 37.9303 36.71 38.2103 36.55C38.497 36.3833 38.7236 36.1467 38.8903 35.84C39.057 35.5267 39.1403 35.1633 39.1403 34.75ZM42.5081 32.91C42.6681 32.5967 42.8948 32.3533 43.1881 32.18C43.4881 32.0067 43.8515 31.92 44.2781 31.92V32.86H44.0381C43.0181 32.86 42.5081 33.4133 42.5081 34.52V37.5H41.5981V32.02H42.5081V32.91ZM44.9886 34.75C44.9886 34.1833 45.1019 33.69 45.3286 33.27C45.5553 32.8433 45.8686 32.5133 46.2686 32.28C46.6753 32.0467 47.1386 31.93 47.6586 31.93C48.3319 31.93 48.8853 32.0933 49.3186 32.42C49.7586 32.7467 50.0486 33.2 50.1886 33.78H49.2086C49.1153 33.4467 48.9319 33.1833 48.6586 32.99C48.3919 32.7967 48.0586 32.7 47.6586 32.7C47.1386 32.7 46.7186 32.88 46.3986 33.24C46.0786 33.5933 45.9186 34.0967 45.9186 34.75C45.9186 35.41 46.0786 35.92 46.3986 36.28C46.7186 36.64 47.1386 36.82 47.6586 36.82C48.0586 36.82 48.3919 36.7267 48.6586 36.54C48.9253 36.3533 49.1086 36.0867 49.2086 35.74H50.1886C50.0419 36.3 49.7486 36.75 49.3086 37.09C48.8686 37.4233 48.3186 37.59 47.6586 37.59C47.1386 37.59 46.6753 37.4733 46.2686 37.24C45.8686 37.0067 45.5553 36.6767 45.3286 36.25C45.1019 35.8233 44.9886 35.3233 44.9886 34.75ZM54.1228 31.92C54.5361 31.92 54.9095 32.01 55.2428 32.19C55.5761 32.3633 55.8361 32.6267 56.0228 32.98C56.2161 33.3333 56.3128 33.7633 56.3128 34.27V37.5H55.4128V34.4C55.4128 33.8533 55.2761 33.4367 55.0028 33.15C54.7295 32.8567 54.3561 32.71 53.8828 32.71C53.4028 32.71 53.0195 32.86 52.7328 33.16C52.4528 33.46 52.3128 33.8967 52.3128 34.47V37.5H51.4028V30.1H52.3128V32.8C52.4928 32.52 52.7395 32.3033 53.0528 32.15C53.3728 31.9967 53.7295 31.92 54.1228 31.92Z" fill="#0B7AB2"/>
<defs>
<clipPath id="clip0_14242_16540">
<rect width="24" height="24" fill="white" transform="translate(28 2.5)"/>
</clipPath>
</defs>
</svg>
