<svg width="24" height="24" viewBox="0 0 24 24" fill="none" xmlns="http://www.w3.org/2000/svg">
<g clip-path="url(#clip0_6976_4984)">
<path d="M23.7061 8.61613L13.7686 1.58488C13.553 1.43038 13.2714 1.41046 13.038 1.532C12.8032 1.65214 12.6562 1.89317 12.6562 2.15685V5.69103C5.61539 6.05769 0 11.9017 0 19.0318V21.8443C0 22.1952 0.258187 22.4918 0.605625 22.5406C0.944672 22.5901 1.28175 22.3799 1.37878 22.038L1.48725 21.6583C2.92922 16.6128 7.46245 13.023 12.6562 12.7236V16.2193C12.6562 16.483 12.8032 16.7241 13.038 16.8442C13.2715 16.9657 13.553 16.9445 13.7686 16.7913L23.7061 9.76007C23.8902 9.62821 24 9.41535 24 9.1881C24 8.96085 23.8901 8.74794 23.7061 8.61613Z" fill="white"/>
</g>
<defs>
<clipPath id="clip0_6976_4984">
<rect width="24" height="24" fill="white"/>
</clipPath>
</defs>
</svg>
