<svg width="14" height="14" viewBox="0 0 14 14" fill="none" xmlns="http://www.w3.org/2000/svg">
<rect x="0.2" y="0.2" width="13.6" height="13.6" rx="1.8" stroke="white" stroke-width="0.4"/>
<g clip-path="url(#clip0_17815_7952)">
<path d="M10.0437 4.19297C9.97078 4.19297 9.89703 4.16755 9.83786 4.11547C9.04911 3.4238 8.04036 3.04297 6.99786 3.04297C6.01536 3.04297 5.05453 3.38755 4.29203 4.0138C4.15828 4.12339 3.96119 4.1038 3.85203 3.97047C3.74286 3.83714 3.76203 3.64005 3.89536 3.53047C4.76911 2.81297 5.87119 2.41797 6.99786 2.41797C8.19203 2.41797 9.34703 2.8538 10.2499 3.64547C10.3795 3.75922 10.3924 3.95672 10.2787 4.08672C10.217 4.15672 10.1304 4.19297 10.0437 4.19297Z" fill="white"/>
<path d="M5.02604 4.08467H3.98438C3.81188 4.08467 3.67188 3.94467 3.67188 3.77217V2.7305C3.67188 2.60425 3.74812 2.49008 3.86479 2.44175C3.98146 2.39342 4.11604 2.42008 4.20521 2.50967L5.24688 3.55133C5.33604 3.6405 5.36312 3.77508 5.31479 3.89175C5.26646 4.00842 5.15229 4.08467 5.02604 4.08467Z" fill="white"/>
<path d="M7.04602 11.5836C5.85143 11.5836 4.69644 11.1478 3.79394 10.3561C3.66394 10.2424 3.65143 10.0449 3.76518 9.91489C3.87894 9.7853 4.07643 9.77239 4.20644 9.88614C4.99477 10.5778 6.0031 10.9586 7.04602 10.9586C8.02852 10.9586 8.98935 10.6141 9.75185 9.9878C9.88519 9.8778 10.0819 9.89739 10.1919 10.0311C10.3014 10.1645 10.2819 10.3616 10.1485 10.4711C9.27477 11.1886 8.17269 11.5836 7.04602 11.5836Z" fill="white"/>
<path d="M10.026 11.5846C9.94473 11.5846 9.86473 11.553 9.80515 11.493L8.76348 10.4513C8.67432 10.3621 8.64723 10.2276 8.69557 10.1109C8.7439 9.99422 8.85807 9.91797 8.98432 9.91797H10.026C10.1985 9.91797 10.3385 10.058 10.3385 10.2305V11.2721C10.3385 11.3984 10.2622 11.5126 10.1456 11.5609C10.1068 11.5767 10.0664 11.5846 10.026 11.5846Z" fill="white"/>
<path d="M4.08854 6.9974C4.66384 6.9974 5.13021 6.53103 5.13021 5.95573C5.13021 5.38043 4.66384 4.91406 4.08854 4.91406C3.51325 4.91406 3.04688 5.38043 3.04688 5.95573C3.04688 6.53103 3.51325 6.9974 4.08854 6.9974Z" fill="white"/>
<path d="M5.02083 7.41406H3.14583C2.51375 7.41406 2 7.92781 2 8.5599V8.76823C2 8.94073 2.14 9.08073 2.3125 9.08073H5.85417C6.02667 9.08073 6.16667 8.94073 6.16667 8.76823V8.5599C6.16667 7.92781 5.65292 7.41406 5.02083 7.41406Z" fill="white"/>
<path d="M9.91667 6.9974C10.492 6.9974 10.9583 6.53103 10.9583 5.95573C10.9583 5.38043 10.492 4.91406 9.91667 4.91406C9.34137 4.91406 8.875 5.38043 8.875 5.95573C8.875 6.53103 9.34137 6.9974 9.91667 6.9974Z" fill="white"/>
<path d="M10.849 7.41406H8.97396C8.34188 7.41406 7.82812 7.92781 7.82812 8.5599V8.76823C7.82812 8.94073 7.96813 9.08073 8.14062 9.08073H11.6823C11.8548 9.08073 11.9948 8.94073 11.9948 8.76823V8.5599C11.9948 7.92781 11.481 7.41406 10.849 7.41406Z" fill="white"/>
</g>
<defs>
<clipPath id="clip0_17815_7952">
<rect width="10" height="10" fill="white" transform="translate(2 2)"/>
</clipPath>
</defs>
</svg>
