<svg width="20" height="20" viewBox="0 0 20 20" fill="none" xmlns="http://www.w3.org/2000/svg">
<rect x="0.5" y="0.5" width="19" height="19" rx="3.5" stroke="#004B71"/>
<path d="M14.8793 5.50406C14.7626 5.50406 14.6446 5.4634 14.55 5.38006C13.288 4.2734 11.674 3.66406 10.006 3.66406C8.43395 3.66406 6.89662 4.2154 5.67662 5.2174C5.46262 5.39273 5.14729 5.3614 4.97262 5.14806C4.79795 4.93473 4.82862 4.6194 5.04195 4.44406C6.43995 3.29606 8.20329 2.66406 10.006 2.66406C11.9166 2.66406 13.7646 3.3614 15.2093 4.62806C15.4166 4.81006 15.4373 5.12606 15.2553 5.33406C15.1566 5.44606 15.018 5.50406 14.8793 5.50406Z" fill="#004B71"/>
<path d="M6.83854 5.33078H5.17187C4.89587 5.33078 4.67188 5.10678 4.67188 4.83078V3.16411C4.67188 2.96211 4.79387 2.77945 4.98054 2.70211C5.16721 2.62478 5.38254 2.66745 5.52521 2.81078L7.19187 4.47745C7.33454 4.62011 7.37787 4.83545 7.30054 5.02211C7.22321 5.20878 7.04054 5.33078 6.83854 5.33078Z" fill="#004B71"/>
<path d="M10.0768 17.3323C8.16542 17.3323 6.31742 16.6349 4.87342 15.3683C4.66542 15.1863 4.64542 14.8703 4.82742 14.6623C5.00942 14.4549 5.32542 14.4343 5.53342 14.6163C6.79475 15.7229 8.40809 16.3323 10.0768 16.3323C11.6488 16.3323 13.1861 15.7809 14.4061 14.7789C14.6194 14.6029 14.9341 14.6343 15.1101 14.8483C15.2854 15.0616 15.2541 15.3769 15.0408 15.5523C13.6428 16.7003 11.8794 17.3323 10.0768 17.3323Z" fill="#004B71"/>
<path d="M14.8384 17.3307C14.7084 17.3307 14.5804 17.2801 14.4851 17.1841L12.8184 15.5174C12.6758 15.3747 12.6324 15.1594 12.7098 14.9727C12.7871 14.7861 12.9698 14.6641 13.1718 14.6641H14.8384C15.1144 14.6641 15.3384 14.8881 15.3384 15.1641V16.8307C15.3384 17.0327 15.2164 17.2154 15.0298 17.2927C14.9678 17.3181 14.9031 17.3307 14.8384 17.3307Z" fill="#004B71"/>
<path d="M5.33854 9.9974C6.25902 9.9974 7.00521 9.2512 7.00521 8.33073C7.00521 7.41025 6.25902 6.66406 5.33854 6.66406C4.41807 6.66406 3.67188 7.41025 3.67188 8.33073C3.67188 9.2512 4.41807 9.9974 5.33854 9.9974Z" fill="#004B71"/>
<path d="M6.83333 10.6641H3.83333C2.822 10.6641 2 11.4861 2 12.4974V12.8307C2 13.1067 2.224 13.3307 2.5 13.3307H8.16667C8.44267 13.3307 8.66667 13.1067 8.66667 12.8307V12.4974C8.66667 11.4861 7.84467 10.6641 6.83333 10.6641Z" fill="#004B71"/>
<path d="M14.6667 9.9974C15.5871 9.9974 16.3333 9.2512 16.3333 8.33073C16.3333 7.41025 15.5871 6.66406 14.6667 6.66406C13.7462 6.66406 13 7.41025 13 8.33073C13 9.2512 13.7462 9.9974 14.6667 9.9974Z" fill="#004B71"/>
<path d="M16.1615 10.6641H13.1615C12.1501 10.6641 11.3281 11.4861 11.3281 12.4974V12.8307C11.3281 13.1067 11.5521 13.3307 11.8281 13.3307H17.4948C17.7708 13.3307 17.9948 13.1067 17.9948 12.8307V12.4974C17.9948 11.4861 17.1728 10.6641 16.1615 10.6641Z" fill="#004B71"/>
</svg>
