<svg width="24" height="24" viewBox="0 0 24 24" fill="none" xmlns="http://www.w3.org/2000/svg">
<rect width="24" height="24" rx="12" fill="#0B7AB2"/>
<g clip-path="url(#clip0_17810_7465)">
<path d="M18.0952 6.38203C17.9494 6.38203 17.8019 6.3312 17.6835 6.22703C16.106 4.8437 14.0885 4.08203 12.0035 4.08203C10.0385 4.08203 8.11687 4.7712 6.59187 6.0237C6.32437 6.24286 5.9302 6.2037 5.71187 5.93703C5.49353 5.67036 5.53187 5.2762 5.79853 5.05703C7.54603 3.62203 9.7502 2.83203 12.0035 2.83203C14.3919 2.83203 16.7019 3.7037 18.5077 5.28703C18.7669 5.51453 18.7927 5.90953 18.5652 6.16953C18.4419 6.30953 18.2685 6.38203 18.0952 6.38203Z" fill="white"/>
<path d="M8.04427 6.16543H5.96094C5.61594 6.16543 5.33594 5.88543 5.33594 5.54043V3.4571C5.33594 3.2046 5.48844 2.97626 5.72177 2.8796C5.9551 2.78293 6.22427 2.83626 6.4026 3.01543L8.48594 5.09876C8.66427 5.2771 8.71844 5.54626 8.62177 5.7796C8.5251 6.01293 8.29677 6.16543 8.04427 6.16543Z" fill="white"/>
<path d="M12.0998 21.1673C9.71068 21.1673 7.40068 20.2956 5.59568 18.7123C5.33568 18.4848 5.31068 18.0898 5.53818 17.8298C5.76568 17.5706 6.16068 17.5448 6.42068 17.7723C7.99735 19.1556 10.014 19.9173 12.0998 19.9173C14.0648 19.9173 15.9865 19.2281 17.5115 17.9756C17.7782 17.7556 18.1715 17.7948 18.3915 18.0623C18.6107 18.3289 18.5715 18.7231 18.3048 18.9423C16.5574 20.3773 14.3532 21.1673 12.0998 21.1673Z" fill="white"/>
<path d="M18.0442 21.1654C17.8817 21.1654 17.7217 21.102 17.6025 20.982L15.5192 18.8987C15.3408 18.7204 15.2867 18.4512 15.3833 18.2179C15.48 17.9845 15.7083 17.832 15.9608 17.832H18.0442C18.3892 17.832 18.6692 18.112 18.6692 18.457V20.5404C18.6692 20.7929 18.5167 21.0212 18.2833 21.1179C18.2058 21.1495 18.125 21.1654 18.0442 21.1654Z" fill="white"/>
<path d="M6.16927 11.9987C7.31986 11.9987 8.2526 11.066 8.2526 9.91536C8.2526 8.76477 7.31986 7.83203 6.16927 7.83203C5.01868 7.83203 4.08594 8.76477 4.08594 9.91536C4.08594 11.066 5.01868 11.9987 6.16927 11.9987Z" fill="white"/>
<path d="M8.04167 12.832H4.29167C3.0275 12.832 2 13.8595 2 15.1237V15.5404C2 15.8854 2.28 16.1654 2.625 16.1654H9.70833C10.0533 16.1654 10.3333 15.8854 10.3333 15.5404V15.1237C10.3333 13.8595 9.30583 12.832 8.04167 12.832Z" fill="white"/>
<path d="M17.8333 11.9987C18.9839 11.9987 19.9167 11.066 19.9167 9.91536C19.9167 8.76477 18.9839 7.83203 17.8333 7.83203C16.6827 7.83203 15.75 8.76477 15.75 9.91536C15.75 11.066 16.6827 11.9987 17.8333 11.9987Z" fill="white"/>
<path d="M19.7057 12.832H15.9557C14.6916 12.832 13.6641 13.8595 13.6641 15.1237V15.5404C13.6641 15.8854 13.9441 16.1654 14.2891 16.1654H21.3724C21.7174 16.1654 21.9974 15.8854 21.9974 15.5404V15.1237C21.9974 13.8595 20.9699 12.832 19.7057 12.832Z" fill="white"/>
</g>
<defs>
<clipPath id="clip0_17810_7465">
<rect width="20" height="20" fill="white" transform="translate(2 2)"/>
</clipPath>
</defs>
</svg>
