<svg width="24" height="24" viewBox="0 0 24 24" fill="none" xmlns="http://www.w3.org/2000/svg">
<g clip-path="url(#clip0_3576_5291)">
<path d="M21.5 24H2.5C1.122 24 0 22.878 0 21.5V4.5C0 3.122 1.122 2 2.5 2H21.5C22.878 2 24 3.122 24 4.5V21.5C24 22.878 22.878 24 21.5 24ZM2.5 3C1.673 3 1 3.673 1 4.5V21.5C1 22.327 1.673 23 2.5 23H21.5C22.327 23 23 22.327 23 21.5V4.5C23 3.673 22.327 3 21.5 3H2.5Z" fill="#007EE2"/>
<path d="M23.5 9H0.5C0.224 9 0 8.776 0 8.5C0 8.224 0.224 8 0.5 8H23.5C23.776 8 24 8.224 24 8.5C24 8.776 23.776 9 23.5 9Z" fill="#007EE2"/>
<path d="M11.0002 19.4992C10.9882 19.4992 10.9772 19.4992 10.9642 19.4983C10.8192 19.4882 10.6872 19.4152 10.6002 19.2992L7.60019 15.2992C7.43419 15.0782 7.47919 14.7652 7.70019 14.5993C7.92119 14.4333 8.23419 14.4772 8.40019 14.6992L11.0542 18.2382L16.6462 12.6462C16.8412 12.4513 17.1582 12.4513 17.3532 12.6462C17.5482 12.8413 17.5482 13.1582 17.3532 13.3532L11.3532 19.3532C11.2592 19.4472 11.1322 19.4992 11.0002 19.4992Z" fill="#007EE2"/>
<path d="M5.5 5C5.224 5 5 4.776 5 4.5V0.5C5 0.224 5.224 0 5.5 0C5.776 0 6 0.224 6 0.5V4.5C6 4.776 5.776 5 5.5 5Z" fill="#007EE2"/>
<path d="M18.5 5C18.224 5 18 4.776 18 4.5V0.5C18 0.224 18.224 0 18.5 0C18.776 0 19 0.224 19 0.5V4.5C19 4.776 18.776 5 18.5 5Z" fill="#007EE2"/>
</g>
<defs>
<clipPath id="clip0_3576_5291">
<rect width="24" height="24" fill="white"/>
</clipPath>
</defs>
</svg>
