<svg width="30" height="31" viewBox="0 0 30 31" fill="none" xmlns="http://www.w3.org/2000/svg">
<circle cx="17" cy="14" r="17" fill="white" fill-opacity="0.69"/>
<g clip-path="url(#clip0_2451_18378)">
<path fill-rule="evenodd" clip-rule="evenodd" d="M17.1225 6.96295L17.7523 8.6217C17.7712 8.67154 17.8153 8.70357 17.8686 8.70615L19.6407 8.79252C19.6962 8.79522 19.7419 8.83018 19.7591 8.88303C19.7763 8.93588 19.7599 8.99103 19.7166 9.02584L18.3336 10.1374C18.2921 10.1708 18.2752 10.2226 18.2892 10.274L18.7547 11.9862C18.7693 12.0397 18.7502 12.094 18.7052 12.1267C18.6602 12.1594 18.6027 12.1608 18.5562 12.1303L17.0717 11.1586C17.0271 11.1294 16.9726 11.1294 16.928 11.1586L15.4435 12.1303C15.3971 12.1608 15.3395 12.1594 15.2946 12.1267C15.2496 12.094 15.2305 12.0397 15.2451 11.9862L15.7106 10.274C15.7246 10.2226 15.7077 10.1707 15.6662 10.1373L14.2832 9.0258C14.2399 8.991 14.2235 8.93584 14.2407 8.88299C14.2578 8.83014 14.3035 8.79518 14.3591 8.79248L16.1312 8.70611C16.1845 8.70354 16.2285 8.6715 16.2475 8.62166L16.8772 6.96291C16.8969 6.91096 16.9443 6.8783 16.9999 6.8783C17.0554 6.87834 17.1028 6.911 17.1225 6.96295ZM16.9999 13.0971C18.2108 13.0971 19.1924 14.0787 19.1924 15.2895C19.1924 16.5004 18.2108 17.4821 16.9999 17.4821C15.789 17.4821 14.8074 16.5004 14.8074 15.2895C14.8073 14.0787 15.789 13.0971 16.9999 13.0971ZM21.3113 21.7425C21.0785 19.567 19.2371 17.8727 16.9999 17.8727C14.7626 17.8727 12.9212 19.5671 12.6884 21.7425V22.619C12.6884 23.2573 13.209 23.7779 13.8473 23.7779H20.1524C20.7907 23.7779 21.3113 23.2573 21.3113 22.619V21.7425ZM22.8433 14.827C23.8004 14.827 24.5764 15.6029 24.5764 16.5601C24.5764 17.5172 23.8005 18.2931 22.8433 18.2931C21.8862 18.2931 21.1103 17.5172 21.1103 16.5601C21.1103 15.6029 21.8862 14.827 22.8433 14.827ZM21.9363 21.7425V21.7092L21.9327 21.676C21.835 20.7629 21.492 19.9296 20.9739 19.2381C21.5116 18.8876 22.1536 18.6837 22.8433 18.6837C24.4404 18.6837 25.7823 19.7762 26.1628 21.2546C26.1939 21.3754 26.1697 21.4926 26.0932 21.5912C26.0167 21.6899 25.9093 21.7426 25.7844 21.7426L21.9363 21.7425ZM8.21523 21.7425C8.09042 21.7425 7.98296 21.6899 7.90652 21.5912C7.83003 21.4925 7.80581 21.3754 7.83691 21.2545C8.21742 19.7762 9.55929 18.6837 11.1564 18.6837C11.8462 18.6837 12.4882 18.8876 13.0258 19.2381C12.5077 19.9296 12.1647 20.7629 12.067 21.676L12.0634 21.7092V21.7425H8.21523ZM11.1564 14.827C12.1135 14.827 12.8894 15.6029 12.8894 16.5601C12.8894 17.5172 12.1135 18.2931 11.1564 18.2931C10.1993 18.2931 9.42339 17.5172 9.42339 16.5601C9.42339 15.6029 10.1993 14.827 11.1564 14.827ZM13.6903 6.4051L14.7988 7.40318C14.9269 7.51846 15.1242 7.50807 15.2394 7.37998C15.3547 7.25189 15.3443 7.05459 15.2162 6.93932L14.1078 5.94123C13.9797 5.82596 13.7824 5.83635 13.6671 5.96443C13.5518 6.09252 13.5622 6.28982 13.6903 6.4051ZM19.8919 5.94123L18.7769 6.94514C18.6489 7.06041 18.6385 7.25771 18.7537 7.3858C18.869 7.51389 19.0663 7.52428 19.1944 7.409L20.3093 6.4051C20.4374 6.28982 20.4478 6.09252 20.3325 5.96443C20.2173 5.83635 20.02 5.82596 19.8919 5.94123ZM17.3123 5.6815C17.3123 5.85408 17.1724 5.994 16.9998 5.994C16.8273 5.994 16.6873 5.85408 16.6873 5.6815V4.53467C16.6873 4.36209 16.8273 4.22217 16.9998 4.22217C17.1724 4.22217 17.3123 4.36209 17.3123 4.53467V5.6815Z" fill="#FF6968"/>
</g>
<defs>
<clipPath id="clip0_2451_18378">
<rect width="20" height="20" fill="white" transform="translate(7 4)"/>
</clipPath>
</defs>
</svg>
