<svg width="30" height="30" viewBox="0 0 30 30" fill="none" xmlns="http://www.w3.org/2000/svg">
<rect width="30" height="30" rx="15" fill="#FFDAD5"/>
<g clip-path="url(#clip0_16170_7672)">
<path d="M12.6372 23.37L14.9551 16.766L8.86614 16.7476C8.6086 16.7476 8.40625 16.5452 8.40625 16.2877C8.40625 16.1773 8.44304 16.0853 8.51662 15.9934C10.301 13.8043 12.0854 11.6152 13.8697 9.42615C14.7527 8.3592 15.6357 7.27387 16.5371 6.17013C16.7026 5.96778 16.9786 5.94939 17.1809 6.09655C17.3281 6.22532 17.3833 6.42767 17.3281 6.61163L14.9919 13.234L21.0808 13.2524C21.3383 13.2524 21.5407 13.4548 21.5407 13.7123C21.5407 13.8227 21.5039 13.9147 21.4487 13.9882C19.7379 16.1957 17.9351 18.3664 16.1324 20.5555C15.2494 21.6224 14.3664 22.6893 13.4282 23.8299C13.2627 24.0322 12.9867 24.0506 12.7844 23.9034C12.6188 23.7563 12.5636 23.5539 12.6372 23.37Z" fill="#A87773"/>
<path d="M11.4988 21.3103C11.7196 21.439 11.8115 21.715 11.6828 21.9357C11.554 22.1565 11.2781 22.2485 11.0573 22.1197C9.73285 21.4023 8.64751 20.3537 7.89329 19.0844C7.15747 17.8335 6.73438 16.3987 6.73438 14.8718C6.73438 12.9587 7.39661 11.1743 8.51874 9.75787C9.64087 8.34142 11.2413 7.29287 13.0992 6.85138C13.3384 6.79619 13.5959 6.94335 13.6511 7.20089C13.7063 7.44003 13.5591 7.69757 13.3016 7.75276C11.646 8.13907 10.2295 9.07724 9.23617 10.3281C8.24281 11.579 7.65415 13.1794 7.65415 14.8718C7.65415 16.2147 8.02206 17.5024 8.6843 18.6245C9.36494 19.7467 10.3215 20.6848 11.4988 21.3103Z" fill="#A87773"/>
<path d="M18.5601 8.46982C18.3394 8.34105 18.2474 8.06512 18.3761 7.84437C18.5049 7.62363 18.7808 7.53165 19.0016 7.66042C20.3261 8.37785 21.393 9.44479 22.1288 10.6773C22.8647 11.9282 23.2694 13.363 23.2694 14.8715C23.2694 16.803 22.5887 18.6058 21.4482 20.0222C20.3077 21.4387 18.6889 22.4872 16.8125 22.9103C16.5734 22.9655 16.3158 22.8 16.2607 22.5608C16.2055 22.3217 16.371 22.0641 16.6102 22.0089C18.2842 21.641 19.719 20.7029 20.7308 19.452C21.7425 18.1827 22.3496 16.5823 22.3496 14.8715C22.3496 13.5286 21.9817 12.2593 21.3378 11.1556C20.6756 10.0518 19.7374 9.11367 18.5601 8.46982Z" fill="#A87773"/>
</g>
<defs>
<clipPath id="clip0_16170_7672">
<rect width="18" height="18" fill="white" transform="translate(6 6)"/>
</clipPath>
</defs>
</svg>
