<svg width="30" height="30" viewBox="0 0 30 30" fill="none" xmlns="http://www.w3.org/2000/svg">
<rect width="30" height="30" rx="15" fill="#FFF1E8"/>
<path fill-rule="evenodd" clip-rule="evenodd" d="M17.3847 20.2905V20.9414H12.605V20.2905H17.3847ZM14.1589 13.3639H13.5004C13.3702 13.3638 13.243 13.3252 13.1347 13.2529C13.0264 13.1805 12.9421 13.0777 12.8923 12.9574C12.8424 12.8371 12.8294 12.7047 12.8549 12.577C12.8803 12.4493 12.943 12.332 13.0351 12.2399C13.1272 12.1479 13.2445 12.0852 13.3722 12.0598C13.5 12.0344 13.6323 12.0475 13.7526 12.0974C13.8729 12.1472 13.9757 12.2316 14.048 12.3399C14.1203 12.4482 14.1589 12.5755 14.1589 12.7057V13.3639ZM15.2306 19.6905H14.759V13.9638H15.2306V19.6905ZM16.9781 22.1152H13.0115C12.9038 22.1152 12.8005 22.0724 12.7243 21.9962C12.6481 21.9201 12.6052 21.8168 12.605 21.7091V21.5415H17.3847V21.7091C17.3845 21.8168 17.3416 21.9201 17.2654 21.9962C17.1892 22.0724 17.0859 22.1152 16.9781 22.1152ZM14.9948 24C14.5893 23.9979 14.1937 23.8743 13.859 23.6454C13.5243 23.4164 13.2658 23.0924 13.1168 22.7153H16.8729C16.7239 23.0924 16.4654 23.4164 16.1307 23.6453C15.796 23.8743 15.4004 23.9978 14.9948 24ZM18.3181 18.5306C19.3442 17.9428 20.1972 17.0948 20.791 16.0721C21.3849 15.0495 21.6986 13.8883 21.7006 12.7057C21.7006 9.00821 18.6924 6 14.9948 6C11.2973 6 8.28906 9.00821 8.28906 12.7057C8.29104 13.8883 8.60477 15.0495 9.19863 16.0721C9.79249 17.0948 10.6455 17.9428 11.6716 18.5306C11.8909 18.6522 12.0825 18.8181 12.2342 19.0178C12.3859 19.2175 12.4943 19.4466 12.5525 19.6905H14.1589V13.9638H13.5004C13.2516 13.9637 13.0083 13.8899 12.8014 13.7516C12.5945 13.6133 12.4333 13.4167 12.3381 13.1868C12.2429 12.9568 12.218 12.7038 12.2666 12.4597C12.3153 12.2157 12.4351 11.9915 12.6112 11.8155C12.7872 11.6396 13.0114 11.5198 13.2555 11.4713C13.4996 11.4228 13.7526 11.4478 13.9825 11.5431C14.2124 11.6383 14.4089 11.7997 14.5471 12.0066C14.6853 12.2136 14.7591 12.4569 14.759 12.7057V13.3639H15.2306V12.7057C15.2306 12.4569 15.3043 12.2136 15.4426 12.0066C15.5808 11.7997 15.7773 11.6383 16.0072 11.5431C16.2371 11.4478 16.4901 11.4228 16.7342 11.4713C16.9783 11.5198 17.2025 11.6396 17.3785 11.8155C17.5545 11.9915 17.6744 12.2157 17.723 12.4597C17.7716 12.7038 17.7468 12.9568 17.6516 13.1868C17.5564 13.4167 17.3951 13.6133 17.1883 13.7516C16.9814 13.8899 16.7381 13.9637 16.4892 13.9638H15.8306V19.6905H17.4373C17.4955 19.4466 17.6039 19.2175 17.7556 19.0178C17.9073 18.8181 18.0989 18.6522 18.3182 18.5306H18.3181ZM15.8306 13.3639V12.7057C15.8306 12.5755 15.8692 12.4483 15.9415 12.34C16.0138 12.2317 16.1166 12.1473 16.2368 12.0974C16.3571 12.0476 16.4895 12.0345 16.6172 12.0599C16.7449 12.0852 16.8622 12.1479 16.9543 12.2399C17.0464 12.3319 17.1091 12.4492 17.1345 12.5769C17.16 12.7046 17.147 12.8369 17.0972 12.9572C17.0475 13.0776 16.9631 13.1804 16.8549 13.2528C16.7467 13.3251 16.6194 13.3638 16.4892 13.3639H15.8306Z" fill="#E0772C"/>
</svg>
