<svg width="15" height="15" viewBox="0 0 15 15" fill="none" xmlns="http://www.w3.org/2000/svg">
<path d="M13.0728 9.02539C12.9568 9.02539 12.8455 9.07148 12.7635 9.15353C12.6814 9.23558 12.6353 9.34686 12.6353 9.46289V10.957C12.6353 11.3091 12.4954 11.6468 12.2464 11.8959C11.9974 12.1449 11.6597 12.2848 11.3075 12.2848H3.695C3.34284 12.2848 3.00511 12.1449 2.75609 11.8959C2.50708 11.6468 2.36719 11.3091 2.36719 10.957V9.46289C2.36719 9.34686 2.32109 9.23558 2.23905 9.15353C2.157 9.07148 2.04572 9.02539 1.92969 9.02539C1.81366 9.02539 1.70238 9.07148 1.62033 9.15353C1.53828 9.23558 1.49219 9.34686 1.49219 9.46289V10.957C1.49277 11.541 1.72503 12.101 2.13802 12.5139C2.551 12.9269 3.11096 13.1592 3.695 13.1598H11.3075C11.8915 13.1592 12.4515 12.9269 12.8645 12.5139C13.2775 12.101 13.5097 11.541 13.5103 10.957V9.46289C13.5103 9.34686 13.4642 9.23558 13.3822 9.15353C13.3001 9.07148 13.1888 9.02539 13.0728 9.02539Z" fill="#727886"/>
<path d="M5.31509 5.2401L7.06509 3.4901V9.98698C7.06509 10.103 7.11118 10.2143 7.19323 10.2963C7.27528 10.3784 7.38656 10.4245 7.50259 10.4245C7.61862 10.4245 7.7299 10.3784 7.81195 10.2963C7.894 10.2143 7.94009 10.103 7.94009 9.98698V3.49666L9.69009 5.24667C9.73074 5.28731 9.77899 5.31956 9.8321 5.34156C9.88521 5.36355 9.94214 5.37488 9.99962 5.37488C10.0571 5.37488 10.114 5.36355 10.1671 5.34156C10.2202 5.31956 10.2685 5.28731 10.3092 5.24667C10.3498 5.20602 10.382 5.15776 10.404 5.10465C10.426 5.05154 10.4374 4.99462 10.4374 4.93713C10.4374 4.87965 10.426 4.82273 10.404 4.76962C10.382 4.71651 10.3498 4.66825 10.3092 4.6276L7.81321 2.13166C7.7524 2.07267 7.67685 2.03112 7.59446 2.01135C7.52366 1.99832 7.45076 2.00244 7.38187 2.02337C7.31298 2.04431 7.25011 2.08144 7.19853 2.13166L4.70259 4.62104C4.63313 4.70462 4.59727 4.81105 4.60197 4.91962C4.60668 5.02819 4.65163 5.13112 4.72806 5.20837C4.80449 5.28563 4.90694 5.33167 5.01545 5.33753C5.12396 5.3434 5.23078 5.30867 5.31509 5.2401Z" fill="#727886"/>
</svg>
