<svg width="55" height="44" viewBox="0 0 55 44" fill="none" xmlns="http://www.w3.org/2000/svg">
<rect x="15" width="25" height="25" rx="12.5" fill="#D2D2E4"/>
<path d="M26.9325 13.0689H23.5234V11.9325H26.9325V8.52344H28.0689V11.9325H31.478V13.0689H28.0689V16.478H26.9325V13.0689Z" fill="#FAFAFA"/>
<mask id="mask0_3944_3457" style="mask-type:alpha" maskUnits="userSpaceOnUse" x="16" y="0" width="24" height="24">
<rect x="16" width="24" height="24" fill="#D9D9D9"/>
</mask>
<g mask="url(#mask0_3944_3457)">
</g>
<path d="M6.368 41.14H2.72L2.048 43H0.896L3.92 34.684H5.18L8.192 43H7.04L6.368 41.14ZM6.056 40.252L4.544 36.028L3.032 40.252H6.056ZM9.10194 39.688C9.10194 39.016 9.23794 38.428 9.50994 37.924C9.78194 37.412 10.1539 37.016 10.6259 36.736C11.1059 36.456 11.6419 36.316 12.2339 36.316C12.7459 36.316 13.2219 36.436 13.6619 36.676C14.1019 36.908 14.4379 37.216 14.6699 37.6V34.12H15.7739V43H14.6699V41.764C14.4539 42.156 14.1339 42.48 13.7099 42.736C13.2859 42.984 12.7899 43.108 12.2219 43.108C11.6379 43.108 11.1059 42.964 10.6259 42.676C10.1539 42.388 9.78194 41.984 9.50994 41.464C9.23794 40.944 9.10194 40.352 9.10194 39.688ZM14.6699 39.7C14.6699 39.204 14.5699 38.772 14.3699 38.404C14.1699 38.036 13.8979 37.756 13.5539 37.564C13.2179 37.364 12.8459 37.264 12.4379 37.264C12.0299 37.264 11.6579 37.36 11.3219 37.552C10.9859 37.744 10.7179 38.024 10.5179 38.392C10.3179 38.76 10.2179 39.192 10.2179 39.688C10.2179 40.192 10.3179 40.632 10.5179 41.008C10.7179 41.376 10.9859 41.66 11.3219 41.86C11.6579 42.052 12.0299 42.148 12.4379 42.148C12.8459 42.148 13.2179 42.052 13.5539 41.86C13.8979 41.66 14.1699 41.376 14.3699 41.008C14.5699 40.632 14.6699 40.196 14.6699 39.7ZM17.2113 39.688C17.2113 39.016 17.3473 38.428 17.6193 37.924C17.8913 37.412 18.2633 37.016 18.7353 36.736C19.2153 36.456 19.7513 36.316 20.3433 36.316C20.8553 36.316 21.3313 36.436 21.7713 36.676C22.2113 36.908 22.5473 37.216 22.7793 37.6V34.12H23.8833V43H22.7793V41.764C22.5633 42.156 22.2433 42.48 21.8193 42.736C21.3953 42.984 20.8993 43.108 20.3313 43.108C19.7473 43.108 19.2153 42.964 18.7353 42.676C18.2633 42.388 17.8913 41.984 17.6193 41.464C17.3473 40.944 17.2113 40.352 17.2113 39.688ZM22.7793 39.7C22.7793 39.204 22.6793 38.772 22.4793 38.404C22.2793 38.036 22.0073 37.756 21.6633 37.564C21.3273 37.364 20.9553 37.264 20.5473 37.264C20.1393 37.264 19.7673 37.36 19.4313 37.552C19.0953 37.744 18.8273 38.024 18.6273 38.392C18.4273 38.76 18.3273 39.192 18.3273 39.688C18.3273 40.192 18.4273 40.632 18.6273 41.008C18.8273 41.376 19.0953 41.66 19.4313 41.86C19.7673 42.052 20.1393 42.148 20.5473 42.148C20.9553 42.148 21.3273 42.052 21.6633 41.86C22.0073 41.66 22.2793 41.376 22.4793 41.008C22.6793 40.632 22.7793 40.196 22.7793 39.7ZM33.6559 34.636V35.524H30.0199V38.344H32.9719V39.232H30.0199V43H28.9279V34.636H33.6559ZM35.5388 35.356C35.3308 35.356 35.1548 35.284 35.0108 35.14C34.8668 34.996 34.7948 34.82 34.7948 34.612C34.7948 34.404 34.8668 34.228 35.0108 34.084C35.1548 33.94 35.3308 33.868 35.5388 33.868C35.7388 33.868 35.9068 33.94 36.0428 34.084C36.1868 34.228 36.2588 34.404 36.2588 34.612C36.2588 34.82 36.1868 34.996 36.0428 35.14C35.9068 35.284 35.7388 35.356 35.5388 35.356ZM36.0668 36.424V43H34.9748V36.424H36.0668ZM39.0199 34.12V43H37.9279V34.12H39.0199ZM46.881 39.46C46.881 39.668 46.869 39.888 46.845 40.12H41.589C41.629 40.768 41.849 41.276 42.249 41.644C42.657 42.004 43.149 42.184 43.725 42.184C44.197 42.184 44.589 42.076 44.901 41.86C45.221 41.636 45.445 41.34 45.573 40.972H46.749C46.573 41.604 46.221 42.12 45.693 42.52C45.165 42.912 44.509 43.108 43.725 43.108C43.101 43.108 42.541 42.968 42.045 42.688C41.557 42.408 41.173 42.012 40.893 41.5C40.613 40.98 40.473 40.38 40.473 39.7C40.473 39.02 40.609 38.424 40.881 37.912C41.153 37.4 41.533 37.008 42.021 36.736C42.517 36.456 43.085 36.316 43.725 36.316C44.349 36.316 44.901 36.452 45.381 36.724C45.861 36.996 46.229 37.372 46.485 37.852C46.749 38.324 46.881 38.86 46.881 39.46ZM45.753 39.232C45.753 38.816 45.661 38.46 45.477 38.164C45.293 37.86 45.041 37.632 44.721 37.48C44.409 37.32 44.061 37.24 43.677 37.24C43.125 37.24 42.653 37.416 42.261 37.768C41.877 38.12 41.657 38.608 41.601 39.232H45.753ZM50.6504 43.108C50.1464 43.108 49.6944 43.024 49.2944 42.856C48.8944 42.68 48.5784 42.44 48.3464 42.136C48.1144 41.824 47.9864 41.468 47.9624 41.068H49.0904C49.1224 41.396 49.2744 41.664 49.5464 41.872C49.8264 42.08 50.1904 42.184 50.6384 42.184C51.0544 42.184 51.3824 42.092 51.6224 41.908C51.8624 41.724 51.9824 41.492 51.9824 41.212C51.9824 40.924 51.8544 40.712 51.5984 40.576C51.3424 40.432 50.9464 40.292 50.4104 40.156C49.9224 40.028 49.5224 39.9 49.2104 39.772C48.9064 39.636 48.6424 39.44 48.4184 39.184C48.2024 38.92 48.0944 38.576 48.0944 38.152C48.0944 37.816 48.1944 37.508 48.3944 37.228C48.5944 36.948 48.8784 36.728 49.2464 36.568C49.6144 36.4 50.0344 36.316 50.5064 36.316C51.2344 36.316 51.8224 36.5 52.2704 36.868C52.7184 37.236 52.9584 37.74 52.9904 38.38H51.8984C51.8744 38.036 51.7344 37.76 51.4784 37.552C51.2304 37.344 50.8944 37.24 50.4704 37.24C50.0784 37.24 49.7664 37.324 49.5344 37.492C49.3024 37.66 49.1864 37.88 49.1864 38.152C49.1864 38.368 49.2544 38.548 49.3904 38.692C49.5344 38.828 49.7104 38.94 49.9184 39.028C50.1344 39.108 50.4304 39.2 50.8064 39.304C51.2784 39.432 51.6624 39.56 51.9584 39.688C52.2544 39.808 52.5064 39.992 52.7144 40.24C52.9304 40.488 53.0424 40.812 53.0504 41.212C53.0504 41.572 52.9504 41.896 52.7504 42.184C52.5504 42.472 52.2664 42.7 51.8984 42.868C51.5384 43.028 51.1224 43.108 50.6504 43.108Z" fill="#D2D2E4"/>
</svg>
