<svg width="24" height="24" viewBox="0 0 24 24" fill="none" xmlns="http://www.w3.org/2000/svg">
<g clip-path="url(#clip0_3576_5302)">
<path d="M19.4393 10.2325C19.4393 10.0232 19.2697 9.85352 19.0604 9.85352H9.97269C9.76339 9.85352 9.59375 10.0232 9.59375 10.2325C9.59375 10.4417 9.76344 10.6114 9.97269 10.6114H19.0604C19.2697 10.6114 19.4393 10.4417 19.4393 10.2325Z" fill="#007EE2"/>
<path d="M11.4883 13.3887C11.279 13.3887 11.1094 13.5584 11.1094 13.7676C11.1094 13.9769 11.2791 14.1465 11.4883 14.1465H11.5388C11.7481 14.1465 11.9178 13.9769 11.9178 13.7676C11.9178 13.5584 11.7481 13.3887 11.5388 13.3887H11.4883Z" fill="#007EE2"/>
<path d="M21.4577 6.31795V2.4C21.4577 1.07667 20.381 0 19.0577 0H4.92436C3.60103 0 2.52436 1.07667 2.52436 2.4V12.3819C1.12111 12.4482 0 13.6113 0 15.0316C0 16.4943 1.18917 17.6842 2.65087 17.6842H9.57464V18.9968C9.57464 19.166 9.65405 19.3258 9.79261 19.4352C9.79266 19.4353 9.7927 19.4353 9.7927 19.4353C10.0283 19.6214 10.3837 19.6214 10.6194 19.4353L12.5829 17.8846C12.7684 17.7381 12.8748 17.5269 12.8748 17.3053C12.8748 17.0836 12.7685 16.8725 12.5829 16.7259L10.6194 15.1753C10.3837 14.9891 10.0283 14.9891 9.7927 15.1752C9.65409 15.2847 9.57464 15.4444 9.57464 15.6136V16.9263H3.28223V2.4C3.28223 1.49456 4.01892 0.757875 4.92436 0.757875H19.0577C19.9632 0.757875 20.6999 1.49456 20.6999 2.4V6.3158H14.3895V5.00316C14.3895 4.83394 14.3101 4.67419 14.1715 4.56473C13.9358 4.37859 13.5805 4.37869 13.3448 4.56473L11.3814 6.11541C11.1958 6.26194 11.0894 6.47311 11.0894 6.69473C11.0894 6.91636 11.1958 7.12753 11.3813 7.27406L13.3448 8.82473C13.5805 9.01087 13.9359 9.01083 14.1714 8.82483C14.31 8.71542 14.3895 8.55562 14.3895 8.38636V7.07367H21.0745C21.0773 7.07372 21.0802 7.07372 21.0829 7.07367H21.3491C22.3929 7.07367 23.2421 7.92361 23.2421 8.96841C23.2421 9.97669 22.4512 10.8036 21.4576 10.86V8.38734C21.4576 8.17805 21.288 8.00841 21.0787 8.00841C20.8694 8.00841 20.6998 8.17809 20.6998 8.38734V21.6C20.6998 22.5054 19.9631 23.2421 19.0576 23.2421H4.92436C4.01892 23.2421 3.28223 22.5054 3.28223 21.6V19.0484C3.28223 18.8391 3.11255 18.6695 2.9033 18.6695C2.694 18.6695 2.52436 18.8392 2.52436 19.0484V21.6C2.52436 22.9233 3.60103 24 4.92436 24H19.0577C20.3811 24 21.4577 22.9233 21.4577 21.6V11.6189C22.8692 11.5616 24 10.3947 24 8.96841C24 7.54219 22.8692 6.37519 21.4577 6.31795ZM2.52436 16.9221C1.53928 16.8568 0.757922 16.0338 0.757922 15.0315C0.757922 14.0293 1.53933 13.2063 2.52436 13.141V16.9221ZM10.3325 15.9145L12.0936 17.3053L10.3325 18.6961V15.9145ZM13.6316 8.08552L11.8705 6.69473L13.6316 5.30391V8.08552Z" fill="#007EE2"/>
<path d="M19.0556 16.9258H14.5117C14.3024 16.9258 14.1328 17.0955 14.1328 17.3047C14.1328 17.514 14.3024 17.6837 14.5117 17.6837H19.0556C19.265 17.6837 19.4346 17.514 19.4346 17.3047C19.4346 17.0954 19.2649 16.9258 19.0556 16.9258Z" fill="#007EE2"/>
<path d="M4.92581 14.1465H9.97453C10.1838 14.1465 10.3535 13.9769 10.3535 13.7676C10.3535 13.5584 10.1838 13.3887 9.97453 13.3887H4.92581C4.71652 13.3887 4.54688 13.5584 4.54688 13.7676C4.54688 13.9769 4.71656 14.1465 4.92581 14.1465Z" fill="#007EE2"/>
<path d="M19.0556 13.3887H14.5117C14.3024 13.3887 14.1328 13.5584 14.1328 13.7676C14.1328 13.9769 14.3024 14.1465 14.5117 14.1465H19.0556C19.265 14.1465 19.4346 13.9769 19.4346 13.7676C19.4346 13.5584 19.2649 13.3887 19.0556 13.3887Z" fill="#007EE2"/>
<path d="M9.84862 6.69534C9.84862 6.48605 9.67894 6.31641 9.46969 6.31641H4.92581C4.71652 6.31641 4.54688 6.48609 4.54688 6.69534C4.54688 6.90464 4.71656 7.07428 4.92581 7.07428H9.46964C9.67894 7.07428 9.84862 6.90464 9.84862 6.69534Z" fill="#007EE2"/>
<path d="M12.9493 14.1465H12.9997C13.2091 14.1465 13.3787 13.9769 13.3787 13.7676C13.3787 13.5584 13.2091 13.3887 12.9997 13.3887H12.9493C12.7399 13.3887 12.5703 13.5584 12.5703 13.7676C12.5703 13.9769 12.7399 14.1465 12.9493 14.1465Z" fill="#007EE2"/>
<path d="M8.41019 9.85352C8.20089 9.85352 8.03125 10.0232 8.03125 10.2325C8.03125 10.4417 8.20094 10.6114 8.41019 10.6114H8.46067C8.66997 10.6114 8.83961 10.4417 8.83961 10.2325C8.83961 10.0232 8.66992 9.85352 8.46067 9.85352H8.41019Z" fill="#007EE2"/>
<path d="M4.92581 10.6114H6.94528C7.15458 10.6114 7.32422 10.4417 7.32422 10.2325C7.32422 10.0232 7.15453 9.85352 6.94528 9.85352H4.92581C4.71652 9.85352 4.54688 10.0232 4.54688 10.2325C4.54688 10.4417 4.71656 10.6114 4.92581 10.6114Z" fill="#007EE2"/>
</g>
<defs>
<clipPath id="clip0_3576_5302">
<rect width="24" height="24" fill="white"/>
</clipPath>
</defs>
</svg>
