<svg width="72" height="73" viewBox="0 0 72 73" fill="none" xmlns="http://www.w3.org/2000/svg">
<g filter="url(#filter0_dd_9027_7201)">
<g clip-path="url(#clip0_9027_7201)">
<rect x="11" y="7.5" width="50" height="50" rx="25" fill="#2196F3"/>
<path d="M33.1875 21.25H35.4375V24.625H33.1875V21.25Z" fill="white"/>
<path d="M45 31.375V19H23.625V41.5H30.9375V38.6875C30.9375 37.7924 31.2931 36.9339 31.926 36.301C32.5589 35.6681 33.4174 35.3125 34.3125 35.3125C35.2076 35.3125 36.0661 35.6681 36.699 36.301C37.3319 36.9339 37.6875 37.7924 37.6875 38.6875V41.5H40.2356C39.42 40.0713 38.8125 38.6481 38.8125 37.5625C38.8129 36.5681 39.0535 35.5886 39.5138 34.7072C39.9741 33.8258 40.6405 33.0686 41.4563 32.5H38.8125V31.375H39.375V27.4375C39.375 27.2883 39.4343 27.1452 39.5398 27.0398C39.6452 26.9343 39.7883 26.875 39.9375 26.875H43.3125C43.4617 26.875 43.6048 26.9343 43.7102 27.0398C43.8157 27.1452 43.875 27.2883 43.875 27.4375V31.4819C44.246 31.4121 44.6225 31.3763 45 31.375ZM29.8125 32.5H24.1875V31.375H24.75V27.4375C24.75 27.2883 24.8093 27.1452 24.9148 27.0398C25.0202 26.9343 25.1633 26.875 25.3125 26.875H28.6875C28.8367 26.875 28.9798 26.9343 29.0852 27.0398C29.1907 27.1452 29.25 27.2883 29.25 27.4375V31.375H29.8125V32.5ZM29.8125 25.75H24.1875V24.625H24.75V20.6875C24.75 20.5383 24.8093 20.3952 24.9148 20.2898C25.0202 20.1843 25.1633 20.125 25.3125 20.125H28.6875C28.8367 20.125 28.9798 20.1843 29.0852 20.2898C29.1907 20.3952 29.25 20.5383 29.25 20.6875V24.625H29.8125V25.75ZM37.125 32.5H31.5V31.375H32.0625V27.4375C32.0625 27.2883 32.1218 27.1452 32.2273 27.0398C32.3327 26.9343 32.4758 26.875 32.625 26.875H36C36.1492 26.875 36.2923 26.9343 36.3977 27.0398C36.5032 27.1452 36.5625 27.2883 36.5625 27.4375V31.375H37.125V32.5ZM37.125 25.75H31.5V24.625H32.0625V20.6875C32.0625 20.5383 32.1218 20.3952 32.2273 20.2898C32.3327 20.1843 32.4758 20.125 32.625 20.125H36C36.1492 20.125 36.2923 20.1843 36.3977 20.2898C36.5032 20.3952 36.5625 20.5383 36.5625 20.6875V24.625H37.125V25.75ZM38.8125 25.75V24.625H39.375V20.6875C39.375 20.5383 39.4343 20.3952 39.5398 20.2898C39.6452 20.1843 39.7883 20.125 39.9375 20.125H43.3125C43.4617 20.125 43.6048 20.1843 43.7102 20.2898C43.8157 20.3952 43.875 20.5383 43.875 20.6875V24.625H44.4375V25.75H38.8125Z" fill="white"/>
<path d="M40.5 21.25H42.75V24.625H40.5V21.25Z" fill="white"/>
<path d="M25.875 28H28.125V31.375H25.875V28Z" fill="white"/>
<path d="M40.5 28H42.75V31.375H40.5V28Z" fill="white"/>
<path d="M25.875 21.25H28.125V24.625H25.875V21.25Z" fill="white"/>
<path d="M33.1875 28H35.4375V31.375H33.1875V28Z" fill="white"/>
<path d="M50.0625 37.5625C50.0625 36.2198 49.5291 34.9322 48.5797 33.9828C47.6303 33.0334 46.3427 32.5 45 32.5C43.6573 32.5 42.3697 33.0334 41.4203 33.9828C40.4709 34.9322 39.9375 36.2198 39.9375 37.5625C39.9375 39.7394 43.2731 44.1831 45 46.2587C46.7269 44.1831 50.0625 39.7394 50.0625 37.5625ZM42.1875 37.5625C42.1875 37.0062 42.3524 36.4625 42.6615 36C42.9705 35.5374 43.4098 35.177 43.9237 34.9641C44.4376 34.7512 45.0031 34.6955 45.5487 34.804C46.0943 34.9126 46.5954 35.1804 46.9887 35.5738C47.3821 35.9671 47.6499 36.4682 47.7585 37.0138C47.867 37.5594 47.8113 38.1249 47.5984 38.6388C47.3855 39.1527 47.0251 39.592 46.5625 39.901C46.1 40.2101 45.5563 40.375 45 40.375C44.2544 40.3741 43.5395 40.0775 43.0122 39.5503C42.485 39.023 42.1884 38.3081 42.1875 37.5625Z" fill="white"/>
<path d="M45 39.25C45.932 39.25 46.6875 38.4945 46.6875 37.5625C46.6875 36.6305 45.932 35.875 45 35.875C44.068 35.875 43.3125 36.6305 43.3125 37.5625C43.3125 38.4945 44.068 39.25 45 39.25Z" fill="white"/>
<path d="M32.0625 38.6875V41.5H36.5625V38.6875C36.5625 38.0908 36.3254 37.5185 35.9035 37.0965C35.4815 36.6746 34.9092 36.4375 34.3125 36.4375C33.7158 36.4375 33.1435 36.6746 32.7215 37.0965C32.2996 37.5185 32.0625 38.0908 32.0625 38.6875Z" fill="white"/>
<path d="M21.9375 16.75H46.6875V17.875H21.9375V16.75Z" fill="white"/>
<path d="M45 48.2491C47.16 48.2491 48.3075 47.6304 48.375 47.3941C48.3244 47.2423 47.6044 46.7979 46.1475 46.6348C45.7481 47.1241 45.4725 47.4391 45.4219 47.4954C45.3691 47.5552 45.3042 47.6032 45.2314 47.636C45.1587 47.6688 45.0798 47.6858 45 47.6858C44.9202 47.6858 44.8413 47.6688 44.7686 47.636C44.6958 47.6032 44.6309 47.5552 44.5781 47.4954C44.5275 47.4391 44.2519 47.1241 43.8525 46.6348C42.3956 46.7979 41.6756 47.2423 41.625 47.4166C41.6925 47.6304 42.84 48.2491 45 48.2491Z" fill="white"/>
<path d="M21.9375 43.1875H41.2875C41.1638 43.0019 41.04 42.8162 40.9163 42.625H21.9375V43.1875Z" fill="white"/>
</g>
</g>
<defs>
<filter id="filter0_dd_9027_7201" x="0" y="0.5" width="72" height="72" filterUnits="userSpaceOnUse" color-interpolation-filters="sRGB">
<feFlood flood-opacity="0" result="BackgroundImageFix"/>
<feColorMatrix in="SourceAlpha" type="matrix" values="0 0 0 0 0 0 0 0 0 0 0 0 0 0 0 0 0 0 127 0" result="hardAlpha"/>
<feOffset dy="1"/>
<feGaussianBlur stdDeviation="1.5"/>
<feColorMatrix type="matrix" values="0 0 0 0 0 0 0 0 0 0 0 0 0 0 0 0 0 0 0.3 0"/>
<feBlend mode="normal" in2="BackgroundImageFix" result="effect1_dropShadow_9027_7201"/>
<feColorMatrix in="SourceAlpha" type="matrix" values="0 0 0 0 0 0 0 0 0 0 0 0 0 0 0 0 0 0 127 0" result="hardAlpha"/>
<feMorphology radius="3" operator="dilate" in="SourceAlpha" result="effect2_dropShadow_9027_7201"/>
<feOffset dy="4"/>
<feGaussianBlur stdDeviation="4"/>
<feColorMatrix type="matrix" values="0 0 0 0 0 0 0 0 0 0 0 0 0 0 0 0 0 0 0.15 0"/>
<feBlend mode="normal" in2="effect1_dropShadow_9027_7201" result="effect2_dropShadow_9027_7201"/>
<feBlend mode="normal" in="SourceGraphic" in2="effect2_dropShadow_9027_7201" result="shape"/>
</filter>
<clipPath id="clip0_9027_7201">
<rect x="11" y="7.5" width="50" height="50" rx="25" fill="white"/>
</clipPath>
</defs>
</svg>
