<svg width="28" height="28" viewBox="0 0 28 28" fill="none" xmlns="http://www.w3.org/2000/svg">
<g clip-path="url(#clip0_4663_7441)">
<path d="M3.26667 14.0018C3.26667 13.7438 3.05807 13.5352 2.8 13.5352H0.466667C0.2086 13.5352 0 13.7438 0 14.0018C0 14.2599 0.2086 14.4685 0.466667 14.4685H2.8C3.05807 14.4685 3.26667 14.2599 3.26667 14.0018Z" fill="#004F00"/>
<path d="M4.06731 19.1955L2.04664 20.3621C1.82311 20.4909 1.74657 20.7765 1.87584 20.9996C1.96264 21.1494 2.11897 21.2329 2.28044 21.2329C2.35977 21.2329 2.44004 21.2129 2.51331 21.1704L4.53397 20.0037C4.75751 19.8749 4.83404 19.5893 4.70477 19.3663C4.57551 19.1427 4.28944 19.0667 4.06731 19.1955Z" fill="#004F00"/>
<path d="M8.63328 23.2969C8.40974 23.1681 8.12508 23.2447 7.99581 23.4677L6.82914 25.4884C6.70034 25.7119 6.77688 25.9971 6.99994 26.1259C7.07321 26.1683 7.15348 26.1884 7.23281 26.1884C7.39428 26.1884 7.55108 26.1044 7.63741 25.9551L8.80408 23.9344C8.93288 23.7109 8.85634 23.4257 8.63328 23.2969Z" fill="#004F00"/>
<path d="M13.9999 24.7344C13.7418 24.7344 13.5332 24.943 13.5332 25.201V27.5344C13.5332 27.7924 13.7418 28.001 13.9999 28.001C14.2579 28.001 14.4665 27.7924 14.4665 27.5344V25.201C14.4665 24.943 14.2579 24.7344 13.9999 24.7344Z" fill="#004F00"/>
<path d="M20.0039 23.4641C19.8747 23.2406 19.5881 23.1641 19.3665 23.2933C19.1429 23.4221 19.0664 23.7077 19.1957 23.9308L20.3623 25.9515C20.4491 26.1013 20.6055 26.1848 20.7669 26.1848C20.8463 26.1848 20.9265 26.1647 20.9998 26.1223C21.2233 25.9935 21.2999 25.7079 21.1706 25.4848L20.0039 23.4641Z" fill="#004F00"/>
<path d="M25.9531 20.3619L23.9324 19.1952C23.7094 19.0669 23.4238 19.1425 23.295 19.3661C23.1662 19.5896 23.2427 19.8747 23.4658 20.0035L25.4864 21.1702C25.5597 21.2127 25.64 21.2327 25.7193 21.2327C25.8808 21.2327 26.0376 21.1492 26.1239 20.9994C26.2527 20.7759 26.1762 20.4907 25.9531 20.3619Z" fill="#004F00"/>
<path d="M27.5334 13.5352H25.2001C24.942 13.5352 24.7334 13.7438 24.7334 14.0018C24.7334 14.2599 24.942 14.4685 25.2001 14.4685H27.5334C27.7915 14.4685 28.0001 14.2599 28.0001 14.0018C28.0001 13.7438 27.7915 13.5352 27.5334 13.5352Z" fill="#004F00"/>
<path d="M23.6999 8.86615C23.7792 8.86615 23.8595 8.84608 23.9327 8.80362L25.9534 7.63695C26.1769 7.50815 26.2535 7.22255 26.1242 6.99948C25.9954 6.77595 25.7089 6.69895 25.4867 6.82868L23.4661 7.99535C23.2425 8.12415 23.166 8.40975 23.2953 8.63282C23.3821 8.78262 23.5384 8.86615 23.6999 8.86615Z" fill="#004F00"/>
<path d="M21 1.87504C20.7764 1.74624 20.4913 1.82278 20.3625 2.04584L19.1958 4.06651C19.067 4.29004 19.1436 4.57518 19.3666 4.70398C19.4399 4.74644 19.5202 4.76651 19.5995 4.76651C19.761 4.76651 19.9178 4.68251 20.0041 4.53318L21.1708 2.51251C21.2996 2.28898 21.223 2.00384 21 1.87504Z" fill="#004F00"/>
<path d="M13.9999 3.26667C14.2579 3.26667 14.4665 3.05807 14.4665 2.8V0.466667C14.4665 0.2086 14.2579 0 13.9999 0C13.7418 0 13.5332 0.2086 13.5332 0.466667V2.8C13.5332 3.05807 13.7418 3.26667 13.9999 3.26667Z" fill="#004F00"/>
<path d="M7.99563 4.53349C8.08243 4.68329 8.23877 4.76682 8.40023 4.76682C8.47957 4.76682 8.55983 4.74675 8.6331 4.70429C8.85663 4.57549 8.93317 4.28989 8.8039 4.06682L7.63723 2.04615C7.50843 1.82262 7.2219 1.74609 6.99977 1.87535C6.77623 2.00415 6.6997 2.28975 6.82897 2.51282L7.99563 4.53349Z" fill="#004F00"/>
<path d="M4.53415 7.99514L2.51349 6.82848C2.28995 6.69921 2.00482 6.77574 1.87602 6.99928C1.74722 7.22281 1.82375 7.50794 2.04682 7.63674L4.06749 8.80341C4.14075 8.84588 4.22102 8.86594 4.30035 8.86594C4.46182 8.86594 4.61862 8.78241 4.70495 8.63261C4.83375 8.40908 4.75722 8.12394 4.53415 7.99514Z" fill="#004F00"/>
<path d="M20.1594 8.11814C19.7566 7.81667 19.1556 7.90161 18.8527 8.30527C18.841 8.32114 11.421 18.2135 11.421 18.2135C11.3398 18.3218 11.2162 18.3895 11.0808 18.3988C10.9418 18.4109 10.8134 18.3591 10.7178 18.2635L8.12591 15.6716C7.76471 15.3104 7.16645 15.3109 6.80618 15.6716C6.62978 15.848 6.53271 16.0823 6.53271 16.3315C6.53271 16.5807 6.62978 16.8149 6.80618 16.9913L10.5395 20.7247C10.7159 20.9011 10.9502 20.9981 11.1994 20.9981L11.267 20.9953C11.5358 20.9767 11.7836 20.8413 11.9456 20.6248L20.346 9.42481C20.6489 9.02021 20.5654 8.42194 20.1589 8.11767L20.1594 8.11814Z" fill="#004F00"/>
</g>
<defs>
<clipPath id="clip0_4663_7441">
<rect width="28" height="28" fill="white"/>
</clipPath>
</defs>
</svg>
