<svg width="13" height="14" viewBox="0 0 13 14" fill="none" xmlns="http://www.w3.org/2000/svg">
<path d="M2.75229 0.522653C2.81641 0.373028 2.77666 0.199403 2.65441 0.0925278C2.53141 -0.0147222 2.35441 -0.0300973 2.21491 0.0535277C0.135161 1.30115 -0.632464 4.50853 0.572411 6.91753C1.69329 9.1589 2.36979 10.5115 1.31341 12.9772C1.24929 13.1268 1.28904 13.3004 1.41129 13.4073C1.53429 13.5145 1.71129 13.5299 1.85079 13.4463C3.92979 12.1987 4.69741 8.99128 3.49291 6.58115C2.37241 4.34015 1.69591 2.98753 2.75229 0.522653ZM6.87729 0.522653C6.94141 0.373028 6.90166 0.199403 6.77941 0.0925278C6.65641 -0.0147222 6.47941 -0.0300973 6.33991 0.0535277C4.26054 1.30115 3.49291 4.5089 4.69741 6.9179C5.81829 9.15928 6.49479 10.5119 5.43841 12.9775C5.37429 13.1272 5.41404 13.3008 5.53629 13.4077C5.65929 13.5149 5.83629 13.5303 5.97579 13.4467C8.05479 12.199 8.82241 8.99165 7.61791 6.58153C6.49741 4.34015 5.82091 2.98753 6.87729 0.522653ZM11.7429 6.58153C10.6224 4.34015 9.94591 2.98753 11.0023 0.522653C11.0664 0.373028 11.0267 0.199403 10.9044 0.0925278C10.7814 -0.0147222 10.6044 -0.0300973 10.4649 0.0535277C8.38554 1.30115 7.61791 4.5089 8.82241 6.9179C9.94329 9.15928 10.6198 10.5119 9.56341 12.9775C9.49929 13.1272 9.53904 13.3008 9.66129 13.4077C9.78429 13.5149 9.96129 13.5303 10.1008 13.4467C12.1798 12.199 12.9474 8.99128 11.7429 6.58153Z" fill="#F5BD00"/>
</svg>
