<svg width="20" height="20" viewBox="0 0 20 20" fill="none" xmlns="http://www.w3.org/2000/svg">
<g clip-path="url(#clip0_3672_2734)">
<path fill-rule="evenodd" clip-rule="evenodd" d="M15 20H5C3.67394 19.9999 2.4022 19.4731 1.46453 18.5355C0.526861 17.5978 5.80115e-05 16.3261 0 15L0 5C5.80115e-05 3.67394 0.526861 2.4022 1.46453 1.46453C2.4022 0.526861 3.67394 5.80115e-05 5 0L15 0C16.3261 0 17.5979 0.526784 18.5355 1.46447C19.4732 2.40215 20 3.67392 20 5V15C20 16.3261 19.4732 17.5979 18.5355 18.5355C17.5979 19.4732 16.3261 20 15 20Z" fill="#00D264"/>
<path fill-rule="evenodd" clip-rule="evenodd" d="M9.375 5.625H15C15.721 5.62496 16.4145 5.34802 16.9372 4.85138C17.4599 4.35474 17.7719 3.67633 17.8088 2.95625C17.8457 2.23617 17.6047 1.52942 17.1355 0.981957C16.6663 0.434491 16.0047 0.0881194 15.2875 0.014375C15.1919 0.0090625 15.0972 0 15 0H5C3.67394 5.80115e-05 2.4022 0.526861 1.46453 1.46453C0.526861 2.4022 5.80115e-05 3.67394 0 5L0 15C5.80137e-05 12.5136 0.987797 10.1291 2.74594 8.37094C4.50408 6.6128 6.88861 5.62506 9.375 5.625Z" fill="#00DE71"/>
<path fill-rule="evenodd" clip-rule="evenodd" d="M15 10C14.0111 10 13.0444 10.2932 12.2222 10.8427C11.3999 11.3921 10.759 12.173 10.3806 13.0866C10.0022 14.0002 9.90315 15.0055 10.0961 15.9755C10.289 16.9454 10.7652 17.8363 11.4645 18.5355C12.1637 19.2348 13.0546 19.711 14.0246 19.9039C14.9945 20.0969 15.9998 19.9978 16.9134 19.6194C17.8271 19.241 18.6079 18.6001 19.1574 17.7779C19.7068 16.9556 20 15.9889 20 15V5C20 6.32608 19.4732 7.59785 18.5355 8.53553C17.5979 9.47322 16.3261 10 15 10Z" fill="#14C260"/>
<path fill-rule="evenodd" clip-rule="evenodd" d="M6.77283 14.7175C6.85601 14.6939 6.94319 14.6877 7.02887 14.6994C7.11455 14.7111 7.19688 14.7405 7.27064 14.7856C8.51316 15.5259 9.98334 15.7867 11.4047 15.5189C12.826 15.2512 14.1005 14.4734 14.9885 13.3317C15.8765 12.1901 16.3168 10.7634 16.2266 9.31988C16.1364 7.87638 15.5218 6.51558 14.4986 5.49342C13.4753 4.47126 12.1139 3.85818 10.6703 3.7695C9.22669 3.68081 7.80043 4.12263 6.65976 5.01185C5.51909 5.90107 4.74262 7.17642 4.47638 8.59802C4.21014 10.0196 4.47249 11.4895 5.21408 12.7313C5.25905 12.8048 5.28827 12.8869 5.29989 12.9723C5.31151 13.0577 5.30527 13.1446 5.28158 13.2275C5.10752 13.8434 4.68752 15.3134 4.68752 15.3134C4.68752 15.3134 6.15752 14.8934 6.77283 14.7175ZM4.13096 13.3553C3.23749 11.8492 2.92458 10.0687 3.25097 8.34825C3.57736 6.62776 4.52061 5.0856 5.90359 4.01135C7.28656 2.9371 9.01413 2.40467 10.7619 2.51404C12.5097 2.62341 14.1574 3.36705 15.3956 4.60532C16.6339 5.84359 17.3776 7.49131 17.4869 9.23907C17.5963 10.9868 17.0639 12.7144 15.9896 14.0974C14.9154 15.4804 13.3732 16.4236 11.6527 16.75C9.93222 17.0764 8.15175 16.7635 6.64564 15.87C6.64564 15.87 4.65283 16.4394 3.66596 16.7216C3.61234 16.7368 3.55563 16.7375 3.50168 16.7235C3.44773 16.7095 3.3985 16.6813 3.35909 16.6419C3.31967 16.6025 3.2915 16.5532 3.27749 16.4993C3.26348 16.4453 3.26414 16.3886 3.27939 16.335C3.56158 15.3481 4.13096 13.3553 4.13096 13.3553Z" fill="white"/>
<path fill-rule="evenodd" clip-rule="evenodd" d="M6.87238 7.74609C6.9696 9.14539 7.5668 10.4631 8.55496 11.4586C9.54312 12.4541 10.8563 13.061 12.2549 13.1686H12.2555C12.4788 13.1859 12.7032 13.1546 12.9132 13.0769C13.1233 12.9992 13.3141 12.877 13.4724 12.7186L13.6905 12.5005C13.7935 12.3974 13.8514 12.2577 13.8514 12.112V11.6489C13.8514 11.5908 13.8353 11.5339 13.8047 11.4845C13.7742 11.4351 13.7305 11.3952 13.6786 11.3692C13.3496 11.2048 12.6352 10.8477 12.2852 10.6727C12.2265 10.6433 12.1601 10.6332 12.0953 10.6436C12.0305 10.6541 11.9707 10.6847 11.9243 10.7311C11.7499 10.9055 11.4743 11.1814 11.318 11.3373C11.2816 11.3737 11.2369 11.4006 11.1876 11.4155C11.1384 11.4304 11.0863 11.433 11.0358 11.423L11.033 11.4223C10.428 11.3013 9.87236 11.004 9.43608 10.5677C8.99981 10.1314 8.70244 9.57578 8.58144 8.97078L8.58081 8.96797C8.57078 8.91752 8.57335 8.86537 8.58829 8.81615C8.60322 8.76693 8.63007 8.72215 8.66644 8.68578C8.82238 8.52953 9.09831 8.25391 9.27269 8.07953C9.31906 8.0331 9.34965 7.97327 9.36014 7.90849C9.37063 7.84371 9.36048 7.77728 9.33113 7.71859C9.15613 7.36859 8.79894 6.65422 8.63456 6.32516C8.60857 6.27323 8.56865 6.22957 8.51925 6.19905C8.46985 6.16853 8.41294 6.15236 8.35488 6.15234H7.96113C7.86763 6.15237 7.77517 6.17202 7.68974 6.21003C7.60432 6.24803 7.52782 6.30354 7.46519 6.37297C7.40238 6.44297 7.33019 6.52297 7.25769 6.60359C7.12124 6.75501 7.01667 6.93235 6.9502 7.12503C6.88374 7.31772 6.85674 7.52181 6.87081 7.72516C6.87144 7.73203 6.87175 7.73891 6.87238 7.74609Z" fill="white"/>
</g>
<defs>
<clipPath id="clip0_3672_2734">
<rect width="20" height="20" fill="white"/>
</clipPath>
</defs>
</svg>
