<svg width="20" height="20" viewBox="0 0 20 20" fill="none" xmlns="http://www.w3.org/2000/svg">
<path d="M7.08203 8.54299C7.77239 8.54299 8.33203 7.98332 8.33203 7.29297C8.33203 6.60261 7.77239 6.04297 7.08203 6.04297C6.39167 6.04297 5.83203 6.60261 5.83203 7.29297C5.83203 7.98332 6.39167 8.54299 7.08203 8.54299Z" fill="#54656F"/>
<path d="M14.168 7.29297C14.168 7.98332 13.6083 8.54299 12.918 8.54299C12.2276 8.54299 11.668 7.98332 11.668 7.29297C11.668 6.60261 12.2276 6.04297 12.918 6.04297C13.6083 6.04297 14.168 6.60261 14.168 7.29297Z" fill="#54656F"/>
<path fill-rule="evenodd" clip-rule="evenodd" d="M14.0197 16.6512C12.9496 17.7127 11.5086 18.3164 10.0013 18.3346H7.72858C4.38139 18.3346 1.66797 15.6212 1.66797 12.2741V7.72858C1.66797 4.38139 4.38139 1.66797 7.72858 1.66797H12.2741C15.6212 1.66797 18.3346 4.38139 18.3346 7.72858V9.84639C18.3346 11.4623 17.6893 13.0113 16.5421 14.1493L14.0197 16.6512ZM12.2741 3.33464H7.72858C5.30187 3.33464 3.33464 5.30187 3.33464 7.72858V12.2741C3.33464 14.7007 5.30187 16.668 7.72858 16.668H9.44555C9.76964 16.5822 10.0081 16.2861 10.0061 15.935L9.99588 14.0483C9.99572 14.0181 9.99588 13.988 9.99638 13.9579C9.2058 13.9574 8.46713 13.763 7.78049 13.3746C7.09299 12.9856 6.5409 12.4579 6.12424 11.7912C6.0409 11.6246 6.04784 11.4579 6.14507 11.2912C6.24229 11.1246 6.38813 11.0412 6.58257 11.0412H11.3296C12.0425 10.4021 12.9856 10.0146 14.0193 10.0186L15.9018 10.026C16.3194 10.0276 16.6587 9.68955 16.6587 9.27197V7.56504H16.665C16.579 5.21409 14.646 3.33464 12.2741 3.33464ZM11.6727 15.9259C11.6735 16.0517 11.6646 16.1754 11.6466 16.2961C12.0883 16.095 12.4951 15.816 12.846 15.4679L15.3684 12.966C15.7504 12.5871 16.0557 12.1451 16.2741 11.6646C16.1507 11.6836 16.0242 11.6931 15.8954 11.6926L14.0128 11.6853C12.7113 11.6802 11.6555 12.7377 11.6626 14.0392L11.6727 15.9259Z" fill="#54656F"/>
</svg>
