<svg width="12" height="13" viewBox="0 0 12 13" fill="none" xmlns="http://www.w3.org/2000/svg">
<path fill-rule="evenodd" clip-rule="evenodd" d="M10.2109 1.80942C9.0949 0.691619 7.6081 0.0760187 6.0259 0.0742188C2.7661 0.0742188 0.1111 2.72742 0.1111 5.98902C0.1111 7.03122 0.3829 8.05002 0.9013 8.94642L0.0625 12.0118L3.1981 11.1892C4.0621 11.6608 5.0341 11.9092 6.0241 11.9092H6.0259C9.2857 11.9092 11.9389 9.25602 11.9407 5.99442C11.9425 4.41402 11.3287 2.92722 10.2109 1.80942ZM6.0277 10.9102H6.0259C5.1439 10.9102 4.2781 10.6726 3.5239 10.2244L3.3439 10.1182L1.4827 10.606L1.9795 8.79162L1.8625 8.60622C1.3711 7.82322 1.1101 6.91962 1.1101 5.98902C1.1119 3.27822 3.3169 1.07322 6.0295 1.07322C7.3435 1.07322 8.5765 1.58622 9.5053 2.51502C10.4341 3.44382 10.9453 4.68042 10.9435 5.99262C10.9435 8.70522 8.7367 10.9102 6.0277 10.9102ZM8.7241 7.22742C8.5765 7.15362 7.8493 6.79542 7.7143 6.74682C7.5793 6.69822 7.4803 6.67302 7.3813 6.82062C7.2823 6.96822 6.9997 7.30122 6.9133 7.40022C6.8269 7.49922 6.7405 7.51182 6.5929 7.43802C6.4453 7.36422 5.9683 7.20762 5.4049 6.70362C4.9657 6.31122 4.6687 5.82702 4.5823 5.67942C4.4959 5.53182 4.5733 5.45082 4.6471 5.37702C4.7137 5.31042 4.7947 5.20422 4.8685 5.11782C4.9423 5.03142 4.9675 4.97022 5.0161 4.87122C5.0647 4.77222 5.0413 4.68582 5.0035 4.61202C4.9657 4.53822 4.6705 3.81102 4.5481 3.51402C4.4275 3.22602 4.3069 3.26562 4.2151 3.26022C4.1287 3.25662 4.0297 3.25482 3.9325 3.25482C3.8335 3.25482 3.6733 3.29262 3.5383 3.44022C3.4033 3.58782 3.0217 3.94602 3.0217 4.67322C3.0217 5.40042 3.5509 6.10422 3.6247 6.20142C3.6985 6.30042 4.6669 7.79262 6.1501 8.43342C6.5029 8.58642 6.7783 8.67642 6.9925 8.74482C7.3471 8.85822 7.6693 8.84202 7.9231 8.80422C8.2075 8.76102 8.7979 8.44602 8.9203 8.10222C9.0427 7.75662 9.0427 7.46142 9.0067 7.40022C8.9707 7.33902 8.8717 7.30302 8.7241 7.22742Z" fill="white"/>
</svg>
