<svg width="19" height="21" viewBox="0 0 19 21" fill="none" xmlns="http://www.w3.org/2000/svg">
<path d="M8.99243 15.5164C8.86907 15.2291 8.64118 15.008 8.35087 14.894C8.06251 14.7806 7.74595 14.786 7.46138 14.9082L6.92095 15.1366C6.4702 14.8532 5.67622 14.2235 5.27665 13.1271C4.95141 12.2346 5.02782 11.4201 5.13372 10.9282L5.69286 10.6918C6.28513 10.4375 6.56063 9.74993 6.30704 9.15926L5.29755 6.80837C5.04325 6.21606 4.35442 5.9411 3.76364 6.19481C3.46063 6.32341 2.94618 6.54204 2.90493 6.56157C1.71692 7.12329 0.876805 8.29255 0.538915 9.85438C0.175047 11.3432 0.442157 13.5993 1.16091 15.1095C1.88962 16.823 3.03907 18.2496 4.39829 19.1273C5.31583 19.7198 6.26321 20.0218 7.16489 20.0218C7.64114 20.0218 8.10481 19.9375 8.54427 19.7671C8.577 19.7544 9.08821 19.539 9.39235 19.4106C9.98462 19.1563 10.2581 18.464 10.0019 17.8673L8.99243 15.5164ZM9.08641 18.6918C8.78661 18.8183 8.29684 19.0247 8.26165 19.0388C7.22997 19.4388 6.00845 19.2372 4.82204 18.471C3.59079 17.676 2.54473 16.371 1.87665 14.7964C1.87438 14.7911 1.872 14.7858 1.8695 14.7806C1.30571 13.6007 0.938133 11.5031 1.29884 10.0353C1.29973 10.0317 1.30056 10.0281 1.30134 10.0244C1.5861 8.70286 2.27415 7.72391 3.23567 7.26923C3.28032 7.24903 3.77036 7.04059 4.07028 6.91325C4.12001 6.89188 4.17181 6.88176 4.22282 6.88176C4.37325 6.88176 4.51669 6.96981 4.5797 7.11653L5.58915 9.46743C5.67282 9.66235 5.58106 9.88958 5.38661 9.97305L4.64813 10.2853C4.53716 10.3322 4.45407 10.4277 4.42294 10.5441C4.27759 11.087 4.09981 12.1794 4.54267 13.3945C5.08548 14.8841 6.23278 15.6529 6.70087 15.9142C6.80606 15.973 6.93239 15.9798 7.04341 15.933L7.76759 15.6268C7.8638 15.5855 7.9695 15.5834 8.06516 15.621C8.15981 15.6582 8.23419 15.7305 8.27458 15.8246L9.28403 18.1755C9.36888 18.373 9.27727 18.6099 9.08641 18.6918Z" fill="#02ABFF"/>
<path d="M17.0462 0.0217285H10.8353C9.83152 0.0217285 9.01492 0.83833 9.01492 1.84208V8.64071L7.86245 9.97149C7.65097 10.2157 7.603 10.5499 7.73726 10.8438C7.87152 11.1376 8.15558 11.3201 8.47863 11.3201H12.2112C12.4269 11.3201 12.6018 11.1452 12.6018 10.9295C12.6018 10.7138 12.4269 10.5389 12.2112 10.5389H8.47863C8.46995 10.5389 8.45687 10.5389 8.44781 10.5191C8.43874 10.4993 8.44734 10.4894 8.453 10.4829L9.70081 9.04204C9.7623 8.97103 9.79613 8.88024 9.79613 8.78634V1.84208C9.79613 1.26907 10.2623 0.8029 10.8353 0.8029H17.0462C17.6192 0.8029 18.0854 1.26907 18.0854 1.84208V9.49977C18.0854 10.0728 17.6192 10.539 17.0462 10.539H15.7779C15.5622 10.539 15.3873 10.7138 15.3873 10.9295C15.3873 11.1452 15.5622 11.3201 15.7779 11.3201H17.0462C18.05 11.3201 18.8666 10.5035 18.8666 9.49977V1.84208C18.8665 0.83833 18.0499 0.0217285 17.0462 0.0217285Z" fill="#02ABFF"/>
<path d="M11.3184 7.72372V8.75185C11.3184 9.1322 11.6278 9.44161 12.0082 9.44161H15.9752C16.3555 9.44161 16.665 9.1322 16.665 8.75185V7.72372C16.665 6.71044 16.0982 5.82704 15.265 5.3738C15.7102 5.00618 15.9944 4.45021 15.9944 3.82915C15.9944 2.72485 15.096 1.82642 13.9916 1.82642C12.8873 1.82642 11.9889 2.72481 11.9889 3.82915C11.9889 4.45021 12.2731 5.00614 12.7182 5.3738C11.8851 5.827 11.3184 6.71044 11.3184 7.72372ZM12.7701 3.82919C12.7701 3.15563 13.3181 2.60767 13.9916 2.60767C14.6652 2.60767 15.2132 3.15563 15.2132 3.82919C15.2132 4.50228 14.6659 5.04989 13.993 5.05067C13.9925 5.05067 13.992 5.05064 13.9914 5.05064C13.991 5.05064 13.9905 5.05067 13.99 5.05067C13.3172 5.04981 12.7701 4.5022 12.7701 3.82919ZM13.9902 5.83185C13.9907 5.83185 13.9912 5.83189 13.9916 5.83189C13.9922 5.83189 13.9927 5.83185 13.9932 5.83185C15.0358 5.83263 15.8837 6.68099 15.8837 7.72372V8.66044H12.0995V7.72372C12.0995 6.68106 12.9474 5.83274 13.9902 5.83185Z" fill="#02ABFF"/>
<path d="M13.9921 11.32C14.2079 11.32 14.3827 11.1451 14.3827 10.9294C14.3827 10.7137 14.2079 10.5388 13.9921 10.5388C13.7764 10.5388 13.6016 10.7137 13.6016 10.9294C13.6016 11.1451 13.7764 11.32 13.9921 11.32Z" fill="#02ABFF"/>
</svg>
