<svg width="20" height="21" viewBox="0 0 20 21" fill="none" xmlns="http://www.w3.org/2000/svg">
<mask id="mask0_11361_12268" style="mask-type:luminance" maskUnits="userSpaceOnUse" x="0" y="0" width="20" height="21">
<path d="M0 0.859377H20V20.8594H0V0.859377Z" fill="white"/>
</mask>
<g mask="url(#mask0_11361_12268)">
<path d="M8.8708 2.54697C9.08295 2.11728 9.52056 1.84525 10 1.84525C10.4795 1.84525 10.917 2.11728 11.1292 2.54697C11.8136 3.93369 12.6346 5.59748 13.0631 6.46572C13.2466 6.83748 13.6011 7.09502 14.0113 7.15482C14.9696 7.29396 16.8058 7.5606 18.3358 7.78318C18.8103 7.85213 19.2044 8.18424 19.3523 8.6401C19.5006 9.09592 19.3769 9.59646 19.0337 9.9308C17.9266 11.0103 16.5978 12.3054 15.9045 12.9813C15.6077 13.2706 15.4723 13.6874 15.5422 14.0957C15.7059 15.0502 16.0198 16.8789 16.2811 18.4029C16.362 18.8754 16.1681 19.3527 15.7802 19.6344C15.3924 19.9162 14.8783 19.9534 14.4539 19.7304C13.0854 19.0108 11.4431 18.1476 10.5859 17.6968C10.2191 17.5041 9.78092 17.5041 9.41416 17.6968C8.55693 18.1476 6.91455 19.0108 5.54611 19.7304C5.12174 19.9534 4.60763 19.9162 4.21982 19.6344C3.83197 19.3527 3.63806 18.8754 3.71892 18.4029C3.98025 16.8789 4.29408 15.0502 4.45779 14.0957C4.52767 13.6874 4.39232 13.2706 4.09545 12.9813C3.40224 12.3054 2.07346 11.0103 0.966268 9.9308C0.623104 9.59646 0.499393 9.09592 0.647675 8.6401C0.795643 8.18424 1.18978 7.85213 1.6642 7.78318C3.19416 7.5606 5.03045 7.29396 5.98873 7.15482C6.39892 7.09502 6.75338 6.83748 6.93693 6.46572C7.36537 5.59748 8.18638 3.93369 8.8708 2.54697Z" stroke="#0B7AB2" stroke-width="0.8" stroke-miterlimit="10" stroke-linecap="round" stroke-linejoin="round"/>
</g>
</svg>
