<svg width="20" height="21" viewBox="0 0 20 21" fill="none" xmlns="http://www.w3.org/2000/svg">
<g clip-path="url(#clip0_11361_12587)">
<mask id="mask0_11361_12587" style="mask-type:luminance" maskUnits="userSpaceOnUse" x="0" y="0" width="20" height="21">
<path d="M0 0.859377H20V20.8594H0V0.859377Z" fill="white"/>
</mask>
<g mask="url(#mask0_11361_12587)">
<path d="M11.7578 7.89062C11.7578 8.86145 10.9708 9.64844 10 9.64844C9.02918 9.64844 8.24219 8.86145 8.24219 7.89062C8.24219 6.9198 9.02918 6.13281 10 6.13281C10.9708 6.13281 11.7578 6.9198 11.7578 7.89062Z" stroke="#0B7AB2" stroke-width="0.8" stroke-miterlimit="10"/>
<path d="M12.2697 12.5762C12.0092 11.5659 11.0918 10.8195 10.0001 10.8195C8.9084 10.8195 7.99102 11.5659 7.73047 12.5762" stroke="#0B7AB2" stroke-width="0.8" stroke-miterlimit="10"/>
<path d="M10 13.1641C7.41535 13.1641 5.3125 11.0612 5.3125 8.47656C5.3125 5.89191 7.41535 3.78906 10 3.78906C12.5846 3.78906 14.6875 5.89191 14.6875 8.47656C14.6875 11.0612 12.5846 13.1641 10 13.1641Z" stroke="#0B7AB2" stroke-width="0.8" stroke-miterlimit="10"/>
<path d="M10 1.44531C6.11676 1.44531 2.96875 4.59328 2.96875 8.47656C2.96875 10.2766 3.64516 11.9186 4.75762 13.1623L10 17.8516L15.2424 13.1623C16.3548 11.9186 17.0312 10.2766 17.0312 8.47656C17.0312 4.59328 13.8833 1.44531 10 1.44531Z" stroke="#0B7AB2" stroke-width="0.8" stroke-miterlimit="10"/>
<path d="M12.3925 15.7114C14.4359 16.0775 15.8594 16.898 15.8594 17.8516C15.8594 19.146 13.2361 20.2734 10 20.2734C6.76395 20.2734 4.14062 19.146 4.14062 17.8516C4.14062 16.898 5.5641 16.0775 7.60746 15.7114" stroke="#0B7AB2" stroke-width="0.8" stroke-miterlimit="10"/>
</g>
</g>
<defs>
<clipPath id="clip0_11361_12587">
<rect width="20" height="20" fill="white" transform="translate(0 0.859375)"/>
</clipPath>
</defs>
</svg>
