<svg width="20" height="21" viewBox="0 0 20 21" fill="none" xmlns="http://www.w3.org/2000/svg">
<g clip-path="url(#clip0_11361_12291)">
<mask id="mask0_11361_12291" style="mask-type:luminance" maskUnits="userSpaceOnUse" x="0" y="0" width="20" height="21">
<path d="M0 0.859377H20V20.8594H0V0.859377Z" fill="white"/>
</mask>
<g mask="url(#mask0_11361_12291)">
<path d="M9.75029 1.15807C4.86076 1.3246 0.811148 5.23577 0.48728 10.1174C0.350249 12.1826 0.865991 14.1195 1.84755 15.7431L0.336773 19.6944C0.138726 20.2124 0.646929 20.7206 1.16494 20.5226L5.11623 19.0118C6.7399 19.9934 8.67681 20.5091 10.742 20.3721C15.6236 20.0482 19.5348 15.9986 19.7013 11.1091C19.8913 5.53006 15.3293 0.968113 9.75029 1.15807Z" stroke="#0B7AB2" stroke-width="0.8" stroke-miterlimit="10" stroke-linecap="round" stroke-linejoin="round"/>
<path d="M16.0357 16.1387C17.3187 14.7168 18.1013 12.8349 18.1013 10.7734C18.1013 6.35258 14.5048 2.75609 10.0841 2.75609C8.02254 2.75609 6.14066 3.53867 4.71875 4.82172" stroke="#0B7AB2" stroke-width="0.8" stroke-miterlimit="10" stroke-linecap="round" stroke-linejoin="round"/>
<path d="M3.8416 5.75543C2.73484 7.13027 2.07031 8.87543 2.07031 10.7737C2.07031 12.237 2.4682 13.6689 3.22109 14.9144C3.4768 15.3373 3.52316 15.8547 3.34668 16.3164L2.60492 18.2564L4.54488 17.5147C4.72996 17.4439 4.92414 17.409 5.11754 17.409C5.40629 17.409 5.69363 17.487 5.94695 17.6402C7.19246 18.3931 8.62434 18.791 10.0876 18.791C11.9859 18.791 13.7311 18.1265 15.1059 17.0197" stroke="#0B7AB2" stroke-width="0.8" stroke-miterlimit="10" stroke-linecap="round" stroke-linejoin="round"/>
<path d="M11.8913 13.0499L11.7776 13.1635C11.5028 13.4383 11.0857 13.5298 10.7303 13.3725C10.0326 13.0638 9.37873 12.6252 8.80642 12.0529C8.23412 11.4806 7.7956 10.8267 7.48689 10.1291C7.32959 9.77365 7.42103 9.35658 7.69591 9.08173L7.80951 8.9681C8.0749 8.70275 8.16095 8.30736 8.02935 7.95588C7.84908 7.47447 7.71509 6.97966 7.62705 6.47838C7.53853 5.97396 6.90709 5.7888 6.54498 6.15091L5.81603 6.87986C5.49384 7.20205 5.31478 7.6467 5.34759 8.10115C5.48162 9.95439 6.2556 11.7697 7.67259 13.1868C9.08962 14.6038 10.905 15.3777 12.7582 15.5118C13.2127 15.5446 13.6573 15.3656 13.9795 15.0434L14.7085 14.3144C15.0706 13.9523 14.8854 13.3208 14.381 13.2323C13.8797 13.1443 13.3849 13.0103 12.9035 12.8301C12.552 12.6984 12.1566 12.7845 11.8913 13.0499Z" stroke="#0B7AB2" stroke-width="0.8" stroke-miterlimit="10" stroke-linecap="round" stroke-linejoin="round"/>
</g>
</g>
<defs>
<clipPath id="clip0_11361_12291">
<rect width="20" height="20" fill="white" transform="translate(0 0.859375)"/>
</clipPath>
</defs>
</svg>
