<svg width="20" height="21" viewBox="0 0 20 21" fill="none" xmlns="http://www.w3.org/2000/svg">
<mask id="mask0_11361_12688" style="mask-type:luminance" maskUnits="userSpaceOnUse" x="0" y="0" width="20" height="21">
<path d="M20 0.859375H0V20.8594H20V0.859375Z" fill="white"/>
<path d="M4.88281 8.28125C4.45133 8.28125 4.10156 8.63102 4.10156 9.0625C4.10156 9.49398 4.45133 9.84375 4.88281 9.84375C5.3143 9.84375 5.66406 9.49398 5.66406 9.0625C5.66406 8.63102 5.3143 8.28125 4.88281 8.28125Z" fill="white"/>
<path d="M8.28125 8.28125C7.84977 8.28125 7.5 8.63102 7.5 9.0625C7.5 9.49398 7.84977 9.84375 8.28125 9.84375C8.71273 9.84375 9.0625 9.49398 9.0625 9.0625C9.0625 8.63102 8.71273 8.28125 8.28125 8.28125Z" fill="white"/>
<path d="M11.6797 8.28125C11.2482 8.28125 10.8984 8.63102 10.8984 9.0625C10.8984 9.49398 11.2482 9.84375 11.6797 9.84375C12.1112 9.84375 12.4609 9.49398 12.4609 9.0625C12.4609 8.63102 12.1112 8.28125 11.6797 8.28125Z" fill="white"/>
<path d="M15.0781 8.28125C14.6466 8.28125 14.2969 8.63102 14.2969 9.0625C14.2969 9.49398 14.6466 9.84375 15.0781 9.84375C15.5096 9.84375 15.8594 9.49398 15.8594 9.0625C15.8594 8.63102 15.5096 8.28125 15.0781 8.28125Z" fill="white"/>
<path d="M5.66406 12.4609C5.66406 12.0295 5.3143 11.6797 4.88281 11.6797C4.45133 11.6797 4.10156 12.0295 4.10156 12.4609C4.10156 12.8924 4.45133 13.2422 4.88281 13.2422C5.3143 13.2422 5.66406 12.8924 5.66406 12.4609Z" fill="white"/>
<path d="M5.66406 15.8594C5.66406 15.4279 5.3143 15.0781 4.88281 15.0781C4.45133 15.0781 4.10156 15.4279 4.10156 15.8594C4.10156 16.2909 4.45133 16.6406 4.88281 16.6406C5.3143 16.6406 5.66406 16.2909 5.66406 15.8594Z" fill="white"/>
<path d="M9.0625 12.4609C9.0625 12.0295 8.71273 11.6797 8.28125 11.6797C7.84977 11.6797 7.5 12.0295 7.5 12.4609C7.5 12.8924 7.84977 13.2422 8.28125 13.2422C8.71273 13.2422 9.0625 12.8924 9.0625 12.4609Z" fill="white"/>
<path d="M9.0625 15.8594C9.0625 15.4279 8.71273 15.0781 8.28125 15.0781C7.84977 15.0781 7.5 15.4279 7.5 15.8594C7.5 16.2909 7.84977 16.6406 8.28125 16.6406C8.71273 16.6406 9.0625 16.2909 9.0625 15.8594Z" fill="white"/>
<path d="M8.28125 8.28125C7.84977 8.28125 7.5 8.63102 7.5 9.0625C7.5 9.49398 7.84977 9.84375 8.28125 9.84375C8.71273 9.84375 9.0625 9.49398 9.0625 9.0625C9.0625 8.63102 8.71273 8.28125 8.28125 8.28125Z" fill="white"/>
<path d="M9.0625 12.4609C9.0625 12.0295 8.71273 11.6797 8.28125 11.6797C7.84977 11.6797 7.5 12.0295 7.5 12.4609C7.5 12.8924 7.84977 13.2422 8.28125 13.2422C8.71273 13.2422 9.0625 12.8924 9.0625 12.4609Z" fill="white"/>
<path d="M9.0625 15.8594C9.0625 15.4279 8.71273 15.0781 8.28125 15.0781C7.84977 15.0781 7.5 15.4279 7.5 15.8594C7.5 16.2909 7.84977 16.6406 8.28125 16.6406C8.71273 16.6406 9.0625 16.2909 9.0625 15.8594Z" fill="white"/>
<path d="M12.4609 12.4609C12.4609 12.0295 12.1112 11.6797 11.6797 11.6797C11.2482 11.6797 10.8984 12.0295 10.8984 12.4609C10.8984 12.8924 11.2482 13.2422 11.6797 13.2422C12.1112 13.2422 12.4609 12.8924 12.4609 12.4609Z" fill="white"/>
<path d="M15.8594 12.4609C15.8594 12.0295 15.5096 11.6797 15.0781 11.6797C14.6466 11.6797 14.2969 12.0295 14.2969 12.4609C14.2969 12.8924 14.6466 13.2422 15.0781 13.2422C15.5096 13.2422 15.8594 12.8924 15.8594 12.4609Z" fill="white"/>
</mask>
<g mask="url(#mask0_11361_12688)">
<mask id="mask1_11361_12688" style="mask-type:luminance" maskUnits="userSpaceOnUse" x="0" y="0" width="20" height="21">
<path d="M0 0.859377H20V20.8594H0V0.859377Z" fill="white"/>
</mask>
<g mask="url(#mask1_11361_12688)">
<path d="M9.6875 20.0781H3.125C1.83059 20.0781 0.78125 19.0288 0.78125 17.7344V5.54688C0.78125 4.25246 1.83059 3.20312 3.125 3.20312H16.875C18.1694 3.20312 19.2187 4.25246 19.2187 5.54688V11.0938" stroke="#0B7AB2" stroke-width="0.8" stroke-miterlimit="10" stroke-linecap="round" stroke-linejoin="round"/>
<path d="M4.88281 8.28125C4.45133 8.28125 4.10156 8.63102 4.10156 9.0625C4.10156 9.49398 4.45133 9.84375 4.88281 9.84375C5.3143 9.84375 5.66406 9.49398 5.66406 9.0625C5.66406 8.63102 5.3143 8.28125 4.88281 8.28125Z" fill="#0B7AB2"/>
<path d="M8.28125 8.28125C7.84977 8.28125 7.5 8.63102 7.5 9.0625C7.5 9.49398 7.84977 9.84375 8.28125 9.84375C8.71273 9.84375 9.0625 9.49398 9.0625 9.0625C9.0625 8.63102 8.71273 8.28125 8.28125 8.28125Z" fill="#0B7AB2"/>
<path d="M11.6797 8.28125C11.2482 8.28125 10.8984 8.63102 10.8984 9.0625C10.8984 9.49398 11.2482 9.84375 11.6797 9.84375C12.1112 9.84375 12.4609 9.49398 12.4609 9.0625C12.4609 8.63102 12.1112 8.28125 11.6797 8.28125Z" fill="#0B7AB2"/>
<path d="M15.0781 8.28125C14.6466 8.28125 14.2969 8.63102 14.2969 9.0625C14.2969 9.49398 14.6466 9.84375 15.0781 9.84375C15.5096 9.84375 15.8594 9.49398 15.8594 9.0625C15.8594 8.63102 15.5096 8.28125 15.0781 8.28125Z" fill="#0B7AB2"/>
<path d="M5.66406 12.4609C5.66406 12.0295 5.3143 11.6797 4.88281 11.6797C4.45133 11.6797 4.10156 12.0295 4.10156 12.4609C4.10156 12.8924 4.45133 13.2422 4.88281 13.2422C5.3143 13.2422 5.66406 12.8924 5.66406 12.4609Z" fill="#0B7AB2"/>
<path d="M5.66406 15.8594C5.66406 15.4279 5.3143 15.0781 4.88281 15.0781C4.45133 15.0781 4.10156 15.4279 4.10156 15.8594C4.10156 16.2909 4.45133 16.6406 4.88281 16.6406C5.3143 16.6406 5.66406 16.2909 5.66406 15.8594Z" fill="#0B7AB2"/>
<path d="M9.0625 12.4609C9.0625 12.0295 8.71273 11.6797 8.28125 11.6797C7.84977 11.6797 7.5 12.0295 7.5 12.4609C7.5 12.8924 7.84977 13.2422 8.28125 13.2422C8.71273 13.2422 9.0625 12.8924 9.0625 12.4609Z" fill="#0B7AB2"/>
<path d="M9.0625 15.8594C9.0625 15.4279 8.71273 15.0781 8.28125 15.0781C7.84977 15.0781 7.5 15.4279 7.5 15.8594C7.5 16.2909 7.84977 16.6406 8.28125 16.6406C8.71273 16.6406 9.0625 16.2909 9.0625 15.8594Z" fill="#0B7AB2"/>
<path d="M8.28125 8.28125C7.84977 8.28125 7.5 8.63102 7.5 9.0625C7.5 9.49398 7.84977 9.84375 8.28125 9.84375C8.71273 9.84375 9.0625 9.49398 9.0625 9.0625C9.0625 8.63102 8.71273 8.28125 8.28125 8.28125Z" fill="#0B7AB2"/>
<path d="M9.0625 12.4609C9.0625 12.0295 8.71273 11.6797 8.28125 11.6797C7.84977 11.6797 7.5 12.0295 7.5 12.4609C7.5 12.8924 7.84977 13.2422 8.28125 13.2422C8.71273 13.2422 9.0625 12.8924 9.0625 12.4609Z" fill="#0B7AB2"/>
<path d="M9.0625 15.8594C9.0625 15.4279 8.71273 15.0781 8.28125 15.0781C7.84977 15.0781 7.5 15.4279 7.5 15.8594C7.5 16.2909 7.84977 16.6406 8.28125 16.6406C8.71273 16.6406 9.0625 16.2909 9.0625 15.8594Z" fill="#0B7AB2"/>
<path d="M4.88281 1.64063V4.76562" stroke="#0B7AB2" stroke-width="0.8" stroke-miterlimit="10" stroke-linecap="round" stroke-linejoin="round"/>
<path d="M15.0781 4.76562V1.64063" stroke="#0B7AB2" stroke-width="0.8" stroke-miterlimit="10" stroke-linecap="round" stroke-linejoin="round"/>
<path d="M12.4609 12.4609C12.4609 12.0295 12.1112 11.6797 11.6797 11.6797C11.2482 11.6797 10.8984 12.0295 10.8984 12.4609C10.8984 12.8924 11.2482 13.2422 11.6797 13.2422C12.1112 13.2422 12.4609 12.8924 12.4609 12.4609Z" fill="#0B7AB2"/>
<path d="M15.8594 12.4609C15.8594 12.0295 15.5096 11.6797 15.0781 11.6797C14.6466 11.6797 14.2969 12.0295 14.2969 12.4609C14.2969 12.8924 14.6466 13.2422 15.0781 13.2422C15.5096 13.2422 15.8594 12.8924 15.8594 12.4609Z" fill="#0B7AB2"/>
<path d="M9.96094 1.64063V4.76562" stroke="#0B7AB2" stroke-width="0.8" stroke-miterlimit="10" stroke-linecap="round" stroke-linejoin="round"/>
<path d="M11.0547 17.3069L13.5477 19.7397C14.0681 20.2351 14.9007 20.1796 15.3507 19.6196L19.2172 14.2187" stroke="#0B7AB2" stroke-width="0.8" stroke-miterlimit="10" stroke-linecap="round" stroke-linejoin="round"/>
</g>
</g>
</svg>
