<svg width="20" height="21" viewBox="0 0 20 21" fill="none" xmlns="http://www.w3.org/2000/svg">
<path d="M10 5.78125C9.78439 5.78125 9.60938 5.95627 9.60938 6.17188C9.60938 6.38748 9.78439 6.5625 10 6.5625C10.2156 6.5625 10.3906 6.38748 10.3906 6.17188C10.3906 5.95627 10.2156 5.78125 10 5.78125Z" fill="#0B7AB2"/>
<path d="M3.51562 12.8125C3.73123 12.8125 3.90625 12.6375 3.90625 12.4219C3.90625 12.2063 3.73123 12.0312 3.51562 12.0312C3.30002 12.0312 3.125 12.2063 3.125 12.4219C3.125 12.6375 3.30002 12.8125 3.51562 12.8125Z" fill="#0B7AB2"/>
<path d="M13.125 1.875C9.60831 1.875 6.72195 4.29962 6.49872 7.35367C3.14957 7.52167 0 9.93668 0 13.2031C0 14.5682 0.540161 15.8908 1.52344 16.9388C1.71799 17.7408 1.48178 18.5909 0.895691 19.1769C0.783997 19.2886 0.75058 19.4566 0.811005 19.6027C0.871429 19.7485 1.01379 19.8438 1.17188 19.8438C2.28592 19.8438 3.35953 19.4069 4.15726 18.6371C4.93439 18.902 5.94833 19.0625 6.875 19.0625C10.3912 19.0625 13.2773 16.6385 13.5011 13.5851C14.319 13.5487 15.1697 13.3977 15.8427 13.1683C16.6405 13.9381 17.7141 14.375 18.8281 14.375C18.9862 14.375 19.1286 14.2798 19.189 14.1339C19.2494 13.9879 19.216 13.8199 19.1043 13.7082C18.5182 13.1221 18.282 12.272 18.4766 11.47C19.4598 10.4221 20 9.09943 20 7.73438C20 4.34036 16.6078 1.875 13.125 1.875ZM6.875 18.2812C5.95306 18.2812 4.9025 18.1003 4.19876 17.8203C4.048 17.7602 3.87573 17.7997 3.76602 17.9195C3.29437 18.4351 2.68112 18.7946 2.01294 18.9598C2.38113 18.2544 2.47513 17.4228 2.25113 16.6348C2.23343 16.5727 2.20062 16.516 2.15561 16.4697C1.26938 15.5569 0.78125 14.3968 0.78125 13.2031C0.78125 10.4504 3.57178 8.125 6.875 8.125C9.9942 8.125 12.7344 10.294 12.7344 13.2031C12.7344 16.0033 10.1059 18.2812 6.875 18.2812ZM17.8444 11.001C17.7994 11.0474 17.7666 11.1041 17.7489 11.1661C17.5249 11.954 17.6189 12.7856 17.9871 13.4911C17.3189 13.326 16.7056 12.9663 16.234 12.4507C16.1243 12.3311 15.952 12.2914 15.8012 12.3515C15.1913 12.5941 14.3213 12.7621 13.4999 12.8027C13.3858 11.3255 12.6489 9.93713 11.3892 8.90625H16.4844C16.7001 8.90625 16.875 8.73138 16.875 8.51562C16.875 8.29987 16.7001 8.125 16.4844 8.125H10.1891C9.30237 7.67365 8.30673 7.41043 7.28195 7.35519C7.50641 4.7316 10.0414 2.65625 13.125 2.65625C16.4282 2.65625 19.2188 4.98169 19.2188 7.73438C19.2188 8.92807 18.7306 10.0882 17.8444 11.001Z" fill="#0B7AB2"/>
<path d="M10 12.0312H5.07812C4.86237 12.0312 4.6875 12.2061 4.6875 12.4219C4.6875 12.6376 4.86237 12.8125 5.07812 12.8125H10C10.2158 12.8125 10.3906 12.6376 10.3906 12.4219C10.3906 12.2061 10.2158 12.0312 10 12.0312Z" fill="#0B7AB2"/>
<path d="M10 14.375H3.51562C3.29987 14.375 3.125 14.5499 3.125 14.7656C3.125 14.9814 3.29987 15.1562 3.51562 15.1562H10C10.2158 15.1562 10.3906 14.9814 10.3906 14.7656C10.3906 14.5499 10.2158 14.375 10 14.375Z" fill="#0B7AB2"/>
<path d="M16.4844 5.78125H11.5625C11.3467 5.78125 11.1719 5.95612 11.1719 6.17188C11.1719 6.38763 11.3467 6.5625 11.5625 6.5625H16.4844C16.7001 6.5625 16.875 6.38763 16.875 6.17188C16.875 5.95612 16.7001 5.78125 16.4844 5.78125Z" fill="#0B7AB2"/>
</svg>
