<svg width="21" height="21" viewBox="0 0 21 21" fill="none" xmlns="http://www.w3.org/2000/svg">
<g clip-path="url(#clip0_10683_24141)">
<mask id="mask0_10683_24141" style="mask-type:luminance" maskUnits="userSpaceOnUse" x="0" y="0" width="21" height="21">
<path d="M0.623047 0.52173H20.623V20.5217H0.623047V0.52173Z" fill="white"/>
</mask>
<g mask="url(#mask0_10683_24141)">
<path d="M9.2168 9.11548C9.2168 9.97841 8.51723 10.678 7.6543 10.678H2.9668C2.10387 10.678 1.4043 9.97841 1.4043 9.11548V2.86548C1.4043 2.00255 2.10387 1.30298 2.9668 1.30298H7.6543C8.51723 1.30298 9.2168 2.00255 9.2168 2.86548V9.11548Z" stroke="#02ABFF" stroke-width="0.8" stroke-miterlimit="10"/>
<path d="M19.8418 18.178C19.8418 19.0409 19.1422 19.7405 18.2793 19.7405H13.5918C12.7289 19.7405 12.0293 19.0409 12.0293 18.178V11.928C12.0293 11.065 12.7289 10.3655 13.5918 10.3655H18.2793C19.1422 10.3655 19.8418 11.065 19.8418 11.928V18.178Z" stroke="#02ABFF" stroke-width="0.8" stroke-miterlimit="10"/>
<path d="M9.2168 18.178C9.2168 19.0409 8.51723 19.7405 7.6543 19.7405H2.9668C2.10387 19.7405 1.4043 19.0409 1.4043 18.178V15.053C1.4043 14.19 2.10387 13.4905 2.9668 13.4905H7.6543C8.51723 13.4905 9.2168 14.19 9.2168 15.053V18.178Z" stroke="#02ABFF" stroke-width="0.8" stroke-miterlimit="10"/>
<path d="M19.8418 5.99048C19.8418 6.85341 19.1422 7.55298 18.2793 7.55298H13.5918C12.7289 7.55298 12.0293 6.85341 12.0293 5.99048V2.86548C12.0293 2.00255 12.7289 1.30298 13.5918 1.30298H18.2793C19.1422 1.30298 19.8418 2.00255 19.8418 2.86548V5.99048Z" stroke="#02ABFF" stroke-width="0.8" stroke-miterlimit="10"/>
</g>
</g>
<defs>
<clipPath id="clip0_10683_24141">
<rect width="20" height="20" fill="white" transform="translate(0.623047 0.521729)"/>
</clipPath>
</defs>
</svg>
