<svg width="20" height="21" viewBox="0 0 20 21" fill="none" xmlns="http://www.w3.org/2000/svg">
<g clip-path="url(#clip0_11361_12561)">
<path d="M13.0541 15.5921L12.6686 15.2065C12.3635 14.9014 11.8689 14.9014 11.5638 15.2065L10.9313 15.8391C10.3559 16.4144 9.43063 16.435 8.82864 15.8875C8.16754 15.2863 7.50836 14.6583 6.85461 14.0045C6.20086 13.3507 5.57278 12.6915 4.97157 12.0305C4.4241 11.4285 4.44469 10.5032 5.02004 9.92784L5.65262 9.29526C5.9577 8.99022 5.9577 8.49562 5.65262 8.19054L3.74578 6.2837C3.29981 5.83772 2.57676 5.83772 2.13078 6.2837L1.26504 7.14944C0.17469 8.23983 -0.0239818 9.94198 0.799065 11.2459C1.87621 12.9524 3.1866 14.6023 4.72172 16.1374C6.25684 17.6725 7.90672 18.9829 9.61317 20.06C10.9171 20.8831 12.6193 20.6844 13.7096 19.5941L14.5754 18.7283C15.0213 18.2823 15.0213 17.5593 14.5754 17.1133L13.9609 16.4989" stroke="#0B7AB2" stroke-width="0.8" stroke-miterlimit="10" stroke-linecap="round" stroke-linejoin="round"/>
<path d="M10.625 16.0742L13.9261 19.3754" stroke="#0B7AB2" stroke-width="0.8" stroke-miterlimit="10" stroke-linecap="round" stroke-linejoin="round"/>
<path d="M1.48438 6.93164L4.78551 10.2328" stroke="#0B7AB2" stroke-width="0.8" stroke-miterlimit="10" stroke-linecap="round" stroke-linejoin="round"/>
<path d="M9.80859 5.0968V9.09676C9.80859 10.1755 10.6831 11.0501 11.762 11.0501H17.7531C18.8319 11.0501 19.7065 10.1756 19.7065 9.09676V3.1057C19.7065 2.02691 18.832 1.15234 17.7531 1.15234H11.762C10.6832 1.15234 9.80859 2.02688 9.80859 3.1057V3.81434" stroke="#0B7AB2" stroke-width="0.8" stroke-miterlimit="10" stroke-linecap="round" stroke-linejoin="round"/>
<path d="M9.78505 12.6591L8.30559 13.0268C8.01981 13.0979 7.76118 12.8392 7.8322 12.5535L8.19997 11.074C8.27329 10.7791 8.64048 10.6771 8.85536 10.892L9.96704 12.0037C10.1819 12.2186 10.08 12.5857 9.78505 12.6591Z" stroke="#0B7AB2" stroke-width="0.8" stroke-miterlimit="10" stroke-linecap="round" stroke-linejoin="round"/>
<path d="M17.1687 7.61172C17.4432 7.17402 17.6025 6.65676 17.6025 6.10203C17.6025 4.53012 16.3282 3.25586 14.7563 3.25586C13.1844 3.25586 11.9102 4.53012 11.9102 6.10203C11.9102 7.67391 13.1845 8.9482 14.7563 8.9482C15.3089 8.9482 15.8244 8.7902 16.261 8.51766" stroke="#0B7AB2" stroke-width="0.8" stroke-miterlimit="10" stroke-linecap="round" stroke-linejoin="round"/>
<path d="M14.0234 6.91211C14.4287 7.31734 15.0857 7.31734 15.491 6.91211" stroke="#0B7AB2" stroke-width="0.8" stroke-miterlimit="10" stroke-linecap="round" stroke-linejoin="round"/>
<path d="M13.7422 5.5918V5.84937" stroke="#0B7AB2" stroke-width="0.8" stroke-miterlimit="10" stroke-linecap="round" stroke-linejoin="round"/>
<path d="M15.7695 5.5918V5.84937" stroke="#0B7AB2" stroke-width="0.8" stroke-miterlimit="10" stroke-linecap="round" stroke-linejoin="round"/>
</g>
<defs>
<clipPath id="clip0_11361_12561">
<rect width="20" height="20" fill="white" transform="translate(0 0.859375)"/>
</clipPath>
</defs>
</svg>
