<svg width="20" height="21" viewBox="0 0 20 21" fill="none" xmlns="http://www.w3.org/2000/svg">
<g clip-path="url(#clip0_11361_12308)">
<mask id="mask0_11361_12308" style="mask-type:luminance" maskUnits="userSpaceOnUse" x="0" y="0" width="20" height="21">
<path d="M20 0.859375H0V20.8594H20V0.859375Z" fill="white"/>
<path d="M4.53125 7.34375C4.74687 7.34375 4.92187 7.51875 4.92187 7.73438C4.92187 7.95 4.74687 8.125 4.53125 8.125C4.31562 8.125 4.14062 7.95 4.14062 7.73438C4.14062 7.51875 4.31562 7.34375 4.53125 7.34375Z" fill="white"/>
</mask>
<g mask="url(#mask0_11361_12308)">
<mask id="mask1_11361_12308" style="mask-type:luminance" maskUnits="userSpaceOnUse" x="0" y="0" width="20" height="21">
<path d="M0 0.859377H20V20.8594H0V0.859377Z" fill="white"/>
</mask>
<g mask="url(#mask1_11361_12308)">
<path d="M4.53125 7.34375C4.74687 7.34375 4.92187 7.51875 4.92187 7.73438C4.92187 7.95 4.74687 8.125 4.53125 8.125C4.31562 8.125 4.14062 7.95 4.14062 7.73438C4.14062 7.51875 4.31562 7.34375 4.53125 7.34375Z" fill="#0B7AB2"/>
<path d="M19.6094 19.6875C19.6094 20.1191 19.2598 20.4688 18.8281 20.4688H1.17188C0.740234 20.4688 0.390625 20.1191 0.390625 19.6875V3.59375C0.390625 3.16211 0.740234 2.8125 1.17188 2.8125H18.8281C19.2598 2.8125 19.6094 3.16211 19.6094 3.59375V19.6875Z" stroke="#0B7AB2" stroke-width="0.8" stroke-miterlimit="10" stroke-linecap="round" stroke-linejoin="round"/>
<path d="M2.96875 4.49219C2.53711 4.49219 2.1875 4.14258 2.1875 3.71094V2.03125C2.1875 1.59961 2.53711 1.25 2.96875 1.25C3.4 1.25 3.75 1.6 3.75 2.03125V2.8125" stroke="#0B7AB2" stroke-width="0.8" stroke-miterlimit="10" stroke-linecap="round" stroke-linejoin="round"/>
<path d="M7.65625 4.49219C7.22461 4.49219 6.875 4.14258 6.875 3.71094V2.03125C6.875 1.59961 7.22461 1.25 7.65625 1.25C8.0875 1.25 8.4375 1.6 8.4375 2.03125V2.8125" stroke="#0B7AB2" stroke-width="0.8" stroke-miterlimit="10" stroke-linecap="round" stroke-linejoin="round"/>
<path d="M12.3437 4.49219C11.9121 4.49219 11.5625 4.14258 11.5625 3.71094V2.03125C11.5625 1.59961 11.9121 1.25 12.3437 1.25C12.775 1.25 13.125 1.6 13.125 2.03125V2.8125" stroke="#0B7AB2" stroke-width="0.8" stroke-miterlimit="10" stroke-linecap="round" stroke-linejoin="round"/>
<path d="M17.0312 4.49219C16.5996 4.49219 16.25 4.14258 16.25 3.71094V2.03125C16.25 1.59961 16.5996 1.25 17.0312 1.25C17.4625 1.25 17.8125 1.6 17.8125 2.03125V2.8125" stroke="#0B7AB2" stroke-width="0.8" stroke-miterlimit="10" stroke-linecap="round" stroke-linejoin="round"/>
<path d="M0.390625 6.17188H19.6094" stroke="#0B7AB2" stroke-width="0.8" stroke-miterlimit="10" stroke-linecap="round" stroke-linejoin="round"/>
<path d="M6.09375 7.73438H15.4688" stroke="#0B7AB2" stroke-width="0.8" stroke-miterlimit="10" stroke-linecap="round" stroke-linejoin="round"/>
<path d="M13.9062 13.9844C13.9062 16.1418 12.1574 17.8906 10 17.8906C7.84258 17.8906 6.09375 16.1418 6.09375 13.9844C6.09375 11.827 7.84258 10.0781 10 10.0781C12.1574 10.0781 13.9062 11.827 13.9062 13.9844Z" stroke="#0B7AB2" stroke-width="0.8" stroke-miterlimit="10" stroke-linecap="round" stroke-linejoin="round"/>
<path d="M10 12.4219V13.9844H11.5625" stroke="#0B7AB2" stroke-width="0.8" stroke-miterlimit="10" stroke-linecap="round" stroke-linejoin="round"/>
</g>
</g>
</g>
<defs>
<clipPath id="clip0_11361_12308">
<rect width="20" height="20" fill="white" transform="translate(0 0.859375)"/>
</clipPath>
</defs>
</svg>
