<svg width="22" height="22" viewBox="0 0 22 22" fill="none" xmlns="http://www.w3.org/2000/svg">
<rect width="22" height="22" rx="4" fill="#B9E8FF"/>
<g clip-path="url(#clip0_12055_9230)">
<path d="M12.6458 6.35156L4.94276 14.0551C4.904 14.094 4.87602 14.1431 4.8627 14.1958L4.00889 17.6228C3.98335 17.726 4.01367 17.8357 4.08895 17.9109C4.14592 17.9679 4.22354 17.9994 4.30293 17.9994C4.32725 17.9994 4.35212 17.9964 4.37633 17.9903L7.80332 17.1364C7.85673 17.1231 7.90525 17.0952 7.94401 17.0565L15.6477 9.35348L12.6458 6.35156Z" fill="#0B7AB2"/>
<path d="M17.5561 5.30075L16.6986 4.44328C16.1255 3.87019 15.1267 3.87075 14.5543 4.44328L13.5039 5.49363L16.5057 8.49543L17.5561 7.44508C17.8423 7.15893 18 6.77805 18 6.37297C18 5.96789 17.8423 5.58702 17.5561 5.30075Z" fill="#0B7AB2"/>
</g>
<defs>
<clipPath id="clip0_12055_9230">
<rect width="14" height="14" fill="white" transform="translate(4 4)"/>
</clipPath>
</defs>
</svg>
