<svg width="33" height="31" viewBox="0 0 33 31" fill="none" xmlns="http://www.w3.org/2000/svg">
<circle cx="17.5" cy="13.3057" r="17" fill="#B5DEFF"/>
<path d="M15 13.9307C15.3452 13.9307 15.625 13.6508 15.625 13.3057C15.625 12.9605 15.3452 12.6807 15 12.6807C14.6548 12.6807 14.375 12.9605 14.375 13.3057C14.375 13.6508 14.6548 13.9307 15 13.9307Z" fill="#0070CB"/>
<path d="M20 18.3057C20.3452 18.3057 20.625 18.0258 20.625 17.6807C20.625 17.3355 20.3452 17.0557 20 17.0557C19.6548 17.0557 19.375 17.3355 19.375 17.6807C19.375 18.0258 19.6548 18.3057 20 18.3057Z" fill="#0070CB"/>
<path d="M26.0288 11.5786L17.9038 4.70358C17.791 4.60807 17.6479 4.55566 17.5001 4.55566C17.3522 4.55566 17.2092 4.60807 17.0963 4.70358L8.97133 11.5786C8.90658 11.6309 8.85293 11.6957 8.81356 11.7691C8.77418 11.8424 8.74986 11.9229 8.74203 12.0058C8.7342 12.0887 8.74301 12.1724 8.76795 12.2518C8.79289 12.3313 8.83345 12.4049 8.88726 12.4685C8.94107 12.532 9.00703 12.5842 9.08127 12.6219C9.15552 12.6596 9.23655 12.6821 9.31961 12.688C9.40267 12.694 9.48607 12.6833 9.56493 12.6565C9.6438 12.6298 9.71652 12.5876 9.77883 12.5323L10.6251 11.8161V20.1805C10.6251 20.6777 10.8226 21.1546 11.1743 21.5063C11.5259 21.8579 12.0028 22.0555 12.5001 22.0555H22.5001C22.9974 22.0555 23.4743 21.8579 23.8259 21.5063C24.1775 21.1546 24.3751 20.6777 24.3751 20.1805V11.8161L25.2213 12.5323C25.2836 12.5876 25.3564 12.6298 25.4352 12.6565C25.5141 12.6833 25.5975 12.694 25.6806 12.688C25.7636 12.6821 25.8446 12.6596 25.9189 12.6219C25.9931 12.5842 26.0591 12.532 26.1129 12.4685C26.1667 12.4049 26.2073 12.3313 26.2322 12.2518C26.2572 12.1724 26.266 12.0887 26.2581 12.0058C26.2503 11.9229 26.226 11.8424 26.1866 11.7691C26.1472 11.6957 26.0936 11.6309 26.0288 11.5786ZM13.1251 13.3055C13.1251 12.9346 13.235 12.5721 13.4411 12.2638C13.6471 11.9554 13.9399 11.7151 14.2826 11.5732C14.6252 11.4313 15.0022 11.3941 15.3659 11.4665C15.7296 11.5388 16.0637 11.7174 16.3259 11.9796C16.5881 12.2419 16.7667 12.5759 16.8391 12.9397C16.9114 13.3034 16.8743 13.6804 16.7324 14.023C16.5904 14.3656 16.3501 14.6584 16.0418 14.8645C15.7334 15.0705 15.3709 15.1805 15.0001 15.1805C14.5028 15.1805 14.0259 14.9829 13.6743 14.6313C13.3226 14.2796 13.1251 13.8027 13.1251 13.3055ZM15.0001 18.9305C14.8795 18.9306 14.7614 18.8958 14.6601 18.8304C14.5589 18.7649 14.4787 18.6716 14.4292 18.5616C14.3798 18.4516 14.3633 18.3296 14.3816 18.2104C14.4 18.0912 14.4524 17.9799 14.5326 17.8898L19.5326 12.2648C19.6428 12.1405 19.7979 12.0651 19.9638 12.0551C20.1296 12.0451 20.2926 12.1015 20.417 12.2117C20.5413 12.3219 20.6167 12.477 20.6267 12.6429C20.6366 12.8087 20.5803 12.9718 20.4701 13.0961L15.4701 18.7211C15.4111 18.7873 15.3387 18.8403 15.2576 18.8764C15.1766 18.9125 15.0888 18.9309 15.0001 18.9305ZM20.0001 19.5555C19.6292 19.5555 19.2667 19.4455 18.9584 19.2395C18.65 19.0334 18.4097 18.7406 18.2678 18.398C18.1259 18.0554 18.0888 17.6784 18.1611 17.3147C18.2335 16.9509 18.412 16.6169 18.6743 16.3546C18.9365 16.0924 19.2706 15.9138 19.6343 15.8415C19.998 15.7691 20.375 15.8063 20.7176 15.9482C21.0602 16.0901 21.3531 16.3304 21.5591 16.6388C21.7651 16.9471 21.8751 17.3096 21.8751 17.6805C21.8751 18.1777 21.6775 18.6546 21.3259 19.0063C20.9743 19.3579 20.4974 19.5555 20.0001 19.5555Z" fill="#0070CB"/>
</svg>
