<svg width="33" height="31" viewBox="0 0 33 31" fill="none" xmlns="http://www.w3.org/2000/svg">
<circle cx="17.5" cy="13.3057" r="17" fill="#FFC79F"/>
<g clip-path="url(#clip0_12004_8911)">
<path d="M21.0156 7.99359H24.7739L20.4297 3.64941V7.40766C20.4297 7.73094 20.6923 7.99359 21.0156 7.99359Z" fill="#FF740F"/>
<path d="M11.6406 23.3057H23.3594C24.3287 23.3057 25.1172 22.5171 25.1172 21.5479V9.16504H21.0156C20.0463 9.16504 19.2578 8.37652 19.2578 7.40723V3.30566H11.6406C10.6713 3.30566 9.88281 4.09418 9.88281 5.06348V21.5479C9.88281 22.5171 10.6713 23.3057 11.6406 23.3057ZM15.1562 12.7197H21.0156C21.3395 12.7197 21.6016 12.9818 21.6016 13.3057C21.6016 13.6295 21.3395 13.8916 21.0156 13.8916H15.1562C14.8324 13.8916 14.5703 13.6295 14.5703 13.3057C14.5703 12.9818 14.8324 12.7197 15.1562 12.7197ZM15.1562 15.0635H21.0156C21.3395 15.0635 21.6016 15.3255 21.6016 15.6494C21.6016 15.9733 21.3395 16.2354 21.0156 16.2354H15.1562C14.8324 16.2354 14.5703 15.9733 14.5703 15.6494C14.5703 15.3255 14.8324 15.0635 15.1562 15.0635ZM15.1562 17.4072H21.0156C21.3395 17.4072 21.6016 17.6693 21.6016 17.9932C21.6016 18.317 21.3395 18.5791 21.0156 18.5791H15.1562C14.8324 18.5791 14.5703 18.317 14.5703 17.9932C14.5703 17.6693 14.8324 17.4072 15.1562 17.4072ZM12.8125 12.7197C13.1361 12.7197 13.3984 12.9821 13.3984 13.3057C13.3984 13.6293 13.1361 13.8916 12.8125 13.8916C12.4889 13.8916 12.2266 13.6293 12.2266 13.3057C12.2266 12.9821 12.4889 12.7197 12.8125 12.7197ZM12.8125 15.0635C13.1361 15.0635 13.3984 15.3258 13.3984 15.6494C13.3984 15.973 13.1361 16.2354 12.8125 16.2354C12.4889 16.2354 12.2266 15.973 12.2266 15.6494C12.2266 15.3258 12.4889 15.0635 12.8125 15.0635ZM12.8125 17.4072C13.1361 17.4072 13.3984 17.6696 13.3984 17.9932C13.3984 18.3168 13.1361 18.5791 12.8125 18.5791C12.4889 18.5791 12.2266 18.3168 12.2266 17.9932C12.2266 17.6696 12.4889 17.4072 12.8125 17.4072Z" fill="#FF740F"/>
</g>
<defs>
<clipPath id="clip0_12004_8911">
<rect width="20" height="20" fill="white" transform="translate(7.5 3.30566)"/>
</clipPath>
</defs>
</svg>
