<svg width="12" height="15" viewBox="0 0 12 15" fill="none" xmlns="http://www.w3.org/2000/svg">
<path d="M8.021 0.580857C7.9568 0.513245 7.86879 0.472656 7.77757 0.472656H2.31618C1.30841 0.472656 0.476562 1.30119 0.476562 2.30886V12.6364C0.476562 13.6441 1.30841 14.4727 2.31618 14.4727H9.7287C10.7365 14.4727 11.5683 13.6441 11.5683 12.6364V4.43591C11.5683 4.348 11.5277 4.26351 11.4703 4.19921L8.021 0.580857ZM8.11905 1.66638L10.4287 4.09101H8.92729C8.48093 4.09101 8.11905 3.73255 8.11905 3.28618V1.66638ZM9.7287 13.7964H2.31618C1.68386 13.7964 1.15289 13.2722 1.15289 12.6364V2.30886C1.15289 1.67653 1.68044 1.14899 2.31618 1.14899H7.44272V3.28618C7.44272 4.10789 8.10559 4.76734 8.92729 4.76734H10.892V12.6364C10.892 13.2722 10.3644 13.7964 9.7287 13.7964Z" fill="#00476A"/>
<path d="M8.80571 11.4629H3.23953C3.05357 11.4629 2.90137 11.615 2.90137 11.8011C2.90137 11.987 3.05357 12.1392 3.23953 12.1392H8.80912C8.99508 12.1392 9.14729 11.987 9.14729 11.8011C9.14729 11.615 8.99508 11.4629 8.80571 11.4629Z" fill="#00476A"/>
<path d="M5.77601 10.2487C5.84031 10.3163 5.92821 10.3569 6.02285 10.3569C6.11759 10.3569 6.2055 10.3163 6.26969 10.2487L8.25137 8.12166C8.37986 7.98633 8.36972 7.76993 8.23449 7.64486C8.09916 7.51636 7.88276 7.5264 7.75768 7.66173L6.36101 9.15977V5.46707C6.36101 5.28101 6.20881 5.12891 6.02285 5.12891C5.83689 5.12891 5.68468 5.28101 5.68468 5.46707V9.15977L4.29143 7.66173C4.16294 7.52651 3.94985 7.51636 3.81462 7.64486C3.6794 7.77335 3.66925 7.98644 3.79775 8.12166L5.77601 10.2487Z" fill="#00476A"/>
</svg>
