<svg width="33" height="32" viewBox="0 0 33 32" fill="none" xmlns="http://www.w3.org/2000/svg">
<circle cx="17.5" cy="14.3057" r="17" fill="#C3EBFF"/>
<g clip-path="url(#clip0_12004_8753)">
<path d="M27.2786 11.6112L21.8867 7.2701C21.6691 7.09482 21.3588 7.0949 21.1412 7.2701L20.4551 7.8224L24.0107 10.6851C24.4333 11.0253 24.6757 11.5316 24.6757 12.0742V20.8779C24.6757 21.0863 24.6395 21.2863 24.5735 21.4724H26.9059C27.2341 21.4724 27.5003 21.2062 27.5003 20.8779V12.0742C27.5002 11.8942 27.4187 11.724 27.2786 11.6112Z" fill="#02ABFF"/>
<path d="M23.2649 11.6112L17.873 7.2701C17.6554 7.09482 17.3451 7.0949 17.1275 7.2701L16.4414 7.82244L19.997 10.6851C20.4196 11.0254 20.662 11.5317 20.662 12.0742V20.8779C20.662 21.0863 20.6258 21.2863 20.5598 21.4724H22.8922C23.2204 21.4724 23.4866 21.2062 23.4866 20.8779V12.0742C23.4865 11.8942 23.405 11.724 23.2649 11.6112Z" fill="#02ABFF"/>
<path d="M19.2514 11.6112L13.8596 7.2701C13.6419 7.09482 13.3317 7.0949 13.114 7.2701L7.72168 11.6112C7.58152 11.724 7.5 11.8942 7.5 12.0742V20.8779C7.5 21.2062 7.76617 21.4724 8.09445 21.4724H11.7966C12.1249 21.4724 12.3911 21.2062 12.3911 20.8779V18.2253C12.3911 17.6213 12.8825 17.1299 13.4865 17.1299C14.0905 17.1299 14.582 17.6213 14.582 18.2253V20.8779C14.582 21.2062 14.8482 21.4724 15.1764 21.4724H15.4934H16.1214H18.8786C19.2069 21.4724 19.4731 21.2062 19.4731 20.8779V12.0742C19.4731 11.8942 19.3916 11.724 19.2514 11.6112Z" fill="#02ABFF"/>
</g>
<defs>
<clipPath id="clip0_12004_8753">
<rect width="20" height="20" fill="white" transform="translate(7.5 4.30566)"/>
</clipPath>
</defs>
</svg>
